G04 EAGLE Gerber RS-274X export*
G75*
%MOMM*%
%FSLAX34Y34*%
%LPD*%
%INBottom Copper*%
%IPPOS*%
%AMOC8*
5,1,8,0,0,1.08239X$1,22.5*%
G01*
%ADD10C,0.889000*%
%ADD11C,0.406400*%
%ADD12C,1.524000*%
%ADD13C,0.756400*%
%ADD14C,0.508000*%

G36*
X1079209Y46497D02*
X1079209Y46497D01*
X1079300Y46505D01*
X1079330Y46517D01*
X1079362Y46522D01*
X1079442Y46565D01*
X1079526Y46601D01*
X1079558Y46627D01*
X1079579Y46638D01*
X1079601Y46661D01*
X1079657Y46706D01*
X1089944Y56993D01*
X1089997Y57067D01*
X1090057Y57136D01*
X1090069Y57166D01*
X1090088Y57192D01*
X1090115Y57279D01*
X1090149Y57364D01*
X1090153Y57405D01*
X1090160Y57428D01*
X1090159Y57460D01*
X1090167Y57531D01*
X1090167Y555244D01*
X1090153Y555334D01*
X1090145Y555425D01*
X1090133Y555455D01*
X1090128Y555487D01*
X1090085Y555567D01*
X1090049Y555651D01*
X1090023Y555683D01*
X1090012Y555704D01*
X1089989Y555726D01*
X1089944Y555782D01*
X1076863Y568863D01*
X1076789Y568916D01*
X1076720Y568976D01*
X1076690Y568988D01*
X1076664Y569007D01*
X1076577Y569034D01*
X1076492Y569068D01*
X1076451Y569072D01*
X1076428Y569079D01*
X1076396Y569078D01*
X1076325Y569086D01*
X95250Y569086D01*
X95160Y569072D01*
X95069Y569064D01*
X95039Y569052D01*
X95007Y569047D01*
X94927Y569004D01*
X94843Y568968D01*
X94811Y568942D01*
X94790Y568931D01*
X94768Y568908D01*
X94712Y568863D01*
X88362Y562513D01*
X88309Y562439D01*
X88249Y562370D01*
X88237Y562340D01*
X88218Y562314D01*
X88191Y562227D01*
X88157Y562142D01*
X88153Y562101D01*
X88146Y562078D01*
X88147Y562046D01*
X88139Y561975D01*
X88139Y60325D01*
X88154Y60235D01*
X88161Y60144D01*
X88173Y60114D01*
X88179Y60082D01*
X88221Y60002D01*
X88257Y59918D01*
X88283Y59886D01*
X88294Y59865D01*
X88317Y59843D01*
X88362Y59787D01*
X101443Y46706D01*
X101517Y46653D01*
X101586Y46593D01*
X101616Y46581D01*
X101642Y46562D01*
X101729Y46535D01*
X101814Y46501D01*
X101855Y46497D01*
X101878Y46490D01*
X101910Y46491D01*
X101981Y46483D01*
X1079119Y46483D01*
X1079209Y46497D01*
G37*
%LPC*%
G36*
X850124Y200560D02*
X850124Y200560D01*
X847987Y201446D01*
X846352Y203081D01*
X845466Y205218D01*
X845466Y207532D01*
X846352Y209669D01*
X846993Y210311D01*
X847046Y210385D01*
X847106Y210454D01*
X847118Y210484D01*
X847137Y210510D01*
X847164Y210597D01*
X847198Y210682D01*
X847202Y210723D01*
X847209Y210745D01*
X847208Y210778D01*
X847216Y210849D01*
X847216Y219525D01*
X850574Y222883D01*
X850616Y222941D01*
X850665Y222993D01*
X850687Y223040D01*
X850717Y223082D01*
X850738Y223151D01*
X850769Y223216D01*
X850774Y223268D01*
X850790Y223318D01*
X850788Y223389D01*
X850796Y223460D01*
X850785Y223511D01*
X850783Y223563D01*
X850759Y223631D01*
X850744Y223701D01*
X850717Y223746D01*
X850699Y223794D01*
X850654Y223850D01*
X850617Y223912D01*
X850578Y223946D01*
X850545Y223986D01*
X850485Y224025D01*
X850430Y224072D01*
X850382Y224091D01*
X850338Y224119D01*
X850269Y224137D01*
X850202Y224164D01*
X850131Y224172D01*
X850100Y224180D01*
X850077Y224178D01*
X850036Y224182D01*
X848346Y224182D01*
X846209Y225068D01*
X844574Y226703D01*
X843688Y228840D01*
X843688Y231154D01*
X844574Y233291D01*
X845215Y233933D01*
X845268Y234007D01*
X845328Y234076D01*
X845340Y234106D01*
X845359Y234132D01*
X845386Y234219D01*
X845420Y234304D01*
X845424Y234345D01*
X845431Y234367D01*
X845430Y234400D01*
X845438Y234471D01*
X845438Y237178D01*
X850574Y242314D01*
X850616Y242372D01*
X850665Y242424D01*
X850687Y242471D01*
X850717Y242513D01*
X850738Y242582D01*
X850769Y242647D01*
X850774Y242699D01*
X850790Y242749D01*
X850788Y242820D01*
X850796Y242891D01*
X850785Y242942D01*
X850783Y242994D01*
X850759Y243062D01*
X850744Y243132D01*
X850717Y243177D01*
X850699Y243225D01*
X850654Y243281D01*
X850617Y243343D01*
X850578Y243377D01*
X850545Y243417D01*
X850485Y243456D01*
X850430Y243503D01*
X850382Y243522D01*
X850338Y243550D01*
X850269Y243568D01*
X850202Y243595D01*
X850131Y243603D01*
X850100Y243611D01*
X850077Y243609D01*
X850036Y243613D01*
X848346Y243613D01*
X846209Y244499D01*
X844574Y246134D01*
X843688Y248271D01*
X843688Y250585D01*
X844574Y252722D01*
X845215Y253364D01*
X845268Y253438D01*
X845328Y253507D01*
X845340Y253537D01*
X845359Y253563D01*
X845386Y253650D01*
X845420Y253735D01*
X845424Y253776D01*
X845431Y253798D01*
X845430Y253831D01*
X845438Y253902D01*
X845438Y254450D01*
X854458Y263470D01*
X854515Y263549D01*
X854577Y263624D01*
X854586Y263648D01*
X854601Y263669D01*
X854630Y263762D01*
X854665Y263853D01*
X854666Y263879D01*
X854674Y263904D01*
X854671Y264002D01*
X854675Y264099D01*
X854668Y264124D01*
X854667Y264150D01*
X854634Y264242D01*
X854607Y264335D01*
X854592Y264357D01*
X854583Y264381D01*
X854522Y264457D01*
X854466Y264537D01*
X854445Y264553D01*
X854429Y264573D01*
X854347Y264626D01*
X854269Y264684D01*
X854244Y264692D01*
X854222Y264706D01*
X854128Y264730D01*
X854035Y264760D01*
X854009Y264760D01*
X853984Y264766D01*
X853887Y264759D01*
X853789Y264758D01*
X853758Y264749D01*
X853738Y264747D01*
X853708Y264734D01*
X853628Y264711D01*
X852057Y264060D01*
X849743Y264060D01*
X847606Y264946D01*
X845971Y266581D01*
X845085Y268718D01*
X845085Y271032D01*
X845971Y273169D01*
X846612Y273811D01*
X846665Y273885D01*
X846725Y273954D01*
X846737Y273984D01*
X846756Y274010D01*
X846783Y274097D01*
X846817Y274182D01*
X846821Y274223D01*
X846828Y274245D01*
X846827Y274278D01*
X846835Y274349D01*
X846835Y281247D01*
X854458Y288870D01*
X854515Y288949D01*
X854577Y289024D01*
X854586Y289048D01*
X854601Y289069D01*
X854630Y289162D01*
X854665Y289253D01*
X854666Y289279D01*
X854674Y289304D01*
X854671Y289402D01*
X854675Y289499D01*
X854668Y289524D01*
X854667Y289550D01*
X854634Y289642D01*
X854607Y289735D01*
X854592Y289757D01*
X854583Y289781D01*
X854522Y289858D01*
X854466Y289937D01*
X854445Y289953D01*
X854429Y289973D01*
X854347Y290026D01*
X854269Y290084D01*
X854244Y290092D01*
X854222Y290106D01*
X854128Y290130D01*
X854035Y290160D01*
X854009Y290160D01*
X853984Y290166D01*
X853887Y290159D01*
X853789Y290158D01*
X853758Y290149D01*
X853738Y290147D01*
X853708Y290134D01*
X853628Y290111D01*
X852057Y289460D01*
X849743Y289460D01*
X847606Y290346D01*
X845971Y291981D01*
X845085Y294118D01*
X845085Y296432D01*
X845971Y298569D01*
X846612Y299211D01*
X846665Y299285D01*
X846725Y299354D01*
X846737Y299384D01*
X846756Y299410D01*
X846783Y299497D01*
X846817Y299582D01*
X846821Y299623D01*
X846828Y299645D01*
X846827Y299678D01*
X846835Y299749D01*
X846835Y369476D01*
X846821Y369566D01*
X846813Y369657D01*
X846801Y369687D01*
X846796Y369719D01*
X846753Y369799D01*
X846717Y369883D01*
X846691Y369915D01*
X846680Y369936D01*
X846657Y369958D01*
X846612Y370014D01*
X843089Y373537D01*
X843015Y373590D01*
X842946Y373650D01*
X842916Y373662D01*
X842890Y373681D01*
X842803Y373708D01*
X842718Y373742D01*
X842677Y373746D01*
X842654Y373753D01*
X842622Y373752D01*
X842551Y373760D01*
X553941Y373760D01*
X543214Y384487D01*
X543140Y384540D01*
X543071Y384600D01*
X543041Y384612D01*
X543015Y384631D01*
X542928Y384658D01*
X542843Y384692D01*
X542802Y384696D01*
X542779Y384703D01*
X542747Y384702D01*
X542676Y384710D01*
X541768Y384710D01*
X539631Y385596D01*
X537996Y387231D01*
X537110Y389368D01*
X537110Y391682D01*
X537996Y393819D01*
X538637Y394461D01*
X538690Y394535D01*
X538750Y394604D01*
X538762Y394634D01*
X538781Y394660D01*
X538808Y394747D01*
X538842Y394832D01*
X538846Y394873D01*
X538853Y394895D01*
X538852Y394928D01*
X538860Y394999D01*
X538860Y521639D01*
X538846Y521729D01*
X538838Y521820D01*
X538826Y521849D01*
X538821Y521881D01*
X538778Y521962D01*
X538742Y522046D01*
X538716Y522078D01*
X538705Y522099D01*
X538682Y522121D01*
X538637Y522177D01*
X537433Y523381D01*
X536447Y525762D01*
X536447Y528338D01*
X537433Y530719D01*
X539256Y532542D01*
X541637Y533528D01*
X544213Y533528D01*
X546594Y532542D01*
X548417Y530719D01*
X549403Y528338D01*
X549403Y525762D01*
X548417Y523381D01*
X547213Y522177D01*
X547160Y522103D01*
X547100Y522033D01*
X547088Y522003D01*
X547069Y521977D01*
X547042Y521890D01*
X547008Y521805D01*
X547004Y521764D01*
X546997Y521742D01*
X546998Y521710D01*
X546990Y521639D01*
X546990Y394999D01*
X547004Y394909D01*
X547012Y394818D01*
X547024Y394788D01*
X547029Y394756D01*
X547072Y394675D01*
X547108Y394592D01*
X547134Y394559D01*
X547145Y394539D01*
X547168Y394517D01*
X547213Y394461D01*
X547854Y393819D01*
X548740Y391682D01*
X548740Y390774D01*
X548754Y390684D01*
X548762Y390593D01*
X548774Y390563D01*
X548779Y390531D01*
X548822Y390451D01*
X548858Y390367D01*
X548884Y390335D01*
X548895Y390314D01*
X548918Y390292D01*
X548963Y390236D01*
X557086Y382113D01*
X557160Y382060D01*
X557229Y382000D01*
X557259Y381988D01*
X557285Y381969D01*
X557372Y381942D01*
X557457Y381908D01*
X557498Y381904D01*
X557521Y381897D01*
X557553Y381898D01*
X557624Y381890D01*
X612554Y381890D01*
X612625Y381901D01*
X612697Y381903D01*
X612745Y381921D01*
X612797Y381929D01*
X612860Y381963D01*
X612928Y381988D01*
X612968Y382020D01*
X613014Y382045D01*
X613064Y382097D01*
X613120Y382141D01*
X613148Y382185D01*
X613184Y382223D01*
X613214Y382288D01*
X613253Y382348D01*
X613265Y382399D01*
X613287Y382446D01*
X613295Y382517D01*
X613313Y382587D01*
X613309Y382639D01*
X613314Y382690D01*
X613299Y382761D01*
X613293Y382832D01*
X613273Y382880D01*
X613262Y382931D01*
X613225Y382992D01*
X613197Y383058D01*
X613152Y383114D01*
X613136Y383142D01*
X613118Y383157D01*
X613092Y383189D01*
X574583Y421698D01*
X574509Y421751D01*
X574440Y421811D01*
X574410Y421823D01*
X574384Y421842D01*
X574297Y421869D01*
X574212Y421903D01*
X574171Y421907D01*
X574148Y421914D01*
X574116Y421913D01*
X574045Y421921D01*
X573137Y421921D01*
X571000Y422807D01*
X569365Y424442D01*
X568479Y426579D01*
X568479Y428893D01*
X569365Y431030D01*
X570006Y431672D01*
X570059Y431746D01*
X570119Y431815D01*
X570131Y431845D01*
X570150Y431871D01*
X570177Y431958D01*
X570211Y432043D01*
X570215Y432084D01*
X570222Y432106D01*
X570221Y432139D01*
X570229Y432210D01*
X570229Y525178D01*
X571149Y526098D01*
X571202Y526172D01*
X571262Y526241D01*
X571274Y526271D01*
X571293Y526297D01*
X571320Y526384D01*
X571354Y526469D01*
X571358Y526510D01*
X571365Y526533D01*
X571364Y526565D01*
X571372Y526636D01*
X571372Y528338D01*
X572358Y530719D01*
X574181Y532542D01*
X576562Y533528D01*
X579138Y533528D01*
X581519Y532542D01*
X583342Y530719D01*
X584328Y528338D01*
X584328Y525762D01*
X583342Y523381D01*
X581519Y521558D01*
X579138Y520572D01*
X579120Y520572D01*
X579100Y520569D01*
X579081Y520571D01*
X578979Y520549D01*
X578877Y520533D01*
X578860Y520523D01*
X578840Y520519D01*
X578751Y520466D01*
X578660Y520417D01*
X578646Y520403D01*
X578629Y520393D01*
X578562Y520314D01*
X578490Y520239D01*
X578482Y520221D01*
X578469Y520206D01*
X578430Y520110D01*
X578387Y520016D01*
X578385Y519996D01*
X578377Y519978D01*
X578359Y519811D01*
X578359Y432210D01*
X578373Y432120D01*
X578381Y432029D01*
X578393Y431999D01*
X578398Y431967D01*
X578441Y431886D01*
X578477Y431803D01*
X578503Y431770D01*
X578514Y431750D01*
X578537Y431728D01*
X578582Y431672D01*
X579223Y431030D01*
X580109Y428893D01*
X580109Y427985D01*
X580123Y427895D01*
X580131Y427804D01*
X580143Y427774D01*
X580148Y427742D01*
X580191Y427662D01*
X580227Y427578D01*
X580253Y427546D01*
X580264Y427525D01*
X580287Y427503D01*
X580332Y427447D01*
X618300Y389479D01*
X618374Y389426D01*
X618443Y389366D01*
X618473Y389354D01*
X618499Y389335D01*
X618586Y389308D01*
X618671Y389274D01*
X618712Y389270D01*
X618735Y389263D01*
X618767Y389264D01*
X618838Y389256D01*
X643669Y389256D01*
X643740Y389267D01*
X643812Y389269D01*
X643861Y389287D01*
X643912Y389295D01*
X643975Y389329D01*
X644043Y389354D01*
X644083Y389386D01*
X644129Y389411D01*
X644179Y389462D01*
X644235Y389507D01*
X644263Y389551D01*
X644299Y389589D01*
X644329Y389654D01*
X644368Y389714D01*
X644380Y389765D01*
X644402Y389812D01*
X644410Y389883D01*
X644428Y389953D01*
X644424Y390005D01*
X644429Y390056D01*
X644414Y390127D01*
X644408Y390198D01*
X644388Y390246D01*
X644377Y390297D01*
X644340Y390358D01*
X644312Y390424D01*
X644267Y390480D01*
X644251Y390508D01*
X644233Y390523D01*
X644207Y390555D01*
X598776Y435987D01*
X598681Y436055D01*
X598587Y436125D01*
X598581Y436127D01*
X598576Y436131D01*
X598464Y436165D01*
X598353Y436201D01*
X598347Y436201D01*
X598341Y436203D01*
X598223Y436200D01*
X598107Y436199D01*
X598100Y436197D01*
X598095Y436197D01*
X598077Y436190D01*
X597946Y436152D01*
X597930Y436145D01*
X595616Y436145D01*
X593479Y437031D01*
X591844Y438666D01*
X590958Y440803D01*
X590958Y443117D01*
X591844Y445254D01*
X592485Y445896D01*
X592538Y445970D01*
X592598Y446039D01*
X592610Y446069D01*
X592629Y446095D01*
X592656Y446182D01*
X592690Y446267D01*
X592694Y446308D01*
X592701Y446330D01*
X592700Y446363D01*
X592708Y446434D01*
X592708Y512732D01*
X606074Y526098D01*
X606127Y526172D01*
X606187Y526241D01*
X606199Y526271D01*
X606218Y526297D01*
X606245Y526384D01*
X606279Y526469D01*
X606283Y526510D01*
X606290Y526532D01*
X606289Y526565D01*
X606297Y526636D01*
X606297Y528338D01*
X607283Y530719D01*
X609106Y532542D01*
X611487Y533528D01*
X614063Y533528D01*
X616444Y532542D01*
X618267Y530719D01*
X619253Y528338D01*
X619253Y525762D01*
X618267Y523381D01*
X616444Y521558D01*
X614063Y520572D01*
X612361Y520572D01*
X612271Y520558D01*
X612180Y520550D01*
X612150Y520538D01*
X612118Y520533D01*
X612038Y520490D01*
X611954Y520454D01*
X611922Y520428D01*
X611901Y520417D01*
X611879Y520394D01*
X611823Y520349D01*
X601061Y509587D01*
X601008Y509513D01*
X600948Y509444D01*
X600936Y509414D01*
X600917Y509388D01*
X600890Y509301D01*
X600856Y509216D01*
X600852Y509175D01*
X600845Y509152D01*
X600846Y509120D01*
X600838Y509049D01*
X600838Y446434D01*
X600852Y446344D01*
X600860Y446253D01*
X600872Y446223D01*
X600877Y446191D01*
X600920Y446110D01*
X600956Y446027D01*
X600982Y445994D01*
X600993Y445974D01*
X601016Y445952D01*
X601061Y445896D01*
X601702Y445254D01*
X602137Y444204D01*
X602172Y444148D01*
X602198Y444088D01*
X602249Y444023D01*
X602267Y443995D01*
X602282Y443983D01*
X602302Y443957D01*
X649415Y396845D01*
X649489Y396792D01*
X649558Y396732D01*
X649588Y396720D01*
X649614Y396701D01*
X649701Y396674D01*
X649786Y396640D01*
X649827Y396636D01*
X649850Y396629D01*
X649882Y396630D01*
X649953Y396622D01*
X661957Y396622D01*
X662028Y396633D01*
X662100Y396635D01*
X662148Y396653D01*
X662200Y396661D01*
X662263Y396695D01*
X662331Y396720D01*
X662371Y396752D01*
X662417Y396777D01*
X662467Y396829D01*
X662523Y396873D01*
X662551Y396917D01*
X662587Y396955D01*
X662617Y397020D01*
X662656Y397080D01*
X662668Y397131D01*
X662690Y397178D01*
X662698Y397249D01*
X662716Y397319D01*
X662712Y397371D01*
X662717Y397422D01*
X662702Y397493D01*
X662696Y397564D01*
X662676Y397612D01*
X662665Y397663D01*
X662628Y397724D01*
X662600Y397790D01*
X662555Y397846D01*
X662539Y397874D01*
X662521Y397889D01*
X662495Y397921D01*
X623097Y437319D01*
X623023Y437372D01*
X622954Y437432D01*
X622924Y437444D01*
X622898Y437463D01*
X622811Y437490D01*
X622726Y437524D01*
X622685Y437528D01*
X622662Y437535D01*
X622630Y437534D01*
X622559Y437542D01*
X621651Y437542D01*
X619514Y438428D01*
X617879Y440063D01*
X616993Y442200D01*
X616993Y444514D01*
X617879Y446651D01*
X618520Y447293D01*
X618573Y447367D01*
X618633Y447436D01*
X618645Y447466D01*
X618664Y447492D01*
X618691Y447579D01*
X618725Y447664D01*
X618729Y447705D01*
X618736Y447727D01*
X618735Y447760D01*
X618743Y447831D01*
X618743Y503842D01*
X621347Y506446D01*
X640999Y526098D01*
X641052Y526172D01*
X641112Y526241D01*
X641124Y526271D01*
X641143Y526297D01*
X641170Y526384D01*
X641204Y526469D01*
X641208Y526510D01*
X641215Y526532D01*
X641214Y526565D01*
X641222Y526636D01*
X641222Y528338D01*
X642208Y530719D01*
X644031Y532542D01*
X646412Y533528D01*
X648988Y533528D01*
X651369Y532542D01*
X653192Y530719D01*
X654178Y528338D01*
X654178Y525762D01*
X653192Y523381D01*
X651369Y521558D01*
X648988Y520572D01*
X647286Y520572D01*
X647196Y520558D01*
X647105Y520550D01*
X647075Y520538D01*
X647043Y520533D01*
X646963Y520490D01*
X646879Y520454D01*
X646847Y520428D01*
X646826Y520417D01*
X646804Y520394D01*
X646748Y520349D01*
X627096Y500697D01*
X627049Y500633D01*
X627033Y500616D01*
X627030Y500608D01*
X626983Y500554D01*
X626971Y500524D01*
X626952Y500498D01*
X626925Y500411D01*
X626891Y500326D01*
X626887Y500285D01*
X626880Y500262D01*
X626881Y500230D01*
X626873Y500159D01*
X626873Y447831D01*
X626887Y447741D01*
X626895Y447650D01*
X626907Y447620D01*
X626912Y447588D01*
X626955Y447507D01*
X626991Y447424D01*
X627017Y447391D01*
X627028Y447371D01*
X627051Y447349D01*
X627096Y447293D01*
X627737Y446651D01*
X628623Y444514D01*
X628623Y443606D01*
X628637Y443516D01*
X628645Y443425D01*
X628657Y443395D01*
X628662Y443363D01*
X628705Y443283D01*
X628741Y443199D01*
X628767Y443167D01*
X628778Y443146D01*
X628801Y443124D01*
X628846Y443068D01*
X667703Y404211D01*
X667777Y404158D01*
X667846Y404098D01*
X667876Y404086D01*
X667902Y404067D01*
X667989Y404040D01*
X668074Y404006D01*
X668115Y404002D01*
X668138Y403995D01*
X668170Y403996D01*
X668241Y403988D01*
X710344Y403988D01*
X710415Y403999D01*
X710487Y404001D01*
X710535Y404019D01*
X710587Y404027D01*
X710650Y404061D01*
X710718Y404086D01*
X710758Y404118D01*
X710804Y404143D01*
X710854Y404195D01*
X710910Y404239D01*
X710938Y404283D01*
X710974Y404321D01*
X711004Y404386D01*
X711043Y404446D01*
X711055Y404497D01*
X711077Y404544D01*
X711085Y404615D01*
X711103Y404685D01*
X711099Y404737D01*
X711104Y404788D01*
X711089Y404859D01*
X711083Y404930D01*
X711063Y404978D01*
X711052Y405029D01*
X711015Y405090D01*
X710987Y405156D01*
X710942Y405212D01*
X710926Y405240D01*
X710908Y405255D01*
X710882Y405287D01*
X681354Y434815D01*
X681354Y442693D01*
X681340Y442783D01*
X681332Y442874D01*
X681320Y442904D01*
X681315Y442936D01*
X681272Y443017D01*
X681236Y443100D01*
X681210Y443133D01*
X681199Y443153D01*
X681176Y443175D01*
X681131Y443231D01*
X680490Y443873D01*
X679604Y446010D01*
X679604Y448324D01*
X680490Y450461D01*
X681131Y451103D01*
X681184Y451177D01*
X681244Y451246D01*
X681256Y451276D01*
X681275Y451302D01*
X681302Y451389D01*
X681336Y451474D01*
X681340Y451515D01*
X681347Y451537D01*
X681346Y451570D01*
X681354Y451641D01*
X681354Y525178D01*
X682274Y526098D01*
X682327Y526172D01*
X682387Y526241D01*
X682399Y526271D01*
X682418Y526297D01*
X682445Y526384D01*
X682479Y526469D01*
X682483Y526510D01*
X682490Y526532D01*
X682489Y526565D01*
X682497Y526636D01*
X682497Y528338D01*
X683483Y530719D01*
X685306Y532542D01*
X687687Y533528D01*
X690263Y533528D01*
X692644Y532542D01*
X694467Y530719D01*
X695453Y528338D01*
X695453Y525762D01*
X694467Y523381D01*
X692644Y521558D01*
X690263Y520572D01*
X690245Y520572D01*
X690225Y520569D01*
X690206Y520571D01*
X690104Y520549D01*
X690002Y520533D01*
X689985Y520523D01*
X689965Y520519D01*
X689876Y520466D01*
X689785Y520417D01*
X689771Y520403D01*
X689754Y520393D01*
X689687Y520314D01*
X689615Y520239D01*
X689607Y520221D01*
X689594Y520206D01*
X689555Y520110D01*
X689512Y520016D01*
X689510Y519996D01*
X689502Y519978D01*
X689484Y519811D01*
X689484Y451641D01*
X689498Y451551D01*
X689506Y451460D01*
X689518Y451430D01*
X689523Y451398D01*
X689566Y451317D01*
X689602Y451234D01*
X689628Y451201D01*
X689639Y451181D01*
X689662Y451159D01*
X689707Y451103D01*
X690348Y450461D01*
X691234Y448324D01*
X691234Y446010D01*
X690348Y443873D01*
X689707Y443231D01*
X689654Y443157D01*
X689594Y443088D01*
X689582Y443058D01*
X689563Y443032D01*
X689536Y442945D01*
X689502Y442860D01*
X689498Y442819D01*
X689491Y442797D01*
X689492Y442764D01*
X689484Y442693D01*
X689484Y438498D01*
X689485Y438490D01*
X689485Y438487D01*
X689488Y438473D01*
X689498Y438408D01*
X689506Y438317D01*
X689518Y438287D01*
X689523Y438255D01*
X689566Y438175D01*
X689602Y438091D01*
X689628Y438059D01*
X689639Y438038D01*
X689662Y438016D01*
X689707Y437960D01*
X714312Y413355D01*
X714386Y413302D01*
X714455Y413242D01*
X714485Y413230D01*
X714511Y413211D01*
X714598Y413184D01*
X714683Y413150D01*
X714724Y413146D01*
X714747Y413139D01*
X714779Y413140D01*
X714850Y413132D01*
X859048Y413132D01*
X887957Y384223D01*
X887957Y248769D01*
X855569Y216381D01*
X855516Y216307D01*
X855456Y216237D01*
X855444Y216207D01*
X855425Y216181D01*
X855398Y216094D01*
X855364Y216009D01*
X855360Y215968D01*
X855353Y215946D01*
X855354Y215914D01*
X855346Y215843D01*
X855346Y210849D01*
X855360Y210759D01*
X855368Y210668D01*
X855380Y210638D01*
X855385Y210606D01*
X855428Y210525D01*
X855464Y210442D01*
X855490Y210409D01*
X855501Y210389D01*
X855524Y210367D01*
X855569Y210311D01*
X856210Y209669D01*
X857096Y207532D01*
X857096Y205218D01*
X856210Y203081D01*
X854575Y201446D01*
X852438Y200560D01*
X850124Y200560D01*
G37*
%LPD*%
%LPC*%
G36*
X329043Y349785D02*
X329043Y349785D01*
X326906Y350671D01*
X325271Y352306D01*
X324385Y354443D01*
X324385Y356757D01*
X325271Y358894D01*
X326906Y360529D01*
X328638Y361247D01*
X328699Y361284D01*
X328764Y361314D01*
X328802Y361349D01*
X328847Y361376D01*
X328893Y361432D01*
X328945Y361480D01*
X328970Y361526D01*
X329004Y361566D01*
X329029Y361633D01*
X329064Y361696D01*
X329073Y361747D01*
X329092Y361795D01*
X329095Y361867D01*
X329108Y361938D01*
X329100Y361989D01*
X329102Y362041D01*
X329082Y362110D01*
X329072Y362181D01*
X329048Y362227D01*
X329034Y362277D01*
X328993Y362336D01*
X328960Y362400D01*
X328923Y362437D01*
X328893Y362479D01*
X328836Y362522D01*
X328785Y362572D01*
X328722Y362607D01*
X328696Y362626D01*
X328674Y362633D01*
X328638Y362653D01*
X326906Y363371D01*
X325271Y365006D01*
X324385Y367143D01*
X324385Y369457D01*
X325271Y371594D01*
X326906Y373229D01*
X328638Y373947D01*
X328699Y373985D01*
X328764Y374014D01*
X328802Y374049D01*
X328847Y374076D01*
X328893Y374132D01*
X328945Y374180D01*
X328970Y374226D01*
X329004Y374266D01*
X329029Y374333D01*
X329064Y374396D01*
X329073Y374447D01*
X329092Y374495D01*
X329095Y374567D01*
X329108Y374638D01*
X329100Y374689D01*
X329102Y374741D01*
X329082Y374810D01*
X329072Y374881D01*
X329048Y374927D01*
X329034Y374977D01*
X328993Y375036D01*
X328960Y375100D01*
X328923Y375137D01*
X328893Y375179D01*
X328836Y375222D01*
X328785Y375272D01*
X328722Y375307D01*
X328696Y375326D01*
X328674Y375333D01*
X328638Y375353D01*
X326906Y376071D01*
X325271Y377706D01*
X324385Y379843D01*
X324385Y382157D01*
X325271Y384294D01*
X326906Y385929D01*
X329043Y386815D01*
X331357Y386815D01*
X333494Y385929D01*
X333628Y385796D01*
X333702Y385743D01*
X333771Y385683D01*
X333801Y385671D01*
X333827Y385652D01*
X333914Y385625D01*
X333999Y385591D01*
X334040Y385587D01*
X334062Y385580D01*
X334095Y385581D01*
X334166Y385573D01*
X433013Y385573D01*
X433084Y385584D01*
X433156Y385586D01*
X433205Y385604D01*
X433256Y385612D01*
X433319Y385646D01*
X433387Y385671D01*
X433427Y385703D01*
X433473Y385728D01*
X433523Y385780D01*
X433579Y385824D01*
X433607Y385868D01*
X433643Y385906D01*
X433673Y385971D01*
X433712Y386031D01*
X433724Y386082D01*
X433746Y386129D01*
X433754Y386200D01*
X433772Y386270D01*
X433768Y386322D01*
X433773Y386373D01*
X433758Y386444D01*
X433753Y386515D01*
X433732Y386563D01*
X433721Y386614D01*
X433684Y386675D01*
X433656Y386741D01*
X433611Y386797D01*
X433595Y386825D01*
X433577Y386840D01*
X433551Y386872D01*
X433192Y387231D01*
X432307Y389368D01*
X432307Y391682D01*
X433193Y393819D01*
X433834Y394461D01*
X433887Y394535D01*
X433947Y394604D01*
X433959Y394634D01*
X433978Y394660D01*
X434005Y394747D01*
X434039Y394832D01*
X434043Y394873D01*
X434050Y394895D01*
X434049Y394928D01*
X434057Y394999D01*
X434057Y516198D01*
X434056Y516208D01*
X434056Y516213D01*
X434050Y516241D01*
X434043Y516288D01*
X434035Y516379D01*
X434023Y516409D01*
X434018Y516441D01*
X433975Y516522D01*
X433939Y516605D01*
X433913Y516638D01*
X433902Y516658D01*
X433879Y516680D01*
X433834Y516736D01*
X433193Y517378D01*
X432307Y519515D01*
X432307Y521829D01*
X433193Y523966D01*
X434828Y525601D01*
X436965Y526487D01*
X437873Y526487D01*
X437963Y526501D01*
X438054Y526509D01*
X438084Y526521D01*
X438116Y526526D01*
X438196Y526569D01*
X438280Y526605D01*
X438312Y526631D01*
X438333Y526642D01*
X438355Y526665D01*
X438411Y526710D01*
X469549Y557848D01*
X469602Y557922D01*
X469662Y557991D01*
X469674Y558021D01*
X469693Y558047D01*
X469720Y558134D01*
X469754Y558219D01*
X469758Y558260D01*
X469765Y558283D01*
X469764Y558315D01*
X469772Y558386D01*
X469772Y560088D01*
X470758Y562469D01*
X472581Y564292D01*
X474962Y565278D01*
X477538Y565278D01*
X479919Y564292D01*
X481742Y562469D01*
X482728Y560088D01*
X482728Y557512D01*
X481742Y555131D01*
X479919Y553308D01*
X477538Y552322D01*
X475836Y552322D01*
X475746Y552308D01*
X475655Y552300D01*
X475625Y552288D01*
X475593Y552283D01*
X475513Y552240D01*
X475429Y552204D01*
X475397Y552178D01*
X475376Y552167D01*
X475354Y552144D01*
X475298Y552099D01*
X458350Y535151D01*
X458281Y535055D01*
X458209Y534957D01*
X458208Y534954D01*
X458206Y534952D01*
X458171Y534838D01*
X458135Y534723D01*
X458135Y534719D01*
X458134Y534716D01*
X458137Y534596D01*
X458139Y534477D01*
X458140Y534474D01*
X458140Y534471D01*
X458182Y534357D01*
X458222Y534245D01*
X458223Y534243D01*
X458225Y534240D01*
X458300Y534145D01*
X458374Y534052D01*
X458376Y534050D01*
X458378Y534048D01*
X458480Y533982D01*
X458580Y533917D01*
X458583Y533916D01*
X458585Y533915D01*
X458596Y533912D01*
X458739Y533866D01*
X459238Y533767D01*
X460509Y533241D01*
X461653Y532476D01*
X462626Y531503D01*
X463391Y530359D01*
X463917Y529088D01*
X464133Y528002D01*
X457391Y528002D01*
X457371Y527999D01*
X457351Y528001D01*
X457250Y527979D01*
X457148Y527962D01*
X457130Y527953D01*
X457111Y527948D01*
X457022Y527895D01*
X456931Y527847D01*
X456917Y527833D01*
X456900Y527822D01*
X456832Y527744D01*
X456761Y527669D01*
X456753Y527651D01*
X456740Y527635D01*
X456707Y527554D01*
X456641Y527514D01*
X456549Y527466D01*
X456536Y527451D01*
X456519Y527441D01*
X456451Y527362D01*
X456380Y527287D01*
X456372Y527269D01*
X456359Y527254D01*
X456320Y527158D01*
X456276Y527064D01*
X456274Y527045D01*
X456267Y527026D01*
X456248Y526859D01*
X456248Y520117D01*
X455162Y520333D01*
X453891Y520859D01*
X452747Y521624D01*
X451774Y522597D01*
X451009Y523741D01*
X450483Y525012D01*
X450384Y525511D01*
X450357Y525581D01*
X450356Y525589D01*
X450352Y525594D01*
X450341Y525624D01*
X450300Y525736D01*
X450298Y525738D01*
X450297Y525741D01*
X450221Y525834D01*
X450147Y525928D01*
X450144Y525929D01*
X450142Y525932D01*
X450040Y525996D01*
X449940Y526061D01*
X449937Y526061D01*
X449934Y526063D01*
X449817Y526091D01*
X449701Y526121D01*
X449698Y526120D01*
X449695Y526121D01*
X449574Y526111D01*
X449456Y526101D01*
X449453Y526100D01*
X449450Y526100D01*
X449338Y526051D01*
X449230Y526005D01*
X449227Y526003D01*
X449224Y526002D01*
X449216Y525994D01*
X449099Y525900D01*
X444160Y520961D01*
X444107Y520887D01*
X444047Y520818D01*
X444035Y520788D01*
X444016Y520762D01*
X443989Y520674D01*
X443955Y520590D01*
X443951Y520549D01*
X443944Y520526D01*
X443945Y520494D01*
X443937Y520423D01*
X443937Y519515D01*
X443051Y517378D01*
X442410Y516736D01*
X442357Y516662D01*
X442297Y516593D01*
X442285Y516563D01*
X442266Y516537D01*
X442239Y516450D01*
X442205Y516365D01*
X442201Y516324D01*
X442194Y516302D01*
X442195Y516269D01*
X442187Y516198D01*
X442187Y492761D01*
X442198Y492690D01*
X442200Y492618D01*
X442218Y492569D01*
X442226Y492518D01*
X442260Y492455D01*
X442285Y492387D01*
X442317Y492347D01*
X442342Y492301D01*
X442394Y492251D01*
X442438Y492195D01*
X442482Y492167D01*
X442520Y492131D01*
X442585Y492101D01*
X442645Y492062D01*
X442696Y492050D01*
X442743Y492028D01*
X442814Y492020D01*
X442884Y492002D01*
X442936Y492006D01*
X442987Y492001D01*
X443058Y492016D01*
X443129Y492021D01*
X443177Y492042D01*
X443228Y492053D01*
X443289Y492090D01*
X443355Y492118D01*
X443411Y492163D01*
X443439Y492179D01*
X443454Y492197D01*
X443486Y492223D01*
X443916Y492653D01*
X446053Y493538D01*
X446961Y493538D01*
X447051Y493552D01*
X447142Y493560D01*
X447172Y493572D01*
X447204Y493577D01*
X447284Y493620D01*
X447368Y493656D01*
X447400Y493682D01*
X447421Y493693D01*
X447443Y493716D01*
X447499Y493761D01*
X468927Y515189D01*
X468965Y515242D01*
X469011Y515289D01*
X469052Y515362D01*
X469071Y515388D01*
X469076Y515407D01*
X469092Y515436D01*
X469797Y517136D01*
X471432Y518771D01*
X473569Y519657D01*
X475883Y519657D01*
X478020Y518771D01*
X479655Y517136D01*
X480541Y514999D01*
X480541Y512685D01*
X479655Y510548D01*
X478020Y508913D01*
X475883Y508027D01*
X473578Y508027D01*
X473488Y508013D01*
X473397Y508005D01*
X473367Y507993D01*
X473335Y507988D01*
X473255Y507945D01*
X473171Y507909D01*
X473139Y507883D01*
X473118Y507872D01*
X473096Y507849D01*
X473040Y507804D01*
X453248Y488012D01*
X453195Y487938D01*
X453135Y487869D01*
X453123Y487839D01*
X453104Y487813D01*
X453077Y487726D01*
X453043Y487641D01*
X453039Y487600D01*
X453032Y487577D01*
X453033Y487545D01*
X453025Y487474D01*
X453025Y486566D01*
X452139Y484429D01*
X451498Y483787D01*
X451445Y483713D01*
X451385Y483644D01*
X451373Y483614D01*
X451354Y483588D01*
X451327Y483501D01*
X451293Y483416D01*
X451289Y483375D01*
X451282Y483353D01*
X451283Y483320D01*
X451275Y483249D01*
X451275Y400333D01*
X451289Y400243D01*
X451297Y400152D01*
X451309Y400122D01*
X451314Y400090D01*
X451357Y400009D01*
X451393Y399926D01*
X451419Y399893D01*
X451430Y399873D01*
X451453Y399851D01*
X451498Y399795D01*
X452139Y399153D01*
X453025Y397016D01*
X453025Y394702D01*
X452139Y392565D01*
X450504Y390930D01*
X448367Y390044D01*
X446053Y390044D01*
X444989Y390485D01*
X444945Y390496D01*
X444903Y390515D01*
X444826Y390523D01*
X444750Y390541D01*
X444704Y390537D01*
X444659Y390542D01*
X444582Y390525D01*
X444505Y390518D01*
X444463Y390499D01*
X444418Y390490D01*
X444351Y390450D01*
X444280Y390418D01*
X444246Y390387D01*
X444207Y390364D01*
X444156Y390304D01*
X444099Y390252D01*
X444077Y390211D01*
X444047Y390177D01*
X444018Y390104D01*
X443981Y390036D01*
X443972Y389991D01*
X443955Y389948D01*
X443940Y389813D01*
X443937Y389794D01*
X443938Y389789D01*
X443937Y389782D01*
X443937Y389368D01*
X443052Y387231D01*
X442693Y386872D01*
X442651Y386814D01*
X442601Y386762D01*
X442579Y386715D01*
X442549Y386673D01*
X442528Y386604D01*
X442498Y386539D01*
X442492Y386487D01*
X442477Y386437D01*
X442479Y386366D01*
X442471Y386295D01*
X442482Y386244D01*
X442483Y386192D01*
X442508Y386124D01*
X442523Y386054D01*
X442550Y386009D01*
X442567Y385961D01*
X442612Y385905D01*
X442649Y385843D01*
X442689Y385809D01*
X442721Y385769D01*
X442781Y385730D01*
X442836Y385683D01*
X442884Y385664D01*
X442928Y385636D01*
X442997Y385618D01*
X443064Y385591D01*
X443135Y385583D01*
X443167Y385575D01*
X443190Y385577D01*
X443231Y385573D01*
X453234Y385573D01*
X453324Y385587D01*
X453415Y385595D01*
X453445Y385607D01*
X453477Y385612D01*
X453558Y385655D01*
X453641Y385691D01*
X453674Y385717D01*
X453694Y385728D01*
X453716Y385751D01*
X453772Y385796D01*
X453906Y385929D01*
X456043Y386815D01*
X458357Y386815D01*
X460494Y385929D01*
X462129Y384294D01*
X463015Y382157D01*
X463015Y379843D01*
X462121Y377686D01*
X462110Y377670D01*
X462060Y377618D01*
X462038Y377571D01*
X462008Y377529D01*
X461987Y377460D01*
X461957Y377395D01*
X461951Y377343D01*
X461936Y377294D01*
X461938Y377222D01*
X461930Y377151D01*
X461941Y377100D01*
X461942Y377048D01*
X461967Y376980D01*
X461982Y376910D01*
X462009Y376866D01*
X462026Y376817D01*
X462071Y376761D01*
X462108Y376699D01*
X462148Y376665D01*
X462180Y376625D01*
X462240Y376586D01*
X462295Y376539D01*
X462343Y376520D01*
X462387Y376492D01*
X462456Y376474D01*
X462523Y376447D01*
X462594Y376439D01*
X462625Y376431D01*
X462649Y376433D01*
X462690Y376429D01*
X472665Y376429D01*
X472755Y376443D01*
X472846Y376451D01*
X472876Y376463D01*
X472908Y376468D01*
X472989Y376511D01*
X473072Y376547D01*
X473105Y376573D01*
X473125Y376584D01*
X473147Y376607D01*
X473203Y376652D01*
X473337Y376785D01*
X475474Y377671D01*
X477788Y377671D01*
X479925Y376785D01*
X481560Y375150D01*
X482446Y373013D01*
X482446Y372823D01*
X482460Y372733D01*
X482468Y372642D01*
X482480Y372613D01*
X482485Y372581D01*
X482528Y372500D01*
X482564Y372416D01*
X482590Y372384D01*
X482601Y372363D01*
X482624Y372341D01*
X482669Y372285D01*
X485033Y369921D01*
X485107Y369868D01*
X485177Y369808D01*
X485207Y369796D01*
X485233Y369777D01*
X485320Y369750D01*
X485405Y369716D01*
X485446Y369712D01*
X485468Y369705D01*
X485500Y369706D01*
X485571Y369698D01*
X799309Y369698D01*
X799399Y369712D01*
X799490Y369720D01*
X799520Y369732D01*
X799552Y369737D01*
X799633Y369780D01*
X799716Y369816D01*
X799749Y369842D01*
X799769Y369853D01*
X799791Y369876D01*
X799847Y369921D01*
X799981Y370054D01*
X802118Y370940D01*
X804432Y370940D01*
X806569Y370054D01*
X808204Y368419D01*
X809090Y366282D01*
X809090Y363968D01*
X808205Y361831D01*
X807846Y361472D01*
X807804Y361414D01*
X807754Y361362D01*
X807732Y361315D01*
X807702Y361273D01*
X807681Y361204D01*
X807651Y361139D01*
X807645Y361087D01*
X807630Y361037D01*
X807632Y360966D01*
X807624Y360895D01*
X807635Y360844D01*
X807636Y360792D01*
X807661Y360724D01*
X807676Y360654D01*
X807703Y360609D01*
X807720Y360561D01*
X807765Y360505D01*
X807802Y360443D01*
X807842Y360409D01*
X807874Y360369D01*
X807934Y360330D01*
X807989Y360283D01*
X808037Y360264D01*
X808081Y360236D01*
X808150Y360218D01*
X808217Y360191D01*
X808288Y360183D01*
X808320Y360175D01*
X808343Y360177D01*
X808384Y360173D01*
X808834Y360173D01*
X808924Y360187D01*
X809015Y360195D01*
X809045Y360207D01*
X809077Y360212D01*
X809158Y360255D01*
X809241Y360291D01*
X809274Y360317D01*
X809294Y360328D01*
X809316Y360351D01*
X809372Y360396D01*
X809506Y360529D01*
X811643Y361415D01*
X813957Y361415D01*
X816094Y360529D01*
X817729Y358894D01*
X818615Y356757D01*
X818615Y354443D01*
X817729Y352306D01*
X816094Y350671D01*
X813957Y349785D01*
X811643Y349785D01*
X809506Y350671D01*
X809372Y350804D01*
X809298Y350857D01*
X809229Y350917D01*
X809199Y350929D01*
X809173Y350948D01*
X809086Y350975D01*
X809001Y351009D01*
X808960Y351013D01*
X808938Y351020D01*
X808905Y351019D01*
X808834Y351027D01*
X471847Y351027D01*
X471757Y351013D01*
X471666Y351005D01*
X471636Y350993D01*
X471604Y350988D01*
X471523Y350945D01*
X471440Y350909D01*
X471407Y350883D01*
X471387Y350872D01*
X471365Y350849D01*
X471309Y350804D01*
X471175Y350671D01*
X469038Y349785D01*
X466724Y349785D01*
X464587Y350671D01*
X464453Y350804D01*
X464379Y350857D01*
X464310Y350917D01*
X464280Y350929D01*
X464254Y350948D01*
X464167Y350975D01*
X464082Y351009D01*
X464041Y351013D01*
X464019Y351020D01*
X463986Y351019D01*
X463915Y351027D01*
X334166Y351027D01*
X334076Y351013D01*
X333985Y351005D01*
X333955Y350993D01*
X333923Y350988D01*
X333842Y350945D01*
X333759Y350909D01*
X333726Y350883D01*
X333706Y350872D01*
X333684Y350849D01*
X333628Y350804D01*
X333494Y350671D01*
X331357Y349785D01*
X329043Y349785D01*
G37*
%LPD*%
%LPC*%
G36*
X268718Y356135D02*
X268718Y356135D01*
X266581Y357021D01*
X264946Y358656D01*
X264060Y360793D01*
X264060Y363107D01*
X264946Y365244D01*
X265587Y365886D01*
X265640Y365960D01*
X265700Y366029D01*
X265712Y366059D01*
X265731Y366085D01*
X265758Y366172D01*
X265792Y366257D01*
X265796Y366298D01*
X265803Y366320D01*
X265802Y366353D01*
X265810Y366424D01*
X265810Y367255D01*
X265799Y367326D01*
X265797Y367398D01*
X265779Y367447D01*
X265771Y367498D01*
X265737Y367561D01*
X265712Y367629D01*
X265680Y367669D01*
X265655Y367715D01*
X265603Y367765D01*
X265559Y367821D01*
X265515Y367849D01*
X265477Y367885D01*
X265412Y367915D01*
X265352Y367954D01*
X265301Y367966D01*
X265254Y367988D01*
X265183Y367996D01*
X265113Y368014D01*
X265061Y368010D01*
X265010Y368015D01*
X264939Y368000D01*
X264868Y367995D01*
X264820Y367974D01*
X264769Y367963D01*
X264708Y367926D01*
X264642Y367898D01*
X264586Y367853D01*
X264558Y367837D01*
X264543Y367819D01*
X264511Y367793D01*
X263263Y366546D01*
X261126Y365660D01*
X258812Y365660D01*
X256675Y366546D01*
X255040Y368181D01*
X254154Y370318D01*
X254154Y372632D01*
X255040Y374769D01*
X255681Y375411D01*
X255734Y375485D01*
X255794Y375554D01*
X255806Y375584D01*
X255825Y375610D01*
X255852Y375697D01*
X255886Y375782D01*
X255890Y375823D01*
X255897Y375845D01*
X255896Y375878D01*
X255904Y375949D01*
X255904Y446128D01*
X255889Y446224D01*
X255879Y446321D01*
X255869Y446345D01*
X255865Y446371D01*
X255819Y446457D01*
X255779Y446546D01*
X255762Y446565D01*
X255749Y446588D01*
X255679Y446655D01*
X255613Y446727D01*
X255590Y446740D01*
X255571Y446758D01*
X255483Y446799D01*
X255397Y446846D01*
X255372Y446850D01*
X255348Y446861D01*
X255251Y446872D01*
X255155Y446889D01*
X255129Y446885D01*
X255104Y446888D01*
X255008Y446868D01*
X254912Y446853D01*
X254889Y446842D01*
X254863Y446836D01*
X254780Y446786D01*
X254693Y446742D01*
X254674Y446723D01*
X254652Y446710D01*
X254589Y446636D01*
X254521Y446566D01*
X254505Y446538D01*
X254492Y446523D01*
X254480Y446492D01*
X254440Y446419D01*
X253595Y444381D01*
X251960Y442746D01*
X249823Y441860D01*
X247509Y441860D01*
X245372Y442746D01*
X243737Y444381D01*
X242851Y446518D01*
X242851Y448832D01*
X243737Y450969D01*
X244378Y451611D01*
X244431Y451685D01*
X244491Y451754D01*
X244503Y451784D01*
X244522Y451810D01*
X244549Y451897D01*
X244583Y451982D01*
X244587Y452023D01*
X244594Y452045D01*
X244593Y452078D01*
X244601Y452149D01*
X244601Y510700D01*
X287622Y553721D01*
X302056Y553721D01*
X302126Y553732D01*
X302198Y553734D01*
X302247Y553752D01*
X302298Y553760D01*
X302362Y553794D01*
X302429Y553819D01*
X302470Y553851D01*
X302516Y553876D01*
X302565Y553927D01*
X302621Y553972D01*
X302649Y554016D01*
X302685Y554054D01*
X302715Y554119D01*
X302754Y554179D01*
X302767Y554230D01*
X302789Y554277D01*
X302797Y554348D01*
X302814Y554418D01*
X302810Y554470D01*
X302816Y554521D01*
X302801Y554592D01*
X302795Y554663D01*
X302775Y554711D01*
X302764Y554762D01*
X302727Y554823D01*
X302699Y554889D01*
X302654Y554945D01*
X302637Y554973D01*
X302620Y554988D01*
X302594Y555020D01*
X302483Y555131D01*
X301497Y557512D01*
X301497Y560088D01*
X302483Y562469D01*
X304306Y564292D01*
X306687Y565278D01*
X309263Y565278D01*
X311644Y564292D01*
X313467Y562469D01*
X314453Y560088D01*
X314453Y557512D01*
X313467Y555131D01*
X313356Y555020D01*
X313314Y554962D01*
X313265Y554910D01*
X313243Y554863D01*
X313213Y554821D01*
X313191Y554752D01*
X313161Y554687D01*
X313156Y554635D01*
X313140Y554586D01*
X313142Y554514D01*
X313134Y554443D01*
X313145Y554392D01*
X313147Y554340D01*
X313171Y554272D01*
X313186Y554202D01*
X313213Y554157D01*
X313231Y554109D01*
X313276Y554053D01*
X313313Y553991D01*
X313352Y553957D01*
X313385Y553917D01*
X313445Y553878D01*
X313500Y553831D01*
X313548Y553812D01*
X313592Y553784D01*
X313661Y553766D01*
X313728Y553739D01*
X313799Y553731D01*
X313830Y553723D01*
X313853Y553725D01*
X313894Y553721D01*
X329131Y553721D01*
X329246Y553740D01*
X329362Y553757D01*
X329367Y553759D01*
X329374Y553760D01*
X329476Y553815D01*
X329581Y553868D01*
X329586Y553873D01*
X329591Y553876D01*
X329671Y553960D01*
X329753Y554044D01*
X329757Y554050D01*
X329760Y554054D01*
X329768Y554071D01*
X329834Y554191D01*
X330478Y555744D01*
X332113Y557379D01*
X334250Y558265D01*
X336564Y558265D01*
X338545Y557444D01*
X338589Y557434D01*
X338631Y557414D01*
X338708Y557406D01*
X338784Y557388D01*
X338830Y557392D01*
X338875Y557387D01*
X338952Y557404D01*
X339029Y557411D01*
X339071Y557430D01*
X339116Y557439D01*
X339183Y557479D01*
X339254Y557511D01*
X339288Y557542D01*
X339327Y557566D01*
X339378Y557625D01*
X339435Y557677D01*
X339457Y557718D01*
X339487Y557753D01*
X339516Y557825D01*
X339553Y557893D01*
X339562Y557938D01*
X339579Y557981D01*
X339594Y558117D01*
X339597Y558135D01*
X339596Y558140D01*
X339597Y558147D01*
X339597Y560088D01*
X340583Y562469D01*
X342406Y564292D01*
X344787Y565278D01*
X347363Y565278D01*
X349744Y564292D01*
X351567Y562469D01*
X352553Y560088D01*
X352553Y557512D01*
X351567Y555131D01*
X349744Y553308D01*
X347363Y552322D01*
X344787Y552322D01*
X342274Y553363D01*
X342230Y553373D01*
X342188Y553393D01*
X342111Y553401D01*
X342035Y553419D01*
X341989Y553415D01*
X341944Y553420D01*
X341867Y553403D01*
X341790Y553396D01*
X341748Y553377D01*
X341703Y553368D01*
X341636Y553328D01*
X341565Y553296D01*
X341531Y553265D01*
X341492Y553241D01*
X341441Y553182D01*
X341384Y553130D01*
X341362Y553089D01*
X341332Y553054D01*
X341303Y552982D01*
X341266Y552914D01*
X341257Y552869D01*
X341240Y552826D01*
X341225Y552690D01*
X341222Y552672D01*
X341223Y552667D01*
X341222Y552660D01*
X341222Y551293D01*
X340337Y549156D01*
X339851Y548670D01*
X339809Y548612D01*
X339759Y548560D01*
X339737Y548513D01*
X339707Y548471D01*
X339686Y548402D01*
X339656Y548337D01*
X339650Y548285D01*
X339635Y548235D01*
X339637Y548164D01*
X339629Y548093D01*
X339640Y548042D01*
X339641Y547990D01*
X339666Y547922D01*
X339681Y547852D01*
X339708Y547807D01*
X339725Y547759D01*
X339770Y547703D01*
X339807Y547641D01*
X339847Y547607D01*
X339879Y547567D01*
X339939Y547528D01*
X339994Y547481D01*
X340042Y547462D01*
X340086Y547434D01*
X340155Y547416D01*
X340222Y547389D01*
X340293Y547381D01*
X340325Y547373D01*
X340348Y547375D01*
X340389Y547371D01*
X356649Y547371D01*
X356739Y547385D01*
X356830Y547393D01*
X356860Y547405D01*
X356892Y547410D01*
X356972Y547453D01*
X357056Y547489D01*
X357088Y547515D01*
X357109Y547526D01*
X357122Y547539D01*
X357124Y547540D01*
X357135Y547551D01*
X357187Y547594D01*
X364294Y554701D01*
X364347Y554775D01*
X364407Y554844D01*
X364419Y554874D01*
X364438Y554900D01*
X364465Y554987D01*
X364499Y555072D01*
X364503Y555113D01*
X364510Y555135D01*
X364509Y555168D01*
X364517Y555239D01*
X364517Y556147D01*
X365403Y558284D01*
X367038Y559919D01*
X369175Y560805D01*
X371489Y560805D01*
X373628Y559919D01*
X373647Y559914D01*
X373665Y559904D01*
X373767Y559886D01*
X373867Y559862D01*
X373887Y559864D01*
X373907Y559861D01*
X374009Y559876D01*
X374112Y559886D01*
X374131Y559894D01*
X374150Y559897D01*
X374243Y559943D01*
X374337Y559986D01*
X374352Y559999D01*
X374369Y560008D01*
X374442Y560082D01*
X374518Y560152D01*
X374528Y560169D01*
X374542Y560184D01*
X374623Y560331D01*
X375508Y562469D01*
X377331Y564292D01*
X379712Y565278D01*
X382288Y565278D01*
X384669Y564292D01*
X386492Y562469D01*
X387478Y560088D01*
X387478Y557512D01*
X386492Y555131D01*
X384669Y553308D01*
X382288Y552322D01*
X379712Y552322D01*
X377331Y553308D01*
X377145Y553494D01*
X377108Y553521D01*
X377077Y553554D01*
X377009Y553592D01*
X376946Y553637D01*
X376902Y553651D01*
X376861Y553673D01*
X376785Y553687D01*
X376711Y553710D01*
X376665Y553708D01*
X376619Y553717D01*
X376542Y553705D01*
X376465Y553703D01*
X376421Y553688D01*
X376376Y553681D01*
X376307Y553646D01*
X376234Y553619D01*
X376198Y553590D01*
X376157Y553569D01*
X376102Y553514D01*
X376042Y553465D01*
X376017Y553426D01*
X375985Y553394D01*
X375919Y553274D01*
X375909Y553258D01*
X375907Y553253D01*
X375904Y553247D01*
X375261Y551696D01*
X373626Y550061D01*
X371489Y549175D01*
X370581Y549175D01*
X370491Y549161D01*
X370400Y549153D01*
X370370Y549141D01*
X370338Y549136D01*
X370258Y549093D01*
X370174Y549057D01*
X370142Y549031D01*
X370121Y549020D01*
X370099Y548997D01*
X370043Y548952D01*
X360617Y539526D01*
X360575Y539468D01*
X360525Y539416D01*
X360503Y539369D01*
X360473Y539327D01*
X360452Y539258D01*
X360422Y539193D01*
X360416Y539141D01*
X360401Y539091D01*
X360403Y539020D01*
X360395Y538949D01*
X360406Y538898D01*
X360407Y538846D01*
X360432Y538778D01*
X360447Y538708D01*
X360474Y538664D01*
X360492Y538615D01*
X360536Y538559D01*
X360573Y538497D01*
X360613Y538463D01*
X360645Y538423D01*
X360706Y538384D01*
X360760Y538337D01*
X360808Y538318D01*
X360852Y538290D01*
X360922Y538272D01*
X360988Y538245D01*
X361060Y538237D01*
X361091Y538229D01*
X361114Y538231D01*
X361155Y538227D01*
X374966Y538227D01*
X375056Y538241D01*
X375147Y538249D01*
X375176Y538261D01*
X375208Y538266D01*
X375289Y538309D01*
X375373Y538345D01*
X375405Y538371D01*
X375426Y538382D01*
X375447Y538404D01*
X375449Y538405D01*
X375453Y538409D01*
X375504Y538450D01*
X387219Y550165D01*
X418635Y550165D01*
X418750Y550184D01*
X418866Y550201D01*
X418872Y550203D01*
X418878Y550204D01*
X418980Y550259D01*
X419085Y550312D01*
X419090Y550317D01*
X419095Y550320D01*
X419175Y550404D01*
X419258Y550488D01*
X419261Y550494D01*
X419265Y550498D01*
X419272Y550515D01*
X419338Y550635D01*
X420140Y552569D01*
X421775Y554204D01*
X422559Y554529D01*
X422576Y554540D01*
X422595Y554545D01*
X422680Y554604D01*
X422768Y554659D01*
X422781Y554674D01*
X422797Y554685D01*
X422858Y554768D01*
X422925Y554848D01*
X422932Y554867D01*
X422944Y554883D01*
X422976Y554981D01*
X423013Y555078D01*
X423014Y555098D01*
X423020Y555117D01*
X423019Y555220D01*
X423023Y555323D01*
X423018Y555343D01*
X423017Y555363D01*
X422971Y555524D01*
X422147Y557512D01*
X422147Y560088D01*
X423133Y562469D01*
X424956Y564292D01*
X427337Y565278D01*
X429913Y565278D01*
X432294Y564292D01*
X434117Y562469D01*
X435103Y560088D01*
X435103Y557512D01*
X434117Y555131D01*
X432294Y553308D01*
X430777Y552680D01*
X430760Y552669D01*
X430740Y552664D01*
X430656Y552605D01*
X430567Y552550D01*
X430555Y552535D01*
X430538Y552523D01*
X430477Y552441D01*
X430411Y552361D01*
X430403Y552342D01*
X430392Y552326D01*
X430359Y552228D01*
X430322Y552131D01*
X430322Y552111D01*
X430315Y552092D01*
X430316Y551989D01*
X430312Y551885D01*
X430318Y551866D01*
X430318Y551846D01*
X430365Y551685D01*
X430884Y550432D01*
X430884Y548118D01*
X429998Y545981D01*
X428363Y544346D01*
X426226Y543460D01*
X425318Y543460D01*
X425228Y543446D01*
X425137Y543438D01*
X425107Y543426D01*
X425075Y543421D01*
X424995Y543378D01*
X424911Y543342D01*
X424879Y543316D01*
X424858Y543305D01*
X424836Y543282D01*
X424780Y543237D01*
X423578Y542035D01*
X390902Y542035D01*
X390812Y542021D01*
X390721Y542013D01*
X390691Y542001D01*
X390659Y541996D01*
X390578Y541953D01*
X390494Y541917D01*
X390462Y541891D01*
X390442Y541880D01*
X390419Y541857D01*
X390363Y541812D01*
X378648Y530097D01*
X357661Y530097D01*
X357590Y530086D01*
X357518Y530084D01*
X357469Y530066D01*
X357418Y530058D01*
X357355Y530024D01*
X357287Y529999D01*
X357247Y529967D01*
X357201Y529942D01*
X357151Y529891D01*
X357095Y529846D01*
X357067Y529802D01*
X357031Y529764D01*
X357001Y529699D01*
X356962Y529639D01*
X356950Y529588D01*
X356928Y529541D01*
X356920Y529470D01*
X356902Y529400D01*
X356906Y529348D01*
X356901Y529297D01*
X356916Y529226D01*
X356921Y529155D01*
X356942Y529107D01*
X356953Y529056D01*
X356990Y528995D01*
X357018Y528929D01*
X357063Y528873D01*
X357079Y528845D01*
X357097Y528830D01*
X357123Y528798D01*
X357354Y528566D01*
X358240Y526429D01*
X358240Y524115D01*
X357354Y521978D01*
X355719Y520343D01*
X353582Y519457D01*
X352674Y519457D01*
X352584Y519443D01*
X352493Y519435D01*
X352463Y519423D01*
X352431Y519418D01*
X352351Y519375D01*
X352267Y519339D01*
X352234Y519313D01*
X352214Y519302D01*
X352192Y519279D01*
X352136Y519234D01*
X351219Y518317D01*
X351177Y518259D01*
X351127Y518207D01*
X351105Y518160D01*
X351075Y518118D01*
X351054Y518049D01*
X351024Y517984D01*
X351018Y517932D01*
X351003Y517882D01*
X351005Y517811D01*
X350997Y517740D01*
X351008Y517689D01*
X351009Y517637D01*
X351034Y517569D01*
X351049Y517499D01*
X351076Y517454D01*
X351094Y517406D01*
X351138Y517350D01*
X351175Y517288D01*
X351215Y517254D01*
X351247Y517214D01*
X351308Y517175D01*
X351362Y517128D01*
X351410Y517109D01*
X351454Y517081D01*
X351524Y517063D01*
X351590Y517036D01*
X351661Y517028D01*
X351693Y517020D01*
X351716Y517022D01*
X351757Y517018D01*
X355035Y517018D01*
X355125Y517032D01*
X355216Y517040D01*
X355246Y517052D01*
X355278Y517057D01*
X355359Y517100D01*
X355442Y517136D01*
X355475Y517162D01*
X355495Y517173D01*
X355517Y517196D01*
X355573Y517241D01*
X356215Y517882D01*
X358352Y518768D01*
X360666Y518768D01*
X362803Y517882D01*
X364438Y516247D01*
X365324Y514110D01*
X365324Y511796D01*
X364438Y509659D01*
X362803Y508024D01*
X360666Y507138D01*
X358352Y507138D01*
X356215Y508024D01*
X355983Y508255D01*
X355925Y508297D01*
X355873Y508347D01*
X355826Y508369D01*
X355784Y508399D01*
X355715Y508420D01*
X355650Y508450D01*
X355598Y508456D01*
X355548Y508471D01*
X355477Y508469D01*
X355406Y508477D01*
X355355Y508466D01*
X355303Y508465D01*
X355235Y508440D01*
X355165Y508425D01*
X355120Y508398D01*
X355072Y508381D01*
X355016Y508336D01*
X354954Y508299D01*
X354920Y508259D01*
X354880Y508227D01*
X354841Y508167D01*
X354794Y508112D01*
X354775Y508064D01*
X354747Y508020D01*
X354729Y507951D01*
X354702Y507884D01*
X354694Y507813D01*
X354686Y507781D01*
X354688Y507758D01*
X354684Y507717D01*
X354684Y396816D01*
X354674Y396793D01*
X354670Y396752D01*
X354663Y396729D01*
X354664Y396697D01*
X354656Y396626D01*
X354656Y395718D01*
X353770Y393581D01*
X352135Y391946D01*
X349998Y391060D01*
X347684Y391060D01*
X345547Y391946D01*
X343912Y393581D01*
X343026Y395718D01*
X343026Y398032D01*
X343912Y400169D01*
X345547Y401804D01*
X346084Y402027D01*
X346183Y402088D01*
X346284Y402148D01*
X346288Y402153D01*
X346293Y402157D01*
X346367Y402246D01*
X346444Y402335D01*
X346446Y402341D01*
X346450Y402346D01*
X346492Y402454D01*
X346536Y402564D01*
X346537Y402571D01*
X346538Y402576D01*
X346539Y402594D01*
X346554Y402730D01*
X346554Y416566D01*
X346539Y416662D01*
X346529Y416759D01*
X346519Y416783D01*
X346515Y416808D01*
X346469Y416894D01*
X346429Y416983D01*
X346412Y417003D01*
X346399Y417026D01*
X346329Y417093D01*
X346263Y417165D01*
X346240Y417177D01*
X346221Y417195D01*
X346133Y417236D01*
X346047Y417283D01*
X346022Y417288D01*
X345998Y417299D01*
X345901Y417309D01*
X345805Y417327D01*
X345779Y417323D01*
X345754Y417326D01*
X345658Y417305D01*
X345562Y417291D01*
X345539Y417279D01*
X345513Y417274D01*
X345430Y417224D01*
X345343Y417180D01*
X345324Y417161D01*
X345302Y417147D01*
X345239Y417073D01*
X345171Y417004D01*
X345155Y416975D01*
X345142Y416961D01*
X345130Y416930D01*
X345090Y416857D01*
X344654Y415806D01*
X343019Y414171D01*
X340882Y413285D01*
X338568Y413285D01*
X336431Y414171D01*
X334796Y415806D01*
X333910Y417943D01*
X333910Y420257D01*
X334796Y422394D01*
X335437Y423036D01*
X335490Y423110D01*
X335550Y423179D01*
X335562Y423209D01*
X335581Y423235D01*
X335608Y423322D01*
X335642Y423407D01*
X335646Y423448D01*
X335653Y423470D01*
X335652Y423503D01*
X335660Y423574D01*
X335660Y514256D01*
X346387Y524983D01*
X346440Y525057D01*
X346500Y525126D01*
X346512Y525156D01*
X346531Y525182D01*
X346558Y525269D01*
X346592Y525354D01*
X346596Y525395D01*
X346603Y525418D01*
X346602Y525450D01*
X346610Y525521D01*
X346610Y526429D01*
X347496Y528566D01*
X347727Y528798D01*
X347769Y528856D01*
X347819Y528908D01*
X347841Y528955D01*
X347871Y528997D01*
X347892Y529066D01*
X347922Y529131D01*
X347928Y529183D01*
X347943Y529233D01*
X347941Y529304D01*
X347949Y529375D01*
X347938Y529426D01*
X347937Y529478D01*
X347912Y529546D01*
X347897Y529616D01*
X347870Y529661D01*
X347853Y529709D01*
X347808Y529765D01*
X347771Y529827D01*
X347731Y529861D01*
X347699Y529901D01*
X347639Y529940D01*
X347584Y529987D01*
X347536Y530006D01*
X347492Y530034D01*
X347423Y530052D01*
X347356Y530079D01*
X347285Y530087D01*
X347253Y530095D01*
X347230Y530093D01*
X347189Y530097D01*
X311055Y530097D01*
X310959Y530082D01*
X310862Y530072D01*
X310838Y530062D01*
X310812Y530058D01*
X310726Y530012D01*
X310637Y529972D01*
X310618Y529955D01*
X310595Y529942D01*
X310528Y529872D01*
X310456Y529806D01*
X310444Y529783D01*
X310425Y529764D01*
X310384Y529676D01*
X310338Y529590D01*
X310333Y529565D01*
X310322Y529541D01*
X310311Y529444D01*
X310294Y529348D01*
X310298Y529322D01*
X310295Y529297D01*
X310315Y529202D01*
X310330Y529105D01*
X310341Y529082D01*
X310347Y529056D01*
X310397Y528973D01*
X310441Y528886D01*
X310460Y528867D01*
X310473Y528845D01*
X310547Y528782D01*
X310617Y528714D01*
X310645Y528698D01*
X310660Y528685D01*
X310691Y528673D01*
X310764Y528633D01*
X311269Y528423D01*
X312904Y526788D01*
X313790Y524651D01*
X313790Y522337D01*
X312904Y520200D01*
X311269Y518565D01*
X309132Y517679D01*
X306818Y517679D01*
X304681Y518565D01*
X303046Y520200D01*
X302160Y522337D01*
X302160Y524651D01*
X303046Y526788D01*
X304681Y528423D01*
X305186Y528633D01*
X305269Y528684D01*
X305355Y528730D01*
X305373Y528749D01*
X305395Y528762D01*
X305457Y528837D01*
X305525Y528908D01*
X305536Y528932D01*
X305552Y528952D01*
X305587Y529043D01*
X305628Y529131D01*
X305631Y529157D01*
X305640Y529181D01*
X305645Y529279D01*
X305655Y529375D01*
X305650Y529401D01*
X305651Y529427D01*
X305624Y529521D01*
X305603Y529616D01*
X305590Y529638D01*
X305582Y529663D01*
X305527Y529743D01*
X305477Y529827D01*
X305457Y529844D01*
X305442Y529865D01*
X305364Y529923D01*
X305290Y529987D01*
X305266Y529997D01*
X305245Y530012D01*
X305152Y530042D01*
X305062Y530079D01*
X305029Y530082D01*
X305011Y530088D01*
X304978Y530088D01*
X304895Y530097D01*
X294861Y530097D01*
X294771Y530083D01*
X294680Y530075D01*
X294650Y530063D01*
X294618Y530058D01*
X294538Y530015D01*
X294454Y529979D01*
X294422Y529953D01*
X294401Y529942D01*
X294379Y529919D01*
X294323Y529874D01*
X275151Y510702D01*
X275098Y510628D01*
X275038Y510559D01*
X275026Y510529D01*
X275007Y510503D01*
X274980Y510416D01*
X274946Y510331D01*
X274942Y510290D01*
X274935Y510267D01*
X274936Y510235D01*
X274928Y510164D01*
X274928Y366752D01*
X274650Y366475D01*
X274639Y366458D01*
X274623Y366446D01*
X274567Y366359D01*
X274507Y366275D01*
X274501Y366256D01*
X274490Y366239D01*
X274465Y366139D01*
X274434Y366040D01*
X274435Y366020D01*
X274430Y366000D01*
X274438Y365897D01*
X274441Y365794D01*
X274448Y365775D01*
X274449Y365755D01*
X274490Y365660D01*
X274525Y365563D01*
X274538Y365547D01*
X274546Y365529D01*
X274650Y365398D01*
X274804Y365244D01*
X275690Y363107D01*
X275690Y360793D01*
X274804Y358656D01*
X273169Y357021D01*
X271032Y356135D01*
X268718Y356135D01*
G37*
%LPD*%
%LPC*%
G36*
X316343Y286285D02*
X316343Y286285D01*
X314206Y287171D01*
X312571Y288806D01*
X311685Y290943D01*
X311685Y293257D01*
X312571Y295394D01*
X314206Y297029D01*
X315938Y297747D01*
X315999Y297784D01*
X316064Y297814D01*
X316103Y297849D01*
X316147Y297876D01*
X316193Y297932D01*
X316245Y297980D01*
X316270Y298026D01*
X316304Y298066D01*
X316329Y298133D01*
X316364Y298196D01*
X316373Y298247D01*
X316392Y298295D01*
X316395Y298367D01*
X316408Y298438D01*
X316400Y298489D01*
X316402Y298541D01*
X316382Y298610D01*
X316372Y298681D01*
X316348Y298727D01*
X316334Y298777D01*
X316293Y298836D01*
X316260Y298900D01*
X316223Y298937D01*
X316193Y298979D01*
X316136Y299022D01*
X316085Y299072D01*
X316034Y299101D01*
X316026Y299107D01*
X316017Y299111D01*
X315996Y299126D01*
X315974Y299133D01*
X315938Y299153D01*
X314206Y299871D01*
X312571Y301506D01*
X311685Y303643D01*
X311685Y305957D01*
X312571Y308094D01*
X314206Y309729D01*
X316343Y310615D01*
X318657Y310615D01*
X320794Y309729D01*
X320928Y309596D01*
X321002Y309543D01*
X321071Y309483D01*
X321101Y309471D01*
X321127Y309452D01*
X321214Y309425D01*
X321299Y309391D01*
X321340Y309387D01*
X321362Y309380D01*
X321395Y309381D01*
X321466Y309373D01*
X425040Y309373D01*
X425130Y309387D01*
X425221Y309395D01*
X425251Y309407D01*
X425283Y309412D01*
X425364Y309455D01*
X425447Y309491D01*
X425480Y309517D01*
X425500Y309528D01*
X425522Y309551D01*
X425578Y309596D01*
X425712Y309729D01*
X427849Y310615D01*
X430163Y310615D01*
X432300Y309729D01*
X432434Y309596D01*
X432508Y309543D01*
X432577Y309483D01*
X432607Y309471D01*
X432633Y309452D01*
X432720Y309425D01*
X432805Y309391D01*
X432846Y309387D01*
X432868Y309380D01*
X432901Y309381D01*
X432972Y309373D01*
X618334Y309373D01*
X618424Y309387D01*
X618515Y309395D01*
X618545Y309407D01*
X618577Y309412D01*
X618658Y309455D01*
X618741Y309491D01*
X618774Y309517D01*
X618794Y309528D01*
X618816Y309551D01*
X618872Y309596D01*
X619006Y309729D01*
X621143Y310615D01*
X623457Y310615D01*
X625594Y309729D01*
X625728Y309596D01*
X625802Y309543D01*
X625871Y309483D01*
X625901Y309471D01*
X625927Y309452D01*
X626014Y309425D01*
X626099Y309391D01*
X626140Y309387D01*
X626162Y309380D01*
X626195Y309381D01*
X626266Y309373D01*
X808834Y309373D01*
X808924Y309387D01*
X809015Y309395D01*
X809045Y309407D01*
X809077Y309412D01*
X809158Y309455D01*
X809241Y309491D01*
X809274Y309517D01*
X809294Y309528D01*
X809316Y309551D01*
X809372Y309596D01*
X809506Y309729D01*
X811643Y310615D01*
X813957Y310615D01*
X816094Y309729D01*
X817729Y308094D01*
X818615Y305957D01*
X818615Y303643D01*
X817729Y301506D01*
X816094Y299871D01*
X813957Y298985D01*
X811643Y298985D01*
X809506Y299871D01*
X809372Y300004D01*
X809298Y300057D01*
X809229Y300117D01*
X809199Y300129D01*
X809173Y300148D01*
X809086Y300175D01*
X809001Y300209D01*
X808960Y300213D01*
X808938Y300220D01*
X808905Y300219D01*
X808834Y300227D01*
X626266Y300227D01*
X626176Y300213D01*
X626085Y300205D01*
X626055Y300193D01*
X626023Y300188D01*
X625942Y300145D01*
X625859Y300109D01*
X625826Y300083D01*
X625806Y300072D01*
X625784Y300049D01*
X625728Y300004D01*
X625594Y299871D01*
X623457Y298985D01*
X621143Y298985D01*
X619006Y299871D01*
X618872Y300004D01*
X618798Y300057D01*
X618729Y300117D01*
X618699Y300129D01*
X618673Y300148D01*
X618586Y300175D01*
X618501Y300209D01*
X618460Y300213D01*
X618438Y300220D01*
X618405Y300219D01*
X618334Y300227D01*
X432972Y300227D01*
X432882Y300213D01*
X432791Y300205D01*
X432761Y300193D01*
X432729Y300188D01*
X432648Y300145D01*
X432565Y300109D01*
X432532Y300083D01*
X432512Y300072D01*
X432490Y300049D01*
X432434Y300004D01*
X432300Y299871D01*
X430163Y298985D01*
X427849Y298985D01*
X425712Y299871D01*
X425578Y300004D01*
X425504Y300057D01*
X425435Y300117D01*
X425405Y300129D01*
X425379Y300148D01*
X425292Y300175D01*
X425207Y300209D01*
X425166Y300213D01*
X425144Y300220D01*
X425111Y300219D01*
X425040Y300227D01*
X321466Y300227D01*
X321376Y300213D01*
X321285Y300205D01*
X321255Y300193D01*
X321223Y300188D01*
X321142Y300145D01*
X321059Y300109D01*
X321026Y300083D01*
X321006Y300072D01*
X320984Y300049D01*
X320928Y300004D01*
X320794Y299871D01*
X319062Y299153D01*
X319001Y299116D01*
X318936Y299086D01*
X318912Y299064D01*
X318909Y299063D01*
X318901Y299054D01*
X318898Y299051D01*
X318853Y299024D01*
X318807Y298968D01*
X318755Y298920D01*
X318730Y298874D01*
X318696Y298834D01*
X318671Y298767D01*
X318636Y298704D01*
X318627Y298653D01*
X318608Y298605D01*
X318605Y298533D01*
X318592Y298462D01*
X318600Y298411D01*
X318598Y298359D01*
X318618Y298290D01*
X318628Y298219D01*
X318652Y298173D01*
X318666Y298123D01*
X318707Y298064D01*
X318740Y298000D01*
X318777Y297963D01*
X318807Y297921D01*
X318864Y297878D01*
X318915Y297828D01*
X318978Y297793D01*
X319004Y297774D01*
X319026Y297767D01*
X319062Y297747D01*
X320794Y297029D01*
X320928Y296896D01*
X321002Y296843D01*
X321071Y296783D01*
X321101Y296771D01*
X321127Y296752D01*
X321214Y296725D01*
X321299Y296691D01*
X321340Y296687D01*
X321362Y296680D01*
X321395Y296681D01*
X321466Y296673D01*
X631034Y296673D01*
X631124Y296687D01*
X631215Y296695D01*
X631245Y296707D01*
X631277Y296712D01*
X631358Y296755D01*
X631441Y296791D01*
X631474Y296817D01*
X631494Y296828D01*
X631516Y296851D01*
X631572Y296896D01*
X631706Y297029D01*
X633843Y297915D01*
X636157Y297915D01*
X638294Y297029D01*
X638428Y296896D01*
X638502Y296843D01*
X638571Y296783D01*
X638601Y296771D01*
X638627Y296752D01*
X638714Y296725D01*
X638799Y296691D01*
X638840Y296687D01*
X638862Y296680D01*
X638895Y296681D01*
X638966Y296673D01*
X796134Y296673D01*
X796224Y296687D01*
X796315Y296695D01*
X796345Y296707D01*
X796377Y296712D01*
X796458Y296755D01*
X796541Y296791D01*
X796574Y296817D01*
X796594Y296828D01*
X796616Y296851D01*
X796672Y296896D01*
X796806Y297029D01*
X798943Y297915D01*
X801257Y297915D01*
X803394Y297029D01*
X805029Y295394D01*
X805915Y293257D01*
X805915Y290943D01*
X805029Y288806D01*
X803394Y287171D01*
X801257Y286285D01*
X798943Y286285D01*
X796806Y287171D01*
X796672Y287304D01*
X796598Y287357D01*
X796529Y287417D01*
X796499Y287429D01*
X796473Y287448D01*
X796386Y287475D01*
X796301Y287509D01*
X796260Y287513D01*
X796238Y287520D01*
X796205Y287519D01*
X796134Y287527D01*
X638966Y287527D01*
X638876Y287513D01*
X638785Y287505D01*
X638755Y287493D01*
X638723Y287488D01*
X638642Y287445D01*
X638559Y287409D01*
X638526Y287383D01*
X638506Y287372D01*
X638484Y287349D01*
X638428Y287304D01*
X638294Y287171D01*
X636157Y286285D01*
X633843Y286285D01*
X631706Y287171D01*
X631572Y287304D01*
X631498Y287357D01*
X631429Y287417D01*
X631399Y287429D01*
X631373Y287448D01*
X631286Y287475D01*
X631201Y287509D01*
X631160Y287513D01*
X631138Y287520D01*
X631105Y287519D01*
X631034Y287527D01*
X321466Y287527D01*
X321376Y287513D01*
X321285Y287505D01*
X321255Y287493D01*
X321223Y287488D01*
X321142Y287445D01*
X321059Y287409D01*
X321026Y287383D01*
X321006Y287372D01*
X320984Y287349D01*
X320928Y287304D01*
X320794Y287171D01*
X318657Y286285D01*
X316343Y286285D01*
G37*
%LPD*%
%LPC*%
G36*
X316343Y235485D02*
X316343Y235485D01*
X314206Y236371D01*
X312571Y238006D01*
X311685Y240143D01*
X311685Y242457D01*
X312571Y244594D01*
X314206Y246229D01*
X316343Y247115D01*
X316533Y247115D01*
X316623Y247129D01*
X316714Y247137D01*
X316743Y247149D01*
X316775Y247154D01*
X316856Y247197D01*
X316940Y247233D01*
X316972Y247259D01*
X316993Y247270D01*
X317015Y247293D01*
X317071Y247338D01*
X328306Y258573D01*
X437359Y258573D01*
X437449Y258587D01*
X437540Y258595D01*
X437570Y258607D01*
X437602Y258612D01*
X437683Y258655D01*
X437766Y258691D01*
X437799Y258717D01*
X437819Y258728D01*
X437841Y258751D01*
X437897Y258796D01*
X438031Y258929D01*
X440168Y259815D01*
X442482Y259815D01*
X444619Y258929D01*
X444753Y258796D01*
X444827Y258743D01*
X444896Y258683D01*
X444926Y258671D01*
X444952Y258652D01*
X445039Y258625D01*
X445124Y258591D01*
X445165Y258587D01*
X445187Y258580D01*
X445220Y258581D01*
X445291Y258573D01*
X634941Y258573D01*
X635031Y258587D01*
X635122Y258595D01*
X635152Y258607D01*
X635184Y258612D01*
X635265Y258655D01*
X635348Y258691D01*
X635381Y258717D01*
X635401Y258728D01*
X635423Y258751D01*
X635479Y258796D01*
X635613Y258929D01*
X637750Y259815D01*
X638286Y259815D01*
X638382Y259830D01*
X638479Y259840D01*
X638503Y259850D01*
X638529Y259854D01*
X638614Y259900D01*
X638704Y259940D01*
X638723Y259957D01*
X638746Y259970D01*
X638813Y260040D01*
X638885Y260106D01*
X638897Y260129D01*
X638915Y260148D01*
X638956Y260236D01*
X639003Y260322D01*
X639008Y260347D01*
X639019Y260371D01*
X639030Y260468D01*
X639047Y260564D01*
X639043Y260590D01*
X639046Y260615D01*
X639025Y260710D01*
X639011Y260807D01*
X638999Y260830D01*
X638994Y260856D01*
X638944Y260940D01*
X638900Y261026D01*
X638881Y261044D01*
X638868Y261067D01*
X638794Y261130D01*
X638724Y261198D01*
X638696Y261214D01*
X638681Y261227D01*
X638650Y261239D01*
X638577Y261279D01*
X637391Y261771D01*
X637257Y261904D01*
X637183Y261957D01*
X637114Y262017D01*
X637084Y262029D01*
X637058Y262048D01*
X636971Y262075D01*
X636886Y262109D01*
X636845Y262113D01*
X636823Y262120D01*
X636790Y262119D01*
X636719Y262127D01*
X435766Y262127D01*
X435676Y262113D01*
X435585Y262105D01*
X435555Y262093D01*
X435523Y262088D01*
X435442Y262045D01*
X435359Y262009D01*
X435326Y261983D01*
X435306Y261972D01*
X435284Y261949D01*
X435228Y261904D01*
X435094Y261771D01*
X432957Y260885D01*
X430643Y260885D01*
X428506Y261771D01*
X428372Y261904D01*
X428298Y261957D01*
X428229Y262017D01*
X428199Y262029D01*
X428173Y262048D01*
X428086Y262075D01*
X428001Y262109D01*
X427960Y262113D01*
X427938Y262120D01*
X427905Y262119D01*
X427834Y262127D01*
X321466Y262127D01*
X321376Y262113D01*
X321285Y262105D01*
X321255Y262093D01*
X321223Y262088D01*
X321142Y262045D01*
X321059Y262009D01*
X321026Y261983D01*
X321006Y261972D01*
X320984Y261949D01*
X320928Y261904D01*
X320794Y261771D01*
X318657Y260885D01*
X316343Y260885D01*
X314206Y261771D01*
X312571Y263406D01*
X311685Y265543D01*
X311685Y267857D01*
X312571Y269994D01*
X314206Y271629D01*
X316343Y272515D01*
X318657Y272515D01*
X320794Y271629D01*
X320928Y271496D01*
X321002Y271443D01*
X321071Y271383D01*
X321101Y271371D01*
X321127Y271352D01*
X321214Y271325D01*
X321299Y271291D01*
X321340Y271287D01*
X321362Y271280D01*
X321395Y271281D01*
X321466Y271273D01*
X427834Y271273D01*
X427924Y271287D01*
X428015Y271295D01*
X428045Y271307D01*
X428077Y271312D01*
X428158Y271355D01*
X428241Y271391D01*
X428274Y271417D01*
X428294Y271428D01*
X428316Y271451D01*
X428372Y271496D01*
X428506Y271629D01*
X430643Y272515D01*
X432957Y272515D01*
X435094Y271629D01*
X435228Y271496D01*
X435302Y271443D01*
X435371Y271383D01*
X435401Y271371D01*
X435427Y271352D01*
X435514Y271325D01*
X435599Y271291D01*
X435640Y271287D01*
X435662Y271280D01*
X435695Y271281D01*
X435766Y271273D01*
X636719Y271273D01*
X636809Y271287D01*
X636900Y271295D01*
X636930Y271307D01*
X636962Y271312D01*
X637043Y271355D01*
X637126Y271391D01*
X637159Y271417D01*
X637179Y271428D01*
X637201Y271451D01*
X637257Y271496D01*
X637391Y271629D01*
X639528Y272515D01*
X641842Y272515D01*
X643979Y271629D01*
X645614Y269994D01*
X646500Y267857D01*
X646500Y265543D01*
X645614Y263406D01*
X643979Y261771D01*
X641842Y260885D01*
X641306Y260885D01*
X641210Y260870D01*
X641113Y260860D01*
X641089Y260850D01*
X641063Y260846D01*
X640978Y260800D01*
X640888Y260760D01*
X640869Y260743D01*
X640846Y260730D01*
X640779Y260660D01*
X640707Y260594D01*
X640695Y260571D01*
X640677Y260552D01*
X640636Y260464D01*
X640589Y260378D01*
X640584Y260353D01*
X640573Y260329D01*
X640562Y260232D01*
X640545Y260136D01*
X640549Y260110D01*
X640546Y260085D01*
X640567Y259990D01*
X640581Y259893D01*
X640593Y259870D01*
X640598Y259844D01*
X640648Y259760D01*
X640692Y259674D01*
X640711Y259656D01*
X640724Y259633D01*
X640798Y259570D01*
X640868Y259502D01*
X640896Y259486D01*
X640911Y259473D01*
X640942Y259461D01*
X641015Y259421D01*
X642201Y258929D01*
X643836Y257294D01*
X644722Y255157D01*
X644722Y252843D01*
X643836Y250706D01*
X642201Y249071D01*
X640064Y248185D01*
X637750Y248185D01*
X635613Y249071D01*
X635479Y249204D01*
X635405Y249257D01*
X635336Y249317D01*
X635306Y249329D01*
X635280Y249348D01*
X635193Y249375D01*
X635108Y249409D01*
X635067Y249413D01*
X635045Y249420D01*
X635012Y249419D01*
X634941Y249427D01*
X445291Y249427D01*
X445201Y249413D01*
X445110Y249405D01*
X445080Y249393D01*
X445048Y249388D01*
X444967Y249345D01*
X444884Y249309D01*
X444851Y249283D01*
X444831Y249272D01*
X444809Y249249D01*
X444753Y249204D01*
X444619Y249071D01*
X442482Y248185D01*
X440168Y248185D01*
X438031Y249071D01*
X437897Y249204D01*
X437823Y249257D01*
X437754Y249317D01*
X437724Y249329D01*
X437698Y249348D01*
X437611Y249375D01*
X437526Y249409D01*
X437485Y249413D01*
X437463Y249420D01*
X437430Y249419D01*
X437359Y249427D01*
X332409Y249427D01*
X332319Y249413D01*
X332228Y249405D01*
X332199Y249393D01*
X332167Y249388D01*
X332086Y249345D01*
X332002Y249309D01*
X331970Y249283D01*
X331949Y249272D01*
X331927Y249249D01*
X331871Y249204D01*
X323538Y240871D01*
X323485Y240797D01*
X323425Y240727D01*
X323413Y240697D01*
X323394Y240671D01*
X323367Y240584D01*
X323333Y240499D01*
X323329Y240458D01*
X323322Y240436D01*
X323323Y240404D01*
X323315Y240333D01*
X323315Y240143D01*
X322429Y238006D01*
X320794Y236371D01*
X318657Y235485D01*
X316343Y235485D01*
G37*
%LPD*%
%LPC*%
G36*
X1002632Y187197D02*
X1002632Y187197D01*
X1000251Y189578D01*
X1000251Y192946D01*
X1002632Y195327D01*
X1009904Y195327D01*
X1009924Y195330D01*
X1009943Y195328D01*
X1010045Y195350D01*
X1010147Y195366D01*
X1010164Y195376D01*
X1010184Y195380D01*
X1010273Y195433D01*
X1010364Y195482D01*
X1010378Y195496D01*
X1010395Y195506D01*
X1010462Y195585D01*
X1010534Y195660D01*
X1010542Y195678D01*
X1010555Y195693D01*
X1010594Y195789D01*
X1010637Y195883D01*
X1010639Y195903D01*
X1010647Y195921D01*
X1010665Y196088D01*
X1010665Y219271D01*
X1010661Y219295D01*
X1010664Y219319D01*
X1010641Y219416D01*
X1010626Y219513D01*
X1010614Y219535D01*
X1010608Y219559D01*
X1010557Y219643D01*
X1010510Y219731D01*
X1010493Y219748D01*
X1010480Y219769D01*
X1010404Y219832D01*
X1010332Y219900D01*
X1010310Y219911D01*
X1010291Y219926D01*
X1010199Y219962D01*
X1010109Y220004D01*
X1010085Y220006D01*
X1010062Y220015D01*
X1009895Y220032D01*
X1002683Y219943D01*
X1000272Y222294D01*
X1000231Y225661D01*
X1002582Y228072D01*
X1022962Y228323D01*
X1023036Y228336D01*
X1023111Y228340D01*
X1023156Y228357D01*
X1023204Y228366D01*
X1023264Y228399D01*
X1024911Y228348D01*
X1024924Y228350D01*
X1024944Y228348D01*
X1025126Y228350D01*
X1025143Y228353D01*
X1025170Y228352D01*
X1025750Y228392D01*
X1025780Y228399D01*
X1025810Y228399D01*
X1025973Y228442D01*
X1027199Y228917D01*
X1027258Y228951D01*
X1027321Y228977D01*
X1027382Y229025D01*
X1027411Y229041D01*
X1027425Y229057D01*
X1027454Y229080D01*
X1028397Y229995D01*
X1028438Y230050D01*
X1028487Y230099D01*
X1028524Y230166D01*
X1028544Y230193D01*
X1028551Y230213D01*
X1028569Y230245D01*
X1029081Y231456D01*
X1029088Y231486D01*
X1029102Y231512D01*
X1029137Y231677D01*
X1029203Y232334D01*
X1029202Y232361D01*
X1029207Y232410D01*
X1029207Y253652D01*
X1030033Y254478D01*
X1030045Y254494D01*
X1030061Y254506D01*
X1030117Y254594D01*
X1030177Y254677D01*
X1030183Y254696D01*
X1030194Y254713D01*
X1030219Y254814D01*
X1030249Y254913D01*
X1030249Y254932D01*
X1030254Y254952D01*
X1030246Y255055D01*
X1030243Y255158D01*
X1030236Y255177D01*
X1030234Y255197D01*
X1030194Y255292D01*
X1030158Y255389D01*
X1030146Y255405D01*
X1030138Y255423D01*
X1030033Y255554D01*
X1028953Y256634D01*
X1028953Y260264D01*
X1028948Y260294D01*
X1028951Y260324D01*
X1028929Y260415D01*
X1028914Y260507D01*
X1028899Y260534D01*
X1028892Y260563D01*
X1028842Y260642D01*
X1028798Y260724D01*
X1028776Y260745D01*
X1028760Y260771D01*
X1028687Y260829D01*
X1028620Y260893D01*
X1028592Y260906D01*
X1028569Y260925D01*
X1028481Y260958D01*
X1028397Y260997D01*
X1028367Y261000D01*
X1028338Y261011D01*
X1028245Y261014D01*
X1028153Y261024D01*
X1028123Y261018D01*
X1028092Y261019D01*
X1028003Y260992D01*
X1027912Y260972D01*
X1027886Y260956D01*
X1027857Y260947D01*
X1027781Y260893D01*
X1027701Y260846D01*
X1027681Y260822D01*
X1027656Y260805D01*
X1027602Y260729D01*
X1027541Y260659D01*
X1027530Y260630D01*
X1027512Y260606D01*
X1027453Y260448D01*
X1027453Y260439D01*
X1027449Y260431D01*
X1027449Y260430D01*
X1027431Y260264D01*
X1027431Y259428D01*
X1026999Y258996D01*
X1026951Y258929D01*
X1026896Y258868D01*
X1026872Y258819D01*
X1026855Y258797D01*
X1026847Y258769D01*
X1026821Y258718D01*
X1026217Y257053D01*
X1022357Y252877D01*
X1017179Y250525D01*
X1014336Y250445D01*
X1012338Y250389D01*
X1011713Y250371D01*
X1006821Y252277D01*
X1003056Y255937D01*
X1001013Y260773D01*
X1001013Y279306D01*
X1002834Y281126D01*
X1002878Y281188D01*
X1002930Y281244D01*
X1002950Y281287D01*
X1002977Y281326D01*
X1003000Y281399D01*
X1003031Y281468D01*
X1003036Y281515D01*
X1003050Y281561D01*
X1003048Y281637D01*
X1003055Y281713D01*
X1003044Y281759D01*
X1003043Y281807D01*
X1003017Y281879D01*
X1003000Y281953D01*
X1002975Y281993D01*
X1002959Y282038D01*
X1002911Y282097D01*
X1002871Y282162D01*
X1002835Y282193D01*
X1002805Y282230D01*
X1002741Y282271D01*
X1002682Y282320D01*
X1002638Y282337D01*
X1002598Y282363D01*
X1002524Y282381D01*
X1002453Y282409D01*
X1002445Y282410D01*
X1000018Y284779D01*
X999977Y288147D01*
X1002329Y290556D01*
X1009076Y290637D01*
X1009138Y290648D01*
X1009199Y290649D01*
X1009258Y290669D01*
X1009319Y290680D01*
X1009373Y290710D01*
X1009432Y290730D01*
X1009480Y290768D01*
X1009535Y290798D01*
X1009577Y290843D01*
X1009626Y290881D01*
X1009660Y290933D01*
X1009702Y290978D01*
X1009727Y291035D01*
X1009762Y291086D01*
X1009777Y291146D01*
X1009803Y291202D01*
X1009809Y291264D01*
X1009825Y291324D01*
X1009821Y291386D01*
X1009827Y291447D01*
X1009813Y291508D01*
X1009809Y291569D01*
X1009786Y291627D01*
X1009772Y291687D01*
X1009739Y291740D01*
X1009716Y291797D01*
X1009675Y291844D01*
X1009643Y291897D01*
X1009596Y291936D01*
X1009555Y291983D01*
X1009479Y292033D01*
X1009454Y292054D01*
X1009438Y292060D01*
X1009415Y292076D01*
X1005099Y294293D01*
X1001636Y298909D01*
X1001374Y300262D01*
X1001366Y300284D01*
X1001364Y300307D01*
X1001323Y300399D01*
X1001289Y300493D01*
X1001274Y300511D01*
X1001265Y300532D01*
X1001159Y300662D01*
X1001032Y300786D01*
X1001018Y302033D01*
X1001013Y302063D01*
X1001004Y302169D01*
X1000767Y303394D01*
X1000867Y303541D01*
X1000876Y303562D01*
X1000891Y303579D01*
X1000927Y303673D01*
X1000970Y303764D01*
X1000972Y303787D01*
X1000980Y303809D01*
X1000997Y303976D01*
X1000741Y327267D01*
X1003096Y329674D01*
X1004810Y329693D01*
X1004928Y329714D01*
X1005044Y329733D01*
X1005048Y329734D01*
X1005052Y329735D01*
X1005158Y329793D01*
X1005261Y329848D01*
X1005264Y329851D01*
X1005268Y329853D01*
X1005349Y329940D01*
X1005431Y330026D01*
X1005433Y330030D01*
X1005435Y330033D01*
X1005484Y330141D01*
X1005534Y330249D01*
X1005535Y330253D01*
X1005537Y330257D01*
X1005549Y330376D01*
X1005561Y330493D01*
X1005561Y330498D01*
X1005561Y330502D01*
X1005534Y330618D01*
X1005509Y330734D01*
X1005507Y330737D01*
X1005506Y330742D01*
X1005444Y330842D01*
X1005383Y330945D01*
X1005380Y330948D01*
X1005378Y330951D01*
X1005287Y331027D01*
X1005196Y331105D01*
X1005192Y331106D01*
X1005189Y331109D01*
X1005079Y331152D01*
X1004968Y331197D01*
X1004963Y331197D01*
X1004960Y331199D01*
X1004880Y331207D01*
X1004801Y331215D01*
X1002378Y331215D01*
X999997Y333596D01*
X999997Y336964D01*
X1002378Y339345D01*
X1012655Y339345D01*
X1012725Y339356D01*
X1012796Y339358D01*
X1012846Y339376D01*
X1012897Y339384D01*
X1012960Y339418D01*
X1013028Y339442D01*
X1013068Y339475D01*
X1013115Y339500D01*
X1013164Y339551D01*
X1013220Y339596D01*
X1013248Y339640D01*
X1013284Y339678D01*
X1013314Y339743D01*
X1013353Y339803D01*
X1013366Y339854D01*
X1013388Y339901D01*
X1013396Y339972D01*
X1013413Y340041D01*
X1013409Y340093D01*
X1013415Y340145D01*
X1013400Y340215D01*
X1013394Y340286D01*
X1013369Y340354D01*
X1013363Y340386D01*
X1013351Y340406D01*
X1013337Y340444D01*
X1000180Y366987D01*
X1001256Y370178D01*
X1004273Y371674D01*
X1007464Y370598D01*
X1018439Y348455D01*
X1018455Y348433D01*
X1018464Y348408D01*
X1018526Y348334D01*
X1018583Y348255D01*
X1018604Y348239D01*
X1018621Y348219D01*
X1018704Y348168D01*
X1018782Y348111D01*
X1018808Y348103D01*
X1018830Y348089D01*
X1018925Y348067D01*
X1019017Y348039D01*
X1019044Y348039D01*
X1019070Y348033D01*
X1019166Y348042D01*
X1019263Y348045D01*
X1019288Y348054D01*
X1019315Y348056D01*
X1019403Y348096D01*
X1019494Y348129D01*
X1019515Y348146D01*
X1019539Y348156D01*
X1019611Y348222D01*
X1019687Y348283D01*
X1019701Y348305D01*
X1019720Y348323D01*
X1019809Y348466D01*
X1030431Y370772D01*
X1030435Y370785D01*
X1030442Y370797D01*
X1030469Y370903D01*
X1030499Y371008D01*
X1030499Y371022D01*
X1030502Y371035D01*
X1030494Y371144D01*
X1030489Y371254D01*
X1030484Y371267D01*
X1030483Y371280D01*
X1030440Y371381D01*
X1030401Y371484D01*
X1030392Y371494D01*
X1030387Y371507D01*
X1030282Y371638D01*
X1028699Y373220D01*
X1028699Y388112D01*
X1028696Y388132D01*
X1028698Y388151D01*
X1028676Y388253D01*
X1028660Y388355D01*
X1028650Y388372D01*
X1028646Y388392D01*
X1028593Y388481D01*
X1028544Y388572D01*
X1028530Y388586D01*
X1028520Y388603D01*
X1028441Y388670D01*
X1028366Y388742D01*
X1028348Y388750D01*
X1028333Y388763D01*
X1028237Y388802D01*
X1028143Y388845D01*
X1028123Y388847D01*
X1028105Y388855D01*
X1027938Y388873D01*
X1002632Y388873D01*
X1000251Y391254D01*
X1000251Y394622D01*
X1002632Y397003D01*
X1027938Y397003D01*
X1027958Y397006D01*
X1027977Y397004D01*
X1028079Y397026D01*
X1028181Y397042D01*
X1028198Y397052D01*
X1028218Y397056D01*
X1028307Y397109D01*
X1028398Y397158D01*
X1028412Y397172D01*
X1028429Y397182D01*
X1028496Y397261D01*
X1028568Y397336D01*
X1028576Y397354D01*
X1028589Y397369D01*
X1028628Y397465D01*
X1028671Y397559D01*
X1028673Y397579D01*
X1028681Y397597D01*
X1028699Y397764D01*
X1028699Y412148D01*
X1029779Y413228D01*
X1029791Y413244D01*
X1029807Y413256D01*
X1029863Y413344D01*
X1029923Y413427D01*
X1029929Y413446D01*
X1029940Y413463D01*
X1029965Y413564D01*
X1029995Y413663D01*
X1029995Y413682D01*
X1030000Y413702D01*
X1029992Y413805D01*
X1029989Y413908D01*
X1029982Y413927D01*
X1029980Y413947D01*
X1029940Y414042D01*
X1029904Y414139D01*
X1029892Y414155D01*
X1029884Y414173D01*
X1029779Y414304D01*
X1028953Y415130D01*
X1028953Y418760D01*
X1028952Y418769D01*
X1028952Y418773D01*
X1028948Y418791D01*
X1028951Y418820D01*
X1028929Y418911D01*
X1028914Y419003D01*
X1028899Y419030D01*
X1028892Y419059D01*
X1028842Y419138D01*
X1028798Y419220D01*
X1028776Y419241D01*
X1028760Y419267D01*
X1028687Y419325D01*
X1028620Y419389D01*
X1028592Y419402D01*
X1028569Y419421D01*
X1028481Y419454D01*
X1028397Y419493D01*
X1028367Y419496D01*
X1028338Y419507D01*
X1028245Y419510D01*
X1028153Y419520D01*
X1028123Y419514D01*
X1028092Y419515D01*
X1028003Y419488D01*
X1027912Y419468D01*
X1027886Y419452D01*
X1027857Y419443D01*
X1027781Y419389D01*
X1027701Y419342D01*
X1027681Y419318D01*
X1027656Y419301D01*
X1027602Y419225D01*
X1027541Y419155D01*
X1027530Y419126D01*
X1027512Y419102D01*
X1027453Y418944D01*
X1027453Y418935D01*
X1027449Y418927D01*
X1027449Y418926D01*
X1027431Y418760D01*
X1027431Y417924D01*
X1026999Y417492D01*
X1026950Y417425D01*
X1026896Y417364D01*
X1026872Y417315D01*
X1026855Y417293D01*
X1026847Y417265D01*
X1026821Y417214D01*
X1026217Y415549D01*
X1022357Y411373D01*
X1017179Y409021D01*
X1014336Y408941D01*
X1012338Y408885D01*
X1011713Y408867D01*
X1006821Y410773D01*
X1003056Y414433D01*
X1001013Y419269D01*
X1001013Y437802D01*
X1002834Y439622D01*
X1002878Y439684D01*
X1002930Y439740D01*
X1002950Y439783D01*
X1002977Y439822D01*
X1003000Y439895D01*
X1003031Y439964D01*
X1003036Y440011D01*
X1003050Y440057D01*
X1003048Y440133D01*
X1003055Y440209D01*
X1003044Y440255D01*
X1003043Y440303D01*
X1003017Y440375D01*
X1003000Y440449D01*
X1002975Y440489D01*
X1002959Y440534D01*
X1002911Y440593D01*
X1002871Y440658D01*
X1002835Y440689D01*
X1002805Y440726D01*
X1002741Y440767D01*
X1002682Y440816D01*
X1002638Y440833D01*
X1002598Y440859D01*
X1002524Y440877D01*
X1002453Y440905D01*
X1002445Y440906D01*
X1000018Y443275D01*
X999977Y446643D01*
X1002329Y449052D01*
X1023219Y449304D01*
X1023292Y449317D01*
X1023367Y449320D01*
X1023413Y449338D01*
X1023461Y449346D01*
X1023523Y449380D01*
X1025167Y449328D01*
X1025180Y449330D01*
X1025201Y449328D01*
X1026832Y449347D01*
X1026842Y449340D01*
X1026914Y449319D01*
X1026982Y449289D01*
X1027048Y449280D01*
X1027078Y449271D01*
X1027103Y449272D01*
X1027148Y449265D01*
X1028470Y449223D01*
X1033942Y445908D01*
X1037083Y440333D01*
X1037083Y415130D01*
X1036003Y414050D01*
X1035991Y414034D01*
X1035975Y414022D01*
X1035919Y413934D01*
X1035859Y413851D01*
X1035853Y413832D01*
X1035842Y413815D01*
X1035817Y413714D01*
X1035787Y413615D01*
X1035787Y413596D01*
X1035782Y413576D01*
X1035790Y413473D01*
X1035793Y413370D01*
X1035800Y413351D01*
X1035802Y413331D01*
X1035842Y413236D01*
X1035878Y413139D01*
X1035890Y413123D01*
X1035898Y413105D01*
X1036003Y412974D01*
X1036829Y412148D01*
X1036829Y395191D01*
X1036843Y395101D01*
X1036851Y395010D01*
X1036863Y394980D01*
X1036868Y394948D01*
X1036911Y394868D01*
X1036947Y394784D01*
X1036973Y394752D01*
X1036984Y394731D01*
X1037007Y394709D01*
X1037052Y394653D01*
X1037083Y394622D01*
X1037083Y391254D01*
X1037052Y391223D01*
X1036999Y391149D01*
X1036939Y391080D01*
X1036927Y391050D01*
X1036908Y391024D01*
X1036881Y390937D01*
X1036847Y390852D01*
X1036843Y390811D01*
X1036836Y390788D01*
X1036837Y390756D01*
X1036829Y390685D01*
X1036829Y373220D01*
X1035472Y371864D01*
X1035457Y371842D01*
X1035436Y371826D01*
X1035385Y371743D01*
X1035328Y371664D01*
X1035321Y371639D01*
X1035307Y371617D01*
X1035285Y371522D01*
X1035256Y371429D01*
X1035257Y371403D01*
X1035251Y371377D01*
X1035260Y371280D01*
X1035262Y371183D01*
X1035271Y371158D01*
X1035274Y371132D01*
X1035313Y371043D01*
X1035347Y370952D01*
X1035363Y370931D01*
X1035374Y370907D01*
X1035440Y370836D01*
X1035501Y370760D01*
X1035523Y370746D01*
X1035540Y370726D01*
X1035683Y370638D01*
X1036540Y370230D01*
X1037666Y367057D01*
X1024988Y340433D01*
X1024970Y340370D01*
X1024942Y340311D01*
X1024936Y340253D01*
X1024920Y340197D01*
X1024922Y340132D01*
X1024915Y340067D01*
X1024927Y340010D01*
X1024930Y339951D01*
X1024953Y339890D01*
X1024967Y339826D01*
X1024997Y339776D01*
X1025018Y339722D01*
X1025060Y339671D01*
X1025094Y339615D01*
X1025138Y339577D01*
X1025175Y339532D01*
X1025231Y339498D01*
X1025280Y339455D01*
X1025335Y339433D01*
X1025384Y339403D01*
X1025448Y339388D01*
X1025509Y339363D01*
X1025591Y339354D01*
X1025624Y339346D01*
X1025643Y339348D01*
X1025675Y339345D01*
X1035972Y339345D01*
X1038353Y336964D01*
X1038353Y333596D01*
X1035972Y331215D01*
X1018863Y331215D01*
X1018817Y331208D01*
X1018772Y331210D01*
X1018638Y331179D01*
X1018620Y331176D01*
X1018616Y331173D01*
X1018608Y331171D01*
X1017805Y330886D01*
X1017269Y331141D01*
X1017187Y331165D01*
X1017108Y331197D01*
X1017058Y331202D01*
X1017033Y331210D01*
X1017003Y331209D01*
X1016942Y331215D01*
X1006792Y331215D01*
X1006717Y331203D01*
X1006641Y331200D01*
X1006597Y331183D01*
X1006549Y331176D01*
X1006482Y331140D01*
X1006411Y331113D01*
X1006374Y331083D01*
X1006332Y331060D01*
X1006280Y331006D01*
X1006221Y330957D01*
X1006195Y330917D01*
X1006162Y330882D01*
X1006131Y330813D01*
X1006090Y330749D01*
X1006079Y330702D01*
X1006059Y330659D01*
X1006050Y330584D01*
X1006033Y330510D01*
X1006037Y330462D01*
X1006032Y330415D01*
X1006048Y330340D01*
X1006055Y330265D01*
X1006074Y330221D01*
X1006084Y330174D01*
X1006123Y330109D01*
X1006153Y330040D01*
X1006194Y329990D01*
X1006210Y329963D01*
X1006230Y329946D01*
X1006234Y329942D01*
X1006236Y329938D01*
X1006238Y329936D01*
X1006260Y329910D01*
X1008870Y327356D01*
X1009136Y303165D01*
X1009141Y303138D01*
X1009138Y303110D01*
X1009171Y302945D01*
X1009336Y302419D01*
X1009357Y302378D01*
X1009368Y302334D01*
X1009439Y302214D01*
X1009447Y302199D01*
X1009450Y302196D01*
X1009454Y302190D01*
X1010435Y300882D01*
X1010498Y300821D01*
X1010556Y300755D01*
X1010594Y300729D01*
X1010612Y300712D01*
X1010641Y300698D01*
X1010696Y300662D01*
X1012150Y299915D01*
X1012193Y299901D01*
X1012233Y299878D01*
X1012368Y299844D01*
X1012384Y299839D01*
X1012389Y299839D01*
X1012395Y299838D01*
X1013210Y299727D01*
X1013240Y299727D01*
X1013296Y299720D01*
X1015295Y299675D01*
X1022923Y299506D01*
X1022987Y299515D01*
X1023052Y299514D01*
X1023108Y299532D01*
X1023167Y299540D01*
X1023224Y299569D01*
X1023286Y299589D01*
X1023313Y299607D01*
X1024842Y299465D01*
X1024862Y299466D01*
X1024895Y299462D01*
X1025413Y299450D01*
X1025423Y299452D01*
X1025439Y299450D01*
X1025729Y299454D01*
X1025763Y299460D01*
X1025798Y299458D01*
X1025962Y299493D01*
X1027168Y299898D01*
X1027233Y299932D01*
X1027303Y299958D01*
X1027358Y299998D01*
X1027385Y300012D01*
X1027403Y300030D01*
X1027439Y300057D01*
X1028379Y300914D01*
X1028425Y300972D01*
X1028478Y301024D01*
X1028512Y301082D01*
X1028531Y301107D01*
X1028540Y301130D01*
X1028562Y301169D01*
X1029076Y302333D01*
X1029085Y302366D01*
X1029101Y302397D01*
X1029137Y302561D01*
X1029203Y303197D01*
X1029202Y303225D01*
X1029207Y303276D01*
X1029207Y327312D01*
X1031588Y329693D01*
X1034956Y329693D01*
X1037337Y327312D01*
X1037337Y300751D01*
X1035297Y296130D01*
X1031565Y292728D01*
X1029004Y291869D01*
X1028968Y291850D01*
X1028930Y291840D01*
X1028860Y291793D01*
X1028787Y291754D01*
X1028759Y291725D01*
X1028725Y291702D01*
X1028675Y291636D01*
X1028617Y291576D01*
X1028600Y291539D01*
X1028575Y291507D01*
X1028548Y291429D01*
X1028513Y291353D01*
X1028509Y291313D01*
X1028496Y291275D01*
X1028495Y291191D01*
X1028486Y291109D01*
X1028494Y291069D01*
X1028494Y291029D01*
X1028520Y290950D01*
X1028538Y290868D01*
X1028559Y290833D01*
X1028571Y290795D01*
X1028621Y290729D01*
X1028664Y290657D01*
X1028694Y290631D01*
X1028719Y290598D01*
X1028849Y290498D01*
X1028851Y290497D01*
X1028852Y290496D01*
X1033942Y287412D01*
X1037083Y281837D01*
X1037083Y256634D01*
X1036257Y255808D01*
X1036245Y255792D01*
X1036229Y255780D01*
X1036173Y255692D01*
X1036113Y255609D01*
X1036107Y255590D01*
X1036096Y255573D01*
X1036071Y255472D01*
X1036041Y255373D01*
X1036041Y255354D01*
X1036036Y255334D01*
X1036044Y255231D01*
X1036047Y255128D01*
X1036054Y255109D01*
X1036056Y255089D01*
X1036096Y254994D01*
X1036132Y254897D01*
X1036144Y254881D01*
X1036152Y254863D01*
X1036257Y254732D01*
X1037337Y253652D01*
X1037337Y229935D01*
X1035407Y225377D01*
X1034515Y224512D01*
X1034497Y224487D01*
X1034473Y224467D01*
X1034424Y224388D01*
X1034368Y224314D01*
X1034359Y224285D01*
X1034343Y224259D01*
X1034321Y224168D01*
X1034292Y224080D01*
X1034293Y224049D01*
X1034286Y224019D01*
X1034294Y223927D01*
X1034295Y223834D01*
X1034305Y223805D01*
X1034308Y223774D01*
X1034345Y223690D01*
X1034376Y223602D01*
X1034395Y223578D01*
X1034407Y223549D01*
X1034514Y223420D01*
X1037061Y220938D01*
X1037311Y201659D01*
X1037326Y201574D01*
X1037333Y201488D01*
X1037337Y201478D01*
X1037337Y199676D01*
X1037337Y199672D01*
X1037337Y199666D01*
X1037360Y197861D01*
X1037355Y197848D01*
X1037350Y197801D01*
X1037343Y197776D01*
X1037344Y197745D01*
X1037337Y197682D01*
X1037337Y196558D01*
X1035558Y192263D01*
X1032271Y188976D01*
X1027976Y187197D01*
X1002632Y187197D01*
G37*
%LPD*%
%LPC*%
G36*
X342731Y210085D02*
X342731Y210085D01*
X340594Y210971D01*
X340460Y211104D01*
X340386Y211157D01*
X340317Y211217D01*
X340287Y211229D01*
X340261Y211248D01*
X340174Y211275D01*
X340089Y211309D01*
X340048Y211313D01*
X340026Y211320D01*
X339993Y211319D01*
X339922Y211327D01*
X325131Y211327D01*
X317071Y219387D01*
X316997Y219440D01*
X316927Y219500D01*
X316897Y219512D01*
X316871Y219531D01*
X316784Y219558D01*
X316699Y219592D01*
X316658Y219596D01*
X316636Y219603D01*
X316604Y219602D01*
X316533Y219610D01*
X316343Y219610D01*
X314206Y220496D01*
X312571Y222131D01*
X311685Y224268D01*
X311685Y226582D01*
X312571Y228719D01*
X314206Y230354D01*
X316343Y231240D01*
X318657Y231240D01*
X320794Y230354D01*
X322429Y228719D01*
X323315Y226582D01*
X323315Y226392D01*
X323329Y226302D01*
X323337Y226211D01*
X323349Y226182D01*
X323354Y226150D01*
X323397Y226069D01*
X323433Y225985D01*
X323459Y225953D01*
X323470Y225932D01*
X323493Y225910D01*
X323538Y225854D01*
X328696Y220696D01*
X328770Y220643D01*
X328840Y220583D01*
X328870Y220571D01*
X328896Y220552D01*
X328983Y220525D01*
X329068Y220491D01*
X329109Y220487D01*
X329131Y220480D01*
X329163Y220481D01*
X329234Y220473D01*
X339922Y220473D01*
X340012Y220487D01*
X340103Y220495D01*
X340133Y220507D01*
X340165Y220512D01*
X340245Y220555D01*
X340330Y220591D01*
X340362Y220617D01*
X340382Y220628D01*
X340404Y220651D01*
X340460Y220696D01*
X340594Y220829D01*
X342731Y221715D01*
X345045Y221715D01*
X347182Y220829D01*
X347316Y220696D01*
X347390Y220643D01*
X347459Y220583D01*
X347489Y220571D01*
X347515Y220552D01*
X347602Y220525D01*
X347687Y220491D01*
X347728Y220487D01*
X347750Y220480D01*
X347783Y220481D01*
X347854Y220473D01*
X669134Y220473D01*
X669224Y220487D01*
X669315Y220495D01*
X669345Y220507D01*
X669377Y220512D01*
X669458Y220555D01*
X669541Y220591D01*
X669574Y220617D01*
X669594Y220628D01*
X669616Y220651D01*
X669672Y220696D01*
X669806Y220829D01*
X671943Y221715D01*
X674257Y221715D01*
X676394Y220829D01*
X678029Y219194D01*
X678915Y217057D01*
X678915Y214743D01*
X678029Y212606D01*
X676394Y210971D01*
X674257Y210085D01*
X671943Y210085D01*
X669806Y210971D01*
X669672Y211104D01*
X669598Y211157D01*
X669529Y211217D01*
X669499Y211229D01*
X669473Y211248D01*
X669386Y211275D01*
X669301Y211309D01*
X669260Y211313D01*
X669238Y211320D01*
X669205Y211319D01*
X669134Y211327D01*
X347854Y211327D01*
X347764Y211313D01*
X347673Y211305D01*
X347643Y211293D01*
X347611Y211288D01*
X347531Y211245D01*
X347446Y211209D01*
X347414Y211183D01*
X347394Y211172D01*
X347372Y211149D01*
X347316Y211104D01*
X347182Y210971D01*
X345045Y210085D01*
X342731Y210085D01*
G37*
%LPD*%
%LPC*%
G36*
X348093Y184685D02*
X348093Y184685D01*
X345956Y185571D01*
X345822Y185704D01*
X345748Y185757D01*
X345679Y185817D01*
X345649Y185829D01*
X345623Y185848D01*
X345536Y185875D01*
X345451Y185909D01*
X345410Y185913D01*
X345388Y185920D01*
X345355Y185919D01*
X345284Y185927D01*
X328306Y185927D01*
X317071Y197162D01*
X316997Y197215D01*
X316927Y197275D01*
X316897Y197287D01*
X316871Y197306D01*
X316784Y197333D01*
X316699Y197367D01*
X316658Y197371D01*
X316636Y197378D01*
X316604Y197377D01*
X316533Y197385D01*
X316343Y197385D01*
X314206Y198271D01*
X312571Y199906D01*
X311685Y202043D01*
X311685Y204357D01*
X312571Y206494D01*
X314206Y208129D01*
X316343Y209015D01*
X318657Y209015D01*
X320794Y208129D01*
X322429Y206494D01*
X323315Y204357D01*
X323315Y204167D01*
X323329Y204077D01*
X323337Y203986D01*
X323349Y203957D01*
X323354Y203925D01*
X323397Y203844D01*
X323433Y203760D01*
X323459Y203728D01*
X323470Y203707D01*
X323493Y203685D01*
X323538Y203629D01*
X331871Y195296D01*
X331945Y195243D01*
X332015Y195183D01*
X332045Y195171D01*
X332071Y195152D01*
X332158Y195125D01*
X332243Y195091D01*
X332284Y195087D01*
X332306Y195080D01*
X332338Y195081D01*
X332409Y195073D01*
X345284Y195073D01*
X345374Y195087D01*
X345465Y195095D01*
X345495Y195107D01*
X345527Y195112D01*
X345608Y195155D01*
X345691Y195191D01*
X345724Y195217D01*
X345744Y195228D01*
X345766Y195251D01*
X345822Y195296D01*
X345956Y195429D01*
X348093Y196315D01*
X350407Y196315D01*
X352544Y195429D01*
X352678Y195296D01*
X352752Y195243D01*
X352821Y195183D01*
X352851Y195171D01*
X352877Y195152D01*
X352964Y195125D01*
X353049Y195091D01*
X353090Y195087D01*
X353112Y195080D01*
X353145Y195081D01*
X353216Y195073D01*
X656434Y195073D01*
X656524Y195087D01*
X656615Y195095D01*
X656645Y195107D01*
X656677Y195112D01*
X656758Y195155D01*
X656841Y195191D01*
X656874Y195217D01*
X656894Y195228D01*
X656916Y195251D01*
X656972Y195296D01*
X657106Y195429D01*
X659243Y196315D01*
X661557Y196315D01*
X663694Y195429D01*
X665329Y193794D01*
X666215Y191657D01*
X666215Y189343D01*
X665329Y187206D01*
X663694Y185571D01*
X661557Y184685D01*
X659243Y184685D01*
X657106Y185571D01*
X656972Y185704D01*
X656898Y185757D01*
X656829Y185817D01*
X656799Y185829D01*
X656773Y185848D01*
X656686Y185875D01*
X656601Y185909D01*
X656560Y185913D01*
X656538Y185920D01*
X656505Y185919D01*
X656434Y185927D01*
X353216Y185927D01*
X353126Y185913D01*
X353035Y185905D01*
X353005Y185893D01*
X352973Y185888D01*
X352892Y185845D01*
X352809Y185809D01*
X352776Y185783D01*
X352756Y185772D01*
X352734Y185749D01*
X352678Y185704D01*
X352544Y185571D01*
X350407Y184685D01*
X348093Y184685D01*
G37*
%LPD*%
%LPC*%
G36*
X1009650Y107185D02*
X1009650Y107185D01*
X1009630Y107183D01*
X1009595Y107187D01*
X1009218Y107187D01*
X1009194Y107199D01*
X1009110Y107215D01*
X1009078Y107225D01*
X1009059Y107224D01*
X1009029Y107230D01*
X1005809Y107460D01*
X1005772Y107457D01*
X1005735Y107462D01*
X1005650Y107446D01*
X1005564Y107438D01*
X1005555Y107434D01*
X1005302Y107489D01*
X1005269Y107490D01*
X1005194Y107504D01*
X1004935Y107523D01*
X1004924Y107532D01*
X1004889Y107545D01*
X1004859Y107566D01*
X1004700Y107620D01*
X1002374Y108126D01*
X1001486Y108319D01*
X1001448Y108321D01*
X1001413Y108331D01*
X1001326Y108327D01*
X1001240Y108331D01*
X1001230Y108329D01*
X1000988Y108419D01*
X1000956Y108425D01*
X1000884Y108450D01*
X1000630Y108505D01*
X1000620Y108515D01*
X1000588Y108534D01*
X1000560Y108559D01*
X1000410Y108634D01*
X997329Y109784D01*
X997292Y109791D01*
X997258Y109806D01*
X997172Y109815D01*
X997087Y109831D01*
X997077Y109830D01*
X996850Y109954D01*
X996819Y109965D01*
X996751Y109999D01*
X996508Y110090D01*
X996500Y110102D01*
X996470Y110124D01*
X996447Y110153D01*
X996309Y110249D01*
X993423Y111826D01*
X993387Y111838D01*
X993356Y111858D01*
X993272Y111878D01*
X993190Y111907D01*
X993180Y111907D01*
X992973Y112062D01*
X992944Y112077D01*
X992882Y112121D01*
X992654Y112246D01*
X992648Y112258D01*
X992622Y112285D01*
X992602Y112317D01*
X992480Y112432D01*
X989847Y114403D01*
X989814Y114420D01*
X989785Y114444D01*
X989705Y114476D01*
X989629Y114516D01*
X989618Y114518D01*
X989435Y114701D01*
X989409Y114720D01*
X989353Y114772D01*
X989145Y114928D01*
X989141Y114941D01*
X989119Y114971D01*
X989105Y115006D01*
X989000Y115137D01*
X986674Y117462D01*
X986644Y117484D01*
X986619Y117512D01*
X986544Y117555D01*
X986474Y117606D01*
X986464Y117609D01*
X986309Y117816D01*
X986286Y117839D01*
X986238Y117898D01*
X986055Y118082D01*
X986052Y118096D01*
X986035Y118129D01*
X986025Y118165D01*
X985940Y118309D01*
X983969Y120942D01*
X983942Y120968D01*
X983922Y120999D01*
X983854Y121053D01*
X983792Y121113D01*
X983782Y121117D01*
X983658Y121344D01*
X983638Y121370D01*
X983600Y121436D01*
X983444Y121644D01*
X983444Y121658D01*
X983431Y121693D01*
X983427Y121730D01*
X983363Y121885D01*
X981787Y124772D01*
X981764Y124801D01*
X981748Y124835D01*
X981689Y124898D01*
X981636Y124966D01*
X981627Y124972D01*
X981537Y125214D01*
X981520Y125242D01*
X981492Y125313D01*
X981367Y125541D01*
X981369Y125555D01*
X981361Y125591D01*
X981362Y125629D01*
X981321Y125791D01*
X980172Y128873D01*
X980153Y128905D01*
X980143Y128941D01*
X980093Y129011D01*
X980050Y129086D01*
X980042Y129093D01*
X979987Y129346D01*
X979975Y129377D01*
X979957Y129450D01*
X979866Y129694D01*
X979869Y129708D01*
X979867Y129745D01*
X979874Y129781D01*
X979856Y129948D01*
X979157Y133162D01*
X979143Y133197D01*
X979138Y133234D01*
X979098Y133310D01*
X979067Y133391D01*
X979060Y133399D01*
X979041Y133657D01*
X979034Y133689D01*
X979026Y133764D01*
X978971Y134018D01*
X978976Y134031D01*
X978980Y134068D01*
X978991Y134104D01*
X978998Y134271D01*
X978763Y137552D01*
X978754Y137588D01*
X978754Y137626D01*
X978726Y137707D01*
X978706Y137791D01*
X978700Y137800D01*
X978719Y138058D01*
X978716Y138091D01*
X978719Y138167D01*
X978700Y138426D01*
X978708Y138438D01*
X978716Y138474D01*
X978733Y138508D01*
X978763Y138673D01*
X978998Y141954D01*
X978994Y141991D01*
X978999Y142028D01*
X978983Y142112D01*
X978975Y142199D01*
X978971Y142208D01*
X979026Y142461D01*
X979028Y142493D01*
X979041Y142568D01*
X979060Y142827D01*
X979069Y142838D01*
X979083Y142873D01*
X979104Y142904D01*
X979157Y143063D01*
X979856Y146277D01*
X979858Y146314D01*
X979868Y146350D01*
X979864Y146436D01*
X979869Y146522D01*
X979866Y146532D01*
X979957Y146775D01*
X979963Y146807D01*
X979987Y146879D01*
X980042Y147133D01*
X980053Y147142D01*
X980071Y147175D01*
X980096Y147202D01*
X980172Y147352D01*
X981321Y150434D01*
X981328Y150470D01*
X981344Y150504D01*
X981352Y150590D01*
X981369Y150675D01*
X981368Y150685D01*
X981492Y150912D01*
X981502Y150943D01*
X981537Y151011D01*
X981627Y151255D01*
X981639Y151262D01*
X981662Y151292D01*
X981691Y151316D01*
X981787Y151453D01*
X983363Y154340D01*
X983376Y154375D01*
X983395Y154407D01*
X983416Y154490D01*
X983445Y154572D01*
X983445Y154582D01*
X983600Y154789D01*
X983615Y154818D01*
X983658Y154881D01*
X983783Y155109D01*
X983796Y155115D01*
X983822Y155141D01*
X983854Y155160D01*
X983969Y155283D01*
X985940Y157916D01*
X985957Y157949D01*
X985982Y157977D01*
X986014Y158057D01*
X986054Y158134D01*
X986055Y158144D01*
X986238Y158327D01*
X986257Y158354D01*
X986309Y158409D01*
X986465Y158617D01*
X986479Y158621D01*
X986509Y158643D01*
X986543Y158658D01*
X986674Y158763D01*
X989000Y161088D01*
X989022Y161119D01*
X989050Y161143D01*
X989093Y161218D01*
X989143Y161288D01*
X989146Y161298D01*
X989353Y161453D01*
X989376Y161477D01*
X989435Y161524D01*
X989619Y161708D01*
X989633Y161710D01*
X989666Y161728D01*
X989702Y161737D01*
X989847Y161822D01*
X992480Y163793D01*
X992506Y163820D01*
X992537Y163841D01*
X992590Y163908D01*
X992650Y163971D01*
X992655Y163980D01*
X992882Y164104D01*
X992908Y164124D01*
X992973Y164163D01*
X993181Y164318D01*
X993195Y164319D01*
X993230Y164331D01*
X993267Y164336D01*
X993423Y164399D01*
X996309Y165976D01*
X996339Y165999D01*
X996373Y166014D01*
X996435Y166074D01*
X996503Y166127D01*
X996509Y166135D01*
X996751Y166226D01*
X996780Y166242D01*
X996850Y166271D01*
X997078Y166395D01*
X997092Y166394D01*
X997129Y166401D01*
X997166Y166400D01*
X997329Y166441D01*
X1000410Y167591D01*
X1000443Y167609D01*
X1000479Y167620D01*
X1000549Y167670D01*
X1000624Y167713D01*
X1000631Y167720D01*
X1000884Y167775D01*
X1000914Y167787D01*
X1000988Y167806D01*
X1001231Y167897D01*
X1001245Y167893D01*
X1001282Y167895D01*
X1001319Y167889D01*
X1001486Y167906D01*
X1004700Y168605D01*
X1004734Y168619D01*
X1004771Y168625D01*
X1004848Y168664D01*
X1004928Y168696D01*
X1004936Y168703D01*
X1005194Y168721D01*
X1005226Y168729D01*
X1005302Y168736D01*
X1005794Y168844D01*
X1005803Y168847D01*
X1005813Y168848D01*
X1005917Y168892D01*
X1006023Y168934D01*
X1006030Y168940D01*
X1006040Y168944D01*
X1006156Y169038D01*
X1009082Y169038D01*
X1009145Y169048D01*
X1009210Y169049D01*
X1009264Y169067D01*
X1009596Y169044D01*
X1009610Y169045D01*
X1009617Y169044D01*
X1009683Y169044D01*
X1009685Y169044D01*
X1009704Y169044D01*
X1010011Y169065D01*
X1010049Y169054D01*
X1010106Y169026D01*
X1010190Y169010D01*
X1010222Y169000D01*
X1010241Y169001D01*
X1010271Y168995D01*
X1013717Y168749D01*
X1013754Y168752D01*
X1013791Y168747D01*
X1013876Y168763D01*
X1013962Y168771D01*
X1013971Y168775D01*
X1014224Y168720D01*
X1014257Y168719D01*
X1014332Y168705D01*
X1014591Y168686D01*
X1014602Y168677D01*
X1014636Y168664D01*
X1014667Y168643D01*
X1014826Y168589D01*
X1018262Y167842D01*
X1018299Y167840D01*
X1018334Y167830D01*
X1018421Y167834D01*
X1018507Y167829D01*
X1018517Y167832D01*
X1018759Y167742D01*
X1018791Y167735D01*
X1018864Y167711D01*
X1019118Y167656D01*
X1019127Y167645D01*
X1019159Y167627D01*
X1019187Y167602D01*
X1019337Y167526D01*
X1022631Y166298D01*
X1022667Y166291D01*
X1022701Y166275D01*
X1022787Y166267D01*
X1022872Y166250D01*
X1022882Y166251D01*
X1023109Y166127D01*
X1023140Y166117D01*
X1023208Y166082D01*
X1023452Y165992D01*
X1023459Y165980D01*
X1023489Y165957D01*
X1023513Y165928D01*
X1023650Y165832D01*
X1026736Y164147D01*
X1026771Y164135D01*
X1026802Y164115D01*
X1026886Y164095D01*
X1026968Y164066D01*
X1026978Y164066D01*
X1027185Y163911D01*
X1027214Y163896D01*
X1027276Y163852D01*
X1027505Y163727D01*
X1027511Y163715D01*
X1027537Y163688D01*
X1027556Y163656D01*
X1027679Y163541D01*
X1030493Y161435D01*
X1030526Y161417D01*
X1030554Y161393D01*
X1030635Y161361D01*
X1030711Y161321D01*
X1030721Y161319D01*
X1030904Y161137D01*
X1030931Y161117D01*
X1030986Y161065D01*
X1031194Y160910D01*
X1031199Y160896D01*
X1031221Y160866D01*
X1031235Y160832D01*
X1031340Y160701D01*
X1033826Y158215D01*
X1033856Y158193D01*
X1033881Y158165D01*
X1033955Y158122D01*
X1034025Y158071D01*
X1034035Y158068D01*
X1034190Y157861D01*
X1034214Y157838D01*
X1034262Y157779D01*
X1034445Y157595D01*
X1034448Y157581D01*
X1034465Y157548D01*
X1034475Y157512D01*
X1034560Y157368D01*
X1036666Y154554D01*
X1036693Y154528D01*
X1036714Y154496D01*
X1036781Y154443D01*
X1036844Y154383D01*
X1036853Y154379D01*
X1036977Y154152D01*
X1036997Y154126D01*
X1037036Y154060D01*
X1037191Y153852D01*
X1037192Y153838D01*
X1037204Y153803D01*
X1037209Y153766D01*
X1037272Y153611D01*
X1038957Y150525D01*
X1038980Y150496D01*
X1038996Y150462D01*
X1039055Y150399D01*
X1039108Y150331D01*
X1039117Y150325D01*
X1039207Y150083D01*
X1039224Y150055D01*
X1039252Y149984D01*
X1039377Y149756D01*
X1039375Y149742D01*
X1039383Y149706D01*
X1039382Y149668D01*
X1039423Y149506D01*
X1040651Y146212D01*
X1040670Y146179D01*
X1040681Y146144D01*
X1040730Y146073D01*
X1040773Y145998D01*
X1040781Y145991D01*
X1040836Y145739D01*
X1040848Y145708D01*
X1040867Y145634D01*
X1040957Y145391D01*
X1040954Y145377D01*
X1040956Y145340D01*
X1040950Y145303D01*
X1040967Y145137D01*
X1041714Y141701D01*
X1041728Y141667D01*
X1041734Y141630D01*
X1041773Y141553D01*
X1041805Y141473D01*
X1041811Y141465D01*
X1041830Y141207D01*
X1041837Y141175D01*
X1041845Y141099D01*
X1041901Y140845D01*
X1041895Y140832D01*
X1041892Y140795D01*
X1041880Y140760D01*
X1041874Y140592D01*
X1042120Y137146D01*
X1042135Y137084D01*
X1042140Y137019D01*
X1042163Y136967D01*
X1042163Y136580D01*
X1042166Y136560D01*
X1042165Y136525D01*
X1042192Y136149D01*
X1042181Y136123D01*
X1042172Y136038D01*
X1042164Y136006D01*
X1042166Y135988D01*
X1042163Y135957D01*
X1042163Y133918D01*
X1042173Y133855D01*
X1042174Y133790D01*
X1042192Y133736D01*
X1042165Y133350D01*
X1042167Y133330D01*
X1042163Y133295D01*
X1042163Y132918D01*
X1042151Y132894D01*
X1042135Y132810D01*
X1042125Y132778D01*
X1042126Y132759D01*
X1042120Y132729D01*
X1041938Y130187D01*
X1041942Y130150D01*
X1041937Y130113D01*
X1041953Y130028D01*
X1041961Y129942D01*
X1041965Y129932D01*
X1041910Y129680D01*
X1041908Y129647D01*
X1041894Y129572D01*
X1041876Y129313D01*
X1041867Y129302D01*
X1041853Y129267D01*
X1041832Y129236D01*
X1041779Y129077D01*
X1041224Y126527D01*
X1041222Y126490D01*
X1041212Y126454D01*
X1041216Y126368D01*
X1041211Y126282D01*
X1041214Y126272D01*
X1041124Y126030D01*
X1041118Y125998D01*
X1041093Y125925D01*
X1041038Y125671D01*
X1041028Y125662D01*
X1041009Y125629D01*
X1040984Y125602D01*
X1040908Y125452D01*
X1039997Y123007D01*
X1039989Y122971D01*
X1039974Y122937D01*
X1039966Y122851D01*
X1039949Y122766D01*
X1039950Y122756D01*
X1039826Y122529D01*
X1039816Y122498D01*
X1039781Y122430D01*
X1039690Y122186D01*
X1039679Y122178D01*
X1039656Y122149D01*
X1039627Y122125D01*
X1039531Y121988D01*
X1038280Y119697D01*
X1038268Y119662D01*
X1038248Y119631D01*
X1038228Y119547D01*
X1038199Y119465D01*
X1038199Y119455D01*
X1038044Y119248D01*
X1038038Y119237D01*
X1038031Y119230D01*
X1038021Y119208D01*
X1037985Y119157D01*
X1037860Y118928D01*
X1037848Y118922D01*
X1037821Y118896D01*
X1037789Y118877D01*
X1037674Y118755D01*
X1036111Y116665D01*
X1036093Y116633D01*
X1036069Y116604D01*
X1036037Y116524D01*
X1035997Y116447D01*
X1035995Y116437D01*
X1035813Y116254D01*
X1035793Y116228D01*
X1035741Y116172D01*
X1035586Y115964D01*
X1035572Y115960D01*
X1035542Y115938D01*
X1035508Y115923D01*
X1035377Y115819D01*
X1033531Y113973D01*
X1033510Y113943D01*
X1033482Y113918D01*
X1033438Y113844D01*
X1033388Y113774D01*
X1033385Y113764D01*
X1033178Y113609D01*
X1033155Y113585D01*
X1033096Y113537D01*
X1032912Y113354D01*
X1032898Y113351D01*
X1032865Y113334D01*
X1032829Y113325D01*
X1032685Y113239D01*
X1030595Y111676D01*
X1030570Y111649D01*
X1030538Y111628D01*
X1030485Y111560D01*
X1030425Y111498D01*
X1030420Y111489D01*
X1030193Y111365D01*
X1030168Y111345D01*
X1030102Y111306D01*
X1029894Y111151D01*
X1029880Y111150D01*
X1029845Y111138D01*
X1029808Y111133D01*
X1029653Y111070D01*
X1027362Y109819D01*
X1027333Y109796D01*
X1027299Y109780D01*
X1027236Y109721D01*
X1027168Y109668D01*
X1027163Y109659D01*
X1026920Y109569D01*
X1026892Y109553D01*
X1026821Y109524D01*
X1026593Y109399D01*
X1026579Y109401D01*
X1026543Y109393D01*
X1026505Y109394D01*
X1026343Y109353D01*
X1023898Y108442D01*
X1023865Y108423D01*
X1023830Y108412D01*
X1023759Y108362D01*
X1023684Y108319D01*
X1023677Y108312D01*
X1023425Y108257D01*
X1023394Y108245D01*
X1023320Y108226D01*
X1023077Y108135D01*
X1023063Y108139D01*
X1023026Y108137D01*
X1022989Y108143D01*
X1022823Y108126D01*
X1020273Y107571D01*
X1020238Y107557D01*
X1020201Y107552D01*
X1020124Y107512D01*
X1020044Y107481D01*
X1020036Y107474D01*
X1019778Y107456D01*
X1019746Y107448D01*
X1019670Y107440D01*
X1019417Y107385D01*
X1019404Y107390D01*
X1019366Y107394D01*
X1019331Y107405D01*
X1019163Y107412D01*
X1016621Y107230D01*
X1016559Y107215D01*
X1016494Y107210D01*
X1016442Y107187D01*
X1016055Y107187D01*
X1016035Y107184D01*
X1016000Y107185D01*
X1015624Y107158D01*
X1015598Y107169D01*
X1015513Y107178D01*
X1015481Y107186D01*
X1015463Y107184D01*
X1015432Y107187D01*
X1010218Y107187D01*
X1010155Y107177D01*
X1010090Y107176D01*
X1010036Y107158D01*
X1009650Y107185D01*
G37*
%LPD*%
%LPC*%
G36*
X1010912Y505633D02*
X1010912Y505633D01*
X1010876Y505641D01*
X1010842Y505658D01*
X1010677Y505688D01*
X1007396Y505923D01*
X1007359Y505919D01*
X1007322Y505924D01*
X1007238Y505908D01*
X1007151Y505900D01*
X1007142Y505896D01*
X1006889Y505951D01*
X1006857Y505953D01*
X1006782Y505966D01*
X1006523Y505985D01*
X1006512Y505994D01*
X1006477Y506008D01*
X1006446Y506029D01*
X1006287Y506082D01*
X1005472Y506259D01*
X1003073Y506781D01*
X1003036Y506783D01*
X1003000Y506793D01*
X1002914Y506789D01*
X1002828Y506794D01*
X1002818Y506791D01*
X1002575Y506882D01*
X1002543Y506888D01*
X1002471Y506912D01*
X1002217Y506967D01*
X1002208Y506978D01*
X1002175Y506996D01*
X1002148Y507021D01*
X1001998Y507097D01*
X998916Y508246D01*
X998880Y508254D01*
X998846Y508269D01*
X998760Y508277D01*
X998675Y508294D01*
X998665Y508293D01*
X998438Y508417D01*
X998407Y508427D01*
X998339Y508462D01*
X998095Y508552D01*
X998088Y508564D01*
X998058Y508587D01*
X998034Y508616D01*
X997897Y508712D01*
X995010Y510288D01*
X994975Y510301D01*
X994943Y510320D01*
X994860Y510341D01*
X994778Y510370D01*
X994768Y510370D01*
X994561Y510525D01*
X994532Y510540D01*
X994469Y510583D01*
X994241Y510708D01*
X994235Y510721D01*
X994209Y510747D01*
X994190Y510779D01*
X994067Y510894D01*
X991434Y512865D01*
X991401Y512882D01*
X991373Y512907D01*
X991293Y512939D01*
X991216Y512979D01*
X991206Y512980D01*
X991023Y513163D01*
X990996Y513182D01*
X990941Y513234D01*
X990733Y513390D01*
X990729Y513404D01*
X990707Y513434D01*
X990692Y513468D01*
X990587Y513599D01*
X988262Y515925D01*
X988231Y515947D01*
X988207Y515975D01*
X988132Y516018D01*
X988062Y516068D01*
X988052Y516071D01*
X987897Y516278D01*
X987873Y516301D01*
X987826Y516360D01*
X987642Y516544D01*
X987640Y516558D01*
X987622Y516591D01*
X987613Y516627D01*
X987528Y516772D01*
X985557Y519405D01*
X985530Y519431D01*
X985509Y519462D01*
X985442Y519515D01*
X985379Y519575D01*
X985370Y519580D01*
X985246Y519807D01*
X985226Y519833D01*
X985187Y519898D01*
X985032Y520106D01*
X985031Y520120D01*
X985019Y520155D01*
X985014Y520192D01*
X984994Y520241D01*
X984990Y520260D01*
X984979Y520279D01*
X984951Y520348D01*
X983374Y523234D01*
X983351Y523264D01*
X983336Y523298D01*
X983276Y523360D01*
X983223Y523428D01*
X983215Y523434D01*
X983124Y523676D01*
X983108Y523705D01*
X983079Y523775D01*
X982955Y524003D01*
X982956Y524017D01*
X982949Y524054D01*
X982950Y524091D01*
X982909Y524254D01*
X981759Y527335D01*
X981741Y527368D01*
X981730Y527404D01*
X981680Y527474D01*
X981637Y527549D01*
X981630Y527556D01*
X981575Y527809D01*
X981563Y527839D01*
X981544Y527913D01*
X981453Y528156D01*
X981457Y528170D01*
X981455Y528207D01*
X981461Y528244D01*
X981444Y528411D01*
X980745Y531625D01*
X980731Y531659D01*
X980725Y531696D01*
X980686Y531773D01*
X980654Y531853D01*
X980647Y531861D01*
X980629Y532119D01*
X980621Y532151D01*
X980614Y532227D01*
X980558Y532481D01*
X980564Y532494D01*
X980567Y532531D01*
X980579Y532566D01*
X980585Y532734D01*
X980355Y535954D01*
X980340Y536016D01*
X980335Y536081D01*
X980312Y536133D01*
X980312Y536520D01*
X980309Y536540D01*
X980310Y536575D01*
X980283Y536951D01*
X980294Y536977D01*
X980303Y537062D01*
X980311Y537094D01*
X980309Y537112D01*
X980312Y537143D01*
X980312Y539182D01*
X980302Y539245D01*
X980301Y539310D01*
X980283Y539364D01*
X980310Y539750D01*
X980308Y539770D01*
X980312Y539805D01*
X980312Y540182D01*
X980324Y540206D01*
X980340Y540290D01*
X980350Y540322D01*
X980349Y540341D01*
X980355Y540371D01*
X980537Y542913D01*
X980533Y542950D01*
X980538Y542987D01*
X980522Y543072D01*
X980514Y543158D01*
X980510Y543168D01*
X980565Y543420D01*
X980567Y543453D01*
X980581Y543528D01*
X980599Y543787D01*
X980608Y543798D01*
X980622Y543833D01*
X980643Y543864D01*
X980696Y544023D01*
X981251Y546573D01*
X981253Y546610D01*
X981263Y546646D01*
X981259Y546732D01*
X981264Y546818D01*
X981261Y546828D01*
X981351Y547070D01*
X981357Y547102D01*
X981382Y547175D01*
X981437Y547429D01*
X981447Y547438D01*
X981466Y547471D01*
X981491Y547498D01*
X981567Y547648D01*
X982478Y550093D01*
X982486Y550129D01*
X982501Y550163D01*
X982509Y550249D01*
X982526Y550334D01*
X982525Y550344D01*
X982649Y550571D01*
X982659Y550602D01*
X982694Y550670D01*
X982785Y550914D01*
X982796Y550922D01*
X982819Y550951D01*
X982848Y550975D01*
X982944Y551112D01*
X984195Y553403D01*
X984207Y553438D01*
X984227Y553469D01*
X984247Y553553D01*
X984276Y553635D01*
X984276Y553645D01*
X984431Y553852D01*
X984446Y553881D01*
X984490Y553943D01*
X984615Y554172D01*
X984627Y554178D01*
X984654Y554204D01*
X984686Y554223D01*
X984801Y554345D01*
X986364Y556435D01*
X986382Y556467D01*
X986406Y556496D01*
X986438Y556576D01*
X986478Y556653D01*
X986480Y556663D01*
X986662Y556846D01*
X986682Y556872D01*
X986734Y556928D01*
X986889Y557136D01*
X986903Y557140D01*
X986933Y557162D01*
X986967Y557177D01*
X987098Y557281D01*
X988944Y559127D01*
X988965Y559157D01*
X988993Y559181D01*
X989037Y559256D01*
X989087Y559326D01*
X989090Y559336D01*
X989297Y559491D01*
X989320Y559515D01*
X989379Y559563D01*
X989563Y559746D01*
X989577Y559749D01*
X989610Y559766D01*
X989646Y559775D01*
X989790Y559861D01*
X991880Y561424D01*
X991905Y561451D01*
X991937Y561472D01*
X991990Y561540D01*
X992050Y561602D01*
X992054Y561611D01*
X992282Y561735D01*
X992307Y561755D01*
X992373Y561794D01*
X992581Y561949D01*
X992595Y561950D01*
X992630Y561962D01*
X992667Y561967D01*
X992822Y562030D01*
X995113Y563281D01*
X995142Y563304D01*
X995176Y563320D01*
X995239Y563379D01*
X995307Y563432D01*
X995312Y563441D01*
X995555Y563531D01*
X995583Y563547D01*
X995654Y563576D01*
X995882Y563701D01*
X995896Y563699D01*
X995932Y563707D01*
X995970Y563706D01*
X996132Y563747D01*
X998577Y564658D01*
X998610Y564677D01*
X998645Y564688D01*
X998716Y564738D01*
X998791Y564781D01*
X998798Y564788D01*
X999050Y564843D01*
X999081Y564855D01*
X999155Y564874D01*
X999398Y564965D01*
X999412Y564961D01*
X999449Y564963D01*
X999486Y564957D01*
X999652Y564974D01*
X1002202Y565529D01*
X1002237Y565543D01*
X1002274Y565548D01*
X1002351Y565588D01*
X1002431Y565619D01*
X1002439Y565626D01*
X1002697Y565644D01*
X1002729Y565652D01*
X1002805Y565660D01*
X1003059Y565715D01*
X1003072Y565710D01*
X1003109Y565706D01*
X1003144Y565695D01*
X1003312Y565688D01*
X1005854Y565870D01*
X1005916Y565885D01*
X1005981Y565890D01*
X1006033Y565913D01*
X1006420Y565913D01*
X1006440Y565916D01*
X1006475Y565915D01*
X1006851Y565942D01*
X1006877Y565931D01*
X1006962Y565922D01*
X1006994Y565914D01*
X1007013Y565916D01*
X1007043Y565913D01*
X1009082Y565913D01*
X1009145Y565923D01*
X1009210Y565924D01*
X1009264Y565942D01*
X1009650Y565915D01*
X1009670Y565917D01*
X1009705Y565913D01*
X1010082Y565913D01*
X1010106Y565901D01*
X1010190Y565885D01*
X1010222Y565875D01*
X1010241Y565876D01*
X1010271Y565870D01*
X1013491Y565640D01*
X1013528Y565643D01*
X1013565Y565638D01*
X1013650Y565654D01*
X1013736Y565662D01*
X1013745Y565666D01*
X1013998Y565611D01*
X1014031Y565610D01*
X1014106Y565596D01*
X1014365Y565577D01*
X1014376Y565568D01*
X1014411Y565555D01*
X1014441Y565534D01*
X1014600Y565480D01*
X1017814Y564781D01*
X1017852Y564779D01*
X1017887Y564769D01*
X1017974Y564773D01*
X1018060Y564769D01*
X1018070Y564771D01*
X1018312Y564681D01*
X1018344Y564675D01*
X1018416Y564650D01*
X1018670Y564595D01*
X1018680Y564585D01*
X1018712Y564566D01*
X1018740Y564541D01*
X1018890Y564466D01*
X1021971Y563316D01*
X1022008Y563309D01*
X1022042Y563294D01*
X1022128Y563285D01*
X1022213Y563269D01*
X1022223Y563270D01*
X1022450Y563146D01*
X1022481Y563135D01*
X1022549Y563101D01*
X1022792Y563010D01*
X1022800Y562998D01*
X1022830Y562976D01*
X1022853Y562947D01*
X1022991Y562851D01*
X1025877Y561274D01*
X1025913Y561262D01*
X1025944Y561242D01*
X1026028Y561222D01*
X1026110Y561193D01*
X1026120Y561193D01*
X1026327Y561038D01*
X1026356Y561023D01*
X1026418Y560979D01*
X1026646Y560854D01*
X1026653Y560842D01*
X1026679Y560815D01*
X1026698Y560783D01*
X1026820Y560668D01*
X1029453Y558697D01*
X1029486Y558680D01*
X1029515Y558656D01*
X1029595Y558624D01*
X1029671Y558584D01*
X1029682Y558582D01*
X1029865Y558399D01*
X1029891Y558380D01*
X1029947Y558328D01*
X1030155Y558172D01*
X1030159Y558159D01*
X1030181Y558129D01*
X1030195Y558094D01*
X1030300Y557963D01*
X1032626Y555638D01*
X1032656Y555616D01*
X1032681Y555588D01*
X1032756Y555545D01*
X1032826Y555494D01*
X1032835Y555491D01*
X1032991Y555284D01*
X1033000Y555275D01*
X1033004Y555268D01*
X1033019Y555255D01*
X1033062Y555202D01*
X1033245Y555018D01*
X1033248Y555004D01*
X1033265Y554971D01*
X1033275Y554935D01*
X1033360Y554791D01*
X1035331Y552158D01*
X1035358Y552132D01*
X1035378Y552101D01*
X1035446Y552047D01*
X1035508Y551987D01*
X1035518Y551983D01*
X1035642Y551756D01*
X1035662Y551730D01*
X1035700Y551664D01*
X1035856Y551456D01*
X1035856Y551442D01*
X1035869Y551407D01*
X1035873Y551370D01*
X1035937Y551215D01*
X1037513Y548328D01*
X1037536Y548299D01*
X1037552Y548265D01*
X1037611Y548202D01*
X1037664Y548134D01*
X1037673Y548128D01*
X1037763Y547886D01*
X1037770Y547874D01*
X1037772Y547867D01*
X1037785Y547844D01*
X1037808Y547787D01*
X1037933Y547559D01*
X1037931Y547545D01*
X1037939Y547509D01*
X1037938Y547471D01*
X1037979Y547309D01*
X1039128Y544227D01*
X1039147Y544195D01*
X1039157Y544159D01*
X1039207Y544089D01*
X1039250Y544014D01*
X1039258Y544007D01*
X1039313Y543754D01*
X1039325Y543723D01*
X1039343Y543650D01*
X1039434Y543406D01*
X1039431Y543393D01*
X1039433Y543355D01*
X1039426Y543319D01*
X1039444Y543152D01*
X1040143Y539938D01*
X1040157Y539903D01*
X1040162Y539866D01*
X1040202Y539790D01*
X1040233Y539709D01*
X1040240Y539701D01*
X1040259Y539443D01*
X1040266Y539411D01*
X1040274Y539336D01*
X1040329Y539082D01*
X1040324Y539069D01*
X1040320Y539032D01*
X1040309Y538996D01*
X1040302Y538829D01*
X1040537Y535548D01*
X1040546Y535512D01*
X1040546Y535474D01*
X1040574Y535393D01*
X1040594Y535309D01*
X1040600Y535300D01*
X1040581Y535042D01*
X1040584Y535009D01*
X1040581Y534933D01*
X1040600Y534674D01*
X1040592Y534662D01*
X1040584Y534626D01*
X1040567Y534592D01*
X1040537Y534427D01*
X1040319Y531372D01*
X1040322Y531335D01*
X1040317Y531298D01*
X1040333Y531213D01*
X1040341Y531127D01*
X1040345Y531118D01*
X1040290Y530865D01*
X1040288Y530833D01*
X1040275Y530758D01*
X1040256Y530499D01*
X1040247Y530488D01*
X1040234Y530453D01*
X1040213Y530422D01*
X1040159Y530263D01*
X1039508Y527270D01*
X1039506Y527233D01*
X1039496Y527198D01*
X1039500Y527111D01*
X1039495Y527025D01*
X1039498Y527015D01*
X1039408Y526773D01*
X1039401Y526741D01*
X1039377Y526668D01*
X1039322Y526414D01*
X1039311Y526405D01*
X1039293Y526372D01*
X1039268Y526345D01*
X1039192Y526195D01*
X1038122Y523326D01*
X1038115Y523289D01*
X1038100Y523255D01*
X1038091Y523169D01*
X1038075Y523084D01*
X1038076Y523074D01*
X1037952Y522847D01*
X1037941Y522816D01*
X1037907Y522748D01*
X1037816Y522505D01*
X1037804Y522497D01*
X1037782Y522467D01*
X1037753Y522444D01*
X1037657Y522306D01*
X1036189Y519618D01*
X1036176Y519583D01*
X1036157Y519552D01*
X1036136Y519468D01*
X1036107Y519386D01*
X1036107Y519376D01*
X1035952Y519169D01*
X1035937Y519140D01*
X1035894Y519077D01*
X1035769Y518849D01*
X1035756Y518843D01*
X1035730Y518817D01*
X1035698Y518798D01*
X1035583Y518676D01*
X1033748Y516224D01*
X1033730Y516191D01*
X1033706Y516162D01*
X1033674Y516082D01*
X1033634Y516006D01*
X1033632Y515995D01*
X1033450Y515813D01*
X1033430Y515786D01*
X1033378Y515731D01*
X1033223Y515522D01*
X1033209Y515518D01*
X1033179Y515496D01*
X1033145Y515482D01*
X1033014Y515377D01*
X1030848Y513211D01*
X1030826Y513181D01*
X1030798Y513156D01*
X1030755Y513082D01*
X1030705Y513012D01*
X1030702Y513002D01*
X1030494Y512847D01*
X1030472Y512823D01*
X1030412Y512776D01*
X1030229Y512592D01*
X1030215Y512589D01*
X1030182Y512572D01*
X1030146Y512563D01*
X1030001Y512477D01*
X1027549Y510642D01*
X1027524Y510615D01*
X1027492Y510595D01*
X1027439Y510527D01*
X1027379Y510465D01*
X1027375Y510455D01*
X1027148Y510331D01*
X1027122Y510311D01*
X1027056Y510273D01*
X1026848Y510117D01*
X1026834Y510117D01*
X1026799Y510104D01*
X1026762Y510100D01*
X1026607Y510036D01*
X1023919Y508568D01*
X1023889Y508546D01*
X1023855Y508530D01*
X1023793Y508470D01*
X1023725Y508417D01*
X1023719Y508409D01*
X1023477Y508318D01*
X1023448Y508302D01*
X1023378Y508273D01*
X1023150Y508149D01*
X1023136Y508150D01*
X1023099Y508143D01*
X1023062Y508144D01*
X1022899Y508103D01*
X1020030Y507033D01*
X1019997Y507014D01*
X1019962Y507003D01*
X1019891Y506953D01*
X1019816Y506911D01*
X1019809Y506903D01*
X1019557Y506848D01*
X1019526Y506836D01*
X1019452Y506817D01*
X1019209Y506726D01*
X1019195Y506730D01*
X1019158Y506728D01*
X1019121Y506734D01*
X1018955Y506717D01*
X1015962Y506066D01*
X1015927Y506052D01*
X1015890Y506047D01*
X1015814Y506007D01*
X1015733Y505975D01*
X1015725Y505969D01*
X1015467Y505950D01*
X1015435Y505943D01*
X1015360Y505935D01*
X1015106Y505880D01*
X1015093Y505885D01*
X1015056Y505888D01*
X1015020Y505900D01*
X1014853Y505906D01*
X1011798Y505688D01*
X1011762Y505679D01*
X1011724Y505679D01*
X1011643Y505651D01*
X1011559Y505631D01*
X1011550Y505625D01*
X1011292Y505644D01*
X1011259Y505641D01*
X1011183Y505644D01*
X1010924Y505625D01*
X1010912Y505633D01*
G37*
%LPD*%
%LPC*%
G36*
X164774Y507220D02*
X164774Y507220D01*
X164738Y507229D01*
X164705Y507245D01*
X164540Y507275D01*
X161485Y507494D01*
X161448Y507490D01*
X161411Y507496D01*
X161326Y507479D01*
X161240Y507472D01*
X161230Y507467D01*
X160978Y507522D01*
X160945Y507524D01*
X160870Y507538D01*
X160611Y507556D01*
X160600Y507565D01*
X160565Y507579D01*
X160535Y507600D01*
X160376Y507653D01*
X157383Y508304D01*
X157346Y508306D01*
X157310Y508317D01*
X157224Y508313D01*
X157137Y508317D01*
X157127Y508314D01*
X156885Y508405D01*
X156853Y508411D01*
X156781Y508435D01*
X156527Y508491D01*
X156517Y508501D01*
X156485Y508519D01*
X156457Y508545D01*
X156308Y508620D01*
X153438Y509690D01*
X153402Y509698D01*
X153368Y509713D01*
X153282Y509721D01*
X153197Y509738D01*
X153187Y509737D01*
X152960Y509861D01*
X152929Y509871D01*
X152861Y509906D01*
X152617Y509997D01*
X152610Y510008D01*
X152580Y510031D01*
X152556Y510060D01*
X152419Y510156D01*
X149731Y511624D01*
X149696Y511636D01*
X149664Y511656D01*
X149580Y511677D01*
X149499Y511705D01*
X149488Y511705D01*
X149281Y511860D01*
X149252Y511875D01*
X149190Y511919D01*
X148962Y512044D01*
X148956Y512056D01*
X148930Y512083D01*
X148910Y512115D01*
X148788Y512230D01*
X148784Y512232D01*
X148784Y512233D01*
X146336Y514065D01*
X146303Y514082D01*
X146275Y514106D01*
X146195Y514139D01*
X146118Y514179D01*
X146108Y514180D01*
X145925Y514363D01*
X145899Y514382D01*
X145843Y514434D01*
X145635Y514590D01*
X145631Y514603D01*
X145609Y514634D01*
X145594Y514668D01*
X145489Y514799D01*
X143324Y516964D01*
X143294Y516986D01*
X143269Y517014D01*
X143194Y517058D01*
X143124Y517108D01*
X143114Y517111D01*
X142959Y517318D01*
X142936Y517341D01*
X142888Y517400D01*
X142704Y517584D01*
X142702Y517598D01*
X142685Y517631D01*
X142675Y517667D01*
X142590Y517811D01*
X140755Y520263D01*
X140728Y520289D01*
X140707Y520320D01*
X140639Y520374D01*
X140577Y520434D01*
X140568Y520438D01*
X140444Y520665D01*
X140424Y520691D01*
X140385Y520756D01*
X140230Y520964D01*
X140229Y520979D01*
X140217Y521014D01*
X140212Y521051D01*
X140149Y521206D01*
X138681Y523894D01*
X138658Y523923D01*
X138642Y523957D01*
X138583Y524020D01*
X138530Y524088D01*
X138521Y524094D01*
X138431Y524336D01*
X138415Y524364D01*
X138386Y524435D01*
X138261Y524663D01*
X138263Y524677D01*
X138255Y524713D01*
X138256Y524751D01*
X138215Y524913D01*
X137145Y527783D01*
X137127Y527815D01*
X137116Y527851D01*
X137066Y527921D01*
X137023Y527996D01*
X137015Y528003D01*
X136960Y528256D01*
X136948Y528287D01*
X136930Y528360D01*
X136839Y528604D01*
X136843Y528617D01*
X136840Y528655D01*
X136847Y528691D01*
X136829Y528858D01*
X136178Y531851D01*
X136165Y531885D01*
X136159Y531922D01*
X136120Y531999D01*
X136088Y532079D01*
X136081Y532087D01*
X136063Y532345D01*
X136055Y532377D01*
X136047Y532453D01*
X135992Y532707D01*
X135998Y532720D01*
X136001Y532757D01*
X136012Y532792D01*
X136019Y532960D01*
X135800Y536015D01*
X135792Y536051D01*
X135792Y536088D01*
X135763Y536170D01*
X135743Y536254D01*
X135738Y536263D01*
X135756Y536521D01*
X135753Y536553D01*
X135756Y536629D01*
X135738Y536889D01*
X135745Y536901D01*
X135754Y536937D01*
X135770Y536970D01*
X135800Y537135D01*
X136019Y540190D01*
X136016Y540227D01*
X136021Y540264D01*
X136004Y540349D01*
X135997Y540435D01*
X135992Y540445D01*
X136047Y540697D01*
X136049Y540730D01*
X136063Y540805D01*
X136081Y541064D01*
X136090Y541075D01*
X136104Y541110D01*
X136125Y541140D01*
X136178Y541299D01*
X136829Y544292D01*
X136831Y544329D01*
X136842Y544365D01*
X136838Y544451D01*
X136842Y544538D01*
X136839Y544548D01*
X136930Y544790D01*
X136936Y544822D01*
X136960Y544894D01*
X137016Y545148D01*
X137026Y545158D01*
X137044Y545190D01*
X137070Y545218D01*
X137145Y545367D01*
X138215Y548237D01*
X138223Y548273D01*
X138238Y548307D01*
X138246Y548393D01*
X138263Y548478D01*
X138262Y548488D01*
X138386Y548715D01*
X138396Y548746D01*
X138431Y548814D01*
X138522Y549058D01*
X138533Y549065D01*
X138556Y549095D01*
X138585Y549119D01*
X138681Y549256D01*
X140149Y551944D01*
X140161Y551979D01*
X140181Y552011D01*
X140202Y552095D01*
X140230Y552176D01*
X140230Y552187D01*
X140385Y552394D01*
X140400Y552423D01*
X140444Y552485D01*
X140569Y552713D01*
X140581Y552719D01*
X140608Y552745D01*
X140640Y552765D01*
X140755Y552887D01*
X142590Y555339D01*
X142607Y555372D01*
X142631Y555400D01*
X142664Y555480D01*
X142704Y555557D01*
X142705Y555567D01*
X142888Y555750D01*
X142907Y555776D01*
X142959Y555832D01*
X143115Y556040D01*
X143128Y556044D01*
X143158Y556066D01*
X143193Y556081D01*
X143324Y556186D01*
X145489Y558351D01*
X145511Y558381D01*
X145539Y558406D01*
X145583Y558481D01*
X145633Y558551D01*
X145636Y558561D01*
X145843Y558716D01*
X145866Y558739D01*
X145925Y558787D01*
X146109Y558971D01*
X146123Y558973D01*
X146156Y558990D01*
X146192Y559000D01*
X146336Y559085D01*
X148788Y560920D01*
X148814Y560947D01*
X148845Y560968D01*
X148899Y561036D01*
X148959Y561098D01*
X148963Y561107D01*
X149190Y561231D01*
X149216Y561251D01*
X149281Y561290D01*
X149489Y561445D01*
X149504Y561446D01*
X149539Y561458D01*
X149576Y561463D01*
X149731Y561526D01*
X152419Y562994D01*
X152448Y563017D01*
X152482Y563033D01*
X152545Y563092D01*
X152613Y563145D01*
X152619Y563154D01*
X152861Y563244D01*
X152889Y563260D01*
X152960Y563289D01*
X153188Y563414D01*
X153202Y563412D01*
X153238Y563420D01*
X153276Y563419D01*
X153438Y563460D01*
X156308Y564530D01*
X156340Y564548D01*
X156376Y564559D01*
X156446Y564609D01*
X156521Y564652D01*
X156528Y564660D01*
X156781Y564715D01*
X156812Y564727D01*
X156885Y564745D01*
X157129Y564836D01*
X157142Y564832D01*
X157179Y564834D01*
X157216Y564828D01*
X157383Y564846D01*
X160376Y565497D01*
X160410Y565510D01*
X160447Y565516D01*
X160524Y565555D01*
X160604Y565587D01*
X160612Y565594D01*
X160870Y565612D01*
X160902Y565620D01*
X160978Y565628D01*
X161202Y565676D01*
X161211Y565680D01*
X161221Y565681D01*
X161247Y565692D01*
X161266Y565695D01*
X161312Y565719D01*
X161325Y565725D01*
X161431Y565767D01*
X161438Y565773D01*
X161447Y565777D01*
X161578Y565882D01*
X161609Y565913D01*
X164532Y565913D01*
X164595Y565923D01*
X164660Y565924D01*
X164714Y565942D01*
X165046Y565919D01*
X165078Y565922D01*
X165154Y565919D01*
X165461Y565940D01*
X165499Y565929D01*
X165556Y565901D01*
X165640Y565885D01*
X165672Y565875D01*
X165691Y565876D01*
X165721Y565870D01*
X168715Y565656D01*
X168732Y565658D01*
X168755Y565655D01*
X168771Y565655D01*
X168777Y565656D01*
X168789Y565654D01*
X168874Y565671D01*
X168960Y565678D01*
X168970Y565683D01*
X169010Y565674D01*
X169222Y565628D01*
X169255Y565626D01*
X169330Y565612D01*
X169589Y565594D01*
X169600Y565585D01*
X169635Y565571D01*
X169665Y565550D01*
X169824Y565497D01*
X172510Y564912D01*
X172817Y564846D01*
X172854Y564844D01*
X172890Y564833D01*
X172976Y564837D01*
X173063Y564833D01*
X173073Y564836D01*
X173315Y564745D01*
X173347Y564739D01*
X173419Y564715D01*
X173673Y564659D01*
X173683Y564649D01*
X173715Y564631D01*
X173743Y564605D01*
X173892Y564530D01*
X176762Y563460D01*
X176798Y563452D01*
X176832Y563437D01*
X176918Y563429D01*
X177003Y563412D01*
X177013Y563413D01*
X177240Y563289D01*
X177271Y563279D01*
X177339Y563244D01*
X177583Y563153D01*
X177590Y563142D01*
X177620Y563119D01*
X177644Y563090D01*
X177781Y562994D01*
X180469Y561526D01*
X180504Y561514D01*
X180536Y561494D01*
X180620Y561473D01*
X180701Y561445D01*
X180712Y561445D01*
X180919Y561290D01*
X180948Y561275D01*
X181010Y561231D01*
X181238Y561106D01*
X181244Y561094D01*
X181270Y561067D01*
X181290Y561035D01*
X181412Y560920D01*
X181416Y560918D01*
X181416Y560917D01*
X183864Y559085D01*
X183897Y559068D01*
X183925Y559044D01*
X184005Y559011D01*
X184082Y558971D01*
X184092Y558970D01*
X184275Y558787D01*
X184301Y558768D01*
X184357Y558716D01*
X184565Y558560D01*
X184569Y558547D01*
X184591Y558517D01*
X184606Y558482D01*
X184711Y558351D01*
X186876Y556186D01*
X186906Y556164D01*
X186931Y556136D01*
X187006Y556092D01*
X187076Y556042D01*
X187086Y556039D01*
X187241Y555832D01*
X187264Y555809D01*
X187312Y555750D01*
X187496Y555566D01*
X187498Y555552D01*
X187515Y555519D01*
X187525Y555483D01*
X187610Y555339D01*
X189445Y552887D01*
X189472Y552861D01*
X189493Y552830D01*
X189561Y552776D01*
X189623Y552716D01*
X189632Y552712D01*
X189756Y552485D01*
X189776Y552459D01*
X189815Y552394D01*
X189970Y552186D01*
X189971Y552171D01*
X189983Y552136D01*
X189988Y552099D01*
X190051Y551944D01*
X191519Y549256D01*
X191542Y549227D01*
X191558Y549193D01*
X191617Y549130D01*
X191670Y549062D01*
X191679Y549056D01*
X191769Y548814D01*
X191785Y548786D01*
X191814Y548715D01*
X191939Y548487D01*
X191937Y548473D01*
X191945Y548437D01*
X191944Y548399D01*
X191985Y548237D01*
X193055Y545367D01*
X193073Y545335D01*
X193084Y545299D01*
X193134Y545229D01*
X193177Y545154D01*
X193185Y545147D01*
X193240Y544894D01*
X193252Y544864D01*
X193270Y544790D01*
X193361Y544546D01*
X193357Y544533D01*
X193360Y544496D01*
X193353Y544459D01*
X193371Y544292D01*
X194022Y541299D01*
X194035Y541265D01*
X194041Y541228D01*
X194080Y541151D01*
X194112Y541071D01*
X194119Y541063D01*
X194137Y540805D01*
X194145Y540773D01*
X194153Y540697D01*
X194208Y540443D01*
X194202Y540430D01*
X194199Y540393D01*
X194188Y540358D01*
X194181Y540190D01*
X194400Y537135D01*
X194408Y537099D01*
X194408Y537062D01*
X194437Y536980D01*
X194457Y536896D01*
X194462Y536887D01*
X194444Y536629D01*
X194447Y536597D01*
X194444Y536521D01*
X194462Y536261D01*
X194455Y536249D01*
X194446Y536213D01*
X194430Y536180D01*
X194400Y536015D01*
X194181Y532960D01*
X194185Y532923D01*
X194179Y532886D01*
X194196Y532801D01*
X194203Y532715D01*
X194208Y532705D01*
X194153Y532453D01*
X194151Y532420D01*
X194137Y532345D01*
X194119Y532086D01*
X194110Y532075D01*
X194096Y532040D01*
X194075Y532010D01*
X194022Y531851D01*
X193371Y528858D01*
X193369Y528821D01*
X193358Y528785D01*
X193362Y528699D01*
X193358Y528612D01*
X193361Y528602D01*
X193270Y528360D01*
X193264Y528328D01*
X193240Y528256D01*
X193184Y528002D01*
X193174Y527992D01*
X193156Y527960D01*
X193130Y527932D01*
X193055Y527783D01*
X191985Y524913D01*
X191977Y524877D01*
X191962Y524843D01*
X191954Y524757D01*
X191937Y524672D01*
X191938Y524662D01*
X191814Y524435D01*
X191804Y524404D01*
X191769Y524336D01*
X191678Y524092D01*
X191667Y524085D01*
X191644Y524055D01*
X191615Y524031D01*
X191519Y523894D01*
X190051Y521206D01*
X190039Y521171D01*
X190019Y521139D01*
X189998Y521055D01*
X189970Y520974D01*
X189970Y520963D01*
X189815Y520756D01*
X189800Y520727D01*
X189756Y520665D01*
X189631Y520437D01*
X189619Y520431D01*
X189592Y520405D01*
X189560Y520385D01*
X189445Y520263D01*
X187610Y517811D01*
X187593Y517778D01*
X187569Y517750D01*
X187536Y517670D01*
X187496Y517593D01*
X187495Y517583D01*
X187312Y517400D01*
X187293Y517374D01*
X187241Y517318D01*
X187085Y517110D01*
X187072Y517106D01*
X187041Y517084D01*
X187007Y517069D01*
X186876Y516964D01*
X184711Y514799D01*
X184689Y514769D01*
X184661Y514744D01*
X184618Y514669D01*
X184567Y514599D01*
X184564Y514589D01*
X184357Y514434D01*
X184334Y514411D01*
X184275Y514363D01*
X184091Y514179D01*
X184077Y514177D01*
X184044Y514160D01*
X184008Y514150D01*
X183864Y514065D01*
X181412Y512230D01*
X181386Y512203D01*
X181355Y512182D01*
X181301Y512114D01*
X181241Y512052D01*
X181237Y512043D01*
X181010Y511919D01*
X180984Y511899D01*
X180919Y511860D01*
X180711Y511705D01*
X180696Y511704D01*
X180661Y511692D01*
X180624Y511687D01*
X180469Y511624D01*
X177781Y510156D01*
X177752Y510133D01*
X177718Y510117D01*
X177655Y510058D01*
X177587Y510005D01*
X177581Y509996D01*
X177339Y509906D01*
X177311Y509890D01*
X177240Y509861D01*
X177012Y509736D01*
X176998Y509738D01*
X176962Y509730D01*
X176924Y509731D01*
X176762Y509690D01*
X173892Y508620D01*
X173860Y508602D01*
X173824Y508591D01*
X173754Y508541D01*
X173679Y508498D01*
X173672Y508490D01*
X173419Y508435D01*
X173388Y508423D01*
X173315Y508405D01*
X173071Y508314D01*
X173058Y508318D01*
X173020Y508315D01*
X172984Y508322D01*
X172817Y508304D01*
X169824Y507653D01*
X169790Y507640D01*
X169753Y507634D01*
X169676Y507595D01*
X169596Y507563D01*
X169588Y507556D01*
X169330Y507538D01*
X169298Y507530D01*
X169222Y507522D01*
X168968Y507467D01*
X168955Y507473D01*
X168918Y507476D01*
X168883Y507487D01*
X168715Y507494D01*
X165660Y507275D01*
X165624Y507267D01*
X165587Y507267D01*
X165505Y507238D01*
X165421Y507218D01*
X165412Y507213D01*
X165154Y507231D01*
X165122Y507228D01*
X165046Y507231D01*
X164786Y507213D01*
X164774Y507220D01*
G37*
%LPD*%
%LPC*%
G36*
X164774Y107170D02*
X164774Y107170D01*
X164738Y107179D01*
X164705Y107195D01*
X164540Y107225D01*
X161485Y107444D01*
X161448Y107440D01*
X161411Y107446D01*
X161326Y107429D01*
X161240Y107422D01*
X161230Y107417D01*
X160978Y107472D01*
X160945Y107474D01*
X160870Y107488D01*
X160611Y107506D01*
X160600Y107515D01*
X160565Y107529D01*
X160535Y107550D01*
X160376Y107603D01*
X157383Y108254D01*
X157346Y108256D01*
X157310Y108267D01*
X157224Y108263D01*
X157137Y108267D01*
X157127Y108264D01*
X156885Y108355D01*
X156853Y108361D01*
X156781Y108385D01*
X156527Y108441D01*
X156517Y108451D01*
X156485Y108469D01*
X156457Y108495D01*
X156308Y108570D01*
X153438Y109640D01*
X153402Y109648D01*
X153368Y109663D01*
X153282Y109671D01*
X153197Y109688D01*
X153187Y109687D01*
X152960Y109811D01*
X152929Y109821D01*
X152861Y109856D01*
X152617Y109947D01*
X152610Y109958D01*
X152580Y109981D01*
X152556Y110010D01*
X152419Y110106D01*
X149731Y111574D01*
X149696Y111586D01*
X149664Y111606D01*
X149580Y111627D01*
X149499Y111655D01*
X149488Y111655D01*
X149281Y111810D01*
X149253Y111825D01*
X149236Y111840D01*
X149226Y111844D01*
X149190Y111869D01*
X148962Y111994D01*
X148956Y112006D01*
X148930Y112033D01*
X148910Y112065D01*
X148788Y112180D01*
X148784Y112182D01*
X148784Y112183D01*
X146336Y114015D01*
X146303Y114032D01*
X146275Y114056D01*
X146195Y114089D01*
X146118Y114129D01*
X146108Y114130D01*
X145925Y114313D01*
X145899Y114332D01*
X145843Y114384D01*
X145635Y114540D01*
X145631Y114553D01*
X145609Y114584D01*
X145594Y114618D01*
X145512Y114720D01*
X145509Y114725D01*
X145506Y114727D01*
X145489Y114749D01*
X143324Y116914D01*
X143294Y116936D01*
X143269Y116964D01*
X143194Y117007D01*
X143124Y117058D01*
X143114Y117061D01*
X142959Y117268D01*
X142936Y117291D01*
X142888Y117350D01*
X142704Y117534D01*
X142702Y117548D01*
X142685Y117581D01*
X142675Y117617D01*
X142590Y117761D01*
X140755Y120213D01*
X140728Y120239D01*
X140707Y120270D01*
X140639Y120324D01*
X140577Y120384D01*
X140568Y120388D01*
X140444Y120615D01*
X140424Y120641D01*
X140385Y120706D01*
X140230Y120914D01*
X140229Y120929D01*
X140217Y120964D01*
X140212Y121001D01*
X140149Y121156D01*
X138681Y123844D01*
X138658Y123873D01*
X138642Y123907D01*
X138583Y123970D01*
X138530Y124038D01*
X138521Y124044D01*
X138431Y124286D01*
X138415Y124314D01*
X138386Y124385D01*
X138261Y124613D01*
X138263Y124627D01*
X138255Y124663D01*
X138256Y124701D01*
X138215Y124863D01*
X137145Y127733D01*
X137127Y127765D01*
X137116Y127801D01*
X137066Y127871D01*
X137023Y127946D01*
X137015Y127953D01*
X136960Y128206D01*
X136948Y128237D01*
X136930Y128310D01*
X136839Y128554D01*
X136843Y128567D01*
X136840Y128605D01*
X136847Y128641D01*
X136829Y128808D01*
X136178Y131801D01*
X136165Y131835D01*
X136159Y131872D01*
X136120Y131949D01*
X136088Y132029D01*
X136081Y132037D01*
X136063Y132295D01*
X136055Y132327D01*
X136047Y132403D01*
X135992Y132657D01*
X135998Y132670D01*
X136001Y132707D01*
X136012Y132742D01*
X136019Y132910D01*
X135800Y135965D01*
X135792Y136001D01*
X135792Y136038D01*
X135763Y136120D01*
X135743Y136204D01*
X135738Y136213D01*
X135756Y136471D01*
X135753Y136503D01*
X135756Y136579D01*
X135738Y136839D01*
X135745Y136851D01*
X135754Y136887D01*
X135770Y136920D01*
X135800Y137085D01*
X136019Y140140D01*
X136015Y140177D01*
X136021Y140214D01*
X136004Y140299D01*
X135997Y140385D01*
X135992Y140395D01*
X136047Y140647D01*
X136049Y140680D01*
X136063Y140755D01*
X136081Y141014D01*
X136090Y141025D01*
X136104Y141060D01*
X136125Y141090D01*
X136178Y141249D01*
X136829Y144242D01*
X136831Y144279D01*
X136842Y144315D01*
X136838Y144401D01*
X136842Y144488D01*
X136839Y144498D01*
X136930Y144740D01*
X136936Y144772D01*
X136960Y144844D01*
X137016Y145098D01*
X137026Y145108D01*
X137044Y145140D01*
X137070Y145168D01*
X137145Y145317D01*
X138215Y148187D01*
X138223Y148223D01*
X138238Y148257D01*
X138246Y148343D01*
X138263Y148428D01*
X138262Y148438D01*
X138386Y148665D01*
X138396Y148696D01*
X138431Y148764D01*
X138522Y149008D01*
X138533Y149015D01*
X138556Y149045D01*
X138585Y149069D01*
X138681Y149206D01*
X140149Y151894D01*
X140161Y151929D01*
X140181Y151961D01*
X140202Y152045D01*
X140230Y152126D01*
X140230Y152137D01*
X140385Y152344D01*
X140400Y152373D01*
X140444Y152435D01*
X140569Y152663D01*
X140581Y152669D01*
X140608Y152695D01*
X140640Y152715D01*
X140755Y152837D01*
X142590Y155289D01*
X142607Y155322D01*
X142631Y155350D01*
X142664Y155430D01*
X142704Y155507D01*
X142705Y155517D01*
X142888Y155700D01*
X142907Y155726D01*
X142959Y155782D01*
X143115Y155990D01*
X143128Y155994D01*
X143159Y156016D01*
X143193Y156031D01*
X143324Y156136D01*
X145489Y158301D01*
X145511Y158331D01*
X145539Y158356D01*
X145583Y158431D01*
X145633Y158501D01*
X145636Y158511D01*
X145843Y158666D01*
X145866Y158689D01*
X145925Y158737D01*
X146109Y158921D01*
X146123Y158923D01*
X146156Y158940D01*
X146192Y158950D01*
X146336Y159035D01*
X148788Y160870D01*
X148814Y160897D01*
X148845Y160918D01*
X148899Y160986D01*
X148959Y161048D01*
X148963Y161057D01*
X149190Y161181D01*
X149216Y161201D01*
X149281Y161240D01*
X149489Y161395D01*
X149504Y161396D01*
X149539Y161408D01*
X149576Y161413D01*
X149731Y161476D01*
X152419Y162944D01*
X152448Y162967D01*
X152482Y162983D01*
X152545Y163042D01*
X152613Y163095D01*
X152619Y163104D01*
X152861Y163194D01*
X152889Y163210D01*
X152960Y163239D01*
X153188Y163364D01*
X153202Y163362D01*
X153238Y163370D01*
X153276Y163369D01*
X153438Y163410D01*
X156308Y164480D01*
X156340Y164498D01*
X156376Y164509D01*
X156446Y164559D01*
X156521Y164602D01*
X156528Y164610D01*
X156781Y164665D01*
X156812Y164677D01*
X156885Y164695D01*
X157129Y164786D01*
X157142Y164782D01*
X157180Y164785D01*
X157216Y164778D01*
X157383Y164796D01*
X160376Y165447D01*
X160410Y165460D01*
X160447Y165466D01*
X160524Y165505D01*
X160604Y165537D01*
X160612Y165544D01*
X160870Y165562D01*
X160902Y165570D01*
X160978Y165578D01*
X161232Y165633D01*
X161245Y165627D01*
X161282Y165624D01*
X161317Y165613D01*
X161485Y165606D01*
X164540Y165825D01*
X164576Y165833D01*
X164613Y165833D01*
X164695Y165862D01*
X164779Y165882D01*
X164788Y165887D01*
X165046Y165869D01*
X165078Y165872D01*
X165154Y165869D01*
X165414Y165887D01*
X165426Y165880D01*
X165462Y165871D01*
X165495Y165855D01*
X165660Y165825D01*
X168715Y165606D01*
X168752Y165609D01*
X168789Y165604D01*
X168874Y165621D01*
X168960Y165628D01*
X168970Y165633D01*
X169222Y165578D01*
X169255Y165576D01*
X169330Y165562D01*
X169589Y165544D01*
X169600Y165535D01*
X169635Y165521D01*
X169665Y165500D01*
X169824Y165447D01*
X170700Y165256D01*
X172817Y164796D01*
X172854Y164794D01*
X172890Y164783D01*
X172976Y164787D01*
X173063Y164783D01*
X173073Y164786D01*
X173315Y164695D01*
X173347Y164689D01*
X173419Y164665D01*
X173673Y164609D01*
X173683Y164599D01*
X173715Y164581D01*
X173743Y164555D01*
X173892Y164480D01*
X176762Y163410D01*
X176798Y163402D01*
X176832Y163387D01*
X176918Y163379D01*
X177003Y163362D01*
X177013Y163363D01*
X177240Y163239D01*
X177271Y163229D01*
X177339Y163194D01*
X177583Y163103D01*
X177590Y163092D01*
X177620Y163069D01*
X177644Y163040D01*
X177781Y162944D01*
X180469Y161476D01*
X180504Y161464D01*
X180536Y161444D01*
X180620Y161423D01*
X180701Y161395D01*
X180712Y161395D01*
X180919Y161240D01*
X180948Y161225D01*
X181010Y161181D01*
X181238Y161056D01*
X181244Y161044D01*
X181270Y161017D01*
X181290Y160985D01*
X181412Y160870D01*
X181416Y160868D01*
X181416Y160867D01*
X183864Y159035D01*
X183897Y159018D01*
X183925Y158994D01*
X184005Y158961D01*
X184082Y158921D01*
X184092Y158920D01*
X184275Y158737D01*
X184301Y158718D01*
X184357Y158666D01*
X184565Y158510D01*
X184569Y158497D01*
X184591Y158467D01*
X184606Y158432D01*
X184711Y158301D01*
X186876Y156136D01*
X186906Y156114D01*
X186931Y156086D01*
X187006Y156042D01*
X187076Y155992D01*
X187086Y155989D01*
X187241Y155782D01*
X187264Y155759D01*
X187312Y155700D01*
X187496Y155516D01*
X187498Y155502D01*
X187515Y155469D01*
X187525Y155433D01*
X187610Y155289D01*
X189445Y152837D01*
X189472Y152811D01*
X189493Y152780D01*
X189561Y152726D01*
X189623Y152666D01*
X189632Y152662D01*
X189756Y152435D01*
X189776Y152409D01*
X189815Y152344D01*
X189970Y152136D01*
X189971Y152121D01*
X189983Y152086D01*
X189988Y152049D01*
X190051Y151894D01*
X191519Y149206D01*
X191542Y149177D01*
X191558Y149143D01*
X191617Y149080D01*
X191670Y149012D01*
X191679Y149006D01*
X191769Y148764D01*
X191785Y148736D01*
X191814Y148665D01*
X191939Y148437D01*
X191937Y148423D01*
X191945Y148387D01*
X191944Y148349D01*
X191985Y148187D01*
X193055Y145317D01*
X193073Y145285D01*
X193084Y145249D01*
X193134Y145179D01*
X193177Y145104D01*
X193185Y145097D01*
X193240Y144844D01*
X193252Y144813D01*
X193270Y144740D01*
X193361Y144496D01*
X193357Y144483D01*
X193360Y144445D01*
X193353Y144409D01*
X193371Y144242D01*
X194022Y141249D01*
X194035Y141215D01*
X194041Y141178D01*
X194080Y141101D01*
X194112Y141021D01*
X194119Y141013D01*
X194137Y140755D01*
X194145Y140723D01*
X194153Y140647D01*
X194208Y140393D01*
X194202Y140380D01*
X194199Y140343D01*
X194188Y140308D01*
X194181Y140140D01*
X194400Y137085D01*
X194408Y137049D01*
X194408Y137012D01*
X194437Y136930D01*
X194457Y136846D01*
X194462Y136837D01*
X194444Y136579D01*
X194447Y136547D01*
X194444Y136471D01*
X194462Y136211D01*
X194455Y136199D01*
X194446Y136163D01*
X194430Y136130D01*
X194400Y135965D01*
X194181Y132910D01*
X194184Y132873D01*
X194179Y132836D01*
X194196Y132751D01*
X194203Y132665D01*
X194208Y132655D01*
X194153Y132403D01*
X194151Y132370D01*
X194137Y132295D01*
X194119Y132036D01*
X194110Y132025D01*
X194096Y131990D01*
X194075Y131960D01*
X194022Y131801D01*
X193371Y128808D01*
X193369Y128771D01*
X193358Y128735D01*
X193362Y128649D01*
X193358Y128562D01*
X193361Y128552D01*
X193270Y128310D01*
X193264Y128278D01*
X193240Y128206D01*
X193184Y127952D01*
X193174Y127942D01*
X193156Y127910D01*
X193130Y127882D01*
X193055Y127733D01*
X191985Y124863D01*
X191977Y124827D01*
X191962Y124793D01*
X191954Y124707D01*
X191937Y124622D01*
X191938Y124612D01*
X191814Y124385D01*
X191804Y124354D01*
X191769Y124286D01*
X191678Y124042D01*
X191667Y124035D01*
X191644Y124005D01*
X191615Y123981D01*
X191519Y123844D01*
X190051Y121156D01*
X190039Y121121D01*
X190019Y121089D01*
X189998Y121005D01*
X189970Y120924D01*
X189970Y120913D01*
X189815Y120706D01*
X189800Y120677D01*
X189756Y120615D01*
X189631Y120387D01*
X189619Y120381D01*
X189592Y120355D01*
X189560Y120335D01*
X189445Y120213D01*
X187610Y117761D01*
X187593Y117728D01*
X187569Y117700D01*
X187536Y117620D01*
X187496Y117543D01*
X187495Y117533D01*
X187312Y117350D01*
X187293Y117324D01*
X187241Y117268D01*
X187085Y117060D01*
X187072Y117056D01*
X187042Y117034D01*
X187007Y117019D01*
X186876Y116914D01*
X184711Y114749D01*
X184689Y114719D01*
X184661Y114694D01*
X184617Y114619D01*
X184567Y114549D01*
X184564Y114539D01*
X184357Y114384D01*
X184334Y114361D01*
X184275Y114313D01*
X184091Y114129D01*
X184077Y114127D01*
X184044Y114110D01*
X184008Y114100D01*
X183864Y114015D01*
X181412Y112180D01*
X181386Y112153D01*
X181355Y112132D01*
X181301Y112064D01*
X181241Y112002D01*
X181237Y111993D01*
X181010Y111869D01*
X180984Y111849D01*
X180919Y111810D01*
X180711Y111655D01*
X180696Y111654D01*
X180661Y111642D01*
X180624Y111637D01*
X180469Y111574D01*
X180465Y111571D01*
X177781Y110106D01*
X177752Y110083D01*
X177718Y110067D01*
X177655Y110008D01*
X177587Y109955D01*
X177582Y109946D01*
X177339Y109856D01*
X177311Y109839D01*
X177240Y109811D01*
X177012Y109686D01*
X176998Y109688D01*
X176962Y109680D01*
X176924Y109681D01*
X176762Y109640D01*
X173892Y108570D01*
X173860Y108552D01*
X173824Y108541D01*
X173754Y108491D01*
X173679Y108448D01*
X173672Y108440D01*
X173419Y108385D01*
X173388Y108373D01*
X173315Y108355D01*
X173071Y108264D01*
X173058Y108268D01*
X173020Y108265D01*
X172984Y108272D01*
X172817Y108254D01*
X169824Y107603D01*
X169790Y107590D01*
X169753Y107584D01*
X169676Y107545D01*
X169596Y107513D01*
X169588Y107506D01*
X169330Y107488D01*
X169298Y107480D01*
X169222Y107472D01*
X168968Y107417D01*
X168955Y107423D01*
X168918Y107426D01*
X168883Y107437D01*
X168715Y107444D01*
X165660Y107225D01*
X165624Y107217D01*
X165587Y107217D01*
X165505Y107188D01*
X165421Y107168D01*
X165412Y107163D01*
X165154Y107181D01*
X165122Y107178D01*
X165046Y107181D01*
X164786Y107163D01*
X164774Y107170D01*
G37*
%LPD*%
%LPC*%
G36*
X316343Y324385D02*
X316343Y324385D01*
X314206Y325271D01*
X312571Y326906D01*
X311685Y329043D01*
X311685Y331357D01*
X312571Y333494D01*
X314206Y335129D01*
X316343Y336015D01*
X318657Y336015D01*
X320794Y335129D01*
X320928Y334996D01*
X321002Y334943D01*
X321071Y334883D01*
X321101Y334871D01*
X321127Y334852D01*
X321214Y334825D01*
X321299Y334791D01*
X321340Y334787D01*
X321362Y334780D01*
X321395Y334781D01*
X321466Y334773D01*
X592934Y334773D01*
X593024Y334787D01*
X593115Y334795D01*
X593145Y334807D01*
X593177Y334812D01*
X593258Y334855D01*
X593341Y334891D01*
X593374Y334917D01*
X593394Y334928D01*
X593416Y334951D01*
X593472Y334996D01*
X593606Y335129D01*
X595743Y336015D01*
X598057Y336015D01*
X600194Y335129D01*
X601829Y333494D01*
X602715Y331357D01*
X602715Y329043D01*
X601829Y326906D01*
X600194Y325271D01*
X598057Y324385D01*
X595743Y324385D01*
X593606Y325271D01*
X593472Y325404D01*
X593398Y325457D01*
X593329Y325517D01*
X593299Y325529D01*
X593273Y325548D01*
X593186Y325575D01*
X593101Y325609D01*
X593060Y325613D01*
X593038Y325620D01*
X593005Y325619D01*
X592934Y325627D01*
X321466Y325627D01*
X321376Y325613D01*
X321285Y325605D01*
X321255Y325593D01*
X321223Y325588D01*
X321142Y325545D01*
X321059Y325509D01*
X321026Y325483D01*
X321006Y325472D01*
X320984Y325449D01*
X320928Y325404D01*
X320794Y325271D01*
X318657Y324385D01*
X316343Y324385D01*
G37*
%LPD*%
%LPC*%
G36*
X462393Y95785D02*
X462393Y95785D01*
X460256Y96671D01*
X459614Y97312D01*
X459540Y97365D01*
X459471Y97425D01*
X459441Y97437D01*
X459415Y97456D01*
X459328Y97483D01*
X459243Y97517D01*
X459202Y97521D01*
X459180Y97528D01*
X459147Y97527D01*
X459076Y97535D01*
X350741Y97535D01*
X326135Y122141D01*
X326135Y173326D01*
X326121Y173416D01*
X326113Y173507D01*
X326101Y173537D01*
X326096Y173569D01*
X326053Y173650D01*
X326017Y173733D01*
X325991Y173766D01*
X325980Y173786D01*
X325957Y173808D01*
X325912Y173864D01*
X325271Y174506D01*
X324385Y176643D01*
X324385Y178957D01*
X325271Y181094D01*
X326906Y182729D01*
X329043Y183615D01*
X331357Y183615D01*
X333494Y182729D01*
X335129Y181094D01*
X336015Y178957D01*
X336015Y176643D01*
X335129Y174506D01*
X334488Y173864D01*
X334435Y173790D01*
X334375Y173721D01*
X334363Y173691D01*
X334344Y173665D01*
X334317Y173578D01*
X334283Y173493D01*
X334279Y173452D01*
X334272Y173430D01*
X334273Y173397D01*
X334265Y173326D01*
X334265Y125824D01*
X334279Y125734D01*
X334287Y125643D01*
X334299Y125613D01*
X334304Y125581D01*
X334347Y125501D01*
X334383Y125417D01*
X334409Y125385D01*
X334420Y125364D01*
X334443Y125342D01*
X334488Y125286D01*
X353886Y105888D01*
X353960Y105835D01*
X354029Y105775D01*
X354059Y105763D01*
X354085Y105744D01*
X354172Y105717D01*
X354257Y105683D01*
X354298Y105679D01*
X354321Y105672D01*
X354353Y105673D01*
X354424Y105665D01*
X459076Y105665D01*
X459166Y105679D01*
X459257Y105687D01*
X459287Y105699D01*
X459319Y105704D01*
X459400Y105747D01*
X459483Y105783D01*
X459516Y105809D01*
X459536Y105820D01*
X459558Y105843D01*
X459614Y105888D01*
X460256Y106529D01*
X462393Y107415D01*
X464707Y107415D01*
X466844Y106529D01*
X468479Y104894D01*
X469365Y102757D01*
X469365Y100443D01*
X468479Y98306D01*
X466844Y96671D01*
X464707Y95785D01*
X462393Y95785D01*
G37*
%LPD*%
%LPC*%
G36*
X576693Y225960D02*
X576693Y225960D01*
X574556Y226846D01*
X572921Y228481D01*
X572035Y230618D01*
X572035Y232932D01*
X572921Y235069D01*
X574556Y236704D01*
X576693Y237590D01*
X579007Y237590D01*
X581144Y236704D01*
X581278Y236571D01*
X581352Y236518D01*
X581421Y236458D01*
X581451Y236446D01*
X581477Y236427D01*
X581564Y236400D01*
X581649Y236366D01*
X581690Y236362D01*
X581712Y236355D01*
X581745Y236356D01*
X581816Y236348D01*
X658191Y236348D01*
X658281Y236362D01*
X658372Y236370D01*
X658401Y236382D01*
X658433Y236387D01*
X658514Y236430D01*
X658598Y236466D01*
X658630Y236492D01*
X658651Y236503D01*
X658673Y236526D01*
X658729Y236571D01*
X669574Y247416D01*
X669627Y247490D01*
X669687Y247560D01*
X669699Y247590D01*
X669718Y247616D01*
X669745Y247703D01*
X669779Y247788D01*
X669783Y247829D01*
X669790Y247851D01*
X669789Y247883D01*
X669797Y247954D01*
X669797Y260365D01*
X671267Y263913D01*
X673982Y266628D01*
X677530Y268098D01*
X681370Y268098D01*
X684918Y266628D01*
X687633Y263913D01*
X689103Y260365D01*
X689103Y241285D01*
X687633Y237737D01*
X684918Y235022D01*
X681370Y233552D01*
X677530Y233552D01*
X673982Y235022D01*
X672586Y236418D01*
X672570Y236429D01*
X672558Y236445D01*
X672470Y236501D01*
X672386Y236561D01*
X672367Y236567D01*
X672351Y236578D01*
X672250Y236603D01*
X672151Y236634D01*
X672131Y236633D01*
X672112Y236638D01*
X672009Y236630D01*
X671906Y236627D01*
X671887Y236620D01*
X671867Y236619D01*
X671772Y236579D01*
X671674Y236543D01*
X671659Y236530D01*
X671641Y236523D01*
X671510Y236418D01*
X662294Y227202D01*
X581816Y227202D01*
X581726Y227188D01*
X581635Y227180D01*
X581605Y227168D01*
X581573Y227163D01*
X581492Y227120D01*
X581409Y227084D01*
X581376Y227058D01*
X581356Y227047D01*
X581334Y227024D01*
X581278Y226979D01*
X581144Y226846D01*
X579007Y225960D01*
X576693Y225960D01*
G37*
%LPD*%
%LPC*%
G36*
X361344Y392556D02*
X361344Y392556D01*
X359207Y393442D01*
X357572Y395077D01*
X356686Y397214D01*
X356686Y399528D01*
X357572Y401665D01*
X358424Y402518D01*
X358477Y402592D01*
X358537Y402661D01*
X358549Y402691D01*
X358568Y402717D01*
X358595Y402804D01*
X358629Y402889D01*
X358633Y402930D01*
X358640Y402952D01*
X358639Y402985D01*
X358647Y403056D01*
X358647Y493620D01*
X358633Y493710D01*
X358625Y493801D01*
X358613Y493831D01*
X358608Y493863D01*
X358565Y493944D01*
X358529Y494027D01*
X358503Y494060D01*
X358492Y494080D01*
X358469Y494102D01*
X358424Y494158D01*
X357783Y494800D01*
X356897Y496937D01*
X356897Y499251D01*
X357783Y501388D01*
X359418Y503023D01*
X361555Y503909D01*
X363869Y503909D01*
X366006Y503023D01*
X367641Y501388D01*
X368527Y499251D01*
X368527Y496937D01*
X367641Y494800D01*
X367000Y494158D01*
X366947Y494084D01*
X366887Y494015D01*
X366875Y493985D01*
X366856Y493959D01*
X366829Y493872D01*
X366795Y493787D01*
X366791Y493746D01*
X366784Y493724D01*
X366785Y493691D01*
X366777Y493620D01*
X366777Y402634D01*
X366791Y402544D01*
X366799Y402453D01*
X366811Y402423D01*
X366816Y402391D01*
X366859Y402310D01*
X366895Y402227D01*
X366921Y402194D01*
X366932Y402174D01*
X366955Y402152D01*
X367000Y402096D01*
X367430Y401665D01*
X368316Y399528D01*
X368316Y397214D01*
X367430Y395077D01*
X365795Y393442D01*
X363658Y392556D01*
X361344Y392556D01*
G37*
%LPD*%
%LPC*%
G36*
X503537Y520572D02*
X503537Y520572D01*
X501156Y521558D01*
X499952Y522762D01*
X499878Y522815D01*
X499808Y522875D01*
X499778Y522887D01*
X499752Y522906D01*
X499665Y522933D01*
X499580Y522967D01*
X499539Y522971D01*
X499517Y522978D01*
X499485Y522977D01*
X499414Y522985D01*
X477549Y522985D01*
X477459Y522971D01*
X477368Y522963D01*
X477338Y522951D01*
X477306Y522946D01*
X477225Y522903D01*
X477142Y522867D01*
X477109Y522841D01*
X477089Y522830D01*
X477067Y522807D01*
X477011Y522762D01*
X476369Y522121D01*
X474232Y521235D01*
X471918Y521235D01*
X469781Y522121D01*
X468146Y523756D01*
X467260Y525893D01*
X467260Y528207D01*
X468146Y530344D01*
X469781Y531979D01*
X471918Y532865D01*
X474232Y532865D01*
X476369Y531979D01*
X477011Y531338D01*
X477085Y531285D01*
X477154Y531225D01*
X477184Y531213D01*
X477210Y531194D01*
X477297Y531167D01*
X477382Y531133D01*
X477423Y531129D01*
X477445Y531122D01*
X477478Y531123D01*
X477549Y531115D01*
X484937Y531115D01*
X484982Y531122D01*
X485028Y531120D01*
X485103Y531142D01*
X485180Y531154D01*
X485220Y531176D01*
X485264Y531189D01*
X485328Y531233D01*
X485397Y531270D01*
X485429Y531303D01*
X485466Y531329D01*
X485513Y531391D01*
X485566Y531448D01*
X485586Y531490D01*
X485613Y531526D01*
X485637Y531600D01*
X485670Y531671D01*
X485675Y531717D01*
X485689Y531760D01*
X485689Y531838D01*
X485697Y531915D01*
X485687Y531960D01*
X485687Y532006D01*
X485649Y532138D01*
X485645Y532156D01*
X485642Y532160D01*
X485640Y532167D01*
X484913Y533922D01*
X484913Y536236D01*
X485799Y538373D01*
X486440Y539015D01*
X486493Y539089D01*
X486553Y539158D01*
X486565Y539188D01*
X486584Y539214D01*
X486611Y539301D01*
X486645Y539386D01*
X486649Y539427D01*
X486656Y539449D01*
X486655Y539482D01*
X486663Y539553D01*
X486663Y551086D01*
X498442Y562865D01*
X505764Y562865D01*
X505854Y562879D01*
X505945Y562887D01*
X505974Y562899D01*
X506006Y562904D01*
X506087Y562947D01*
X506171Y562983D01*
X506203Y563009D01*
X506224Y563020D01*
X506246Y563043D01*
X506302Y563088D01*
X507506Y564292D01*
X509887Y565278D01*
X512463Y565278D01*
X514844Y564292D01*
X516667Y562469D01*
X517653Y560088D01*
X517653Y557512D01*
X516667Y555131D01*
X514844Y553308D01*
X512463Y552322D01*
X509887Y552322D01*
X507506Y553308D01*
X506302Y554512D01*
X506228Y554565D01*
X506158Y554625D01*
X506128Y554637D01*
X506102Y554656D01*
X506015Y554683D01*
X505930Y554717D01*
X505889Y554721D01*
X505867Y554728D01*
X505835Y554727D01*
X505764Y554735D01*
X502125Y554735D01*
X502035Y554721D01*
X501944Y554713D01*
X501914Y554701D01*
X501882Y554696D01*
X501802Y554653D01*
X501718Y554617D01*
X501686Y554591D01*
X501665Y554580D01*
X501643Y554557D01*
X501587Y554512D01*
X495016Y547941D01*
X494963Y547867D01*
X494903Y547798D01*
X494891Y547768D01*
X494872Y547742D01*
X494845Y547655D01*
X494811Y547570D01*
X494807Y547529D01*
X494800Y547506D01*
X494801Y547474D01*
X494793Y547403D01*
X494793Y539553D01*
X494807Y539463D01*
X494815Y539372D01*
X494827Y539342D01*
X494832Y539310D01*
X494875Y539229D01*
X494911Y539146D01*
X494937Y539113D01*
X494948Y539093D01*
X494971Y539071D01*
X495016Y539015D01*
X495657Y538373D01*
X496543Y536236D01*
X496543Y533922D01*
X495816Y532167D01*
X495805Y532123D01*
X495786Y532081D01*
X495777Y532004D01*
X495760Y531928D01*
X495764Y531882D01*
X495759Y531837D01*
X495775Y531760D01*
X495783Y531683D01*
X495801Y531641D01*
X495811Y531596D01*
X495851Y531529D01*
X495883Y531458D01*
X495914Y531424D01*
X495937Y531385D01*
X495996Y531334D01*
X496049Y531277D01*
X496089Y531255D01*
X496124Y531225D01*
X496196Y531196D01*
X496265Y531159D01*
X496310Y531150D01*
X496352Y531133D01*
X496488Y531118D01*
X496507Y531115D01*
X496512Y531116D01*
X496519Y531115D01*
X499414Y531115D01*
X499504Y531129D01*
X499595Y531137D01*
X499624Y531149D01*
X499656Y531154D01*
X499737Y531197D01*
X499821Y531233D01*
X499853Y531259D01*
X499874Y531270D01*
X499896Y531293D01*
X499952Y531338D01*
X501156Y532542D01*
X503537Y533528D01*
X506113Y533528D01*
X508494Y532542D01*
X510317Y530719D01*
X511303Y528338D01*
X511303Y525762D01*
X510317Y523381D01*
X508494Y521558D01*
X506113Y520572D01*
X503537Y520572D01*
G37*
%LPD*%
%LPC*%
G36*
X811512Y552322D02*
X811512Y552322D01*
X809131Y553308D01*
X807308Y555131D01*
X806322Y557512D01*
X806322Y560088D01*
X807308Y562469D01*
X809131Y564292D01*
X811512Y565278D01*
X814088Y565278D01*
X816469Y564292D01*
X817673Y563088D01*
X817747Y563035D01*
X817817Y562975D01*
X817847Y562963D01*
X817873Y562944D01*
X817960Y562917D01*
X818045Y562883D01*
X818086Y562879D01*
X818108Y562872D01*
X818140Y562873D01*
X818211Y562865D01*
X884526Y562865D01*
X884616Y562879D01*
X884707Y562887D01*
X884737Y562899D01*
X884769Y562904D01*
X884850Y562947D01*
X884933Y562983D01*
X884966Y563009D01*
X884986Y563020D01*
X885008Y563043D01*
X885064Y563088D01*
X885706Y563729D01*
X887843Y564615D01*
X890157Y564615D01*
X892294Y563729D01*
X893929Y562094D01*
X894815Y559957D01*
X894815Y557643D01*
X893929Y555506D01*
X892294Y553871D01*
X890157Y552985D01*
X887843Y552985D01*
X885706Y553871D01*
X885064Y554512D01*
X884990Y554565D01*
X884921Y554625D01*
X884891Y554637D01*
X884865Y554656D01*
X884778Y554683D01*
X884693Y554717D01*
X884652Y554721D01*
X884630Y554728D01*
X884597Y554727D01*
X884526Y554735D01*
X818211Y554735D01*
X818121Y554721D01*
X818030Y554713D01*
X818001Y554701D01*
X817969Y554696D01*
X817888Y554653D01*
X817804Y554617D01*
X817772Y554591D01*
X817751Y554580D01*
X817729Y554557D01*
X817673Y554512D01*
X816469Y553308D01*
X814088Y552322D01*
X811512Y552322D01*
G37*
%LPD*%
%LPC*%
G36*
X770514Y508389D02*
X770514Y508389D01*
X768377Y509275D01*
X766742Y510910D01*
X765856Y513047D01*
X765856Y513955D01*
X765842Y514045D01*
X765834Y514136D01*
X765822Y514166D01*
X765817Y514198D01*
X765774Y514278D01*
X765738Y514362D01*
X765712Y514394D01*
X765701Y514415D01*
X765678Y514437D01*
X765633Y514493D01*
X728027Y552099D01*
X727953Y552152D01*
X727884Y552212D01*
X727854Y552224D01*
X727828Y552243D01*
X727741Y552270D01*
X727656Y552304D01*
X727615Y552308D01*
X727592Y552315D01*
X727560Y552314D01*
X727489Y552322D01*
X725787Y552322D01*
X723406Y553308D01*
X721583Y555131D01*
X720597Y557512D01*
X720597Y560088D01*
X721583Y562469D01*
X723406Y564292D01*
X725787Y565278D01*
X728363Y565278D01*
X730744Y564292D01*
X732567Y562469D01*
X733553Y560088D01*
X733553Y558386D01*
X733567Y558296D01*
X733575Y558205D01*
X733587Y558175D01*
X733592Y558143D01*
X733635Y558063D01*
X733671Y557979D01*
X733697Y557947D01*
X733708Y557926D01*
X733731Y557904D01*
X733776Y557848D01*
X771382Y520242D01*
X771456Y520189D01*
X771525Y520129D01*
X771555Y520117D01*
X771581Y520098D01*
X771668Y520071D01*
X771753Y520037D01*
X771794Y520033D01*
X771817Y520026D01*
X771849Y520027D01*
X771920Y520019D01*
X772828Y520019D01*
X774965Y519133D01*
X776600Y517498D01*
X777486Y515361D01*
X777486Y513047D01*
X776600Y510910D01*
X774965Y509275D01*
X772828Y508389D01*
X770514Y508389D01*
G37*
%LPD*%
%LPC*%
G36*
X579737Y552322D02*
X579737Y552322D01*
X577356Y553308D01*
X576152Y554512D01*
X576078Y554565D01*
X576008Y554625D01*
X575978Y554637D01*
X575952Y554656D01*
X575865Y554683D01*
X575780Y554717D01*
X575739Y554721D01*
X575717Y554728D01*
X575685Y554727D01*
X575614Y554735D01*
X566449Y554735D01*
X566359Y554721D01*
X566268Y554713D01*
X566238Y554701D01*
X566206Y554696D01*
X566125Y554653D01*
X566042Y554617D01*
X566009Y554591D01*
X565989Y554580D01*
X565967Y554557D01*
X565911Y554512D01*
X565269Y553871D01*
X563132Y552985D01*
X560818Y552985D01*
X558681Y553871D01*
X557046Y555506D01*
X556160Y557643D01*
X556160Y559957D01*
X557046Y562094D01*
X558681Y563729D01*
X560818Y564615D01*
X563132Y564615D01*
X565269Y563729D01*
X565911Y563088D01*
X565985Y563035D01*
X566054Y562975D01*
X566084Y562963D01*
X566110Y562944D01*
X566197Y562917D01*
X566282Y562883D01*
X566323Y562879D01*
X566345Y562872D01*
X566378Y562873D01*
X566449Y562865D01*
X575614Y562865D01*
X575704Y562879D01*
X575795Y562887D01*
X575824Y562899D01*
X575856Y562904D01*
X575937Y562947D01*
X576021Y562983D01*
X576053Y563009D01*
X576074Y563020D01*
X576096Y563043D01*
X576152Y563088D01*
X577356Y564292D01*
X579737Y565278D01*
X582313Y565278D01*
X584694Y564292D01*
X586517Y562469D01*
X587030Y561229D01*
X587068Y561168D01*
X587097Y561102D01*
X587133Y561064D01*
X587160Y561019D01*
X587215Y560974D01*
X587264Y560921D01*
X587309Y560896D01*
X587350Y560863D01*
X587417Y560837D01*
X587479Y560802D01*
X587531Y560793D01*
X587579Y560774D01*
X587651Y560771D01*
X587721Y560759D01*
X587773Y560766D01*
X587825Y560764D01*
X587894Y560784D01*
X587965Y560794D01*
X588011Y560818D01*
X588061Y560833D01*
X588120Y560873D01*
X588184Y560906D01*
X588220Y560943D01*
X588263Y560973D01*
X588306Y561030D01*
X588356Y561082D01*
X588391Y561144D01*
X588410Y561170D01*
X588417Y561192D01*
X588437Y561229D01*
X588796Y562094D01*
X590431Y563729D01*
X592568Y564615D01*
X594882Y564615D01*
X597019Y563729D01*
X597661Y563088D01*
X597735Y563035D01*
X597804Y562975D01*
X597834Y562963D01*
X597860Y562944D01*
X597947Y562917D01*
X598032Y562883D01*
X598073Y562879D01*
X598095Y562872D01*
X598128Y562873D01*
X598199Y562865D01*
X610539Y562865D01*
X610629Y562879D01*
X610720Y562887D01*
X610749Y562899D01*
X610781Y562904D01*
X610862Y562947D01*
X610946Y562983D01*
X610978Y563009D01*
X610999Y563020D01*
X611021Y563043D01*
X611077Y563088D01*
X612281Y564292D01*
X614662Y565278D01*
X617238Y565278D01*
X619619Y564292D01*
X621442Y562469D01*
X622428Y560088D01*
X622428Y557512D01*
X621442Y555131D01*
X619619Y553308D01*
X617238Y552322D01*
X614662Y552322D01*
X612281Y553308D01*
X611077Y554512D01*
X611003Y554565D01*
X610933Y554625D01*
X610903Y554637D01*
X610877Y554656D01*
X610790Y554683D01*
X610705Y554717D01*
X610664Y554721D01*
X610642Y554728D01*
X610610Y554727D01*
X610539Y554735D01*
X598199Y554735D01*
X598109Y554721D01*
X598018Y554713D01*
X597988Y554701D01*
X597956Y554696D01*
X597875Y554653D01*
X597792Y554617D01*
X597759Y554591D01*
X597739Y554580D01*
X597717Y554557D01*
X597661Y554512D01*
X597019Y553871D01*
X594882Y552985D01*
X592568Y552985D01*
X590431Y553871D01*
X588796Y555506D01*
X588437Y556371D01*
X588399Y556432D01*
X588370Y556498D01*
X588335Y556536D01*
X588307Y556581D01*
X588252Y556626D01*
X588204Y556679D01*
X588158Y556704D01*
X588118Y556737D01*
X588051Y556763D01*
X587988Y556798D01*
X587937Y556807D01*
X587888Y556826D01*
X587817Y556829D01*
X587746Y556841D01*
X587695Y556834D01*
X587643Y556836D01*
X587574Y556816D01*
X587503Y556806D01*
X587456Y556782D01*
X587406Y556767D01*
X587348Y556727D01*
X587284Y556694D01*
X587247Y556657D01*
X587204Y556627D01*
X587162Y556570D01*
X587111Y556518D01*
X587077Y556456D01*
X587058Y556430D01*
X587050Y556408D01*
X587030Y556371D01*
X586517Y555131D01*
X584694Y553308D01*
X582313Y552322D01*
X579737Y552322D01*
G37*
%LPD*%
%LPC*%
G36*
X783068Y181510D02*
X783068Y181510D01*
X780931Y182396D01*
X779296Y184031D01*
X778410Y186168D01*
X778410Y188482D01*
X779296Y190619D01*
X779429Y190753D01*
X779482Y190827D01*
X779542Y190896D01*
X779554Y190926D01*
X779573Y190952D01*
X779600Y191039D01*
X779634Y191124D01*
X779638Y191165D01*
X779645Y191187D01*
X779644Y191220D01*
X779652Y191291D01*
X779652Y227319D01*
X781362Y229029D01*
X781415Y229103D01*
X781475Y229173D01*
X781487Y229203D01*
X781506Y229229D01*
X781533Y229316D01*
X781567Y229401D01*
X781571Y229442D01*
X781578Y229464D01*
X781577Y229496D01*
X781585Y229567D01*
X781585Y229757D01*
X782471Y231894D01*
X784106Y233529D01*
X786243Y234415D01*
X788557Y234415D01*
X790694Y233529D01*
X792329Y231894D01*
X793215Y229757D01*
X793215Y227443D01*
X792329Y225306D01*
X790694Y223671D01*
X789268Y223080D01*
X789168Y223018D01*
X789068Y222958D01*
X789064Y222954D01*
X789059Y222950D01*
X788984Y222860D01*
X788908Y222771D01*
X788906Y222766D01*
X788902Y222761D01*
X788860Y222652D01*
X788816Y222543D01*
X788815Y222536D01*
X788814Y222531D01*
X788813Y222513D01*
X788798Y222376D01*
X788798Y191291D01*
X788812Y191201D01*
X788820Y191110D01*
X788832Y191080D01*
X788837Y191048D01*
X788880Y190967D01*
X788916Y190884D01*
X788942Y190851D01*
X788953Y190831D01*
X788976Y190809D01*
X789021Y190753D01*
X789154Y190619D01*
X790040Y188482D01*
X790040Y186168D01*
X789154Y184031D01*
X787519Y182396D01*
X785382Y181510D01*
X783068Y181510D01*
G37*
%LPD*%
%LPC*%
G36*
X1010142Y452627D02*
X1010142Y452627D01*
X1004738Y455516D01*
X1001333Y460610D01*
X1001206Y461908D01*
X1001190Y461965D01*
X1001185Y462023D01*
X1001159Y462083D01*
X1001142Y462146D01*
X1001110Y462195D01*
X1001086Y462248D01*
X1001034Y462311D01*
X1001016Y463800D01*
X1001012Y463824D01*
X1001012Y463866D01*
X1000866Y465348D01*
X1000887Y465372D01*
X1000910Y465432D01*
X1000943Y465489D01*
X1000954Y465546D01*
X1000976Y465601D01*
X1000985Y465699D01*
X1000992Y465730D01*
X1000990Y465744D01*
X1000992Y465768D01*
X1000739Y486520D01*
X1003091Y488930D01*
X1006458Y488971D01*
X1008868Y486619D01*
X1009138Y464438D01*
X1009141Y464423D01*
X1009157Y464281D01*
X1009317Y463567D01*
X1009338Y463514D01*
X1009350Y463459D01*
X1009398Y463367D01*
X1009409Y463338D01*
X1009418Y463329D01*
X1009427Y463310D01*
X1010329Y461960D01*
X1010399Y461886D01*
X1010465Y461807D01*
X1010486Y461792D01*
X1010497Y461781D01*
X1010526Y461765D01*
X1010603Y461712D01*
X1012035Y460947D01*
X1012089Y460929D01*
X1012138Y460901D01*
X1012239Y460877D01*
X1012268Y460867D01*
X1012281Y460867D01*
X1012301Y460863D01*
X1013113Y460762D01*
X1013143Y460764D01*
X1013206Y460757D01*
X1036226Y460757D01*
X1038607Y458376D01*
X1038607Y455008D01*
X1036226Y452627D01*
X1010142Y452627D01*
G37*
%LPD*%
%LPC*%
G36*
X748143Y222785D02*
X748143Y222785D01*
X746006Y223671D01*
X744371Y225306D01*
X743485Y227443D01*
X743485Y229757D01*
X744371Y231894D01*
X744504Y232028D01*
X744557Y232102D01*
X744617Y232171D01*
X744629Y232201D01*
X744648Y232227D01*
X744675Y232314D01*
X744709Y232399D01*
X744713Y232440D01*
X744720Y232462D01*
X744719Y232495D01*
X744727Y232566D01*
X744727Y262734D01*
X744713Y262824D01*
X744705Y262915D01*
X744693Y262945D01*
X744688Y262977D01*
X744645Y263058D01*
X744609Y263141D01*
X744583Y263174D01*
X744572Y263194D01*
X744549Y263216D01*
X744504Y263272D01*
X744371Y263406D01*
X743485Y265543D01*
X743485Y267857D01*
X744371Y269994D01*
X746006Y271629D01*
X748143Y272515D01*
X750457Y272515D01*
X752594Y271629D01*
X754229Y269994D01*
X755115Y267857D01*
X755115Y265543D01*
X754229Y263406D01*
X754096Y263272D01*
X754043Y263198D01*
X753983Y263129D01*
X753971Y263099D01*
X753952Y263073D01*
X753925Y262986D01*
X753891Y262901D01*
X753887Y262860D01*
X753880Y262838D01*
X753881Y262805D01*
X753873Y262734D01*
X753873Y232566D01*
X753887Y232476D01*
X753895Y232385D01*
X753907Y232355D01*
X753912Y232323D01*
X753955Y232242D01*
X753991Y232159D01*
X754017Y232126D01*
X754028Y232106D01*
X754051Y232084D01*
X754096Y232028D01*
X754229Y231894D01*
X755115Y229757D01*
X755115Y227443D01*
X754229Y225306D01*
X752594Y223671D01*
X750457Y222785D01*
X748143Y222785D01*
G37*
%LPD*%
%LPC*%
G36*
X716393Y527585D02*
X716393Y527585D01*
X714256Y528471D01*
X712621Y530106D01*
X711735Y532243D01*
X711735Y533151D01*
X711721Y533241D01*
X711713Y533332D01*
X711701Y533362D01*
X711696Y533394D01*
X711653Y533474D01*
X711617Y533558D01*
X711591Y533590D01*
X711580Y533611D01*
X711557Y533633D01*
X711512Y533689D01*
X693102Y552099D01*
X693028Y552152D01*
X692959Y552212D01*
X692929Y552224D01*
X692903Y552243D01*
X692816Y552270D01*
X692731Y552304D01*
X692690Y552308D01*
X692668Y552315D01*
X692635Y552314D01*
X692564Y552322D01*
X690862Y552322D01*
X688481Y553308D01*
X686658Y555131D01*
X685672Y557512D01*
X685672Y560088D01*
X686658Y562469D01*
X688481Y564292D01*
X690862Y565278D01*
X693438Y565278D01*
X695819Y564292D01*
X697642Y562469D01*
X698628Y560088D01*
X698628Y558386D01*
X698642Y558296D01*
X698650Y558205D01*
X698662Y558175D01*
X698667Y558143D01*
X698710Y558063D01*
X698746Y557979D01*
X698772Y557947D01*
X698783Y557926D01*
X698806Y557904D01*
X698851Y557848D01*
X717261Y539438D01*
X717335Y539385D01*
X717404Y539325D01*
X717434Y539313D01*
X717460Y539294D01*
X717547Y539267D01*
X717632Y539233D01*
X717673Y539229D01*
X717696Y539222D01*
X717728Y539223D01*
X717799Y539215D01*
X718707Y539215D01*
X720844Y538329D01*
X722479Y536694D01*
X723365Y534557D01*
X723365Y532243D01*
X722479Y530106D01*
X720844Y528471D01*
X718707Y527585D01*
X716393Y527585D01*
G37*
%LPD*%
%LPC*%
G36*
X776718Y540285D02*
X776718Y540285D01*
X774581Y541171D01*
X772946Y542806D01*
X772060Y544943D01*
X772060Y545851D01*
X772046Y545941D01*
X772038Y546032D01*
X772026Y546062D01*
X772021Y546094D01*
X771996Y546141D01*
X771995Y546143D01*
X771990Y546151D01*
X771978Y546174D01*
X771942Y546258D01*
X771916Y546290D01*
X771905Y546311D01*
X771882Y546333D01*
X771879Y546338D01*
X771869Y546354D01*
X771859Y546363D01*
X771837Y546389D01*
X766127Y552099D01*
X766053Y552152D01*
X765984Y552212D01*
X765954Y552224D01*
X765928Y552243D01*
X765841Y552270D01*
X765756Y552304D01*
X765715Y552308D01*
X765692Y552315D01*
X765660Y552314D01*
X765589Y552322D01*
X763887Y552322D01*
X761506Y553308D01*
X759683Y555131D01*
X758697Y557512D01*
X758697Y560088D01*
X759683Y562469D01*
X761506Y564292D01*
X763887Y565278D01*
X766463Y565278D01*
X768844Y564292D01*
X770667Y562469D01*
X771653Y560088D01*
X771653Y558386D01*
X771667Y558296D01*
X771675Y558205D01*
X771687Y558175D01*
X771692Y558143D01*
X771735Y558063D01*
X771771Y557979D01*
X771797Y557947D01*
X771808Y557926D01*
X771831Y557904D01*
X771876Y557848D01*
X777586Y552138D01*
X777660Y552085D01*
X777729Y552025D01*
X777759Y552013D01*
X777785Y551994D01*
X777872Y551967D01*
X777957Y551933D01*
X777998Y551929D01*
X778021Y551922D01*
X778053Y551923D01*
X778124Y551915D01*
X779032Y551915D01*
X781169Y551029D01*
X782804Y549394D01*
X783690Y547257D01*
X783690Y544943D01*
X782804Y542806D01*
X781169Y541171D01*
X779032Y540285D01*
X776718Y540285D01*
G37*
%LPD*%
%LPC*%
G36*
X643368Y543460D02*
X643368Y543460D01*
X641231Y544346D01*
X639596Y545981D01*
X638710Y548118D01*
X638710Y550432D01*
X639596Y552569D01*
X641231Y554204D01*
X643368Y555090D01*
X644276Y555090D01*
X644366Y555104D01*
X644457Y555112D01*
X644487Y555124D01*
X644519Y555129D01*
X644599Y555172D01*
X644683Y555208D01*
X644715Y555234D01*
X644736Y555245D01*
X644758Y555268D01*
X644814Y555313D01*
X647349Y557848D01*
X647402Y557922D01*
X647462Y557991D01*
X647474Y558021D01*
X647493Y558047D01*
X647520Y558134D01*
X647554Y558219D01*
X647558Y558260D01*
X647565Y558283D01*
X647564Y558315D01*
X647572Y558386D01*
X647572Y560088D01*
X648558Y562469D01*
X650381Y564292D01*
X652762Y565278D01*
X655338Y565278D01*
X657719Y564292D01*
X659542Y562469D01*
X660528Y560088D01*
X660528Y557512D01*
X659542Y555131D01*
X657719Y553308D01*
X655338Y552322D01*
X653636Y552322D01*
X653546Y552308D01*
X653455Y552300D01*
X653425Y552288D01*
X653393Y552283D01*
X653313Y552240D01*
X653229Y552204D01*
X653197Y552178D01*
X653176Y552167D01*
X653154Y552144D01*
X653098Y552099D01*
X650563Y549564D01*
X650510Y549490D01*
X650450Y549421D01*
X650438Y549391D01*
X650419Y549365D01*
X650392Y549278D01*
X650358Y549193D01*
X650354Y549152D01*
X650347Y549129D01*
X650348Y549097D01*
X650340Y549026D01*
X650340Y548118D01*
X649454Y545981D01*
X647819Y544346D01*
X645682Y543460D01*
X643368Y543460D01*
G37*
%LPD*%
%LPC*%
G36*
X544812Y552322D02*
X544812Y552322D01*
X542431Y553308D01*
X541852Y553888D01*
X541835Y553899D01*
X541823Y553915D01*
X541736Y553971D01*
X541652Y554031D01*
X541633Y554037D01*
X541616Y554048D01*
X541516Y554073D01*
X541417Y554104D01*
X541397Y554103D01*
X541377Y554108D01*
X541274Y554100D01*
X541171Y554097D01*
X541152Y554090D01*
X541132Y554089D01*
X541037Y554048D01*
X540940Y554013D01*
X540924Y554000D01*
X540906Y553992D01*
X540775Y553888D01*
X540250Y553362D01*
X538113Y552477D01*
X535799Y552477D01*
X533662Y553363D01*
X532027Y554998D01*
X531141Y557135D01*
X531141Y559449D01*
X532027Y561586D01*
X533662Y563221D01*
X535799Y564107D01*
X538113Y564107D01*
X540250Y563222D01*
X540267Y563204D01*
X540283Y563193D01*
X540296Y563177D01*
X540383Y563121D01*
X540467Y563061D01*
X540486Y563055D01*
X540502Y563044D01*
X540603Y563019D01*
X540702Y562988D01*
X540722Y562989D01*
X540741Y562984D01*
X540844Y562992D01*
X540948Y562995D01*
X540966Y563002D01*
X540986Y563003D01*
X541081Y563044D01*
X541179Y563079D01*
X541194Y563092D01*
X541213Y563100D01*
X541343Y563204D01*
X542431Y564292D01*
X544812Y565278D01*
X547388Y565278D01*
X549769Y564292D01*
X551592Y562469D01*
X552578Y560088D01*
X552578Y557512D01*
X551592Y555131D01*
X549769Y553308D01*
X547388Y552322D01*
X544812Y552322D01*
G37*
%LPD*%
%LPC*%
G36*
X401937Y520572D02*
X401937Y520572D01*
X399556Y521558D01*
X397733Y523381D01*
X396747Y525762D01*
X396747Y528338D01*
X397733Y530719D01*
X399556Y532542D01*
X401937Y533528D01*
X404513Y533528D01*
X406894Y532542D01*
X408717Y530719D01*
X409703Y528338D01*
X409703Y525762D01*
X408717Y523381D01*
X406894Y521558D01*
X404513Y520572D01*
X401937Y520572D01*
G37*
%LPD*%
%LPC*%
G36*
X706373Y252348D02*
X706373Y252348D01*
X706373Y268491D01*
X707229Y268356D01*
X708750Y267861D01*
X710175Y267135D01*
X711469Y266195D01*
X712600Y265064D01*
X713540Y263770D01*
X714266Y262345D01*
X714761Y260824D01*
X715011Y259245D01*
X715011Y252348D01*
X706373Y252348D01*
G37*
%LPD*%
%LPC*%
G36*
X706373Y249302D02*
X706373Y249302D01*
X715011Y249302D01*
X715011Y242405D01*
X714761Y240826D01*
X714266Y239305D01*
X713540Y237880D01*
X712600Y236586D01*
X711469Y235455D01*
X710175Y234515D01*
X708750Y233789D01*
X707229Y233294D01*
X706373Y233159D01*
X706373Y249302D01*
G37*
%LPD*%
%LPC*%
G36*
X694689Y252348D02*
X694689Y252348D01*
X694689Y259245D01*
X694939Y260824D01*
X695434Y262345D01*
X696160Y263770D01*
X697100Y265064D01*
X698231Y266195D01*
X699525Y267135D01*
X700950Y267861D01*
X702471Y268356D01*
X703327Y268491D01*
X703327Y252348D01*
X694689Y252348D01*
G37*
%LPD*%
%LPC*%
G36*
X702471Y233294D02*
X702471Y233294D01*
X700950Y233789D01*
X699525Y234515D01*
X698231Y235455D01*
X697100Y236586D01*
X696160Y237880D01*
X695434Y239305D01*
X694939Y240826D01*
X694689Y242405D01*
X694689Y249302D01*
X703327Y249302D01*
X703327Y233159D01*
X702471Y233294D01*
G37*
%LPD*%
%LPC*%
G36*
X458152Y526098D02*
X458152Y526098D01*
X464133Y526098D01*
X463917Y525012D01*
X463391Y523741D01*
X462626Y522597D01*
X461653Y521624D01*
X460509Y520859D01*
X459238Y520333D01*
X458152Y520117D01*
X458152Y526098D01*
G37*
%LPD*%
%LPC*%
G36*
X704849Y250824D02*
X704849Y250824D01*
X704849Y250826D01*
X704851Y250826D01*
X704851Y250824D01*
X704849Y250824D01*
G37*
%LPD*%
D10*
X346075Y558800D03*
X381000Y558800D03*
X654050Y558800D03*
X615950Y558800D03*
X428625Y558800D03*
X457200Y527050D03*
X504825Y527050D03*
X542925Y527050D03*
X476250Y558800D03*
X727075Y558800D03*
X765175Y558800D03*
X812800Y558800D03*
X403225Y527050D03*
X577850Y527050D03*
X612775Y527050D03*
X647700Y527050D03*
X688975Y527050D03*
X546100Y558800D03*
X581025Y558800D03*
X511175Y558800D03*
X307975Y558800D03*
X692150Y558800D03*
D11*
X1033018Y219202D02*
X1033272Y199644D01*
X1033272Y198882D01*
X1033270Y198698D01*
X1033263Y198514D01*
X1033252Y198330D01*
X1033236Y198147D01*
X1033216Y197964D01*
X1033192Y197781D01*
X1033163Y197599D01*
X1033130Y197418D01*
X1033092Y197238D01*
X1033051Y197058D01*
X1033004Y196880D01*
X1032954Y196703D01*
X1032899Y196527D01*
X1032840Y196353D01*
X1032777Y196180D01*
X1032709Y196009D01*
X1032638Y195839D01*
X1032562Y195671D01*
X1032483Y195505D01*
X1032399Y195341D01*
X1032312Y195179D01*
X1032220Y195019D01*
X1032125Y194861D01*
X1032026Y194706D01*
X1031923Y194553D01*
X1031817Y194403D01*
X1031707Y194255D01*
X1031593Y194110D01*
X1031476Y193968D01*
X1031356Y193829D01*
X1031232Y193693D01*
X1031105Y193559D01*
X1030975Y193429D01*
X1030841Y193302D01*
X1030705Y193178D01*
X1030566Y193058D01*
X1030424Y192941D01*
X1030279Y192827D01*
X1030131Y192717D01*
X1029981Y192611D01*
X1029828Y192508D01*
X1029673Y192409D01*
X1029515Y192314D01*
X1029355Y192222D01*
X1029193Y192135D01*
X1029029Y192051D01*
X1028863Y191972D01*
X1028695Y191896D01*
X1028525Y191825D01*
X1028354Y191757D01*
X1028181Y191694D01*
X1028007Y191635D01*
X1027831Y191580D01*
X1027654Y191530D01*
X1027476Y191483D01*
X1027296Y191442D01*
X1027116Y191404D01*
X1026935Y191371D01*
X1026753Y191342D01*
X1026570Y191318D01*
X1026387Y191298D01*
X1026204Y191282D01*
X1026020Y191271D01*
X1025836Y191264D01*
X1025652Y191262D01*
X1004316Y191262D01*
X1014730Y193548D02*
X1014730Y219202D01*
X1033272Y232410D02*
X1033272Y251968D01*
X1033272Y232410D02*
X1033270Y232213D01*
X1033262Y232015D01*
X1033250Y231819D01*
X1033234Y231622D01*
X1033212Y231426D01*
X1033186Y231230D01*
X1033155Y231035D01*
X1033119Y230841D01*
X1033079Y230648D01*
X1033034Y230456D01*
X1032984Y230265D01*
X1032930Y230075D01*
X1032871Y229887D01*
X1032807Y229700D01*
X1032739Y229515D01*
X1032667Y229331D01*
X1032590Y229150D01*
X1032509Y228970D01*
X1032423Y228792D01*
X1032333Y228616D01*
X1032239Y228443D01*
X1032140Y228272D01*
X1032038Y228103D01*
X1031931Y227937D01*
X1031821Y227774D01*
X1031706Y227613D01*
X1031588Y227455D01*
X1031466Y227300D01*
X1031340Y227148D01*
X1031211Y226999D01*
X1031078Y226854D01*
X1030941Y226711D01*
X1030801Y226572D01*
X1030658Y226436D01*
X1030511Y226304D01*
X1030361Y226176D01*
X1030209Y226051D01*
X1030053Y225930D01*
X1029894Y225812D01*
X1029733Y225699D01*
X1029569Y225590D01*
X1029402Y225484D01*
X1029232Y225383D01*
X1029061Y225286D01*
X1028887Y225193D01*
X1028710Y225104D01*
X1028532Y225019D01*
X1028352Y224939D01*
X1028170Y224863D01*
X1027986Y224792D01*
X1027800Y224725D01*
X1027613Y224663D01*
X1027424Y224605D01*
X1027234Y224552D01*
X1027043Y224504D01*
X1026850Y224460D01*
X1026657Y224421D01*
X1026463Y224386D01*
X1026267Y224357D01*
X1026072Y224332D01*
X1025875Y224311D01*
X1025679Y224296D01*
X1025482Y224285D01*
X1025284Y224279D01*
X1025087Y224278D01*
X1024890Y224282D01*
X1004316Y224028D01*
X1033018Y258318D02*
X1033018Y278638D01*
X1033016Y278837D01*
X1033008Y279035D01*
X1032996Y279233D01*
X1032979Y279431D01*
X1032957Y279629D01*
X1032931Y279826D01*
X1032899Y280022D01*
X1032863Y280217D01*
X1032822Y280412D01*
X1032777Y280605D01*
X1032726Y280797D01*
X1032671Y280988D01*
X1032611Y281177D01*
X1032547Y281365D01*
X1032478Y281552D01*
X1032405Y281736D01*
X1032327Y281919D01*
X1032244Y282100D01*
X1032158Y282278D01*
X1032067Y282455D01*
X1031971Y282629D01*
X1031872Y282801D01*
X1031768Y282971D01*
X1031660Y283137D01*
X1031548Y283301D01*
X1031432Y283463D01*
X1031312Y283621D01*
X1031189Y283777D01*
X1031061Y283929D01*
X1030930Y284078D01*
X1030795Y284224D01*
X1030657Y284367D01*
X1030516Y284506D01*
X1030370Y284642D01*
X1030222Y284774D01*
X1030071Y284903D01*
X1029916Y285028D01*
X1029759Y285149D01*
X1029598Y285266D01*
X1029435Y285379D01*
X1029269Y285488D01*
X1029100Y285593D01*
X1028929Y285694D01*
X1028755Y285790D01*
X1028580Y285883D01*
X1028401Y285971D01*
X1028221Y286055D01*
X1028039Y286134D01*
X1027855Y286209D01*
X1027669Y286279D01*
X1027482Y286345D01*
X1027293Y286406D01*
X1027102Y286462D01*
X1026911Y286514D01*
X1026718Y286561D01*
X1026523Y286603D01*
X1026328Y286641D01*
X1026133Y286674D01*
X1025936Y286702D01*
X1025739Y286725D01*
X1025541Y286744D01*
X1025343Y286757D01*
X1025144Y286766D01*
X1004062Y286512D01*
X1005078Y277622D02*
X1005078Y263398D01*
X1005081Y263183D01*
X1005088Y262967D01*
X1005101Y262752D01*
X1005120Y262537D01*
X1005143Y262323D01*
X1005172Y262110D01*
X1005206Y261897D01*
X1005245Y261685D01*
X1005289Y261474D01*
X1005338Y261264D01*
X1005392Y261056D01*
X1005451Y260849D01*
X1005515Y260643D01*
X1005585Y260439D01*
X1005659Y260237D01*
X1005738Y260036D01*
X1005822Y259838D01*
X1005910Y259641D01*
X1006004Y259447D01*
X1006102Y259255D01*
X1006204Y259066D01*
X1006312Y258879D01*
X1006423Y258695D01*
X1006540Y258513D01*
X1006660Y258335D01*
X1006785Y258159D01*
X1006914Y257986D01*
X1007047Y257817D01*
X1007184Y257651D01*
X1007325Y257488D01*
X1007471Y257329D01*
X1007620Y257173D01*
X1007772Y257021D01*
X1007928Y256873D01*
X1008088Y256728D01*
X1008252Y256588D01*
X1008418Y256451D01*
X1008588Y256319D01*
X1008761Y256190D01*
X1008937Y256066D01*
X1009116Y255946D01*
X1009298Y255831D01*
X1009483Y255720D01*
X1009670Y255613D01*
X1009860Y255512D01*
X1010053Y255414D01*
X1010247Y255322D01*
X1010444Y255234D01*
X1010643Y255151D01*
X1010843Y255072D01*
X1011046Y254999D01*
X1011250Y254931D01*
X1011456Y254867D01*
X1011664Y254809D01*
X1011872Y254755D01*
X1012082Y254707D01*
X1012293Y254664D01*
X1012505Y254626D01*
X1012718Y254593D01*
X1012932Y254565D01*
X1013146Y254542D01*
X1013361Y254525D01*
X1013576Y254513D01*
X1013792Y254506D01*
X1014007Y254504D01*
X1014222Y254508D01*
X1014467Y254518D01*
X1014711Y254534D01*
X1014954Y254555D01*
X1015197Y254583D01*
X1015439Y254617D01*
X1015680Y254656D01*
X1015921Y254702D01*
X1016160Y254753D01*
X1016397Y254810D01*
X1016634Y254873D01*
X1016868Y254941D01*
X1017101Y255015D01*
X1017332Y255095D01*
X1017561Y255181D01*
X1017788Y255272D01*
X1018013Y255368D01*
X1018235Y255470D01*
X1018454Y255578D01*
X1018671Y255690D01*
X1018885Y255808D01*
X1019097Y255932D01*
X1019305Y256060D01*
X1019510Y256193D01*
X1019711Y256331D01*
X1019909Y256474D01*
X1020104Y256622D01*
X1020295Y256775D01*
X1020482Y256932D01*
X1020665Y257094D01*
X1020845Y257260D01*
X1021020Y257431D01*
X1021191Y257605D01*
X1021358Y257784D01*
X1021520Y257967D01*
X1021678Y258154D01*
X1021831Y258344D01*
X1021979Y258538D01*
X1022123Y258736D01*
X1022262Y258937D01*
X1022396Y259142D01*
X1022525Y259350D01*
X1022648Y259560D01*
X1022767Y259774D01*
X1022880Y259991D01*
X1022988Y260210D01*
X1023091Y260432D01*
X1023188Y260656D01*
X1023280Y260883D01*
X1023366Y261112D01*
X1023366Y284734D01*
X1033272Y303276D02*
X1033272Y325628D01*
X1033272Y303276D02*
X1033270Y303083D01*
X1033263Y302889D01*
X1033251Y302696D01*
X1033234Y302504D01*
X1033213Y302311D01*
X1033187Y302120D01*
X1033156Y301929D01*
X1033121Y301739D01*
X1033081Y301549D01*
X1033037Y301361D01*
X1032988Y301174D01*
X1032934Y300988D01*
X1032876Y300804D01*
X1032813Y300621D01*
X1032746Y300440D01*
X1032674Y300260D01*
X1032598Y300082D01*
X1032518Y299906D01*
X1032434Y299732D01*
X1032345Y299560D01*
X1032252Y299391D01*
X1032155Y299224D01*
X1032054Y299059D01*
X1031948Y298896D01*
X1031839Y298737D01*
X1031726Y298580D01*
X1031610Y298425D01*
X1031489Y298274D01*
X1031365Y298126D01*
X1031237Y297981D01*
X1031106Y297839D01*
X1030971Y297700D01*
X1030833Y297564D01*
X1030692Y297432D01*
X1030548Y297304D01*
X1030400Y297179D01*
X1030249Y297057D01*
X1030096Y296940D01*
X1029939Y296826D01*
X1029780Y296716D01*
X1029619Y296610D01*
X1029454Y296508D01*
X1029288Y296410D01*
X1029119Y296316D01*
X1028947Y296226D01*
X1028774Y296141D01*
X1028598Y296060D01*
X1028421Y295983D01*
X1028242Y295910D01*
X1028061Y295842D01*
X1027878Y295778D01*
X1027694Y295719D01*
X1027508Y295664D01*
X1027322Y295614D01*
X1027134Y295569D01*
X1026945Y295528D01*
X1026755Y295491D01*
X1026564Y295460D01*
X1026372Y295433D01*
X1026180Y295410D01*
X1025988Y295393D01*
X1025795Y295380D01*
X1025602Y295372D01*
X1025408Y295368D01*
X1025215Y295369D01*
X1025021Y295375D01*
X1024828Y295386D01*
X1024636Y295402D01*
X1013206Y295656D01*
X1013001Y295663D01*
X1012796Y295675D01*
X1012591Y295692D01*
X1012387Y295714D01*
X1012183Y295741D01*
X1011981Y295773D01*
X1011779Y295809D01*
X1011578Y295851D01*
X1011378Y295898D01*
X1011179Y295949D01*
X1010981Y296005D01*
X1010785Y296066D01*
X1010591Y296131D01*
X1010398Y296202D01*
X1010207Y296277D01*
X1010017Y296356D01*
X1009830Y296440D01*
X1009645Y296529D01*
X1009462Y296622D01*
X1009281Y296719D01*
X1009103Y296821D01*
X1008927Y296927D01*
X1008754Y297038D01*
X1008584Y297152D01*
X1008416Y297271D01*
X1008251Y297394D01*
X1008090Y297520D01*
X1007931Y297651D01*
X1007776Y297785D01*
X1007624Y297923D01*
X1007475Y298065D01*
X1007330Y298210D01*
X1007189Y298359D01*
X1007051Y298511D01*
X1006917Y298666D01*
X1006786Y298825D01*
X1006660Y298986D01*
X1006537Y299151D01*
X1006419Y299319D01*
X1006304Y299489D01*
X1006194Y299662D01*
X1006088Y299838D01*
X1005986Y300016D01*
X1005889Y300197D01*
X1005796Y300380D01*
X1005707Y300565D01*
X1005623Y300753D01*
X1005544Y300942D01*
X1005469Y301133D01*
X1005399Y301326D01*
X1005333Y301521D01*
X1005272Y301717D01*
X1005217Y301914D01*
X1005165Y302113D01*
X1005119Y302313D01*
X1005078Y302514D01*
X1004824Y325628D01*
X1018032Y335280D02*
X1034288Y335280D01*
X1018032Y335280D02*
X1004062Y335280D01*
X1018032Y335280D02*
X1033272Y367284D01*
X1004570Y367284D02*
X1019048Y338074D01*
X1032764Y374904D02*
X1032764Y410464D01*
X1033018Y392938D02*
X1004316Y392938D01*
X1033018Y416814D02*
X1033018Y437134D01*
X1033016Y437333D01*
X1033008Y437531D01*
X1032996Y437729D01*
X1032979Y437927D01*
X1032957Y438125D01*
X1032931Y438322D01*
X1032899Y438518D01*
X1032863Y438713D01*
X1032822Y438908D01*
X1032777Y439101D01*
X1032726Y439293D01*
X1032671Y439484D01*
X1032611Y439673D01*
X1032547Y439861D01*
X1032478Y440048D01*
X1032405Y440232D01*
X1032327Y440415D01*
X1032244Y440596D01*
X1032158Y440774D01*
X1032067Y440951D01*
X1031971Y441125D01*
X1031872Y441297D01*
X1031768Y441467D01*
X1031660Y441633D01*
X1031548Y441797D01*
X1031432Y441959D01*
X1031312Y442117D01*
X1031189Y442273D01*
X1031061Y442425D01*
X1030930Y442574D01*
X1030795Y442720D01*
X1030657Y442863D01*
X1030516Y443002D01*
X1030370Y443138D01*
X1030222Y443270D01*
X1030071Y443399D01*
X1029916Y443524D01*
X1029759Y443645D01*
X1029598Y443762D01*
X1029435Y443875D01*
X1029269Y443984D01*
X1029100Y444089D01*
X1028929Y444190D01*
X1028755Y444286D01*
X1028580Y444379D01*
X1028401Y444467D01*
X1028221Y444551D01*
X1028039Y444630D01*
X1027855Y444705D01*
X1027669Y444775D01*
X1027482Y444841D01*
X1027293Y444902D01*
X1027102Y444958D01*
X1026911Y445010D01*
X1026718Y445057D01*
X1026523Y445099D01*
X1026328Y445137D01*
X1026133Y445170D01*
X1025936Y445198D01*
X1025739Y445221D01*
X1025541Y445240D01*
X1025343Y445253D01*
X1025144Y445262D01*
X1004062Y445008D01*
X1005078Y436118D02*
X1005078Y421894D01*
X1005081Y421679D01*
X1005088Y421463D01*
X1005101Y421248D01*
X1005120Y421033D01*
X1005143Y420819D01*
X1005172Y420606D01*
X1005206Y420393D01*
X1005245Y420181D01*
X1005289Y419970D01*
X1005338Y419760D01*
X1005392Y419552D01*
X1005451Y419345D01*
X1005515Y419139D01*
X1005585Y418935D01*
X1005659Y418733D01*
X1005738Y418532D01*
X1005822Y418334D01*
X1005910Y418137D01*
X1006004Y417943D01*
X1006102Y417751D01*
X1006204Y417562D01*
X1006312Y417375D01*
X1006423Y417191D01*
X1006540Y417009D01*
X1006660Y416831D01*
X1006785Y416655D01*
X1006914Y416482D01*
X1007047Y416313D01*
X1007184Y416147D01*
X1007325Y415984D01*
X1007471Y415825D01*
X1007620Y415669D01*
X1007772Y415517D01*
X1007928Y415369D01*
X1008088Y415224D01*
X1008252Y415084D01*
X1008418Y414947D01*
X1008588Y414815D01*
X1008761Y414686D01*
X1008937Y414562D01*
X1009116Y414442D01*
X1009298Y414327D01*
X1009483Y414216D01*
X1009670Y414109D01*
X1009860Y414008D01*
X1010053Y413910D01*
X1010247Y413818D01*
X1010444Y413730D01*
X1010643Y413647D01*
X1010843Y413568D01*
X1011046Y413495D01*
X1011250Y413427D01*
X1011456Y413363D01*
X1011664Y413305D01*
X1011872Y413251D01*
X1012082Y413203D01*
X1012293Y413160D01*
X1012505Y413122D01*
X1012718Y413089D01*
X1012932Y413061D01*
X1013146Y413038D01*
X1013361Y413021D01*
X1013576Y413009D01*
X1013792Y413002D01*
X1014007Y413000D01*
X1014222Y413004D01*
X1014467Y413014D01*
X1014711Y413030D01*
X1014954Y413051D01*
X1015197Y413079D01*
X1015439Y413113D01*
X1015680Y413152D01*
X1015921Y413198D01*
X1016160Y413249D01*
X1016397Y413306D01*
X1016634Y413369D01*
X1016868Y413437D01*
X1017101Y413511D01*
X1017332Y413591D01*
X1017561Y413677D01*
X1017788Y413768D01*
X1018013Y413864D01*
X1018235Y413966D01*
X1018454Y414074D01*
X1018671Y414186D01*
X1018885Y414304D01*
X1019097Y414428D01*
X1019305Y414556D01*
X1019510Y414689D01*
X1019711Y414827D01*
X1019909Y414970D01*
X1020104Y415118D01*
X1020295Y415271D01*
X1020482Y415428D01*
X1020665Y415590D01*
X1020845Y415756D01*
X1021020Y415927D01*
X1021191Y416101D01*
X1021358Y416280D01*
X1021520Y416463D01*
X1021678Y416650D01*
X1021831Y416840D01*
X1021979Y417034D01*
X1022123Y417232D01*
X1022262Y417433D01*
X1022396Y417638D01*
X1022525Y417846D01*
X1022648Y418056D01*
X1022767Y418270D01*
X1022880Y418487D01*
X1022988Y418706D01*
X1023091Y418928D01*
X1023188Y419152D01*
X1023280Y419379D01*
X1023366Y419608D01*
X1023366Y443230D01*
X1013206Y456692D02*
X1034542Y456692D01*
X1013206Y456692D02*
X1013006Y456694D01*
X1012805Y456702D01*
X1012605Y456714D01*
X1012406Y456731D01*
X1012206Y456753D01*
X1012008Y456780D01*
X1011810Y456812D01*
X1011613Y456849D01*
X1011417Y456890D01*
X1011222Y456937D01*
X1011028Y456988D01*
X1010835Y457044D01*
X1010644Y457104D01*
X1010455Y457169D01*
X1010267Y457239D01*
X1010081Y457314D01*
X1009897Y457393D01*
X1009714Y457476D01*
X1009534Y457564D01*
X1009356Y457656D01*
X1009181Y457753D01*
X1009008Y457854D01*
X1008837Y457959D01*
X1008669Y458068D01*
X1008504Y458182D01*
X1008341Y458299D01*
X1008182Y458420D01*
X1008025Y458546D01*
X1007872Y458675D01*
X1007722Y458807D01*
X1007575Y458944D01*
X1007431Y459084D01*
X1007291Y459227D01*
X1007155Y459374D01*
X1007022Y459524D01*
X1006893Y459678D01*
X1006768Y459834D01*
X1006647Y459993D01*
X1006529Y460156D01*
X1006416Y460321D01*
X1006306Y460489D01*
X1006201Y460660D01*
X1006100Y460833D01*
X1006004Y461009D01*
X1005911Y461186D01*
X1005823Y461367D01*
X1005740Y461549D01*
X1005661Y461733D01*
X1005587Y461919D01*
X1005517Y462107D01*
X1005451Y462296D01*
X1005391Y462488D01*
X1005335Y462680D01*
X1005284Y462874D01*
X1005238Y463069D01*
X1005196Y463265D01*
X1005159Y463462D01*
X1005128Y463660D01*
X1005101Y463858D01*
X1005078Y464058D01*
X1004824Y484886D01*
D12*
X704850Y258445D02*
X704850Y243205D01*
X679450Y243205D02*
X679450Y258445D01*
D13*
X307975Y523494D03*
X248666Y447675D03*
D11*
X248666Y509016D01*
X289306Y549656D01*
X335407Y549656D01*
X335407Y552450D01*
D13*
X335407Y552450D03*
X457200Y381000D03*
X330200Y381000D03*
D14*
X457200Y381000D01*
D13*
X259969Y371475D03*
D11*
X259969Y510794D01*
X292481Y543306D01*
X358648Y543306D01*
X370332Y554990D01*
D13*
X370332Y554990D03*
X330200Y355600D03*
D14*
X467881Y355600D01*
D13*
X812800Y355600D03*
D14*
X467881Y355600D01*
D13*
X467881Y355600D03*
D11*
X593725Y558800D02*
X615950Y558800D01*
D13*
X593725Y558800D03*
X330200Y368300D03*
D14*
X333756Y371856D02*
X476631Y371856D01*
X333756Y371856D02*
X330200Y368300D01*
D13*
X803275Y365125D03*
D14*
X483362Y365125D02*
X476631Y371856D01*
X483362Y365125D02*
X803275Y365125D01*
D13*
X476631Y371856D03*
D11*
X644525Y549275D02*
X654050Y558800D01*
D13*
X644525Y549275D03*
D11*
X692150Y558800D02*
X717550Y533400D01*
D13*
X717550Y533400D03*
D11*
X727075Y558800D02*
X771671Y514204D01*
D13*
X771671Y514204D03*
D11*
X777875Y546100D02*
X765175Y558800D01*
D13*
X777875Y546100D03*
X463550Y101600D03*
D11*
X352425Y101600D01*
X330200Y123825D02*
X330200Y177800D01*
D13*
X330200Y177800D03*
X339725Y419100D03*
D11*
X339725Y512572D01*
X330200Y123825D02*
X352425Y101600D01*
X339725Y512572D02*
X352425Y525272D01*
D14*
X660400Y231775D02*
X679450Y250825D01*
X660400Y231775D02*
X577850Y231775D01*
D13*
X577850Y231775D03*
X352425Y525272D03*
X317500Y317500D03*
D14*
X419834Y317500D01*
D13*
X809244Y321056D03*
D14*
X609600Y317500D02*
X419834Y317500D01*
X609600Y317500D02*
X704850Y317500D01*
X708406Y321056D02*
X809244Y321056D01*
X708406Y321056D02*
X704850Y317500D01*
D13*
X609600Y317500D03*
X419834Y317500D03*
X704850Y317500D03*
X419834Y489684D03*
X317500Y304800D03*
D14*
X429006Y304800D01*
D13*
X812800Y304800D03*
D14*
X622300Y304800D02*
X429006Y304800D01*
X622300Y304800D02*
X812800Y304800D01*
D13*
X622300Y304800D03*
D11*
X504825Y527050D02*
X473075Y527050D01*
D13*
X429006Y304800D03*
X473075Y527050D03*
X317500Y292100D03*
D14*
X635000Y292100D01*
D13*
X800100Y292100D03*
D14*
X635000Y292100D01*
D13*
X635000Y292100D03*
D11*
X555625Y377825D02*
X542925Y390525D01*
X555625Y377825D02*
X844550Y377825D01*
X850900Y371475D01*
X850900Y295275D01*
D13*
X850900Y295275D03*
X542925Y390525D03*
D11*
X542925Y527050D01*
D13*
X638907Y254000D03*
D14*
X330200Y254000D02*
X317500Y241300D01*
D13*
X317500Y241300D03*
D14*
X441325Y254000D02*
X638907Y254000D01*
X441325Y254000D02*
X330200Y254000D01*
D11*
X447210Y395859D02*
X447210Y487723D01*
D13*
X447210Y395859D03*
X441325Y254000D03*
X447210Y487723D03*
D11*
X473329Y513842D01*
X474726Y513842D01*
D13*
X474726Y513842D03*
X490728Y535079D03*
D11*
X490728Y549402D01*
X500126Y558800D02*
X511175Y558800D01*
X500126Y558800D02*
X490728Y549402D01*
D13*
X640685Y266700D03*
D14*
X431800Y266700D01*
D13*
X317500Y266700D03*
D14*
X431800Y266700D01*
D13*
X438122Y390525D03*
X431800Y266700D03*
X438122Y520672D03*
D11*
X476250Y558800D01*
X438122Y520672D02*
X438122Y390525D01*
D13*
X660400Y190500D03*
D14*
X349250Y190500D01*
X330200Y190500D01*
X317500Y203200D01*
D13*
X317500Y203200D03*
D11*
X561975Y558800D02*
X581025Y558800D01*
D13*
X362712Y498094D03*
D11*
X362712Y398582D01*
X362501Y398371D01*
D13*
X362501Y398371D03*
X349250Y190500D03*
X561975Y558800D03*
X673100Y215900D03*
D14*
X343888Y215900D01*
X327025Y215900D01*
X317500Y225425D01*
D13*
X317500Y225425D03*
X359509Y512953D03*
D11*
X350619Y512953D01*
X350619Y398653D01*
X348841Y396875D01*
D13*
X348841Y396875D03*
X343888Y215900D03*
D11*
X537464Y558800D02*
X546100Y558800D01*
X537464Y558800D02*
X536956Y558292D01*
D13*
X536956Y558292D03*
X849503Y249428D03*
D11*
X850957Y392557D02*
X647954Y392557D01*
X850957Y392557D02*
X869160Y374354D01*
X869160Y272424D01*
X849503Y252767D02*
X849503Y249428D01*
X849503Y252767D02*
X869160Y272424D01*
X598551Y441960D02*
X596773Y441960D01*
X598551Y441960D02*
X647954Y392557D01*
D13*
X596773Y441960D03*
D11*
X596773Y511048D01*
X612775Y527050D01*
D13*
X749300Y228600D03*
D14*
X749300Y266700D01*
D13*
X749300Y266700D03*
X850900Y269875D03*
D11*
X846865Y385191D02*
X616839Y385191D01*
X846865Y385191D02*
X860016Y372040D01*
X860016Y288680D01*
X850900Y279564D02*
X850900Y269875D01*
X850900Y279564D02*
X860016Y288680D01*
X616839Y385191D02*
X574294Y427736D01*
D13*
X574294Y427736D03*
D11*
X574294Y523494D02*
X577850Y527050D01*
X574294Y523494D02*
X574294Y427736D01*
D13*
X851281Y206375D03*
D11*
X857365Y409067D02*
X712851Y409067D01*
X857365Y409067D02*
X883892Y382540D01*
X851281Y217842D02*
X851281Y206375D01*
X883892Y250453D02*
X883892Y382540D01*
X883892Y250453D02*
X851281Y217842D01*
X712851Y409067D02*
X685419Y436499D01*
X685419Y447167D01*
D13*
X685419Y447167D03*
D11*
X685419Y523494D02*
X688975Y527050D01*
X685419Y523494D02*
X685419Y447167D01*
D13*
X784225Y187325D03*
D14*
X784225Y225425D01*
X787400Y228600D01*
D13*
X787400Y228600D03*
X849503Y229997D03*
D11*
X855050Y399923D02*
X666242Y399923D01*
X855050Y399923D02*
X876526Y378447D01*
X876526Y262518D01*
X849503Y235495D02*
X849503Y229997D01*
X849503Y235495D02*
X876526Y262518D01*
X666242Y399923D02*
X622808Y443357D01*
D13*
X622808Y443357D03*
D11*
X622808Y502158D02*
X647700Y527050D01*
X622808Y502158D02*
X622808Y443357D01*
D13*
X596900Y330200D03*
D14*
X317500Y330200D01*
D13*
X317500Y330200D03*
X269875Y361950D03*
D11*
X269875Y367448D01*
X270863Y368436D01*
X270863Y512163D01*
X292862Y534162D02*
X376965Y534162D01*
X388903Y546100D02*
X421894Y546100D01*
X388903Y546100D02*
X376965Y534162D01*
X421894Y546100D02*
X425069Y549275D01*
X292862Y534162D02*
X270863Y512163D01*
D13*
X425069Y549275D03*
D11*
X812800Y558800D02*
X889000Y558800D01*
D13*
X889000Y558800D03*
M02*
