G04 EAGLE Gerber RS-274X export*
G75*
%MOMM*%
%FSLAX34Y34*%
%LPD*%
%IN*%
%IPPOS*%
%AMOC8*
5,1,8,0,0,1.08239X$1,22.5*%
G01*
%ADD10C,0.254000*%


D10*
X76200Y57150D02*
X76273Y55490D01*
X76489Y53842D01*
X76849Y52220D01*
X77349Y50635D01*
X77985Y49099D01*
X78752Y47625D01*
X79645Y46223D01*
X80657Y44905D01*
X81780Y43680D01*
X83005Y42557D01*
X84323Y41545D01*
X85725Y40652D01*
X87199Y39885D01*
X88735Y39249D01*
X90320Y38749D01*
X91942Y38389D01*
X93590Y38173D01*
X95250Y38100D01*
X1079500Y38100D01*
X1081160Y38173D01*
X1082808Y38389D01*
X1084431Y38749D01*
X1086015Y39249D01*
X1087551Y39885D01*
X1089025Y40652D01*
X1090427Y41545D01*
X1091745Y42557D01*
X1092970Y43680D01*
X1094093Y44905D01*
X1095105Y46223D01*
X1095998Y47625D01*
X1096765Y49099D01*
X1097401Y50635D01*
X1097901Y52220D01*
X1098261Y53842D01*
X1098478Y55490D01*
X1098550Y57150D01*
X1098550Y558800D01*
X1098478Y560460D01*
X1098261Y562108D01*
X1097901Y563731D01*
X1097401Y565315D01*
X1096765Y566851D01*
X1095998Y568325D01*
X1095105Y569727D01*
X1094093Y571045D01*
X1092970Y572270D01*
X1091745Y573393D01*
X1090427Y574405D01*
X1089025Y575298D01*
X1087551Y576065D01*
X1086015Y576701D01*
X1084431Y577201D01*
X1082808Y577561D01*
X1081160Y577778D01*
X1079500Y577850D01*
X95250Y577850D01*
X93590Y577778D01*
X91942Y577561D01*
X90320Y577201D01*
X88735Y576701D01*
X87199Y576065D01*
X85725Y575298D01*
X84323Y574405D01*
X83005Y573393D01*
X81780Y572270D01*
X80657Y571045D01*
X79645Y569727D01*
X78752Y568325D01*
X77985Y566851D01*
X77349Y565315D01*
X76849Y563731D01*
X76489Y562108D01*
X76273Y560460D01*
X76200Y558800D01*
X76200Y57150D01*
X179815Y536330D02*
X179738Y535261D01*
X179586Y534201D01*
X179358Y533154D01*
X179056Y532126D01*
X178682Y531122D01*
X178237Y530147D01*
X177723Y529207D01*
X177144Y528305D01*
X176502Y527448D01*
X175800Y526638D01*
X175042Y525880D01*
X174233Y525179D01*
X173375Y524536D01*
X172474Y523957D01*
X171533Y523444D01*
X170559Y522999D01*
X169555Y522624D01*
X168527Y522322D01*
X167480Y522095D01*
X166419Y521942D01*
X165350Y521866D01*
X164279Y521866D01*
X163210Y521942D01*
X162150Y522095D01*
X161103Y522322D01*
X160075Y522624D01*
X159071Y522999D01*
X158096Y523444D01*
X157156Y523957D01*
X156254Y524536D01*
X155397Y525179D01*
X154587Y525880D01*
X153829Y526638D01*
X153128Y527448D01*
X152485Y528305D01*
X151906Y529207D01*
X151393Y530147D01*
X150948Y531122D01*
X150573Y532126D01*
X150271Y533154D01*
X150044Y534201D01*
X149891Y535261D01*
X149815Y536330D01*
X149815Y537401D01*
X149891Y538470D01*
X150044Y539531D01*
X150271Y540578D01*
X150573Y541606D01*
X150948Y542610D01*
X151393Y543584D01*
X151906Y544525D01*
X152485Y545426D01*
X153128Y546284D01*
X153829Y547093D01*
X154587Y547851D01*
X155397Y548553D01*
X156254Y549195D01*
X157156Y549774D01*
X158096Y550288D01*
X159071Y550733D01*
X160075Y551107D01*
X161103Y551409D01*
X162150Y551637D01*
X163210Y551789D01*
X164279Y551866D01*
X165350Y551866D01*
X166419Y551789D01*
X167480Y551637D01*
X168527Y551409D01*
X169555Y551107D01*
X170559Y550733D01*
X171533Y550288D01*
X172474Y549774D01*
X173375Y549195D01*
X174233Y548553D01*
X175042Y547851D01*
X175800Y547093D01*
X176502Y546284D01*
X177144Y545426D01*
X177723Y544525D01*
X178237Y543584D01*
X178682Y542610D01*
X179056Y541606D01*
X179358Y540578D01*
X179586Y539531D01*
X179738Y538470D01*
X179815Y537401D01*
X179815Y536330D01*
X1026025Y536330D02*
X1025948Y535261D01*
X1025796Y534201D01*
X1025568Y533154D01*
X1025266Y532126D01*
X1024892Y531122D01*
X1024447Y530147D01*
X1023933Y529207D01*
X1023354Y528305D01*
X1022712Y527448D01*
X1022010Y526638D01*
X1021252Y525880D01*
X1020443Y525179D01*
X1019585Y524536D01*
X1018684Y523957D01*
X1017743Y523444D01*
X1016769Y522999D01*
X1015765Y522624D01*
X1014737Y522322D01*
X1013690Y522095D01*
X1012629Y521942D01*
X1011560Y521866D01*
X1010489Y521866D01*
X1009420Y521942D01*
X1008360Y522095D01*
X1007313Y522322D01*
X1006285Y522624D01*
X1005281Y522999D01*
X1004306Y523444D01*
X1003366Y523957D01*
X1002464Y524536D01*
X1001607Y525179D01*
X1000797Y525880D01*
X1000039Y526638D01*
X999338Y527448D01*
X998695Y528305D01*
X998116Y529207D01*
X997603Y530147D01*
X997158Y531122D01*
X996783Y532126D01*
X996481Y533154D01*
X996254Y534201D01*
X996101Y535261D01*
X996025Y536330D01*
X996025Y537401D01*
X996101Y538470D01*
X996254Y539531D01*
X996481Y540578D01*
X996783Y541606D01*
X997158Y542610D01*
X997603Y543584D01*
X998116Y544525D01*
X998695Y545426D01*
X999338Y546284D01*
X1000039Y547093D01*
X1000797Y547851D01*
X1001607Y548553D01*
X1002464Y549195D01*
X1003366Y549774D01*
X1004306Y550288D01*
X1005281Y550733D01*
X1006285Y551107D01*
X1007313Y551409D01*
X1008360Y551637D01*
X1009420Y551789D01*
X1010489Y551866D01*
X1011560Y551866D01*
X1012629Y551789D01*
X1013690Y551637D01*
X1014737Y551409D01*
X1015765Y551107D01*
X1016769Y550733D01*
X1017743Y550288D01*
X1018684Y549774D01*
X1019585Y549195D01*
X1020443Y548553D01*
X1021252Y547851D01*
X1022010Y547093D01*
X1022712Y546284D01*
X1023354Y545426D01*
X1023933Y544525D01*
X1024447Y543584D01*
X1024892Y542610D01*
X1025266Y541606D01*
X1025568Y540578D01*
X1025796Y539531D01*
X1025948Y538470D01*
X1026025Y537401D01*
X1026025Y536330D01*
X1026025Y136330D02*
X1025948Y135261D01*
X1025796Y134201D01*
X1025568Y133154D01*
X1025266Y132126D01*
X1024892Y131122D01*
X1024447Y130147D01*
X1023933Y129207D01*
X1023354Y128305D01*
X1022712Y127448D01*
X1022010Y126638D01*
X1021252Y125880D01*
X1020443Y125179D01*
X1019585Y124536D01*
X1018684Y123957D01*
X1017743Y123444D01*
X1016769Y122999D01*
X1015765Y122624D01*
X1014737Y122322D01*
X1013690Y122095D01*
X1012629Y121942D01*
X1011560Y121866D01*
X1010489Y121866D01*
X1009420Y121942D01*
X1008360Y122095D01*
X1007313Y122322D01*
X1006285Y122624D01*
X1005281Y122999D01*
X1004306Y123444D01*
X1003366Y123957D01*
X1002464Y124536D01*
X1001607Y125179D01*
X1000797Y125880D01*
X1000039Y126638D01*
X999338Y127448D01*
X998695Y128305D01*
X998116Y129207D01*
X997603Y130147D01*
X997158Y131122D01*
X996783Y132126D01*
X996481Y133154D01*
X996254Y134201D01*
X996101Y135261D01*
X996025Y136330D01*
X996025Y137401D01*
X996101Y138470D01*
X996254Y139531D01*
X996481Y140578D01*
X996783Y141606D01*
X997158Y142610D01*
X997603Y143584D01*
X998116Y144525D01*
X998695Y145426D01*
X999338Y146284D01*
X1000039Y147093D01*
X1000797Y147851D01*
X1001607Y148553D01*
X1002464Y149195D01*
X1003366Y149774D01*
X1004306Y150288D01*
X1005281Y150733D01*
X1006285Y151107D01*
X1007313Y151409D01*
X1008360Y151637D01*
X1009420Y151789D01*
X1010489Y151866D01*
X1011560Y151866D01*
X1012629Y151789D01*
X1013690Y151637D01*
X1014737Y151409D01*
X1015765Y151107D01*
X1016769Y150733D01*
X1017743Y150288D01*
X1018684Y149774D01*
X1019585Y149195D01*
X1020443Y148553D01*
X1021252Y147851D01*
X1022010Y147093D01*
X1022712Y146284D01*
X1023354Y145426D01*
X1023933Y144525D01*
X1024447Y143584D01*
X1024892Y142610D01*
X1025266Y141606D01*
X1025568Y140578D01*
X1025796Y139531D01*
X1025948Y138470D01*
X1026025Y137401D01*
X1026025Y136330D01*
X179815Y136330D02*
X179738Y135261D01*
X179586Y134201D01*
X179358Y133154D01*
X179056Y132126D01*
X178682Y131122D01*
X178237Y130147D01*
X177723Y129207D01*
X177144Y128305D01*
X176502Y127448D01*
X175800Y126638D01*
X175042Y125880D01*
X174233Y125179D01*
X173375Y124536D01*
X172474Y123957D01*
X171533Y123444D01*
X170559Y122999D01*
X169555Y122624D01*
X168527Y122322D01*
X167480Y122095D01*
X166419Y121942D01*
X165350Y121866D01*
X164279Y121866D01*
X163210Y121942D01*
X162150Y122095D01*
X161103Y122322D01*
X160075Y122624D01*
X159071Y122999D01*
X158096Y123444D01*
X157156Y123957D01*
X156254Y124536D01*
X155397Y125179D01*
X154587Y125880D01*
X153829Y126638D01*
X153128Y127448D01*
X152485Y128305D01*
X151906Y129207D01*
X151393Y130147D01*
X150948Y131122D01*
X150573Y132126D01*
X150271Y133154D01*
X150044Y134201D01*
X149891Y135261D01*
X149815Y136330D01*
X149815Y137401D01*
X149891Y138470D01*
X150044Y139531D01*
X150271Y140578D01*
X150573Y141606D01*
X150948Y142610D01*
X151393Y143584D01*
X151906Y144525D01*
X152485Y145426D01*
X153128Y146284D01*
X153829Y147093D01*
X154587Y147851D01*
X155397Y148553D01*
X156254Y149195D01*
X157156Y149774D01*
X158096Y150288D01*
X159071Y150733D01*
X160075Y151107D01*
X161103Y151409D01*
X162150Y151637D01*
X163210Y151789D01*
X164279Y151866D01*
X165350Y151866D01*
X166419Y151789D01*
X167480Y151637D01*
X168527Y151409D01*
X169555Y151107D01*
X170559Y150733D01*
X171533Y150288D01*
X172474Y149774D01*
X173375Y149195D01*
X174233Y148553D01*
X175042Y147851D01*
X175800Y147093D01*
X176502Y146284D01*
X177144Y145426D01*
X177723Y144525D01*
X178237Y143584D01*
X178682Y142610D01*
X179056Y141606D01*
X179358Y140578D01*
X179586Y139531D01*
X179738Y138470D01*
X179815Y137401D01*
X179815Y136330D01*
M02*
