G04 EAGLE Gerber RS-274X export*
G75*
%MOMM*%
%FSLAX34Y34*%
%LPD*%
%INSilkscreen Bottom*%
%IPPOS*%
%AMOC8*
5,1,8,0,0,1.08239X$1,22.5*%
G01*
%ADD10C,0.001000*%
%ADD11C,0.076200*%


D10*
X76800Y59171D02*
X76806Y58688D01*
X76823Y58205D01*
X76853Y57722D01*
X76893Y57241D01*
X76946Y56760D01*
X77010Y56281D01*
X77085Y55804D01*
X77173Y55328D01*
X77271Y54855D01*
X77381Y54385D01*
X77502Y53917D01*
X77635Y53452D01*
X77779Y52991D01*
X77934Y52533D01*
X78100Y52079D01*
X78277Y51629D01*
X78464Y51184D01*
X78663Y50743D01*
X78871Y50307D01*
X79091Y49877D01*
X79321Y49451D01*
X79561Y49032D01*
X79811Y48618D01*
X80071Y48211D01*
X80340Y47810D01*
X80620Y47415D01*
X80908Y47028D01*
X81207Y46647D01*
X81514Y46274D01*
X81830Y45909D01*
X82155Y45551D01*
X82488Y45201D01*
X82830Y44859D01*
X83180Y44526D01*
X83538Y44201D01*
X83903Y43885D01*
X84276Y43578D01*
X84657Y43279D01*
X85044Y42991D01*
X85439Y42711D01*
X85840Y42442D01*
X86247Y42182D01*
X86661Y41932D01*
X87080Y41692D01*
X87506Y41462D01*
X87936Y41242D01*
X88372Y41034D01*
X88813Y40835D01*
X89258Y40648D01*
X89708Y40471D01*
X90162Y40305D01*
X90620Y40150D01*
X91081Y40006D01*
X91546Y39873D01*
X92014Y39752D01*
X92484Y39642D01*
X92957Y39544D01*
X93433Y39456D01*
X93910Y39381D01*
X94389Y39317D01*
X94870Y39264D01*
X95351Y39224D01*
X95834Y39194D01*
X96317Y39177D01*
X96800Y39171D01*
X149815Y536866D02*
X149820Y537234D01*
X149833Y537602D01*
X149856Y537969D01*
X149887Y538336D01*
X149928Y538702D01*
X149977Y539067D01*
X150036Y539430D01*
X150103Y539792D01*
X150179Y540153D01*
X150265Y540511D01*
X150358Y540867D01*
X150461Y541220D01*
X150572Y541571D01*
X150692Y541919D01*
X150820Y542264D01*
X150957Y542606D01*
X151102Y542945D01*
X151255Y543279D01*
X151417Y543610D01*
X151586Y543937D01*
X151764Y544259D01*
X151949Y544578D01*
X152142Y544891D01*
X152343Y545200D01*
X152551Y545503D01*
X152767Y545801D01*
X152990Y546094D01*
X153220Y546382D01*
X153457Y546664D01*
X153701Y546939D01*
X153951Y547209D01*
X154208Y547473D01*
X154472Y547730D01*
X154742Y547980D01*
X155017Y548224D01*
X155299Y548461D01*
X155587Y548691D01*
X155880Y548914D01*
X156178Y549130D01*
X156481Y549338D01*
X156790Y549539D01*
X157103Y549732D01*
X157422Y549917D01*
X157744Y550095D01*
X158071Y550264D01*
X158402Y550426D01*
X158736Y550579D01*
X159075Y550724D01*
X159417Y550861D01*
X159762Y550989D01*
X160110Y551109D01*
X160461Y551220D01*
X160814Y551323D01*
X161170Y551416D01*
X161528Y551502D01*
X161889Y551578D01*
X162251Y551645D01*
X162614Y551704D01*
X162979Y551753D01*
X163345Y551794D01*
X163712Y551825D01*
X164079Y551848D01*
X164447Y551861D01*
X164815Y551866D01*
X165183Y551861D01*
X165551Y551848D01*
X165918Y551825D01*
X166285Y551794D01*
X166651Y551753D01*
X167016Y551704D01*
X167379Y551645D01*
X167741Y551578D01*
X168102Y551502D01*
X168460Y551416D01*
X168816Y551323D01*
X169169Y551220D01*
X169520Y551109D01*
X169868Y550989D01*
X170213Y550861D01*
X170555Y550724D01*
X170894Y550579D01*
X171228Y550426D01*
X171559Y550264D01*
X171886Y550095D01*
X172208Y549917D01*
X172527Y549732D01*
X172840Y549539D01*
X173149Y549338D01*
X173452Y549130D01*
X173750Y548914D01*
X174043Y548691D01*
X174331Y548461D01*
X174613Y548224D01*
X174888Y547980D01*
X175158Y547730D01*
X175422Y547473D01*
X175679Y547209D01*
X175929Y546939D01*
X176173Y546664D01*
X176410Y546382D01*
X176640Y546094D01*
X176863Y545801D01*
X177079Y545503D01*
X177287Y545200D01*
X177488Y544891D01*
X177681Y544578D01*
X177866Y544259D01*
X178044Y543937D01*
X178213Y543610D01*
X178375Y543279D01*
X178528Y542945D01*
X178673Y542606D01*
X178810Y542264D01*
X178938Y541919D01*
X179058Y541571D01*
X179169Y541220D01*
X179272Y540867D01*
X179365Y540511D01*
X179451Y540153D01*
X179527Y539792D01*
X179594Y539430D01*
X179653Y539067D01*
X179702Y538702D01*
X179743Y538336D01*
X179774Y537969D01*
X179797Y537602D01*
X179810Y537234D01*
X179815Y536866D01*
X179810Y536498D01*
X179797Y536130D01*
X179774Y535763D01*
X179743Y535396D01*
X179702Y535030D01*
X179653Y534665D01*
X179594Y534302D01*
X179527Y533940D01*
X179451Y533579D01*
X179365Y533221D01*
X179272Y532865D01*
X179169Y532512D01*
X179058Y532161D01*
X178938Y531813D01*
X178810Y531468D01*
X178673Y531126D01*
X178528Y530787D01*
X178375Y530453D01*
X178213Y530122D01*
X178044Y529795D01*
X177866Y529473D01*
X177681Y529154D01*
X177488Y528841D01*
X177287Y528532D01*
X177079Y528229D01*
X176863Y527931D01*
X176640Y527638D01*
X176410Y527350D01*
X176173Y527068D01*
X175929Y526793D01*
X175679Y526523D01*
X175422Y526259D01*
X175158Y526002D01*
X174888Y525752D01*
X174613Y525508D01*
X174331Y525271D01*
X174043Y525041D01*
X173750Y524818D01*
X173452Y524602D01*
X173149Y524394D01*
X172840Y524193D01*
X172527Y524000D01*
X172208Y523815D01*
X171886Y523637D01*
X171559Y523468D01*
X171228Y523306D01*
X170894Y523153D01*
X170555Y523008D01*
X170213Y522871D01*
X169868Y522743D01*
X169520Y522623D01*
X169169Y522512D01*
X168816Y522409D01*
X168460Y522316D01*
X168102Y522230D01*
X167741Y522154D01*
X167379Y522087D01*
X167016Y522028D01*
X166651Y521979D01*
X166285Y521938D01*
X165918Y521907D01*
X165551Y521884D01*
X165183Y521871D01*
X164815Y521866D01*
X164447Y521871D01*
X164079Y521884D01*
X163712Y521907D01*
X163345Y521938D01*
X162979Y521979D01*
X162614Y522028D01*
X162251Y522087D01*
X161889Y522154D01*
X161528Y522230D01*
X161170Y522316D01*
X160814Y522409D01*
X160461Y522512D01*
X160110Y522623D01*
X159762Y522743D01*
X159417Y522871D01*
X159075Y523008D01*
X158736Y523153D01*
X158402Y523306D01*
X158071Y523468D01*
X157744Y523637D01*
X157422Y523815D01*
X157103Y524000D01*
X156790Y524193D01*
X156481Y524394D01*
X156178Y524602D01*
X155880Y524818D01*
X155587Y525041D01*
X155299Y525271D01*
X155017Y525508D01*
X154742Y525752D01*
X154472Y526002D01*
X154208Y526259D01*
X153951Y526523D01*
X153701Y526793D01*
X153457Y527068D01*
X153220Y527350D01*
X152990Y527638D01*
X152767Y527931D01*
X152551Y528229D01*
X152343Y528532D01*
X152142Y528841D01*
X151949Y529154D01*
X151764Y529473D01*
X151586Y529795D01*
X151417Y530122D01*
X151255Y530453D01*
X151102Y530787D01*
X150957Y531126D01*
X150820Y531468D01*
X150692Y531813D01*
X150572Y532161D01*
X150461Y532512D01*
X150358Y532865D01*
X150265Y533221D01*
X150179Y533579D01*
X150103Y533940D01*
X150036Y534302D01*
X149977Y534665D01*
X149928Y535030D01*
X149887Y535396D01*
X149856Y535763D01*
X149833Y536130D01*
X149820Y536498D01*
X149815Y536866D01*
X996025Y536866D02*
X996030Y537234D01*
X996043Y537602D01*
X996066Y537969D01*
X996097Y538336D01*
X996138Y538702D01*
X996187Y539067D01*
X996246Y539430D01*
X996313Y539792D01*
X996389Y540153D01*
X996475Y540511D01*
X996568Y540867D01*
X996671Y541220D01*
X996782Y541571D01*
X996902Y541919D01*
X997030Y542264D01*
X997167Y542606D01*
X997312Y542945D01*
X997465Y543279D01*
X997627Y543610D01*
X997796Y543937D01*
X997974Y544259D01*
X998159Y544578D01*
X998352Y544891D01*
X998553Y545200D01*
X998761Y545503D01*
X998977Y545801D01*
X999200Y546094D01*
X999430Y546382D01*
X999667Y546664D01*
X999911Y546939D01*
X1000161Y547209D01*
X1000418Y547473D01*
X1000682Y547730D01*
X1000952Y547980D01*
X1001227Y548224D01*
X1001509Y548461D01*
X1001797Y548691D01*
X1002090Y548914D01*
X1002388Y549130D01*
X1002691Y549338D01*
X1003000Y549539D01*
X1003313Y549732D01*
X1003632Y549917D01*
X1003954Y550095D01*
X1004281Y550264D01*
X1004612Y550426D01*
X1004946Y550579D01*
X1005285Y550724D01*
X1005627Y550861D01*
X1005972Y550989D01*
X1006320Y551109D01*
X1006671Y551220D01*
X1007024Y551323D01*
X1007380Y551416D01*
X1007738Y551502D01*
X1008099Y551578D01*
X1008461Y551645D01*
X1008824Y551704D01*
X1009189Y551753D01*
X1009555Y551794D01*
X1009922Y551825D01*
X1010289Y551848D01*
X1010657Y551861D01*
X1011025Y551866D01*
X1011393Y551861D01*
X1011761Y551848D01*
X1012128Y551825D01*
X1012495Y551794D01*
X1012861Y551753D01*
X1013226Y551704D01*
X1013589Y551645D01*
X1013951Y551578D01*
X1014312Y551502D01*
X1014670Y551416D01*
X1015026Y551323D01*
X1015379Y551220D01*
X1015730Y551109D01*
X1016078Y550989D01*
X1016423Y550861D01*
X1016765Y550724D01*
X1017104Y550579D01*
X1017438Y550426D01*
X1017769Y550264D01*
X1018096Y550095D01*
X1018418Y549917D01*
X1018737Y549732D01*
X1019050Y549539D01*
X1019359Y549338D01*
X1019662Y549130D01*
X1019960Y548914D01*
X1020253Y548691D01*
X1020541Y548461D01*
X1020823Y548224D01*
X1021098Y547980D01*
X1021368Y547730D01*
X1021632Y547473D01*
X1021889Y547209D01*
X1022139Y546939D01*
X1022383Y546664D01*
X1022620Y546382D01*
X1022850Y546094D01*
X1023073Y545801D01*
X1023289Y545503D01*
X1023497Y545200D01*
X1023698Y544891D01*
X1023891Y544578D01*
X1024076Y544259D01*
X1024254Y543937D01*
X1024423Y543610D01*
X1024585Y543279D01*
X1024738Y542945D01*
X1024883Y542606D01*
X1025020Y542264D01*
X1025148Y541919D01*
X1025268Y541571D01*
X1025379Y541220D01*
X1025482Y540867D01*
X1025575Y540511D01*
X1025661Y540153D01*
X1025737Y539792D01*
X1025804Y539430D01*
X1025863Y539067D01*
X1025912Y538702D01*
X1025953Y538336D01*
X1025984Y537969D01*
X1026007Y537602D01*
X1026020Y537234D01*
X1026025Y536866D01*
X1026020Y536498D01*
X1026007Y536130D01*
X1025984Y535763D01*
X1025953Y535396D01*
X1025912Y535030D01*
X1025863Y534665D01*
X1025804Y534302D01*
X1025737Y533940D01*
X1025661Y533579D01*
X1025575Y533221D01*
X1025482Y532865D01*
X1025379Y532512D01*
X1025268Y532161D01*
X1025148Y531813D01*
X1025020Y531468D01*
X1024883Y531126D01*
X1024738Y530787D01*
X1024585Y530453D01*
X1024423Y530122D01*
X1024254Y529795D01*
X1024076Y529473D01*
X1023891Y529154D01*
X1023698Y528841D01*
X1023497Y528532D01*
X1023289Y528229D01*
X1023073Y527931D01*
X1022850Y527638D01*
X1022620Y527350D01*
X1022383Y527068D01*
X1022139Y526793D01*
X1021889Y526523D01*
X1021632Y526259D01*
X1021368Y526002D01*
X1021098Y525752D01*
X1020823Y525508D01*
X1020541Y525271D01*
X1020253Y525041D01*
X1019960Y524818D01*
X1019662Y524602D01*
X1019359Y524394D01*
X1019050Y524193D01*
X1018737Y524000D01*
X1018418Y523815D01*
X1018096Y523637D01*
X1017769Y523468D01*
X1017438Y523306D01*
X1017104Y523153D01*
X1016765Y523008D01*
X1016423Y522871D01*
X1016078Y522743D01*
X1015730Y522623D01*
X1015379Y522512D01*
X1015026Y522409D01*
X1014670Y522316D01*
X1014312Y522230D01*
X1013951Y522154D01*
X1013589Y522087D01*
X1013226Y522028D01*
X1012861Y521979D01*
X1012495Y521938D01*
X1012128Y521907D01*
X1011761Y521884D01*
X1011393Y521871D01*
X1011025Y521866D01*
X1010657Y521871D01*
X1010289Y521884D01*
X1009922Y521907D01*
X1009555Y521938D01*
X1009189Y521979D01*
X1008824Y522028D01*
X1008461Y522087D01*
X1008099Y522154D01*
X1007738Y522230D01*
X1007380Y522316D01*
X1007024Y522409D01*
X1006671Y522512D01*
X1006320Y522623D01*
X1005972Y522743D01*
X1005627Y522871D01*
X1005285Y523008D01*
X1004946Y523153D01*
X1004612Y523306D01*
X1004281Y523468D01*
X1003954Y523637D01*
X1003632Y523815D01*
X1003313Y524000D01*
X1003000Y524193D01*
X1002691Y524394D01*
X1002388Y524602D01*
X1002090Y524818D01*
X1001797Y525041D01*
X1001509Y525271D01*
X1001227Y525508D01*
X1000952Y525752D01*
X1000682Y526002D01*
X1000418Y526259D01*
X1000161Y526523D01*
X999911Y526793D01*
X999667Y527068D01*
X999430Y527350D01*
X999200Y527638D01*
X998977Y527931D01*
X998761Y528229D01*
X998553Y528532D01*
X998352Y528841D01*
X998159Y529154D01*
X997974Y529473D01*
X997796Y529795D01*
X997627Y530122D01*
X997465Y530453D01*
X997312Y530787D01*
X997167Y531126D01*
X997030Y531468D01*
X996902Y531813D01*
X996782Y532161D01*
X996671Y532512D01*
X996568Y532865D01*
X996475Y533221D01*
X996389Y533579D01*
X996313Y533940D01*
X996246Y534302D01*
X996187Y534665D01*
X996138Y535030D01*
X996097Y535396D01*
X996066Y535763D01*
X996043Y536130D01*
X996030Y536498D01*
X996025Y536866D01*
X149815Y136866D02*
X149820Y137234D01*
X149833Y137602D01*
X149856Y137969D01*
X149887Y138336D01*
X149928Y138702D01*
X149977Y139067D01*
X150036Y139430D01*
X150103Y139792D01*
X150179Y140153D01*
X150265Y140511D01*
X150358Y140867D01*
X150461Y141220D01*
X150572Y141571D01*
X150692Y141919D01*
X150820Y142264D01*
X150957Y142606D01*
X151102Y142945D01*
X151255Y143279D01*
X151417Y143610D01*
X151586Y143937D01*
X151764Y144259D01*
X151949Y144578D01*
X152142Y144891D01*
X152343Y145200D01*
X152551Y145503D01*
X152767Y145801D01*
X152990Y146094D01*
X153220Y146382D01*
X153457Y146664D01*
X153701Y146939D01*
X153951Y147209D01*
X154208Y147473D01*
X154472Y147730D01*
X154742Y147980D01*
X155017Y148224D01*
X155299Y148461D01*
X155587Y148691D01*
X155880Y148914D01*
X156178Y149130D01*
X156481Y149338D01*
X156790Y149539D01*
X157103Y149732D01*
X157422Y149917D01*
X157744Y150095D01*
X158071Y150264D01*
X158402Y150426D01*
X158736Y150579D01*
X159075Y150724D01*
X159417Y150861D01*
X159762Y150989D01*
X160110Y151109D01*
X160461Y151220D01*
X160814Y151323D01*
X161170Y151416D01*
X161528Y151502D01*
X161889Y151578D01*
X162251Y151645D01*
X162614Y151704D01*
X162979Y151753D01*
X163345Y151794D01*
X163712Y151825D01*
X164079Y151848D01*
X164447Y151861D01*
X164815Y151866D01*
X165183Y151861D01*
X165551Y151848D01*
X165918Y151825D01*
X166285Y151794D01*
X166651Y151753D01*
X167016Y151704D01*
X167379Y151645D01*
X167741Y151578D01*
X168102Y151502D01*
X168460Y151416D01*
X168816Y151323D01*
X169169Y151220D01*
X169520Y151109D01*
X169868Y150989D01*
X170213Y150861D01*
X170555Y150724D01*
X170894Y150579D01*
X171228Y150426D01*
X171559Y150264D01*
X171886Y150095D01*
X172208Y149917D01*
X172527Y149732D01*
X172840Y149539D01*
X173149Y149338D01*
X173452Y149130D01*
X173750Y148914D01*
X174043Y148691D01*
X174331Y148461D01*
X174613Y148224D01*
X174888Y147980D01*
X175158Y147730D01*
X175422Y147473D01*
X175679Y147209D01*
X175929Y146939D01*
X176173Y146664D01*
X176410Y146382D01*
X176640Y146094D01*
X176863Y145801D01*
X177079Y145503D01*
X177287Y145200D01*
X177488Y144891D01*
X177681Y144578D01*
X177866Y144259D01*
X178044Y143937D01*
X178213Y143610D01*
X178375Y143279D01*
X178528Y142945D01*
X178673Y142606D01*
X178810Y142264D01*
X178938Y141919D01*
X179058Y141571D01*
X179169Y141220D01*
X179272Y140867D01*
X179365Y140511D01*
X179451Y140153D01*
X179527Y139792D01*
X179594Y139430D01*
X179653Y139067D01*
X179702Y138702D01*
X179743Y138336D01*
X179774Y137969D01*
X179797Y137602D01*
X179810Y137234D01*
X179815Y136866D01*
X179810Y136498D01*
X179797Y136130D01*
X179774Y135763D01*
X179743Y135396D01*
X179702Y135030D01*
X179653Y134665D01*
X179594Y134302D01*
X179527Y133940D01*
X179451Y133579D01*
X179365Y133221D01*
X179272Y132865D01*
X179169Y132512D01*
X179058Y132161D01*
X178938Y131813D01*
X178810Y131468D01*
X178673Y131126D01*
X178528Y130787D01*
X178375Y130453D01*
X178213Y130122D01*
X178044Y129795D01*
X177866Y129473D01*
X177681Y129154D01*
X177488Y128841D01*
X177287Y128532D01*
X177079Y128229D01*
X176863Y127931D01*
X176640Y127638D01*
X176410Y127350D01*
X176173Y127068D01*
X175929Y126793D01*
X175679Y126523D01*
X175422Y126259D01*
X175158Y126002D01*
X174888Y125752D01*
X174613Y125508D01*
X174331Y125271D01*
X174043Y125041D01*
X173750Y124818D01*
X173452Y124602D01*
X173149Y124394D01*
X172840Y124193D01*
X172527Y124000D01*
X172208Y123815D01*
X171886Y123637D01*
X171559Y123468D01*
X171228Y123306D01*
X170894Y123153D01*
X170555Y123008D01*
X170213Y122871D01*
X169868Y122743D01*
X169520Y122623D01*
X169169Y122512D01*
X168816Y122409D01*
X168460Y122316D01*
X168102Y122230D01*
X167741Y122154D01*
X167379Y122087D01*
X167016Y122028D01*
X166651Y121979D01*
X166285Y121938D01*
X165918Y121907D01*
X165551Y121884D01*
X165183Y121871D01*
X164815Y121866D01*
X164447Y121871D01*
X164079Y121884D01*
X163712Y121907D01*
X163345Y121938D01*
X162979Y121979D01*
X162614Y122028D01*
X162251Y122087D01*
X161889Y122154D01*
X161528Y122230D01*
X161170Y122316D01*
X160814Y122409D01*
X160461Y122512D01*
X160110Y122623D01*
X159762Y122743D01*
X159417Y122871D01*
X159075Y123008D01*
X158736Y123153D01*
X158402Y123306D01*
X158071Y123468D01*
X157744Y123637D01*
X157422Y123815D01*
X157103Y124000D01*
X156790Y124193D01*
X156481Y124394D01*
X156178Y124602D01*
X155880Y124818D01*
X155587Y125041D01*
X155299Y125271D01*
X155017Y125508D01*
X154742Y125752D01*
X154472Y126002D01*
X154208Y126259D01*
X153951Y126523D01*
X153701Y126793D01*
X153457Y127068D01*
X153220Y127350D01*
X152990Y127638D01*
X152767Y127931D01*
X152551Y128229D01*
X152343Y128532D01*
X152142Y128841D01*
X151949Y129154D01*
X151764Y129473D01*
X151586Y129795D01*
X151417Y130122D01*
X151255Y130453D01*
X151102Y130787D01*
X150957Y131126D01*
X150820Y131468D01*
X150692Y131813D01*
X150572Y132161D01*
X150461Y132512D01*
X150358Y132865D01*
X150265Y133221D01*
X150179Y133579D01*
X150103Y133940D01*
X150036Y134302D01*
X149977Y134665D01*
X149928Y135030D01*
X149887Y135396D01*
X149856Y135763D01*
X149833Y136130D01*
X149820Y136498D01*
X149815Y136866D01*
X933777Y577151D02*
X1078540Y577151D01*
X948540Y58101D02*
X948540Y56451D01*
X948535Y56034D01*
X948520Y55616D01*
X948495Y55200D01*
X948460Y54784D01*
X948415Y54369D01*
X948359Y53955D01*
X948294Y53543D01*
X948219Y53132D01*
X948134Y52723D01*
X948039Y52317D01*
X947935Y51913D01*
X947820Y51511D01*
X947696Y51112D01*
X947562Y50717D01*
X947419Y50325D01*
X947267Y49936D01*
X947105Y49552D01*
X946933Y49171D01*
X946753Y48794D01*
X946564Y48422D01*
X946365Y48055D01*
X946158Y47693D01*
X945942Y47335D01*
X945718Y46983D01*
X945485Y46637D01*
X945244Y46296D01*
X944994Y45961D01*
X944737Y45633D01*
X944472Y45310D01*
X944199Y44994D01*
X943918Y44685D01*
X943630Y44383D01*
X943335Y44088D01*
X943033Y43799D01*
X942724Y43519D01*
X942408Y43246D01*
X942086Y42980D01*
X941758Y42723D01*
X941423Y42473D01*
X941082Y42232D01*
X940736Y41999D01*
X940384Y41774D01*
X940027Y41558D01*
X939665Y41351D01*
X939298Y41152D01*
X938926Y40962D01*
X938549Y40782D01*
X938169Y40610D01*
X937784Y40448D01*
X937395Y40295D01*
X937003Y40152D01*
X936608Y40018D01*
X936210Y39894D01*
X935808Y39779D01*
X935404Y39674D01*
X934998Y39579D01*
X934589Y39494D01*
X934178Y39418D01*
X933766Y39353D01*
X933352Y39298D01*
X932937Y39252D01*
X932521Y39217D01*
X932105Y39191D01*
X931687Y39176D01*
X931270Y39171D01*
X1078540Y39171D02*
X1079023Y39177D01*
X1079506Y39194D01*
X1079989Y39224D01*
X1080470Y39264D01*
X1080951Y39317D01*
X1081430Y39381D01*
X1081907Y39456D01*
X1082383Y39544D01*
X1082856Y39642D01*
X1083326Y39752D01*
X1083794Y39873D01*
X1084259Y40006D01*
X1084720Y40150D01*
X1085178Y40305D01*
X1085632Y40471D01*
X1086082Y40648D01*
X1086527Y40835D01*
X1086968Y41034D01*
X1087404Y41242D01*
X1087834Y41462D01*
X1088260Y41692D01*
X1088679Y41932D01*
X1089093Y42182D01*
X1089500Y42442D01*
X1089901Y42711D01*
X1090296Y42991D01*
X1090683Y43279D01*
X1091064Y43578D01*
X1091437Y43885D01*
X1091802Y44201D01*
X1092160Y44526D01*
X1092510Y44859D01*
X1092852Y45201D01*
X1093185Y45551D01*
X1093510Y45909D01*
X1093826Y46274D01*
X1094133Y46647D01*
X1094432Y47028D01*
X1094720Y47415D01*
X1095000Y47810D01*
X1095269Y48211D01*
X1095529Y48618D01*
X1095779Y49032D01*
X1096019Y49451D01*
X1096249Y49877D01*
X1096469Y50307D01*
X1096677Y50743D01*
X1096876Y51184D01*
X1097063Y51629D01*
X1097240Y52079D01*
X1097406Y52533D01*
X1097561Y52991D01*
X1097705Y53452D01*
X1097838Y53917D01*
X1097959Y54385D01*
X1098069Y54855D01*
X1098167Y55328D01*
X1098255Y55804D01*
X1098330Y56281D01*
X1098394Y56760D01*
X1098447Y57241D01*
X1098487Y57722D01*
X1098517Y58205D01*
X1098534Y58688D01*
X1098540Y59171D01*
X1098540Y557151D01*
X1098534Y557634D01*
X1098517Y558117D01*
X1098487Y558600D01*
X1098447Y559081D01*
X1098394Y559562D01*
X1098330Y560041D01*
X1098255Y560518D01*
X1098167Y560994D01*
X1098069Y561467D01*
X1097959Y561937D01*
X1097838Y562405D01*
X1097705Y562870D01*
X1097561Y563331D01*
X1097406Y563789D01*
X1097240Y564243D01*
X1097063Y564693D01*
X1096876Y565138D01*
X1096677Y565579D01*
X1096469Y566015D01*
X1096249Y566445D01*
X1096019Y566871D01*
X1095779Y567290D01*
X1095529Y567704D01*
X1095269Y568111D01*
X1095000Y568512D01*
X1094720Y568907D01*
X1094432Y569294D01*
X1094133Y569675D01*
X1093826Y570048D01*
X1093510Y570413D01*
X1093185Y570771D01*
X1092852Y571121D01*
X1092510Y571463D01*
X1092160Y571796D01*
X1091802Y572121D01*
X1091437Y572437D01*
X1091064Y572744D01*
X1090683Y573043D01*
X1090296Y573331D01*
X1089901Y573611D01*
X1089500Y573880D01*
X1089093Y574140D01*
X1088679Y574390D01*
X1088260Y574630D01*
X1087834Y574860D01*
X1087404Y575080D01*
X1086968Y575288D01*
X1086527Y575487D01*
X1086082Y575674D01*
X1085632Y575851D01*
X1085178Y576017D01*
X1084720Y576172D01*
X1084259Y576316D01*
X1083794Y576449D01*
X1083326Y576570D01*
X1082856Y576680D01*
X1082383Y576778D01*
X1081907Y576866D01*
X1081430Y576941D01*
X1080951Y577005D01*
X1080470Y577058D01*
X1079989Y577098D01*
X1079506Y577128D01*
X1079023Y577145D01*
X1078540Y577151D01*
X244070Y577151D02*
X96800Y577151D01*
X96317Y577145D01*
X95834Y577128D01*
X95351Y577098D01*
X94870Y577058D01*
X94389Y577005D01*
X93910Y576941D01*
X93433Y576866D01*
X92957Y576778D01*
X92484Y576680D01*
X92014Y576570D01*
X91546Y576449D01*
X91081Y576316D01*
X90620Y576172D01*
X90162Y576017D01*
X89708Y575851D01*
X89258Y575674D01*
X88813Y575487D01*
X88372Y575288D01*
X87936Y575080D01*
X87506Y574860D01*
X87080Y574630D01*
X86661Y574390D01*
X86247Y574140D01*
X85840Y573880D01*
X85439Y573611D01*
X85044Y573331D01*
X84657Y573043D01*
X84276Y572744D01*
X83903Y572437D01*
X83538Y572121D01*
X83180Y571796D01*
X82830Y571463D01*
X82488Y571121D01*
X82155Y570771D01*
X81830Y570413D01*
X81514Y570048D01*
X81207Y569675D01*
X80908Y569294D01*
X80620Y568907D01*
X80340Y568512D01*
X80071Y568111D01*
X79811Y567704D01*
X79561Y567290D01*
X79321Y566871D01*
X79091Y566445D01*
X78871Y566015D01*
X78663Y565579D01*
X78464Y565138D01*
X78277Y564693D01*
X78100Y564243D01*
X77934Y563789D01*
X77779Y563331D01*
X77635Y562870D01*
X77502Y562405D01*
X77381Y561937D01*
X77271Y561467D01*
X77173Y560994D01*
X77085Y560518D01*
X77010Y560041D01*
X76946Y559562D01*
X76893Y559081D01*
X76853Y558600D01*
X76823Y558117D01*
X76806Y557634D01*
X76800Y557151D01*
X76800Y59171D01*
X96800Y39171D02*
X929610Y39171D01*
X996025Y136866D02*
X996030Y137234D01*
X996043Y137602D01*
X996066Y137969D01*
X996097Y138336D01*
X996138Y138702D01*
X996187Y139067D01*
X996246Y139430D01*
X996313Y139792D01*
X996389Y140153D01*
X996475Y140511D01*
X996568Y140867D01*
X996671Y141220D01*
X996782Y141571D01*
X996902Y141919D01*
X997030Y142264D01*
X997167Y142606D01*
X997312Y142945D01*
X997465Y143279D01*
X997627Y143610D01*
X997796Y143937D01*
X997974Y144259D01*
X998159Y144578D01*
X998352Y144891D01*
X998553Y145200D01*
X998761Y145503D01*
X998977Y145801D01*
X999200Y146094D01*
X999430Y146382D01*
X999667Y146664D01*
X999911Y146939D01*
X1000161Y147209D01*
X1000418Y147473D01*
X1000682Y147730D01*
X1000952Y147980D01*
X1001227Y148224D01*
X1001509Y148461D01*
X1001797Y148691D01*
X1002090Y148914D01*
X1002388Y149130D01*
X1002691Y149338D01*
X1003000Y149539D01*
X1003313Y149732D01*
X1003632Y149917D01*
X1003954Y150095D01*
X1004281Y150264D01*
X1004612Y150426D01*
X1004946Y150579D01*
X1005285Y150724D01*
X1005627Y150861D01*
X1005972Y150989D01*
X1006320Y151109D01*
X1006671Y151220D01*
X1007024Y151323D01*
X1007380Y151416D01*
X1007738Y151502D01*
X1008099Y151578D01*
X1008461Y151645D01*
X1008824Y151704D01*
X1009189Y151753D01*
X1009555Y151794D01*
X1009922Y151825D01*
X1010289Y151848D01*
X1010657Y151861D01*
X1011025Y151866D01*
X1011393Y151861D01*
X1011761Y151848D01*
X1012128Y151825D01*
X1012495Y151794D01*
X1012861Y151753D01*
X1013226Y151704D01*
X1013589Y151645D01*
X1013951Y151578D01*
X1014312Y151502D01*
X1014670Y151416D01*
X1015026Y151323D01*
X1015379Y151220D01*
X1015730Y151109D01*
X1016078Y150989D01*
X1016423Y150861D01*
X1016765Y150724D01*
X1017104Y150579D01*
X1017438Y150426D01*
X1017769Y150264D01*
X1018096Y150095D01*
X1018418Y149917D01*
X1018737Y149732D01*
X1019050Y149539D01*
X1019359Y149338D01*
X1019662Y149130D01*
X1019960Y148914D01*
X1020253Y148691D01*
X1020541Y148461D01*
X1020823Y148224D01*
X1021098Y147980D01*
X1021368Y147730D01*
X1021632Y147473D01*
X1021889Y147209D01*
X1022139Y146939D01*
X1022383Y146664D01*
X1022620Y146382D01*
X1022850Y146094D01*
X1023073Y145801D01*
X1023289Y145503D01*
X1023497Y145200D01*
X1023698Y144891D01*
X1023891Y144578D01*
X1024076Y144259D01*
X1024254Y143937D01*
X1024423Y143610D01*
X1024585Y143279D01*
X1024738Y142945D01*
X1024883Y142606D01*
X1025020Y142264D01*
X1025148Y141919D01*
X1025268Y141571D01*
X1025379Y141220D01*
X1025482Y140867D01*
X1025575Y140511D01*
X1025661Y140153D01*
X1025737Y139792D01*
X1025804Y139430D01*
X1025863Y139067D01*
X1025912Y138702D01*
X1025953Y138336D01*
X1025984Y137969D01*
X1026007Y137602D01*
X1026020Y137234D01*
X1026025Y136866D01*
X1026020Y136498D01*
X1026007Y136130D01*
X1025984Y135763D01*
X1025953Y135396D01*
X1025912Y135030D01*
X1025863Y134665D01*
X1025804Y134302D01*
X1025737Y133940D01*
X1025661Y133579D01*
X1025575Y133221D01*
X1025482Y132865D01*
X1025379Y132512D01*
X1025268Y132161D01*
X1025148Y131813D01*
X1025020Y131468D01*
X1024883Y131126D01*
X1024738Y130787D01*
X1024585Y130453D01*
X1024423Y130122D01*
X1024254Y129795D01*
X1024076Y129473D01*
X1023891Y129154D01*
X1023698Y128841D01*
X1023497Y128532D01*
X1023289Y128229D01*
X1023073Y127931D01*
X1022850Y127638D01*
X1022620Y127350D01*
X1022383Y127068D01*
X1022139Y126793D01*
X1021889Y126523D01*
X1021632Y126259D01*
X1021368Y126002D01*
X1021098Y125752D01*
X1020823Y125508D01*
X1020541Y125271D01*
X1020253Y125041D01*
X1019960Y124818D01*
X1019662Y124602D01*
X1019359Y124394D01*
X1019050Y124193D01*
X1018737Y124000D01*
X1018418Y123815D01*
X1018096Y123637D01*
X1017769Y123468D01*
X1017438Y123306D01*
X1017104Y123153D01*
X1016765Y123008D01*
X1016423Y122871D01*
X1016078Y122743D01*
X1015730Y122623D01*
X1015379Y122512D01*
X1015026Y122409D01*
X1014670Y122316D01*
X1014312Y122230D01*
X1013951Y122154D01*
X1013589Y122087D01*
X1013226Y122028D01*
X1012861Y121979D01*
X1012495Y121938D01*
X1012128Y121907D01*
X1011761Y121884D01*
X1011393Y121871D01*
X1011025Y121866D01*
X1010657Y121871D01*
X1010289Y121884D01*
X1009922Y121907D01*
X1009555Y121938D01*
X1009189Y121979D01*
X1008824Y122028D01*
X1008461Y122087D01*
X1008099Y122154D01*
X1007738Y122230D01*
X1007380Y122316D01*
X1007024Y122409D01*
X1006671Y122512D01*
X1006320Y122623D01*
X1005972Y122743D01*
X1005627Y122871D01*
X1005285Y123008D01*
X1004946Y123153D01*
X1004612Y123306D01*
X1004281Y123468D01*
X1003954Y123637D01*
X1003632Y123815D01*
X1003313Y124000D01*
X1003000Y124193D01*
X1002691Y124394D01*
X1002388Y124602D01*
X1002090Y124818D01*
X1001797Y125041D01*
X1001509Y125271D01*
X1001227Y125508D01*
X1000952Y125752D01*
X1000682Y126002D01*
X1000418Y126259D01*
X1000161Y126523D01*
X999911Y126793D01*
X999667Y127068D01*
X999430Y127350D01*
X999200Y127638D01*
X998977Y127931D01*
X998761Y128229D01*
X998553Y128532D01*
X998352Y128841D01*
X998159Y129154D01*
X997974Y129473D01*
X997796Y129795D01*
X997627Y130122D01*
X997465Y130453D01*
X997312Y130787D01*
X997167Y131126D01*
X997030Y131468D01*
X996902Y131813D01*
X996782Y132161D01*
X996671Y132512D01*
X996568Y132865D01*
X996475Y133221D01*
X996389Y133579D01*
X996313Y133940D01*
X996246Y134302D01*
X996187Y134665D01*
X996138Y135030D01*
X996097Y135396D01*
X996066Y135763D01*
X996043Y136130D01*
X996030Y136498D01*
X996025Y136866D01*
X931270Y39171D02*
X1078540Y39171D01*
X931770Y577271D02*
X244070Y577151D01*
X931770Y577271D02*
X932172Y577266D01*
X932575Y577252D01*
X932976Y577228D01*
X933377Y577194D01*
X933777Y577151D01*
X948540Y58101D02*
X948534Y57644D01*
X948518Y57186D01*
X948490Y56730D01*
X948452Y56274D01*
X948402Y55819D01*
X948341Y55366D01*
X948270Y54914D01*
X948187Y54464D01*
X948094Y54016D01*
X947990Y53571D01*
X947875Y53128D01*
X947750Y52688D01*
X947613Y52251D01*
X947467Y51818D01*
X947310Y51388D01*
X947142Y50963D01*
X946965Y50541D01*
X946777Y50124D01*
X946579Y49711D01*
X946372Y49304D01*
X946154Y48901D01*
X945927Y48504D01*
X945690Y48113D01*
X945444Y47727D01*
X945189Y47348D01*
X944925Y46974D01*
X944651Y46607D01*
X944369Y46247D01*
X944078Y45894D01*
X943779Y45548D01*
X943472Y45209D01*
X943156Y44878D01*
X942833Y44555D01*
X942502Y44239D01*
X942163Y43932D01*
X941817Y43633D01*
X941464Y43342D01*
X941104Y43060D01*
X940737Y42786D01*
X940363Y42522D01*
X939984Y42267D01*
X939598Y42021D01*
X939207Y41784D01*
X938810Y41557D01*
X938407Y41339D01*
X938000Y41132D01*
X937587Y40934D01*
X937170Y40746D01*
X936748Y40569D01*
X936323Y40401D01*
X935893Y40244D01*
X935460Y40098D01*
X935023Y39961D01*
X934583Y39836D01*
X934140Y39721D01*
X933695Y39617D01*
X933247Y39524D01*
X932797Y39441D01*
X932345Y39370D01*
X931892Y39309D01*
X931437Y39259D01*
X930981Y39221D01*
X930525Y39193D01*
X930067Y39177D01*
X929610Y39171D01*
X252830Y190051D02*
X252830Y483681D01*
X283310Y483681D01*
X283310Y190051D02*
X252830Y190051D01*
X283310Y190051D02*
X283310Y483681D01*
X841380Y550421D02*
X895380Y550421D01*
X895380Y135421D02*
X841380Y135421D01*
X841380Y550421D01*
X895380Y550421D02*
X895380Y135421D01*
X336370Y137951D02*
X336370Y83951D01*
X751370Y83951D02*
X751370Y137951D01*
X336370Y137951D01*
X336370Y83951D02*
X751370Y83951D01*
D11*
X320294Y540131D02*
X320294Y549529D01*
X320294Y545352D02*
X315073Y545352D01*
X315073Y549529D02*
X315073Y540131D01*
X310846Y544830D02*
X310844Y545015D01*
X310837Y545200D01*
X310826Y545384D01*
X310811Y545568D01*
X310791Y545752D01*
X310767Y545936D01*
X310738Y546118D01*
X310705Y546300D01*
X310668Y546481D01*
X310626Y546661D01*
X310580Y546841D01*
X310530Y547019D01*
X310476Y547195D01*
X310417Y547371D01*
X310355Y547545D01*
X310288Y547717D01*
X310217Y547888D01*
X310142Y548057D01*
X310063Y548224D01*
X310033Y548304D01*
X310000Y548383D01*
X309963Y548460D01*
X309923Y548536D01*
X309880Y548610D01*
X309834Y548682D01*
X309784Y548751D01*
X309732Y548819D01*
X309676Y548884D01*
X309618Y548947D01*
X309556Y549006D01*
X309493Y549064D01*
X309426Y549118D01*
X309358Y549169D01*
X309287Y549217D01*
X309214Y549262D01*
X309140Y549304D01*
X309063Y549342D01*
X308985Y549377D01*
X308906Y549409D01*
X308825Y549437D01*
X308743Y549461D01*
X308659Y549482D01*
X308576Y549499D01*
X308491Y549512D01*
X308406Y549521D01*
X308321Y549527D01*
X308235Y549529D01*
X308149Y549527D01*
X308064Y549521D01*
X307979Y549512D01*
X307894Y549499D01*
X307811Y549482D01*
X307727Y549461D01*
X307645Y549437D01*
X307565Y549409D01*
X307485Y549377D01*
X307407Y549342D01*
X307330Y549304D01*
X307256Y549262D01*
X307183Y549217D01*
X307112Y549169D01*
X307044Y549118D01*
X306977Y549064D01*
X306914Y549006D01*
X306853Y548947D01*
X306794Y548884D01*
X306739Y548819D01*
X306686Y548751D01*
X306636Y548682D01*
X306590Y548610D01*
X306547Y548536D01*
X306507Y548460D01*
X306470Y548383D01*
X306437Y548304D01*
X306407Y548224D01*
X306328Y548057D01*
X306253Y547888D01*
X306182Y547717D01*
X306115Y547545D01*
X306053Y547371D01*
X305994Y547195D01*
X305940Y547019D01*
X305890Y546841D01*
X305844Y546661D01*
X305802Y546481D01*
X305765Y546300D01*
X305732Y546118D01*
X305703Y545936D01*
X305679Y545752D01*
X305659Y545568D01*
X305644Y545384D01*
X305633Y545200D01*
X305626Y545015D01*
X305624Y544830D01*
X310845Y544830D02*
X310843Y544645D01*
X310836Y544460D01*
X310825Y544276D01*
X310810Y544092D01*
X310790Y543908D01*
X310766Y543724D01*
X310737Y543542D01*
X310704Y543360D01*
X310667Y543179D01*
X310625Y542999D01*
X310579Y542819D01*
X310529Y542641D01*
X310475Y542465D01*
X310416Y542289D01*
X310354Y542115D01*
X310287Y541943D01*
X310216Y541772D01*
X310141Y541603D01*
X310062Y541436D01*
X310063Y541436D02*
X310033Y541356D01*
X310000Y541277D01*
X309963Y541200D01*
X309923Y541124D01*
X309880Y541050D01*
X309834Y540978D01*
X309784Y540909D01*
X309731Y540841D01*
X309676Y540776D01*
X309617Y540713D01*
X309556Y540654D01*
X309493Y540596D01*
X309426Y540542D01*
X309358Y540491D01*
X309287Y540443D01*
X309214Y540398D01*
X309140Y540356D01*
X309063Y540318D01*
X308985Y540283D01*
X308906Y540251D01*
X308825Y540223D01*
X308743Y540199D01*
X308659Y540178D01*
X308576Y540161D01*
X308491Y540148D01*
X308406Y540139D01*
X308321Y540133D01*
X308235Y540131D01*
X306407Y541436D02*
X306328Y541603D01*
X306253Y541772D01*
X306182Y541943D01*
X306115Y542115D01*
X306053Y542289D01*
X305994Y542465D01*
X305940Y542641D01*
X305890Y542819D01*
X305844Y542999D01*
X305802Y543179D01*
X305765Y543360D01*
X305732Y543542D01*
X305703Y543724D01*
X305679Y543908D01*
X305659Y544092D01*
X305644Y544276D01*
X305633Y544460D01*
X305626Y544645D01*
X305624Y544830D01*
X306407Y541436D02*
X306437Y541356D01*
X306470Y541277D01*
X306507Y541200D01*
X306547Y541124D01*
X306590Y541050D01*
X306636Y540978D01*
X306686Y540909D01*
X306739Y540841D01*
X306794Y540776D01*
X306853Y540713D01*
X306914Y540654D01*
X306977Y540596D01*
X307044Y540542D01*
X307112Y540491D01*
X307183Y540443D01*
X307256Y540398D01*
X307330Y540356D01*
X307407Y540318D01*
X307485Y540283D01*
X307565Y540251D01*
X307645Y540223D01*
X307727Y540199D01*
X307811Y540178D01*
X307894Y540161D01*
X307979Y540148D01*
X308064Y540139D01*
X308149Y540133D01*
X308235Y540131D01*
X310323Y542219D02*
X306146Y547441D01*
X301614Y543786D02*
X295348Y543786D01*
X298481Y540653D02*
X298481Y546918D01*
X355219Y549529D02*
X355219Y540131D01*
X355219Y545352D02*
X349998Y545352D01*
X349998Y549529D02*
X349998Y540131D01*
X345771Y544830D02*
X345769Y545015D01*
X345762Y545200D01*
X345751Y545384D01*
X345736Y545568D01*
X345716Y545752D01*
X345692Y545936D01*
X345663Y546118D01*
X345630Y546300D01*
X345593Y546481D01*
X345551Y546661D01*
X345505Y546841D01*
X345455Y547019D01*
X345401Y547195D01*
X345342Y547371D01*
X345280Y547545D01*
X345213Y547717D01*
X345142Y547888D01*
X345067Y548057D01*
X344988Y548224D01*
X344958Y548304D01*
X344925Y548383D01*
X344888Y548460D01*
X344848Y548536D01*
X344805Y548610D01*
X344759Y548682D01*
X344709Y548751D01*
X344657Y548819D01*
X344601Y548884D01*
X344543Y548947D01*
X344481Y549006D01*
X344418Y549064D01*
X344351Y549118D01*
X344283Y549169D01*
X344212Y549217D01*
X344139Y549262D01*
X344065Y549304D01*
X343988Y549342D01*
X343910Y549377D01*
X343831Y549409D01*
X343750Y549437D01*
X343668Y549461D01*
X343584Y549482D01*
X343501Y549499D01*
X343416Y549512D01*
X343331Y549521D01*
X343246Y549527D01*
X343160Y549529D01*
X343074Y549527D01*
X342989Y549521D01*
X342904Y549512D01*
X342819Y549499D01*
X342736Y549482D01*
X342652Y549461D01*
X342570Y549437D01*
X342490Y549409D01*
X342410Y549377D01*
X342332Y549342D01*
X342255Y549304D01*
X342181Y549262D01*
X342108Y549217D01*
X342037Y549169D01*
X341969Y549118D01*
X341902Y549064D01*
X341839Y549006D01*
X341778Y548947D01*
X341719Y548884D01*
X341664Y548819D01*
X341611Y548751D01*
X341561Y548682D01*
X341515Y548610D01*
X341472Y548536D01*
X341432Y548460D01*
X341395Y548383D01*
X341362Y548304D01*
X341332Y548224D01*
X341253Y548057D01*
X341178Y547888D01*
X341107Y547717D01*
X341040Y547545D01*
X340978Y547371D01*
X340919Y547195D01*
X340865Y547019D01*
X340815Y546841D01*
X340769Y546661D01*
X340727Y546481D01*
X340690Y546300D01*
X340657Y546118D01*
X340628Y545936D01*
X340604Y545752D01*
X340584Y545568D01*
X340569Y545384D01*
X340558Y545200D01*
X340551Y545015D01*
X340549Y544830D01*
X345770Y544830D02*
X345768Y544645D01*
X345761Y544460D01*
X345750Y544276D01*
X345735Y544092D01*
X345715Y543908D01*
X345691Y543724D01*
X345662Y543542D01*
X345629Y543360D01*
X345592Y543179D01*
X345550Y542999D01*
X345504Y542819D01*
X345454Y542641D01*
X345400Y542465D01*
X345341Y542289D01*
X345279Y542115D01*
X345212Y541943D01*
X345141Y541772D01*
X345066Y541603D01*
X344987Y541436D01*
X344988Y541436D02*
X344958Y541356D01*
X344925Y541277D01*
X344888Y541200D01*
X344848Y541124D01*
X344805Y541050D01*
X344759Y540978D01*
X344709Y540909D01*
X344656Y540841D01*
X344601Y540776D01*
X344542Y540713D01*
X344481Y540654D01*
X344418Y540596D01*
X344351Y540542D01*
X344283Y540491D01*
X344212Y540443D01*
X344139Y540398D01*
X344065Y540356D01*
X343988Y540318D01*
X343910Y540283D01*
X343831Y540251D01*
X343750Y540223D01*
X343668Y540199D01*
X343584Y540178D01*
X343501Y540161D01*
X343416Y540148D01*
X343331Y540139D01*
X343246Y540133D01*
X343160Y540131D01*
X341332Y541436D02*
X341253Y541603D01*
X341178Y541772D01*
X341107Y541943D01*
X341040Y542115D01*
X340978Y542289D01*
X340919Y542465D01*
X340865Y542641D01*
X340815Y542819D01*
X340769Y542999D01*
X340727Y543179D01*
X340690Y543360D01*
X340657Y543542D01*
X340628Y543724D01*
X340604Y543908D01*
X340584Y544092D01*
X340569Y544276D01*
X340558Y544460D01*
X340551Y544645D01*
X340549Y544830D01*
X341332Y541436D02*
X341362Y541356D01*
X341395Y541277D01*
X341432Y541200D01*
X341472Y541124D01*
X341515Y541050D01*
X341561Y540978D01*
X341611Y540909D01*
X341664Y540841D01*
X341719Y540776D01*
X341778Y540713D01*
X341839Y540654D01*
X341902Y540596D01*
X341969Y540542D01*
X342037Y540491D01*
X342108Y540443D01*
X342181Y540398D01*
X342255Y540356D01*
X342332Y540318D01*
X342410Y540283D01*
X342490Y540251D01*
X342570Y540223D01*
X342652Y540199D01*
X342736Y540178D01*
X342819Y540161D01*
X342904Y540148D01*
X342989Y540139D01*
X343074Y540133D01*
X343160Y540131D01*
X345248Y542219D02*
X341071Y547441D01*
X336539Y543786D02*
X330273Y543786D01*
X393319Y540131D02*
X393319Y549529D01*
X390708Y549529D01*
X390607Y549527D01*
X390506Y549521D01*
X390405Y549511D01*
X390305Y549498D01*
X390205Y549480D01*
X390106Y549459D01*
X390008Y549433D01*
X389911Y549404D01*
X389815Y549372D01*
X389721Y549335D01*
X389628Y549295D01*
X389536Y549251D01*
X389447Y549204D01*
X389359Y549153D01*
X389273Y549099D01*
X389190Y549042D01*
X389108Y548982D01*
X389030Y548918D01*
X388953Y548852D01*
X388880Y548782D01*
X388809Y548710D01*
X388741Y548635D01*
X388676Y548557D01*
X388614Y548477D01*
X388555Y548395D01*
X388499Y548310D01*
X388447Y548224D01*
X388398Y548135D01*
X388352Y548044D01*
X388311Y547952D01*
X388272Y547858D01*
X388238Y547763D01*
X388207Y547667D01*
X388180Y547569D01*
X388156Y547471D01*
X388137Y547371D01*
X388121Y547271D01*
X388109Y547171D01*
X388101Y547070D01*
X388097Y546969D01*
X388097Y546867D01*
X388101Y546766D01*
X388109Y546665D01*
X388121Y546565D01*
X388137Y546465D01*
X388156Y546365D01*
X388180Y546267D01*
X388207Y546169D01*
X388238Y546073D01*
X388272Y545978D01*
X388311Y545884D01*
X388352Y545792D01*
X388398Y545701D01*
X388447Y545613D01*
X388499Y545526D01*
X388555Y545441D01*
X388614Y545359D01*
X388676Y545279D01*
X388741Y545201D01*
X388809Y545126D01*
X388880Y545054D01*
X388953Y544984D01*
X389030Y544918D01*
X389108Y544854D01*
X389190Y544794D01*
X389273Y544737D01*
X389359Y544683D01*
X389447Y544632D01*
X389536Y544585D01*
X389628Y544541D01*
X389721Y544501D01*
X389815Y544464D01*
X389911Y544432D01*
X390008Y544403D01*
X390106Y544377D01*
X390205Y544356D01*
X390305Y544338D01*
X390405Y544325D01*
X390506Y544315D01*
X390607Y544309D01*
X390708Y544307D01*
X390708Y544308D02*
X393319Y544308D01*
X382610Y540131D02*
X382610Y549529D01*
X380000Y549529D02*
X385221Y549529D01*
X375904Y548224D02*
X375983Y548057D01*
X376058Y547888D01*
X376129Y547717D01*
X376196Y547545D01*
X376258Y547371D01*
X376317Y547195D01*
X376371Y547019D01*
X376421Y546841D01*
X376467Y546661D01*
X376509Y546481D01*
X376546Y546300D01*
X376579Y546118D01*
X376608Y545936D01*
X376632Y545752D01*
X376652Y545568D01*
X376667Y545384D01*
X376678Y545200D01*
X376685Y545015D01*
X376687Y544830D01*
X375904Y548224D02*
X375874Y548304D01*
X375841Y548383D01*
X375804Y548460D01*
X375764Y548536D01*
X375721Y548610D01*
X375675Y548682D01*
X375625Y548751D01*
X375573Y548819D01*
X375517Y548884D01*
X375459Y548947D01*
X375397Y549006D01*
X375334Y549064D01*
X375267Y549118D01*
X375199Y549169D01*
X375128Y549217D01*
X375055Y549262D01*
X374981Y549304D01*
X374904Y549342D01*
X374826Y549377D01*
X374747Y549409D01*
X374666Y549437D01*
X374584Y549461D01*
X374500Y549482D01*
X374417Y549499D01*
X374332Y549512D01*
X374247Y549521D01*
X374162Y549527D01*
X374076Y549529D01*
X373990Y549527D01*
X373905Y549521D01*
X373820Y549512D01*
X373735Y549499D01*
X373652Y549482D01*
X373568Y549461D01*
X373486Y549437D01*
X373406Y549409D01*
X373326Y549377D01*
X373248Y549342D01*
X373171Y549304D01*
X373097Y549262D01*
X373024Y549217D01*
X372953Y549169D01*
X372885Y549118D01*
X372818Y549064D01*
X372755Y549006D01*
X372694Y548947D01*
X372635Y548884D01*
X372580Y548819D01*
X372527Y548751D01*
X372477Y548682D01*
X372431Y548610D01*
X372388Y548536D01*
X372348Y548460D01*
X372311Y548383D01*
X372278Y548304D01*
X372248Y548224D01*
X372169Y548057D01*
X372094Y547888D01*
X372023Y547717D01*
X371956Y547545D01*
X371894Y547371D01*
X371835Y547195D01*
X371781Y547019D01*
X371731Y546841D01*
X371685Y546661D01*
X371643Y546481D01*
X371606Y546300D01*
X371573Y546118D01*
X371544Y545936D01*
X371520Y545752D01*
X371500Y545568D01*
X371485Y545384D01*
X371474Y545200D01*
X371467Y545015D01*
X371465Y544830D01*
X376686Y544830D02*
X376684Y544645D01*
X376677Y544460D01*
X376666Y544276D01*
X376651Y544092D01*
X376631Y543908D01*
X376607Y543724D01*
X376578Y543542D01*
X376545Y543360D01*
X376508Y543179D01*
X376466Y542999D01*
X376420Y542819D01*
X376370Y542641D01*
X376316Y542465D01*
X376257Y542289D01*
X376195Y542115D01*
X376128Y541943D01*
X376057Y541772D01*
X375982Y541603D01*
X375903Y541436D01*
X375904Y541436D02*
X375874Y541356D01*
X375841Y541277D01*
X375804Y541200D01*
X375764Y541124D01*
X375721Y541050D01*
X375675Y540978D01*
X375625Y540909D01*
X375572Y540841D01*
X375517Y540776D01*
X375458Y540713D01*
X375397Y540654D01*
X375334Y540596D01*
X375267Y540542D01*
X375199Y540491D01*
X375128Y540443D01*
X375055Y540398D01*
X374981Y540356D01*
X374904Y540318D01*
X374826Y540283D01*
X374747Y540251D01*
X374666Y540223D01*
X374584Y540199D01*
X374500Y540178D01*
X374417Y540161D01*
X374332Y540148D01*
X374247Y540139D01*
X374162Y540133D01*
X374076Y540131D01*
X372248Y541436D02*
X372169Y541603D01*
X372094Y541772D01*
X372023Y541943D01*
X371956Y542115D01*
X371894Y542289D01*
X371835Y542465D01*
X371781Y542641D01*
X371731Y542819D01*
X371685Y542999D01*
X371643Y543179D01*
X371606Y543360D01*
X371573Y543542D01*
X371544Y543724D01*
X371520Y543908D01*
X371500Y544092D01*
X371485Y544276D01*
X371474Y544460D01*
X371467Y544645D01*
X371465Y544830D01*
X372248Y541436D02*
X372278Y541356D01*
X372311Y541277D01*
X372348Y541200D01*
X372388Y541124D01*
X372431Y541050D01*
X372477Y540978D01*
X372527Y540909D01*
X372580Y540841D01*
X372635Y540776D01*
X372694Y540713D01*
X372755Y540654D01*
X372818Y540596D01*
X372885Y540542D01*
X372953Y540491D01*
X373024Y540443D01*
X373097Y540398D01*
X373171Y540356D01*
X373248Y540318D01*
X373326Y540283D01*
X373406Y540251D01*
X373486Y540223D01*
X373568Y540199D01*
X373652Y540178D01*
X373735Y540161D01*
X373820Y540148D01*
X373905Y540139D01*
X373990Y540133D01*
X374076Y540131D01*
X376164Y542219D02*
X371987Y547441D01*
X447379Y549529D02*
X453644Y540131D01*
X447379Y540131D02*
X453644Y549529D01*
X443195Y548224D02*
X443274Y548057D01*
X443349Y547888D01*
X443420Y547717D01*
X443487Y547545D01*
X443549Y547371D01*
X443608Y547195D01*
X443662Y547019D01*
X443712Y546841D01*
X443758Y546661D01*
X443800Y546481D01*
X443837Y546300D01*
X443870Y546118D01*
X443899Y545936D01*
X443923Y545752D01*
X443943Y545568D01*
X443958Y545384D01*
X443969Y545200D01*
X443976Y545015D01*
X443978Y544830D01*
X443195Y548224D02*
X443165Y548304D01*
X443132Y548383D01*
X443095Y548460D01*
X443055Y548536D01*
X443012Y548610D01*
X442966Y548682D01*
X442916Y548751D01*
X442864Y548819D01*
X442808Y548884D01*
X442750Y548947D01*
X442688Y549006D01*
X442625Y549064D01*
X442558Y549118D01*
X442490Y549169D01*
X442419Y549217D01*
X442346Y549262D01*
X442272Y549304D01*
X442195Y549342D01*
X442117Y549377D01*
X442038Y549409D01*
X441957Y549437D01*
X441875Y549461D01*
X441791Y549482D01*
X441708Y549499D01*
X441623Y549512D01*
X441538Y549521D01*
X441453Y549527D01*
X441367Y549529D01*
X441281Y549527D01*
X441196Y549521D01*
X441111Y549512D01*
X441026Y549499D01*
X440943Y549482D01*
X440859Y549461D01*
X440777Y549437D01*
X440697Y549409D01*
X440617Y549377D01*
X440539Y549342D01*
X440462Y549304D01*
X440388Y549262D01*
X440315Y549217D01*
X440244Y549169D01*
X440176Y549118D01*
X440109Y549064D01*
X440046Y549006D01*
X439985Y548947D01*
X439926Y548884D01*
X439871Y548819D01*
X439818Y548751D01*
X439768Y548682D01*
X439722Y548610D01*
X439679Y548536D01*
X439639Y548460D01*
X439602Y548383D01*
X439569Y548304D01*
X439539Y548224D01*
X439540Y548224D02*
X439461Y548057D01*
X439386Y547888D01*
X439315Y547717D01*
X439248Y547545D01*
X439186Y547371D01*
X439127Y547195D01*
X439073Y547019D01*
X439023Y546841D01*
X438977Y546661D01*
X438935Y546481D01*
X438898Y546300D01*
X438865Y546118D01*
X438836Y545936D01*
X438812Y545752D01*
X438792Y545568D01*
X438777Y545384D01*
X438766Y545200D01*
X438759Y545015D01*
X438757Y544830D01*
X443978Y544830D02*
X443976Y544645D01*
X443969Y544460D01*
X443958Y544276D01*
X443943Y544092D01*
X443923Y543908D01*
X443899Y543724D01*
X443870Y543542D01*
X443837Y543360D01*
X443800Y543179D01*
X443758Y542999D01*
X443712Y542819D01*
X443662Y542641D01*
X443608Y542465D01*
X443549Y542289D01*
X443487Y542115D01*
X443420Y541943D01*
X443349Y541772D01*
X443274Y541603D01*
X443195Y541436D01*
X443165Y541356D01*
X443132Y541277D01*
X443095Y541200D01*
X443055Y541124D01*
X443012Y541050D01*
X442966Y540978D01*
X442916Y540909D01*
X442863Y540841D01*
X442808Y540776D01*
X442749Y540713D01*
X442688Y540654D01*
X442625Y540596D01*
X442558Y540542D01*
X442490Y540491D01*
X442419Y540443D01*
X442346Y540398D01*
X442272Y540356D01*
X442195Y540318D01*
X442117Y540283D01*
X442038Y540251D01*
X441957Y540223D01*
X441875Y540199D01*
X441791Y540178D01*
X441708Y540161D01*
X441623Y540148D01*
X441538Y540139D01*
X441453Y540133D01*
X441367Y540131D01*
X439540Y541436D02*
X439461Y541603D01*
X439386Y541772D01*
X439315Y541943D01*
X439248Y542115D01*
X439186Y542289D01*
X439127Y542465D01*
X439073Y542641D01*
X439023Y542819D01*
X438977Y542999D01*
X438935Y543179D01*
X438898Y543360D01*
X438865Y543542D01*
X438836Y543724D01*
X438812Y543908D01*
X438792Y544092D01*
X438777Y544276D01*
X438766Y544460D01*
X438759Y544645D01*
X438757Y544830D01*
X439539Y541436D02*
X439569Y541356D01*
X439602Y541277D01*
X439639Y541200D01*
X439679Y541124D01*
X439722Y541050D01*
X439768Y540978D01*
X439818Y540909D01*
X439871Y540841D01*
X439926Y540776D01*
X439985Y540713D01*
X440046Y540654D01*
X440109Y540596D01*
X440176Y540542D01*
X440244Y540491D01*
X440315Y540443D01*
X440388Y540398D01*
X440462Y540356D01*
X440539Y540318D01*
X440617Y540283D01*
X440697Y540251D01*
X440777Y540223D01*
X440859Y540199D01*
X440943Y540178D01*
X441026Y540161D01*
X441111Y540148D01*
X441196Y540139D01*
X441281Y540133D01*
X441367Y540131D01*
X443456Y542219D02*
X439279Y547441D01*
X435226Y539087D02*
X431049Y539087D01*
X427197Y540131D02*
X427197Y549529D01*
X427197Y540131D02*
X423020Y540131D01*
X419202Y540131D02*
X419202Y549529D01*
X416069Y544308D01*
X412937Y549529D01*
X412937Y540131D01*
X406620Y540131D02*
X406620Y549529D01*
X404010Y549529D02*
X409231Y549529D01*
X482261Y549529D02*
X485394Y540131D01*
X479129Y540131D02*
X482261Y549529D01*
X479912Y542481D02*
X484611Y542481D01*
X475728Y544830D02*
X475726Y545015D01*
X475719Y545200D01*
X475708Y545384D01*
X475693Y545568D01*
X475673Y545752D01*
X475649Y545936D01*
X475620Y546118D01*
X475587Y546300D01*
X475550Y546481D01*
X475508Y546661D01*
X475462Y546841D01*
X475412Y547019D01*
X475358Y547195D01*
X475299Y547371D01*
X475237Y547545D01*
X475170Y547717D01*
X475099Y547888D01*
X475024Y548057D01*
X474945Y548224D01*
X474915Y548304D01*
X474882Y548383D01*
X474845Y548460D01*
X474805Y548536D01*
X474762Y548610D01*
X474716Y548682D01*
X474666Y548751D01*
X474614Y548819D01*
X474558Y548884D01*
X474500Y548947D01*
X474438Y549006D01*
X474375Y549064D01*
X474308Y549118D01*
X474240Y549169D01*
X474169Y549217D01*
X474096Y549262D01*
X474022Y549304D01*
X473945Y549342D01*
X473867Y549377D01*
X473788Y549409D01*
X473707Y549437D01*
X473625Y549461D01*
X473541Y549482D01*
X473458Y549499D01*
X473373Y549512D01*
X473288Y549521D01*
X473203Y549527D01*
X473117Y549529D01*
X473031Y549527D01*
X472946Y549521D01*
X472861Y549512D01*
X472776Y549499D01*
X472693Y549482D01*
X472609Y549461D01*
X472527Y549437D01*
X472447Y549409D01*
X472367Y549377D01*
X472289Y549342D01*
X472212Y549304D01*
X472138Y549262D01*
X472065Y549217D01*
X471994Y549169D01*
X471926Y549118D01*
X471859Y549064D01*
X471796Y549006D01*
X471735Y548947D01*
X471676Y548884D01*
X471621Y548819D01*
X471568Y548751D01*
X471518Y548682D01*
X471472Y548610D01*
X471429Y548536D01*
X471389Y548460D01*
X471352Y548383D01*
X471319Y548304D01*
X471289Y548224D01*
X471290Y548224D02*
X471211Y548057D01*
X471136Y547888D01*
X471065Y547717D01*
X470998Y547545D01*
X470936Y547371D01*
X470877Y547195D01*
X470823Y547019D01*
X470773Y546841D01*
X470727Y546661D01*
X470685Y546481D01*
X470648Y546300D01*
X470615Y546118D01*
X470586Y545936D01*
X470562Y545752D01*
X470542Y545568D01*
X470527Y545384D01*
X470516Y545200D01*
X470509Y545015D01*
X470507Y544830D01*
X475728Y544830D02*
X475726Y544645D01*
X475719Y544460D01*
X475708Y544276D01*
X475693Y544092D01*
X475673Y543908D01*
X475649Y543724D01*
X475620Y543542D01*
X475587Y543360D01*
X475550Y543179D01*
X475508Y542999D01*
X475462Y542819D01*
X475412Y542641D01*
X475358Y542465D01*
X475299Y542289D01*
X475237Y542115D01*
X475170Y541943D01*
X475099Y541772D01*
X475024Y541603D01*
X474945Y541436D01*
X474915Y541356D01*
X474882Y541277D01*
X474845Y541200D01*
X474805Y541124D01*
X474762Y541050D01*
X474716Y540978D01*
X474666Y540909D01*
X474613Y540841D01*
X474558Y540776D01*
X474499Y540713D01*
X474438Y540654D01*
X474375Y540596D01*
X474308Y540542D01*
X474240Y540491D01*
X474169Y540443D01*
X474096Y540398D01*
X474022Y540356D01*
X473945Y540318D01*
X473867Y540283D01*
X473788Y540251D01*
X473707Y540223D01*
X473625Y540199D01*
X473541Y540178D01*
X473458Y540161D01*
X473373Y540148D01*
X473288Y540139D01*
X473203Y540133D01*
X473117Y540131D01*
X471290Y541436D02*
X471211Y541603D01*
X471136Y541772D01*
X471065Y541943D01*
X470998Y542115D01*
X470936Y542289D01*
X470877Y542465D01*
X470823Y542641D01*
X470773Y542819D01*
X470727Y542999D01*
X470685Y543179D01*
X470648Y543360D01*
X470615Y543542D01*
X470586Y543724D01*
X470562Y543908D01*
X470542Y544092D01*
X470527Y544276D01*
X470516Y544460D01*
X470509Y544645D01*
X470507Y544830D01*
X471289Y541436D02*
X471319Y541356D01*
X471352Y541277D01*
X471389Y541200D01*
X471429Y541124D01*
X471472Y541050D01*
X471518Y540978D01*
X471568Y540909D01*
X471621Y540841D01*
X471676Y540776D01*
X471735Y540713D01*
X471796Y540654D01*
X471859Y540596D01*
X471926Y540542D01*
X471994Y540491D01*
X472065Y540443D01*
X472138Y540398D01*
X472212Y540356D01*
X472289Y540318D01*
X472367Y540283D01*
X472447Y540251D01*
X472527Y540223D01*
X472609Y540199D01*
X472693Y540178D01*
X472776Y540161D01*
X472861Y540148D01*
X472946Y540139D01*
X473031Y540133D01*
X473117Y540131D01*
X475206Y542219D02*
X471029Y547441D01*
X466496Y543786D02*
X460231Y543786D01*
X520361Y549529D02*
X523494Y540131D01*
X517229Y540131D02*
X520361Y549529D01*
X518012Y542481D02*
X522711Y542481D01*
X513828Y544830D02*
X513826Y545015D01*
X513819Y545200D01*
X513808Y545384D01*
X513793Y545568D01*
X513773Y545752D01*
X513749Y545936D01*
X513720Y546118D01*
X513687Y546300D01*
X513650Y546481D01*
X513608Y546661D01*
X513562Y546841D01*
X513512Y547019D01*
X513458Y547195D01*
X513399Y547371D01*
X513337Y547545D01*
X513270Y547717D01*
X513199Y547888D01*
X513124Y548057D01*
X513045Y548224D01*
X513015Y548304D01*
X512982Y548383D01*
X512945Y548460D01*
X512905Y548536D01*
X512862Y548610D01*
X512816Y548682D01*
X512766Y548751D01*
X512714Y548819D01*
X512658Y548884D01*
X512600Y548947D01*
X512538Y549006D01*
X512475Y549064D01*
X512408Y549118D01*
X512340Y549169D01*
X512269Y549217D01*
X512196Y549262D01*
X512122Y549304D01*
X512045Y549342D01*
X511967Y549377D01*
X511888Y549409D01*
X511807Y549437D01*
X511725Y549461D01*
X511641Y549482D01*
X511558Y549499D01*
X511473Y549512D01*
X511388Y549521D01*
X511303Y549527D01*
X511217Y549529D01*
X511131Y549527D01*
X511046Y549521D01*
X510961Y549512D01*
X510876Y549499D01*
X510793Y549482D01*
X510709Y549461D01*
X510627Y549437D01*
X510547Y549409D01*
X510467Y549377D01*
X510389Y549342D01*
X510312Y549304D01*
X510238Y549262D01*
X510165Y549217D01*
X510094Y549169D01*
X510026Y549118D01*
X509959Y549064D01*
X509896Y549006D01*
X509835Y548947D01*
X509776Y548884D01*
X509721Y548819D01*
X509668Y548751D01*
X509618Y548682D01*
X509572Y548610D01*
X509529Y548536D01*
X509489Y548460D01*
X509452Y548383D01*
X509419Y548304D01*
X509389Y548224D01*
X509390Y548224D02*
X509311Y548057D01*
X509236Y547888D01*
X509165Y547717D01*
X509098Y547545D01*
X509036Y547371D01*
X508977Y547195D01*
X508923Y547019D01*
X508873Y546841D01*
X508827Y546661D01*
X508785Y546481D01*
X508748Y546300D01*
X508715Y546118D01*
X508686Y545936D01*
X508662Y545752D01*
X508642Y545568D01*
X508627Y545384D01*
X508616Y545200D01*
X508609Y545015D01*
X508607Y544830D01*
X513828Y544830D02*
X513826Y544645D01*
X513819Y544460D01*
X513808Y544276D01*
X513793Y544092D01*
X513773Y543908D01*
X513749Y543724D01*
X513720Y543542D01*
X513687Y543360D01*
X513650Y543179D01*
X513608Y542999D01*
X513562Y542819D01*
X513512Y542641D01*
X513458Y542465D01*
X513399Y542289D01*
X513337Y542115D01*
X513270Y541943D01*
X513199Y541772D01*
X513124Y541603D01*
X513045Y541436D01*
X513015Y541356D01*
X512982Y541277D01*
X512945Y541200D01*
X512905Y541124D01*
X512862Y541050D01*
X512816Y540978D01*
X512766Y540909D01*
X512713Y540841D01*
X512658Y540776D01*
X512599Y540713D01*
X512538Y540654D01*
X512475Y540596D01*
X512408Y540542D01*
X512340Y540491D01*
X512269Y540443D01*
X512196Y540398D01*
X512122Y540356D01*
X512045Y540318D01*
X511967Y540283D01*
X511888Y540251D01*
X511807Y540223D01*
X511725Y540199D01*
X511641Y540178D01*
X511558Y540161D01*
X511473Y540148D01*
X511388Y540139D01*
X511303Y540133D01*
X511217Y540131D01*
X509390Y541436D02*
X509311Y541603D01*
X509236Y541772D01*
X509165Y541943D01*
X509098Y542115D01*
X509036Y542289D01*
X508977Y542465D01*
X508923Y542641D01*
X508873Y542819D01*
X508827Y542999D01*
X508785Y543179D01*
X508748Y543360D01*
X508715Y543542D01*
X508686Y543724D01*
X508662Y543908D01*
X508642Y544092D01*
X508627Y544276D01*
X508616Y544460D01*
X508609Y544645D01*
X508607Y544830D01*
X509389Y541436D02*
X509419Y541356D01*
X509452Y541277D01*
X509489Y541200D01*
X509529Y541124D01*
X509572Y541050D01*
X509618Y540978D01*
X509668Y540909D01*
X509721Y540841D01*
X509776Y540776D01*
X509835Y540713D01*
X509896Y540654D01*
X509959Y540596D01*
X510026Y540542D01*
X510094Y540491D01*
X510165Y540443D01*
X510238Y540398D01*
X510312Y540356D01*
X510389Y540318D01*
X510467Y540283D01*
X510547Y540251D01*
X510627Y540223D01*
X510709Y540199D01*
X510793Y540178D01*
X510876Y540161D01*
X510961Y540148D01*
X511046Y540139D01*
X511131Y540133D01*
X511217Y540131D01*
X513306Y542219D02*
X509129Y547441D01*
X504596Y543786D02*
X498331Y543786D01*
X501464Y540653D02*
X501464Y546918D01*
X552633Y545352D02*
X555244Y545352D01*
X552633Y545353D02*
X552532Y545351D01*
X552431Y545345D01*
X552330Y545335D01*
X552230Y545322D01*
X552130Y545304D01*
X552031Y545283D01*
X551933Y545257D01*
X551836Y545228D01*
X551740Y545196D01*
X551646Y545159D01*
X551553Y545119D01*
X551461Y545075D01*
X551372Y545028D01*
X551284Y544977D01*
X551198Y544923D01*
X551115Y544866D01*
X551033Y544806D01*
X550955Y544742D01*
X550878Y544676D01*
X550805Y544606D01*
X550734Y544534D01*
X550666Y544459D01*
X550601Y544381D01*
X550539Y544301D01*
X550480Y544219D01*
X550424Y544134D01*
X550372Y544048D01*
X550323Y543959D01*
X550277Y543868D01*
X550236Y543776D01*
X550197Y543682D01*
X550163Y543587D01*
X550132Y543491D01*
X550105Y543393D01*
X550081Y543295D01*
X550062Y543195D01*
X550046Y543095D01*
X550034Y542995D01*
X550026Y542894D01*
X550022Y542793D01*
X550022Y542691D01*
X550026Y542590D01*
X550034Y542489D01*
X550046Y542389D01*
X550062Y542289D01*
X550081Y542189D01*
X550105Y542091D01*
X550132Y541993D01*
X550163Y541897D01*
X550197Y541802D01*
X550236Y541708D01*
X550277Y541616D01*
X550323Y541525D01*
X550372Y541437D01*
X550424Y541350D01*
X550480Y541265D01*
X550539Y541183D01*
X550601Y541103D01*
X550666Y541025D01*
X550734Y540950D01*
X550805Y540878D01*
X550878Y540808D01*
X550955Y540742D01*
X551033Y540678D01*
X551115Y540618D01*
X551198Y540561D01*
X551284Y540507D01*
X551372Y540456D01*
X551461Y540409D01*
X551553Y540365D01*
X551646Y540325D01*
X551740Y540288D01*
X551836Y540256D01*
X551933Y540227D01*
X552031Y540201D01*
X552130Y540180D01*
X552230Y540162D01*
X552330Y540149D01*
X552431Y540139D01*
X552532Y540133D01*
X552633Y540131D01*
X555244Y540131D01*
X555244Y549529D01*
X552633Y549529D01*
X552543Y549527D01*
X552454Y549521D01*
X552364Y549512D01*
X552275Y549498D01*
X552187Y549481D01*
X552100Y549460D01*
X552013Y549435D01*
X551928Y549406D01*
X551844Y549374D01*
X551762Y549339D01*
X551681Y549299D01*
X551602Y549257D01*
X551525Y549211D01*
X551450Y549161D01*
X551377Y549109D01*
X551306Y549053D01*
X551238Y548995D01*
X551173Y548933D01*
X551110Y548869D01*
X551050Y548802D01*
X550993Y548733D01*
X550939Y548661D01*
X550888Y548587D01*
X550840Y548511D01*
X550796Y548433D01*
X550755Y548353D01*
X550717Y548271D01*
X550683Y548188D01*
X550653Y548103D01*
X550626Y548017D01*
X550603Y547931D01*
X550584Y547843D01*
X550569Y547754D01*
X550557Y547665D01*
X550549Y547576D01*
X550545Y547486D01*
X550545Y547396D01*
X550549Y547306D01*
X550557Y547217D01*
X550569Y547128D01*
X550584Y547039D01*
X550603Y546951D01*
X550626Y546865D01*
X550653Y546779D01*
X550683Y546694D01*
X550717Y546611D01*
X550755Y546529D01*
X550796Y546449D01*
X550840Y546371D01*
X550888Y546295D01*
X550939Y546221D01*
X550993Y546149D01*
X551050Y546080D01*
X551110Y546013D01*
X551173Y545949D01*
X551238Y545887D01*
X551306Y545829D01*
X551377Y545773D01*
X551450Y545721D01*
X551525Y545671D01*
X551602Y545625D01*
X551681Y545583D01*
X551762Y545543D01*
X551844Y545508D01*
X551928Y545476D01*
X552013Y545447D01*
X552100Y545422D01*
X552187Y545401D01*
X552275Y545384D01*
X552364Y545370D01*
X552454Y545361D01*
X552543Y545355D01*
X552633Y545353D01*
X546536Y544830D02*
X546534Y545015D01*
X546527Y545200D01*
X546516Y545384D01*
X546501Y545568D01*
X546481Y545752D01*
X546457Y545936D01*
X546428Y546118D01*
X546395Y546300D01*
X546358Y546481D01*
X546316Y546661D01*
X546270Y546841D01*
X546220Y547019D01*
X546166Y547195D01*
X546107Y547371D01*
X546045Y547545D01*
X545978Y547717D01*
X545907Y547888D01*
X545832Y548057D01*
X545753Y548224D01*
X545754Y548224D02*
X545724Y548304D01*
X545691Y548383D01*
X545654Y548460D01*
X545614Y548536D01*
X545571Y548610D01*
X545525Y548682D01*
X545475Y548751D01*
X545423Y548819D01*
X545367Y548884D01*
X545309Y548947D01*
X545247Y549006D01*
X545184Y549064D01*
X545117Y549118D01*
X545049Y549169D01*
X544978Y549217D01*
X544905Y549262D01*
X544831Y549304D01*
X544754Y549342D01*
X544676Y549377D01*
X544597Y549409D01*
X544516Y549437D01*
X544434Y549461D01*
X544350Y549482D01*
X544267Y549499D01*
X544182Y549512D01*
X544097Y549521D01*
X544012Y549527D01*
X543926Y549529D01*
X543840Y549527D01*
X543755Y549521D01*
X543670Y549512D01*
X543585Y549499D01*
X543502Y549482D01*
X543418Y549461D01*
X543336Y549437D01*
X543256Y549409D01*
X543176Y549377D01*
X543098Y549342D01*
X543021Y549304D01*
X542947Y549262D01*
X542874Y549217D01*
X542803Y549169D01*
X542735Y549118D01*
X542668Y549064D01*
X542605Y549006D01*
X542544Y548947D01*
X542485Y548884D01*
X542430Y548819D01*
X542377Y548751D01*
X542327Y548682D01*
X542281Y548610D01*
X542238Y548536D01*
X542198Y548460D01*
X542161Y548383D01*
X542128Y548304D01*
X542098Y548224D01*
X542019Y548057D01*
X541944Y547888D01*
X541873Y547717D01*
X541806Y547545D01*
X541744Y547371D01*
X541685Y547195D01*
X541631Y547019D01*
X541581Y546841D01*
X541535Y546661D01*
X541493Y546481D01*
X541456Y546300D01*
X541423Y546118D01*
X541394Y545936D01*
X541370Y545752D01*
X541350Y545568D01*
X541335Y545384D01*
X541324Y545200D01*
X541317Y545015D01*
X541315Y544830D01*
X546536Y544830D02*
X546534Y544645D01*
X546527Y544460D01*
X546516Y544276D01*
X546501Y544092D01*
X546481Y543908D01*
X546457Y543724D01*
X546428Y543542D01*
X546395Y543360D01*
X546358Y543179D01*
X546316Y542999D01*
X546270Y542819D01*
X546220Y542641D01*
X546166Y542465D01*
X546107Y542289D01*
X546045Y542115D01*
X545978Y541943D01*
X545907Y541772D01*
X545832Y541603D01*
X545753Y541436D01*
X545754Y541436D02*
X545724Y541356D01*
X545691Y541277D01*
X545654Y541200D01*
X545614Y541124D01*
X545571Y541050D01*
X545525Y540978D01*
X545475Y540909D01*
X545422Y540841D01*
X545367Y540776D01*
X545308Y540713D01*
X545247Y540654D01*
X545184Y540596D01*
X545117Y540542D01*
X545049Y540491D01*
X544978Y540443D01*
X544905Y540398D01*
X544831Y540356D01*
X544754Y540318D01*
X544676Y540283D01*
X544597Y540251D01*
X544516Y540223D01*
X544434Y540199D01*
X544350Y540178D01*
X544267Y540161D01*
X544182Y540148D01*
X544097Y540139D01*
X544012Y540133D01*
X543926Y540131D01*
X542098Y541436D02*
X542019Y541603D01*
X541944Y541772D01*
X541873Y541943D01*
X541806Y542115D01*
X541744Y542289D01*
X541685Y542465D01*
X541631Y542641D01*
X541581Y542819D01*
X541535Y542999D01*
X541493Y543179D01*
X541456Y543360D01*
X541423Y543542D01*
X541394Y543724D01*
X541370Y543908D01*
X541350Y544092D01*
X541335Y544276D01*
X541324Y544460D01*
X541317Y544645D01*
X541315Y544830D01*
X542098Y541436D02*
X542128Y541356D01*
X542161Y541277D01*
X542198Y541200D01*
X542238Y541124D01*
X542281Y541050D01*
X542327Y540978D01*
X542377Y540909D01*
X542430Y540841D01*
X542485Y540776D01*
X542544Y540713D01*
X542605Y540654D01*
X542668Y540596D01*
X542735Y540542D01*
X542803Y540491D01*
X542874Y540443D01*
X542947Y540398D01*
X543021Y540356D01*
X543098Y540318D01*
X543176Y540283D01*
X543256Y540251D01*
X543336Y540223D01*
X543418Y540199D01*
X543502Y540178D01*
X543585Y540161D01*
X543670Y540148D01*
X543755Y540139D01*
X543840Y540133D01*
X543926Y540131D01*
X546014Y542219D02*
X541837Y547441D01*
X537305Y543786D02*
X531039Y543786D01*
X590733Y545352D02*
X593344Y545352D01*
X590733Y545353D02*
X590632Y545351D01*
X590531Y545345D01*
X590430Y545335D01*
X590330Y545322D01*
X590230Y545304D01*
X590131Y545283D01*
X590033Y545257D01*
X589936Y545228D01*
X589840Y545196D01*
X589746Y545159D01*
X589653Y545119D01*
X589561Y545075D01*
X589472Y545028D01*
X589384Y544977D01*
X589298Y544923D01*
X589215Y544866D01*
X589133Y544806D01*
X589055Y544742D01*
X588978Y544676D01*
X588905Y544606D01*
X588834Y544534D01*
X588766Y544459D01*
X588701Y544381D01*
X588639Y544301D01*
X588580Y544219D01*
X588524Y544134D01*
X588472Y544048D01*
X588423Y543959D01*
X588377Y543868D01*
X588336Y543776D01*
X588297Y543682D01*
X588263Y543587D01*
X588232Y543491D01*
X588205Y543393D01*
X588181Y543295D01*
X588162Y543195D01*
X588146Y543095D01*
X588134Y542995D01*
X588126Y542894D01*
X588122Y542793D01*
X588122Y542691D01*
X588126Y542590D01*
X588134Y542489D01*
X588146Y542389D01*
X588162Y542289D01*
X588181Y542189D01*
X588205Y542091D01*
X588232Y541993D01*
X588263Y541897D01*
X588297Y541802D01*
X588336Y541708D01*
X588377Y541616D01*
X588423Y541525D01*
X588472Y541437D01*
X588524Y541350D01*
X588580Y541265D01*
X588639Y541183D01*
X588701Y541103D01*
X588766Y541025D01*
X588834Y540950D01*
X588905Y540878D01*
X588978Y540808D01*
X589055Y540742D01*
X589133Y540678D01*
X589215Y540618D01*
X589298Y540561D01*
X589384Y540507D01*
X589472Y540456D01*
X589561Y540409D01*
X589653Y540365D01*
X589746Y540325D01*
X589840Y540288D01*
X589936Y540256D01*
X590033Y540227D01*
X590131Y540201D01*
X590230Y540180D01*
X590330Y540162D01*
X590430Y540149D01*
X590531Y540139D01*
X590632Y540133D01*
X590733Y540131D01*
X593344Y540131D01*
X593344Y549529D01*
X590733Y549529D01*
X590643Y549527D01*
X590554Y549521D01*
X590464Y549512D01*
X590375Y549498D01*
X590287Y549481D01*
X590200Y549460D01*
X590113Y549435D01*
X590028Y549406D01*
X589944Y549374D01*
X589862Y549339D01*
X589781Y549299D01*
X589702Y549257D01*
X589625Y549211D01*
X589550Y549161D01*
X589477Y549109D01*
X589406Y549053D01*
X589338Y548995D01*
X589273Y548933D01*
X589210Y548869D01*
X589150Y548802D01*
X589093Y548733D01*
X589039Y548661D01*
X588988Y548587D01*
X588940Y548511D01*
X588896Y548433D01*
X588855Y548353D01*
X588817Y548271D01*
X588783Y548188D01*
X588753Y548103D01*
X588726Y548017D01*
X588703Y547931D01*
X588684Y547843D01*
X588669Y547754D01*
X588657Y547665D01*
X588649Y547576D01*
X588645Y547486D01*
X588645Y547396D01*
X588649Y547306D01*
X588657Y547217D01*
X588669Y547128D01*
X588684Y547039D01*
X588703Y546951D01*
X588726Y546865D01*
X588753Y546779D01*
X588783Y546694D01*
X588817Y546611D01*
X588855Y546529D01*
X588896Y546449D01*
X588940Y546371D01*
X588988Y546295D01*
X589039Y546221D01*
X589093Y546149D01*
X589150Y546080D01*
X589210Y546013D01*
X589273Y545949D01*
X589338Y545887D01*
X589406Y545829D01*
X589477Y545773D01*
X589550Y545721D01*
X589625Y545671D01*
X589702Y545625D01*
X589781Y545583D01*
X589862Y545543D01*
X589944Y545508D01*
X590028Y545476D01*
X590113Y545447D01*
X590200Y545422D01*
X590287Y545401D01*
X590375Y545384D01*
X590464Y545370D01*
X590554Y545361D01*
X590643Y545355D01*
X590733Y545353D01*
X584636Y544830D02*
X584634Y545015D01*
X584627Y545200D01*
X584616Y545384D01*
X584601Y545568D01*
X584581Y545752D01*
X584557Y545936D01*
X584528Y546118D01*
X584495Y546300D01*
X584458Y546481D01*
X584416Y546661D01*
X584370Y546841D01*
X584320Y547019D01*
X584266Y547195D01*
X584207Y547371D01*
X584145Y547545D01*
X584078Y547717D01*
X584007Y547888D01*
X583932Y548057D01*
X583853Y548224D01*
X583854Y548224D02*
X583824Y548304D01*
X583791Y548383D01*
X583754Y548460D01*
X583714Y548536D01*
X583671Y548610D01*
X583625Y548682D01*
X583575Y548751D01*
X583523Y548819D01*
X583467Y548884D01*
X583409Y548947D01*
X583347Y549006D01*
X583284Y549064D01*
X583217Y549118D01*
X583149Y549169D01*
X583078Y549217D01*
X583005Y549262D01*
X582931Y549304D01*
X582854Y549342D01*
X582776Y549377D01*
X582697Y549409D01*
X582616Y549437D01*
X582534Y549461D01*
X582450Y549482D01*
X582367Y549499D01*
X582282Y549512D01*
X582197Y549521D01*
X582112Y549527D01*
X582026Y549529D01*
X581940Y549527D01*
X581855Y549521D01*
X581770Y549512D01*
X581685Y549499D01*
X581602Y549482D01*
X581518Y549461D01*
X581436Y549437D01*
X581356Y549409D01*
X581276Y549377D01*
X581198Y549342D01*
X581121Y549304D01*
X581047Y549262D01*
X580974Y549217D01*
X580903Y549169D01*
X580835Y549118D01*
X580768Y549064D01*
X580705Y549006D01*
X580644Y548947D01*
X580585Y548884D01*
X580530Y548819D01*
X580477Y548751D01*
X580427Y548682D01*
X580381Y548610D01*
X580338Y548536D01*
X580298Y548460D01*
X580261Y548383D01*
X580228Y548304D01*
X580198Y548224D01*
X580119Y548057D01*
X580044Y547888D01*
X579973Y547717D01*
X579906Y547545D01*
X579844Y547371D01*
X579785Y547195D01*
X579731Y547019D01*
X579681Y546841D01*
X579635Y546661D01*
X579593Y546481D01*
X579556Y546300D01*
X579523Y546118D01*
X579494Y545936D01*
X579470Y545752D01*
X579450Y545568D01*
X579435Y545384D01*
X579424Y545200D01*
X579417Y545015D01*
X579415Y544830D01*
X584636Y544830D02*
X584634Y544645D01*
X584627Y544460D01*
X584616Y544276D01*
X584601Y544092D01*
X584581Y543908D01*
X584557Y543724D01*
X584528Y543542D01*
X584495Y543360D01*
X584458Y543179D01*
X584416Y542999D01*
X584370Y542819D01*
X584320Y542641D01*
X584266Y542465D01*
X584207Y542289D01*
X584145Y542115D01*
X584078Y541943D01*
X584007Y541772D01*
X583932Y541603D01*
X583853Y541436D01*
X583854Y541436D02*
X583824Y541356D01*
X583791Y541277D01*
X583754Y541200D01*
X583714Y541124D01*
X583671Y541050D01*
X583625Y540978D01*
X583575Y540909D01*
X583522Y540841D01*
X583467Y540776D01*
X583408Y540713D01*
X583347Y540654D01*
X583284Y540596D01*
X583217Y540542D01*
X583149Y540491D01*
X583078Y540443D01*
X583005Y540398D01*
X582931Y540356D01*
X582854Y540318D01*
X582776Y540283D01*
X582697Y540251D01*
X582616Y540223D01*
X582534Y540199D01*
X582450Y540178D01*
X582367Y540161D01*
X582282Y540148D01*
X582197Y540139D01*
X582112Y540133D01*
X582026Y540131D01*
X580198Y541436D02*
X580119Y541603D01*
X580044Y541772D01*
X579973Y541943D01*
X579906Y542115D01*
X579844Y542289D01*
X579785Y542465D01*
X579731Y542641D01*
X579681Y542819D01*
X579635Y542999D01*
X579593Y543179D01*
X579556Y543360D01*
X579523Y543542D01*
X579494Y543724D01*
X579470Y543908D01*
X579450Y544092D01*
X579435Y544276D01*
X579424Y544460D01*
X579417Y544645D01*
X579415Y544830D01*
X580198Y541436D02*
X580228Y541356D01*
X580261Y541277D01*
X580298Y541200D01*
X580338Y541124D01*
X580381Y541050D01*
X580427Y540978D01*
X580477Y540909D01*
X580530Y540841D01*
X580585Y540776D01*
X580644Y540713D01*
X580705Y540654D01*
X580768Y540596D01*
X580835Y540542D01*
X580903Y540491D01*
X580974Y540443D01*
X581047Y540398D01*
X581121Y540356D01*
X581198Y540318D01*
X581276Y540283D01*
X581356Y540251D01*
X581436Y540223D01*
X581518Y540199D01*
X581602Y540178D01*
X581685Y540161D01*
X581770Y540148D01*
X581855Y540139D01*
X581940Y540133D01*
X582026Y540131D01*
X584114Y542219D02*
X579937Y547441D01*
X575405Y543786D02*
X569139Y543786D01*
X572272Y540653D02*
X572272Y546918D01*
X624092Y540131D02*
X626181Y540131D01*
X626270Y540133D01*
X626358Y540139D01*
X626446Y540148D01*
X626534Y540161D01*
X626621Y540178D01*
X626707Y540198D01*
X626792Y540223D01*
X626877Y540250D01*
X626960Y540282D01*
X627041Y540316D01*
X627121Y540355D01*
X627199Y540396D01*
X627276Y540441D01*
X627350Y540489D01*
X627423Y540540D01*
X627493Y540594D01*
X627560Y540652D01*
X627626Y540712D01*
X627688Y540774D01*
X627748Y540840D01*
X627806Y540907D01*
X627860Y540977D01*
X627911Y541050D01*
X627959Y541124D01*
X628004Y541201D01*
X628045Y541279D01*
X628084Y541359D01*
X628118Y541440D01*
X628150Y541523D01*
X628177Y541608D01*
X628202Y541693D01*
X628222Y541779D01*
X628239Y541866D01*
X628252Y541954D01*
X628261Y542042D01*
X628267Y542130D01*
X628269Y542219D01*
X628269Y547441D01*
X628267Y547530D01*
X628261Y547618D01*
X628252Y547706D01*
X628239Y547794D01*
X628222Y547881D01*
X628202Y547967D01*
X628177Y548052D01*
X628150Y548137D01*
X628118Y548220D01*
X628084Y548301D01*
X628045Y548381D01*
X628004Y548459D01*
X627959Y548536D01*
X627911Y548610D01*
X627860Y548683D01*
X627806Y548753D01*
X627748Y548820D01*
X627688Y548886D01*
X627626Y548948D01*
X627560Y549008D01*
X627493Y549066D01*
X627423Y549120D01*
X627350Y549171D01*
X627276Y549219D01*
X627199Y549264D01*
X627121Y549305D01*
X627041Y549344D01*
X626960Y549378D01*
X626877Y549410D01*
X626792Y549437D01*
X626707Y549462D01*
X626621Y549482D01*
X626534Y549499D01*
X626446Y549512D01*
X626358Y549521D01*
X626270Y549527D01*
X626181Y549529D01*
X624092Y549529D01*
X620301Y549529D02*
X620301Y540131D01*
X620301Y549529D02*
X616124Y549529D01*
X616124Y545352D02*
X620301Y545352D01*
X612611Y543786D02*
X606346Y543786D01*
X662192Y540131D02*
X664281Y540131D01*
X664370Y540133D01*
X664458Y540139D01*
X664546Y540148D01*
X664634Y540161D01*
X664721Y540178D01*
X664807Y540198D01*
X664892Y540223D01*
X664977Y540250D01*
X665060Y540282D01*
X665141Y540316D01*
X665221Y540355D01*
X665299Y540396D01*
X665376Y540441D01*
X665450Y540489D01*
X665523Y540540D01*
X665593Y540594D01*
X665660Y540652D01*
X665726Y540712D01*
X665788Y540774D01*
X665848Y540840D01*
X665906Y540907D01*
X665960Y540977D01*
X666011Y541050D01*
X666059Y541124D01*
X666104Y541201D01*
X666145Y541279D01*
X666184Y541359D01*
X666218Y541440D01*
X666250Y541523D01*
X666277Y541608D01*
X666302Y541693D01*
X666322Y541779D01*
X666339Y541866D01*
X666352Y541954D01*
X666361Y542042D01*
X666367Y542130D01*
X666369Y542219D01*
X666369Y547441D01*
X666367Y547530D01*
X666361Y547618D01*
X666352Y547706D01*
X666339Y547794D01*
X666322Y547881D01*
X666302Y547967D01*
X666277Y548052D01*
X666250Y548137D01*
X666218Y548220D01*
X666184Y548301D01*
X666145Y548381D01*
X666104Y548459D01*
X666059Y548536D01*
X666011Y548610D01*
X665960Y548683D01*
X665906Y548753D01*
X665848Y548820D01*
X665788Y548886D01*
X665726Y548948D01*
X665660Y549008D01*
X665593Y549066D01*
X665523Y549120D01*
X665450Y549171D01*
X665376Y549219D01*
X665299Y549264D01*
X665221Y549305D01*
X665141Y549344D01*
X665060Y549378D01*
X664977Y549410D01*
X664892Y549437D01*
X664807Y549462D01*
X664721Y549482D01*
X664634Y549499D01*
X664546Y549512D01*
X664458Y549521D01*
X664370Y549527D01*
X664281Y549529D01*
X662192Y549529D01*
X658401Y549529D02*
X658401Y540131D01*
X658401Y549529D02*
X654224Y549529D01*
X654224Y545352D02*
X658401Y545352D01*
X650711Y543786D02*
X644446Y543786D01*
X647578Y546918D02*
X647578Y540653D01*
X428244Y517779D02*
X425111Y513341D01*
X421979Y517779D01*
X425111Y513341D02*
X425111Y508381D01*
X418970Y507337D02*
X414793Y507337D01*
X410941Y508381D02*
X410941Y517779D01*
X410941Y508381D02*
X406764Y508381D01*
X402946Y508381D02*
X402946Y517779D01*
X399813Y512558D01*
X396680Y517779D01*
X396680Y508381D01*
X390364Y508381D02*
X390364Y517779D01*
X387754Y517779D02*
X392975Y517779D01*
X470648Y513602D02*
X472214Y513602D01*
X470648Y513602D02*
X470648Y508381D01*
X473781Y508381D01*
X473870Y508383D01*
X473958Y508389D01*
X474046Y508398D01*
X474134Y508411D01*
X474221Y508428D01*
X474307Y508448D01*
X474392Y508473D01*
X474477Y508500D01*
X474560Y508532D01*
X474641Y508566D01*
X474721Y508605D01*
X474799Y508646D01*
X474876Y508691D01*
X474950Y508739D01*
X475023Y508790D01*
X475093Y508844D01*
X475160Y508902D01*
X475226Y508962D01*
X475288Y509024D01*
X475348Y509090D01*
X475406Y509157D01*
X475460Y509227D01*
X475511Y509300D01*
X475559Y509374D01*
X475604Y509451D01*
X475645Y509529D01*
X475684Y509609D01*
X475718Y509690D01*
X475750Y509773D01*
X475777Y509858D01*
X475802Y509943D01*
X475822Y510029D01*
X475839Y510116D01*
X475852Y510204D01*
X475861Y510292D01*
X475867Y510380D01*
X475869Y510469D01*
X475869Y515691D01*
X475867Y515780D01*
X475861Y515868D01*
X475852Y515956D01*
X475839Y516044D01*
X475822Y516131D01*
X475802Y516217D01*
X475777Y516302D01*
X475750Y516387D01*
X475718Y516470D01*
X475684Y516551D01*
X475645Y516631D01*
X475604Y516709D01*
X475559Y516786D01*
X475511Y516860D01*
X475460Y516933D01*
X475406Y517003D01*
X475348Y517070D01*
X475288Y517136D01*
X475226Y517198D01*
X475160Y517258D01*
X475093Y517316D01*
X475023Y517370D01*
X474950Y517421D01*
X474876Y517469D01*
X474799Y517514D01*
X474721Y517555D01*
X474641Y517594D01*
X474560Y517628D01*
X474477Y517660D01*
X474392Y517687D01*
X474307Y517712D01*
X474221Y517732D01*
X474134Y517749D01*
X474046Y517762D01*
X473958Y517771D01*
X473870Y517777D01*
X473781Y517779D01*
X470648Y517779D01*
X466115Y517779D02*
X466115Y508381D01*
X460894Y508381D02*
X466115Y517779D01*
X460894Y517779D02*
X460894Y508381D01*
X456362Y508381D02*
X456362Y517779D01*
X453751Y517779D01*
X453651Y517777D01*
X453551Y517771D01*
X453452Y517762D01*
X453352Y517748D01*
X453254Y517731D01*
X453156Y517710D01*
X453059Y517686D01*
X452963Y517657D01*
X452868Y517625D01*
X452775Y517590D01*
X452683Y517551D01*
X452592Y517508D01*
X452504Y517462D01*
X452417Y517412D01*
X452332Y517360D01*
X452249Y517304D01*
X452168Y517245D01*
X452090Y517182D01*
X452014Y517117D01*
X451940Y517049D01*
X451870Y516979D01*
X451802Y516905D01*
X451737Y516829D01*
X451674Y516751D01*
X451615Y516670D01*
X451559Y516587D01*
X451507Y516502D01*
X451457Y516415D01*
X451411Y516327D01*
X451368Y516236D01*
X451329Y516144D01*
X451294Y516051D01*
X451262Y515956D01*
X451233Y515860D01*
X451209Y515763D01*
X451188Y515665D01*
X451171Y515567D01*
X451157Y515467D01*
X451148Y515368D01*
X451142Y515268D01*
X451140Y515168D01*
X451141Y515168D02*
X451141Y510992D01*
X451140Y510992D02*
X451142Y510892D01*
X451148Y510792D01*
X451157Y510693D01*
X451171Y510593D01*
X451188Y510495D01*
X451209Y510397D01*
X451233Y510300D01*
X451262Y510204D01*
X451294Y510109D01*
X451329Y510016D01*
X451368Y509924D01*
X451411Y509833D01*
X451457Y509745D01*
X451507Y509658D01*
X451559Y509573D01*
X451615Y509490D01*
X451674Y509409D01*
X451737Y509331D01*
X451802Y509255D01*
X451870Y509181D01*
X451940Y509111D01*
X452014Y509043D01*
X452090Y508978D01*
X452168Y508915D01*
X452249Y508856D01*
X452332Y508800D01*
X452417Y508748D01*
X452504Y508698D01*
X452592Y508652D01*
X452683Y508609D01*
X452775Y508570D01*
X452868Y508535D01*
X452963Y508503D01*
X453059Y508474D01*
X453156Y508450D01*
X453254Y508429D01*
X453352Y508412D01*
X453452Y508398D01*
X453551Y508389D01*
X453651Y508383D01*
X453751Y508381D01*
X456362Y508381D01*
X511922Y515430D02*
X511924Y515525D01*
X511930Y515619D01*
X511939Y515713D01*
X511952Y515807D01*
X511969Y515900D01*
X511990Y515992D01*
X512015Y516084D01*
X512043Y516174D01*
X512075Y516263D01*
X512110Y516351D01*
X512149Y516437D01*
X512191Y516522D01*
X512237Y516605D01*
X512286Y516686D01*
X512338Y516765D01*
X512393Y516842D01*
X512452Y516916D01*
X512513Y516988D01*
X512577Y517058D01*
X512644Y517125D01*
X512714Y517189D01*
X512786Y517250D01*
X512860Y517309D01*
X512937Y517364D01*
X513016Y517416D01*
X513097Y517465D01*
X513180Y517511D01*
X513265Y517553D01*
X513351Y517592D01*
X513439Y517627D01*
X513528Y517659D01*
X513618Y517687D01*
X513710Y517712D01*
X513802Y517733D01*
X513895Y517750D01*
X513989Y517763D01*
X514083Y517772D01*
X514177Y517778D01*
X514272Y517780D01*
X514272Y517779D02*
X514380Y517777D01*
X514489Y517771D01*
X514597Y517761D01*
X514704Y517748D01*
X514811Y517730D01*
X514918Y517709D01*
X515023Y517684D01*
X515128Y517655D01*
X515231Y517623D01*
X515333Y517586D01*
X515434Y517546D01*
X515533Y517503D01*
X515631Y517456D01*
X515727Y517405D01*
X515821Y517351D01*
X515913Y517294D01*
X516003Y517233D01*
X516091Y517169D01*
X516176Y517103D01*
X516259Y517033D01*
X516339Y516960D01*
X516417Y516884D01*
X516492Y516806D01*
X516564Y516725D01*
X516633Y516641D01*
X516699Y516555D01*
X516762Y516467D01*
X516821Y516376D01*
X516878Y516284D01*
X516931Y516189D01*
X516980Y516092D01*
X517026Y515994D01*
X517069Y515895D01*
X517108Y515793D01*
X517143Y515691D01*
X512706Y513602D02*
X512637Y513671D01*
X512571Y513742D01*
X512507Y513815D01*
X512446Y513891D01*
X512388Y513970D01*
X512334Y514050D01*
X512282Y514133D01*
X512234Y514217D01*
X512188Y514303D01*
X512147Y514391D01*
X512108Y514481D01*
X512073Y514572D01*
X512042Y514664D01*
X512014Y514757D01*
X511990Y514851D01*
X511970Y514946D01*
X511953Y515042D01*
X511940Y515139D01*
X511931Y515236D01*
X511925Y515333D01*
X511923Y515430D01*
X512706Y513602D02*
X517144Y508381D01*
X511923Y508381D01*
X508000Y510469D02*
X505912Y517779D01*
X508000Y510469D02*
X502779Y510469D01*
X504345Y512558D02*
X504345Y508381D01*
X496246Y508381D02*
X499378Y517779D01*
X493113Y517779D02*
X496246Y508381D01*
X704469Y540131D02*
X704469Y549529D01*
X704469Y545352D02*
X699248Y545352D01*
X699248Y549529D02*
X699248Y540131D01*
X695020Y547441D02*
X692410Y549529D01*
X692410Y540131D01*
X695020Y540131D02*
X689799Y540131D01*
X685789Y543786D02*
X679523Y543786D01*
X682656Y540653D02*
X682656Y546918D01*
X739394Y549529D02*
X739394Y540131D01*
X739394Y545352D02*
X734173Y545352D01*
X734173Y549529D02*
X734173Y540131D01*
X729945Y547441D02*
X727335Y549529D01*
X727335Y540131D01*
X729945Y540131D02*
X724724Y540131D01*
X720714Y543786D02*
X714448Y543786D01*
X777494Y540131D02*
X777494Y549529D01*
X774883Y549529D01*
X774782Y549527D01*
X774681Y549521D01*
X774580Y549511D01*
X774480Y549498D01*
X774380Y549480D01*
X774281Y549459D01*
X774183Y549433D01*
X774086Y549404D01*
X773990Y549372D01*
X773896Y549335D01*
X773803Y549295D01*
X773711Y549251D01*
X773622Y549204D01*
X773534Y549153D01*
X773448Y549099D01*
X773365Y549042D01*
X773283Y548982D01*
X773205Y548918D01*
X773128Y548852D01*
X773055Y548782D01*
X772984Y548710D01*
X772916Y548635D01*
X772851Y548557D01*
X772789Y548477D01*
X772730Y548395D01*
X772674Y548310D01*
X772622Y548224D01*
X772573Y548135D01*
X772527Y548044D01*
X772486Y547952D01*
X772447Y547858D01*
X772413Y547763D01*
X772382Y547667D01*
X772355Y547569D01*
X772331Y547471D01*
X772312Y547371D01*
X772296Y547271D01*
X772284Y547171D01*
X772276Y547070D01*
X772272Y546969D01*
X772272Y546867D01*
X772276Y546766D01*
X772284Y546665D01*
X772296Y546565D01*
X772312Y546465D01*
X772331Y546365D01*
X772355Y546267D01*
X772382Y546169D01*
X772413Y546073D01*
X772447Y545978D01*
X772486Y545884D01*
X772527Y545792D01*
X772573Y545701D01*
X772622Y545613D01*
X772674Y545526D01*
X772730Y545441D01*
X772789Y545359D01*
X772851Y545279D01*
X772916Y545201D01*
X772984Y545126D01*
X773055Y545054D01*
X773128Y544984D01*
X773205Y544918D01*
X773283Y544854D01*
X773365Y544794D01*
X773448Y544737D01*
X773534Y544683D01*
X773622Y544632D01*
X773711Y544585D01*
X773803Y544541D01*
X773896Y544501D01*
X773990Y544464D01*
X774086Y544432D01*
X774183Y544403D01*
X774281Y544377D01*
X774380Y544356D01*
X774480Y544338D01*
X774580Y544325D01*
X774681Y544315D01*
X774782Y544309D01*
X774883Y544307D01*
X774883Y544308D02*
X777494Y544308D01*
X766785Y540131D02*
X766785Y549529D01*
X764175Y549529D02*
X769396Y549529D01*
X760861Y547441D02*
X758251Y549529D01*
X758251Y540131D01*
X760861Y540131D02*
X755640Y540131D01*
X831554Y549529D02*
X837819Y540131D01*
X831554Y540131D02*
X837819Y549529D01*
X825281Y549530D02*
X825186Y549528D01*
X825092Y549522D01*
X824998Y549513D01*
X824904Y549500D01*
X824811Y549483D01*
X824719Y549462D01*
X824627Y549437D01*
X824537Y549409D01*
X824448Y549377D01*
X824360Y549342D01*
X824274Y549303D01*
X824189Y549261D01*
X824106Y549215D01*
X824025Y549166D01*
X823946Y549114D01*
X823869Y549059D01*
X823795Y549000D01*
X823723Y548939D01*
X823653Y548875D01*
X823586Y548808D01*
X823522Y548738D01*
X823461Y548666D01*
X823402Y548592D01*
X823347Y548515D01*
X823295Y548436D01*
X823246Y548355D01*
X823200Y548272D01*
X823158Y548187D01*
X823119Y548101D01*
X823084Y548013D01*
X823052Y547924D01*
X823024Y547834D01*
X822999Y547742D01*
X822978Y547650D01*
X822961Y547557D01*
X822948Y547463D01*
X822939Y547369D01*
X822933Y547275D01*
X822931Y547180D01*
X825281Y549529D02*
X825389Y549527D01*
X825498Y549521D01*
X825606Y549511D01*
X825713Y549498D01*
X825820Y549480D01*
X825927Y549459D01*
X826032Y549434D01*
X826137Y549405D01*
X826240Y549373D01*
X826342Y549336D01*
X826443Y549296D01*
X826542Y549253D01*
X826640Y549206D01*
X826736Y549155D01*
X826830Y549101D01*
X826922Y549044D01*
X827012Y548983D01*
X827100Y548919D01*
X827185Y548853D01*
X827268Y548783D01*
X827348Y548710D01*
X827426Y548634D01*
X827501Y548556D01*
X827573Y548475D01*
X827642Y548391D01*
X827708Y548305D01*
X827771Y548217D01*
X827830Y548126D01*
X827887Y548034D01*
X827940Y547939D01*
X827989Y547842D01*
X828035Y547744D01*
X828078Y547645D01*
X828117Y547543D01*
X828152Y547441D01*
X823714Y545352D02*
X823645Y545421D01*
X823579Y545492D01*
X823515Y545565D01*
X823454Y545641D01*
X823396Y545720D01*
X823342Y545800D01*
X823290Y545883D01*
X823242Y545967D01*
X823196Y546053D01*
X823155Y546141D01*
X823116Y546231D01*
X823081Y546322D01*
X823050Y546414D01*
X823022Y546507D01*
X822998Y546601D01*
X822978Y546696D01*
X822961Y546792D01*
X822948Y546889D01*
X822939Y546986D01*
X822933Y547083D01*
X822931Y547180D01*
X823715Y545352D02*
X828153Y540131D01*
X822932Y540131D01*
X819401Y539087D02*
X815224Y539087D01*
X811372Y540131D02*
X811372Y549529D01*
X811372Y540131D02*
X807195Y540131D01*
X803377Y540131D02*
X803377Y549529D01*
X800244Y544308D01*
X797112Y549529D01*
X797112Y540131D01*
X790795Y540131D02*
X790795Y549529D01*
X788185Y549529D02*
X793406Y549529D01*
X552069Y508381D02*
X548936Y508381D01*
X548847Y508383D01*
X548759Y508389D01*
X548671Y508398D01*
X548583Y508411D01*
X548496Y508428D01*
X548410Y508448D01*
X548325Y508473D01*
X548240Y508500D01*
X548157Y508532D01*
X548076Y508566D01*
X547996Y508605D01*
X547918Y508646D01*
X547841Y508691D01*
X547767Y508739D01*
X547694Y508790D01*
X547624Y508844D01*
X547557Y508902D01*
X547491Y508962D01*
X547429Y509024D01*
X547369Y509090D01*
X547311Y509157D01*
X547257Y509227D01*
X547206Y509300D01*
X547158Y509374D01*
X547113Y509451D01*
X547072Y509529D01*
X547033Y509609D01*
X546999Y509690D01*
X546967Y509773D01*
X546940Y509858D01*
X546915Y509943D01*
X546895Y510029D01*
X546878Y510116D01*
X546865Y510204D01*
X546856Y510292D01*
X546850Y510380D01*
X546848Y510469D01*
X546848Y511514D01*
X546850Y511603D01*
X546856Y511691D01*
X546865Y511779D01*
X546878Y511867D01*
X546895Y511954D01*
X546915Y512040D01*
X546940Y512125D01*
X546967Y512210D01*
X546999Y512293D01*
X547033Y512374D01*
X547072Y512454D01*
X547113Y512532D01*
X547158Y512609D01*
X547206Y512683D01*
X547257Y512756D01*
X547311Y512826D01*
X547369Y512893D01*
X547429Y512959D01*
X547491Y513021D01*
X547557Y513081D01*
X547624Y513139D01*
X547694Y513193D01*
X547767Y513244D01*
X547841Y513292D01*
X547918Y513337D01*
X547996Y513378D01*
X548076Y513417D01*
X548157Y513451D01*
X548240Y513483D01*
X548325Y513510D01*
X548410Y513535D01*
X548496Y513555D01*
X548583Y513572D01*
X548671Y513585D01*
X548759Y513594D01*
X548847Y513600D01*
X548936Y513602D01*
X552069Y513602D01*
X552069Y517779D01*
X546848Y517779D01*
X543447Y517779D02*
X540315Y508381D01*
X537182Y517779D01*
X583861Y517779D02*
X586994Y508381D01*
X580729Y508381D02*
X583861Y517779D01*
X581512Y510731D02*
X586211Y510731D01*
X577328Y515691D02*
X574717Y517779D01*
X574717Y508381D01*
X572107Y508381D02*
X577328Y508381D01*
X568096Y512036D02*
X561831Y512036D01*
X621961Y517779D02*
X625094Y508381D01*
X618829Y508381D02*
X621961Y517779D01*
X619612Y510731D02*
X624311Y510731D01*
X615428Y515691D02*
X612817Y517779D01*
X612817Y508381D01*
X610207Y508381D02*
X615428Y508381D01*
X606196Y512036D02*
X599931Y512036D01*
X603064Y508903D02*
X603064Y515168D01*
X657408Y513602D02*
X660019Y513602D01*
X657408Y513603D02*
X657307Y513601D01*
X657206Y513595D01*
X657105Y513585D01*
X657005Y513572D01*
X656905Y513554D01*
X656806Y513533D01*
X656708Y513507D01*
X656611Y513478D01*
X656515Y513446D01*
X656421Y513409D01*
X656328Y513369D01*
X656236Y513325D01*
X656147Y513278D01*
X656059Y513227D01*
X655973Y513173D01*
X655890Y513116D01*
X655808Y513056D01*
X655730Y512992D01*
X655653Y512926D01*
X655580Y512856D01*
X655509Y512784D01*
X655441Y512709D01*
X655376Y512631D01*
X655314Y512551D01*
X655255Y512469D01*
X655199Y512384D01*
X655147Y512298D01*
X655098Y512209D01*
X655052Y512118D01*
X655011Y512026D01*
X654972Y511932D01*
X654938Y511837D01*
X654907Y511741D01*
X654880Y511643D01*
X654856Y511545D01*
X654837Y511445D01*
X654821Y511345D01*
X654809Y511245D01*
X654801Y511144D01*
X654797Y511043D01*
X654797Y510941D01*
X654801Y510840D01*
X654809Y510739D01*
X654821Y510639D01*
X654837Y510539D01*
X654856Y510439D01*
X654880Y510341D01*
X654907Y510243D01*
X654938Y510147D01*
X654972Y510052D01*
X655011Y509958D01*
X655052Y509866D01*
X655098Y509775D01*
X655147Y509687D01*
X655199Y509600D01*
X655255Y509515D01*
X655314Y509433D01*
X655376Y509353D01*
X655441Y509275D01*
X655509Y509200D01*
X655580Y509128D01*
X655653Y509058D01*
X655730Y508992D01*
X655808Y508928D01*
X655890Y508868D01*
X655973Y508811D01*
X656059Y508757D01*
X656147Y508706D01*
X656236Y508659D01*
X656328Y508615D01*
X656421Y508575D01*
X656515Y508538D01*
X656611Y508506D01*
X656708Y508477D01*
X656806Y508451D01*
X656905Y508430D01*
X657005Y508412D01*
X657105Y508399D01*
X657206Y508389D01*
X657307Y508383D01*
X657408Y508381D01*
X660019Y508381D01*
X660019Y517779D01*
X657408Y517779D01*
X657318Y517777D01*
X657229Y517771D01*
X657139Y517762D01*
X657050Y517748D01*
X656962Y517731D01*
X656875Y517710D01*
X656788Y517685D01*
X656703Y517656D01*
X656619Y517624D01*
X656537Y517589D01*
X656456Y517549D01*
X656377Y517507D01*
X656300Y517461D01*
X656225Y517411D01*
X656152Y517359D01*
X656081Y517303D01*
X656013Y517245D01*
X655948Y517183D01*
X655885Y517119D01*
X655825Y517052D01*
X655768Y516983D01*
X655714Y516911D01*
X655663Y516837D01*
X655615Y516761D01*
X655571Y516683D01*
X655530Y516603D01*
X655492Y516521D01*
X655458Y516438D01*
X655428Y516353D01*
X655401Y516267D01*
X655378Y516181D01*
X655359Y516093D01*
X655344Y516004D01*
X655332Y515915D01*
X655324Y515826D01*
X655320Y515736D01*
X655320Y515646D01*
X655324Y515556D01*
X655332Y515467D01*
X655344Y515378D01*
X655359Y515289D01*
X655378Y515201D01*
X655401Y515115D01*
X655428Y515029D01*
X655458Y514944D01*
X655492Y514861D01*
X655530Y514779D01*
X655571Y514699D01*
X655615Y514621D01*
X655663Y514545D01*
X655714Y514471D01*
X655768Y514399D01*
X655825Y514330D01*
X655885Y514263D01*
X655948Y514199D01*
X656013Y514137D01*
X656081Y514079D01*
X656152Y514023D01*
X656225Y513971D01*
X656300Y513921D01*
X656377Y513875D01*
X656456Y513833D01*
X656537Y513793D01*
X656619Y513758D01*
X656703Y513726D01*
X656788Y513697D01*
X656875Y513672D01*
X656962Y513651D01*
X657050Y513634D01*
X657139Y513620D01*
X657229Y513611D01*
X657318Y513605D01*
X657408Y513603D01*
X651311Y515691D02*
X648701Y517779D01*
X648701Y508381D01*
X651311Y508381D02*
X646090Y508381D01*
X642080Y512036D02*
X635814Y512036D01*
X698683Y513602D02*
X701294Y513602D01*
X698683Y513603D02*
X698582Y513601D01*
X698481Y513595D01*
X698380Y513585D01*
X698280Y513572D01*
X698180Y513554D01*
X698081Y513533D01*
X697983Y513507D01*
X697886Y513478D01*
X697790Y513446D01*
X697696Y513409D01*
X697603Y513369D01*
X697511Y513325D01*
X697422Y513278D01*
X697334Y513227D01*
X697248Y513173D01*
X697165Y513116D01*
X697083Y513056D01*
X697005Y512992D01*
X696928Y512926D01*
X696855Y512856D01*
X696784Y512784D01*
X696716Y512709D01*
X696651Y512631D01*
X696589Y512551D01*
X696530Y512469D01*
X696474Y512384D01*
X696422Y512298D01*
X696373Y512209D01*
X696327Y512118D01*
X696286Y512026D01*
X696247Y511932D01*
X696213Y511837D01*
X696182Y511741D01*
X696155Y511643D01*
X696131Y511545D01*
X696112Y511445D01*
X696096Y511345D01*
X696084Y511245D01*
X696076Y511144D01*
X696072Y511043D01*
X696072Y510941D01*
X696076Y510840D01*
X696084Y510739D01*
X696096Y510639D01*
X696112Y510539D01*
X696131Y510439D01*
X696155Y510341D01*
X696182Y510243D01*
X696213Y510147D01*
X696247Y510052D01*
X696286Y509958D01*
X696327Y509866D01*
X696373Y509775D01*
X696422Y509687D01*
X696474Y509600D01*
X696530Y509515D01*
X696589Y509433D01*
X696651Y509353D01*
X696716Y509275D01*
X696784Y509200D01*
X696855Y509128D01*
X696928Y509058D01*
X697005Y508992D01*
X697083Y508928D01*
X697165Y508868D01*
X697248Y508811D01*
X697334Y508757D01*
X697422Y508706D01*
X697511Y508659D01*
X697603Y508615D01*
X697696Y508575D01*
X697790Y508538D01*
X697886Y508506D01*
X697983Y508477D01*
X698081Y508451D01*
X698180Y508430D01*
X698280Y508412D01*
X698380Y508399D01*
X698481Y508389D01*
X698582Y508383D01*
X698683Y508381D01*
X701294Y508381D01*
X701294Y517779D01*
X698683Y517779D01*
X698593Y517777D01*
X698504Y517771D01*
X698414Y517762D01*
X698325Y517748D01*
X698237Y517731D01*
X698150Y517710D01*
X698063Y517685D01*
X697978Y517656D01*
X697894Y517624D01*
X697812Y517589D01*
X697731Y517549D01*
X697652Y517507D01*
X697575Y517461D01*
X697500Y517411D01*
X697427Y517359D01*
X697356Y517303D01*
X697288Y517245D01*
X697223Y517183D01*
X697160Y517119D01*
X697100Y517052D01*
X697043Y516983D01*
X696989Y516911D01*
X696938Y516837D01*
X696890Y516761D01*
X696846Y516683D01*
X696805Y516603D01*
X696767Y516521D01*
X696733Y516438D01*
X696703Y516353D01*
X696676Y516267D01*
X696653Y516181D01*
X696634Y516093D01*
X696619Y516004D01*
X696607Y515915D01*
X696599Y515826D01*
X696595Y515736D01*
X696595Y515646D01*
X696599Y515556D01*
X696607Y515467D01*
X696619Y515378D01*
X696634Y515289D01*
X696653Y515201D01*
X696676Y515115D01*
X696703Y515029D01*
X696733Y514944D01*
X696767Y514861D01*
X696805Y514779D01*
X696846Y514699D01*
X696890Y514621D01*
X696938Y514545D01*
X696989Y514471D01*
X697043Y514399D01*
X697100Y514330D01*
X697160Y514263D01*
X697223Y514199D01*
X697288Y514137D01*
X697356Y514079D01*
X697427Y514023D01*
X697500Y513971D01*
X697575Y513921D01*
X697652Y513875D01*
X697731Y513833D01*
X697812Y513793D01*
X697894Y513758D01*
X697978Y513726D01*
X698063Y513697D01*
X698150Y513672D01*
X698237Y513651D01*
X698325Y513634D01*
X698414Y513620D01*
X698504Y513611D01*
X698593Y513605D01*
X698683Y513603D01*
X692586Y515691D02*
X689976Y517779D01*
X689976Y508381D01*
X692586Y508381D02*
X687365Y508381D01*
X683355Y512036D02*
X677089Y512036D01*
X680222Y508903D02*
X680222Y515168D01*
M02*
