G04 EAGLE Gerber RS-274X export*
G75*
%MOMM*%
%FSLAX34Y34*%
%LPD*%
%INSolderpaste Top*%
%IPPOS*%
%AMOC8*
5,1,8,0,0,1.08239X$1,22.5*%
G01*
%ADD10R,0.600000X2.200000*%
%ADD11R,1.800000X2.600000*%
%ADD12R,2.200000X0.600000*%
%ADD13R,2.600000X1.800000*%


D10*
X417505Y153595D03*
X407505Y153595D03*
X427505Y153595D03*
X397505Y153595D03*
D11*
X733505Y129595D03*
X351505Y129595D03*
D10*
X387505Y153595D03*
X377505Y153595D03*
X437505Y153595D03*
X447505Y153595D03*
X457505Y153595D03*
X467505Y153595D03*
X477505Y153595D03*
X487505Y153595D03*
X497505Y153595D03*
X507505Y153595D03*
X517505Y153595D03*
X527505Y153595D03*
X537505Y153595D03*
X547505Y153595D03*
X557505Y153595D03*
X567505Y153595D03*
X577505Y153595D03*
X587505Y153595D03*
X597505Y153595D03*
X607505Y153595D03*
X617505Y153595D03*
X627505Y153595D03*
X637505Y153595D03*
X647505Y153595D03*
X657505Y153595D03*
X667505Y153595D03*
X677505Y153595D03*
X687505Y153595D03*
X697505Y153595D03*
X707505Y153595D03*
D12*
X300400Y459900D03*
X300400Y469900D03*
X300400Y449900D03*
X300400Y479900D03*
D13*
X276400Y143900D03*
X276400Y525900D03*
D12*
X300400Y489900D03*
X300400Y499900D03*
X300400Y439900D03*
X300400Y429900D03*
X300400Y419900D03*
X300400Y409900D03*
X300400Y399900D03*
X300400Y389900D03*
X300400Y379900D03*
X300400Y369900D03*
X300400Y359900D03*
X300400Y349900D03*
X300400Y339900D03*
X300400Y329900D03*
X300400Y319900D03*
X300400Y309900D03*
X300400Y299900D03*
X300400Y289900D03*
X300400Y279900D03*
X300400Y269900D03*
X300400Y259900D03*
X300400Y249900D03*
X300400Y239900D03*
X300400Y229900D03*
X300400Y219900D03*
X300400Y209900D03*
X300400Y199900D03*
X300400Y189900D03*
X300400Y179900D03*
X300400Y169900D03*
X831070Y215870D03*
X831070Y205870D03*
X831070Y225870D03*
X831070Y195870D03*
D13*
X855070Y531870D03*
X855070Y149870D03*
D12*
X831070Y185870D03*
X831070Y175870D03*
X831070Y235870D03*
X831070Y245870D03*
X831070Y255870D03*
X831070Y265870D03*
X831070Y275870D03*
X831070Y285870D03*
X831070Y295870D03*
X831070Y305870D03*
X831070Y315870D03*
X831070Y325870D03*
X831070Y335870D03*
X831070Y345870D03*
X831070Y355870D03*
X831070Y365870D03*
X831070Y375870D03*
X831070Y385870D03*
X831070Y395870D03*
X831070Y405870D03*
X831070Y415870D03*
X831070Y425870D03*
X831070Y435870D03*
X831070Y445870D03*
X831070Y455870D03*
X831070Y465870D03*
X831070Y475870D03*
X831070Y485870D03*
X831070Y495870D03*
X831070Y505870D03*
M02*
