G04 EAGLE Gerber RS-274X export*
G75*
%MOMM*%
%FSLAX34Y34*%
%LPD*%
%INTop Copper*%
%IPPOS*%
%AMOC8*
5,1,8,0,0,1.08239X$1,22.5*%
G01*
%ADD10R,0.600000X2.200000*%
%ADD11R,1.800000X2.600000*%
%ADD12R,2.200000X0.600000*%
%ADD13R,2.600000X1.800000*%
%ADD14C,0.889000*%
%ADD15C,0.406400*%
%ADD16C,1.524000*%
%ADD17C,0.203200*%
%ADD18C,3.556000*%
%ADD19C,0.756400*%
%ADD20C,0.508000*%
%ADD21C,1.270000*%
%ADD22C,3.810000*%

G36*
X349708Y94757D02*
X349708Y94757D01*
X349799Y94765D01*
X349829Y94777D01*
X349861Y94782D01*
X349941Y94825D01*
X350025Y94861D01*
X350057Y94887D01*
X350078Y94898D01*
X350100Y94921D01*
X350156Y94966D01*
X371886Y116696D01*
X371939Y116770D01*
X371999Y116839D01*
X372011Y116869D01*
X372030Y116896D01*
X372057Y116982D01*
X372091Y117067D01*
X372095Y117108D01*
X372102Y117131D01*
X372101Y117163D01*
X372109Y117234D01*
X372109Y161092D01*
X372414Y161828D01*
X372429Y161892D01*
X372454Y161953D01*
X372463Y162036D01*
X372470Y162068D01*
X372469Y162087D01*
X372472Y162120D01*
X372472Y165437D01*
X373663Y166628D01*
X373894Y166628D01*
X374008Y166647D01*
X374125Y166664D01*
X374130Y166666D01*
X374136Y166667D01*
X374239Y166722D01*
X374344Y166775D01*
X374348Y166780D01*
X374354Y166783D01*
X374434Y166867D01*
X374516Y166951D01*
X374520Y166957D01*
X374523Y166961D01*
X374531Y166978D01*
X374597Y167098D01*
X375126Y168374D01*
X380699Y173947D01*
X387981Y176964D01*
X395863Y176964D01*
X403145Y173947D01*
X408718Y168374D01*
X409247Y167098D01*
X409309Y166998D01*
X409369Y166898D01*
X409373Y166894D01*
X409377Y166889D01*
X409467Y166814D01*
X409556Y166738D01*
X409561Y166736D01*
X409566Y166732D01*
X409675Y166690D01*
X409784Y166646D01*
X409791Y166645D01*
X409796Y166644D01*
X409814Y166643D01*
X409950Y166628D01*
X411226Y166628D01*
X411246Y166631D01*
X411265Y166629D01*
X411367Y166651D01*
X411469Y166667D01*
X411486Y166677D01*
X411506Y166681D01*
X411595Y166734D01*
X411686Y166783D01*
X411700Y166797D01*
X411717Y166807D01*
X411784Y166886D01*
X411856Y166961D01*
X411864Y166979D01*
X411877Y166994D01*
X411916Y167090D01*
X411959Y167184D01*
X411961Y167204D01*
X411969Y167222D01*
X411987Y167389D01*
X411987Y178168D01*
X411973Y178258D01*
X411965Y178349D01*
X411953Y178379D01*
X411948Y178411D01*
X411905Y178491D01*
X411869Y178575D01*
X411843Y178607D01*
X411832Y178628D01*
X411809Y178650D01*
X411764Y178706D01*
X384524Y205947D01*
X381507Y213229D01*
X381507Y359778D01*
X381493Y359868D01*
X381485Y359959D01*
X381473Y359989D01*
X381468Y360021D01*
X381425Y360101D01*
X381389Y360185D01*
X381363Y360217D01*
X381352Y360238D01*
X381329Y360260D01*
X381284Y360316D01*
X349704Y391896D01*
X349630Y391949D01*
X349561Y392009D01*
X349531Y392021D01*
X349504Y392040D01*
X349418Y392067D01*
X349333Y392101D01*
X349292Y392105D01*
X349269Y392112D01*
X349237Y392111D01*
X349166Y392119D01*
X225294Y392119D01*
X225274Y392116D01*
X225255Y392118D01*
X225153Y392096D01*
X225051Y392080D01*
X225034Y392070D01*
X225014Y392066D01*
X224925Y392013D01*
X224834Y391964D01*
X224820Y391950D01*
X224803Y391940D01*
X224736Y391861D01*
X224664Y391786D01*
X224656Y391768D01*
X224643Y391753D01*
X224604Y391657D01*
X224561Y391563D01*
X224559Y391543D01*
X224551Y391525D01*
X224533Y391358D01*
X224533Y388090D01*
X223913Y387470D01*
X223901Y387454D01*
X223886Y387442D01*
X223830Y387354D01*
X223769Y387271D01*
X223764Y387252D01*
X223753Y387235D01*
X223728Y387134D01*
X223697Y387035D01*
X223698Y387016D01*
X223693Y386996D01*
X223701Y386893D01*
X223703Y386790D01*
X223710Y386771D01*
X223712Y386751D01*
X223752Y386656D01*
X223788Y386559D01*
X223800Y386543D01*
X223808Y386525D01*
X223913Y386394D01*
X224533Y385774D01*
X224533Y378090D01*
X224247Y377804D01*
X224205Y377746D01*
X224156Y377694D01*
X224134Y377647D01*
X224103Y377605D01*
X224082Y377536D01*
X224052Y377471D01*
X224046Y377419D01*
X224031Y377369D01*
X224033Y377298D01*
X224025Y377227D01*
X224036Y377176D01*
X224037Y377124D01*
X224062Y377056D01*
X224077Y376986D01*
X224104Y376941D01*
X224122Y376893D01*
X224167Y376837D01*
X224203Y376775D01*
X224243Y376741D01*
X224276Y376701D01*
X224336Y376662D01*
X224390Y376615D01*
X224439Y376596D01*
X224483Y376568D01*
X224552Y376550D01*
X224619Y376523D01*
X224690Y376515D01*
X224721Y376507D01*
X224744Y376509D01*
X224785Y376505D01*
X246046Y376505D01*
X246136Y376519D01*
X246227Y376527D01*
X246257Y376539D01*
X246289Y376544D01*
X246370Y376587D01*
X246453Y376623D01*
X246486Y376649D01*
X246506Y376660D01*
X246528Y376683D01*
X246584Y376728D01*
X248166Y378309D01*
X250303Y379195D01*
X252617Y379195D01*
X254754Y378309D01*
X256389Y376674D01*
X257275Y374537D01*
X257275Y372223D01*
X256389Y370086D01*
X254754Y368451D01*
X252617Y367565D01*
X252427Y367565D01*
X252337Y367551D01*
X252246Y367543D01*
X252217Y367531D01*
X252185Y367526D01*
X252104Y367483D01*
X252020Y367447D01*
X251988Y367421D01*
X251967Y367410D01*
X251945Y367387D01*
X251910Y367359D01*
X224785Y367359D01*
X224715Y367348D01*
X224643Y367346D01*
X224594Y367328D01*
X224543Y367320D01*
X224479Y367286D01*
X224412Y367261D01*
X224371Y367229D01*
X224325Y367204D01*
X224276Y367152D01*
X224220Y367108D01*
X224192Y367064D01*
X224156Y367026D01*
X224126Y366961D01*
X224087Y366901D01*
X224074Y366850D01*
X224052Y366803D01*
X224044Y366732D01*
X224027Y366662D01*
X224031Y366610D01*
X224025Y366559D01*
X224040Y366488D01*
X224046Y366417D01*
X224066Y366369D01*
X224077Y366318D01*
X224114Y366257D01*
X224142Y366191D01*
X224187Y366135D01*
X224203Y366107D01*
X224221Y366092D01*
X224247Y366060D01*
X224533Y365774D01*
X224533Y358090D01*
X223913Y357470D01*
X223901Y357454D01*
X223886Y357442D01*
X223830Y357354D01*
X223769Y357271D01*
X223764Y357252D01*
X223753Y357235D01*
X223728Y357134D01*
X223697Y357035D01*
X223698Y357016D01*
X223693Y356996D01*
X223701Y356893D01*
X223703Y356790D01*
X223710Y356771D01*
X223712Y356751D01*
X223752Y356656D01*
X223788Y356559D01*
X223800Y356543D01*
X223808Y356525D01*
X223913Y356394D01*
X224533Y355774D01*
X224533Y348090D01*
X223913Y347470D01*
X223901Y347454D01*
X223886Y347442D01*
X223830Y347354D01*
X223769Y347271D01*
X223764Y347252D01*
X223753Y347235D01*
X223728Y347134D01*
X223697Y347035D01*
X223698Y347016D01*
X223693Y346996D01*
X223701Y346893D01*
X223703Y346790D01*
X223710Y346771D01*
X223712Y346751D01*
X223752Y346656D01*
X223788Y346559D01*
X223800Y346543D01*
X223808Y346525D01*
X223913Y346394D01*
X224533Y345774D01*
X224533Y338090D01*
X224247Y337804D01*
X224205Y337746D01*
X224156Y337694D01*
X224134Y337647D01*
X224103Y337605D01*
X224082Y337536D01*
X224052Y337471D01*
X224046Y337419D01*
X224031Y337369D01*
X224033Y337298D01*
X224025Y337227D01*
X224036Y337176D01*
X224037Y337124D01*
X224062Y337056D01*
X224077Y336986D01*
X224104Y336941D01*
X224122Y336893D01*
X224167Y336837D01*
X224203Y336775D01*
X224243Y336741D01*
X224276Y336701D01*
X224336Y336662D01*
X224390Y336615D01*
X224439Y336596D01*
X224483Y336568D01*
X224552Y336550D01*
X224619Y336523D01*
X224690Y336515D01*
X224721Y336507D01*
X224744Y336509D01*
X224785Y336505D01*
X298612Y336505D01*
X301514Y333603D01*
X331567Y303550D01*
X331625Y303508D01*
X331677Y303459D01*
X331724Y303437D01*
X331766Y303407D01*
X331835Y303385D01*
X331900Y303355D01*
X331952Y303349D01*
X332002Y303334D01*
X332073Y303336D01*
X332144Y303328D01*
X332195Y303339D01*
X332247Y303341D01*
X332315Y303365D01*
X332385Y303380D01*
X332430Y303407D01*
X332478Y303425D01*
X332534Y303470D01*
X332596Y303507D01*
X332630Y303546D01*
X332670Y303579D01*
X332709Y303639D01*
X332756Y303693D01*
X332775Y303742D01*
X332803Y303786D01*
X332821Y303855D01*
X332848Y303922D01*
X332856Y303993D01*
X332864Y304024D01*
X332862Y304047D01*
X332866Y304088D01*
X332866Y307990D01*
X334336Y311538D01*
X337051Y314253D01*
X340599Y315723D01*
X359679Y315723D01*
X363227Y314253D01*
X365942Y311538D01*
X367412Y307990D01*
X367412Y304150D01*
X365942Y300602D01*
X363227Y297887D01*
X359679Y296417D01*
X340537Y296417D01*
X340467Y296406D01*
X340395Y296404D01*
X340346Y296386D01*
X340295Y296378D01*
X340231Y296344D01*
X340164Y296319D01*
X340123Y296287D01*
X340077Y296262D01*
X340028Y296210D01*
X339972Y296166D01*
X339944Y296122D01*
X339908Y296084D01*
X339878Y296019D01*
X339839Y295959D01*
X339826Y295908D01*
X339804Y295861D01*
X339796Y295790D01*
X339779Y295720D01*
X339783Y295668D01*
X339777Y295617D01*
X339792Y295546D01*
X339798Y295475D01*
X339818Y295427D01*
X339829Y295376D01*
X339866Y295315D01*
X339894Y295249D01*
X339939Y295193D01*
X339956Y295165D01*
X339973Y295150D01*
X339999Y295118D01*
X379223Y255894D01*
X379223Y201599D01*
X379237Y201509D01*
X379245Y201418D01*
X379257Y201389D01*
X379262Y201357D01*
X379305Y201276D01*
X379341Y201192D01*
X379367Y201160D01*
X379378Y201139D01*
X379401Y201117D01*
X379446Y201061D01*
X389049Y191458D01*
X389123Y191405D01*
X389193Y191345D01*
X389223Y191333D01*
X389249Y191314D01*
X389336Y191287D01*
X389421Y191253D01*
X389462Y191249D01*
X389484Y191242D01*
X389516Y191243D01*
X389587Y191235D01*
X389777Y191235D01*
X391914Y190349D01*
X393549Y188714D01*
X394435Y186577D01*
X394435Y184263D01*
X393549Y182126D01*
X391914Y180491D01*
X389777Y179605D01*
X387463Y179605D01*
X385326Y180491D01*
X383691Y182126D01*
X382805Y184263D01*
X382805Y184453D01*
X382791Y184543D01*
X382783Y184634D01*
X382771Y184663D01*
X382766Y184695D01*
X382723Y184776D01*
X382687Y184860D01*
X382661Y184892D01*
X382650Y184913D01*
X382627Y184935D01*
X382582Y184991D01*
X370077Y197496D01*
X370077Y251791D01*
X370063Y251881D01*
X370055Y251972D01*
X370043Y252001D01*
X370038Y252033D01*
X369995Y252114D01*
X369959Y252198D01*
X369933Y252230D01*
X369922Y252251D01*
X369899Y252273D01*
X369879Y252298D01*
X369876Y252304D01*
X369872Y252307D01*
X369854Y252329D01*
X295047Y327136D01*
X294973Y327189D01*
X294903Y327249D01*
X294873Y327261D01*
X294847Y327280D01*
X294760Y327307D01*
X294675Y327341D01*
X294634Y327345D01*
X294612Y327352D01*
X294580Y327351D01*
X294509Y327359D01*
X225351Y327359D01*
X225257Y327344D01*
X225162Y327335D01*
X225136Y327324D01*
X225108Y327320D01*
X225024Y327275D01*
X224937Y327237D01*
X224916Y327218D01*
X224891Y327204D01*
X224825Y327136D01*
X224755Y327071D01*
X224741Y327047D01*
X224721Y327026D01*
X224681Y326940D01*
X224635Y326856D01*
X224630Y326829D01*
X224618Y326803D01*
X224607Y326708D01*
X224590Y326615D01*
X224594Y326587D01*
X224591Y326559D01*
X224611Y326465D01*
X224624Y326371D01*
X224639Y326339D01*
X224643Y326318D01*
X224660Y326290D01*
X224692Y326217D01*
X224868Y325913D01*
X225041Y325266D01*
X225041Y323431D01*
X212238Y323431D01*
X212219Y323428D01*
X212199Y323430D01*
X212097Y323408D01*
X211995Y323392D01*
X211978Y323382D01*
X211958Y323378D01*
X211869Y323325D01*
X211778Y323276D01*
X211764Y323262D01*
X211747Y323252D01*
X211680Y323173D01*
X211609Y323098D01*
X211600Y323080D01*
X211587Y323065D01*
X211549Y322969D01*
X211505Y322875D01*
X211503Y322855D01*
X211496Y322837D01*
X211483Y322913D01*
X211474Y322930D01*
X211470Y322950D01*
X211417Y323039D01*
X211368Y323130D01*
X211354Y323144D01*
X211344Y323161D01*
X211265Y323228D01*
X211190Y323300D01*
X211172Y323308D01*
X211157Y323321D01*
X211060Y323360D01*
X210967Y323403D01*
X210947Y323405D01*
X210929Y323413D01*
X210762Y323431D01*
X197959Y323431D01*
X197959Y325266D01*
X198132Y325913D01*
X198467Y326492D01*
X198728Y326753D01*
X198739Y326769D01*
X198755Y326782D01*
X198811Y326869D01*
X198871Y326953D01*
X198877Y326972D01*
X198888Y326988D01*
X198913Y327089D01*
X198944Y327188D01*
X198943Y327208D01*
X198948Y327227D01*
X198940Y327330D01*
X198937Y327434D01*
X198930Y327452D01*
X198929Y327472D01*
X198888Y327567D01*
X198853Y327665D01*
X198840Y327680D01*
X198833Y327699D01*
X198728Y327830D01*
X198297Y328260D01*
X198223Y328313D01*
X198154Y328373D01*
X198124Y328385D01*
X198097Y328404D01*
X198010Y328430D01*
X197926Y328465D01*
X197885Y328469D01*
X197862Y328476D01*
X197830Y328475D01*
X197759Y328483D01*
X195166Y328483D01*
X195076Y328468D01*
X194985Y328461D01*
X194955Y328449D01*
X194923Y328443D01*
X194843Y328401D01*
X194759Y328365D01*
X194727Y328339D01*
X194706Y328328D01*
X194684Y328305D01*
X194628Y328260D01*
X193986Y327618D01*
X191849Y326733D01*
X189536Y326733D01*
X187398Y327618D01*
X185763Y329254D01*
X185112Y330826D01*
X185087Y330865D01*
X185072Y330908D01*
X185023Y330969D01*
X184982Y331035D01*
X184946Y331065D01*
X184918Y331100D01*
X184852Y331142D01*
X184792Y331192D01*
X184750Y331208D01*
X184711Y331233D01*
X184635Y331252D01*
X184563Y331280D01*
X184517Y331282D01*
X184472Y331293D01*
X184395Y331287D01*
X184317Y331291D01*
X184273Y331278D01*
X184227Y331274D01*
X184156Y331244D01*
X184081Y331222D01*
X184043Y331196D01*
X184001Y331178D01*
X183894Y331093D01*
X183879Y331082D01*
X183876Y331078D01*
X183870Y331073D01*
X174976Y322179D01*
X174923Y322105D01*
X174863Y322035D01*
X174851Y322005D01*
X174832Y321979D01*
X174805Y321892D01*
X174771Y321807D01*
X174767Y321766D01*
X174760Y321744D01*
X174761Y321712D01*
X174753Y321641D01*
X174753Y306932D01*
X174767Y306842D01*
X174775Y306751D01*
X174787Y306721D01*
X174792Y306689D01*
X174835Y306608D01*
X174871Y306525D01*
X174897Y306492D01*
X174908Y306472D01*
X174931Y306450D01*
X174976Y306394D01*
X175109Y306260D01*
X175995Y304123D01*
X175995Y301809D01*
X175109Y299672D01*
X173474Y298037D01*
X171337Y297151D01*
X169023Y297151D01*
X166886Y298037D01*
X165991Y298931D01*
X165975Y298943D01*
X165963Y298959D01*
X165875Y299015D01*
X165792Y299075D01*
X165773Y299081D01*
X165756Y299092D01*
X165655Y299117D01*
X165556Y299147D01*
X165537Y299147D01*
X165517Y299152D01*
X165414Y299144D01*
X165311Y299141D01*
X165292Y299134D01*
X165272Y299133D01*
X165177Y299092D01*
X165080Y299057D01*
X165064Y299044D01*
X165046Y299036D01*
X164915Y298931D01*
X163314Y297331D01*
X161177Y296445D01*
X158863Y296445D01*
X156726Y297331D01*
X155091Y298966D01*
X154205Y301103D01*
X154205Y301293D01*
X154201Y301318D01*
X154203Y301333D01*
X154190Y301394D01*
X154183Y301474D01*
X154177Y301488D01*
X154177Y329536D01*
X154166Y329607D01*
X154164Y329679D01*
X154146Y329728D01*
X154138Y329779D01*
X154104Y329842D01*
X154079Y329910D01*
X154047Y329950D01*
X154022Y329996D01*
X153970Y330046D01*
X153926Y330102D01*
X153882Y330130D01*
X153844Y330166D01*
X153779Y330196D01*
X153719Y330235D01*
X153668Y330247D01*
X153621Y330269D01*
X153550Y330277D01*
X153480Y330295D01*
X153428Y330291D01*
X153377Y330296D01*
X153306Y330281D01*
X153235Y330276D01*
X153187Y330255D01*
X153136Y330244D01*
X153075Y330207D01*
X153009Y330179D01*
X152953Y330134D01*
X152925Y330118D01*
X152910Y330100D01*
X152878Y330074D01*
X151884Y329081D01*
X149747Y328195D01*
X147433Y328195D01*
X145296Y329081D01*
X143661Y330716D01*
X142775Y332853D01*
X142775Y335167D01*
X143423Y336731D01*
X143438Y336795D01*
X143463Y336856D01*
X143472Y336939D01*
X143479Y336971D01*
X143478Y336990D01*
X143481Y337022D01*
X143481Y441296D01*
X143467Y441386D01*
X143459Y441477D01*
X143447Y441507D01*
X143442Y441539D01*
X143399Y441620D01*
X143363Y441703D01*
X143337Y441736D01*
X143326Y441756D01*
X143303Y441778D01*
X143258Y441834D01*
X142617Y442476D01*
X141731Y444613D01*
X141731Y446927D01*
X142617Y449064D01*
X144295Y450742D01*
X144313Y450752D01*
X144331Y450770D01*
X144353Y450784D01*
X144415Y450859D01*
X144482Y450930D01*
X144493Y450953D01*
X144510Y450973D01*
X144545Y451065D01*
X144586Y451153D01*
X144589Y451179D01*
X144598Y451203D01*
X144602Y451301D01*
X144613Y451397D01*
X144608Y451423D01*
X144609Y451449D01*
X144582Y451542D01*
X144561Y451638D01*
X144547Y451660D01*
X144540Y451685D01*
X144485Y451765D01*
X144435Y451849D01*
X144415Y451866D01*
X144400Y451887D01*
X144322Y451945D01*
X144248Y452009D01*
X144224Y452019D01*
X144203Y452034D01*
X144110Y452064D01*
X144020Y452101D01*
X143987Y452104D01*
X143969Y452110D01*
X143936Y452110D01*
X143853Y452119D01*
X137709Y452119D01*
X137664Y452112D01*
X137618Y452114D01*
X137543Y452092D01*
X137467Y452080D01*
X137426Y452058D01*
X137382Y452045D01*
X137318Y452001D01*
X137249Y451964D01*
X137218Y451931D01*
X137180Y451905D01*
X137133Y451842D01*
X137080Y451786D01*
X137060Y451744D01*
X137033Y451708D01*
X137009Y451634D01*
X136976Y451563D01*
X136971Y451517D01*
X136957Y451474D01*
X136958Y451396D01*
X136949Y451319D01*
X136959Y451274D01*
X136959Y451228D01*
X136997Y451096D01*
X137001Y451078D01*
X137004Y451074D01*
X137006Y451067D01*
X137669Y449467D01*
X137669Y447153D01*
X136783Y445016D01*
X136142Y444374D01*
X136089Y444300D01*
X136029Y444231D01*
X136017Y444201D01*
X135998Y444175D01*
X135971Y444088D01*
X135937Y444003D01*
X135933Y443962D01*
X135926Y443940D01*
X135927Y443907D01*
X135919Y443836D01*
X135919Y280355D01*
X135933Y280265D01*
X135941Y280174D01*
X135953Y280144D01*
X135958Y280112D01*
X136001Y280032D01*
X136037Y279948D01*
X136063Y279916D01*
X136074Y279895D01*
X136097Y279873D01*
X136142Y279817D01*
X144971Y270988D01*
X145045Y270935D01*
X145114Y270875D01*
X145144Y270863D01*
X145170Y270844D01*
X145257Y270817D01*
X145342Y270783D01*
X145383Y270779D01*
X145405Y270772D01*
X145438Y270773D01*
X145509Y270765D01*
X179676Y270765D01*
X179766Y270779D01*
X179857Y270787D01*
X179887Y270799D01*
X179919Y270804D01*
X180000Y270847D01*
X180083Y270883D01*
X180116Y270909D01*
X180136Y270920D01*
X180158Y270943D01*
X180214Y270988D01*
X180856Y271629D01*
X182993Y272515D01*
X185307Y272515D01*
X187444Y271629D01*
X187578Y271496D01*
X187652Y271443D01*
X187721Y271383D01*
X187751Y271371D01*
X187777Y271352D01*
X187864Y271325D01*
X187949Y271291D01*
X187990Y271287D01*
X188012Y271280D01*
X188045Y271281D01*
X188116Y271273D01*
X197706Y271273D01*
X197726Y271276D01*
X197745Y271274D01*
X197847Y271296D01*
X197949Y271312D01*
X197966Y271322D01*
X197986Y271326D01*
X198075Y271379D01*
X198166Y271428D01*
X198180Y271442D01*
X198197Y271452D01*
X198264Y271531D01*
X198336Y271606D01*
X198344Y271624D01*
X198357Y271639D01*
X198396Y271735D01*
X198439Y271829D01*
X198441Y271849D01*
X198449Y271867D01*
X198467Y272034D01*
X198467Y275774D01*
X199087Y276394D01*
X199099Y276410D01*
X199114Y276422D01*
X199150Y276479D01*
X199176Y276506D01*
X199192Y276540D01*
X199231Y276593D01*
X199236Y276612D01*
X199247Y276629D01*
X199263Y276693D01*
X199280Y276729D01*
X199284Y276768D01*
X199303Y276829D01*
X199302Y276848D01*
X199307Y276868D01*
X199302Y276931D01*
X199307Y276973D01*
X199298Y277014D01*
X199297Y277074D01*
X199290Y277093D01*
X199288Y277113D01*
X199265Y277168D01*
X199255Y277214D01*
X199231Y277253D01*
X199212Y277305D01*
X199200Y277321D01*
X199192Y277339D01*
X199144Y277399D01*
X199128Y277425D01*
X199112Y277439D01*
X199087Y277470D01*
X198467Y278090D01*
X198467Y285774D01*
X199087Y286394D01*
X199099Y286410D01*
X199114Y286422D01*
X199170Y286510D01*
X199231Y286593D01*
X199236Y286612D01*
X199247Y286629D01*
X199272Y286730D01*
X199303Y286829D01*
X199302Y286848D01*
X199307Y286868D01*
X199299Y286971D01*
X199297Y287074D01*
X199290Y287093D01*
X199288Y287113D01*
X199248Y287208D01*
X199212Y287305D01*
X199200Y287321D01*
X199192Y287339D01*
X199087Y287470D01*
X198467Y288090D01*
X198467Y295774D01*
X199087Y296394D01*
X199099Y296410D01*
X199114Y296422D01*
X199170Y296510D01*
X199231Y296593D01*
X199236Y296612D01*
X199247Y296629D01*
X199272Y296730D01*
X199303Y296829D01*
X199302Y296848D01*
X199307Y296868D01*
X199299Y296971D01*
X199297Y297074D01*
X199290Y297093D01*
X199288Y297113D01*
X199248Y297208D01*
X199212Y297305D01*
X199200Y297321D01*
X199192Y297339D01*
X199087Y297470D01*
X198467Y298090D01*
X198467Y305774D01*
X199087Y306394D01*
X199099Y306410D01*
X199114Y306422D01*
X199170Y306510D01*
X199231Y306593D01*
X199236Y306612D01*
X199247Y306629D01*
X199272Y306730D01*
X199303Y306829D01*
X199302Y306848D01*
X199307Y306868D01*
X199299Y306971D01*
X199297Y307074D01*
X199290Y307093D01*
X199288Y307113D01*
X199248Y307208D01*
X199212Y307305D01*
X199200Y307321D01*
X199192Y307339D01*
X199087Y307470D01*
X198467Y308090D01*
X198467Y315774D01*
X198728Y316035D01*
X198739Y316051D01*
X198755Y316063D01*
X198811Y316151D01*
X198871Y316234D01*
X198877Y316253D01*
X198888Y316270D01*
X198913Y316371D01*
X198944Y316469D01*
X198943Y316489D01*
X198948Y316509D01*
X198940Y316612D01*
X198937Y316715D01*
X198930Y316734D01*
X198929Y316754D01*
X198889Y316849D01*
X198853Y316946D01*
X198840Y316962D01*
X198833Y316980D01*
X198728Y317111D01*
X198467Y317372D01*
X198132Y317951D01*
X197959Y318598D01*
X197959Y320433D01*
X210762Y320433D01*
X210781Y320436D01*
X210801Y320434D01*
X210903Y320456D01*
X211005Y320472D01*
X211022Y320482D01*
X211042Y320486D01*
X211131Y320539D01*
X211222Y320588D01*
X211236Y320602D01*
X211253Y320612D01*
X211320Y320691D01*
X211391Y320766D01*
X211400Y320784D01*
X211413Y320799D01*
X211451Y320895D01*
X211495Y320989D01*
X211497Y321009D01*
X211504Y321027D01*
X211517Y320951D01*
X211526Y320934D01*
X211530Y320914D01*
X211583Y320825D01*
X211632Y320734D01*
X211646Y320720D01*
X211656Y320703D01*
X211735Y320636D01*
X211810Y320564D01*
X211828Y320556D01*
X211843Y320543D01*
X211940Y320504D01*
X212033Y320461D01*
X212053Y320459D01*
X212071Y320451D01*
X212238Y320433D01*
X225041Y320433D01*
X225041Y318598D01*
X224868Y317951D01*
X224533Y317372D01*
X224272Y317111D01*
X224261Y317095D01*
X224245Y317082D01*
X224189Y316995D01*
X224129Y316911D01*
X224123Y316892D01*
X224112Y316876D01*
X224087Y316775D01*
X224056Y316676D01*
X224057Y316656D01*
X224052Y316637D01*
X224060Y316534D01*
X224063Y316430D01*
X224070Y316412D01*
X224071Y316392D01*
X224111Y316297D01*
X224147Y316199D01*
X224160Y316184D01*
X224167Y316165D01*
X224272Y316035D01*
X224533Y315774D01*
X224533Y308090D01*
X224247Y307804D01*
X224205Y307746D01*
X224156Y307694D01*
X224134Y307647D01*
X224103Y307605D01*
X224082Y307536D01*
X224052Y307471D01*
X224046Y307419D01*
X224031Y307369D01*
X224033Y307298D01*
X224025Y307227D01*
X224036Y307176D01*
X224037Y307124D01*
X224062Y307056D01*
X224077Y306986D01*
X224104Y306941D01*
X224122Y306893D01*
X224167Y306837D01*
X224203Y306775D01*
X224243Y306741D01*
X224276Y306701D01*
X224336Y306662D01*
X224390Y306615D01*
X224439Y306596D01*
X224483Y306568D01*
X224552Y306550D01*
X224619Y306523D01*
X224690Y306515D01*
X224721Y306507D01*
X224744Y306509D01*
X224785Y306505D01*
X231926Y306505D01*
X232016Y306519D01*
X232107Y306527D01*
X232137Y306539D01*
X232169Y306544D01*
X232250Y306587D01*
X232333Y306623D01*
X232366Y306649D01*
X232386Y306660D01*
X232408Y306683D01*
X232464Y306728D01*
X232926Y307189D01*
X235063Y308075D01*
X237377Y308075D01*
X239514Y307189D01*
X241149Y305554D01*
X242035Y303417D01*
X242035Y301103D01*
X241149Y298966D01*
X239514Y297331D01*
X238038Y296719D01*
X237999Y296695D01*
X237956Y296679D01*
X237895Y296631D01*
X237829Y296590D01*
X237800Y296554D01*
X237764Y296526D01*
X237722Y296460D01*
X237673Y296400D01*
X237656Y296357D01*
X237631Y296319D01*
X237612Y296243D01*
X237584Y296171D01*
X237582Y296125D01*
X237571Y296080D01*
X237577Y296003D01*
X237574Y295925D01*
X237587Y295881D01*
X237590Y295835D01*
X237621Y295763D01*
X237642Y295689D01*
X237669Y295651D01*
X237687Y295609D01*
X237772Y295502D01*
X237783Y295487D01*
X237787Y295484D01*
X237791Y295478D01*
X237876Y295394D01*
X238761Y293257D01*
X238761Y290943D01*
X237875Y288806D01*
X236240Y287171D01*
X234103Y286285D01*
X231789Y286285D01*
X229621Y287184D01*
X229612Y287189D01*
X229543Y287249D01*
X229513Y287261D01*
X229487Y287280D01*
X229400Y287307D01*
X229315Y287341D01*
X229274Y287345D01*
X229252Y287352D01*
X229219Y287351D01*
X229148Y287359D01*
X224785Y287359D01*
X224715Y287348D01*
X224643Y287346D01*
X224594Y287328D01*
X224543Y287320D01*
X224479Y287286D01*
X224412Y287261D01*
X224371Y287229D01*
X224325Y287204D01*
X224276Y287152D01*
X224220Y287108D01*
X224192Y287064D01*
X224156Y287026D01*
X224126Y286961D01*
X224087Y286901D01*
X224074Y286850D01*
X224052Y286803D01*
X224044Y286732D01*
X224027Y286662D01*
X224031Y286610D01*
X224025Y286559D01*
X224040Y286488D01*
X224046Y286417D01*
X224066Y286369D01*
X224077Y286318D01*
X224114Y286257D01*
X224142Y286191D01*
X224187Y286135D01*
X224203Y286107D01*
X224221Y286092D01*
X224247Y286060D01*
X224533Y285774D01*
X224533Y278090D01*
X223913Y277470D01*
X223901Y277454D01*
X223886Y277442D01*
X223857Y277398D01*
X223824Y277362D01*
X223803Y277317D01*
X223769Y277271D01*
X223764Y277252D01*
X223753Y277235D01*
X223739Y277179D01*
X223720Y277139D01*
X223715Y277094D01*
X223697Y277035D01*
X223698Y277016D01*
X223693Y276996D01*
X223698Y276935D01*
X223693Y276895D01*
X223702Y276854D01*
X223703Y276790D01*
X223710Y276771D01*
X223712Y276751D01*
X223737Y276692D01*
X223745Y276654D01*
X223765Y276621D01*
X223788Y276559D01*
X223800Y276543D01*
X223808Y276525D01*
X223865Y276453D01*
X223871Y276443D01*
X223878Y276437D01*
X223913Y276394D01*
X224533Y275774D01*
X224533Y268090D01*
X223913Y267470D01*
X223901Y267454D01*
X223886Y267442D01*
X223830Y267354D01*
X223769Y267271D01*
X223764Y267252D01*
X223753Y267235D01*
X223728Y267134D01*
X223697Y267035D01*
X223698Y267016D01*
X223693Y266996D01*
X223701Y266893D01*
X223703Y266790D01*
X223710Y266771D01*
X223712Y266751D01*
X223752Y266656D01*
X223788Y266559D01*
X223800Y266543D01*
X223808Y266525D01*
X223913Y266394D01*
X224533Y265774D01*
X224533Y258090D01*
X223913Y257470D01*
X223901Y257454D01*
X223886Y257442D01*
X223830Y257354D01*
X223769Y257271D01*
X223764Y257252D01*
X223753Y257235D01*
X223728Y257134D01*
X223697Y257035D01*
X223698Y257016D01*
X223693Y256996D01*
X223701Y256893D01*
X223703Y256790D01*
X223710Y256771D01*
X223712Y256751D01*
X223752Y256656D01*
X223788Y256559D01*
X223800Y256543D01*
X223808Y256525D01*
X223913Y256394D01*
X224533Y255774D01*
X224533Y248090D01*
X223913Y247470D01*
X223901Y247454D01*
X223886Y247442D01*
X223830Y247354D01*
X223769Y247271D01*
X223764Y247252D01*
X223753Y247235D01*
X223728Y247134D01*
X223697Y247035D01*
X223698Y247016D01*
X223693Y246996D01*
X223701Y246893D01*
X223703Y246790D01*
X223710Y246771D01*
X223712Y246751D01*
X223752Y246656D01*
X223788Y246559D01*
X223800Y246543D01*
X223808Y246525D01*
X223913Y246394D01*
X224533Y245774D01*
X224533Y238090D01*
X223913Y237470D01*
X223901Y237454D01*
X223886Y237442D01*
X223830Y237354D01*
X223769Y237271D01*
X223764Y237252D01*
X223753Y237235D01*
X223728Y237134D01*
X223697Y237035D01*
X223698Y237016D01*
X223693Y236996D01*
X223701Y236893D01*
X223703Y236790D01*
X223710Y236771D01*
X223712Y236751D01*
X223752Y236656D01*
X223788Y236559D01*
X223800Y236543D01*
X223808Y236525D01*
X223913Y236394D01*
X224533Y235774D01*
X224533Y232664D01*
X224536Y232644D01*
X224534Y232625D01*
X224556Y232523D01*
X224572Y232421D01*
X224582Y232404D01*
X224586Y232384D01*
X224639Y232295D01*
X224688Y232204D01*
X224702Y232190D01*
X224712Y232173D01*
X224791Y232106D01*
X224866Y232034D01*
X224884Y232026D01*
X224899Y232013D01*
X224995Y231974D01*
X225089Y231931D01*
X225109Y231929D01*
X225127Y231921D01*
X225294Y231903D01*
X225904Y231903D01*
X225994Y231917D01*
X226085Y231925D01*
X226115Y231937D01*
X226147Y231942D01*
X226228Y231985D01*
X226311Y232021D01*
X226344Y232047D01*
X226364Y232058D01*
X226386Y232081D01*
X226442Y232126D01*
X226576Y232259D01*
X228713Y233145D01*
X231027Y233145D01*
X233164Y232259D01*
X234799Y230624D01*
X235685Y228487D01*
X235685Y226173D01*
X234799Y224036D01*
X233164Y222401D01*
X231027Y221515D01*
X228713Y221515D01*
X226576Y222401D01*
X226442Y222534D01*
X226368Y222587D01*
X226299Y222647D01*
X226269Y222659D01*
X226243Y222678D01*
X226156Y222705D01*
X226071Y222739D01*
X226030Y222743D01*
X226008Y222750D01*
X225975Y222749D01*
X225904Y222757D01*
X225294Y222757D01*
X225274Y222754D01*
X225255Y222756D01*
X225153Y222734D01*
X225051Y222718D01*
X225034Y222708D01*
X225014Y222704D01*
X224925Y222651D01*
X224834Y222602D01*
X224820Y222588D01*
X224803Y222578D01*
X224736Y222499D01*
X224664Y222424D01*
X224656Y222406D01*
X224643Y222391D01*
X224604Y222295D01*
X224561Y222201D01*
X224559Y222181D01*
X224551Y222163D01*
X224533Y221996D01*
X224533Y218090D01*
X223913Y217470D01*
X223901Y217454D01*
X223886Y217442D01*
X223830Y217354D01*
X223769Y217271D01*
X223764Y217252D01*
X223753Y217235D01*
X223728Y217134D01*
X223697Y217035D01*
X223698Y217016D01*
X223693Y216996D01*
X223701Y216893D01*
X223703Y216790D01*
X223710Y216771D01*
X223712Y216751D01*
X223752Y216656D01*
X223788Y216559D01*
X223800Y216543D01*
X223808Y216525D01*
X223913Y216394D01*
X224533Y215774D01*
X224533Y212344D01*
X224536Y212324D01*
X224534Y212305D01*
X224556Y212203D01*
X224572Y212101D01*
X224582Y212084D01*
X224586Y212064D01*
X224639Y211975D01*
X224688Y211884D01*
X224702Y211870D01*
X224712Y211853D01*
X224791Y211786D01*
X224866Y211714D01*
X224884Y211706D01*
X224899Y211693D01*
X224995Y211654D01*
X225089Y211611D01*
X225109Y211609D01*
X225127Y211601D01*
X225294Y211583D01*
X226684Y211583D01*
X236983Y201284D01*
X236983Y140346D01*
X201426Y104789D01*
X201372Y104715D01*
X201313Y104645D01*
X201301Y104615D01*
X201282Y104589D01*
X201255Y104502D01*
X201221Y104417D01*
X201216Y104376D01*
X201210Y104354D01*
X201210Y104322D01*
X201203Y104250D01*
X201203Y104061D01*
X200317Y101924D01*
X198682Y100288D01*
X196544Y99403D01*
X194231Y99403D01*
X192094Y100288D01*
X190458Y101924D01*
X189573Y104061D01*
X189573Y106374D01*
X190458Y108512D01*
X192094Y110147D01*
X194231Y111033D01*
X194420Y111033D01*
X194510Y111047D01*
X194601Y111054D01*
X194631Y111067D01*
X194663Y111072D01*
X194744Y111115D01*
X194828Y111151D01*
X194860Y111176D01*
X194881Y111187D01*
X194903Y111211D01*
X194959Y111256D01*
X227614Y143911D01*
X227667Y143985D01*
X227727Y144055D01*
X227739Y144085D01*
X227758Y144111D01*
X227785Y144198D01*
X227819Y144283D01*
X227823Y144324D01*
X227830Y144346D01*
X227829Y144378D01*
X227837Y144449D01*
X227837Y197181D01*
X227823Y197271D01*
X227815Y197362D01*
X227803Y197391D01*
X227798Y197423D01*
X227755Y197504D01*
X227719Y197588D01*
X227693Y197620D01*
X227682Y197641D01*
X227659Y197663D01*
X227614Y197719D01*
X225832Y199501D01*
X225774Y199543D01*
X225722Y199592D01*
X225675Y199614D01*
X225633Y199644D01*
X225564Y199666D01*
X225499Y199696D01*
X225447Y199701D01*
X225397Y199717D01*
X225326Y199715D01*
X225255Y199723D01*
X225204Y199712D01*
X225152Y199710D01*
X225084Y199686D01*
X225014Y199671D01*
X224969Y199644D01*
X224921Y199626D01*
X224865Y199581D01*
X224803Y199544D01*
X224769Y199505D01*
X224729Y199472D01*
X224690Y199412D01*
X224643Y199358D01*
X224624Y199309D01*
X224596Y199265D01*
X224578Y199196D01*
X224551Y199129D01*
X224543Y199058D01*
X224535Y199027D01*
X224537Y199004D01*
X224533Y198963D01*
X224533Y198090D01*
X223913Y197470D01*
X223901Y197454D01*
X223886Y197442D01*
X223830Y197354D01*
X223769Y197271D01*
X223764Y197252D01*
X223753Y197235D01*
X223728Y197134D01*
X223697Y197035D01*
X223698Y197016D01*
X223693Y196996D01*
X223701Y196893D01*
X223703Y196790D01*
X223710Y196771D01*
X223712Y196751D01*
X223752Y196656D01*
X223788Y196559D01*
X223800Y196543D01*
X223808Y196525D01*
X223913Y196394D01*
X224533Y195774D01*
X224533Y188090D01*
X223913Y187470D01*
X223901Y187454D01*
X223886Y187442D01*
X223830Y187354D01*
X223769Y187271D01*
X223764Y187252D01*
X223753Y187235D01*
X223728Y187134D01*
X223697Y187035D01*
X223698Y187016D01*
X223693Y186996D01*
X223701Y186893D01*
X223703Y186790D01*
X223710Y186771D01*
X223712Y186751D01*
X223752Y186656D01*
X223788Y186559D01*
X223800Y186543D01*
X223808Y186525D01*
X223913Y186394D01*
X224533Y185774D01*
X224533Y178090D01*
X223913Y177470D01*
X223901Y177454D01*
X223886Y177442D01*
X223830Y177354D01*
X223769Y177271D01*
X223764Y177252D01*
X223753Y177235D01*
X223728Y177134D01*
X223697Y177035D01*
X223698Y177016D01*
X223693Y176996D01*
X223701Y176893D01*
X223703Y176790D01*
X223710Y176771D01*
X223712Y176751D01*
X223752Y176656D01*
X223788Y176559D01*
X223800Y176543D01*
X223808Y176525D01*
X223913Y176394D01*
X224533Y175774D01*
X224533Y168090D01*
X223342Y166899D01*
X199658Y166899D01*
X198467Y168090D01*
X198467Y175774D01*
X199087Y176394D01*
X199099Y176410D01*
X199114Y176422D01*
X199170Y176510D01*
X199231Y176593D01*
X199236Y176612D01*
X199247Y176629D01*
X199272Y176730D01*
X199303Y176829D01*
X199302Y176848D01*
X199307Y176868D01*
X199299Y176971D01*
X199297Y177074D01*
X199290Y177093D01*
X199288Y177113D01*
X199248Y177208D01*
X199212Y177305D01*
X199200Y177321D01*
X199192Y177339D01*
X199087Y177470D01*
X198467Y178090D01*
X198467Y185774D01*
X199087Y186394D01*
X199099Y186410D01*
X199114Y186422D01*
X199170Y186510D01*
X199231Y186593D01*
X199236Y186612D01*
X199247Y186629D01*
X199272Y186730D01*
X199303Y186829D01*
X199302Y186848D01*
X199307Y186868D01*
X199299Y186971D01*
X199297Y187074D01*
X199290Y187093D01*
X199288Y187113D01*
X199248Y187208D01*
X199212Y187305D01*
X199200Y187321D01*
X199192Y187339D01*
X199087Y187470D01*
X198467Y188090D01*
X198467Y195774D01*
X199087Y196394D01*
X199099Y196410D01*
X199114Y196422D01*
X199170Y196510D01*
X199231Y196593D01*
X199236Y196612D01*
X199247Y196629D01*
X199272Y196730D01*
X199303Y196829D01*
X199302Y196848D01*
X199307Y196868D01*
X199299Y196971D01*
X199297Y197074D01*
X199290Y197093D01*
X199288Y197113D01*
X199248Y197208D01*
X199212Y197305D01*
X199200Y197321D01*
X199192Y197339D01*
X199087Y197470D01*
X198467Y198090D01*
X198467Y205774D01*
X199087Y206394D01*
X199099Y206410D01*
X199114Y206422D01*
X199170Y206510D01*
X199231Y206593D01*
X199236Y206612D01*
X199247Y206629D01*
X199272Y206730D01*
X199303Y206829D01*
X199302Y206848D01*
X199307Y206868D01*
X199299Y206971D01*
X199297Y207074D01*
X199290Y207093D01*
X199288Y207113D01*
X199248Y207208D01*
X199212Y207305D01*
X199200Y207321D01*
X199192Y207339D01*
X199087Y207470D01*
X198467Y208090D01*
X198467Y215774D01*
X199087Y216394D01*
X199099Y216410D01*
X199114Y216422D01*
X199170Y216510D01*
X199231Y216593D01*
X199236Y216612D01*
X199247Y216629D01*
X199272Y216730D01*
X199303Y216829D01*
X199302Y216848D01*
X199307Y216868D01*
X199299Y216971D01*
X199297Y217074D01*
X199290Y217093D01*
X199288Y217113D01*
X199248Y217208D01*
X199212Y217305D01*
X199200Y217321D01*
X199192Y217339D01*
X199087Y217470D01*
X198467Y218090D01*
X198467Y225774D01*
X199087Y226394D01*
X199099Y226410D01*
X199114Y226422D01*
X199170Y226510D01*
X199231Y226593D01*
X199236Y226612D01*
X199247Y226629D01*
X199272Y226730D01*
X199303Y226829D01*
X199302Y226848D01*
X199307Y226868D01*
X199299Y226971D01*
X199297Y227074D01*
X199290Y227093D01*
X199288Y227113D01*
X199248Y227208D01*
X199212Y227305D01*
X199200Y227321D01*
X199192Y227339D01*
X199087Y227470D01*
X198467Y228090D01*
X198467Y235774D01*
X199087Y236394D01*
X199099Y236410D01*
X199114Y236422D01*
X199170Y236510D01*
X199231Y236593D01*
X199236Y236612D01*
X199247Y236629D01*
X199272Y236730D01*
X199303Y236829D01*
X199302Y236848D01*
X199307Y236868D01*
X199299Y236971D01*
X199297Y237074D01*
X199290Y237093D01*
X199288Y237113D01*
X199248Y237208D01*
X199212Y237305D01*
X199200Y237321D01*
X199192Y237339D01*
X199087Y237470D01*
X198467Y238090D01*
X198467Y240476D01*
X198456Y240547D01*
X198454Y240619D01*
X198436Y240668D01*
X198428Y240719D01*
X198394Y240782D01*
X198369Y240850D01*
X198337Y240890D01*
X198312Y240936D01*
X198260Y240986D01*
X198216Y241042D01*
X198172Y241070D01*
X198134Y241106D01*
X198069Y241136D01*
X198009Y241175D01*
X197958Y241187D01*
X197911Y241209D01*
X197840Y241217D01*
X197770Y241235D01*
X197718Y241231D01*
X197667Y241236D01*
X197596Y241221D01*
X197525Y241216D01*
X197477Y241195D01*
X197426Y241184D01*
X197365Y241147D01*
X197299Y241119D01*
X197243Y241074D01*
X197215Y241058D01*
X197200Y241040D01*
X197168Y241014D01*
X196334Y240181D01*
X194197Y239295D01*
X191883Y239295D01*
X189746Y240181D01*
X188111Y241816D01*
X187225Y243953D01*
X187225Y246267D01*
X188111Y248404D01*
X189746Y250039D01*
X191883Y250925D01*
X192073Y250925D01*
X192163Y250939D01*
X192254Y250947D01*
X192268Y250953D01*
X197706Y250953D01*
X197726Y250956D01*
X197745Y250954D01*
X197847Y250976D01*
X197949Y250992D01*
X197966Y251002D01*
X197986Y251006D01*
X198075Y251059D01*
X198166Y251108D01*
X198180Y251122D01*
X198197Y251132D01*
X198264Y251211D01*
X198336Y251286D01*
X198344Y251304D01*
X198357Y251319D01*
X198396Y251415D01*
X198439Y251509D01*
X198441Y251529D01*
X198449Y251547D01*
X198467Y251714D01*
X198467Y255774D01*
X199087Y256394D01*
X199099Y256410D01*
X199114Y256422D01*
X199170Y256510D01*
X199231Y256593D01*
X199236Y256612D01*
X199247Y256629D01*
X199272Y256730D01*
X199303Y256829D01*
X199302Y256848D01*
X199307Y256868D01*
X199299Y256971D01*
X199297Y257074D01*
X199290Y257093D01*
X199288Y257113D01*
X199248Y257208D01*
X199212Y257305D01*
X199200Y257321D01*
X199192Y257339D01*
X199087Y257470D01*
X198467Y258090D01*
X198467Y261366D01*
X198464Y261386D01*
X198466Y261405D01*
X198444Y261507D01*
X198428Y261609D01*
X198418Y261626D01*
X198414Y261646D01*
X198361Y261735D01*
X198312Y261826D01*
X198298Y261840D01*
X198288Y261857D01*
X198209Y261924D01*
X198134Y261996D01*
X198116Y262004D01*
X198101Y262017D01*
X198005Y262056D01*
X197911Y262099D01*
X197891Y262101D01*
X197873Y262109D01*
X197706Y262127D01*
X188116Y262127D01*
X188026Y262113D01*
X187935Y262105D01*
X187905Y262093D01*
X187873Y262088D01*
X187792Y262045D01*
X187709Y262009D01*
X187676Y261983D01*
X187656Y261972D01*
X187634Y261949D01*
X187578Y261904D01*
X187444Y261771D01*
X185307Y260885D01*
X182993Y260885D01*
X180856Y261771D01*
X180214Y262412D01*
X180140Y262465D01*
X180071Y262525D01*
X180041Y262537D01*
X180015Y262556D01*
X179928Y262583D01*
X179843Y262617D01*
X179802Y262621D01*
X179780Y262628D01*
X179747Y262627D01*
X179676Y262635D01*
X141826Y262635D01*
X139222Y265239D01*
X130393Y274068D01*
X127789Y276672D01*
X127789Y443836D01*
X127775Y443926D01*
X127767Y444017D01*
X127755Y444047D01*
X127750Y444079D01*
X127707Y444160D01*
X127671Y444243D01*
X127645Y444276D01*
X127634Y444296D01*
X127611Y444318D01*
X127566Y444374D01*
X126925Y445016D01*
X126039Y447153D01*
X126039Y449467D01*
X126702Y451067D01*
X126713Y451111D01*
X126732Y451153D01*
X126740Y451230D01*
X126758Y451306D01*
X126754Y451352D01*
X126759Y451397D01*
X126742Y451474D01*
X126735Y451551D01*
X126716Y451593D01*
X126707Y451638D01*
X126667Y451705D01*
X126635Y451776D01*
X126604Y451810D01*
X126581Y451849D01*
X126521Y451900D01*
X126469Y451957D01*
X126428Y451979D01*
X126394Y452009D01*
X126321Y452038D01*
X126253Y452075D01*
X126208Y452084D01*
X126165Y452101D01*
X126030Y452116D01*
X126011Y452119D01*
X126006Y452118D01*
X125999Y452119D01*
X96914Y452119D01*
X96824Y452105D01*
X96733Y452097D01*
X96703Y452085D01*
X96671Y452080D01*
X96591Y452037D01*
X96507Y452001D01*
X96475Y451975D01*
X96454Y451964D01*
X96432Y451941D01*
X96376Y451896D01*
X64486Y420006D01*
X64433Y419932D01*
X64373Y419863D01*
X64361Y419833D01*
X64342Y419806D01*
X64315Y419720D01*
X64281Y419635D01*
X64277Y419594D01*
X64270Y419571D01*
X64271Y419539D01*
X64263Y419468D01*
X64263Y117742D01*
X64277Y117652D01*
X64285Y117561D01*
X64297Y117531D01*
X64302Y117499D01*
X64345Y117419D01*
X64381Y117335D01*
X64407Y117303D01*
X64418Y117282D01*
X64441Y117260D01*
X64486Y117204D01*
X86724Y94966D01*
X86798Y94913D01*
X86867Y94853D01*
X86897Y94841D01*
X86924Y94822D01*
X87010Y94795D01*
X87095Y94761D01*
X87136Y94757D01*
X87159Y94750D01*
X87191Y94751D01*
X87262Y94743D01*
X349618Y94743D01*
X349708Y94757D01*
G37*
G36*
X524270Y360359D02*
X524270Y360359D01*
X524295Y360356D01*
X524391Y360377D01*
X524487Y360391D01*
X524510Y360403D01*
X524536Y360408D01*
X524619Y360458D01*
X524706Y360503D01*
X524725Y360521D01*
X524747Y360535D01*
X524810Y360609D01*
X524878Y360678D01*
X524894Y360707D01*
X524907Y360722D01*
X524919Y360752D01*
X524959Y360825D01*
X526129Y363648D01*
X528255Y365774D01*
X528293Y365827D01*
X528339Y365874D01*
X528379Y365947D01*
X528398Y365974D01*
X528404Y365993D01*
X528420Y366021D01*
X529632Y368947D01*
X588768Y428083D01*
X596516Y431293D01*
X817276Y431293D01*
X817296Y431296D01*
X817315Y431294D01*
X817417Y431316D01*
X817519Y431332D01*
X817536Y431342D01*
X817556Y431346D01*
X817645Y431399D01*
X817736Y431448D01*
X817750Y431462D01*
X817767Y431472D01*
X817834Y431551D01*
X817906Y431626D01*
X817914Y431644D01*
X817927Y431659D01*
X817966Y431755D01*
X818009Y431849D01*
X818011Y431869D01*
X818019Y431887D01*
X818037Y432054D01*
X818037Y435264D01*
X818657Y435884D01*
X818669Y435900D01*
X818684Y435912D01*
X818740Y436000D01*
X818801Y436083D01*
X818806Y436102D01*
X818817Y436119D01*
X818842Y436220D01*
X818873Y436319D01*
X818872Y436338D01*
X818877Y436358D01*
X818869Y436461D01*
X818867Y436564D01*
X818860Y436583D01*
X818858Y436603D01*
X818818Y436698D01*
X818782Y436795D01*
X818770Y436811D01*
X818762Y436829D01*
X818657Y436960D01*
X818037Y437580D01*
X818037Y445264D01*
X818657Y445884D01*
X818669Y445900D01*
X818684Y445912D01*
X818740Y446000D01*
X818801Y446083D01*
X818806Y446102D01*
X818817Y446119D01*
X818842Y446220D01*
X818873Y446319D01*
X818872Y446338D01*
X818877Y446358D01*
X818869Y446461D01*
X818867Y446564D01*
X818860Y446583D01*
X818858Y446603D01*
X818818Y446698D01*
X818782Y446795D01*
X818770Y446811D01*
X818762Y446829D01*
X818657Y446960D01*
X818037Y447580D01*
X818037Y454324D01*
X818035Y454336D01*
X818036Y454345D01*
X818027Y454389D01*
X818023Y454414D01*
X818015Y454505D01*
X818003Y454535D01*
X817998Y454567D01*
X817955Y454647D01*
X817919Y454731D01*
X817893Y454763D01*
X817882Y454784D01*
X817859Y454806D01*
X817814Y454862D01*
X813197Y459480D01*
X809987Y467228D01*
X809987Y475616D01*
X813197Y483364D01*
X815890Y486058D01*
X815932Y486116D01*
X815981Y486168D01*
X816003Y486215D01*
X816034Y486257D01*
X816055Y486326D01*
X816085Y486391D01*
X816091Y486443D01*
X816106Y486493D01*
X816104Y486564D01*
X816112Y486635D01*
X816101Y486686D01*
X816100Y486738D01*
X816075Y486806D01*
X816060Y486876D01*
X816033Y486921D01*
X816015Y486969D01*
X815970Y487025D01*
X815934Y487087D01*
X815894Y487121D01*
X815862Y487161D01*
X815801Y487200D01*
X815747Y487247D01*
X815698Y487266D01*
X815655Y487294D01*
X815585Y487312D01*
X815519Y487339D01*
X815447Y487347D01*
X815416Y487355D01*
X815393Y487353D01*
X815352Y487357D01*
X707044Y487357D01*
X694049Y500353D01*
X694011Y500380D01*
X693980Y500414D01*
X693912Y500451D01*
X693849Y500497D01*
X693805Y500510D01*
X693765Y500532D01*
X693688Y500546D01*
X693614Y500569D01*
X693568Y500568D01*
X693523Y500576D01*
X693446Y500565D01*
X693368Y500563D01*
X693325Y500547D01*
X693279Y500540D01*
X693210Y500505D01*
X693137Y500478D01*
X693101Y500449D01*
X693060Y500429D01*
X693006Y500373D01*
X692945Y500324D01*
X692920Y500286D01*
X692888Y500253D01*
X692822Y500133D01*
X692812Y500118D01*
X692811Y500113D01*
X692807Y500106D01*
X691927Y497981D01*
X690104Y496158D01*
X687723Y495172D01*
X685147Y495172D01*
X682766Y496158D01*
X680943Y497981D01*
X679957Y500362D01*
X679957Y502938D01*
X680943Y505319D01*
X682766Y507142D01*
X684891Y508022D01*
X684930Y508046D01*
X684973Y508062D01*
X685034Y508110D01*
X685100Y508152D01*
X685130Y508187D01*
X685165Y508216D01*
X685207Y508281D01*
X685257Y508341D01*
X685273Y508384D01*
X685298Y508422D01*
X685317Y508498D01*
X685345Y508571D01*
X685347Y508616D01*
X685358Y508661D01*
X685352Y508739D01*
X685356Y508816D01*
X685343Y508861D01*
X685339Y508906D01*
X685309Y508978D01*
X685287Y509053D01*
X685261Y509090D01*
X685243Y509133D01*
X685158Y509239D01*
X685147Y509255D01*
X685143Y509258D01*
X685138Y509264D01*
X642302Y552099D01*
X642228Y552152D01*
X642159Y552212D01*
X642129Y552224D01*
X642103Y552243D01*
X642016Y552270D01*
X641931Y552304D01*
X641890Y552308D01*
X641867Y552315D01*
X641835Y552314D01*
X641764Y552322D01*
X640062Y552322D01*
X637681Y553308D01*
X635858Y555131D01*
X634872Y557512D01*
X634872Y560088D01*
X635858Y562469D01*
X637681Y564292D01*
X640062Y565278D01*
X642638Y565278D01*
X645019Y564292D01*
X646842Y562469D01*
X647828Y560088D01*
X647828Y558386D01*
X647842Y558296D01*
X647850Y558205D01*
X647862Y558175D01*
X647867Y558143D01*
X647910Y558063D01*
X647946Y557979D01*
X647972Y557947D01*
X647983Y557926D01*
X648006Y557904D01*
X648051Y557848D01*
X710189Y495710D01*
X710263Y495657D01*
X710332Y495597D01*
X710362Y495585D01*
X710388Y495566D01*
X710475Y495539D01*
X710560Y495505D01*
X710601Y495501D01*
X710624Y495494D01*
X710656Y495495D01*
X710727Y495487D01*
X717795Y495487D01*
X717865Y495498D01*
X717937Y495500D01*
X717986Y495518D01*
X718037Y495526D01*
X718101Y495560D01*
X718168Y495585D01*
X718209Y495617D01*
X718255Y495642D01*
X718304Y495694D01*
X718360Y495738D01*
X718388Y495782D01*
X718424Y495820D01*
X718454Y495885D01*
X718493Y495945D01*
X718506Y495996D01*
X718528Y496043D01*
X718536Y496114D01*
X718553Y496184D01*
X718549Y496236D01*
X718555Y496287D01*
X718540Y496358D01*
X718534Y496429D01*
X718514Y496477D01*
X718503Y496528D01*
X718466Y496589D01*
X718438Y496655D01*
X718393Y496711D01*
X718376Y496739D01*
X718359Y496754D01*
X718333Y496786D01*
X717138Y497981D01*
X716152Y500362D01*
X716152Y502938D01*
X717138Y505319D01*
X718961Y507142D01*
X720188Y507650D01*
X720227Y507674D01*
X720270Y507690D01*
X720315Y507726D01*
X720356Y507748D01*
X720371Y507764D01*
X720397Y507780D01*
X720426Y507815D01*
X720462Y507844D01*
X720493Y507892D01*
X720526Y507926D01*
X720535Y507946D01*
X720554Y507969D01*
X720570Y508012D01*
X720595Y508051D01*
X720609Y508106D01*
X720629Y508149D01*
X720632Y508171D01*
X720642Y508199D01*
X720644Y508245D01*
X720655Y508289D01*
X720651Y508345D01*
X720656Y508393D01*
X720651Y508416D01*
X720653Y508444D01*
X720640Y508489D01*
X720636Y508534D01*
X720615Y508585D01*
X720604Y508634D01*
X720592Y508655D01*
X720584Y508681D01*
X720558Y508718D01*
X720540Y508761D01*
X720494Y508818D01*
X720478Y508845D01*
X720461Y508860D01*
X720454Y508867D01*
X720444Y508883D01*
X720440Y508886D01*
X720435Y508892D01*
X717707Y511619D01*
X677227Y552099D01*
X677153Y552152D01*
X677084Y552212D01*
X677054Y552224D01*
X677028Y552243D01*
X676941Y552270D01*
X676856Y552304D01*
X676815Y552308D01*
X676793Y552315D01*
X676760Y552314D01*
X676689Y552322D01*
X674987Y552322D01*
X672606Y553308D01*
X670783Y555131D01*
X669797Y557512D01*
X669797Y560088D01*
X670783Y562469D01*
X672606Y564292D01*
X674987Y565278D01*
X677563Y565278D01*
X679944Y564292D01*
X681767Y562469D01*
X682753Y560088D01*
X682753Y558386D01*
X682767Y558296D01*
X682775Y558205D01*
X682787Y558175D01*
X682792Y558143D01*
X682835Y558063D01*
X682871Y557979D01*
X682897Y557947D01*
X682908Y557926D01*
X682931Y557904D01*
X682976Y557848D01*
X723456Y517368D01*
X723530Y517315D01*
X723599Y517255D01*
X723629Y517243D01*
X723655Y517224D01*
X723742Y517197D01*
X723827Y517163D01*
X723868Y517159D01*
X723891Y517152D01*
X723923Y517153D01*
X723994Y517145D01*
X839276Y517145D01*
X839296Y517148D01*
X839315Y517146D01*
X839417Y517168D01*
X839519Y517184D01*
X839536Y517194D01*
X839556Y517198D01*
X839645Y517251D01*
X839736Y517300D01*
X839750Y517314D01*
X839767Y517324D01*
X839834Y517403D01*
X839906Y517478D01*
X839914Y517496D01*
X839927Y517511D01*
X839966Y517607D01*
X840009Y517701D01*
X840011Y517721D01*
X840019Y517739D01*
X840037Y517906D01*
X840037Y537264D01*
X841228Y538455D01*
X868912Y538455D01*
X870103Y537264D01*
X870103Y517906D01*
X870106Y517886D01*
X870104Y517867D01*
X870126Y517765D01*
X870142Y517663D01*
X870152Y517646D01*
X870156Y517626D01*
X870209Y517537D01*
X870258Y517446D01*
X870272Y517432D01*
X870282Y517415D01*
X870361Y517348D01*
X870436Y517276D01*
X870454Y517268D01*
X870469Y517255D01*
X870565Y517216D01*
X870659Y517173D01*
X870679Y517171D01*
X870697Y517163D01*
X870864Y517145D01*
X892146Y517145D01*
X892236Y517159D01*
X892327Y517167D01*
X892357Y517179D01*
X892389Y517184D01*
X892470Y517227D01*
X892553Y517263D01*
X892586Y517289D01*
X892606Y517300D01*
X892628Y517323D01*
X892684Y517368D01*
X893326Y518009D01*
X895463Y518895D01*
X897777Y518895D01*
X899914Y518009D01*
X901357Y516566D01*
X901436Y516509D01*
X901511Y516447D01*
X901536Y516438D01*
X901557Y516422D01*
X901650Y516394D01*
X901741Y516359D01*
X901767Y516358D01*
X901792Y516350D01*
X901889Y516353D01*
X901987Y516349D01*
X902012Y516356D01*
X902038Y516356D01*
X902130Y516390D01*
X902223Y516417D01*
X902244Y516432D01*
X902269Y516441D01*
X902345Y516502D01*
X902425Y516557D01*
X902441Y516578D01*
X902461Y516595D01*
X902514Y516677D01*
X902572Y516755D01*
X902580Y516780D01*
X902594Y516802D01*
X902618Y516896D01*
X902648Y516989D01*
X902648Y517015D01*
X902654Y517040D01*
X902647Y517137D01*
X902646Y517235D01*
X902636Y517266D01*
X902635Y517285D01*
X902622Y517316D01*
X902599Y517396D01*
X902235Y518273D01*
X902235Y520587D01*
X903121Y522724D01*
X903762Y523366D01*
X903815Y523440D01*
X903875Y523509D01*
X903887Y523539D01*
X903906Y523565D01*
X903933Y523652D01*
X903967Y523737D01*
X903971Y523778D01*
X903978Y523800D01*
X903977Y523833D01*
X903985Y523904D01*
X903985Y528226D01*
X903971Y528316D01*
X903963Y528407D01*
X903951Y528437D01*
X903946Y528469D01*
X903903Y528549D01*
X903867Y528633D01*
X903841Y528665D01*
X903830Y528686D01*
X903807Y528708D01*
X903762Y528764D01*
X890714Y541812D01*
X890640Y541865D01*
X890571Y541925D01*
X890541Y541937D01*
X890515Y541956D01*
X890428Y541983D01*
X890343Y542017D01*
X890302Y542021D01*
X890279Y542028D01*
X890247Y542027D01*
X890176Y542035D01*
X731549Y542035D01*
X731459Y542021D01*
X731368Y542013D01*
X731338Y542001D01*
X731306Y541996D01*
X731225Y541953D01*
X731142Y541917D01*
X731109Y541891D01*
X731089Y541880D01*
X731067Y541857D01*
X731011Y541812D01*
X730369Y541171D01*
X728232Y540285D01*
X725918Y540285D01*
X723781Y541171D01*
X722146Y542806D01*
X721260Y544943D01*
X721260Y547257D01*
X722146Y549394D01*
X723781Y551029D01*
X725918Y551915D01*
X728232Y551915D01*
X730369Y551029D01*
X731011Y550388D01*
X731085Y550335D01*
X731154Y550275D01*
X731184Y550263D01*
X731210Y550244D01*
X731297Y550217D01*
X731382Y550183D01*
X731423Y550179D01*
X731445Y550172D01*
X731478Y550173D01*
X731549Y550165D01*
X893859Y550165D01*
X893930Y550176D01*
X894002Y550178D01*
X894050Y550196D01*
X894102Y550204D01*
X894165Y550238D01*
X894233Y550263D01*
X894273Y550295D01*
X894319Y550320D01*
X894369Y550372D01*
X894425Y550416D01*
X894453Y550460D01*
X894489Y550498D01*
X894519Y550563D01*
X894558Y550623D01*
X894570Y550674D01*
X894592Y550721D01*
X894600Y550792D01*
X894618Y550862D01*
X894614Y550914D01*
X894619Y550965D01*
X894604Y551036D01*
X894598Y551107D01*
X894578Y551155D01*
X894567Y551206D01*
X894530Y551267D01*
X894502Y551333D01*
X894457Y551389D01*
X894441Y551417D01*
X894423Y551432D01*
X894397Y551464D01*
X891349Y554512D01*
X891275Y554565D01*
X891206Y554625D01*
X891176Y554637D01*
X891150Y554656D01*
X891062Y554683D01*
X890978Y554717D01*
X890937Y554721D01*
X890914Y554728D01*
X890882Y554727D01*
X890811Y554735D01*
X767411Y554735D01*
X767321Y554721D01*
X767230Y554713D01*
X767201Y554701D01*
X767169Y554696D01*
X767088Y554653D01*
X767004Y554617D01*
X766972Y554591D01*
X766951Y554580D01*
X766929Y554557D01*
X766873Y554512D01*
X765669Y553308D01*
X763288Y552322D01*
X760712Y552322D01*
X758331Y553308D01*
X756508Y555131D01*
X755522Y557512D01*
X755522Y560088D01*
X756508Y562469D01*
X758331Y564292D01*
X760712Y565278D01*
X763288Y565278D01*
X765669Y564292D01*
X766873Y563088D01*
X766947Y563035D01*
X767017Y562975D01*
X767047Y562963D01*
X767073Y562944D01*
X767160Y562917D01*
X767245Y562883D01*
X767286Y562879D01*
X767308Y562872D01*
X767340Y562873D01*
X767411Y562865D01*
X894494Y562865D01*
X924815Y532544D01*
X924815Y523904D01*
X924829Y523814D01*
X924837Y523723D01*
X924849Y523693D01*
X924854Y523661D01*
X924897Y523580D01*
X924933Y523497D01*
X924959Y523464D01*
X924970Y523444D01*
X924993Y523422D01*
X925038Y523366D01*
X925679Y522724D01*
X926565Y520587D01*
X926565Y518273D01*
X925679Y516136D01*
X924044Y514501D01*
X921907Y513615D01*
X919593Y513615D01*
X917456Y514501D01*
X915821Y516136D01*
X915103Y517868D01*
X915066Y517929D01*
X915036Y517994D01*
X915001Y518033D01*
X914974Y518077D01*
X914918Y518123D01*
X914870Y518175D01*
X914824Y518200D01*
X914784Y518234D01*
X914717Y518259D01*
X914654Y518294D01*
X914603Y518303D01*
X914555Y518322D01*
X914483Y518325D01*
X914412Y518338D01*
X914361Y518330D01*
X914309Y518332D01*
X914240Y518312D01*
X914169Y518302D01*
X914123Y518278D01*
X914073Y518264D01*
X914014Y518223D01*
X913950Y518190D01*
X913913Y518153D01*
X913871Y518123D01*
X913828Y518066D01*
X913778Y518015D01*
X913743Y517952D01*
X913724Y517926D01*
X913717Y517904D01*
X913697Y517868D01*
X912979Y516136D01*
X911344Y514501D01*
X909207Y513615D01*
X906893Y513615D01*
X904756Y514501D01*
X903313Y515944D01*
X903234Y516001D01*
X903159Y516063D01*
X903134Y516072D01*
X903113Y516088D01*
X903020Y516116D01*
X902929Y516151D01*
X902903Y516152D01*
X902878Y516160D01*
X902781Y516157D01*
X902683Y516161D01*
X902658Y516154D01*
X902632Y516154D01*
X902540Y516120D01*
X902447Y516093D01*
X902426Y516078D01*
X902401Y516069D01*
X902325Y516008D01*
X902245Y515953D01*
X902229Y515932D01*
X902209Y515915D01*
X902156Y515833D01*
X902098Y515755D01*
X902090Y515730D01*
X902076Y515708D01*
X902052Y515614D01*
X902022Y515521D01*
X902022Y515495D01*
X902016Y515470D01*
X902023Y515373D01*
X902024Y515275D01*
X902034Y515244D01*
X902035Y515225D01*
X902048Y515194D01*
X902071Y515114D01*
X902435Y514237D01*
X902435Y511923D01*
X901549Y509786D01*
X899914Y508151D01*
X897777Y507265D01*
X895463Y507265D01*
X893326Y508151D01*
X892684Y508792D01*
X892610Y508845D01*
X892541Y508905D01*
X892511Y508917D01*
X892485Y508936D01*
X892398Y508963D01*
X892313Y508997D01*
X892272Y509001D01*
X892250Y509008D01*
X892217Y509007D01*
X892146Y509015D01*
X761798Y509015D01*
X761702Y509000D01*
X761605Y508990D01*
X761581Y508980D01*
X761555Y508976D01*
X761469Y508930D01*
X761380Y508890D01*
X761361Y508873D01*
X761338Y508860D01*
X761271Y508790D01*
X761199Y508724D01*
X761186Y508701D01*
X761168Y508682D01*
X761127Y508594D01*
X761080Y508508D01*
X761076Y508483D01*
X761065Y508459D01*
X761054Y508362D01*
X761037Y508266D01*
X761040Y508240D01*
X761038Y508215D01*
X761058Y508119D01*
X761072Y508023D01*
X761084Y508000D01*
X761090Y507974D01*
X761140Y507891D01*
X761184Y507804D01*
X761203Y507785D01*
X761216Y507763D01*
X761290Y507700D01*
X761360Y507632D01*
X761388Y507616D01*
X761403Y507603D01*
X761434Y507591D01*
X761507Y507551D01*
X762494Y507142D01*
X764317Y505319D01*
X765303Y502938D01*
X765303Y500362D01*
X764317Y497981D01*
X763122Y496786D01*
X763080Y496728D01*
X763031Y496676D01*
X763009Y496629D01*
X762979Y496587D01*
X762958Y496518D01*
X762927Y496453D01*
X762922Y496401D01*
X762906Y496351D01*
X762908Y496280D01*
X762900Y496209D01*
X762911Y496158D01*
X762913Y496106D01*
X762937Y496038D01*
X762952Y495968D01*
X762979Y495923D01*
X762997Y495875D01*
X763042Y495819D01*
X763079Y495757D01*
X763118Y495723D01*
X763151Y495683D01*
X763211Y495644D01*
X763266Y495597D01*
X763314Y495578D01*
X763358Y495550D01*
X763427Y495532D01*
X763494Y495505D01*
X763565Y495497D01*
X763596Y495489D01*
X763619Y495491D01*
X763660Y495487D01*
X817945Y495487D01*
X818035Y495501D01*
X818126Y495509D01*
X818155Y495521D01*
X818187Y495526D01*
X818268Y495569D01*
X818352Y495605D01*
X818384Y495631D01*
X818405Y495642D01*
X818427Y495665D01*
X818483Y495710D01*
X818657Y495884D01*
X818669Y495900D01*
X818684Y495912D01*
X818740Y496000D01*
X818800Y496083D01*
X818806Y496102D01*
X818817Y496119D01*
X818842Y496220D01*
X818873Y496318D01*
X818872Y496338D01*
X818877Y496358D01*
X818869Y496461D01*
X818867Y496564D01*
X818860Y496583D01*
X818858Y496603D01*
X818818Y496698D01*
X818782Y496795D01*
X818770Y496811D01*
X818762Y496829D01*
X818657Y496960D01*
X818037Y497580D01*
X818037Y505264D01*
X819228Y506455D01*
X842912Y506455D01*
X844103Y505264D01*
X844103Y498898D01*
X844118Y498802D01*
X844128Y498705D01*
X844138Y498681D01*
X844142Y498655D01*
X844188Y498569D01*
X844228Y498480D01*
X844245Y498461D01*
X844258Y498437D01*
X844328Y498371D01*
X844394Y498299D01*
X844417Y498286D01*
X844436Y498268D01*
X844524Y498227D01*
X844610Y498180D01*
X844635Y498175D01*
X844659Y498164D01*
X844756Y498154D01*
X844852Y498136D01*
X844878Y498140D01*
X844903Y498137D01*
X844998Y498158D01*
X845095Y498172D01*
X845118Y498184D01*
X845144Y498190D01*
X845228Y498240D01*
X845314Y498284D01*
X845332Y498302D01*
X845355Y498316D01*
X845418Y498390D01*
X845486Y498459D01*
X845502Y498488D01*
X845515Y498503D01*
X845527Y498533D01*
X845567Y498606D01*
X845971Y499580D01*
X847606Y501215D01*
X849743Y502101D01*
X852057Y502101D01*
X854194Y501215D01*
X854836Y500574D01*
X854910Y500521D01*
X854979Y500461D01*
X855009Y500449D01*
X855035Y500430D01*
X855122Y500403D01*
X855207Y500369D01*
X855248Y500365D01*
X855270Y500358D01*
X855303Y500359D01*
X855374Y500351D01*
X926436Y500351D01*
X926526Y500365D01*
X926617Y500373D01*
X926647Y500385D01*
X926679Y500390D01*
X926760Y500433D01*
X926843Y500469D01*
X926876Y500495D01*
X926896Y500506D01*
X926918Y500529D01*
X926974Y500574D01*
X927616Y501215D01*
X929753Y502101D01*
X932067Y502101D01*
X934204Y501215D01*
X935839Y499580D01*
X936725Y497443D01*
X936725Y495129D01*
X936074Y493557D01*
X936063Y493513D01*
X936044Y493471D01*
X936035Y493394D01*
X936017Y493318D01*
X936022Y493272D01*
X936017Y493227D01*
X936033Y493150D01*
X936040Y493073D01*
X936059Y493031D01*
X936069Y492986D01*
X936109Y492919D01*
X936140Y492848D01*
X936172Y492814D01*
X936195Y492775D01*
X936254Y492724D01*
X936307Y492667D01*
X936347Y492645D01*
X936382Y492615D01*
X936454Y492586D01*
X936522Y492549D01*
X936568Y492540D01*
X936610Y492523D01*
X936746Y492508D01*
X936764Y492505D01*
X936769Y492506D01*
X936777Y492505D01*
X1028832Y492505D01*
X1036580Y489295D01*
X1082445Y443430D01*
X1088483Y437392D01*
X1088703Y436862D01*
X1088754Y436779D01*
X1088800Y436693D01*
X1088819Y436675D01*
X1088832Y436653D01*
X1088907Y436591D01*
X1088978Y436524D01*
X1089002Y436513D01*
X1089022Y436496D01*
X1089113Y436461D01*
X1089201Y436420D01*
X1089227Y436417D01*
X1089251Y436408D01*
X1089349Y436404D01*
X1089445Y436393D01*
X1089471Y436399D01*
X1089497Y436398D01*
X1089591Y436425D01*
X1089686Y436445D01*
X1089708Y436459D01*
X1089733Y436466D01*
X1089813Y436522D01*
X1089897Y436572D01*
X1089914Y436592D01*
X1089935Y436606D01*
X1089993Y436684D01*
X1090057Y436759D01*
X1090067Y436783D01*
X1090082Y436804D01*
X1090112Y436896D01*
X1090149Y436987D01*
X1090152Y437019D01*
X1090158Y437038D01*
X1090158Y437071D01*
X1090167Y437153D01*
X1090167Y558800D01*
X1090164Y558822D01*
X1090165Y558860D01*
X1090043Y560409D01*
X1090042Y560415D01*
X1090042Y560421D01*
X1090008Y560585D01*
X1089050Y563532D01*
X1089034Y563564D01*
X1089025Y563599D01*
X1088942Y563745D01*
X1087120Y566252D01*
X1087095Y566277D01*
X1087076Y566308D01*
X1086952Y566420D01*
X1084445Y568242D01*
X1084413Y568258D01*
X1084385Y568281D01*
X1084233Y568350D01*
X1081285Y569308D01*
X1081279Y569309D01*
X1081274Y569311D01*
X1081109Y569343D01*
X1079560Y569465D01*
X1079538Y569463D01*
X1079500Y569467D01*
X525239Y569467D01*
X525168Y569456D01*
X525096Y569454D01*
X525047Y569436D01*
X524996Y569428D01*
X524933Y569394D01*
X524865Y569369D01*
X524825Y569337D01*
X524779Y569312D01*
X524729Y569261D01*
X524673Y569216D01*
X524645Y569172D01*
X524609Y569134D01*
X524579Y569069D01*
X524540Y569009D01*
X524528Y568958D01*
X524506Y568911D01*
X524498Y568840D01*
X524480Y568770D01*
X524484Y568718D01*
X524479Y568667D01*
X524494Y568596D01*
X524500Y568525D01*
X524520Y568477D01*
X524531Y568426D01*
X524568Y568365D01*
X524596Y568299D01*
X524641Y568243D01*
X524657Y568215D01*
X524675Y568200D01*
X524701Y568168D01*
X527368Y565501D01*
X527442Y565448D01*
X527511Y565388D01*
X527541Y565376D01*
X527567Y565357D01*
X527654Y565330D01*
X527739Y565296D01*
X527780Y565292D01*
X527802Y565285D01*
X527835Y565286D01*
X527906Y565278D01*
X529608Y565278D01*
X531989Y564292D01*
X533812Y562469D01*
X534798Y560088D01*
X534798Y557512D01*
X533812Y555131D01*
X531989Y553308D01*
X529608Y552322D01*
X527032Y552322D01*
X524651Y553308D01*
X522828Y555131D01*
X521842Y557512D01*
X521842Y559214D01*
X521828Y559304D01*
X521820Y559395D01*
X521808Y559425D01*
X521803Y559457D01*
X521760Y559537D01*
X521724Y559621D01*
X521698Y559653D01*
X521687Y559674D01*
X521664Y559696D01*
X521619Y559752D01*
X518223Y563148D01*
X518149Y563201D01*
X518080Y563261D01*
X518050Y563273D01*
X518024Y563292D01*
X517937Y563319D01*
X517852Y563353D01*
X517811Y563357D01*
X517789Y563364D01*
X517756Y563363D01*
X517685Y563371D01*
X486952Y563371D01*
X486907Y563364D01*
X486861Y563366D01*
X486786Y563344D01*
X486709Y563332D01*
X486669Y563310D01*
X486625Y563297D01*
X486561Y563253D01*
X486492Y563216D01*
X486460Y563183D01*
X486423Y563157D01*
X486376Y563095D01*
X486323Y563038D01*
X486303Y562996D01*
X486276Y562960D01*
X486252Y562886D01*
X486219Y562815D01*
X486214Y562769D01*
X486200Y562726D01*
X486201Y562648D01*
X486192Y562571D01*
X486202Y562526D01*
X486202Y562480D01*
X486240Y562348D01*
X486244Y562330D01*
X486247Y562326D01*
X486249Y562319D01*
X487173Y560088D01*
X487173Y557512D01*
X486187Y555131D01*
X484364Y553308D01*
X481983Y552322D01*
X479407Y552322D01*
X477026Y553308D01*
X475203Y555131D01*
X474217Y557512D01*
X474217Y560088D01*
X475141Y562319D01*
X475152Y562363D01*
X475171Y562405D01*
X475179Y562482D01*
X475197Y562558D01*
X475193Y562604D01*
X475198Y562649D01*
X475181Y562726D01*
X475174Y562803D01*
X475155Y562845D01*
X475146Y562890D01*
X475106Y562957D01*
X475074Y563028D01*
X475043Y563062D01*
X475020Y563101D01*
X474960Y563152D01*
X474908Y563209D01*
X474868Y563231D01*
X474833Y563261D01*
X474760Y563290D01*
X474692Y563327D01*
X474647Y563336D01*
X474604Y563353D01*
X474469Y563368D01*
X474450Y563371D01*
X474445Y563370D01*
X474438Y563371D01*
X439327Y563371D01*
X439282Y563364D01*
X439236Y563366D01*
X439161Y563344D01*
X439084Y563332D01*
X439044Y563310D01*
X439000Y563297D01*
X438936Y563253D01*
X438867Y563216D01*
X438835Y563183D01*
X438798Y563157D01*
X438751Y563095D01*
X438698Y563038D01*
X438678Y562996D01*
X438651Y562960D01*
X438627Y562886D01*
X438594Y562815D01*
X438589Y562769D01*
X438575Y562726D01*
X438576Y562648D01*
X438567Y562571D01*
X438577Y562526D01*
X438577Y562480D01*
X438615Y562348D01*
X438619Y562330D01*
X438622Y562326D01*
X438624Y562319D01*
X439548Y560088D01*
X439548Y557512D01*
X438562Y555131D01*
X436739Y553308D01*
X434358Y552322D01*
X432656Y552322D01*
X432566Y552308D01*
X432475Y552300D01*
X432445Y552288D01*
X432413Y552283D01*
X432333Y552240D01*
X432249Y552204D01*
X432217Y552178D01*
X432196Y552167D01*
X432174Y552144D01*
X432118Y552099D01*
X350998Y470979D01*
X348394Y468375D01*
X269969Y468375D01*
X269879Y468361D01*
X269788Y468353D01*
X269758Y468341D01*
X269726Y468336D01*
X269646Y468293D01*
X269562Y468257D01*
X269530Y468231D01*
X269509Y468220D01*
X269487Y468197D01*
X269431Y468152D01*
X255748Y454469D01*
X255695Y454395D01*
X255635Y454326D01*
X255623Y454296D01*
X255604Y454270D01*
X255577Y454183D01*
X255543Y454098D01*
X255539Y454057D01*
X255532Y454034D01*
X255533Y454002D01*
X255525Y453931D01*
X255525Y447294D01*
X255528Y447274D01*
X255526Y447255D01*
X255548Y447153D01*
X255564Y447051D01*
X255574Y447034D01*
X255578Y447014D01*
X255631Y446925D01*
X255680Y446834D01*
X255694Y446820D01*
X255704Y446803D01*
X255783Y446736D01*
X255858Y446664D01*
X255876Y446656D01*
X255891Y446643D01*
X255987Y446604D01*
X256081Y446561D01*
X256101Y446559D01*
X256119Y446551D01*
X256286Y446533D01*
X288995Y446533D01*
X289040Y446540D01*
X289086Y446538D01*
X289161Y446560D01*
X289238Y446572D01*
X289278Y446594D01*
X289323Y446607D01*
X289387Y446651D01*
X289455Y446688D01*
X289487Y446721D01*
X289525Y446747D01*
X289571Y446810D01*
X289625Y446866D01*
X289644Y446908D01*
X289671Y446944D01*
X289696Y447018D01*
X289728Y447089D01*
X289733Y447135D01*
X289748Y447178D01*
X289747Y447256D01*
X289755Y447333D01*
X289746Y447378D01*
X289745Y447424D01*
X289707Y447556D01*
X289703Y447574D01*
X289701Y447578D01*
X289698Y447585D01*
X288825Y449693D01*
X288825Y452007D01*
X289711Y454144D01*
X291346Y455779D01*
X293483Y456665D01*
X295797Y456665D01*
X297934Y455779D01*
X298576Y455138D01*
X298650Y455085D01*
X298719Y455025D01*
X298749Y455013D01*
X298775Y454994D01*
X298862Y454967D01*
X298947Y454933D01*
X298988Y454929D01*
X299010Y454922D01*
X299043Y454923D01*
X299114Y454915D01*
X347251Y454915D01*
X347341Y454929D01*
X347432Y454937D01*
X347462Y454949D01*
X347494Y454954D01*
X347574Y454997D01*
X347658Y455033D01*
X347690Y455059D01*
X347711Y455070D01*
X347733Y455093D01*
X347789Y455138D01*
X372422Y479771D01*
X372475Y479845D01*
X372535Y479914D01*
X372547Y479944D01*
X372566Y479970D01*
X372593Y480057D01*
X372627Y480142D01*
X372631Y480183D01*
X372638Y480206D01*
X372637Y480238D01*
X372645Y480309D01*
X372645Y481217D01*
X373531Y483354D01*
X375166Y484989D01*
X377303Y485875D01*
X379617Y485875D01*
X381754Y484989D01*
X383389Y483354D01*
X384275Y481217D01*
X384275Y478903D01*
X383389Y476766D01*
X381754Y475131D01*
X379617Y474245D01*
X378709Y474245D01*
X378619Y474231D01*
X378528Y474223D01*
X378498Y474211D01*
X378466Y474206D01*
X378386Y474163D01*
X378302Y474127D01*
X378270Y474101D01*
X378249Y474090D01*
X378227Y474067D01*
X378171Y474022D01*
X351981Y447832D01*
X351939Y447774D01*
X351889Y447722D01*
X351867Y447675D01*
X351837Y447633D01*
X351816Y447564D01*
X351786Y447499D01*
X351780Y447447D01*
X351765Y447397D01*
X351767Y447326D01*
X351759Y447255D01*
X351770Y447204D01*
X351771Y447152D01*
X351796Y447084D01*
X351811Y447014D01*
X351838Y446969D01*
X351856Y446921D01*
X351900Y446865D01*
X351937Y446803D01*
X351977Y446769D01*
X352009Y446729D01*
X352070Y446690D01*
X352124Y446643D01*
X352172Y446624D01*
X352216Y446596D01*
X352286Y446578D01*
X352352Y446551D01*
X352424Y446543D01*
X352455Y446535D01*
X352478Y446537D01*
X352519Y446533D01*
X379084Y446533D01*
X381986Y443631D01*
X401040Y424577D01*
X401077Y424550D01*
X401108Y424516D01*
X401177Y424479D01*
X401240Y424433D01*
X401283Y424420D01*
X401324Y424398D01*
X401400Y424384D01*
X401475Y424361D01*
X401521Y424362D01*
X401566Y424354D01*
X401643Y424365D01*
X401721Y424367D01*
X401764Y424383D01*
X401809Y424390D01*
X401878Y424425D01*
X401952Y424452D01*
X401987Y424481D01*
X402028Y424501D01*
X402083Y424557D01*
X402144Y424606D01*
X402168Y424644D01*
X402201Y424677D01*
X402267Y424797D01*
X402277Y424812D01*
X402278Y424817D01*
X402282Y424824D01*
X402933Y426396D01*
X404568Y428032D01*
X406706Y428917D01*
X409019Y428917D01*
X411156Y428032D01*
X411290Y427898D01*
X411364Y427845D01*
X411433Y427785D01*
X411463Y427773D01*
X411490Y427754D01*
X411576Y427728D01*
X411661Y427693D01*
X411702Y427689D01*
X411725Y427682D01*
X411757Y427683D01*
X411828Y427675D01*
X417460Y427675D01*
X417531Y427686D01*
X417603Y427688D01*
X417652Y427706D01*
X417703Y427715D01*
X417767Y427748D01*
X417834Y427773D01*
X417875Y427805D01*
X417921Y427830D01*
X417970Y427882D01*
X418026Y427927D01*
X418054Y427970D01*
X418090Y428008D01*
X418120Y428073D01*
X418159Y428133D01*
X418172Y428184D01*
X418194Y428231D01*
X418201Y428302D01*
X418219Y428372D01*
X418215Y428424D01*
X418221Y428476D01*
X418205Y428546D01*
X418200Y428617D01*
X418180Y428665D01*
X418168Y428716D01*
X418132Y428778D01*
X418104Y428843D01*
X418059Y428899D01*
X418042Y428927D01*
X418024Y428942D01*
X417999Y428974D01*
X400891Y446082D01*
X400817Y446135D01*
X400747Y446195D01*
X400717Y446207D01*
X400691Y446226D01*
X400604Y446253D01*
X400519Y446287D01*
X400478Y446291D01*
X400456Y446298D01*
X400424Y446297D01*
X400353Y446305D01*
X400163Y446305D01*
X398026Y447191D01*
X396391Y448826D01*
X395505Y450963D01*
X395505Y453277D01*
X396391Y455414D01*
X398026Y457049D01*
X400163Y457935D01*
X402477Y457935D01*
X404614Y457049D01*
X406249Y455414D01*
X407135Y453277D01*
X407135Y453087D01*
X407149Y452997D01*
X407157Y452906D01*
X407169Y452877D01*
X407174Y452845D01*
X407217Y452764D01*
X407253Y452680D01*
X407279Y452648D01*
X407290Y452627D01*
X407313Y452605D01*
X407358Y452549D01*
X423311Y436596D01*
X423385Y436543D01*
X423455Y436483D01*
X423485Y436471D01*
X423511Y436452D01*
X423598Y436425D01*
X423683Y436391D01*
X423724Y436387D01*
X423746Y436380D01*
X423778Y436381D01*
X423849Y436373D01*
X510874Y436373D01*
X510938Y436383D01*
X511004Y436384D01*
X511084Y436407D01*
X511116Y436412D01*
X511133Y436422D01*
X511165Y436431D01*
X513193Y437271D01*
X515507Y437271D01*
X517644Y436386D01*
X519279Y434750D01*
X520165Y432613D01*
X520165Y430300D01*
X519514Y428727D01*
X519503Y428683D01*
X519484Y428641D01*
X519475Y428564D01*
X519457Y428488D01*
X519462Y428442D01*
X519457Y428397D01*
X519473Y428321D01*
X519480Y428243D01*
X519499Y428201D01*
X519509Y428156D01*
X519549Y428089D01*
X519580Y428018D01*
X519612Y427985D01*
X519635Y427945D01*
X519694Y427895D01*
X519747Y427837D01*
X519787Y427815D01*
X519822Y427785D01*
X519894Y427756D01*
X519962Y427719D01*
X520008Y427711D01*
X520050Y427693D01*
X520186Y427678D01*
X520204Y427675D01*
X520209Y427676D01*
X520217Y427675D01*
X534706Y427675D01*
X534796Y427690D01*
X534887Y427697D01*
X534917Y427709D01*
X534949Y427715D01*
X535030Y427757D01*
X535114Y427793D01*
X535146Y427819D01*
X535166Y427830D01*
X535189Y427853D01*
X535245Y427898D01*
X535821Y428474D01*
X537958Y429360D01*
X540272Y429360D01*
X542409Y428474D01*
X544044Y426839D01*
X544930Y424702D01*
X544930Y422388D01*
X544612Y421622D01*
X544590Y421527D01*
X544561Y421434D01*
X544562Y421408D01*
X544556Y421382D01*
X544565Y421286D01*
X544568Y421188D01*
X544577Y421163D01*
X544579Y421137D01*
X544619Y421049D01*
X544652Y420957D01*
X544669Y420937D01*
X544679Y420913D01*
X544745Y420841D01*
X544806Y420765D01*
X544828Y420751D01*
X544846Y420732D01*
X544931Y420685D01*
X545013Y420632D01*
X545038Y420626D01*
X545061Y420613D01*
X545157Y420596D01*
X545251Y420572D01*
X545277Y420574D01*
X545303Y420569D01*
X545400Y420583D01*
X545496Y420591D01*
X545520Y420601D01*
X545546Y420605D01*
X545633Y420649D01*
X545723Y420687D01*
X545748Y420708D01*
X545766Y420717D01*
X545789Y420740D01*
X545854Y420792D01*
X574896Y449835D01*
X606331Y449835D01*
X606421Y449849D01*
X606512Y449857D01*
X606542Y449869D01*
X606574Y449874D01*
X606654Y449917D01*
X606738Y449953D01*
X606770Y449979D01*
X606791Y449990D01*
X606813Y450013D01*
X606869Y450058D01*
X618012Y461201D01*
X618065Y461275D01*
X618125Y461344D01*
X618137Y461374D01*
X618156Y461400D01*
X618183Y461487D01*
X618217Y461572D01*
X618221Y461613D01*
X618228Y461636D01*
X618227Y461668D01*
X618235Y461739D01*
X618235Y547911D01*
X618221Y548001D01*
X618213Y548092D01*
X618201Y548122D01*
X618196Y548154D01*
X618153Y548234D01*
X618117Y548318D01*
X618091Y548350D01*
X618080Y548371D01*
X618057Y548393D01*
X618028Y548430D01*
X618012Y548449D01*
X611949Y554512D01*
X611875Y554565D01*
X611806Y554625D01*
X611776Y554637D01*
X611750Y554656D01*
X611663Y554683D01*
X611578Y554717D01*
X611537Y554721D01*
X611514Y554728D01*
X611482Y554727D01*
X611411Y554735D01*
X608661Y554735D01*
X608571Y554721D01*
X608480Y554713D01*
X608451Y554701D01*
X608419Y554696D01*
X608338Y554653D01*
X608254Y554617D01*
X608222Y554591D01*
X608201Y554580D01*
X608179Y554557D01*
X608123Y554512D01*
X606919Y553308D01*
X604538Y552322D01*
X601962Y552322D01*
X599581Y553308D01*
X597758Y555131D01*
X596772Y557512D01*
X596772Y560088D01*
X597758Y562469D01*
X599581Y564292D01*
X601962Y565278D01*
X604538Y565278D01*
X606919Y564292D01*
X608123Y563088D01*
X608197Y563035D01*
X608267Y562975D01*
X608297Y562963D01*
X608323Y562944D01*
X608410Y562917D01*
X608495Y562883D01*
X608536Y562879D01*
X608558Y562872D01*
X608590Y562873D01*
X608661Y562865D01*
X615094Y562865D01*
X626365Y551594D01*
X626365Y458056D01*
X610014Y441705D01*
X578579Y441705D01*
X578489Y441691D01*
X578398Y441683D01*
X578368Y441671D01*
X578336Y441666D01*
X578256Y441623D01*
X578172Y441587D01*
X578140Y441561D01*
X578119Y441550D01*
X578097Y441527D01*
X578041Y441482D01*
X570674Y434116D01*
X570617Y434037D01*
X570555Y433962D01*
X570546Y433937D01*
X570530Y433916D01*
X570502Y433823D01*
X570467Y433732D01*
X570466Y433706D01*
X570458Y433681D01*
X570461Y433583D01*
X570456Y433486D01*
X570464Y433461D01*
X570464Y433435D01*
X570498Y433343D01*
X570525Y433250D01*
X570540Y433228D01*
X570549Y433204D01*
X570610Y433128D01*
X570665Y433048D01*
X570686Y433032D01*
X570703Y433012D01*
X570784Y432959D01*
X570863Y432901D01*
X570887Y432893D01*
X570909Y432879D01*
X571004Y432855D01*
X571096Y432825D01*
X571123Y432825D01*
X571148Y432819D01*
X571245Y432826D01*
X571342Y432827D01*
X571374Y432836D01*
X571393Y432838D01*
X571423Y432851D01*
X571504Y432874D01*
X573137Y433551D01*
X575451Y433551D01*
X577588Y432665D01*
X579223Y431030D01*
X580109Y428893D01*
X580109Y426579D01*
X579223Y424442D01*
X577588Y422807D01*
X575451Y421921D01*
X573137Y421921D01*
X571000Y422807D01*
X569365Y424442D01*
X568479Y426579D01*
X568479Y428893D01*
X569156Y430526D01*
X569178Y430621D01*
X569207Y430714D01*
X569206Y430741D01*
X569212Y430766D01*
X569203Y430863D01*
X569201Y430960D01*
X569192Y430985D01*
X569189Y431011D01*
X569149Y431100D01*
X569116Y431191D01*
X569100Y431212D01*
X569089Y431236D01*
X569023Y431307D01*
X568962Y431383D01*
X568940Y431397D01*
X568923Y431417D01*
X568837Y431464D01*
X568755Y431516D01*
X568730Y431523D01*
X568707Y431535D01*
X568611Y431553D01*
X568517Y431576D01*
X568491Y431574D01*
X568465Y431579D01*
X568369Y431565D01*
X568272Y431557D01*
X568248Y431547D01*
X568222Y431543D01*
X568135Y431499D01*
X568045Y431461D01*
X568020Y431441D01*
X568003Y431432D01*
X567979Y431408D01*
X567914Y431356D01*
X523718Y387159D01*
X523665Y387085D01*
X523605Y387016D01*
X523593Y386986D01*
X523574Y386960D01*
X523547Y386873D01*
X523513Y386788D01*
X523509Y386747D01*
X523502Y386724D01*
X523503Y386692D01*
X523495Y386621D01*
X523495Y361116D01*
X523510Y361020D01*
X523520Y360923D01*
X523530Y360899D01*
X523534Y360874D01*
X523580Y360788D01*
X523620Y360699D01*
X523637Y360679D01*
X523650Y360656D01*
X523720Y360589D01*
X523786Y360518D01*
X523809Y360505D01*
X523828Y360487D01*
X523916Y360446D01*
X524002Y360399D01*
X524027Y360394D01*
X524051Y360383D01*
X524148Y360373D01*
X524244Y360355D01*
X524270Y360359D01*
G37*
G36*
X631940Y93480D02*
X631940Y93480D01*
X631986Y93478D01*
X632061Y93500D01*
X632138Y93512D01*
X632178Y93534D01*
X632223Y93547D01*
X632287Y93591D01*
X632355Y93628D01*
X632387Y93661D01*
X632425Y93687D01*
X632471Y93750D01*
X632525Y93806D01*
X632544Y93848D01*
X632571Y93884D01*
X632596Y93958D01*
X632628Y94029D01*
X632633Y94075D01*
X632648Y94118D01*
X632647Y94196D01*
X632655Y94273D01*
X632646Y94318D01*
X632645Y94364D01*
X632607Y94496D01*
X632603Y94514D01*
X632601Y94518D01*
X632598Y94525D01*
X631725Y96633D01*
X631725Y98947D01*
X632611Y101084D01*
X632709Y101183D01*
X632762Y101257D01*
X632822Y101326D01*
X632834Y101356D01*
X632853Y101382D01*
X632880Y101469D01*
X632914Y101554D01*
X632918Y101595D01*
X632925Y101617D01*
X632924Y101650D01*
X632932Y101721D01*
X632932Y140310D01*
X632921Y140380D01*
X632919Y140452D01*
X632901Y140501D01*
X632893Y140552D01*
X632859Y140616D01*
X632834Y140683D01*
X632802Y140724D01*
X632777Y140770D01*
X632725Y140819D01*
X632681Y140875D01*
X632637Y140903D01*
X632599Y140939D01*
X632534Y140969D01*
X632474Y141008D01*
X632423Y141021D01*
X632376Y141043D01*
X632305Y141051D01*
X632235Y141068D01*
X632183Y141064D01*
X632132Y141070D01*
X632061Y141055D01*
X631990Y141049D01*
X631942Y141029D01*
X631891Y141018D01*
X631830Y140981D01*
X631764Y140953D01*
X631708Y140908D01*
X631680Y140892D01*
X631665Y140874D01*
X631633Y140848D01*
X631347Y140562D01*
X623663Y140562D01*
X623043Y141182D01*
X623027Y141194D01*
X623015Y141209D01*
X622927Y141265D01*
X622844Y141326D01*
X622825Y141331D01*
X622808Y141342D01*
X622707Y141367D01*
X622608Y141398D01*
X622589Y141397D01*
X622569Y141402D01*
X622466Y141394D01*
X622363Y141392D01*
X622344Y141385D01*
X622324Y141383D01*
X622229Y141343D01*
X622132Y141307D01*
X622116Y141295D01*
X622098Y141287D01*
X621967Y141182D01*
X621347Y140562D01*
X613663Y140562D01*
X613403Y140823D01*
X613386Y140834D01*
X613374Y140850D01*
X613287Y140906D01*
X613203Y140966D01*
X613184Y140972D01*
X613167Y140983D01*
X613067Y141008D01*
X612968Y141039D01*
X612948Y141038D01*
X612928Y141043D01*
X612825Y141035D01*
X612722Y141032D01*
X612703Y141025D01*
X612683Y141024D01*
X612588Y140983D01*
X612491Y140948D01*
X612475Y140935D01*
X612457Y140928D01*
X612326Y140823D01*
X612065Y140562D01*
X611486Y140227D01*
X610839Y140054D01*
X609004Y140054D01*
X609004Y152857D01*
X609001Y152874D01*
X609003Y152890D01*
X609003Y152892D01*
X609003Y152896D01*
X608981Y152998D01*
X608965Y153100D01*
X608955Y153117D01*
X608951Y153137D01*
X608898Y153226D01*
X608849Y153317D01*
X608835Y153331D01*
X608825Y153348D01*
X608746Y153415D01*
X608671Y153486D01*
X608653Y153495D01*
X608638Y153508D01*
X608542Y153546D01*
X608448Y153590D01*
X608428Y153592D01*
X608410Y153599D01*
X608486Y153612D01*
X608503Y153621D01*
X608523Y153625D01*
X608612Y153678D01*
X608703Y153727D01*
X608717Y153741D01*
X608734Y153751D01*
X608801Y153830D01*
X608873Y153905D01*
X608881Y153923D01*
X608894Y153938D01*
X608933Y154035D01*
X608976Y154128D01*
X608978Y154148D01*
X608986Y154166D01*
X609004Y154333D01*
X609004Y167136D01*
X610839Y167136D01*
X611486Y166963D01*
X611790Y166787D01*
X611879Y166753D01*
X611966Y166713D01*
X611994Y166710D01*
X612020Y166700D01*
X612116Y166696D01*
X612210Y166686D01*
X612238Y166692D01*
X612266Y166691D01*
X612358Y166718D01*
X612451Y166738D01*
X612475Y166752D01*
X612502Y166760D01*
X612580Y166815D01*
X612662Y166864D01*
X612680Y166886D01*
X612703Y166902D01*
X612760Y166978D01*
X612822Y167051D01*
X612832Y167077D01*
X612849Y167100D01*
X612878Y167191D01*
X612914Y167279D01*
X612918Y167314D01*
X612924Y167334D01*
X612924Y167367D01*
X612929Y167419D01*
X612930Y167420D01*
X612929Y167421D01*
X612932Y167446D01*
X612932Y167484D01*
X612921Y167555D01*
X612920Y167580D01*
X612916Y167592D01*
X612910Y167665D01*
X612898Y167695D01*
X612893Y167727D01*
X612850Y167808D01*
X612814Y167891D01*
X612788Y167924D01*
X612777Y167944D01*
X612754Y167966D01*
X612709Y168022D01*
X612576Y168156D01*
X611690Y170293D01*
X611690Y172607D01*
X612576Y174744D01*
X612709Y174878D01*
X612762Y174952D01*
X612822Y175021D01*
X612834Y175051D01*
X612853Y175077D01*
X612880Y175164D01*
X612914Y175249D01*
X612918Y175290D01*
X612925Y175312D01*
X612924Y175345D01*
X612932Y175416D01*
X612932Y220619D01*
X695002Y302689D01*
X695055Y302763D01*
X695115Y302833D01*
X695127Y302863D01*
X695146Y302889D01*
X695173Y302976D01*
X695207Y303061D01*
X695211Y303102D01*
X695218Y303124D01*
X695217Y303156D01*
X695225Y303227D01*
X695225Y303417D01*
X696111Y305554D01*
X697746Y307189D01*
X699883Y308075D01*
X702197Y308075D01*
X704334Y307189D01*
X705969Y305554D01*
X706855Y303417D01*
X706855Y301103D01*
X705969Y298966D01*
X704334Y297331D01*
X702197Y296445D01*
X702007Y296445D01*
X701917Y296431D01*
X701826Y296423D01*
X701797Y296411D01*
X701765Y296406D01*
X701684Y296363D01*
X701600Y296327D01*
X701568Y296301D01*
X701547Y296290D01*
X701525Y296267D01*
X701469Y296222D01*
X622301Y217054D01*
X622248Y216980D01*
X622188Y216910D01*
X622176Y216880D01*
X622157Y216854D01*
X622130Y216767D01*
X622096Y216682D01*
X622092Y216641D01*
X622085Y216619D01*
X622086Y216587D01*
X622078Y216516D01*
X622078Y203662D01*
X622089Y203592D01*
X622091Y203520D01*
X622109Y203471D01*
X622117Y203420D01*
X622151Y203356D01*
X622176Y203289D01*
X622208Y203248D01*
X622233Y203202D01*
X622285Y203153D01*
X622329Y203097D01*
X622373Y203069D01*
X622411Y203033D01*
X622476Y203003D01*
X622536Y202964D01*
X622587Y202951D01*
X622634Y202929D01*
X622705Y202921D01*
X622775Y202904D01*
X622827Y202908D01*
X622878Y202902D01*
X622949Y202917D01*
X623020Y202923D01*
X623068Y202943D01*
X623119Y202954D01*
X623180Y202991D01*
X623246Y203019D01*
X623302Y203064D01*
X623330Y203081D01*
X623345Y203098D01*
X623377Y203124D01*
X682302Y262049D01*
X682355Y262123D01*
X682415Y262193D01*
X682427Y262223D01*
X682446Y262249D01*
X682473Y262336D01*
X682507Y262421D01*
X682511Y262462D01*
X682518Y262484D01*
X682517Y262516D01*
X682525Y262587D01*
X682525Y262777D01*
X683411Y264914D01*
X685046Y266549D01*
X687183Y267435D01*
X689497Y267435D01*
X691634Y266549D01*
X693269Y264914D01*
X694155Y262777D01*
X694155Y260463D01*
X693269Y258326D01*
X691634Y256691D01*
X689497Y255805D01*
X689307Y255805D01*
X689217Y255791D01*
X689126Y255783D01*
X689097Y255771D01*
X689065Y255766D01*
X688984Y255723D01*
X688900Y255687D01*
X688868Y255661D01*
X688847Y255650D01*
X688825Y255627D01*
X688769Y255582D01*
X632301Y199114D01*
X632248Y199040D01*
X632188Y198970D01*
X632176Y198940D01*
X632157Y198914D01*
X632130Y198827D01*
X632096Y198742D01*
X632092Y198701D01*
X632085Y198679D01*
X632086Y198647D01*
X632078Y198576D01*
X632078Y166880D01*
X632089Y166810D01*
X632091Y166738D01*
X632109Y166689D01*
X632117Y166638D01*
X632151Y166574D01*
X632176Y166507D01*
X632208Y166466D01*
X632233Y166420D01*
X632285Y166371D01*
X632329Y166315D01*
X632373Y166287D01*
X632411Y166251D01*
X632476Y166221D01*
X632536Y166182D01*
X632587Y166169D01*
X632634Y166147D01*
X632705Y166139D01*
X632775Y166122D01*
X632827Y166126D01*
X632878Y166120D01*
X632949Y166135D01*
X633020Y166141D01*
X633068Y166161D01*
X633119Y166172D01*
X633180Y166209D01*
X633246Y166237D01*
X633302Y166282D01*
X633330Y166298D01*
X633345Y166316D01*
X633377Y166342D01*
X633663Y166628D01*
X641347Y166628D01*
X641967Y166008D01*
X641983Y165996D01*
X641995Y165981D01*
X642060Y165939D01*
X642104Y165902D01*
X642128Y165892D01*
X642166Y165864D01*
X642185Y165859D01*
X642202Y165848D01*
X642297Y165824D01*
X642332Y165810D01*
X642350Y165808D01*
X642402Y165792D01*
X642421Y165793D01*
X642441Y165788D01*
X642494Y165792D01*
X642499Y165791D01*
X642511Y165791D01*
X642532Y165795D01*
X642544Y165796D01*
X642647Y165798D01*
X642666Y165805D01*
X642686Y165807D01*
X642736Y165828D01*
X642754Y165831D01*
X642792Y165852D01*
X642878Y165883D01*
X642894Y165895D01*
X642912Y165903D01*
X642956Y165938D01*
X642972Y165946D01*
X642989Y165964D01*
X643043Y166008D01*
X643663Y166628D01*
X651347Y166628D01*
X651967Y166008D01*
X651983Y165996D01*
X651995Y165981D01*
X652060Y165939D01*
X652104Y165902D01*
X652128Y165892D01*
X652166Y165864D01*
X652185Y165859D01*
X652202Y165848D01*
X652297Y165824D01*
X652332Y165810D01*
X652350Y165808D01*
X652402Y165792D01*
X652421Y165793D01*
X652441Y165788D01*
X652494Y165792D01*
X652499Y165791D01*
X652511Y165791D01*
X652532Y165795D01*
X652544Y165796D01*
X652647Y165798D01*
X652666Y165805D01*
X652686Y165807D01*
X652736Y165828D01*
X652754Y165831D01*
X652792Y165852D01*
X652878Y165883D01*
X652894Y165895D01*
X652912Y165903D01*
X652956Y165938D01*
X652972Y165946D01*
X652989Y165964D01*
X653043Y166008D01*
X653663Y166628D01*
X661347Y166628D01*
X661967Y166008D01*
X661983Y165996D01*
X661995Y165981D01*
X662060Y165939D01*
X662104Y165902D01*
X662128Y165892D01*
X662166Y165864D01*
X662185Y165859D01*
X662202Y165848D01*
X662297Y165824D01*
X662332Y165810D01*
X662350Y165808D01*
X662402Y165792D01*
X662421Y165793D01*
X662441Y165788D01*
X662494Y165792D01*
X662499Y165791D01*
X662511Y165791D01*
X662532Y165795D01*
X662544Y165796D01*
X662647Y165798D01*
X662666Y165805D01*
X662686Y165807D01*
X662736Y165828D01*
X662754Y165831D01*
X662793Y165852D01*
X662878Y165883D01*
X662894Y165895D01*
X662912Y165903D01*
X662956Y165938D01*
X662972Y165946D01*
X662989Y165964D01*
X663043Y166008D01*
X663217Y166182D01*
X663271Y166256D01*
X663330Y166325D01*
X663342Y166356D01*
X663361Y166382D01*
X663388Y166469D01*
X663422Y166554D01*
X663426Y166594D01*
X663433Y166617D01*
X663432Y166649D01*
X663440Y166720D01*
X663440Y168761D01*
X663426Y168851D01*
X663418Y168942D01*
X663406Y168972D01*
X663401Y169004D01*
X663358Y169085D01*
X663322Y169168D01*
X663296Y169201D01*
X663285Y169221D01*
X663262Y169243D01*
X663217Y169299D01*
X661821Y170696D01*
X660935Y172833D01*
X660935Y175147D01*
X661821Y177284D01*
X663456Y178919D01*
X665593Y179805D01*
X667907Y179805D01*
X670044Y178919D01*
X671633Y177331D01*
X671691Y177289D01*
X671743Y177239D01*
X671790Y177217D01*
X671832Y177187D01*
X671901Y177166D01*
X671966Y177136D01*
X672018Y177130D01*
X672068Y177115D01*
X672139Y177117D01*
X672210Y177109D01*
X672261Y177120D01*
X672313Y177121D01*
X672381Y177146D01*
X672451Y177161D01*
X672496Y177188D01*
X672544Y177205D01*
X672600Y177250D01*
X672662Y177287D01*
X672696Y177327D01*
X672736Y177359D01*
X672775Y177419D01*
X672822Y177474D01*
X672841Y177522D01*
X672869Y177566D01*
X672887Y177636D01*
X672914Y177702D01*
X672922Y177773D01*
X672930Y177805D01*
X672928Y177828D01*
X672932Y177869D01*
X672932Y229819D01*
X693556Y250443D01*
X738961Y250443D01*
X739051Y250457D01*
X739142Y250465D01*
X739171Y250477D01*
X739203Y250482D01*
X739284Y250525D01*
X739368Y250561D01*
X739400Y250587D01*
X739421Y250598D01*
X739443Y250621D01*
X739499Y250666D01*
X739786Y250953D01*
X817276Y250953D01*
X817296Y250956D01*
X817315Y250954D01*
X817417Y250976D01*
X817519Y250992D01*
X817536Y251002D01*
X817556Y251006D01*
X817645Y251059D01*
X817736Y251108D01*
X817750Y251122D01*
X817767Y251132D01*
X817834Y251211D01*
X817906Y251286D01*
X817914Y251304D01*
X817927Y251319D01*
X817966Y251415D01*
X818009Y251509D01*
X818011Y251529D01*
X818019Y251547D01*
X818037Y251714D01*
X818037Y255264D01*
X818657Y255884D01*
X818669Y255900D01*
X818684Y255912D01*
X818740Y256000D01*
X818801Y256083D01*
X818806Y256102D01*
X818817Y256119D01*
X818842Y256220D01*
X818873Y256319D01*
X818872Y256338D01*
X818877Y256358D01*
X818869Y256461D01*
X818867Y256564D01*
X818860Y256583D01*
X818858Y256603D01*
X818818Y256698D01*
X818782Y256795D01*
X818770Y256811D01*
X818762Y256829D01*
X818657Y256960D01*
X818037Y257580D01*
X818037Y261366D01*
X818034Y261386D01*
X818036Y261405D01*
X818014Y261507D01*
X817998Y261609D01*
X817988Y261626D01*
X817984Y261646D01*
X817931Y261735D01*
X817882Y261826D01*
X817868Y261840D01*
X817858Y261857D01*
X817779Y261924D01*
X817704Y261996D01*
X817686Y262004D01*
X817671Y262017D01*
X817575Y262056D01*
X817481Y262099D01*
X817461Y262101D01*
X817443Y262109D01*
X817276Y262127D01*
X756589Y262127D01*
X756499Y262113D01*
X756408Y262105D01*
X756379Y262093D01*
X756347Y262088D01*
X756266Y262045D01*
X756182Y262009D01*
X756150Y261983D01*
X756129Y261972D01*
X756107Y261949D01*
X756051Y261904D01*
X755338Y261191D01*
X755285Y261117D01*
X755225Y261047D01*
X755213Y261017D01*
X755194Y260991D01*
X755167Y260904D01*
X755133Y260819D01*
X755129Y260778D01*
X755122Y260756D01*
X755123Y260724D01*
X755115Y260653D01*
X755115Y260463D01*
X754229Y258326D01*
X752594Y256691D01*
X750457Y255805D01*
X748143Y255805D01*
X746006Y256691D01*
X744371Y258326D01*
X743485Y260463D01*
X743485Y262777D01*
X744371Y264914D01*
X746006Y266549D01*
X748143Y267435D01*
X748333Y267435D01*
X748423Y267449D01*
X748514Y267457D01*
X748543Y267469D01*
X748575Y267474D01*
X748656Y267517D01*
X748740Y267553D01*
X748772Y267579D01*
X748793Y267590D01*
X748815Y267613D01*
X748871Y267658D01*
X752486Y271273D01*
X817276Y271273D01*
X817296Y271276D01*
X817315Y271274D01*
X817417Y271296D01*
X817519Y271312D01*
X817536Y271322D01*
X817556Y271326D01*
X817645Y271379D01*
X817736Y271428D01*
X817750Y271442D01*
X817767Y271452D01*
X817834Y271531D01*
X817906Y271606D01*
X817914Y271624D01*
X817927Y271639D01*
X817966Y271735D01*
X818009Y271829D01*
X818011Y271849D01*
X818019Y271867D01*
X818037Y272034D01*
X818037Y275264D01*
X818657Y275884D01*
X818669Y275900D01*
X818684Y275912D01*
X818740Y276000D01*
X818801Y276083D01*
X818806Y276102D01*
X818817Y276119D01*
X818842Y276220D01*
X818873Y276319D01*
X818872Y276338D01*
X818877Y276358D01*
X818869Y276461D01*
X818867Y276564D01*
X818860Y276583D01*
X818858Y276603D01*
X818818Y276698D01*
X818782Y276795D01*
X818770Y276811D01*
X818762Y276829D01*
X818657Y276960D01*
X818037Y277580D01*
X818037Y285264D01*
X818657Y285884D01*
X818669Y285900D01*
X818684Y285912D01*
X818740Y286000D01*
X818801Y286083D01*
X818806Y286102D01*
X818817Y286119D01*
X818842Y286220D01*
X818873Y286319D01*
X818872Y286338D01*
X818877Y286358D01*
X818869Y286461D01*
X818867Y286564D01*
X818860Y286583D01*
X818858Y286603D01*
X818818Y286698D01*
X818782Y286795D01*
X818770Y286811D01*
X818762Y286829D01*
X818657Y286960D01*
X818313Y287304D01*
X818239Y287357D01*
X818170Y287417D01*
X818139Y287429D01*
X818113Y287448D01*
X818026Y287475D01*
X817941Y287509D01*
X817900Y287513D01*
X817878Y287520D01*
X817846Y287519D01*
X817775Y287527D01*
X804066Y287527D01*
X803976Y287513D01*
X803885Y287505D01*
X803855Y287493D01*
X803823Y287488D01*
X803742Y287445D01*
X803659Y287409D01*
X803626Y287383D01*
X803606Y287372D01*
X803584Y287349D01*
X803528Y287304D01*
X803394Y287171D01*
X801257Y286285D01*
X798943Y286285D01*
X796806Y287171D01*
X795171Y288806D01*
X794285Y290943D01*
X794285Y293257D01*
X795171Y295394D01*
X796806Y297029D01*
X798943Y297915D01*
X801257Y297915D01*
X803394Y297029D01*
X803528Y296896D01*
X803602Y296843D01*
X803671Y296783D01*
X803701Y296771D01*
X803727Y296752D01*
X803814Y296725D01*
X803899Y296691D01*
X803940Y296687D01*
X803962Y296680D01*
X803995Y296681D01*
X804066Y296673D01*
X808326Y296673D01*
X808397Y296684D01*
X808469Y296686D01*
X808518Y296704D01*
X808569Y296712D01*
X808632Y296746D01*
X808700Y296771D01*
X808740Y296803D01*
X808786Y296828D01*
X808836Y296880D01*
X808892Y296924D01*
X808920Y296968D01*
X808956Y297006D01*
X808986Y297071D01*
X809025Y297131D01*
X809037Y297182D01*
X809059Y297229D01*
X809067Y297300D01*
X809085Y297370D01*
X809081Y297422D01*
X809086Y297473D01*
X809071Y297544D01*
X809066Y297615D01*
X809045Y297663D01*
X809034Y297714D01*
X808997Y297775D01*
X808969Y297841D01*
X808924Y297897D01*
X808908Y297925D01*
X808890Y297940D01*
X808864Y297972D01*
X807871Y298966D01*
X806985Y301103D01*
X806985Y303417D01*
X807871Y305554D01*
X809506Y307189D01*
X811643Y308075D01*
X813957Y308075D01*
X816094Y307189D01*
X816228Y307056D01*
X816302Y307003D01*
X816371Y306943D01*
X816401Y306931D01*
X816427Y306912D01*
X816514Y306885D01*
X816599Y306851D01*
X816640Y306847D01*
X816662Y306840D01*
X816695Y306841D01*
X816766Y306833D01*
X817276Y306833D01*
X817296Y306836D01*
X817315Y306834D01*
X817417Y306856D01*
X817519Y306872D01*
X817536Y306882D01*
X817556Y306886D01*
X817645Y306939D01*
X817736Y306988D01*
X817750Y307002D01*
X817767Y307012D01*
X817834Y307091D01*
X817906Y307166D01*
X817914Y307184D01*
X817927Y307199D01*
X817966Y307295D01*
X818009Y307389D01*
X818011Y307409D01*
X818019Y307427D01*
X818037Y307594D01*
X818037Y315264D01*
X818298Y315524D01*
X818309Y315541D01*
X818325Y315553D01*
X818381Y315640D01*
X818441Y315724D01*
X818447Y315743D01*
X818458Y315760D01*
X818483Y315860D01*
X818514Y315959D01*
X818513Y315979D01*
X818518Y315999D01*
X818510Y316102D01*
X818507Y316205D01*
X818500Y316224D01*
X818499Y316244D01*
X818458Y316339D01*
X818423Y316436D01*
X818410Y316452D01*
X818403Y316470D01*
X818298Y316601D01*
X818037Y316862D01*
X817702Y317441D01*
X817529Y318088D01*
X817529Y319923D01*
X830332Y319923D01*
X830351Y319926D01*
X830371Y319924D01*
X830473Y319946D01*
X830575Y319962D01*
X830592Y319972D01*
X830612Y319976D01*
X830701Y320029D01*
X830792Y320078D01*
X830806Y320092D01*
X830823Y320102D01*
X830890Y320181D01*
X830961Y320256D01*
X830970Y320274D01*
X830983Y320289D01*
X831021Y320385D01*
X831065Y320479D01*
X831067Y320499D01*
X831075Y320517D01*
X831093Y320684D01*
X831093Y322160D01*
X831090Y322180D01*
X831092Y322199D01*
X831070Y322301D01*
X831053Y322403D01*
X831044Y322420D01*
X831040Y322440D01*
X830987Y322529D01*
X830938Y322620D01*
X830924Y322634D01*
X830914Y322651D01*
X830835Y322718D01*
X830760Y322790D01*
X830742Y322798D01*
X830727Y322811D01*
X830630Y322850D01*
X830537Y322893D01*
X830517Y322895D01*
X830499Y322903D01*
X830332Y322921D01*
X817529Y322921D01*
X817529Y324756D01*
X817702Y325403D01*
X817878Y325707D01*
X817912Y325796D01*
X817952Y325883D01*
X817955Y325911D01*
X817965Y325937D01*
X817969Y326033D01*
X817979Y326127D01*
X817973Y326155D01*
X817974Y326183D01*
X817947Y326275D01*
X817927Y326368D01*
X817913Y326392D01*
X817905Y326419D01*
X817850Y326497D01*
X817801Y326579D01*
X817779Y326597D01*
X817763Y326620D01*
X817687Y326677D01*
X817614Y326739D01*
X817588Y326749D01*
X817565Y326766D01*
X817474Y326795D01*
X817386Y326831D01*
X817351Y326835D01*
X817331Y326841D01*
X817298Y326841D01*
X817219Y326849D01*
X613031Y326849D01*
X612941Y326835D01*
X612850Y326827D01*
X612821Y326815D01*
X612789Y326810D01*
X612708Y326767D01*
X612624Y326731D01*
X612592Y326705D01*
X612571Y326694D01*
X612549Y326671D01*
X612493Y326626D01*
X601696Y315829D01*
X601643Y315755D01*
X601583Y315685D01*
X601571Y315655D01*
X601552Y315629D01*
X601525Y315542D01*
X601491Y315457D01*
X601487Y315416D01*
X601480Y315394D01*
X601481Y315362D01*
X601473Y315291D01*
X601473Y166994D01*
X601484Y166923D01*
X601486Y166851D01*
X601504Y166802D01*
X601512Y166751D01*
X601546Y166688D01*
X601571Y166620D01*
X601603Y166580D01*
X601628Y166534D01*
X601679Y166484D01*
X601724Y166428D01*
X601768Y166400D01*
X601806Y166364D01*
X601871Y166334D01*
X601931Y166295D01*
X601982Y166283D01*
X602029Y166261D01*
X602100Y166253D01*
X602170Y166235D01*
X602222Y166239D01*
X602273Y166233D01*
X602344Y166249D01*
X602415Y166254D01*
X602463Y166275D01*
X602514Y166286D01*
X602575Y166322D01*
X602641Y166351D01*
X602697Y166395D01*
X602725Y166412D01*
X602740Y166430D01*
X602772Y166455D01*
X602945Y166628D01*
X603524Y166963D01*
X604171Y167136D01*
X606006Y167136D01*
X606006Y154333D01*
X606009Y154314D01*
X606007Y154294D01*
X606029Y154192D01*
X606045Y154090D01*
X606055Y154073D01*
X606059Y154053D01*
X606112Y153964D01*
X606161Y153873D01*
X606175Y153859D01*
X606185Y153842D01*
X606264Y153775D01*
X606339Y153704D01*
X606357Y153695D01*
X606372Y153682D01*
X606468Y153644D01*
X606562Y153600D01*
X606582Y153598D01*
X606600Y153591D01*
X606524Y153578D01*
X606507Y153569D01*
X606487Y153565D01*
X606398Y153512D01*
X606307Y153463D01*
X606293Y153449D01*
X606276Y153439D01*
X606209Y153360D01*
X606137Y153285D01*
X606129Y153267D01*
X606116Y153252D01*
X606077Y153155D01*
X606034Y153062D01*
X606032Y153042D01*
X606024Y153024D01*
X606006Y152857D01*
X606006Y140054D01*
X604171Y140054D01*
X603524Y140227D01*
X602945Y140562D01*
X602684Y140823D01*
X602668Y140834D01*
X602655Y140850D01*
X602568Y140906D01*
X602484Y140966D01*
X602465Y140972D01*
X602449Y140983D01*
X602348Y141008D01*
X602249Y141039D01*
X602229Y141038D01*
X602210Y141043D01*
X602107Y141035D01*
X602003Y141032D01*
X601985Y141025D01*
X601965Y141024D01*
X601870Y140983D01*
X601772Y140948D01*
X601757Y140935D01*
X601738Y140928D01*
X601607Y140823D01*
X601347Y140562D01*
X593663Y140562D01*
X593377Y140848D01*
X593319Y140890D01*
X593267Y140939D01*
X593220Y140961D01*
X593178Y140992D01*
X593109Y141013D01*
X593044Y141043D01*
X592992Y141049D01*
X592942Y141064D01*
X592871Y141062D01*
X592800Y141070D01*
X592749Y141059D01*
X592697Y141058D01*
X592629Y141033D01*
X592559Y141018D01*
X592514Y140991D01*
X592466Y140973D01*
X592410Y140928D01*
X592348Y140892D01*
X592314Y140852D01*
X592274Y140819D01*
X592235Y140759D01*
X592188Y140705D01*
X592169Y140656D01*
X592141Y140612D01*
X592123Y140543D01*
X592096Y140476D01*
X592088Y140405D01*
X592080Y140374D01*
X592082Y140351D01*
X592078Y140310D01*
X592078Y136551D01*
X592092Y136461D01*
X592100Y136370D01*
X592112Y136340D01*
X592117Y136308D01*
X592160Y136227D01*
X592196Y136144D01*
X592222Y136111D01*
X592233Y136091D01*
X592256Y136069D01*
X592301Y136013D01*
X592939Y135374D01*
X593825Y133237D01*
X593825Y130923D01*
X592939Y128786D01*
X591304Y127151D01*
X589167Y126265D01*
X586853Y126265D01*
X584716Y127151D01*
X583377Y128489D01*
X583319Y128531D01*
X583267Y128581D01*
X583220Y128603D01*
X583178Y128633D01*
X583109Y128654D01*
X583044Y128684D01*
X582992Y128690D01*
X582942Y128705D01*
X582871Y128703D01*
X582800Y128711D01*
X582749Y128700D01*
X582697Y128699D01*
X582629Y128674D01*
X582559Y128659D01*
X582514Y128632D01*
X582466Y128615D01*
X582410Y128570D01*
X582348Y128533D01*
X582314Y128493D01*
X582274Y128461D01*
X582235Y128401D01*
X582188Y128346D01*
X582169Y128298D01*
X582141Y128254D01*
X582123Y128184D01*
X582096Y128118D01*
X582088Y128047D01*
X582080Y128015D01*
X582082Y127992D01*
X582078Y127951D01*
X582078Y113331D01*
X572458Y103711D01*
X572405Y103637D01*
X572345Y103567D01*
X572333Y103537D01*
X572314Y103511D01*
X572287Y103424D01*
X572253Y103339D01*
X572249Y103298D01*
X572242Y103276D01*
X572243Y103244D01*
X572235Y103173D01*
X572235Y102983D01*
X571349Y100846D01*
X569714Y99211D01*
X567577Y98325D01*
X565263Y98325D01*
X563126Y99211D01*
X561491Y100846D01*
X560605Y102983D01*
X560605Y105297D01*
X561491Y107434D01*
X563126Y109069D01*
X565263Y109955D01*
X565453Y109955D01*
X565543Y109969D01*
X565634Y109977D01*
X565663Y109989D01*
X565695Y109994D01*
X565776Y110037D01*
X565860Y110073D01*
X565892Y110099D01*
X565913Y110110D01*
X565935Y110133D01*
X565991Y110178D01*
X572709Y116896D01*
X572762Y116970D01*
X572822Y117040D01*
X572834Y117070D01*
X572853Y117096D01*
X572880Y117183D01*
X572914Y117268D01*
X572918Y117309D01*
X572925Y117331D01*
X572924Y117363D01*
X572932Y117434D01*
X572932Y140310D01*
X572921Y140380D01*
X572919Y140452D01*
X572901Y140501D01*
X572893Y140552D01*
X572859Y140616D01*
X572834Y140683D01*
X572802Y140724D01*
X572777Y140770D01*
X572725Y140819D01*
X572681Y140875D01*
X572637Y140903D01*
X572599Y140939D01*
X572534Y140969D01*
X572474Y141008D01*
X572423Y141021D01*
X572376Y141043D01*
X572305Y141051D01*
X572235Y141068D01*
X572183Y141064D01*
X572132Y141070D01*
X572061Y141055D01*
X571990Y141049D01*
X571942Y141029D01*
X571891Y141018D01*
X571830Y140981D01*
X571764Y140953D01*
X571708Y140908D01*
X571680Y140892D01*
X571665Y140874D01*
X571633Y140848D01*
X571347Y140562D01*
X563663Y140562D01*
X563043Y141182D01*
X563027Y141194D01*
X563015Y141209D01*
X562927Y141265D01*
X562844Y141326D01*
X562825Y141331D01*
X562808Y141342D01*
X562707Y141367D01*
X562608Y141398D01*
X562589Y141397D01*
X562569Y141402D01*
X562466Y141394D01*
X562363Y141392D01*
X562344Y141385D01*
X562324Y141383D01*
X562229Y141343D01*
X562132Y141307D01*
X562116Y141295D01*
X562098Y141287D01*
X561967Y141182D01*
X561347Y140562D01*
X556449Y140562D01*
X556359Y140548D01*
X556268Y140540D01*
X556238Y140528D01*
X556206Y140523D01*
X556126Y140480D01*
X556042Y140444D01*
X556010Y140418D01*
X555989Y140407D01*
X555967Y140384D01*
X555911Y140339D01*
X554148Y138577D01*
X546866Y135560D01*
X538984Y135560D01*
X531702Y138577D01*
X529939Y140339D01*
X529865Y140392D01*
X529796Y140452D01*
X529766Y140464D01*
X529740Y140483D01*
X529653Y140510D01*
X529568Y140544D01*
X529527Y140548D01*
X529504Y140555D01*
X529472Y140554D01*
X529401Y140562D01*
X524764Y140562D01*
X524744Y140559D01*
X524725Y140561D01*
X524623Y140539D01*
X524521Y140523D01*
X524504Y140513D01*
X524484Y140509D01*
X524395Y140456D01*
X524304Y140407D01*
X524290Y140393D01*
X524273Y140383D01*
X524206Y140304D01*
X524134Y140229D01*
X524126Y140211D01*
X524113Y140196D01*
X524074Y140100D01*
X524031Y140006D01*
X524029Y139986D01*
X524021Y139968D01*
X524003Y139801D01*
X524003Y128428D01*
X524017Y128338D01*
X524025Y128247D01*
X524037Y128217D01*
X524042Y128185D01*
X524085Y128105D01*
X524121Y128021D01*
X524147Y127989D01*
X524158Y127968D01*
X524181Y127946D01*
X524226Y127890D01*
X558420Y93696D01*
X558494Y93643D01*
X558563Y93583D01*
X558593Y93571D01*
X558620Y93552D01*
X558707Y93525D01*
X558791Y93491D01*
X558832Y93487D01*
X558855Y93480D01*
X558887Y93481D01*
X558958Y93473D01*
X631895Y93473D01*
X631940Y93480D01*
G37*
%LPC*%
G36*
X1010912Y505633D02*
X1010912Y505633D01*
X1010876Y505641D01*
X1010842Y505658D01*
X1010677Y505688D01*
X1007396Y505923D01*
X1007359Y505919D01*
X1007322Y505924D01*
X1007238Y505908D01*
X1007151Y505900D01*
X1007142Y505896D01*
X1006889Y505951D01*
X1006857Y505953D01*
X1006782Y505966D01*
X1006523Y505985D01*
X1006512Y505994D01*
X1006477Y506008D01*
X1006446Y506029D01*
X1006287Y506082D01*
X1003073Y506781D01*
X1003036Y506783D01*
X1003000Y506793D01*
X1002914Y506789D01*
X1002828Y506794D01*
X1002818Y506791D01*
X1002575Y506882D01*
X1002543Y506888D01*
X1002471Y506912D01*
X1002217Y506967D01*
X1002208Y506978D01*
X1002175Y506996D01*
X1002148Y507021D01*
X1001998Y507097D01*
X998916Y508246D01*
X998880Y508254D01*
X998846Y508269D01*
X998760Y508277D01*
X998675Y508294D01*
X998665Y508293D01*
X998438Y508417D01*
X998407Y508427D01*
X998339Y508462D01*
X998095Y508552D01*
X998088Y508564D01*
X998058Y508587D01*
X998034Y508616D01*
X997897Y508712D01*
X995010Y510288D01*
X994975Y510301D01*
X994943Y510320D01*
X994860Y510341D01*
X994778Y510370D01*
X994768Y510370D01*
X994561Y510525D01*
X994532Y510540D01*
X994469Y510583D01*
X994241Y510708D01*
X994235Y510721D01*
X994209Y510747D01*
X994190Y510779D01*
X994067Y510894D01*
X991434Y512865D01*
X991401Y512882D01*
X991373Y512907D01*
X991293Y512939D01*
X991216Y512979D01*
X991206Y512980D01*
X991023Y513163D01*
X990996Y513182D01*
X990941Y513235D01*
X990733Y513390D01*
X990729Y513404D01*
X990707Y513434D01*
X990692Y513468D01*
X990587Y513599D01*
X988262Y515925D01*
X988231Y515947D01*
X988207Y515975D01*
X988132Y516018D01*
X988062Y516068D01*
X988052Y516071D01*
X987897Y516278D01*
X987873Y516301D01*
X987826Y516360D01*
X987642Y516544D01*
X987640Y516558D01*
X987622Y516591D01*
X987613Y516627D01*
X987528Y516772D01*
X985557Y519405D01*
X985530Y519431D01*
X985509Y519462D01*
X985442Y519515D01*
X985379Y519575D01*
X985370Y519580D01*
X985246Y519807D01*
X985226Y519833D01*
X985187Y519898D01*
X985032Y520106D01*
X985031Y520120D01*
X985019Y520155D01*
X985014Y520192D01*
X984951Y520348D01*
X983374Y523234D01*
X983351Y523264D01*
X983336Y523298D01*
X983276Y523360D01*
X983223Y523428D01*
X983215Y523434D01*
X983124Y523676D01*
X983108Y523705D01*
X983079Y523775D01*
X982955Y524003D01*
X982956Y524017D01*
X982949Y524054D01*
X982950Y524091D01*
X982909Y524254D01*
X981759Y527335D01*
X981741Y527368D01*
X981730Y527404D01*
X981680Y527474D01*
X981637Y527549D01*
X981630Y527556D01*
X981575Y527809D01*
X981563Y527839D01*
X981544Y527913D01*
X981453Y528156D01*
X981457Y528170D01*
X981455Y528207D01*
X981461Y528244D01*
X981444Y528411D01*
X980745Y531625D01*
X980731Y531659D01*
X980725Y531696D01*
X980686Y531773D01*
X980654Y531853D01*
X980647Y531861D01*
X980629Y532119D01*
X980621Y532151D01*
X980614Y532227D01*
X980558Y532481D01*
X980564Y532494D01*
X980567Y532531D01*
X980579Y532566D01*
X980585Y532734D01*
X980355Y535954D01*
X980340Y536016D01*
X980335Y536080D01*
X980312Y536133D01*
X980312Y536521D01*
X980309Y536540D01*
X980311Y536560D01*
X980310Y536566D01*
X980310Y536575D01*
X980283Y536951D01*
X980294Y536977D01*
X980303Y537062D01*
X980311Y537094D01*
X980309Y537112D01*
X980312Y537143D01*
X980312Y539182D01*
X980302Y539245D01*
X980301Y539310D01*
X980283Y539364D01*
X980310Y539750D01*
X980308Y539770D01*
X980312Y539805D01*
X980312Y540182D01*
X980324Y540206D01*
X980340Y540290D01*
X980350Y540322D01*
X980349Y540341D01*
X980355Y540371D01*
X980537Y542913D01*
X980533Y542950D01*
X980538Y542987D01*
X980522Y543072D01*
X980514Y543158D01*
X980510Y543168D01*
X980565Y543420D01*
X980567Y543453D01*
X980581Y543528D01*
X980599Y543787D01*
X980608Y543798D01*
X980622Y543833D01*
X980643Y543864D01*
X980696Y544023D01*
X981251Y546573D01*
X981253Y546610D01*
X981263Y546645D01*
X981259Y546732D01*
X981264Y546818D01*
X981261Y546828D01*
X981351Y547070D01*
X981357Y547102D01*
X981382Y547175D01*
X981437Y547429D01*
X981447Y547438D01*
X981466Y547470D01*
X981491Y547498D01*
X981567Y547648D01*
X982478Y550093D01*
X982486Y550129D01*
X982501Y550163D01*
X982509Y550249D01*
X982526Y550334D01*
X982525Y550344D01*
X982649Y550571D01*
X982659Y550602D01*
X982694Y550670D01*
X982785Y550914D01*
X982796Y550922D01*
X982819Y550951D01*
X982848Y550975D01*
X982944Y551112D01*
X984195Y553403D01*
X984207Y553438D01*
X984227Y553469D01*
X984247Y553553D01*
X984276Y553635D01*
X984276Y553645D01*
X984431Y553852D01*
X984446Y553881D01*
X984490Y553943D01*
X984614Y554172D01*
X984627Y554178D01*
X984654Y554204D01*
X984686Y554223D01*
X984801Y554345D01*
X986364Y556435D01*
X986382Y556467D01*
X986406Y556496D01*
X986438Y556576D01*
X986478Y556653D01*
X986480Y556663D01*
X986662Y556846D01*
X986682Y556872D01*
X986734Y556928D01*
X986889Y557136D01*
X986903Y557140D01*
X986933Y557162D01*
X986967Y557177D01*
X987026Y557224D01*
X987036Y557229D01*
X987046Y557239D01*
X987098Y557281D01*
X988944Y559127D01*
X988965Y559157D01*
X988993Y559182D01*
X989037Y559256D01*
X989087Y559326D01*
X989090Y559336D01*
X989297Y559491D01*
X989316Y559511D01*
X989319Y559513D01*
X989327Y559521D01*
X989379Y559563D01*
X989563Y559746D01*
X989577Y559749D01*
X989610Y559766D01*
X989646Y559775D01*
X989790Y559861D01*
X991880Y561424D01*
X991905Y561451D01*
X991937Y561472D01*
X991990Y561540D01*
X992050Y561602D01*
X992055Y561611D01*
X992282Y561735D01*
X992307Y561755D01*
X992373Y561794D01*
X992581Y561949D01*
X992595Y561950D01*
X992630Y561962D01*
X992667Y561967D01*
X992822Y562030D01*
X995113Y563281D01*
X995142Y563304D01*
X995176Y563320D01*
X995239Y563379D01*
X995307Y563432D01*
X995312Y563441D01*
X995555Y563531D01*
X995583Y563547D01*
X995654Y563576D01*
X995882Y563701D01*
X995896Y563699D01*
X995932Y563707D01*
X995970Y563706D01*
X996132Y563747D01*
X998577Y564658D01*
X998610Y564677D01*
X998645Y564688D01*
X998716Y564738D01*
X998791Y564781D01*
X998798Y564788D01*
X999050Y564843D01*
X999081Y564855D01*
X999155Y564874D01*
X999398Y564965D01*
X999412Y564961D01*
X999449Y564963D01*
X999486Y564957D01*
X999652Y564974D01*
X1002202Y565529D01*
X1002237Y565543D01*
X1002274Y565548D01*
X1002351Y565588D01*
X1002431Y565619D01*
X1002440Y565627D01*
X1002497Y565641D01*
X1002561Y565646D01*
X1002615Y565669D01*
X1002673Y565683D01*
X1002728Y565717D01*
X1002787Y565742D01*
X1002854Y565795D01*
X1002882Y565813D01*
X1002894Y565827D01*
X1002918Y565847D01*
X1002984Y565913D01*
X1006421Y565913D01*
X1006441Y565916D01*
X1006475Y565915D01*
X1006851Y565942D01*
X1006877Y565931D01*
X1006962Y565922D01*
X1006994Y565914D01*
X1007012Y565916D01*
X1007043Y565913D01*
X1009082Y565913D01*
X1009145Y565923D01*
X1009210Y565924D01*
X1009264Y565942D01*
X1009650Y565915D01*
X1009670Y565917D01*
X1009705Y565913D01*
X1010082Y565913D01*
X1010106Y565901D01*
X1010190Y565885D01*
X1010222Y565875D01*
X1010241Y565876D01*
X1010271Y565870D01*
X1013491Y565640D01*
X1013528Y565643D01*
X1013565Y565638D01*
X1013650Y565654D01*
X1013736Y565662D01*
X1013745Y565666D01*
X1013998Y565611D01*
X1014031Y565610D01*
X1014106Y565596D01*
X1014365Y565577D01*
X1014376Y565568D01*
X1014411Y565555D01*
X1014441Y565534D01*
X1014600Y565480D01*
X1017814Y564781D01*
X1017852Y564779D01*
X1017887Y564769D01*
X1017974Y564773D01*
X1018060Y564769D01*
X1018070Y564771D01*
X1018312Y564681D01*
X1018344Y564675D01*
X1018416Y564650D01*
X1018670Y564595D01*
X1018680Y564585D01*
X1018712Y564566D01*
X1018740Y564541D01*
X1018890Y564466D01*
X1021971Y563316D01*
X1022008Y563309D01*
X1022042Y563294D01*
X1022128Y563285D01*
X1022213Y563269D01*
X1022223Y563270D01*
X1022450Y563146D01*
X1022481Y563135D01*
X1022549Y563101D01*
X1022792Y563010D01*
X1022800Y562998D01*
X1022830Y562976D01*
X1022853Y562947D01*
X1022991Y562851D01*
X1025877Y561274D01*
X1025913Y561262D01*
X1025944Y561242D01*
X1026028Y561222D01*
X1026110Y561193D01*
X1026120Y561193D01*
X1026327Y561038D01*
X1026356Y561023D01*
X1026385Y561002D01*
X1026399Y560991D01*
X1026406Y560988D01*
X1026418Y560979D01*
X1026646Y560854D01*
X1026653Y560842D01*
X1026679Y560815D01*
X1026698Y560783D01*
X1026820Y560668D01*
X1029453Y558697D01*
X1029486Y558680D01*
X1029515Y558656D01*
X1029595Y558624D01*
X1029671Y558584D01*
X1029682Y558582D01*
X1029865Y558399D01*
X1029891Y558380D01*
X1029947Y558328D01*
X1030155Y558172D01*
X1030159Y558159D01*
X1030181Y558129D01*
X1030195Y558094D01*
X1030300Y557963D01*
X1032626Y555638D01*
X1032656Y555616D01*
X1032681Y555588D01*
X1032756Y555545D01*
X1032826Y555494D01*
X1032836Y555491D01*
X1032991Y555284D01*
X1033014Y555261D01*
X1033062Y555202D01*
X1033245Y555018D01*
X1033248Y555004D01*
X1033265Y554971D01*
X1033275Y554935D01*
X1033360Y554791D01*
X1035331Y552158D01*
X1035358Y552132D01*
X1035378Y552101D01*
X1035446Y552047D01*
X1035508Y551987D01*
X1035518Y551983D01*
X1035642Y551756D01*
X1035662Y551730D01*
X1035700Y551664D01*
X1035856Y551456D01*
X1035856Y551442D01*
X1035869Y551407D01*
X1035873Y551370D01*
X1035937Y551215D01*
X1037513Y548328D01*
X1037536Y548299D01*
X1037552Y548265D01*
X1037580Y548235D01*
X1037596Y548209D01*
X1037626Y548183D01*
X1037664Y548134D01*
X1037673Y548128D01*
X1037763Y547886D01*
X1037780Y547858D01*
X1037808Y547787D01*
X1037933Y547559D01*
X1037931Y547545D01*
X1037939Y547509D01*
X1037938Y547471D01*
X1037979Y547309D01*
X1039128Y544227D01*
X1039147Y544195D01*
X1039157Y544159D01*
X1039207Y544089D01*
X1039250Y544014D01*
X1039258Y544007D01*
X1039313Y543754D01*
X1039325Y543723D01*
X1039343Y543650D01*
X1039434Y543406D01*
X1039431Y543393D01*
X1039433Y543355D01*
X1039426Y543319D01*
X1039444Y543152D01*
X1040143Y539938D01*
X1040157Y539903D01*
X1040162Y539866D01*
X1040202Y539790D01*
X1040233Y539709D01*
X1040240Y539701D01*
X1040259Y539443D01*
X1040266Y539411D01*
X1040274Y539336D01*
X1040329Y539082D01*
X1040324Y539069D01*
X1040320Y539032D01*
X1040309Y538996D01*
X1040302Y538829D01*
X1040537Y535548D01*
X1040546Y535512D01*
X1040546Y535474D01*
X1040574Y535393D01*
X1040594Y535309D01*
X1040600Y535300D01*
X1040581Y535042D01*
X1040584Y535009D01*
X1040583Y534974D01*
X1040581Y534958D01*
X1040582Y534954D01*
X1040581Y534933D01*
X1040600Y534674D01*
X1040592Y534662D01*
X1040584Y534626D01*
X1040567Y534592D01*
X1040537Y534427D01*
X1040319Y531372D01*
X1040322Y531335D01*
X1040317Y531298D01*
X1040333Y531214D01*
X1040341Y531127D01*
X1040345Y531118D01*
X1040290Y530865D01*
X1040288Y530833D01*
X1040275Y530758D01*
X1040256Y530499D01*
X1040247Y530488D01*
X1040234Y530453D01*
X1040213Y530422D01*
X1040159Y530263D01*
X1039508Y527270D01*
X1039506Y527233D01*
X1039496Y527198D01*
X1039500Y527111D01*
X1039495Y527025D01*
X1039498Y527015D01*
X1039408Y526773D01*
X1039401Y526741D01*
X1039377Y526668D01*
X1039322Y526414D01*
X1039311Y526405D01*
X1039293Y526372D01*
X1039268Y526345D01*
X1039192Y526195D01*
X1038122Y523326D01*
X1038115Y523289D01*
X1038100Y523255D01*
X1038091Y523169D01*
X1038075Y523084D01*
X1038076Y523074D01*
X1037952Y522847D01*
X1037941Y522816D01*
X1037907Y522748D01*
X1037816Y522505D01*
X1037804Y522497D01*
X1037782Y522467D01*
X1037753Y522444D01*
X1037657Y522306D01*
X1036189Y519618D01*
X1036176Y519583D01*
X1036157Y519552D01*
X1036136Y519468D01*
X1036107Y519386D01*
X1036107Y519376D01*
X1035952Y519169D01*
X1035937Y519140D01*
X1035894Y519077D01*
X1035769Y518849D01*
X1035756Y518843D01*
X1035730Y518817D01*
X1035698Y518798D01*
X1035583Y518676D01*
X1033748Y516224D01*
X1033730Y516191D01*
X1033706Y516162D01*
X1033674Y516082D01*
X1033634Y516006D01*
X1033632Y515995D01*
X1033450Y515813D01*
X1033430Y515786D01*
X1033378Y515731D01*
X1033223Y515522D01*
X1033209Y515518D01*
X1033179Y515496D01*
X1033145Y515482D01*
X1033014Y515377D01*
X1030848Y513211D01*
X1030826Y513181D01*
X1030798Y513156D01*
X1030755Y513082D01*
X1030705Y513012D01*
X1030702Y513002D01*
X1030494Y512847D01*
X1030472Y512823D01*
X1030412Y512775D01*
X1030229Y512592D01*
X1030215Y512589D01*
X1030182Y512572D01*
X1030146Y512563D01*
X1030001Y512477D01*
X1027549Y510642D01*
X1027524Y510615D01*
X1027492Y510595D01*
X1027439Y510527D01*
X1027379Y510465D01*
X1027375Y510455D01*
X1027148Y510331D01*
X1027122Y510311D01*
X1027056Y510273D01*
X1026848Y510117D01*
X1026834Y510117D01*
X1026799Y510104D01*
X1026762Y510100D01*
X1026607Y510036D01*
X1023919Y508568D01*
X1023889Y508546D01*
X1023855Y508530D01*
X1023793Y508470D01*
X1023725Y508417D01*
X1023719Y508409D01*
X1023477Y508318D01*
X1023448Y508302D01*
X1023378Y508273D01*
X1023150Y508149D01*
X1023136Y508150D01*
X1023099Y508143D01*
X1023062Y508144D01*
X1022899Y508103D01*
X1020030Y507033D01*
X1019997Y507014D01*
X1019962Y507003D01*
X1019891Y506953D01*
X1019816Y506911D01*
X1019809Y506903D01*
X1019557Y506848D01*
X1019526Y506836D01*
X1019452Y506817D01*
X1019209Y506726D01*
X1019195Y506730D01*
X1019158Y506728D01*
X1019121Y506734D01*
X1018955Y506717D01*
X1015962Y506066D01*
X1015927Y506052D01*
X1015890Y506047D01*
X1015814Y506007D01*
X1015733Y505975D01*
X1015725Y505969D01*
X1015467Y505950D01*
X1015435Y505943D01*
X1015360Y505935D01*
X1015106Y505880D01*
X1015093Y505885D01*
X1015056Y505888D01*
X1015020Y505900D01*
X1014853Y505906D01*
X1011798Y505688D01*
X1011762Y505679D01*
X1011724Y505679D01*
X1011643Y505651D01*
X1011559Y505631D01*
X1011550Y505625D01*
X1011292Y505644D01*
X1011259Y505641D01*
X1011183Y505644D01*
X1010924Y505625D01*
X1010912Y505633D01*
G37*
%LPD*%
%LPC*%
G36*
X275590Y130807D02*
X275590Y130807D01*
X275570Y130805D01*
X275535Y130809D01*
X275158Y130809D01*
X275134Y130821D01*
X275050Y130837D01*
X275018Y130847D01*
X274999Y130846D01*
X274969Y130852D01*
X271993Y131065D01*
X271956Y131061D01*
X271919Y131066D01*
X271834Y131050D01*
X271748Y131042D01*
X271739Y131038D01*
X271486Y131093D01*
X271453Y131095D01*
X271378Y131109D01*
X271119Y131127D01*
X271108Y131136D01*
X271073Y131150D01*
X271043Y131171D01*
X270884Y131224D01*
X267909Y131871D01*
X267872Y131873D01*
X267836Y131883D01*
X267749Y131879D01*
X267663Y131884D01*
X267653Y131881D01*
X267411Y131972D01*
X267379Y131978D01*
X267307Y132002D01*
X267053Y132057D01*
X267043Y132068D01*
X267011Y132086D01*
X266983Y132111D01*
X266833Y132187D01*
X263981Y133251D01*
X263944Y133258D01*
X263910Y133273D01*
X263824Y133282D01*
X263740Y133298D01*
X263729Y133297D01*
X263502Y133421D01*
X263472Y133432D01*
X263404Y133466D01*
X263160Y133557D01*
X263152Y133569D01*
X263123Y133591D01*
X263099Y133620D01*
X262981Y133703D01*
X262974Y133709D01*
X262971Y133710D01*
X262962Y133716D01*
X260289Y135176D01*
X260254Y135188D01*
X260223Y135208D01*
X260139Y135228D01*
X260057Y135257D01*
X260047Y135257D01*
X259840Y135412D01*
X259811Y135427D01*
X259749Y135471D01*
X259521Y135595D01*
X259514Y135608D01*
X259488Y135635D01*
X259469Y135667D01*
X259347Y135781D01*
X256909Y137606D01*
X256877Y137623D01*
X256848Y137647D01*
X256768Y137680D01*
X256691Y137720D01*
X256681Y137721D01*
X256498Y137904D01*
X256472Y137923D01*
X256416Y137975D01*
X256208Y138131D01*
X256204Y138144D01*
X256182Y138174D01*
X256167Y138209D01*
X256063Y138340D01*
X253910Y140493D01*
X253879Y140514D01*
X253855Y140542D01*
X253780Y140586D01*
X253710Y140636D01*
X253700Y140639D01*
X253545Y140846D01*
X253521Y140869D01*
X253474Y140928D01*
X253290Y141112D01*
X253288Y141126D01*
X253271Y141159D01*
X253261Y141195D01*
X253176Y141339D01*
X251351Y143777D01*
X251325Y143802D01*
X251304Y143834D01*
X251236Y143887D01*
X251174Y143947D01*
X251165Y143952D01*
X251041Y144179D01*
X251021Y144205D01*
X250982Y144270D01*
X250826Y144478D01*
X250826Y144492D01*
X250814Y144527D01*
X250809Y144564D01*
X250746Y144719D01*
X249286Y147392D01*
X249264Y147421D01*
X249248Y147455D01*
X249188Y147517D01*
X249135Y147586D01*
X249127Y147591D01*
X249036Y147833D01*
X249020Y147862D01*
X248991Y147932D01*
X248867Y148160D01*
X248868Y148175D01*
X248861Y148211D01*
X248862Y148248D01*
X248821Y148411D01*
X247757Y151264D01*
X247738Y151296D01*
X247728Y151332D01*
X247678Y151402D01*
X247635Y151477D01*
X247627Y151484D01*
X247572Y151737D01*
X247560Y151767D01*
X247542Y151841D01*
X247451Y152084D01*
X247455Y152098D01*
X247452Y152135D01*
X247459Y152172D01*
X247441Y152339D01*
X246794Y155314D01*
X246780Y155348D01*
X246775Y155385D01*
X246764Y155407D01*
X246762Y155414D01*
X246749Y155436D01*
X246735Y155462D01*
X246704Y155542D01*
X246697Y155550D01*
X246679Y155808D01*
X246671Y155840D01*
X246663Y155916D01*
X246608Y156170D01*
X246613Y156183D01*
X246617Y156220D01*
X246628Y156255D01*
X246635Y156423D01*
X246417Y159460D01*
X246409Y159496D01*
X246409Y159533D01*
X246380Y159615D01*
X246360Y159699D01*
X246355Y159708D01*
X246373Y159966D01*
X246370Y159998D01*
X246373Y160074D01*
X246355Y160334D01*
X246362Y160346D01*
X246371Y160382D01*
X246387Y160415D01*
X246417Y160580D01*
X246635Y163617D01*
X246631Y163654D01*
X246636Y163691D01*
X246620Y163776D01*
X246612Y163862D01*
X246608Y163871D01*
X246663Y164124D01*
X246665Y164157D01*
X246679Y164232D01*
X246697Y164491D01*
X246706Y164502D01*
X246720Y164537D01*
X246741Y164567D01*
X246794Y164726D01*
X247441Y167701D01*
X247443Y167739D01*
X247453Y167774D01*
X247450Y167861D01*
X247454Y167947D01*
X247451Y167957D01*
X247542Y168199D01*
X247548Y168231D01*
X247572Y168303D01*
X247627Y168557D01*
X247638Y168567D01*
X247656Y168599D01*
X247681Y168627D01*
X247757Y168776D01*
X248821Y171629D01*
X248826Y171656D01*
X248836Y171676D01*
X248837Y171685D01*
X248843Y171700D01*
X248852Y171786D01*
X248868Y171870D01*
X248867Y171881D01*
X248991Y172108D01*
X249002Y172139D01*
X249036Y172207D01*
X249127Y172450D01*
X249139Y172458D01*
X249161Y172487D01*
X249190Y172511D01*
X249286Y172648D01*
X250746Y175321D01*
X250758Y175356D01*
X250778Y175387D01*
X250791Y175442D01*
X250810Y175483D01*
X250814Y175515D01*
X250827Y175553D01*
X250827Y175563D01*
X250982Y175770D01*
X250997Y175799D01*
X251041Y175861D01*
X251165Y176089D01*
X251178Y176096D01*
X251205Y176122D01*
X251237Y176141D01*
X251351Y176263D01*
X253176Y178701D01*
X253193Y178733D01*
X253217Y178762D01*
X253250Y178842D01*
X253290Y178919D01*
X253291Y178929D01*
X253474Y179112D01*
X253493Y179138D01*
X253545Y179194D01*
X253701Y179402D01*
X253714Y179406D01*
X253744Y179428D01*
X253779Y179443D01*
X253910Y179547D01*
X256063Y181700D01*
X256084Y181731D01*
X256112Y181755D01*
X256156Y181830D01*
X256206Y181900D01*
X256209Y181910D01*
X256416Y182065D01*
X256439Y182089D01*
X256498Y182136D01*
X256682Y182320D01*
X256696Y182322D01*
X256729Y182339D01*
X256765Y182349D01*
X256909Y182434D01*
X259347Y184259D01*
X259372Y184285D01*
X259404Y184306D01*
X259457Y184374D01*
X259517Y184436D01*
X259522Y184445D01*
X259749Y184569D01*
X259775Y184589D01*
X259840Y184628D01*
X260048Y184784D01*
X260062Y184784D01*
X260097Y184796D01*
X260134Y184801D01*
X260289Y184864D01*
X262962Y186324D01*
X262991Y186346D01*
X263025Y186362D01*
X263087Y186422D01*
X263156Y186475D01*
X263161Y186483D01*
X263403Y186574D01*
X263432Y186590D01*
X263502Y186619D01*
X263730Y186743D01*
X263745Y186742D01*
X263781Y186749D01*
X263818Y186748D01*
X263981Y186789D01*
X266833Y187853D01*
X266866Y187872D01*
X266902Y187882D01*
X266972Y187932D01*
X267047Y187975D01*
X267054Y187983D01*
X267307Y188038D01*
X267337Y188050D01*
X267411Y188068D01*
X267654Y188159D01*
X267668Y188155D01*
X267705Y188158D01*
X267742Y188151D01*
X267909Y188169D01*
X270884Y188816D01*
X270918Y188830D01*
X270955Y188835D01*
X271032Y188875D01*
X271112Y188906D01*
X271120Y188913D01*
X271378Y188931D01*
X271410Y188939D01*
X271486Y188947D01*
X271740Y189002D01*
X271753Y188997D01*
X271790Y188993D01*
X271825Y188982D01*
X271993Y188975D01*
X275030Y189193D01*
X275066Y189201D01*
X275103Y189201D01*
X275185Y189230D01*
X275269Y189250D01*
X275278Y189255D01*
X275536Y189237D01*
X275568Y189240D01*
X275644Y189237D01*
X275904Y189255D01*
X275916Y189248D01*
X275952Y189239D01*
X275985Y189223D01*
X276150Y189193D01*
X279440Y188957D01*
X279477Y188961D01*
X279514Y188956D01*
X279599Y188972D01*
X279685Y188980D01*
X279694Y188984D01*
X279947Y188929D01*
X279980Y188927D01*
X280055Y188913D01*
X280314Y188895D01*
X280325Y188886D01*
X280360Y188872D01*
X280390Y188851D01*
X280549Y188798D01*
X283772Y188097D01*
X283809Y188095D01*
X283845Y188085D01*
X283932Y188088D01*
X284018Y188084D01*
X284028Y188087D01*
X284270Y187996D01*
X284302Y187990D01*
X284374Y187966D01*
X284628Y187911D01*
X284638Y187900D01*
X284670Y187882D01*
X284698Y187857D01*
X284847Y187781D01*
X287938Y186628D01*
X287974Y186621D01*
X288008Y186606D01*
X288094Y186598D01*
X288179Y186581D01*
X288189Y186582D01*
X288416Y186458D01*
X288447Y186447D01*
X288515Y186413D01*
X288758Y186322D01*
X288766Y186311D01*
X288796Y186288D01*
X288820Y186259D01*
X288957Y186163D01*
X291852Y184582D01*
X291887Y184570D01*
X291918Y184550D01*
X292002Y184529D01*
X292084Y184501D01*
X292094Y184501D01*
X292301Y184346D01*
X292330Y184331D01*
X292393Y184287D01*
X292621Y184162D01*
X292627Y184150D01*
X292653Y184123D01*
X292672Y184091D01*
X292795Y183976D01*
X295435Y182000D01*
X295468Y181983D01*
X295496Y181958D01*
X295577Y181926D01*
X295653Y181886D01*
X295663Y181885D01*
X295846Y181702D01*
X295872Y181683D01*
X295928Y181631D01*
X296136Y181475D01*
X296140Y181461D01*
X296162Y181431D01*
X296177Y181397D01*
X296264Y181288D01*
X296265Y181287D01*
X296266Y181286D01*
X296282Y181266D01*
X298614Y178934D01*
X298644Y178912D01*
X298669Y178884D01*
X298727Y178850D01*
X298735Y178843D01*
X298746Y178839D01*
X298814Y178790D01*
X298824Y178787D01*
X298979Y178580D01*
X299002Y178557D01*
X299050Y178498D01*
X299233Y178314D01*
X299236Y178300D01*
X299253Y178267D01*
X299263Y178231D01*
X299348Y178087D01*
X301324Y175447D01*
X301351Y175421D01*
X301372Y175389D01*
X301439Y175336D01*
X301502Y175276D01*
X301511Y175272D01*
X301635Y175045D01*
X301655Y175019D01*
X301694Y174953D01*
X301849Y174745D01*
X301850Y174731D01*
X301862Y174696D01*
X301867Y174659D01*
X301930Y174504D01*
X303511Y171609D01*
X303534Y171580D01*
X303550Y171546D01*
X303609Y171483D01*
X303662Y171415D01*
X303671Y171409D01*
X303761Y171167D01*
X303777Y171139D01*
X303806Y171068D01*
X303931Y170840D01*
X303929Y170826D01*
X303936Y170790D01*
X303935Y170752D01*
X303976Y170590D01*
X305129Y167499D01*
X305148Y167467D01*
X305158Y167431D01*
X305208Y167361D01*
X305251Y167286D01*
X305259Y167279D01*
X305314Y167026D01*
X305326Y166996D01*
X305344Y166922D01*
X305435Y166679D01*
X305431Y166665D01*
X305434Y166628D01*
X305427Y166591D01*
X305445Y166424D01*
X306146Y163201D01*
X306160Y163167D01*
X306165Y163130D01*
X306204Y163053D01*
X306236Y162973D01*
X306243Y162965D01*
X306261Y162707D01*
X306269Y162675D01*
X306277Y162599D01*
X306332Y162345D01*
X306326Y162332D01*
X306323Y162295D01*
X306312Y162260D01*
X306305Y162092D01*
X306541Y158802D01*
X306549Y158766D01*
X306549Y158729D01*
X306578Y158647D01*
X306598Y158563D01*
X306603Y158554D01*
X306585Y158296D01*
X306588Y158264D01*
X306585Y158188D01*
X306603Y157928D01*
X306596Y157916D01*
X306587Y157880D01*
X306571Y157847D01*
X306541Y157682D01*
X306342Y154898D01*
X306345Y154861D01*
X306340Y154824D01*
X306356Y154739D01*
X306364Y154653D01*
X306368Y154644D01*
X306313Y154391D01*
X306311Y154358D01*
X306298Y154283D01*
X306279Y154024D01*
X306270Y154013D01*
X306256Y153978D01*
X306236Y153948D01*
X306197Y153832D01*
X306189Y153816D01*
X306188Y153808D01*
X306182Y153789D01*
X305589Y151062D01*
X305587Y151024D01*
X305577Y150989D01*
X305581Y150902D01*
X305576Y150816D01*
X305579Y150806D01*
X305488Y150564D01*
X305482Y150532D01*
X305458Y150460D01*
X305403Y150206D01*
X305392Y150196D01*
X305374Y150164D01*
X305349Y150136D01*
X305273Y149986D01*
X304298Y147372D01*
X304291Y147335D01*
X304275Y147301D01*
X304267Y147215D01*
X304250Y147130D01*
X304252Y147120D01*
X304128Y146893D01*
X304117Y146862D01*
X304082Y146794D01*
X303992Y146551D01*
X303980Y146543D01*
X303957Y146513D01*
X303928Y146490D01*
X303832Y146352D01*
X302495Y143903D01*
X302482Y143868D01*
X302462Y143836D01*
X302442Y143752D01*
X302413Y143671D01*
X302413Y143660D01*
X302258Y143453D01*
X302243Y143424D01*
X302199Y143362D01*
X302075Y143134D01*
X302062Y143128D01*
X302035Y143102D01*
X302004Y143082D01*
X301889Y142960D01*
X300216Y140726D01*
X300199Y140693D01*
X300175Y140665D01*
X300143Y140584D01*
X300103Y140508D01*
X300101Y140498D01*
X299918Y140315D01*
X299899Y140288D01*
X299847Y140233D01*
X299691Y140024D01*
X299678Y140020D01*
X299648Y139998D01*
X299613Y139984D01*
X299483Y139879D01*
X297509Y137905D01*
X297487Y137875D01*
X297459Y137851D01*
X297416Y137776D01*
X297366Y137706D01*
X297363Y137696D01*
X297155Y137541D01*
X297133Y137517D01*
X297073Y137470D01*
X296890Y137286D01*
X296876Y137284D01*
X296843Y137266D01*
X296807Y137257D01*
X296662Y137172D01*
X294428Y135499D01*
X294402Y135472D01*
X294371Y135452D01*
X294317Y135384D01*
X294258Y135322D01*
X294253Y135313D01*
X294026Y135189D01*
X294000Y135168D01*
X293935Y135130D01*
X293727Y134974D01*
X293713Y134974D01*
X293677Y134961D01*
X293640Y134957D01*
X293485Y134893D01*
X291036Y133556D01*
X291006Y133533D01*
X290973Y133517D01*
X290910Y133458D01*
X290842Y133405D01*
X290836Y133396D01*
X290594Y133306D01*
X290566Y133289D01*
X290495Y133260D01*
X290267Y133136D01*
X290253Y133138D01*
X290216Y133130D01*
X290179Y133131D01*
X290016Y133090D01*
X287402Y132115D01*
X287369Y132096D01*
X287334Y132086D01*
X287263Y132036D01*
X287188Y131993D01*
X287181Y131985D01*
X286928Y131930D01*
X286898Y131918D01*
X286824Y131900D01*
X286581Y131809D01*
X286567Y131812D01*
X286530Y131810D01*
X286493Y131817D01*
X286326Y131799D01*
X283599Y131206D01*
X283565Y131192D01*
X283528Y131187D01*
X283451Y131147D01*
X283371Y131116D01*
X283363Y131109D01*
X283105Y131090D01*
X283073Y131083D01*
X282997Y131075D01*
X282743Y131020D01*
X282730Y131025D01*
X282693Y131028D01*
X282658Y131040D01*
X282490Y131046D01*
X279767Y130852D01*
X279705Y130837D01*
X279640Y130832D01*
X279588Y130809D01*
X279201Y130809D01*
X279181Y130806D01*
X279146Y130807D01*
X278770Y130780D01*
X278744Y130791D01*
X278659Y130800D01*
X278627Y130808D01*
X278608Y130806D01*
X278578Y130809D01*
X276158Y130809D01*
X276095Y130799D01*
X276031Y130798D01*
X275976Y130780D01*
X275590Y130807D01*
G37*
%LPD*%
%LPC*%
G36*
X101346Y107693D02*
X101346Y107693D01*
X101326Y107691D01*
X101291Y107695D01*
X100914Y107695D01*
X100890Y107707D01*
X100806Y107723D01*
X100774Y107733D01*
X100755Y107732D01*
X100725Y107738D01*
X97749Y107951D01*
X97712Y107947D01*
X97675Y107952D01*
X97590Y107936D01*
X97504Y107928D01*
X97495Y107924D01*
X97242Y107979D01*
X97209Y107981D01*
X97134Y107995D01*
X96875Y108013D01*
X96864Y108022D01*
X96829Y108036D01*
X96799Y108057D01*
X96640Y108110D01*
X93665Y108757D01*
X93627Y108759D01*
X93592Y108769D01*
X93505Y108766D01*
X93419Y108770D01*
X93409Y108767D01*
X93167Y108858D01*
X93135Y108864D01*
X93063Y108888D01*
X92809Y108943D01*
X92799Y108954D01*
X92767Y108972D01*
X92739Y108997D01*
X92590Y109073D01*
X89737Y110137D01*
X89700Y110144D01*
X89666Y110159D01*
X89580Y110168D01*
X89496Y110184D01*
X89485Y110183D01*
X89258Y110307D01*
X89227Y110318D01*
X89159Y110352D01*
X88916Y110443D01*
X88908Y110455D01*
X88879Y110477D01*
X88855Y110506D01*
X88718Y110602D01*
X86045Y112062D01*
X86010Y112074D01*
X85979Y112094D01*
X85895Y112114D01*
X85813Y112143D01*
X85803Y112143D01*
X85596Y112298D01*
X85567Y112313D01*
X85505Y112357D01*
X85277Y112481D01*
X85270Y112494D01*
X85244Y112521D01*
X85225Y112553D01*
X85103Y112667D01*
X82665Y114492D01*
X82633Y114509D01*
X82604Y114533D01*
X82524Y114566D01*
X82447Y114606D01*
X82437Y114607D01*
X82254Y114790D01*
X82228Y114809D01*
X82172Y114861D01*
X81964Y115017D01*
X81960Y115030D01*
X81938Y115060D01*
X81923Y115095D01*
X81819Y115226D01*
X79666Y117379D01*
X79635Y117400D01*
X79611Y117428D01*
X79536Y117472D01*
X79466Y117522D01*
X79456Y117525D01*
X79301Y117732D01*
X79277Y117755D01*
X79230Y117814D01*
X79046Y117998D01*
X79044Y118012D01*
X79027Y118045D01*
X79017Y118081D01*
X78932Y118225D01*
X77107Y120663D01*
X77081Y120688D01*
X77060Y120720D01*
X76992Y120773D01*
X76930Y120833D01*
X76921Y120838D01*
X76797Y121065D01*
X76777Y121091D01*
X76738Y121156D01*
X76582Y121364D01*
X76582Y121378D01*
X76570Y121413D01*
X76565Y121450D01*
X76502Y121605D01*
X75042Y124278D01*
X75020Y124307D01*
X75004Y124341D01*
X74944Y124403D01*
X74891Y124472D01*
X74883Y124477D01*
X74792Y124719D01*
X74776Y124748D01*
X74747Y124818D01*
X74623Y125046D01*
X74624Y125061D01*
X74617Y125097D01*
X74618Y125134D01*
X74577Y125297D01*
X73513Y128149D01*
X73494Y128182D01*
X73484Y128218D01*
X73434Y128288D01*
X73391Y128363D01*
X73383Y128370D01*
X73328Y128623D01*
X73316Y128653D01*
X73298Y128727D01*
X73207Y128970D01*
X73211Y128984D01*
X73208Y129021D01*
X73215Y129058D01*
X73197Y129225D01*
X72550Y132200D01*
X72536Y132234D01*
X72531Y132271D01*
X72491Y132348D01*
X72460Y132428D01*
X72453Y132436D01*
X72435Y132694D01*
X72427Y132726D01*
X72419Y132802D01*
X72364Y133056D01*
X72369Y133069D01*
X72373Y133106D01*
X72384Y133141D01*
X72391Y133309D01*
X72173Y136346D01*
X72165Y136382D01*
X72165Y136419D01*
X72136Y136501D01*
X72116Y136585D01*
X72111Y136594D01*
X72129Y136852D01*
X72126Y136884D01*
X72127Y136902D01*
X72127Y136903D01*
X72127Y136904D01*
X72129Y136960D01*
X72111Y137220D01*
X72118Y137232D01*
X72127Y137268D01*
X72143Y137301D01*
X72173Y137466D01*
X72391Y140503D01*
X72387Y140540D01*
X72392Y140577D01*
X72376Y140662D01*
X72368Y140748D01*
X72364Y140757D01*
X72419Y141010D01*
X72421Y141043D01*
X72435Y141118D01*
X72453Y141377D01*
X72462Y141388D01*
X72476Y141423D01*
X72497Y141453D01*
X72550Y141612D01*
X73197Y144587D01*
X73199Y144625D01*
X73209Y144660D01*
X73206Y144747D01*
X73210Y144833D01*
X73207Y144843D01*
X73298Y145085D01*
X73304Y145117D01*
X73328Y145189D01*
X73383Y145443D01*
X73394Y145453D01*
X73412Y145485D01*
X73437Y145513D01*
X73513Y145663D01*
X74577Y148515D01*
X74584Y148552D01*
X74599Y148586D01*
X74608Y148672D01*
X74624Y148756D01*
X74623Y148767D01*
X74747Y148994D01*
X74758Y149025D01*
X74792Y149093D01*
X74883Y149336D01*
X74895Y149344D01*
X74917Y149373D01*
X74946Y149397D01*
X75042Y149534D01*
X76502Y152207D01*
X76514Y152242D01*
X76534Y152273D01*
X76554Y152357D01*
X76583Y152439D01*
X76583Y152449D01*
X76738Y152656D01*
X76753Y152685D01*
X76797Y152747D01*
X76921Y152975D01*
X76934Y152982D01*
X76953Y153000D01*
X76963Y153005D01*
X76971Y153014D01*
X76993Y153027D01*
X77107Y153149D01*
X78932Y155587D01*
X78949Y155619D01*
X78973Y155648D01*
X79006Y155728D01*
X79046Y155805D01*
X79047Y155815D01*
X79230Y155998D01*
X79249Y156024D01*
X79301Y156080D01*
X79457Y156288D01*
X79470Y156292D01*
X79501Y156314D01*
X79535Y156329D01*
X79666Y156433D01*
X81819Y158586D01*
X81840Y158616D01*
X81868Y158641D01*
X81912Y158716D01*
X81962Y158786D01*
X81965Y158796D01*
X82172Y158951D01*
X82195Y158975D01*
X82254Y159022D01*
X82438Y159206D01*
X82452Y159208D01*
X82485Y159225D01*
X82521Y159235D01*
X82665Y159320D01*
X85103Y161145D01*
X85128Y161171D01*
X85160Y161192D01*
X85213Y161260D01*
X85273Y161322D01*
X85278Y161331D01*
X85505Y161455D01*
X85531Y161475D01*
X85596Y161514D01*
X85804Y161670D01*
X85818Y161670D01*
X85853Y161682D01*
X85890Y161687D01*
X86045Y161750D01*
X88718Y163210D01*
X88747Y163232D01*
X88781Y163248D01*
X88843Y163308D01*
X88912Y163361D01*
X88917Y163369D01*
X89159Y163460D01*
X89188Y163476D01*
X89258Y163505D01*
X89486Y163629D01*
X89501Y163628D01*
X89537Y163635D01*
X89574Y163634D01*
X89737Y163675D01*
X92589Y164739D01*
X92622Y164758D01*
X92657Y164768D01*
X92728Y164818D01*
X92803Y164861D01*
X92810Y164869D01*
X93063Y164924D01*
X93093Y164936D01*
X93167Y164954D01*
X93410Y165045D01*
X93424Y165041D01*
X93461Y165044D01*
X93498Y165037D01*
X93665Y165055D01*
X96640Y165702D01*
X96674Y165716D01*
X96711Y165721D01*
X96788Y165761D01*
X96868Y165792D01*
X96876Y165799D01*
X97134Y165817D01*
X97166Y165825D01*
X97242Y165833D01*
X97496Y165888D01*
X97509Y165883D01*
X97546Y165879D01*
X97581Y165868D01*
X97749Y165861D01*
X98810Y165937D01*
X98872Y165952D01*
X98936Y165957D01*
X98991Y165980D01*
X99049Y165994D01*
X99104Y166028D01*
X99163Y166054D01*
X99230Y166107D01*
X99258Y166124D01*
X99269Y166139D01*
X99271Y166140D01*
X99568Y166119D01*
X99588Y166121D01*
X99622Y166117D01*
X101291Y166117D01*
X101311Y166120D01*
X101346Y166119D01*
X101722Y166146D01*
X101748Y166135D01*
X101833Y166126D01*
X101865Y166118D01*
X101884Y166120D01*
X101914Y166117D01*
X103440Y166117D01*
X103533Y166024D01*
X103541Y166018D01*
X103547Y166010D01*
X103632Y165952D01*
X103647Y165938D01*
X103666Y165928D01*
X103733Y165880D01*
X103742Y165877D01*
X103750Y165872D01*
X103851Y165838D01*
X103868Y165830D01*
X103885Y165827D01*
X103909Y165818D01*
X103925Y165815D01*
X103949Y165814D01*
X103968Y165808D01*
X103984Y165808D01*
X104033Y165799D01*
X104292Y165781D01*
X104303Y165772D01*
X104338Y165758D01*
X104368Y165737D01*
X104527Y165684D01*
X107750Y164983D01*
X107787Y164981D01*
X107823Y164971D01*
X107910Y164974D01*
X107996Y164970D01*
X108006Y164973D01*
X108248Y164882D01*
X108280Y164876D01*
X108352Y164852D01*
X108606Y164797D01*
X108616Y164786D01*
X108648Y164768D01*
X108676Y164743D01*
X108825Y164667D01*
X111916Y163514D01*
X111952Y163507D01*
X111986Y163492D01*
X112072Y163484D01*
X112157Y163467D01*
X112167Y163468D01*
X112394Y163344D01*
X112425Y163333D01*
X112493Y163299D01*
X112736Y163208D01*
X112744Y163197D01*
X112774Y163174D01*
X112798Y163145D01*
X112935Y163049D01*
X115830Y161468D01*
X115865Y161456D01*
X115896Y161436D01*
X115980Y161415D01*
X116062Y161387D01*
X116072Y161387D01*
X116279Y161232D01*
X116308Y161217D01*
X116371Y161173D01*
X116599Y161048D01*
X116605Y161036D01*
X116631Y161009D01*
X116650Y160977D01*
X116773Y160862D01*
X119413Y158886D01*
X119446Y158869D01*
X119474Y158844D01*
X119555Y158812D01*
X119631Y158772D01*
X119641Y158771D01*
X119824Y158588D01*
X119851Y158569D01*
X119906Y158517D01*
X120114Y158361D01*
X120118Y158347D01*
X120140Y158317D01*
X120155Y158283D01*
X120260Y158152D01*
X122592Y155820D01*
X122622Y155798D01*
X122647Y155770D01*
X122722Y155727D01*
X122792Y155676D01*
X122802Y155673D01*
X122957Y155466D01*
X122980Y155443D01*
X123011Y155405D01*
X123011Y155404D01*
X123012Y155404D01*
X123028Y155384D01*
X123211Y155200D01*
X123214Y155186D01*
X123231Y155153D01*
X123241Y155117D01*
X123326Y154973D01*
X125302Y152333D01*
X125329Y152307D01*
X125350Y152275D01*
X125417Y152222D01*
X125480Y152162D01*
X125489Y152158D01*
X125613Y151931D01*
X125633Y151905D01*
X125672Y151839D01*
X125827Y151631D01*
X125828Y151617D01*
X125840Y151582D01*
X125845Y151545D01*
X125908Y151390D01*
X127489Y148495D01*
X127512Y148466D01*
X127528Y148432D01*
X127587Y148369D01*
X127640Y148301D01*
X127649Y148295D01*
X127739Y148053D01*
X127755Y148025D01*
X127784Y147954D01*
X127909Y147726D01*
X127907Y147712D01*
X127914Y147676D01*
X127913Y147638D01*
X127954Y147476D01*
X129107Y144385D01*
X129126Y144353D01*
X129136Y144317D01*
X129186Y144247D01*
X129229Y144172D01*
X129237Y144165D01*
X129292Y143912D01*
X129304Y143882D01*
X129322Y143808D01*
X129413Y143565D01*
X129409Y143551D01*
X129412Y143514D01*
X129405Y143477D01*
X129423Y143310D01*
X130124Y140087D01*
X130138Y140053D01*
X130143Y140016D01*
X130182Y139939D01*
X130214Y139859D01*
X130221Y139851D01*
X130239Y139593D01*
X130247Y139561D01*
X130255Y139485D01*
X130310Y139231D01*
X130304Y139218D01*
X130301Y139181D01*
X130290Y139146D01*
X130283Y138978D01*
X130519Y135688D01*
X130527Y135652D01*
X130527Y135615D01*
X130556Y135533D01*
X130576Y135449D01*
X130581Y135440D01*
X130563Y135182D01*
X130566Y135150D01*
X130563Y135074D01*
X130581Y134814D01*
X130574Y134802D01*
X130565Y134766D01*
X130549Y134733D01*
X130519Y134568D01*
X130320Y131784D01*
X130323Y131747D01*
X130318Y131710D01*
X130334Y131625D01*
X130342Y131539D01*
X130346Y131530D01*
X130291Y131277D01*
X130289Y131244D01*
X130276Y131169D01*
X130257Y130910D01*
X130248Y130899D01*
X130234Y130864D01*
X130214Y130834D01*
X130160Y130675D01*
X129567Y127948D01*
X129565Y127910D01*
X129555Y127875D01*
X129559Y127788D01*
X129554Y127702D01*
X129557Y127692D01*
X129466Y127450D01*
X129460Y127418D01*
X129436Y127346D01*
X129381Y127092D01*
X129370Y127082D01*
X129352Y127050D01*
X129327Y127022D01*
X129251Y126872D01*
X128276Y124258D01*
X128269Y124221D01*
X128253Y124187D01*
X128245Y124101D01*
X128228Y124016D01*
X128230Y124006D01*
X128106Y123779D01*
X128095Y123748D01*
X128060Y123680D01*
X127970Y123437D01*
X127958Y123429D01*
X127935Y123399D01*
X127906Y123376D01*
X127810Y123238D01*
X126473Y120789D01*
X126460Y120754D01*
X126440Y120722D01*
X126420Y120638D01*
X126391Y120557D01*
X126391Y120546D01*
X126236Y120339D01*
X126221Y120310D01*
X126177Y120248D01*
X126053Y120020D01*
X126040Y120014D01*
X126013Y119988D01*
X125982Y119968D01*
X125867Y119846D01*
X124194Y117612D01*
X124177Y117579D01*
X124153Y117551D01*
X124121Y117470D01*
X124081Y117394D01*
X124079Y117384D01*
X123896Y117201D01*
X123877Y117174D01*
X123825Y117119D01*
X123669Y116910D01*
X123656Y116906D01*
X123626Y116884D01*
X123591Y116870D01*
X123461Y116765D01*
X121487Y114791D01*
X121465Y114761D01*
X121437Y114737D01*
X121394Y114662D01*
X121344Y114592D01*
X121341Y114582D01*
X121134Y114427D01*
X121111Y114403D01*
X121051Y114356D01*
X120868Y114172D01*
X120854Y114170D01*
X120821Y114152D01*
X120785Y114143D01*
X120640Y114058D01*
X118406Y112385D01*
X118380Y112358D01*
X118349Y112338D01*
X118295Y112270D01*
X118236Y112208D01*
X118231Y112199D01*
X118004Y112075D01*
X117978Y112054D01*
X117913Y112016D01*
X117705Y111860D01*
X117691Y111860D01*
X117655Y111847D01*
X117618Y111843D01*
X117463Y111779D01*
X115014Y110442D01*
X114984Y110419D01*
X114951Y110403D01*
X114888Y110344D01*
X114820Y110291D01*
X114814Y110282D01*
X114572Y110192D01*
X114544Y110175D01*
X114473Y110146D01*
X114245Y110022D01*
X114231Y110024D01*
X114194Y110016D01*
X114157Y110017D01*
X113994Y109976D01*
X111380Y109001D01*
X111347Y108982D01*
X111312Y108972D01*
X111241Y108922D01*
X111166Y108879D01*
X111159Y108871D01*
X110906Y108816D01*
X110876Y108804D01*
X110802Y108786D01*
X110559Y108695D01*
X110545Y108698D01*
X110508Y108696D01*
X110471Y108703D01*
X110304Y108685D01*
X107577Y108092D01*
X107543Y108078D01*
X107506Y108073D01*
X107429Y108033D01*
X107349Y108002D01*
X107341Y107995D01*
X107083Y107976D01*
X107051Y107969D01*
X106975Y107961D01*
X106721Y107906D01*
X106708Y107911D01*
X106671Y107914D01*
X106636Y107926D01*
X106468Y107932D01*
X103745Y107738D01*
X103683Y107723D01*
X103618Y107718D01*
X103566Y107695D01*
X103179Y107695D01*
X103159Y107692D01*
X103124Y107693D01*
X102748Y107666D01*
X102722Y107677D01*
X102637Y107686D01*
X102605Y107694D01*
X102587Y107692D01*
X102556Y107695D01*
X101914Y107695D01*
X101851Y107685D01*
X101786Y107684D01*
X101732Y107666D01*
X101346Y107693D01*
G37*
%LPD*%
%LPC*%
G36*
X184263Y108485D02*
X184263Y108485D01*
X182126Y109371D01*
X180491Y111006D01*
X179605Y113143D01*
X179605Y115457D01*
X180491Y117594D01*
X182126Y119229D01*
X184263Y120115D01*
X184453Y120115D01*
X184543Y120129D01*
X184634Y120137D01*
X184663Y120149D01*
X184695Y120154D01*
X184776Y120197D01*
X184860Y120233D01*
X184892Y120259D01*
X184913Y120270D01*
X184914Y120271D01*
X184935Y120293D01*
X184991Y120338D01*
X198253Y133600D01*
X198295Y133658D01*
X198344Y133710D01*
X198366Y133757D01*
X198396Y133799D01*
X198418Y133868D01*
X198448Y133933D01*
X198454Y133985D01*
X198469Y134035D01*
X198467Y134106D01*
X198475Y134177D01*
X198464Y134228D01*
X198462Y134280D01*
X198438Y134348D01*
X198423Y134418D01*
X198396Y134463D01*
X198378Y134511D01*
X198333Y134567D01*
X198296Y134629D01*
X198257Y134663D01*
X198224Y134703D01*
X198164Y134742D01*
X198110Y134789D01*
X198061Y134808D01*
X198017Y134836D01*
X197948Y134854D01*
X197881Y134881D01*
X197810Y134889D01*
X197779Y134897D01*
X197756Y134895D01*
X197715Y134899D01*
X173658Y134899D01*
X172467Y136090D01*
X172467Y155774D01*
X173658Y156965D01*
X201342Y156965D01*
X202533Y155774D01*
X202533Y139717D01*
X202544Y139647D01*
X202546Y139575D01*
X202564Y139526D01*
X202572Y139475D01*
X202606Y139411D01*
X202631Y139344D01*
X202663Y139303D01*
X202688Y139257D01*
X202740Y139208D01*
X202784Y139152D01*
X202828Y139124D01*
X202866Y139088D01*
X202931Y139058D01*
X202991Y139019D01*
X203042Y139006D01*
X203089Y138984D01*
X203160Y138976D01*
X203230Y138959D01*
X203282Y138963D01*
X203333Y138957D01*
X203404Y138972D01*
X203475Y138978D01*
X203523Y138998D01*
X203574Y139009D01*
X203635Y139046D01*
X203701Y139074D01*
X203757Y139119D01*
X203785Y139136D01*
X203800Y139153D01*
X203832Y139179D01*
X206052Y141399D01*
X206105Y141473D01*
X206165Y141543D01*
X206177Y141573D01*
X206196Y141599D01*
X206223Y141686D01*
X206257Y141771D01*
X206261Y141812D01*
X206268Y141834D01*
X206267Y141866D01*
X206275Y141937D01*
X206275Y143397D01*
X207161Y145534D01*
X208796Y147169D01*
X210933Y148055D01*
X213247Y148055D01*
X215384Y147169D01*
X217019Y145534D01*
X217905Y143397D01*
X217905Y141083D01*
X217019Y138946D01*
X215384Y137311D01*
X214693Y137024D01*
X214637Y136990D01*
X214577Y136964D01*
X214512Y136912D01*
X214484Y136895D01*
X214472Y136880D01*
X214446Y136859D01*
X191458Y113871D01*
X191405Y113797D01*
X191345Y113727D01*
X191333Y113697D01*
X191314Y113671D01*
X191287Y113584D01*
X191253Y113499D01*
X191249Y113458D01*
X191242Y113436D01*
X191243Y113404D01*
X191235Y113333D01*
X191235Y113143D01*
X190349Y111006D01*
X188714Y109371D01*
X186577Y108485D01*
X184263Y108485D01*
G37*
%LPD*%
%LPC*%
G36*
X341663Y114562D02*
X341663Y114562D01*
X340472Y115753D01*
X340472Y143437D01*
X341663Y144628D01*
X361347Y144628D01*
X362538Y143437D01*
X362538Y115753D01*
X361347Y114562D01*
X341663Y114562D01*
G37*
%LPD*%
%LPC*%
G36*
X263003Y274855D02*
X263003Y274855D01*
X260866Y275741D01*
X259231Y277376D01*
X258345Y279513D01*
X258345Y281827D01*
X259231Y283964D01*
X259872Y284606D01*
X259925Y284680D01*
X259985Y284749D01*
X259997Y284779D01*
X260016Y284805D01*
X260043Y284892D01*
X260077Y284977D01*
X260081Y285018D01*
X260088Y285040D01*
X260087Y285073D01*
X260095Y285144D01*
X260095Y309104D01*
X260081Y309194D01*
X260073Y309285D01*
X260061Y309315D01*
X260056Y309347D01*
X260013Y309428D01*
X259977Y309511D01*
X259951Y309544D01*
X259940Y309564D01*
X259917Y309586D01*
X259872Y309642D01*
X259231Y310284D01*
X258345Y312421D01*
X258345Y314735D01*
X259231Y316872D01*
X260866Y318507D01*
X263003Y319393D01*
X265317Y319393D01*
X267454Y318507D01*
X269089Y316872D01*
X269975Y314735D01*
X269975Y312421D01*
X269089Y310284D01*
X268448Y309642D01*
X268395Y309568D01*
X268335Y309499D01*
X268323Y309469D01*
X268304Y309443D01*
X268277Y309356D01*
X268243Y309271D01*
X268239Y309230D01*
X268232Y309208D01*
X268233Y309175D01*
X268225Y309104D01*
X268225Y285144D01*
X268239Y285054D01*
X268247Y284963D01*
X268259Y284933D01*
X268264Y284901D01*
X268307Y284820D01*
X268343Y284737D01*
X268369Y284704D01*
X268380Y284684D01*
X268403Y284662D01*
X268448Y284606D01*
X269089Y283964D01*
X269975Y281827D01*
X269975Y279513D01*
X269089Y277376D01*
X267454Y275741D01*
X265317Y274855D01*
X263003Y274855D01*
G37*
%LPD*%
%LPC*%
G36*
X563862Y552322D02*
X563862Y552322D01*
X561481Y553308D01*
X559658Y555131D01*
X558672Y557512D01*
X558672Y560088D01*
X559658Y562469D01*
X561481Y564292D01*
X563862Y565278D01*
X566438Y565278D01*
X568819Y564292D01*
X570642Y562469D01*
X571628Y560088D01*
X571628Y557512D01*
X570642Y555131D01*
X568819Y553308D01*
X566438Y552322D01*
X563862Y552322D01*
G37*
%LPD*%
%LPC*%
G36*
X713087Y552322D02*
X713087Y552322D01*
X710706Y553308D01*
X708883Y555131D01*
X707897Y557512D01*
X707897Y560088D01*
X708883Y562469D01*
X710706Y564292D01*
X713087Y565278D01*
X715663Y565278D01*
X718044Y564292D01*
X719867Y562469D01*
X720853Y560088D01*
X720853Y557512D01*
X719867Y555131D01*
X718044Y553308D01*
X715663Y552322D01*
X713087Y552322D01*
G37*
%LPD*%
%LPC*%
G36*
X575292Y495172D02*
X575292Y495172D01*
X572911Y496158D01*
X571088Y497981D01*
X570102Y500362D01*
X570102Y502938D01*
X571088Y505319D01*
X572911Y507142D01*
X575292Y508128D01*
X577868Y508128D01*
X580249Y507142D01*
X582072Y505319D01*
X583058Y502938D01*
X583058Y500362D01*
X582072Y497981D01*
X580249Y496158D01*
X577868Y495172D01*
X575292Y495172D01*
G37*
%LPD*%
%LPC*%
G36*
X608947Y495172D02*
X608947Y495172D01*
X606566Y496158D01*
X604743Y497981D01*
X603757Y500362D01*
X603757Y502938D01*
X604743Y505319D01*
X606566Y507142D01*
X608947Y508128D01*
X611523Y508128D01*
X613904Y507142D01*
X615727Y505319D01*
X616713Y502938D01*
X616713Y500362D01*
X615727Y497981D01*
X613904Y496158D01*
X611523Y495172D01*
X608947Y495172D01*
G37*
%LPD*%
%LPC*%
G36*
X541637Y495172D02*
X541637Y495172D01*
X539256Y496158D01*
X537433Y497981D01*
X536447Y500362D01*
X536447Y502938D01*
X537433Y505319D01*
X539256Y507142D01*
X541637Y508128D01*
X544213Y508128D01*
X546594Y507142D01*
X548417Y505319D01*
X549403Y502938D01*
X549403Y500362D01*
X548417Y497981D01*
X546594Y496158D01*
X544213Y495172D01*
X541637Y495172D01*
G37*
%LPD*%
%LPC*%
G36*
X643872Y495172D02*
X643872Y495172D01*
X641491Y496158D01*
X639668Y497981D01*
X638682Y500362D01*
X638682Y502938D01*
X639668Y505319D01*
X641491Y507142D01*
X643872Y508128D01*
X646448Y508128D01*
X648829Y507142D01*
X650652Y505319D01*
X651638Y502938D01*
X651638Y500362D01*
X650652Y497981D01*
X648829Y496158D01*
X646448Y495172D01*
X643872Y495172D01*
G37*
%LPD*%
%LPC*%
G36*
X503537Y495172D02*
X503537Y495172D01*
X501156Y496158D01*
X499333Y497981D01*
X498347Y500362D01*
X498347Y502938D01*
X499333Y505319D01*
X501156Y507142D01*
X503537Y508128D01*
X506113Y508128D01*
X508494Y507142D01*
X510317Y505319D01*
X511303Y502938D01*
X511303Y500362D01*
X510317Y497981D01*
X508494Y496158D01*
X506113Y495172D01*
X503537Y495172D01*
G37*
%LPD*%
%LPC*%
G36*
X401937Y495172D02*
X401937Y495172D01*
X399556Y496158D01*
X397733Y497981D01*
X396747Y500362D01*
X396747Y502938D01*
X397733Y505319D01*
X399556Y507142D01*
X401937Y508128D01*
X404513Y508128D01*
X406894Y507142D01*
X408717Y505319D01*
X409703Y502938D01*
X409703Y500362D01*
X408717Y497981D01*
X406894Y496158D01*
X404513Y495172D01*
X401937Y495172D01*
G37*
%LPD*%
%LPC*%
G36*
X351662Y332993D02*
X351662Y332993D01*
X351662Y341631D01*
X358559Y341631D01*
X360138Y341381D01*
X361659Y340886D01*
X363084Y340160D01*
X364378Y339220D01*
X365509Y338089D01*
X366449Y336795D01*
X367175Y335370D01*
X367670Y333849D01*
X367805Y332993D01*
X351662Y332993D01*
G37*
%LPD*%
%LPC*%
G36*
X332473Y332993D02*
X332473Y332993D01*
X332608Y333849D01*
X333103Y335370D01*
X333829Y336795D01*
X334769Y338089D01*
X335900Y339220D01*
X337194Y340160D01*
X338619Y340886D01*
X340140Y341381D01*
X341719Y341631D01*
X348616Y341631D01*
X348616Y332993D01*
X332473Y332993D01*
G37*
%LPD*%
%LPC*%
G36*
X351662Y321309D02*
X351662Y321309D01*
X351662Y329947D01*
X367805Y329947D01*
X367670Y329091D01*
X367175Y327570D01*
X366449Y326145D01*
X365509Y324851D01*
X364378Y323720D01*
X363084Y322780D01*
X361659Y322054D01*
X360138Y321559D01*
X358559Y321309D01*
X351662Y321309D01*
G37*
%LPD*%
%LPC*%
G36*
X341719Y321309D02*
X341719Y321309D01*
X340140Y321559D01*
X338619Y322054D01*
X337194Y322780D01*
X335900Y323720D01*
X334769Y324851D01*
X333829Y326145D01*
X333103Y327570D01*
X332608Y329091D01*
X332473Y329947D01*
X348616Y329947D01*
X348616Y321309D01*
X341719Y321309D01*
G37*
%LPD*%
%LPC*%
G36*
X458152Y502602D02*
X458152Y502602D01*
X458152Y508583D01*
X459238Y508367D01*
X460509Y507841D01*
X461653Y507076D01*
X462626Y506103D01*
X463391Y504959D01*
X463917Y503688D01*
X464133Y502602D01*
X458152Y502602D01*
G37*
%LPD*%
%LPC*%
G36*
X450267Y502602D02*
X450267Y502602D01*
X450483Y503688D01*
X451009Y504959D01*
X451774Y506103D01*
X452747Y507076D01*
X453891Y507841D01*
X455162Y508367D01*
X456248Y508583D01*
X456248Y502602D01*
X450267Y502602D01*
G37*
%LPD*%
%LPC*%
G36*
X458152Y500698D02*
X458152Y500698D01*
X464133Y500698D01*
X463917Y499612D01*
X463391Y498341D01*
X462626Y497197D01*
X461653Y496224D01*
X460509Y495459D01*
X459238Y494933D01*
X458152Y494717D01*
X458152Y500698D01*
G37*
%LPD*%
%LPC*%
G36*
X455162Y494933D02*
X455162Y494933D01*
X453891Y495459D01*
X452747Y496224D01*
X451774Y497197D01*
X451009Y498341D01*
X450483Y499612D01*
X450267Y500698D01*
X456248Y500698D01*
X456248Y494717D01*
X455162Y494933D01*
G37*
%LPD*%
%LPC*%
G36*
X350138Y331469D02*
X350138Y331469D01*
X350138Y331471D01*
X350140Y331471D01*
X350140Y331469D01*
X350138Y331469D01*
G37*
%LPD*%
D10*
X417505Y153595D03*
X407505Y153595D03*
X427505Y153595D03*
X397505Y153595D03*
D11*
X733505Y129595D03*
X351505Y129595D03*
D10*
X387505Y153595D03*
X377505Y153595D03*
X437505Y153595D03*
X447505Y153595D03*
X457505Y153595D03*
X467505Y153595D03*
X477505Y153595D03*
X487505Y153595D03*
X497505Y153595D03*
X507505Y153595D03*
X517505Y153595D03*
X527505Y153595D03*
X537505Y153595D03*
X547505Y153595D03*
X557505Y153595D03*
X567505Y153595D03*
X577505Y153595D03*
X587505Y153595D03*
X597505Y153595D03*
X607505Y153595D03*
X617505Y153595D03*
X627505Y153595D03*
X637505Y153595D03*
X647505Y153595D03*
X657505Y153595D03*
X667505Y153595D03*
X677505Y153595D03*
X687505Y153595D03*
X697505Y153595D03*
X707505Y153595D03*
D12*
X211500Y461932D03*
X211500Y471932D03*
X211500Y451932D03*
X211500Y481932D03*
D13*
X187500Y145932D03*
X187500Y527932D03*
D12*
X211500Y491932D03*
X211500Y501932D03*
X211500Y441932D03*
X211500Y431932D03*
X211500Y421932D03*
X211500Y411932D03*
X211500Y401932D03*
X211500Y391932D03*
X211500Y381932D03*
X211500Y371932D03*
X211500Y361932D03*
X211500Y351932D03*
X211500Y341932D03*
X211500Y331932D03*
X211500Y321932D03*
X211500Y311932D03*
X211500Y301932D03*
X211500Y291932D03*
X211500Y281932D03*
X211500Y271932D03*
X211500Y261932D03*
X211500Y251932D03*
X211500Y241932D03*
X211500Y231932D03*
X211500Y221932D03*
X211500Y211932D03*
X211500Y201932D03*
X211500Y191932D03*
X211500Y181932D03*
X211500Y171932D03*
X831070Y211422D03*
X831070Y201422D03*
X831070Y221422D03*
X831070Y191422D03*
D13*
X855070Y527422D03*
X855070Y145422D03*
D12*
X831070Y181422D03*
X831070Y171422D03*
X831070Y231422D03*
X831070Y241422D03*
X831070Y251422D03*
X831070Y261422D03*
X831070Y271422D03*
X831070Y281422D03*
X831070Y291422D03*
X831070Y301422D03*
X831070Y311422D03*
X831070Y321422D03*
X831070Y331422D03*
X831070Y341422D03*
X831070Y351422D03*
X831070Y361422D03*
X831070Y371422D03*
X831070Y381422D03*
X831070Y391422D03*
X831070Y401422D03*
X831070Y411422D03*
X831070Y421422D03*
X831070Y431422D03*
X831070Y441422D03*
X831070Y451422D03*
X831070Y461422D03*
X831070Y471422D03*
X831070Y481422D03*
X831070Y491422D03*
X831070Y501422D03*
D14*
X398145Y558800D03*
X433070Y558800D03*
X603250Y558800D03*
X565150Y558800D03*
X480695Y558800D03*
X457200Y501650D03*
X504825Y501650D03*
X542925Y501650D03*
X528320Y558800D03*
X676275Y558800D03*
X714375Y558800D03*
X762000Y558800D03*
X403225Y501650D03*
X576580Y501650D03*
X610235Y501650D03*
X645160Y501650D03*
X686435Y501650D03*
X722630Y501650D03*
X758825Y501650D03*
X353695Y501650D03*
X360045Y558800D03*
X641350Y558800D03*
D15*
X934847Y182372D02*
X934593Y162814D01*
X934593Y162052D01*
X934595Y161868D01*
X934602Y161684D01*
X934613Y161500D01*
X934629Y161317D01*
X934649Y161134D01*
X934673Y160951D01*
X934702Y160769D01*
X934735Y160588D01*
X934773Y160408D01*
X934814Y160228D01*
X934861Y160050D01*
X934911Y159873D01*
X934966Y159697D01*
X935025Y159523D01*
X935088Y159350D01*
X935156Y159179D01*
X935227Y159009D01*
X935303Y158841D01*
X935382Y158675D01*
X935466Y158511D01*
X935553Y158349D01*
X935645Y158189D01*
X935740Y158031D01*
X935839Y157876D01*
X935942Y157723D01*
X936048Y157573D01*
X936158Y157425D01*
X936272Y157280D01*
X936389Y157138D01*
X936509Y156999D01*
X936633Y156863D01*
X936760Y156729D01*
X936890Y156599D01*
X937024Y156472D01*
X937160Y156348D01*
X937299Y156228D01*
X937441Y156111D01*
X937586Y155997D01*
X937734Y155887D01*
X937884Y155781D01*
X938037Y155678D01*
X938192Y155579D01*
X938350Y155484D01*
X938510Y155392D01*
X938672Y155305D01*
X938836Y155221D01*
X939002Y155142D01*
X939170Y155066D01*
X939340Y154995D01*
X939511Y154927D01*
X939684Y154864D01*
X939858Y154805D01*
X940034Y154750D01*
X940211Y154700D01*
X940389Y154653D01*
X940569Y154612D01*
X940749Y154574D01*
X940930Y154541D01*
X941112Y154512D01*
X941295Y154488D01*
X941478Y154468D01*
X941661Y154452D01*
X941845Y154441D01*
X942029Y154434D01*
X942213Y154432D01*
X963549Y154432D01*
X953135Y156718D02*
X953135Y182372D01*
X934593Y195580D02*
X934593Y215138D01*
X934593Y195580D02*
X934595Y195383D01*
X934603Y195185D01*
X934615Y194989D01*
X934631Y194792D01*
X934653Y194596D01*
X934679Y194400D01*
X934710Y194205D01*
X934746Y194011D01*
X934786Y193818D01*
X934831Y193626D01*
X934881Y193435D01*
X934935Y193245D01*
X934994Y193057D01*
X935058Y192870D01*
X935126Y192685D01*
X935198Y192501D01*
X935275Y192320D01*
X935356Y192140D01*
X935442Y191962D01*
X935532Y191786D01*
X935626Y191613D01*
X935725Y191442D01*
X935827Y191273D01*
X935934Y191107D01*
X936044Y190944D01*
X936159Y190783D01*
X936277Y190625D01*
X936399Y190470D01*
X936525Y190318D01*
X936654Y190169D01*
X936787Y190024D01*
X936924Y189881D01*
X937064Y189742D01*
X937207Y189606D01*
X937354Y189474D01*
X937504Y189346D01*
X937656Y189221D01*
X937812Y189100D01*
X937971Y188982D01*
X938132Y188869D01*
X938296Y188760D01*
X938463Y188654D01*
X938633Y188553D01*
X938804Y188456D01*
X938978Y188363D01*
X939155Y188274D01*
X939333Y188189D01*
X939513Y188109D01*
X939695Y188033D01*
X939879Y187962D01*
X940065Y187895D01*
X940252Y187833D01*
X940441Y187775D01*
X940631Y187722D01*
X940822Y187674D01*
X941015Y187630D01*
X941208Y187591D01*
X941402Y187556D01*
X941598Y187527D01*
X941793Y187502D01*
X941990Y187481D01*
X942186Y187466D01*
X942383Y187455D01*
X942581Y187449D01*
X942778Y187448D01*
X942975Y187452D01*
X963549Y187198D01*
X934847Y221488D02*
X934847Y241808D01*
X934849Y242007D01*
X934857Y242205D01*
X934869Y242403D01*
X934886Y242601D01*
X934908Y242799D01*
X934934Y242996D01*
X934966Y243192D01*
X935002Y243387D01*
X935043Y243582D01*
X935088Y243775D01*
X935139Y243967D01*
X935194Y244158D01*
X935254Y244347D01*
X935318Y244535D01*
X935387Y244722D01*
X935460Y244906D01*
X935538Y245089D01*
X935621Y245270D01*
X935707Y245448D01*
X935798Y245625D01*
X935894Y245799D01*
X935993Y245971D01*
X936097Y246141D01*
X936205Y246307D01*
X936317Y246471D01*
X936433Y246633D01*
X936553Y246791D01*
X936676Y246947D01*
X936804Y247099D01*
X936935Y247248D01*
X937070Y247394D01*
X937208Y247537D01*
X937349Y247676D01*
X937495Y247812D01*
X937643Y247944D01*
X937794Y248073D01*
X937949Y248198D01*
X938106Y248319D01*
X938267Y248436D01*
X938430Y248549D01*
X938596Y248658D01*
X938765Y248763D01*
X938936Y248864D01*
X939110Y248960D01*
X939285Y249053D01*
X939464Y249141D01*
X939644Y249225D01*
X939826Y249304D01*
X940010Y249379D01*
X940196Y249449D01*
X940383Y249515D01*
X940572Y249576D01*
X940763Y249632D01*
X940954Y249684D01*
X941147Y249731D01*
X941342Y249773D01*
X941537Y249811D01*
X941732Y249844D01*
X941929Y249872D01*
X942126Y249895D01*
X942324Y249914D01*
X942522Y249927D01*
X942721Y249936D01*
X963803Y249682D01*
X962787Y240792D02*
X962787Y226568D01*
X962784Y226353D01*
X962777Y226137D01*
X962764Y225922D01*
X962745Y225707D01*
X962722Y225493D01*
X962693Y225280D01*
X962659Y225067D01*
X962620Y224855D01*
X962576Y224644D01*
X962527Y224434D01*
X962473Y224226D01*
X962414Y224019D01*
X962350Y223813D01*
X962280Y223609D01*
X962206Y223407D01*
X962127Y223206D01*
X962043Y223008D01*
X961955Y222811D01*
X961861Y222617D01*
X961763Y222425D01*
X961661Y222236D01*
X961553Y222049D01*
X961442Y221865D01*
X961325Y221683D01*
X961205Y221505D01*
X961080Y221329D01*
X960951Y221156D01*
X960818Y220987D01*
X960681Y220821D01*
X960540Y220658D01*
X960394Y220499D01*
X960245Y220343D01*
X960093Y220191D01*
X959937Y220043D01*
X959777Y219898D01*
X959613Y219758D01*
X959447Y219621D01*
X959277Y219489D01*
X959104Y219360D01*
X958928Y219236D01*
X958749Y219116D01*
X958567Y219001D01*
X958382Y218890D01*
X958195Y218783D01*
X958005Y218682D01*
X957812Y218584D01*
X957618Y218492D01*
X957421Y218404D01*
X957222Y218321D01*
X957022Y218242D01*
X956819Y218169D01*
X956615Y218101D01*
X956409Y218037D01*
X956201Y217979D01*
X955993Y217925D01*
X955783Y217877D01*
X955572Y217834D01*
X955360Y217796D01*
X955147Y217763D01*
X954933Y217735D01*
X954719Y217712D01*
X954504Y217695D01*
X954289Y217683D01*
X954073Y217676D01*
X953858Y217674D01*
X953643Y217678D01*
X953398Y217688D01*
X953154Y217704D01*
X952911Y217725D01*
X952668Y217753D01*
X952426Y217787D01*
X952185Y217826D01*
X951944Y217872D01*
X951705Y217923D01*
X951468Y217980D01*
X951231Y218043D01*
X950997Y218111D01*
X950764Y218185D01*
X950533Y218265D01*
X950304Y218351D01*
X950077Y218442D01*
X949852Y218538D01*
X949630Y218640D01*
X949411Y218748D01*
X949194Y218860D01*
X948980Y218978D01*
X948768Y219102D01*
X948560Y219230D01*
X948355Y219363D01*
X948154Y219501D01*
X947956Y219644D01*
X947761Y219792D01*
X947570Y219945D01*
X947383Y220102D01*
X947200Y220264D01*
X947020Y220430D01*
X946845Y220601D01*
X946674Y220775D01*
X946507Y220954D01*
X946345Y221137D01*
X946187Y221324D01*
X946034Y221514D01*
X945886Y221708D01*
X945742Y221906D01*
X945603Y222107D01*
X945469Y222312D01*
X945340Y222520D01*
X945217Y222730D01*
X945098Y222944D01*
X944985Y223161D01*
X944877Y223380D01*
X944774Y223602D01*
X944677Y223826D01*
X944585Y224053D01*
X944499Y224282D01*
X944499Y247904D01*
X934593Y266446D02*
X934593Y288798D01*
X934593Y266446D02*
X934595Y266253D01*
X934602Y266059D01*
X934614Y265866D01*
X934631Y265674D01*
X934652Y265481D01*
X934678Y265290D01*
X934709Y265099D01*
X934744Y264909D01*
X934784Y264719D01*
X934828Y264531D01*
X934877Y264344D01*
X934931Y264158D01*
X934989Y263974D01*
X935052Y263791D01*
X935119Y263610D01*
X935191Y263430D01*
X935267Y263252D01*
X935347Y263076D01*
X935431Y262902D01*
X935520Y262730D01*
X935613Y262561D01*
X935710Y262394D01*
X935811Y262229D01*
X935917Y262066D01*
X936026Y261907D01*
X936139Y261750D01*
X936255Y261595D01*
X936376Y261444D01*
X936500Y261296D01*
X936628Y261151D01*
X936759Y261009D01*
X936894Y260870D01*
X937032Y260734D01*
X937173Y260602D01*
X937317Y260474D01*
X937465Y260349D01*
X937616Y260227D01*
X937769Y260110D01*
X937926Y259996D01*
X938085Y259886D01*
X938246Y259780D01*
X938411Y259678D01*
X938577Y259580D01*
X938746Y259486D01*
X938918Y259396D01*
X939091Y259311D01*
X939267Y259230D01*
X939444Y259153D01*
X939623Y259080D01*
X939804Y259012D01*
X939987Y258948D01*
X940171Y258889D01*
X940357Y258834D01*
X940543Y258784D01*
X940731Y258739D01*
X940920Y258698D01*
X941110Y258661D01*
X941301Y258630D01*
X941493Y258603D01*
X941685Y258580D01*
X941877Y258563D01*
X942070Y258550D01*
X942263Y258542D01*
X942457Y258538D01*
X942650Y258539D01*
X942844Y258545D01*
X943037Y258556D01*
X943229Y258572D01*
X954659Y258826D01*
X954864Y258833D01*
X955069Y258845D01*
X955274Y258862D01*
X955478Y258884D01*
X955682Y258911D01*
X955884Y258943D01*
X956086Y258979D01*
X956287Y259021D01*
X956487Y259068D01*
X956686Y259119D01*
X956884Y259175D01*
X957080Y259236D01*
X957274Y259301D01*
X957467Y259372D01*
X957658Y259447D01*
X957848Y259526D01*
X958035Y259610D01*
X958220Y259699D01*
X958403Y259792D01*
X958584Y259889D01*
X958762Y259991D01*
X958938Y260097D01*
X959111Y260208D01*
X959281Y260322D01*
X959449Y260441D01*
X959614Y260564D01*
X959775Y260690D01*
X959934Y260821D01*
X960089Y260955D01*
X960241Y261093D01*
X960390Y261235D01*
X960535Y261380D01*
X960676Y261529D01*
X960814Y261681D01*
X960948Y261836D01*
X961079Y261995D01*
X961205Y262156D01*
X961328Y262321D01*
X961446Y262489D01*
X961561Y262659D01*
X961671Y262832D01*
X961777Y263008D01*
X961879Y263186D01*
X961976Y263367D01*
X962069Y263550D01*
X962158Y263735D01*
X962242Y263923D01*
X962321Y264112D01*
X962396Y264303D01*
X962466Y264496D01*
X962532Y264691D01*
X962593Y264887D01*
X962648Y265084D01*
X962700Y265283D01*
X962746Y265483D01*
X962787Y265684D01*
X963041Y288798D01*
X949833Y298450D02*
X933577Y298450D01*
X949833Y298450D02*
X963803Y298450D01*
X949833Y298450D02*
X934593Y330454D01*
X963295Y330454D02*
X948817Y301244D01*
X935101Y338074D02*
X935101Y373634D01*
X934847Y356108D02*
X963549Y356108D01*
X934847Y379984D02*
X934847Y400304D01*
X934849Y400503D01*
X934857Y400701D01*
X934869Y400899D01*
X934886Y401097D01*
X934908Y401295D01*
X934934Y401492D01*
X934966Y401688D01*
X935002Y401883D01*
X935043Y402078D01*
X935088Y402271D01*
X935139Y402463D01*
X935194Y402654D01*
X935254Y402843D01*
X935318Y403031D01*
X935387Y403218D01*
X935460Y403402D01*
X935538Y403585D01*
X935621Y403766D01*
X935707Y403944D01*
X935798Y404121D01*
X935894Y404295D01*
X935993Y404467D01*
X936097Y404637D01*
X936205Y404803D01*
X936317Y404967D01*
X936433Y405129D01*
X936553Y405287D01*
X936676Y405443D01*
X936804Y405595D01*
X936935Y405744D01*
X937070Y405890D01*
X937208Y406033D01*
X937349Y406172D01*
X937495Y406308D01*
X937643Y406440D01*
X937794Y406569D01*
X937949Y406694D01*
X938106Y406815D01*
X938267Y406932D01*
X938430Y407045D01*
X938596Y407154D01*
X938765Y407259D01*
X938936Y407360D01*
X939110Y407456D01*
X939285Y407549D01*
X939464Y407637D01*
X939644Y407721D01*
X939826Y407800D01*
X940010Y407875D01*
X940196Y407945D01*
X940383Y408011D01*
X940572Y408072D01*
X940763Y408128D01*
X940954Y408180D01*
X941147Y408227D01*
X941342Y408269D01*
X941537Y408307D01*
X941732Y408340D01*
X941929Y408368D01*
X942126Y408391D01*
X942324Y408410D01*
X942522Y408423D01*
X942721Y408432D01*
X963803Y408178D01*
X962787Y399288D02*
X962787Y385064D01*
X962784Y384849D01*
X962777Y384633D01*
X962764Y384418D01*
X962745Y384203D01*
X962722Y383989D01*
X962693Y383776D01*
X962659Y383563D01*
X962620Y383351D01*
X962576Y383140D01*
X962527Y382930D01*
X962473Y382722D01*
X962414Y382515D01*
X962350Y382309D01*
X962280Y382105D01*
X962206Y381903D01*
X962127Y381702D01*
X962043Y381504D01*
X961955Y381307D01*
X961861Y381113D01*
X961763Y380921D01*
X961661Y380732D01*
X961553Y380545D01*
X961442Y380361D01*
X961325Y380179D01*
X961205Y380001D01*
X961080Y379825D01*
X960951Y379652D01*
X960818Y379483D01*
X960681Y379317D01*
X960540Y379154D01*
X960394Y378995D01*
X960245Y378839D01*
X960093Y378687D01*
X959937Y378539D01*
X959777Y378394D01*
X959613Y378254D01*
X959447Y378117D01*
X959277Y377985D01*
X959104Y377856D01*
X958928Y377732D01*
X958749Y377612D01*
X958567Y377497D01*
X958382Y377386D01*
X958195Y377279D01*
X958005Y377178D01*
X957812Y377080D01*
X957618Y376988D01*
X957421Y376900D01*
X957222Y376817D01*
X957022Y376738D01*
X956819Y376665D01*
X956615Y376597D01*
X956409Y376533D01*
X956201Y376475D01*
X955993Y376421D01*
X955783Y376373D01*
X955572Y376330D01*
X955360Y376292D01*
X955147Y376259D01*
X954933Y376231D01*
X954719Y376208D01*
X954504Y376191D01*
X954289Y376179D01*
X954073Y376172D01*
X953858Y376170D01*
X953643Y376174D01*
X953398Y376184D01*
X953154Y376200D01*
X952911Y376221D01*
X952668Y376249D01*
X952426Y376283D01*
X952185Y376322D01*
X951944Y376368D01*
X951705Y376419D01*
X951468Y376476D01*
X951231Y376539D01*
X950997Y376607D01*
X950764Y376681D01*
X950533Y376761D01*
X950304Y376847D01*
X950077Y376938D01*
X949852Y377034D01*
X949630Y377136D01*
X949411Y377244D01*
X949194Y377356D01*
X948980Y377474D01*
X948768Y377598D01*
X948560Y377726D01*
X948355Y377859D01*
X948154Y377997D01*
X947956Y378140D01*
X947761Y378288D01*
X947570Y378441D01*
X947383Y378598D01*
X947200Y378760D01*
X947020Y378926D01*
X946845Y379097D01*
X946674Y379271D01*
X946507Y379450D01*
X946345Y379633D01*
X946187Y379820D01*
X946034Y380010D01*
X945886Y380204D01*
X945742Y380402D01*
X945603Y380603D01*
X945469Y380808D01*
X945340Y381016D01*
X945217Y381226D01*
X945098Y381440D01*
X944985Y381657D01*
X944877Y381876D01*
X944774Y382098D01*
X944677Y382322D01*
X944585Y382549D01*
X944499Y382778D01*
X944499Y406400D01*
X954659Y419862D02*
X933323Y419862D01*
X954659Y419862D02*
X954859Y419864D01*
X955060Y419872D01*
X955260Y419884D01*
X955459Y419901D01*
X955659Y419923D01*
X955857Y419950D01*
X956055Y419982D01*
X956252Y420019D01*
X956448Y420060D01*
X956643Y420107D01*
X956837Y420158D01*
X957030Y420214D01*
X957221Y420274D01*
X957410Y420339D01*
X957598Y420409D01*
X957784Y420484D01*
X957968Y420563D01*
X958151Y420646D01*
X958331Y420734D01*
X958509Y420826D01*
X958684Y420923D01*
X958857Y421024D01*
X959028Y421129D01*
X959196Y421238D01*
X959361Y421352D01*
X959524Y421469D01*
X959683Y421590D01*
X959840Y421716D01*
X959993Y421845D01*
X960143Y421977D01*
X960290Y422114D01*
X960434Y422254D01*
X960574Y422397D01*
X960710Y422544D01*
X960843Y422694D01*
X960972Y422848D01*
X961097Y423004D01*
X961218Y423163D01*
X961336Y423326D01*
X961449Y423491D01*
X961559Y423659D01*
X961664Y423830D01*
X961765Y424003D01*
X961861Y424179D01*
X961954Y424356D01*
X962042Y424537D01*
X962125Y424719D01*
X962204Y424903D01*
X962278Y425089D01*
X962348Y425277D01*
X962414Y425466D01*
X962474Y425658D01*
X962530Y425850D01*
X962581Y426044D01*
X962627Y426239D01*
X962669Y426435D01*
X962706Y426632D01*
X962737Y426830D01*
X962764Y427028D01*
X962787Y427228D01*
X963041Y448056D01*
D16*
X357759Y331470D02*
X342519Y331470D01*
X342519Y306070D02*
X357759Y306070D01*
D17*
X397505Y153595D02*
X407505Y153595D01*
X387505Y153595D02*
X377505Y153595D01*
X387505Y153595D02*
X397505Y153595D01*
X381061Y157151D02*
X377505Y153595D01*
X381061Y157151D02*
X391922Y157151D01*
X211500Y481932D02*
X211500Y491932D01*
X211500Y481932D02*
X211500Y471932D01*
X211500Y461932D01*
X211500Y451932D01*
D18*
X391922Y157151D02*
X391922Y108712D01*
X211500Y471932D02*
X88392Y471932D01*
X391922Y108712D02*
X358140Y74930D01*
X78740Y74930D01*
X44450Y109220D01*
X44450Y427990D01*
X86995Y470535D01*
D19*
X207010Y559590D03*
D15*
X207010Y534670D01*
X233680Y508000D02*
X233680Y483870D01*
X221742Y471932D01*
X211500Y471932D01*
X233680Y508000D02*
X207010Y534670D01*
X88392Y471932D02*
X86995Y470535D01*
D17*
X417505Y153595D02*
X427505Y153595D01*
X431800Y153595D01*
X437505Y153595D01*
X447505Y153595D01*
D18*
X401320Y217170D02*
X401320Y368300D01*
X357688Y411932D01*
X211500Y411932D01*
X431800Y186690D02*
X431800Y153595D01*
X431800Y186690D02*
X401320Y217170D01*
D17*
X211500Y421932D02*
X211500Y431932D01*
X211500Y421932D02*
X211500Y411932D01*
X211500Y401932D01*
X211500Y391932D01*
D19*
X191770Y431800D03*
D15*
X191902Y431932D01*
X211500Y431932D01*
D20*
X457505Y195275D02*
X457505Y153595D01*
X429260Y223520D02*
X429260Y389890D01*
X377190Y441960D01*
X251460Y441960D01*
D19*
X251460Y441960D03*
X251460Y373380D03*
D20*
X250012Y371932D01*
X211500Y371932D01*
X429260Y223520D02*
X457505Y195275D01*
D15*
X346710Y472440D02*
X433070Y558800D01*
X346710Y472440D02*
X267970Y472440D01*
X251460Y455930D01*
X251460Y441960D01*
D20*
X467505Y181465D02*
X467505Y153595D01*
X467505Y181465D02*
X467360Y181610D01*
D19*
X467360Y181610D03*
X582930Y248920D03*
D20*
X586740Y252730D02*
X586740Y332006D01*
X586740Y252730D02*
X582930Y248920D01*
X606156Y351422D02*
X831070Y351422D01*
X606156Y351422D02*
X586740Y332006D01*
X211500Y351932D02*
X198262Y351932D01*
X170180Y323850D02*
X170180Y302966D01*
D19*
X170180Y302966D03*
X467360Y55146D03*
D20*
X467360Y153450D01*
X467505Y153595D01*
X198262Y351932D02*
X170180Y323850D01*
D15*
X831070Y351422D02*
X900998Y351422D01*
X911058Y361482D01*
D19*
X911058Y361482D03*
D20*
X831070Y361422D02*
X606318Y361422D01*
X605790Y361950D01*
D19*
X605790Y361950D03*
X480060Y191770D03*
D20*
X477505Y189215D01*
X477505Y153595D01*
X211500Y361932D02*
X170924Y361932D01*
X158750Y349758D01*
X158750Y303530D01*
X160020Y302260D01*
D19*
X160020Y302260D03*
X158750Y50800D03*
D20*
X450850Y50800D01*
X459006Y58956D02*
X459006Y112494D01*
D19*
X459006Y112494D03*
X478056Y112494D03*
D20*
X478056Y153044D01*
X477505Y153595D01*
X459006Y58956D02*
X450850Y50800D01*
D15*
X608330Y445770D02*
X622300Y459740D01*
X608330Y445770D02*
X576580Y445770D01*
X519430Y388620D01*
X480060Y217170D02*
X480060Y191770D01*
X519430Y256540D02*
X519430Y388620D01*
X519430Y256540D02*
X480060Y217170D01*
X622300Y459740D02*
X622300Y549910D01*
X613410Y558800D02*
X603250Y558800D01*
X613410Y558800D02*
X622300Y549910D01*
D21*
X831070Y481422D02*
X831070Y471422D01*
X831070Y461422D01*
D20*
X831070Y481422D02*
X831070Y491422D01*
D17*
X497505Y153595D02*
X487505Y153595D01*
X507505Y153595D02*
X517505Y153595D01*
X507505Y153595D02*
X502920Y153595D01*
X497505Y153595D01*
X831070Y451422D02*
X831070Y461422D01*
D22*
X831070Y471422D02*
X1024638Y471422D01*
X502920Y153595D02*
X502920Y119380D01*
X1024638Y471422D02*
X1070610Y425450D01*
X1070610Y96520D01*
X1046480Y72390D01*
X549910Y72390D01*
X502920Y119380D01*
D15*
X708728Y491422D02*
X831070Y491422D01*
X708728Y491422D02*
X641350Y558800D01*
D18*
X547505Y357005D02*
X542925Y352425D01*
X542925Y155373D01*
D17*
X537505Y153595D02*
X527505Y153595D01*
X537505Y153595D02*
X547505Y153595D01*
X557505Y153595D01*
X544703Y153595D02*
X542925Y155373D01*
X544703Y153595D02*
X547505Y153595D01*
X831070Y421422D02*
X831070Y431422D01*
X831070Y421422D02*
X831070Y411422D01*
X831070Y410210D01*
X831070Y401422D01*
X831070Y391422D01*
D22*
X600710Y410210D02*
X547505Y357005D01*
X600710Y410210D02*
X831070Y410210D01*
D15*
X721995Y513080D02*
X676275Y558800D01*
D19*
X896620Y513080D03*
X896620Y446558D03*
D15*
X881484Y431422D01*
X831070Y431422D01*
X896620Y513080D02*
X721995Y513080D01*
D20*
X567505Y338905D02*
X567505Y153595D01*
D15*
X727075Y546100D02*
X892175Y546100D01*
X908050Y530225D01*
D19*
X727075Y546100D03*
D15*
X885772Y371422D02*
X908050Y393700D01*
X908050Y446558D01*
D19*
X908050Y446558D03*
X908050Y519430D03*
D15*
X908050Y530225D01*
D20*
X599440Y370840D02*
X567505Y338905D01*
X830488Y370840D02*
X831070Y371422D01*
X830488Y370840D02*
X599440Y370840D01*
X831070Y371422D02*
X842698Y371422D01*
D15*
X854710Y359410D02*
X873760Y359410D01*
X885772Y371422D01*
X854710Y359410D02*
X842698Y371422D01*
X577505Y153595D02*
X577505Y149225D01*
D19*
X566420Y104140D03*
X577850Y231775D03*
D20*
X577850Y149570D01*
X577505Y149225D01*
X577505Y153595D02*
X577505Y115225D01*
X566420Y104140D01*
D19*
X809244Y321056D03*
D20*
X607822Y153912D02*
X607505Y153595D01*
X607822Y153912D02*
X607822Y250952D01*
X638810Y281940D01*
D19*
X638810Y281940D03*
X704850Y317500D03*
D20*
X809244Y321056D02*
X830704Y321056D01*
X831070Y321422D01*
X292748Y321932D02*
X211500Y321932D01*
X292748Y321932D02*
X293370Y321310D01*
D19*
X293370Y321310D03*
X435610Y463550D03*
D20*
X435610Y488950D01*
X448310Y501650D02*
X457200Y501650D01*
X448310Y501650D02*
X435610Y488950D01*
D19*
X812800Y302260D03*
D20*
X617505Y171450D02*
X617505Y153595D01*
X617505Y171450D02*
X617505Y218725D01*
X701040Y302260D01*
D19*
X701040Y302260D03*
D20*
X812800Y302260D02*
X830232Y302260D01*
X831070Y301422D01*
X235892Y301932D02*
X211500Y301932D01*
X235892Y301932D02*
X236220Y302260D01*
D19*
X236220Y302260D03*
X401320Y452120D03*
D20*
X421640Y431800D02*
X514006Y431800D01*
X421640Y431800D02*
X401320Y452120D01*
X514006Y431800D02*
X514350Y431456D01*
D19*
X514350Y431456D03*
X514350Y229334D03*
D20*
X514350Y177701D01*
X519331Y172720D01*
D19*
X519331Y172720D03*
X617505Y171450D03*
X800100Y292100D03*
D20*
X627505Y200785D02*
X627505Y153595D01*
X627505Y200785D02*
X688340Y261620D01*
D19*
X688340Y261620D03*
X866140Y295275D03*
X539115Y423545D03*
D20*
X800100Y292100D02*
X830392Y292100D01*
X831070Y291422D01*
X862287Y291422D02*
X866140Y295275D01*
X862287Y291422D02*
X831070Y291422D01*
X232778Y291932D02*
X211500Y291932D01*
X232778Y291932D02*
X232946Y292100D01*
D19*
X232946Y292100D03*
X407862Y423102D03*
D20*
X538672Y423102D02*
X539115Y423545D01*
X538672Y423102D02*
X407862Y423102D01*
D17*
X211500Y251932D02*
X211500Y246380D01*
X211500Y241932D01*
D20*
X637505Y153595D02*
X637505Y97825D01*
X637540Y97790D01*
D19*
X637540Y97790D03*
X193040Y245110D03*
D20*
X194310Y246380D01*
X211500Y246380D01*
D19*
X264160Y280670D03*
D15*
X264160Y313578D01*
D19*
X264160Y313578D03*
X294640Y450850D03*
D15*
X349250Y450850D01*
X378460Y480060D01*
D19*
X378460Y480060D03*
D20*
X211500Y271932D02*
X211500Y266700D01*
X211500Y261932D01*
X647505Y153595D02*
X647505Y97985D01*
X647700Y97790D01*
D19*
X647700Y97790D03*
X184150Y266700D03*
D20*
X211500Y266700D01*
D15*
X184150Y266700D02*
X143510Y266700D01*
X131854Y278356D02*
X131854Y448310D01*
D19*
X131854Y448310D03*
X131854Y495526D03*
D15*
X519684Y567436D02*
X528320Y558800D01*
X143510Y266700D02*
X131854Y278356D01*
X166370Y505460D02*
X166370Y558800D01*
X166370Y505460D02*
X156436Y495526D01*
X131854Y495526D01*
X175006Y567436D02*
X519684Y567436D01*
X175006Y567436D02*
X166370Y558800D01*
D17*
X211500Y211932D02*
X211500Y207010D01*
X211500Y201932D01*
D20*
X657505Y153595D02*
X657505Y97463D01*
X657296Y97254D01*
D19*
X657296Y97254D03*
X195388Y105218D03*
D20*
X211500Y207010D02*
X224790Y207010D01*
X232410Y142240D02*
X195388Y105218D01*
X232410Y142240D02*
X232410Y199390D01*
X224790Y207010D01*
D19*
X930910Y496286D03*
D15*
X850900Y496286D01*
D19*
X850900Y496286D03*
D17*
X211500Y231932D02*
X211500Y227330D01*
X211500Y221932D01*
D20*
X667505Y153595D02*
X667505Y98305D01*
X668020Y97790D01*
D19*
X668020Y97790D03*
X185420Y114300D03*
D20*
X212090Y140970D02*
X212090Y142240D01*
X212090Y140970D02*
X185420Y114300D01*
D19*
X212090Y142240D03*
X229870Y227330D03*
D20*
X211500Y227330D01*
D15*
X667505Y173235D02*
X667505Y153595D01*
X667505Y173235D02*
X666750Y173990D01*
D19*
X666750Y173990D03*
X894080Y179070D03*
X847884Y320040D03*
X855237Y369979D03*
D15*
X855934Y370676D01*
X855934Y416913D01*
D19*
X855934Y416913D03*
D15*
X859314Y308610D02*
X894080Y308610D01*
X900430Y302260D01*
X900430Y185420D02*
X894080Y179070D01*
X859314Y308610D02*
X847884Y320040D01*
X900430Y302260D02*
X900430Y185420D01*
D20*
X677505Y153595D02*
X677505Y227925D01*
X695450Y245870D02*
X741170Y245870D01*
X695450Y245870D02*
X677505Y227925D01*
D19*
X849503Y251968D03*
D15*
X831070Y251422D02*
X831070Y246380D01*
X831070Y241422D01*
X741680Y246380D02*
X741170Y245870D01*
D20*
X741680Y246380D02*
X831070Y246380D01*
D15*
X848957Y251422D02*
X849503Y251968D01*
X848957Y251422D02*
X831070Y251422D01*
D20*
X687505Y213795D02*
X687505Y153595D01*
X687505Y213795D02*
X702310Y228600D01*
X749300Y228600D01*
D19*
X749300Y228600D03*
X749300Y261620D03*
X850900Y272415D03*
D17*
X831070Y270256D02*
X831070Y266700D01*
D19*
X574294Y427736D03*
D17*
X831070Y266700D02*
X831070Y261422D01*
D20*
X832063Y272415D02*
X850900Y272415D01*
X832063Y272415D02*
X831070Y271422D01*
X754380Y266700D02*
X749300Y261620D01*
X754380Y266700D02*
X831070Y266700D01*
D15*
X831070Y270256D02*
X831070Y271422D01*
D20*
X697505Y197125D02*
X697505Y153595D01*
D19*
X852551Y211455D03*
D20*
X831070Y207010D02*
X831070Y201422D01*
X707390Y207010D02*
X697505Y197125D01*
X707390Y207010D02*
X831070Y207010D01*
D15*
X831103Y211455D02*
X852551Y211455D01*
X831103Y211455D02*
X831070Y211422D01*
X831070Y201422D01*
D20*
X707505Y174105D02*
X707505Y153595D01*
X707505Y174105D02*
X720725Y187325D01*
X784225Y187325D01*
D19*
X784225Y187325D03*
X783590Y226060D03*
X849503Y231267D03*
D15*
X831070Y226060D02*
X831070Y221422D01*
D20*
X831070Y226060D02*
X783590Y226060D01*
D15*
X831225Y231267D02*
X849503Y231267D01*
X831070Y231422D02*
X831070Y221422D01*
X831225Y231267D02*
X831070Y231422D01*
D20*
X587505Y153595D02*
X587505Y132585D01*
X588010Y132080D01*
D19*
X588010Y132080D03*
X388620Y185420D03*
D20*
X374650Y199390D01*
X374650Y254000D01*
X296718Y331932D01*
X211500Y331932D01*
D19*
X147546Y445770D03*
D15*
X147546Y335054D01*
X148590Y334010D01*
D19*
X148590Y334010D03*
X190692Y332548D03*
D15*
X210884Y332548D01*
X211500Y331932D01*
D19*
X219710Y542064D03*
D15*
X236446Y558800D01*
X358140Y544830D02*
X402590Y544830D01*
D19*
X402590Y544830D03*
D15*
X344170Y558800D02*
X236446Y558800D01*
X344170Y558800D02*
X358140Y544830D01*
D20*
X596900Y317500D02*
X596900Y154200D01*
X597505Y153595D01*
D15*
X831070Y331422D02*
X912447Y331422D01*
X920750Y339725D02*
X920750Y384175D01*
X920750Y339725D02*
X912447Y331422D01*
D19*
X920750Y519430D03*
X920750Y384175D03*
D20*
X831070Y331422D02*
X610822Y331422D01*
X596900Y317500D01*
D15*
X762000Y558800D02*
X892810Y558800D01*
X920750Y530860D02*
X920750Y519430D01*
X920750Y530860D02*
X892810Y558800D01*
M02*
