G04 EAGLE Gerber RS-274X export*
G75*
%MOMM*%
%FSLAX34Y34*%
%LPD*%
%INBottom Copper*%
%IPPOS*%
%AMOC8*
5,1,8,0,0,1.08239X$1,22.5*%
G01*
%ADD10C,0.889000*%
%ADD11C,0.406400*%
%ADD12C,1.524000*%
%ADD13C,0.756400*%
%ADD14C,0.508000*%

G36*
X153150Y46490D02*
X153150Y46490D01*
X153196Y46488D01*
X153271Y46510D01*
X153348Y46522D01*
X153388Y46544D01*
X153433Y46557D01*
X153497Y46601D01*
X153565Y46638D01*
X153597Y46671D01*
X153635Y46697D01*
X153681Y46760D01*
X153735Y46816D01*
X153754Y46858D01*
X153781Y46894D01*
X153805Y46968D01*
X153838Y47039D01*
X153843Y47085D01*
X153858Y47128D01*
X153857Y47206D01*
X153865Y47283D01*
X153856Y47328D01*
X153855Y47374D01*
X153817Y47506D01*
X153813Y47524D01*
X153811Y47528D01*
X153808Y47535D01*
X152935Y49643D01*
X152935Y51957D01*
X153821Y54094D01*
X153954Y54228D01*
X154007Y54302D01*
X154067Y54371D01*
X154079Y54401D01*
X154098Y54427D01*
X154125Y54514D01*
X154159Y54599D01*
X154163Y54640D01*
X154170Y54662D01*
X154169Y54695D01*
X154177Y54766D01*
X154177Y303037D01*
X154187Y303061D01*
X154191Y303102D01*
X154198Y303124D01*
X154197Y303156D01*
X154205Y303227D01*
X154205Y303417D01*
X155091Y305554D01*
X156726Y307189D01*
X158863Y308075D01*
X161177Y308075D01*
X163314Y307189D01*
X164209Y306295D01*
X164225Y306283D01*
X164237Y306267D01*
X164325Y306211D01*
X164408Y306151D01*
X164427Y306145D01*
X164444Y306134D01*
X164545Y306109D01*
X164644Y306079D01*
X164663Y306079D01*
X164683Y306074D01*
X164786Y306082D01*
X164889Y306085D01*
X164908Y306092D01*
X164928Y306093D01*
X165023Y306134D01*
X165120Y306169D01*
X165136Y306182D01*
X165154Y306190D01*
X165285Y306295D01*
X166886Y307895D01*
X169023Y308781D01*
X171337Y308781D01*
X173474Y307895D01*
X175109Y306260D01*
X175995Y304123D01*
X175995Y301809D01*
X175109Y299672D01*
X174976Y299538D01*
X174923Y299464D01*
X174863Y299395D01*
X174851Y299365D01*
X174832Y299339D01*
X174805Y299252D01*
X174771Y299167D01*
X174767Y299126D01*
X174760Y299104D01*
X174761Y299071D01*
X174753Y299000D01*
X174753Y70891D01*
X174767Y70801D01*
X174775Y70710D01*
X174787Y70681D01*
X174792Y70649D01*
X174835Y70568D01*
X174871Y70484D01*
X174897Y70452D01*
X174908Y70431D01*
X174931Y70409D01*
X174976Y70353D01*
X184145Y61184D01*
X184219Y61131D01*
X184289Y61071D01*
X184319Y61059D01*
X184345Y61040D01*
X184432Y61013D01*
X184517Y60979D01*
X184558Y60975D01*
X184580Y60968D01*
X184612Y60969D01*
X184683Y60961D01*
X211405Y60961D01*
X211475Y60972D01*
X211547Y60974D01*
X211596Y60992D01*
X211647Y61000D01*
X211711Y61034D01*
X211778Y61059D01*
X211819Y61091D01*
X211865Y61116D01*
X211914Y61168D01*
X211970Y61212D01*
X211998Y61256D01*
X212034Y61294D01*
X212064Y61359D01*
X212103Y61419D01*
X212116Y61470D01*
X212138Y61517D01*
X212146Y61588D01*
X212163Y61658D01*
X212159Y61710D01*
X212165Y61761D01*
X212150Y61832D01*
X212144Y61903D01*
X212124Y61951D01*
X212113Y62002D01*
X212076Y62063D01*
X212048Y62129D01*
X212003Y62185D01*
X211986Y62213D01*
X211969Y62228D01*
X211943Y62260D01*
X183749Y90454D01*
X180847Y93356D01*
X180847Y110334D01*
X180833Y110424D01*
X180825Y110515D01*
X180813Y110545D01*
X180808Y110577D01*
X180765Y110657D01*
X180729Y110742D01*
X180703Y110774D01*
X180692Y110794D01*
X180669Y110816D01*
X180624Y110872D01*
X180491Y111006D01*
X179605Y113143D01*
X179605Y115457D01*
X180491Y117594D01*
X182126Y119229D01*
X184263Y120115D01*
X185271Y120115D01*
X185341Y120126D01*
X185413Y120128D01*
X185462Y120146D01*
X185513Y120154D01*
X185577Y120188D01*
X185644Y120213D01*
X185685Y120245D01*
X185731Y120270D01*
X185780Y120322D01*
X185836Y120366D01*
X185864Y120410D01*
X185900Y120448D01*
X185930Y120513D01*
X185969Y120573D01*
X185982Y120624D01*
X186004Y120671D01*
X186012Y120742D01*
X186029Y120812D01*
X186025Y120864D01*
X186031Y120915D01*
X186016Y120986D01*
X186010Y121057D01*
X185990Y121105D01*
X185979Y121156D01*
X185942Y121217D01*
X185914Y121283D01*
X185869Y121339D01*
X185852Y121367D01*
X185835Y121382D01*
X185809Y121414D01*
X182479Y124744D01*
X179577Y127646D01*
X179577Y262734D01*
X179563Y262824D01*
X179555Y262915D01*
X179543Y262945D01*
X179538Y262977D01*
X179495Y263058D01*
X179459Y263141D01*
X179433Y263174D01*
X179422Y263194D01*
X179399Y263216D01*
X179354Y263272D01*
X179221Y263406D01*
X178335Y265543D01*
X178335Y267857D01*
X179221Y269994D01*
X180856Y271629D01*
X182993Y272515D01*
X185307Y272515D01*
X187444Y271629D01*
X189079Y269994D01*
X189965Y267857D01*
X189965Y265543D01*
X189079Y263406D01*
X188946Y263272D01*
X188893Y263198D01*
X188833Y263129D01*
X188821Y263099D01*
X188802Y263073D01*
X188775Y262986D01*
X188741Y262901D01*
X188737Y262860D01*
X188730Y262838D01*
X188731Y262805D01*
X188723Y262734D01*
X188723Y250755D01*
X188730Y250710D01*
X188728Y250664D01*
X188750Y250589D01*
X188762Y250512D01*
X188784Y250472D01*
X188797Y250427D01*
X188841Y250363D01*
X188878Y250295D01*
X188911Y250263D01*
X188937Y250225D01*
X189000Y250179D01*
X189056Y250125D01*
X189098Y250106D01*
X189134Y250079D01*
X189208Y250054D01*
X189279Y250022D01*
X189325Y250017D01*
X189368Y250002D01*
X189446Y250003D01*
X189523Y249995D01*
X189568Y250004D01*
X189614Y250005D01*
X189746Y250043D01*
X189764Y250047D01*
X189768Y250049D01*
X189775Y250052D01*
X191883Y250925D01*
X194197Y250925D01*
X196334Y250039D01*
X196976Y249398D01*
X197050Y249345D01*
X197119Y249285D01*
X197149Y249273D01*
X197175Y249254D01*
X197262Y249227D01*
X197347Y249193D01*
X197388Y249189D01*
X197410Y249182D01*
X197443Y249183D01*
X197514Y249175D01*
X238031Y249175D01*
X238121Y249189D01*
X238212Y249197D01*
X238242Y249209D01*
X238274Y249214D01*
X238354Y249257D01*
X238438Y249293D01*
X238470Y249319D01*
X238491Y249330D01*
X238513Y249353D01*
X238569Y249398D01*
X259872Y270701D01*
X259925Y270775D01*
X259985Y270844D01*
X259997Y270874D01*
X260016Y270900D01*
X260043Y270987D01*
X260077Y271072D01*
X260081Y271113D01*
X260088Y271136D01*
X260087Y271168D01*
X260095Y271239D01*
X260095Y276196D01*
X260081Y276286D01*
X260073Y276377D01*
X260061Y276407D01*
X260056Y276439D01*
X260013Y276519D01*
X259977Y276603D01*
X259951Y276636D01*
X259940Y276656D01*
X259917Y276678D01*
X259872Y276734D01*
X259231Y277376D01*
X258345Y279513D01*
X258345Y281827D01*
X259231Y283964D01*
X260866Y285599D01*
X261985Y286063D01*
X262067Y286114D01*
X262153Y286160D01*
X262171Y286179D01*
X262194Y286192D01*
X262256Y286267D01*
X262323Y286338D01*
X262334Y286362D01*
X262350Y286382D01*
X262385Y286473D01*
X262426Y286561D01*
X262429Y286587D01*
X262439Y286611D01*
X262443Y286709D01*
X262453Y286805D01*
X262448Y286831D01*
X262449Y286857D01*
X262422Y286951D01*
X262401Y287046D01*
X262388Y287068D01*
X262380Y287093D01*
X262325Y287173D01*
X262275Y287257D01*
X262255Y287274D01*
X262240Y287295D01*
X262162Y287354D01*
X262088Y287417D01*
X262064Y287427D01*
X262043Y287442D01*
X261950Y287472D01*
X261860Y287509D01*
X261827Y287512D01*
X261809Y287518D01*
X261776Y287518D01*
X261693Y287527D01*
X236912Y287527D01*
X236822Y287513D01*
X236731Y287505D01*
X236701Y287493D01*
X236669Y287488D01*
X236588Y287445D01*
X236505Y287409D01*
X236472Y287383D01*
X236452Y287372D01*
X236430Y287349D01*
X236374Y287304D01*
X236240Y287171D01*
X234103Y286285D01*
X231789Y286285D01*
X229652Y287171D01*
X228017Y288806D01*
X227131Y290943D01*
X227131Y293257D01*
X228017Y295394D01*
X229652Y297029D01*
X231128Y297641D01*
X231167Y297665D01*
X231210Y297681D01*
X231270Y297729D01*
X231337Y297770D01*
X231366Y297806D01*
X231402Y297834D01*
X231444Y297900D01*
X231493Y297960D01*
X231510Y298003D01*
X231535Y298041D01*
X231554Y298117D01*
X231582Y298189D01*
X231584Y298235D01*
X231595Y298280D01*
X231589Y298357D01*
X231592Y298435D01*
X231579Y298479D01*
X231576Y298525D01*
X231545Y298596D01*
X231523Y298671D01*
X231497Y298709D01*
X231479Y298751D01*
X231394Y298858D01*
X231383Y298873D01*
X231379Y298876D01*
X231375Y298882D01*
X231291Y298966D01*
X230405Y301103D01*
X230405Y303417D01*
X231291Y305554D01*
X231424Y305688D01*
X231477Y305762D01*
X231537Y305831D01*
X231549Y305861D01*
X231568Y305887D01*
X231595Y305974D01*
X231629Y306059D01*
X231633Y306100D01*
X231640Y306122D01*
X231639Y306155D01*
X231647Y306226D01*
X231647Y445124D01*
X252106Y465583D01*
X394324Y465583D01*
X401749Y458158D01*
X401823Y458105D01*
X401893Y458045D01*
X401923Y458033D01*
X401949Y458014D01*
X402036Y457987D01*
X402121Y457953D01*
X402162Y457949D01*
X402184Y457942D01*
X402216Y457943D01*
X402287Y457935D01*
X402477Y457935D01*
X404614Y457049D01*
X406249Y455414D01*
X407135Y453277D01*
X407135Y450963D01*
X406249Y448826D01*
X404614Y447191D01*
X402477Y446305D01*
X400163Y446305D01*
X398026Y447191D01*
X396391Y448826D01*
X395505Y450963D01*
X395505Y451153D01*
X395491Y451243D01*
X395483Y451334D01*
X395471Y451363D01*
X395466Y451395D01*
X395423Y451476D01*
X395387Y451560D01*
X395361Y451592D01*
X395350Y451613D01*
X395327Y451635D01*
X395282Y451691D01*
X390759Y456214D01*
X390685Y456267D01*
X390615Y456327D01*
X390585Y456339D01*
X390559Y456358D01*
X390472Y456385D01*
X390387Y456419D01*
X390346Y456423D01*
X390324Y456430D01*
X390292Y456429D01*
X390221Y456437D01*
X299114Y456437D01*
X299043Y456426D01*
X298971Y456424D01*
X298922Y456406D01*
X298871Y456398D01*
X298808Y456364D01*
X298740Y456339D01*
X298700Y456307D01*
X298654Y456282D01*
X298604Y456230D01*
X298548Y456186D01*
X298520Y456142D01*
X298484Y456104D01*
X298454Y456039D01*
X298415Y455979D01*
X298403Y455928D01*
X298381Y455881D01*
X298373Y455810D01*
X298355Y455740D01*
X298359Y455688D01*
X298354Y455637D01*
X298369Y455566D01*
X298374Y455495D01*
X298395Y455447D01*
X298406Y455396D01*
X298443Y455335D01*
X298471Y455269D01*
X298516Y455213D01*
X298532Y455185D01*
X298550Y455170D01*
X298576Y455138D01*
X299569Y454144D01*
X300455Y452007D01*
X300455Y449693D01*
X299569Y447556D01*
X297934Y445921D01*
X295797Y445035D01*
X294889Y445035D01*
X294799Y445021D01*
X294708Y445013D01*
X294678Y445001D01*
X294646Y444996D01*
X294566Y444953D01*
X294482Y444917D01*
X294450Y444891D01*
X294429Y444880D01*
X294407Y444857D01*
X294351Y444812D01*
X268448Y418909D01*
X268395Y418835D01*
X268335Y418766D01*
X268323Y418736D01*
X268304Y418710D01*
X268277Y418623D01*
X268243Y418538D01*
X268239Y418497D01*
X268232Y418474D01*
X268233Y418442D01*
X268225Y418371D01*
X268225Y318052D01*
X268239Y317962D01*
X268247Y317871D01*
X268259Y317841D01*
X268264Y317809D01*
X268307Y317728D01*
X268343Y317645D01*
X268369Y317612D01*
X268380Y317592D01*
X268403Y317570D01*
X268448Y317514D01*
X269089Y316872D01*
X269975Y314735D01*
X269975Y312421D01*
X269089Y310284D01*
X267454Y308649D01*
X265317Y307763D01*
X263003Y307763D01*
X260866Y308649D01*
X259231Y310284D01*
X258345Y312421D01*
X258345Y314735D01*
X259231Y316872D01*
X259872Y317514D01*
X259925Y317588D01*
X259985Y317657D01*
X259997Y317687D01*
X260016Y317713D01*
X260043Y317800D01*
X260077Y317885D01*
X260081Y317926D01*
X260088Y317948D01*
X260087Y317981D01*
X260095Y318052D01*
X260095Y422054D01*
X288602Y450561D01*
X288655Y450635D01*
X288715Y450704D01*
X288727Y450734D01*
X288746Y450760D01*
X288773Y450847D01*
X288807Y450932D01*
X288811Y450973D01*
X288818Y450996D01*
X288817Y451028D01*
X288825Y451099D01*
X288825Y452007D01*
X289711Y454144D01*
X290704Y455138D01*
X290746Y455196D01*
X290796Y455248D01*
X290818Y455295D01*
X290848Y455337D01*
X290869Y455406D01*
X290899Y455471D01*
X290905Y455523D01*
X290920Y455573D01*
X290918Y455644D01*
X290926Y455715D01*
X290915Y455766D01*
X290914Y455818D01*
X290889Y455886D01*
X290874Y455956D01*
X290847Y456001D01*
X290830Y456049D01*
X290785Y456105D01*
X290748Y456167D01*
X290708Y456201D01*
X290676Y456241D01*
X290616Y456280D01*
X290561Y456327D01*
X290513Y456346D01*
X290469Y456374D01*
X290399Y456392D01*
X290333Y456419D01*
X290262Y456427D01*
X290230Y456435D01*
X290207Y456433D01*
X290166Y456437D01*
X256209Y456437D01*
X256119Y456423D01*
X256028Y456415D01*
X255999Y456403D01*
X255967Y456398D01*
X255886Y456355D01*
X255802Y456319D01*
X255770Y456293D01*
X255749Y456282D01*
X255727Y456259D01*
X255671Y456214D01*
X247766Y448309D01*
X247709Y448230D01*
X247647Y448155D01*
X247637Y448130D01*
X247622Y448109D01*
X247593Y448016D01*
X247558Y447925D01*
X247557Y447899D01*
X247550Y447874D01*
X247552Y447777D01*
X247548Y447679D01*
X247555Y447654D01*
X247556Y447628D01*
X247590Y447536D01*
X247617Y447443D01*
X247631Y447422D01*
X247640Y447397D01*
X247701Y447321D01*
X247757Y447241D01*
X247778Y447225D01*
X247794Y447205D01*
X247876Y447152D01*
X247954Y447094D01*
X247979Y447086D01*
X248001Y447072D01*
X248096Y447048D01*
X248188Y447018D01*
X248214Y447018D01*
X248240Y447012D01*
X248337Y447019D01*
X248434Y447020D01*
X248466Y447030D01*
X248485Y447031D01*
X248515Y447044D01*
X248595Y447067D01*
X250303Y447775D01*
X252617Y447775D01*
X254754Y446889D01*
X256389Y445254D01*
X257275Y443117D01*
X257275Y440803D01*
X256389Y438666D01*
X256256Y438532D01*
X256203Y438458D01*
X256143Y438389D01*
X256131Y438359D01*
X256112Y438333D01*
X256085Y438246D01*
X256051Y438161D01*
X256047Y438120D01*
X256040Y438098D01*
X256041Y438065D01*
X256033Y437994D01*
X256033Y377346D01*
X256047Y377256D01*
X256055Y377165D01*
X256067Y377135D01*
X256072Y377103D01*
X256115Y377022D01*
X256151Y376939D01*
X256177Y376906D01*
X256188Y376886D01*
X256211Y376864D01*
X256256Y376808D01*
X256389Y376674D01*
X257275Y374537D01*
X257275Y372223D01*
X256389Y370086D01*
X254754Y368451D01*
X252617Y367565D01*
X250303Y367565D01*
X248166Y368451D01*
X246531Y370086D01*
X245645Y372223D01*
X245645Y374537D01*
X246531Y376674D01*
X246664Y376808D01*
X246717Y376882D01*
X246777Y376951D01*
X246789Y376981D01*
X246808Y377007D01*
X246835Y377094D01*
X246869Y377179D01*
X246873Y377220D01*
X246880Y377242D01*
X246879Y377275D01*
X246887Y377346D01*
X246887Y437994D01*
X246873Y438084D01*
X246865Y438175D01*
X246853Y438205D01*
X246848Y438237D01*
X246805Y438317D01*
X246769Y438402D01*
X246743Y438434D01*
X246732Y438454D01*
X246709Y438476D01*
X246664Y438532D01*
X246531Y438666D01*
X245645Y440803D01*
X245645Y443117D01*
X246353Y444825D01*
X246375Y444920D01*
X246404Y445013D01*
X246403Y445039D01*
X246409Y445064D01*
X246400Y445161D01*
X246397Y445259D01*
X246388Y445283D01*
X246386Y445309D01*
X246346Y445398D01*
X246313Y445490D01*
X246297Y445510D01*
X246286Y445534D01*
X246220Y445606D01*
X246159Y445682D01*
X246137Y445696D01*
X246120Y445715D01*
X246034Y445762D01*
X245952Y445815D01*
X245927Y445821D01*
X245904Y445834D01*
X245808Y445851D01*
X245714Y445875D01*
X245688Y445873D01*
X245662Y445877D01*
X245565Y445863D01*
X245469Y445856D01*
X245445Y445845D01*
X245419Y445842D01*
X245332Y445797D01*
X245242Y445759D01*
X245217Y445739D01*
X245199Y445730D01*
X245176Y445706D01*
X245111Y445654D01*
X241016Y441559D01*
X240963Y441485D01*
X240903Y441415D01*
X240891Y441385D01*
X240872Y441359D01*
X240845Y441272D01*
X240811Y441187D01*
X240807Y441146D01*
X240800Y441124D01*
X240801Y441092D01*
X240793Y441021D01*
X240793Y306226D01*
X240807Y306136D01*
X240815Y306045D01*
X240827Y306015D01*
X240832Y305983D01*
X240875Y305902D01*
X240911Y305819D01*
X240937Y305786D01*
X240948Y305766D01*
X240971Y305744D01*
X241016Y305688D01*
X241149Y305554D01*
X242035Y303417D01*
X242035Y301103D01*
X241149Y298966D01*
X240156Y297972D01*
X240114Y297914D01*
X240064Y297862D01*
X240042Y297815D01*
X240012Y297773D01*
X239991Y297704D01*
X239961Y297639D01*
X239955Y297587D01*
X239940Y297537D01*
X239942Y297466D01*
X239934Y297395D01*
X239945Y297344D01*
X239946Y297292D01*
X239971Y297224D01*
X239986Y297154D01*
X240013Y297109D01*
X240030Y297061D01*
X240075Y297005D01*
X240112Y296943D01*
X240152Y296909D01*
X240184Y296869D01*
X240244Y296830D01*
X240299Y296783D01*
X240347Y296764D01*
X240391Y296736D01*
X240461Y296718D01*
X240527Y296691D01*
X240598Y296683D01*
X240630Y296675D01*
X240653Y296677D01*
X240694Y296673D01*
X262233Y296673D01*
X262323Y296687D01*
X262414Y296695D01*
X262444Y296707D01*
X262476Y296712D01*
X262557Y296755D01*
X262640Y296791D01*
X262673Y296817D01*
X262693Y296828D01*
X262715Y296851D01*
X262771Y296896D01*
X275874Y309999D01*
X275927Y310073D01*
X275987Y310142D01*
X275999Y310172D01*
X276018Y310198D01*
X276045Y310285D01*
X276079Y310370D01*
X276083Y310411D01*
X276090Y310433D01*
X276089Y310466D01*
X276097Y310537D01*
X276097Y418454D01*
X285318Y427675D01*
X403896Y427675D01*
X403986Y427690D01*
X404077Y427697D01*
X404107Y427709D01*
X404139Y427715D01*
X404220Y427757D01*
X404304Y427793D01*
X404336Y427819D01*
X404356Y427830D01*
X404379Y427853D01*
X404435Y427898D01*
X404568Y428032D01*
X406706Y428917D01*
X409019Y428917D01*
X411156Y428032D01*
X412792Y426396D01*
X413677Y424259D01*
X413677Y421946D01*
X412792Y419808D01*
X411156Y418173D01*
X409019Y417287D01*
X406706Y417287D01*
X404568Y418173D01*
X404435Y418306D01*
X404361Y418360D01*
X404291Y418419D01*
X404261Y418431D01*
X404235Y418450D01*
X404148Y418477D01*
X404063Y418511D01*
X404022Y418516D01*
X404000Y418522D01*
X403968Y418522D01*
X403896Y418529D01*
X289422Y418529D01*
X289332Y418515D01*
X289241Y418508D01*
X289211Y418495D01*
X289179Y418490D01*
X289098Y418447D01*
X289014Y418411D01*
X288982Y418386D01*
X288961Y418375D01*
X288939Y418351D01*
X288883Y418306D01*
X285466Y414889D01*
X285413Y414815D01*
X285353Y414745D01*
X285341Y414715D01*
X285322Y414689D01*
X285295Y414602D01*
X285261Y414517D01*
X285257Y414476D01*
X285250Y414454D01*
X285251Y414422D01*
X285243Y414351D01*
X285243Y306433D01*
X266214Y287405D01*
X266209Y287402D01*
X266190Y287385D01*
X266167Y287372D01*
X266100Y287302D01*
X266028Y287236D01*
X266015Y287213D01*
X265997Y287194D01*
X265956Y287106D01*
X265909Y287020D01*
X265905Y286995D01*
X265894Y286971D01*
X265883Y286874D01*
X265866Y286778D01*
X265869Y286752D01*
X265867Y286727D01*
X265887Y286631D01*
X265901Y286535D01*
X265913Y286512D01*
X265919Y286486D01*
X265969Y286403D01*
X266013Y286316D01*
X266032Y286297D01*
X266045Y286275D01*
X266119Y286212D01*
X266189Y286144D01*
X266217Y286128D01*
X266232Y286115D01*
X266263Y286103D01*
X266335Y286063D01*
X267454Y285599D01*
X269089Y283964D01*
X269975Y281827D01*
X269975Y279513D01*
X269089Y277376D01*
X268448Y276734D01*
X268395Y276660D01*
X268335Y276591D01*
X268323Y276561D01*
X268304Y276535D01*
X268277Y276448D01*
X268243Y276363D01*
X268239Y276322D01*
X268232Y276300D01*
X268233Y276267D01*
X268225Y276196D01*
X268225Y267556D01*
X241714Y241045D01*
X198374Y241045D01*
X198354Y241042D01*
X198335Y241044D01*
X198233Y241022D01*
X198131Y241006D01*
X198114Y240996D01*
X198094Y240992D01*
X198005Y240939D01*
X197914Y240890D01*
X197900Y240876D01*
X197883Y240866D01*
X197816Y240787D01*
X197744Y240712D01*
X197736Y240694D01*
X197723Y240679D01*
X197684Y240583D01*
X197641Y240489D01*
X197639Y240469D01*
X197631Y240451D01*
X197613Y240284D01*
X197613Y143179D01*
X197627Y143089D01*
X197635Y142998D01*
X197647Y142969D01*
X197652Y142937D01*
X197695Y142856D01*
X197731Y142772D01*
X197757Y142740D01*
X197768Y142719D01*
X197791Y142697D01*
X197804Y142681D01*
X197810Y142671D01*
X197817Y142665D01*
X197836Y142641D01*
X241701Y98776D01*
X241775Y98723D01*
X241845Y98663D01*
X241875Y98651D01*
X241901Y98632D01*
X241988Y98605D01*
X242073Y98571D01*
X242114Y98567D01*
X242136Y98560D01*
X242168Y98561D01*
X242239Y98553D01*
X394793Y98553D01*
X394863Y98564D01*
X394935Y98566D01*
X394984Y98584D01*
X395035Y98592D01*
X395099Y98626D01*
X395166Y98651D01*
X395207Y98683D01*
X395253Y98708D01*
X395302Y98760D01*
X395358Y98804D01*
X395386Y98848D01*
X395422Y98886D01*
X395452Y98951D01*
X395491Y99011D01*
X395504Y99062D01*
X395526Y99109D01*
X395534Y99180D01*
X395551Y99250D01*
X395547Y99302D01*
X395553Y99353D01*
X395538Y99424D01*
X395532Y99495D01*
X395512Y99543D01*
X395501Y99594D01*
X395464Y99655D01*
X395436Y99721D01*
X395391Y99777D01*
X395374Y99805D01*
X395357Y99820D01*
X395331Y99852D01*
X370077Y125106D01*
X370077Y293701D01*
X370063Y293791D01*
X370055Y293882D01*
X370043Y293911D01*
X370038Y293943D01*
X369995Y294024D01*
X369959Y294108D01*
X369933Y294140D01*
X369922Y294161D01*
X369899Y294183D01*
X369854Y294239D01*
X365255Y298838D01*
X365239Y298850D01*
X365226Y298865D01*
X365139Y298922D01*
X365055Y298982D01*
X365036Y298988D01*
X365019Y298998D01*
X364919Y299024D01*
X364820Y299054D01*
X364800Y299054D01*
X364781Y299059D01*
X364678Y299051D01*
X364574Y299048D01*
X364555Y299041D01*
X364536Y299039D01*
X364441Y298999D01*
X364343Y298963D01*
X364328Y298951D01*
X364309Y298943D01*
X364178Y298838D01*
X363227Y297887D01*
X359679Y296417D01*
X340599Y296417D01*
X337051Y297887D01*
X334336Y300602D01*
X332866Y304150D01*
X332866Y307990D01*
X334336Y311538D01*
X337051Y314253D01*
X340599Y315723D01*
X353391Y315723D01*
X353481Y315737D01*
X353572Y315745D01*
X353601Y315757D01*
X353633Y315762D01*
X353714Y315805D01*
X353798Y315841D01*
X353830Y315867D01*
X353851Y315878D01*
X353873Y315901D01*
X353929Y315946D01*
X357993Y320010D01*
X358035Y320068D01*
X358084Y320120D01*
X358106Y320167D01*
X358136Y320209D01*
X358158Y320278D01*
X358188Y320343D01*
X358194Y320395D01*
X358209Y320445D01*
X358207Y320516D01*
X358215Y320587D01*
X358204Y320638D01*
X358202Y320690D01*
X358178Y320758D01*
X358163Y320828D01*
X358136Y320872D01*
X358118Y320921D01*
X358073Y320977D01*
X358036Y321039D01*
X357997Y321073D01*
X357964Y321113D01*
X357904Y321152D01*
X357850Y321199D01*
X357801Y321218D01*
X357757Y321246D01*
X357688Y321264D01*
X357621Y321291D01*
X357550Y321299D01*
X357519Y321307D01*
X357496Y321305D01*
X357455Y321309D01*
X351662Y321309D01*
X351662Y329947D01*
X367615Y329947D01*
X367705Y329962D01*
X367796Y329969D01*
X367825Y329981D01*
X367857Y329987D01*
X367938Y330029D01*
X368022Y330065D01*
X368054Y330091D01*
X368075Y330102D01*
X368097Y330125D01*
X368153Y330170D01*
X440974Y402991D01*
X441019Y403054D01*
X441045Y403081D01*
X441050Y403091D01*
X441087Y403135D01*
X441099Y403165D01*
X441118Y403191D01*
X441145Y403278D01*
X441179Y403363D01*
X441183Y403404D01*
X441190Y403426D01*
X441189Y403458D01*
X441197Y403529D01*
X441197Y484201D01*
X441193Y484224D01*
X441195Y484241D01*
X441181Y484305D01*
X441175Y484382D01*
X441163Y484411D01*
X441158Y484443D01*
X441147Y484463D01*
X441143Y484481D01*
X441108Y484540D01*
X441079Y484608D01*
X441053Y484640D01*
X441042Y484661D01*
X441027Y484675D01*
X441017Y484692D01*
X441000Y484707D01*
X440974Y484739D01*
X428859Y496854D01*
X428785Y496907D01*
X428715Y496967D01*
X428685Y496979D01*
X428659Y496998D01*
X428572Y497025D01*
X428487Y497059D01*
X428446Y497063D01*
X428424Y497070D01*
X428392Y497069D01*
X428321Y497077D01*
X408128Y497077D01*
X408038Y497063D01*
X407947Y497055D01*
X407918Y497043D01*
X407886Y497038D01*
X407805Y496995D01*
X407721Y496959D01*
X407689Y496933D01*
X407668Y496922D01*
X407646Y496899D01*
X407590Y496854D01*
X406894Y496158D01*
X404513Y495172D01*
X401937Y495172D01*
X399556Y496158D01*
X397733Y497981D01*
X396747Y500362D01*
X396747Y502938D01*
X397733Y505319D01*
X399556Y507142D01*
X401937Y508128D01*
X404513Y508128D01*
X406894Y507142D01*
X407590Y506446D01*
X407664Y506393D01*
X407734Y506333D01*
X407764Y506321D01*
X407790Y506302D01*
X407877Y506275D01*
X407962Y506241D01*
X408003Y506237D01*
X408025Y506230D01*
X408057Y506231D01*
X408128Y506223D01*
X432424Y506223D01*
X450343Y488304D01*
X450343Y399426D01*
X447441Y396524D01*
X364737Y313820D01*
X364725Y313804D01*
X364710Y313791D01*
X364653Y313704D01*
X364593Y313620D01*
X364587Y313601D01*
X364577Y313584D01*
X364551Y313484D01*
X364521Y313385D01*
X364521Y313365D01*
X364516Y313346D01*
X364524Y313243D01*
X364527Y313139D01*
X364534Y313120D01*
X364536Y313101D01*
X364576Y313006D01*
X364612Y312908D01*
X364624Y312893D01*
X364632Y312874D01*
X364737Y312743D01*
X365942Y311538D01*
X366205Y310904D01*
X366239Y310848D01*
X366265Y310788D01*
X366317Y310723D01*
X366334Y310695D01*
X366349Y310683D01*
X366370Y310657D01*
X369286Y307741D01*
X379223Y297804D01*
X379223Y129209D01*
X379237Y129119D01*
X379245Y129028D01*
X379257Y128999D01*
X379262Y128967D01*
X379305Y128886D01*
X379341Y128802D01*
X379367Y128770D01*
X379378Y128749D01*
X379401Y128727D01*
X379446Y128671D01*
X399181Y108936D01*
X399255Y108883D01*
X399325Y108823D01*
X399355Y108811D01*
X399381Y108792D01*
X399468Y108765D01*
X399553Y108731D01*
X399594Y108727D01*
X399616Y108720D01*
X399648Y108721D01*
X399719Y108713D01*
X453139Y108713D01*
X453184Y108720D01*
X453230Y108718D01*
X453305Y108740D01*
X453382Y108752D01*
X453422Y108774D01*
X453467Y108787D01*
X453531Y108831D01*
X453599Y108868D01*
X453631Y108901D01*
X453669Y108927D01*
X453715Y108990D01*
X453769Y109046D01*
X453788Y109088D01*
X453815Y109124D01*
X453839Y109198D01*
X453872Y109269D01*
X453877Y109315D01*
X453892Y109358D01*
X453891Y109436D01*
X453899Y109513D01*
X453890Y109558D01*
X453889Y109604D01*
X453851Y109735D01*
X453847Y109754D01*
X453845Y109758D01*
X453842Y109765D01*
X453191Y111337D01*
X453191Y113651D01*
X454077Y115788D01*
X455712Y117423D01*
X457849Y118309D01*
X460163Y118309D01*
X462300Y117423D01*
X462434Y117290D01*
X462508Y117237D01*
X462577Y117177D01*
X462607Y117165D01*
X462633Y117146D01*
X462720Y117119D01*
X462805Y117085D01*
X462846Y117081D01*
X462868Y117074D01*
X462901Y117075D01*
X462972Y117067D01*
X474090Y117067D01*
X474180Y117081D01*
X474271Y117089D01*
X474301Y117101D01*
X474333Y117106D01*
X474414Y117149D01*
X474497Y117185D01*
X474530Y117211D01*
X474550Y117222D01*
X474572Y117245D01*
X474628Y117290D01*
X474762Y117423D01*
X476899Y118309D01*
X479213Y118309D01*
X481350Y117423D01*
X482985Y115788D01*
X483871Y113651D01*
X483871Y111337D01*
X483220Y109765D01*
X483209Y109721D01*
X483190Y109679D01*
X483181Y109602D01*
X483163Y109526D01*
X483168Y109480D01*
X483163Y109435D01*
X483179Y109358D01*
X483186Y109281D01*
X483205Y109239D01*
X483215Y109194D01*
X483255Y109127D01*
X483286Y109056D01*
X483318Y109022D01*
X483341Y108983D01*
X483400Y108932D01*
X483453Y108875D01*
X483493Y108853D01*
X483528Y108823D01*
X483600Y108794D01*
X483668Y108757D01*
X483714Y108748D01*
X483756Y108731D01*
X483892Y108716D01*
X483910Y108713D01*
X483915Y108714D01*
X483923Y108713D01*
X562454Y108713D01*
X562544Y108727D01*
X562635Y108735D01*
X562665Y108747D01*
X562697Y108752D01*
X562778Y108795D01*
X562861Y108831D01*
X562894Y108857D01*
X562914Y108868D01*
X562936Y108891D01*
X562992Y108936D01*
X563126Y109069D01*
X565263Y109955D01*
X567577Y109955D01*
X569714Y109069D01*
X571349Y107434D01*
X572235Y105297D01*
X572235Y102983D01*
X571349Y100846D01*
X570356Y99852D01*
X570314Y99794D01*
X570264Y99742D01*
X570242Y99695D01*
X570212Y99653D01*
X570191Y99584D01*
X570161Y99519D01*
X570155Y99467D01*
X570140Y99417D01*
X570142Y99346D01*
X570134Y99275D01*
X570145Y99224D01*
X570146Y99172D01*
X570171Y99104D01*
X570186Y99034D01*
X570213Y98989D01*
X570230Y98941D01*
X570275Y98885D01*
X570312Y98823D01*
X570352Y98789D01*
X570384Y98749D01*
X570444Y98710D01*
X570499Y98663D01*
X570547Y98644D01*
X570591Y98616D01*
X570661Y98598D01*
X570727Y98571D01*
X570798Y98563D01*
X570830Y98555D01*
X570853Y98557D01*
X570894Y98553D01*
X631053Y98553D01*
X631168Y98572D01*
X631284Y98589D01*
X631290Y98591D01*
X631296Y98592D01*
X631399Y98647D01*
X631504Y98700D01*
X631508Y98705D01*
X631514Y98708D01*
X631593Y98792D01*
X631676Y98876D01*
X631680Y98882D01*
X631683Y98886D01*
X631691Y98903D01*
X631757Y99023D01*
X632611Y101084D01*
X634246Y102719D01*
X636383Y103605D01*
X638697Y103605D01*
X640834Y102719D01*
X642082Y101472D01*
X642098Y101460D01*
X642110Y101444D01*
X642198Y101388D01*
X642281Y101328D01*
X642300Y101322D01*
X642317Y101311D01*
X642418Y101286D01*
X642517Y101256D01*
X642536Y101256D01*
X642556Y101251D01*
X642659Y101259D01*
X642762Y101262D01*
X642781Y101269D01*
X642801Y101270D01*
X642896Y101311D01*
X642993Y101346D01*
X643009Y101359D01*
X643027Y101367D01*
X643158Y101472D01*
X644406Y102719D01*
X646543Y103605D01*
X648857Y103605D01*
X650994Y102719D01*
X651932Y101782D01*
X651990Y101740D01*
X652042Y101690D01*
X652089Y101668D01*
X652131Y101638D01*
X652200Y101617D01*
X652265Y101587D01*
X652317Y101581D01*
X652367Y101566D01*
X652438Y101568D01*
X652509Y101560D01*
X652560Y101571D01*
X652612Y101572D01*
X652680Y101597D01*
X652750Y101612D01*
X652795Y101639D01*
X652843Y101656D01*
X652899Y101701D01*
X652961Y101738D01*
X652995Y101778D01*
X653035Y101810D01*
X653074Y101870D01*
X653121Y101925D01*
X653140Y101973D01*
X653168Y102017D01*
X653186Y102087D01*
X653213Y102153D01*
X653221Y102224D01*
X653229Y102256D01*
X653227Y102279D01*
X653231Y102320D01*
X653231Y103990D01*
X661256Y112015D01*
X944151Y112015D01*
X944241Y112029D01*
X944332Y112037D01*
X944362Y112049D01*
X944394Y112054D01*
X944474Y112097D01*
X944558Y112133D01*
X944590Y112159D01*
X944611Y112170D01*
X944633Y112193D01*
X944689Y112238D01*
X954562Y122111D01*
X954611Y122178D01*
X954612Y122180D01*
X954613Y122181D01*
X954615Y122185D01*
X954675Y122254D01*
X954687Y122284D01*
X954706Y122310D01*
X954733Y122397D01*
X954767Y122482D01*
X954771Y122523D01*
X954778Y122546D01*
X954777Y122578D01*
X954785Y122649D01*
X954785Y483141D01*
X954771Y483231D01*
X954763Y483322D01*
X954751Y483352D01*
X954746Y483384D01*
X954703Y483464D01*
X954667Y483548D01*
X954641Y483580D01*
X954630Y483601D01*
X954607Y483623D01*
X954562Y483679D01*
X946243Y491998D01*
X946169Y492051D01*
X946100Y492111D01*
X946070Y492123D01*
X946044Y492142D01*
X945957Y492169D01*
X945872Y492203D01*
X945831Y492207D01*
X945808Y492214D01*
X945776Y492213D01*
X945705Y492221D01*
X935384Y492221D01*
X935294Y492207D01*
X935203Y492199D01*
X935173Y492187D01*
X935141Y492182D01*
X935060Y492139D01*
X934977Y492103D01*
X934944Y492077D01*
X934924Y492066D01*
X934902Y492043D01*
X934846Y491998D01*
X934204Y491357D01*
X932067Y490471D01*
X929753Y490471D01*
X927616Y491357D01*
X926114Y492858D01*
X926056Y492900D01*
X926004Y492950D01*
X925957Y492972D01*
X925915Y493002D01*
X925846Y493023D01*
X925781Y493053D01*
X925729Y493059D01*
X925679Y493074D01*
X925608Y493072D01*
X925537Y493080D01*
X925486Y493069D01*
X925434Y493068D01*
X925366Y493043D01*
X925296Y493028D01*
X925251Y493001D01*
X925203Y492984D01*
X925147Y492939D01*
X925085Y492902D01*
X925051Y492862D01*
X925011Y492830D01*
X924972Y492770D01*
X924925Y492715D01*
X924906Y492667D01*
X924878Y492623D01*
X924860Y492553D01*
X924833Y492487D01*
X924825Y492416D01*
X924817Y492384D01*
X924819Y492361D01*
X924815Y492320D01*
X924815Y388649D01*
X924829Y388559D01*
X924837Y388468D01*
X924849Y388438D01*
X924854Y388406D01*
X924897Y388325D01*
X924933Y388242D01*
X924959Y388209D01*
X924970Y388189D01*
X924993Y388167D01*
X925038Y388111D01*
X925679Y387469D01*
X926565Y385332D01*
X926565Y383018D01*
X925679Y380881D01*
X924044Y379246D01*
X921907Y378360D01*
X919593Y378360D01*
X917456Y379246D01*
X916422Y380279D01*
X916364Y380321D01*
X916312Y380371D01*
X916265Y380393D01*
X916223Y380423D01*
X916154Y380444D01*
X916089Y380474D01*
X916037Y380480D01*
X915987Y380495D01*
X915916Y380494D01*
X915844Y380501D01*
X915794Y380490D01*
X915742Y380489D01*
X915674Y380464D01*
X915604Y380449D01*
X915559Y380422D01*
X915511Y380405D01*
X915454Y380360D01*
X915393Y380323D01*
X915359Y380283D01*
X915318Y380251D01*
X915280Y380191D01*
X915233Y380136D01*
X915214Y380088D01*
X915185Y380044D01*
X915168Y379974D01*
X915141Y379908D01*
X915133Y379837D01*
X915125Y379805D01*
X915127Y379782D01*
X915123Y379741D01*
X915123Y365956D01*
X915137Y365866D01*
X915145Y365775D01*
X915157Y365745D01*
X915162Y365713D01*
X915205Y365632D01*
X915241Y365549D01*
X915267Y365516D01*
X915278Y365496D01*
X915301Y365474D01*
X915346Y365418D01*
X915987Y364776D01*
X916873Y362639D01*
X916873Y360325D01*
X915987Y358188D01*
X914352Y356553D01*
X912215Y355667D01*
X909901Y355667D01*
X908059Y356430D01*
X908015Y356441D01*
X907973Y356460D01*
X907896Y356469D01*
X907820Y356486D01*
X907774Y356482D01*
X907729Y356487D01*
X907652Y356471D01*
X907575Y356463D01*
X907533Y356445D01*
X907488Y356435D01*
X907421Y356395D01*
X907350Y356363D01*
X907316Y356332D01*
X907277Y356309D01*
X907226Y356250D01*
X907169Y356197D01*
X907147Y356157D01*
X907117Y356122D01*
X907088Y356050D01*
X907051Y355981D01*
X907042Y355936D01*
X907025Y355894D01*
X907010Y355758D01*
X907007Y355739D01*
X907008Y355734D01*
X907007Y355727D01*
X907007Y219559D01*
X894838Y207390D01*
X857025Y207390D01*
X856935Y207376D01*
X856844Y207368D01*
X856814Y207356D01*
X856782Y207351D01*
X856701Y207308D01*
X856618Y207272D01*
X856585Y207246D01*
X856565Y207235D01*
X856543Y207212D01*
X856487Y207167D01*
X855845Y206526D01*
X853708Y205640D01*
X851394Y205640D01*
X849257Y206526D01*
X847622Y208161D01*
X846736Y210298D01*
X846736Y212612D01*
X847622Y214749D01*
X849257Y216384D01*
X851394Y217270D01*
X853708Y217270D01*
X855845Y216384D01*
X856487Y215743D01*
X856561Y215690D01*
X856630Y215630D01*
X856660Y215618D01*
X856686Y215599D01*
X856773Y215572D01*
X856858Y215538D01*
X856899Y215534D01*
X856921Y215527D01*
X856954Y215528D01*
X857025Y215520D01*
X891156Y215520D01*
X891246Y215534D01*
X891337Y215542D01*
X891366Y215554D01*
X891398Y215559D01*
X891479Y215602D01*
X891563Y215638D01*
X891595Y215664D01*
X891616Y215675D01*
X891638Y215698D01*
X891694Y215743D01*
X898654Y222703D01*
X898707Y222777D01*
X898767Y222847D01*
X898779Y222877D01*
X898798Y222903D01*
X898825Y222990D01*
X898859Y223075D01*
X898863Y223116D01*
X898870Y223138D01*
X898869Y223170D01*
X898877Y223241D01*
X898877Y390701D01*
X898863Y390791D01*
X898855Y390882D01*
X898843Y390912D01*
X898838Y390944D01*
X898795Y391024D01*
X898759Y391108D01*
X898733Y391140D01*
X898722Y391161D01*
X898699Y391183D01*
X898654Y391239D01*
X885114Y404779D01*
X885040Y404832D01*
X884971Y404892D01*
X884940Y404904D01*
X884914Y404923D01*
X884827Y404950D01*
X884742Y404984D01*
X884702Y404988D01*
X884679Y404995D01*
X884647Y404994D01*
X884576Y405002D01*
X882957Y405002D01*
X882886Y404991D01*
X882815Y404989D01*
X882766Y404971D01*
X882714Y404963D01*
X882651Y404929D01*
X882584Y404904D01*
X882543Y404872D01*
X882497Y404847D01*
X882448Y404795D01*
X882392Y404751D01*
X882363Y404707D01*
X882327Y404669D01*
X882297Y404604D01*
X882259Y404544D01*
X882246Y404493D01*
X882224Y404446D01*
X882216Y404375D01*
X882198Y404305D01*
X882203Y404253D01*
X882197Y404202D01*
X882212Y404131D01*
X882218Y404060D01*
X882238Y404012D01*
X882249Y403961D01*
X882286Y403900D01*
X882314Y403834D01*
X882359Y403778D01*
X882375Y403750D01*
X882393Y403735D01*
X882419Y403703D01*
X893227Y392895D01*
X895831Y390291D01*
X895831Y239244D01*
X883789Y227202D01*
X853977Y227202D01*
X853887Y227188D01*
X853796Y227180D01*
X853766Y227168D01*
X853734Y227163D01*
X853653Y227120D01*
X853570Y227084D01*
X853537Y227058D01*
X853517Y227047D01*
X853495Y227024D01*
X853439Y226979D01*
X852797Y226338D01*
X850660Y225452D01*
X848346Y225452D01*
X846209Y226338D01*
X844574Y227973D01*
X843688Y230110D01*
X843688Y232424D01*
X844574Y234561D01*
X846209Y236196D01*
X848346Y237082D01*
X850660Y237082D01*
X852797Y236196D01*
X853439Y235555D01*
X853513Y235502D01*
X853582Y235442D01*
X853612Y235430D01*
X853638Y235411D01*
X853725Y235384D01*
X853810Y235350D01*
X853851Y235346D01*
X853873Y235339D01*
X853906Y235340D01*
X853977Y235332D01*
X880107Y235332D01*
X880197Y235346D01*
X880288Y235354D01*
X880317Y235366D01*
X880349Y235371D01*
X880430Y235414D01*
X880514Y235450D01*
X880546Y235476D01*
X880567Y235487D01*
X880589Y235510D01*
X880645Y235555D01*
X887478Y242388D01*
X887527Y242455D01*
X887528Y242457D01*
X887529Y242459D01*
X887531Y242462D01*
X887591Y242532D01*
X887603Y242562D01*
X887622Y242588D01*
X887649Y242675D01*
X887683Y242760D01*
X887687Y242801D01*
X887694Y242823D01*
X887693Y242855D01*
X887701Y242926D01*
X887701Y257979D01*
X887690Y258049D01*
X887688Y258121D01*
X887670Y258170D01*
X887662Y258221D01*
X887628Y258285D01*
X887603Y258352D01*
X887571Y258393D01*
X887546Y258439D01*
X887494Y258488D01*
X887450Y258544D01*
X887406Y258572D01*
X887368Y258608D01*
X887303Y258638D01*
X887243Y258677D01*
X887192Y258690D01*
X887145Y258712D01*
X887074Y258720D01*
X887004Y258737D01*
X886952Y258733D01*
X886901Y258739D01*
X886830Y258724D01*
X886759Y258718D01*
X886711Y258698D01*
X886660Y258687D01*
X886599Y258650D01*
X886533Y258622D01*
X886477Y258577D01*
X886449Y258560D01*
X886434Y258543D01*
X886402Y258517D01*
X875788Y247903D01*
X853977Y247903D01*
X853887Y247889D01*
X853796Y247881D01*
X853766Y247869D01*
X853734Y247864D01*
X853653Y247821D01*
X853570Y247785D01*
X853537Y247759D01*
X853517Y247748D01*
X853495Y247725D01*
X853439Y247680D01*
X852797Y247039D01*
X850660Y246153D01*
X848346Y246153D01*
X846209Y247039D01*
X844574Y248674D01*
X843688Y250811D01*
X843688Y253125D01*
X844574Y255262D01*
X846209Y256897D01*
X848346Y257783D01*
X850660Y257783D01*
X852797Y256897D01*
X853439Y256256D01*
X853513Y256203D01*
X853582Y256143D01*
X853612Y256131D01*
X853638Y256112D01*
X853725Y256085D01*
X853810Y256051D01*
X853851Y256047D01*
X853873Y256040D01*
X853906Y256041D01*
X853977Y256033D01*
X872106Y256033D01*
X872196Y256047D01*
X872287Y256055D01*
X872316Y256067D01*
X872348Y256072D01*
X872429Y256115D01*
X872513Y256151D01*
X872545Y256177D01*
X872566Y256188D01*
X872588Y256211D01*
X872644Y256256D01*
X878842Y262454D01*
X878895Y262528D01*
X878955Y262598D01*
X878967Y262628D01*
X878986Y262654D01*
X879013Y262741D01*
X879047Y262826D01*
X879051Y262867D01*
X879058Y262889D01*
X879057Y262921D01*
X879065Y262992D01*
X879065Y272203D01*
X879054Y272273D01*
X879052Y272345D01*
X879034Y272394D01*
X879026Y272445D01*
X878992Y272509D01*
X878967Y272576D01*
X878935Y272617D01*
X878910Y272663D01*
X878858Y272712D01*
X878814Y272768D01*
X878770Y272796D01*
X878732Y272832D01*
X878667Y272862D01*
X878607Y272901D01*
X878556Y272914D01*
X878509Y272936D01*
X878438Y272944D01*
X878368Y272961D01*
X878316Y272957D01*
X878265Y272963D01*
X878194Y272948D01*
X878123Y272942D01*
X878075Y272922D01*
X878024Y272911D01*
X877963Y272874D01*
X877897Y272846D01*
X877841Y272801D01*
X877813Y272784D01*
X877798Y272767D01*
X877766Y272741D01*
X873375Y268350D01*
X855374Y268350D01*
X855284Y268336D01*
X855193Y268328D01*
X855163Y268316D01*
X855131Y268311D01*
X855050Y268268D01*
X854967Y268232D01*
X854934Y268206D01*
X854914Y268195D01*
X854892Y268172D01*
X854836Y268127D01*
X854194Y267486D01*
X852057Y266600D01*
X849743Y266600D01*
X847606Y267486D01*
X845971Y269121D01*
X845085Y271258D01*
X845085Y273572D01*
X845971Y275709D01*
X847606Y277344D01*
X849743Y278230D01*
X852057Y278230D01*
X854194Y277344D01*
X854836Y276703D01*
X854910Y276650D01*
X854979Y276590D01*
X855009Y276578D01*
X855035Y276559D01*
X855122Y276532D01*
X855207Y276498D01*
X855248Y276494D01*
X855270Y276487D01*
X855303Y276488D01*
X855374Y276480D01*
X869693Y276480D01*
X869783Y276494D01*
X869874Y276502D01*
X869903Y276514D01*
X869935Y276519D01*
X870016Y276562D01*
X870100Y276598D01*
X870132Y276624D01*
X870153Y276635D01*
X870175Y276658D01*
X870231Y276703D01*
X870968Y277440D01*
X871021Y277514D01*
X871081Y277584D01*
X871093Y277614D01*
X871112Y277640D01*
X871139Y277727D01*
X871173Y277812D01*
X871177Y277853D01*
X871184Y277875D01*
X871183Y277907D01*
X871191Y277978D01*
X871191Y290265D01*
X871180Y290336D01*
X871178Y290408D01*
X871160Y290457D01*
X871152Y290508D01*
X871118Y290571D01*
X871093Y290639D01*
X871061Y290679D01*
X871036Y290725D01*
X870984Y290775D01*
X870940Y290831D01*
X870896Y290859D01*
X870858Y290895D01*
X870793Y290925D01*
X870733Y290964D01*
X870682Y290976D01*
X870635Y290998D01*
X870564Y291006D01*
X870494Y291024D01*
X870442Y291020D01*
X870391Y291025D01*
X870320Y291010D01*
X870249Y291005D01*
X870201Y290984D01*
X870150Y290973D01*
X870089Y290936D01*
X870023Y290908D01*
X869967Y290863D01*
X869939Y290847D01*
X869924Y290829D01*
X869892Y290803D01*
X869434Y290345D01*
X867297Y289460D01*
X864983Y289460D01*
X862846Y290346D01*
X861211Y291981D01*
X860325Y294118D01*
X860325Y296432D01*
X861211Y298569D01*
X861852Y299211D01*
X861905Y299285D01*
X861965Y299354D01*
X861977Y299384D01*
X861996Y299410D01*
X862023Y299497D01*
X862057Y299582D01*
X862061Y299623D01*
X862068Y299645D01*
X862067Y299678D01*
X862075Y299749D01*
X862075Y367467D01*
X862060Y367563D01*
X862050Y367660D01*
X862040Y367684D01*
X862036Y367709D01*
X861990Y367795D01*
X861950Y367884D01*
X861933Y367904D01*
X861920Y367927D01*
X861850Y367994D01*
X861784Y368065D01*
X861761Y368078D01*
X861742Y368096D01*
X861654Y368137D01*
X861568Y368184D01*
X861543Y368189D01*
X861519Y368200D01*
X861422Y368210D01*
X861326Y368228D01*
X861300Y368224D01*
X861275Y368227D01*
X861180Y368206D01*
X861083Y368192D01*
X861060Y368180D01*
X861034Y368175D01*
X860950Y368124D01*
X860864Y368080D01*
X860846Y368062D01*
X860823Y368048D01*
X860760Y367974D01*
X860692Y367905D01*
X860676Y367876D01*
X860663Y367861D01*
X860651Y367831D01*
X860611Y367758D01*
X860166Y366685D01*
X858531Y365050D01*
X856394Y364164D01*
X855486Y364164D01*
X855396Y364150D01*
X855305Y364142D01*
X855275Y364130D01*
X855243Y364125D01*
X855162Y364082D01*
X855079Y364046D01*
X855046Y364020D01*
X855026Y364009D01*
X855004Y363986D01*
X854948Y363941D01*
X852172Y361165D01*
X852119Y361091D01*
X852059Y361022D01*
X852047Y360992D01*
X852028Y360966D01*
X852001Y360879D01*
X851967Y360794D01*
X851963Y360753D01*
X851956Y360731D01*
X851957Y360698D01*
X851949Y360627D01*
X851949Y324514D01*
X851963Y324424D01*
X851971Y324333D01*
X851983Y324303D01*
X851988Y324271D01*
X852031Y324190D01*
X852067Y324107D01*
X852093Y324074D01*
X852104Y324054D01*
X852127Y324032D01*
X852172Y323976D01*
X852813Y323334D01*
X853699Y321197D01*
X853699Y318883D01*
X852813Y316746D01*
X851178Y315111D01*
X849041Y314225D01*
X846727Y314225D01*
X844590Y315111D01*
X842955Y316746D01*
X842069Y318883D01*
X842069Y321197D01*
X842955Y323334D01*
X843596Y323976D01*
X843649Y324050D01*
X843709Y324119D01*
X843721Y324149D01*
X843740Y324175D01*
X843767Y324262D01*
X843801Y324347D01*
X843805Y324388D01*
X843812Y324410D01*
X843811Y324443D01*
X843819Y324514D01*
X843819Y364310D01*
X849199Y369690D01*
X849252Y369764D01*
X849312Y369833D01*
X849324Y369863D01*
X849343Y369889D01*
X849370Y369976D01*
X849404Y370061D01*
X849408Y370102D01*
X849415Y370125D01*
X849414Y370157D01*
X849422Y370228D01*
X849422Y371136D01*
X850073Y372708D01*
X850084Y372752D01*
X850103Y372794D01*
X850112Y372871D01*
X850130Y372947D01*
X850125Y372993D01*
X850130Y373038D01*
X850114Y373115D01*
X850106Y373192D01*
X850088Y373234D01*
X850078Y373279D01*
X850038Y373346D01*
X850006Y373417D01*
X849975Y373451D01*
X849952Y373490D01*
X849893Y373540D01*
X849840Y373598D01*
X849800Y373620D01*
X849765Y373650D01*
X849693Y373679D01*
X849625Y373716D01*
X849579Y373725D01*
X849537Y373742D01*
X849401Y373757D01*
X849382Y373760D01*
X849378Y373759D01*
X849370Y373760D01*
X583151Y373760D01*
X580547Y376364D01*
X539404Y417507D01*
X539330Y417560D01*
X539261Y417620D01*
X539231Y417632D01*
X539205Y417651D01*
X539118Y417678D01*
X539033Y417712D01*
X538992Y417716D01*
X538970Y417723D01*
X538937Y417722D01*
X538866Y417730D01*
X537958Y417730D01*
X535821Y418616D01*
X534186Y420251D01*
X533300Y422388D01*
X533300Y424702D01*
X534186Y426839D01*
X534827Y427481D01*
X534880Y427555D01*
X534940Y427624D01*
X534952Y427654D01*
X534971Y427680D01*
X534998Y427767D01*
X535032Y427852D01*
X535036Y427893D01*
X535043Y427915D01*
X535042Y427948D01*
X535050Y428019D01*
X535050Y499524D01*
X536224Y500698D01*
X536277Y500772D01*
X536337Y500841D01*
X536349Y500871D01*
X536368Y500897D01*
X536395Y500984D01*
X536429Y501069D01*
X536433Y501110D01*
X536440Y501133D01*
X536439Y501165D01*
X536447Y501236D01*
X536447Y502938D01*
X537433Y505319D01*
X539256Y507142D01*
X541637Y508128D01*
X544213Y508128D01*
X546594Y507142D01*
X548417Y505319D01*
X549403Y502938D01*
X549403Y500362D01*
X548417Y497981D01*
X546594Y496158D01*
X544213Y495172D01*
X543941Y495172D01*
X543921Y495169D01*
X543902Y495171D01*
X543800Y495149D01*
X543698Y495133D01*
X543681Y495123D01*
X543661Y495119D01*
X543572Y495066D01*
X543481Y495017D01*
X543467Y495003D01*
X543450Y494993D01*
X543383Y494914D01*
X543311Y494839D01*
X543303Y494821D01*
X543290Y494806D01*
X543251Y494710D01*
X543208Y494616D01*
X543206Y494596D01*
X543198Y494578D01*
X543180Y494411D01*
X543180Y428019D01*
X543194Y427929D01*
X543202Y427838D01*
X543214Y427808D01*
X543219Y427776D01*
X543262Y427695D01*
X543298Y427612D01*
X543324Y427579D01*
X543335Y427559D01*
X543358Y427537D01*
X543403Y427481D01*
X544044Y426839D01*
X544930Y424702D01*
X544930Y423794D01*
X544944Y423704D01*
X544952Y423613D01*
X544964Y423583D01*
X544969Y423551D01*
X545012Y423471D01*
X545048Y423387D01*
X545074Y423355D01*
X545085Y423334D01*
X545108Y423312D01*
X545153Y423256D01*
X586296Y382113D01*
X586370Y382060D01*
X586439Y382000D01*
X586469Y381988D01*
X586495Y381969D01*
X586582Y381942D01*
X586667Y381908D01*
X586708Y381904D01*
X586731Y381897D01*
X586763Y381898D01*
X586834Y381890D01*
X612554Y381890D01*
X612625Y381901D01*
X612697Y381903D01*
X612745Y381921D01*
X612797Y381929D01*
X612860Y381963D01*
X612928Y381988D01*
X612968Y382020D01*
X613014Y382045D01*
X613064Y382097D01*
X613120Y382141D01*
X613148Y382185D01*
X613184Y382223D01*
X613214Y382288D01*
X613253Y382348D01*
X613265Y382399D01*
X613287Y382446D01*
X613295Y382517D01*
X613313Y382587D01*
X613309Y382639D01*
X613314Y382690D01*
X613299Y382761D01*
X613293Y382832D01*
X613273Y382880D01*
X613262Y382931D01*
X613225Y382992D01*
X613197Y383058D01*
X613152Y383114D01*
X613136Y383142D01*
X613118Y383157D01*
X613092Y383189D01*
X574583Y421698D01*
X574509Y421751D01*
X574440Y421811D01*
X574410Y421823D01*
X574384Y421842D01*
X574297Y421869D01*
X574212Y421903D01*
X574171Y421907D01*
X574148Y421914D01*
X574116Y421913D01*
X574045Y421921D01*
X573137Y421921D01*
X571000Y422807D01*
X569365Y424442D01*
X568479Y426579D01*
X568479Y428893D01*
X568901Y429912D01*
X568909Y429945D01*
X568910Y429948D01*
X568911Y429952D01*
X568916Y429975D01*
X568941Y430036D01*
X568950Y430119D01*
X568957Y430151D01*
X568956Y430170D01*
X568959Y430203D01*
X568959Y499778D01*
X569879Y500698D01*
X569932Y500772D01*
X569992Y500841D01*
X570004Y500871D01*
X570023Y500897D01*
X570050Y500984D01*
X570084Y501069D01*
X570088Y501110D01*
X570095Y501132D01*
X570094Y501165D01*
X570102Y501236D01*
X570102Y502938D01*
X571088Y505319D01*
X572911Y507142D01*
X575292Y508128D01*
X577868Y508128D01*
X580249Y507142D01*
X582072Y505319D01*
X583058Y502938D01*
X583058Y500362D01*
X582072Y497981D01*
X580249Y496158D01*
X577868Y495172D01*
X577850Y495172D01*
X577830Y495169D01*
X577811Y495171D01*
X577709Y495149D01*
X577607Y495133D01*
X577590Y495123D01*
X577570Y495119D01*
X577481Y495066D01*
X577390Y495017D01*
X577376Y495003D01*
X577359Y494993D01*
X577292Y494914D01*
X577220Y494839D01*
X577212Y494821D01*
X577199Y494806D01*
X577160Y494710D01*
X577117Y494616D01*
X577115Y494596D01*
X577107Y494578D01*
X577089Y494411D01*
X577089Y433381D01*
X577108Y433266D01*
X577125Y433150D01*
X577127Y433144D01*
X577128Y433138D01*
X577183Y433035D01*
X577236Y432931D01*
X577241Y432926D01*
X577244Y432921D01*
X577328Y432840D01*
X577412Y432758D01*
X577418Y432755D01*
X577422Y432751D01*
X577439Y432744D01*
X577559Y432678D01*
X577588Y432666D01*
X579223Y431030D01*
X580109Y428893D01*
X580109Y427985D01*
X580123Y427895D01*
X580131Y427804D01*
X580143Y427774D01*
X580148Y427742D01*
X580191Y427662D01*
X580227Y427578D01*
X580253Y427546D01*
X580264Y427525D01*
X580287Y427503D01*
X580332Y427447D01*
X618300Y389479D01*
X618374Y389426D01*
X618443Y389366D01*
X618473Y389354D01*
X618499Y389335D01*
X618586Y389308D01*
X618671Y389274D01*
X618712Y389270D01*
X618735Y389263D01*
X618767Y389264D01*
X618838Y389256D01*
X643669Y389256D01*
X643740Y389267D01*
X643812Y389269D01*
X643860Y389287D01*
X643912Y389295D01*
X643975Y389329D01*
X644043Y389354D01*
X644083Y389386D01*
X644129Y389411D01*
X644179Y389463D01*
X644235Y389507D01*
X644263Y389551D01*
X644299Y389589D01*
X644329Y389654D01*
X644368Y389714D01*
X644380Y389765D01*
X644402Y389812D01*
X644410Y389883D01*
X644428Y389953D01*
X644424Y390005D01*
X644429Y390056D01*
X644414Y390127D01*
X644408Y390198D01*
X644388Y390246D01*
X644377Y390297D01*
X644340Y390358D01*
X644312Y390424D01*
X644267Y390480D01*
X644251Y390508D01*
X644233Y390523D01*
X644207Y390555D01*
X590168Y444594D01*
X590168Y487332D01*
X603534Y500698D01*
X603587Y500772D01*
X603647Y500841D01*
X603659Y500871D01*
X603678Y500897D01*
X603705Y500984D01*
X603739Y501069D01*
X603743Y501110D01*
X603750Y501133D01*
X603749Y501165D01*
X603757Y501236D01*
X603757Y502938D01*
X604743Y505319D01*
X606566Y507142D01*
X608947Y508128D01*
X611523Y508128D01*
X613904Y507142D01*
X615727Y505319D01*
X616713Y502938D01*
X616713Y500362D01*
X615727Y497981D01*
X613904Y496158D01*
X611523Y495172D01*
X609821Y495172D01*
X609731Y495158D01*
X609640Y495150D01*
X609610Y495138D01*
X609578Y495133D01*
X609498Y495090D01*
X609414Y495054D01*
X609382Y495028D01*
X609361Y495017D01*
X609339Y494994D01*
X609283Y494949D01*
X598521Y484187D01*
X598468Y484113D01*
X598408Y484044D01*
X598396Y484014D01*
X598377Y483988D01*
X598350Y483901D01*
X598316Y483816D01*
X598312Y483775D01*
X598305Y483752D01*
X598306Y483720D01*
X598298Y483649D01*
X598298Y448277D01*
X598312Y448187D01*
X598320Y448096D01*
X598332Y448066D01*
X598337Y448034D01*
X598380Y447954D01*
X598416Y447870D01*
X598442Y447838D01*
X598453Y447817D01*
X598476Y447795D01*
X598521Y447739D01*
X649415Y396845D01*
X649489Y396792D01*
X649558Y396732D01*
X649588Y396720D01*
X649614Y396701D01*
X649701Y396674D01*
X649786Y396640D01*
X649827Y396636D01*
X649850Y396629D01*
X649882Y396630D01*
X649953Y396622D01*
X661957Y396622D01*
X662028Y396633D01*
X662100Y396635D01*
X662148Y396653D01*
X662200Y396661D01*
X662263Y396695D01*
X662331Y396720D01*
X662371Y396752D01*
X662417Y396777D01*
X662467Y396829D01*
X662523Y396873D01*
X662551Y396917D01*
X662587Y396955D01*
X662617Y397020D01*
X662656Y397080D01*
X662668Y397131D01*
X662690Y397178D01*
X662698Y397249D01*
X662716Y397319D01*
X662712Y397371D01*
X662717Y397422D01*
X662702Y397493D01*
X662696Y397564D01*
X662676Y397612D01*
X662665Y397663D01*
X662628Y397724D01*
X662600Y397790D01*
X662555Y397846D01*
X662539Y397874D01*
X662521Y397889D01*
X662495Y397921D01*
X618807Y441609D01*
X616203Y444213D01*
X616203Y478442D01*
X638459Y500698D01*
X638512Y500772D01*
X638572Y500841D01*
X638584Y500871D01*
X638603Y500897D01*
X638630Y500984D01*
X638664Y501069D01*
X638668Y501110D01*
X638675Y501133D01*
X638674Y501165D01*
X638682Y501236D01*
X638682Y502938D01*
X639668Y505319D01*
X641491Y507142D01*
X643872Y508128D01*
X646448Y508128D01*
X648829Y507142D01*
X650652Y505319D01*
X651638Y502938D01*
X651638Y500362D01*
X650652Y497981D01*
X648829Y496158D01*
X646448Y495172D01*
X644746Y495172D01*
X644656Y495158D01*
X644565Y495150D01*
X644535Y495138D01*
X644503Y495133D01*
X644423Y495090D01*
X644339Y495054D01*
X644307Y495028D01*
X644286Y495017D01*
X644264Y494994D01*
X644208Y494949D01*
X624556Y475297D01*
X624503Y475223D01*
X624443Y475154D01*
X624431Y475124D01*
X624412Y475098D01*
X624385Y475011D01*
X624351Y474926D01*
X624347Y474885D01*
X624340Y474862D01*
X624341Y474830D01*
X624333Y474759D01*
X624333Y447896D01*
X624347Y447806D01*
X624355Y447715D01*
X624367Y447685D01*
X624372Y447653D01*
X624415Y447573D01*
X624451Y447489D01*
X624477Y447456D01*
X624488Y447436D01*
X624511Y447414D01*
X624556Y447358D01*
X667703Y404211D01*
X667777Y404158D01*
X667846Y404098D01*
X667876Y404086D01*
X667902Y404067D01*
X667989Y404040D01*
X668074Y404006D01*
X668115Y404002D01*
X668138Y403995D01*
X668170Y403996D01*
X668241Y403988D01*
X710344Y403988D01*
X710415Y403999D01*
X710487Y404001D01*
X710535Y404019D01*
X710587Y404027D01*
X710650Y404061D01*
X710718Y404086D01*
X710758Y404118D01*
X710804Y404143D01*
X710854Y404195D01*
X710910Y404239D01*
X710938Y404283D01*
X710974Y404321D01*
X711004Y404386D01*
X711043Y404446D01*
X711055Y404497D01*
X711077Y404544D01*
X711085Y404615D01*
X711103Y404685D01*
X711099Y404737D01*
X711104Y404788D01*
X711089Y404859D01*
X711083Y404930D01*
X711063Y404978D01*
X711052Y405029D01*
X711015Y405090D01*
X710987Y405156D01*
X710942Y405212D01*
X710926Y405240D01*
X710908Y405255D01*
X710882Y405287D01*
X681418Y434751D01*
X678814Y437355D01*
X678814Y499778D01*
X679734Y500698D01*
X679787Y500772D01*
X679847Y500841D01*
X679859Y500871D01*
X679878Y500897D01*
X679905Y500984D01*
X679939Y501069D01*
X679943Y501110D01*
X679950Y501132D01*
X679949Y501165D01*
X679957Y501236D01*
X679957Y502938D01*
X680943Y505319D01*
X682766Y507142D01*
X685147Y508128D01*
X687723Y508128D01*
X690104Y507142D01*
X691927Y505319D01*
X692913Y502938D01*
X692913Y500362D01*
X691927Y497981D01*
X690104Y496158D01*
X687723Y495172D01*
X687705Y495172D01*
X687685Y495169D01*
X687666Y495171D01*
X687564Y495149D01*
X687462Y495133D01*
X687445Y495123D01*
X687425Y495119D01*
X687336Y495066D01*
X687245Y495017D01*
X687231Y495003D01*
X687214Y494993D01*
X687147Y494914D01*
X687075Y494839D01*
X687067Y494821D01*
X687054Y494806D01*
X687015Y494710D01*
X686972Y494616D01*
X686970Y494596D01*
X686962Y494578D01*
X686944Y494411D01*
X686944Y441038D01*
X686958Y440948D01*
X686966Y440857D01*
X686978Y440827D01*
X686983Y440795D01*
X687026Y440715D01*
X687062Y440631D01*
X687088Y440599D01*
X687099Y440578D01*
X687122Y440556D01*
X687167Y440500D01*
X714312Y413355D01*
X714386Y413302D01*
X714455Y413242D01*
X714485Y413230D01*
X714511Y413211D01*
X714598Y413184D01*
X714683Y413150D01*
X714724Y413146D01*
X714747Y413139D01*
X714779Y413140D01*
X714850Y413132D01*
X850067Y413132D01*
X850112Y413139D01*
X850158Y413137D01*
X850233Y413159D01*
X850310Y413171D01*
X850350Y413193D01*
X850395Y413206D01*
X850459Y413250D01*
X850527Y413287D01*
X850559Y413320D01*
X850597Y413346D01*
X850643Y413409D01*
X850697Y413465D01*
X850716Y413507D01*
X850743Y413543D01*
X850767Y413617D01*
X850800Y413688D01*
X850805Y413734D01*
X850820Y413777D01*
X850819Y413855D01*
X850827Y413932D01*
X850818Y413977D01*
X850817Y414023D01*
X850779Y414155D01*
X850775Y414173D01*
X850773Y414177D01*
X850770Y414184D01*
X850119Y415756D01*
X850119Y418070D01*
X851005Y420207D01*
X851646Y420849D01*
X851699Y420923D01*
X851759Y420992D01*
X851771Y421022D01*
X851790Y421048D01*
X851817Y421135D01*
X851851Y421220D01*
X851855Y421261D01*
X851862Y421283D01*
X851861Y421316D01*
X851869Y421387D01*
X851869Y475567D01*
X851855Y475657D01*
X851847Y475748D01*
X851835Y475778D01*
X851830Y475810D01*
X851787Y475890D01*
X851751Y475974D01*
X851725Y476006D01*
X851714Y476027D01*
X851691Y476049D01*
X851646Y476105D01*
X841849Y485902D01*
X841775Y485955D01*
X841706Y486015D01*
X841676Y486027D01*
X841650Y486046D01*
X841563Y486073D01*
X841478Y486107D01*
X841437Y486111D01*
X841414Y486118D01*
X841382Y486117D01*
X841311Y486125D01*
X754616Y486125D01*
X743379Y497362D01*
X743305Y497415D01*
X743236Y497475D01*
X743206Y497487D01*
X743179Y497506D01*
X743093Y497533D01*
X743008Y497567D01*
X742967Y497571D01*
X742944Y497578D01*
X742912Y497577D01*
X742841Y497585D01*
X728041Y497585D01*
X727951Y497571D01*
X727860Y497563D01*
X727831Y497551D01*
X727799Y497546D01*
X727718Y497503D01*
X727634Y497467D01*
X727602Y497441D01*
X727581Y497430D01*
X727559Y497407D01*
X727503Y497362D01*
X726299Y496158D01*
X723918Y495172D01*
X721342Y495172D01*
X718961Y496158D01*
X717138Y497981D01*
X716152Y500362D01*
X716152Y502938D01*
X717138Y505319D01*
X718961Y507142D01*
X721342Y508128D01*
X723918Y508128D01*
X726299Y507142D01*
X727503Y505938D01*
X727577Y505885D01*
X727647Y505825D01*
X727677Y505813D01*
X727703Y505794D01*
X727790Y505767D01*
X727875Y505733D01*
X727916Y505729D01*
X727938Y505722D01*
X727970Y505723D01*
X728041Y505715D01*
X746524Y505715D01*
X751048Y501191D01*
X751106Y501149D01*
X751158Y501099D01*
X751205Y501077D01*
X751247Y501047D01*
X751316Y501026D01*
X751381Y500996D01*
X751433Y500990D01*
X751483Y500975D01*
X751554Y500977D01*
X751625Y500969D01*
X751676Y500980D01*
X751728Y500981D01*
X751796Y501006D01*
X751866Y501021D01*
X751911Y501048D01*
X751959Y501065D01*
X752015Y501110D01*
X752077Y501147D01*
X752111Y501187D01*
X752151Y501219D01*
X752190Y501279D01*
X752237Y501334D01*
X752256Y501382D01*
X752284Y501426D01*
X752302Y501496D01*
X752329Y501562D01*
X752337Y501633D01*
X752345Y501665D01*
X752343Y501688D01*
X752347Y501729D01*
X752347Y502938D01*
X753333Y505319D01*
X755156Y507142D01*
X757537Y508128D01*
X760113Y508128D01*
X762494Y507142D01*
X764317Y505319D01*
X765303Y502938D01*
X765303Y501112D01*
X765306Y501092D01*
X765304Y501073D01*
X765326Y500971D01*
X765342Y500869D01*
X765352Y500852D01*
X765356Y500832D01*
X765409Y500743D01*
X765458Y500652D01*
X765472Y500638D01*
X765482Y500621D01*
X765561Y500554D01*
X765636Y500482D01*
X765654Y500474D01*
X765669Y500461D01*
X765765Y500422D01*
X765859Y500379D01*
X765879Y500377D01*
X765897Y500369D01*
X766064Y500351D01*
X846426Y500351D01*
X846516Y500365D01*
X846607Y500373D01*
X846637Y500385D01*
X846669Y500390D01*
X846750Y500433D01*
X846833Y500469D01*
X846866Y500495D01*
X846886Y500506D01*
X846908Y500529D01*
X846964Y500574D01*
X847606Y501215D01*
X849743Y502101D01*
X852057Y502101D01*
X854194Y501215D01*
X855829Y499580D01*
X856715Y497443D01*
X856715Y495129D01*
X855829Y492992D01*
X854194Y491357D01*
X852057Y490471D01*
X850615Y490471D01*
X850544Y490460D01*
X850472Y490458D01*
X850424Y490440D01*
X850372Y490432D01*
X850309Y490398D01*
X850241Y490373D01*
X850201Y490341D01*
X850155Y490316D01*
X850105Y490264D01*
X850049Y490220D01*
X850021Y490176D01*
X849985Y490138D01*
X849955Y490073D01*
X849916Y490013D01*
X849904Y489962D01*
X849882Y489915D01*
X849874Y489844D01*
X849856Y489774D01*
X849860Y489722D01*
X849855Y489671D01*
X849870Y489600D01*
X849876Y489529D01*
X849896Y489481D01*
X849907Y489430D01*
X849944Y489369D01*
X849972Y489303D01*
X850017Y489247D01*
X850033Y489219D01*
X850051Y489204D01*
X850077Y489172D01*
X859999Y479250D01*
X859999Y421387D01*
X860013Y421297D01*
X860021Y421206D01*
X860033Y421176D01*
X860038Y421144D01*
X860081Y421063D01*
X860117Y420980D01*
X860143Y420947D01*
X860154Y420927D01*
X860177Y420905D01*
X860222Y420849D01*
X860863Y420207D01*
X861749Y418070D01*
X861749Y415756D01*
X861098Y414184D01*
X861087Y414140D01*
X861068Y414098D01*
X861059Y414021D01*
X861041Y413945D01*
X861046Y413899D01*
X861041Y413854D01*
X861057Y413777D01*
X861064Y413700D01*
X861083Y413658D01*
X861093Y413613D01*
X861133Y413546D01*
X861164Y413475D01*
X861196Y413441D01*
X861219Y413402D01*
X861278Y413351D01*
X861331Y413294D01*
X861371Y413272D01*
X861406Y413242D01*
X861478Y413213D01*
X861546Y413176D01*
X861592Y413167D01*
X861634Y413150D01*
X861770Y413135D01*
X861788Y413132D01*
X861793Y413133D01*
X861801Y413132D01*
X888258Y413132D01*
X904403Y396987D01*
X905694Y395696D01*
X905752Y395655D01*
X905804Y395605D01*
X905851Y395583D01*
X905893Y395553D01*
X905962Y395532D01*
X906027Y395502D01*
X906079Y395496D01*
X906129Y395481D01*
X906200Y395482D01*
X906271Y395474D01*
X906322Y395486D01*
X906374Y395487D01*
X906442Y395512D01*
X906512Y395527D01*
X906556Y395553D01*
X906605Y395571D01*
X906661Y395616D01*
X906723Y395653D01*
X906757Y395692D01*
X906797Y395725D01*
X906836Y395785D01*
X906883Y395840D01*
X906902Y395888D01*
X906930Y395932D01*
X906948Y396001D01*
X906975Y396068D01*
X906983Y396139D01*
X906991Y396170D01*
X906989Y396194D01*
X906993Y396235D01*
X906993Y417903D01*
X906978Y417993D01*
X906971Y418084D01*
X906959Y418114D01*
X906953Y418146D01*
X906911Y418226D01*
X906875Y418310D01*
X906849Y418342D01*
X906838Y418363D01*
X906815Y418385D01*
X906770Y418441D01*
X873505Y451706D01*
X873505Y518701D01*
X873491Y518791D01*
X873483Y518882D01*
X873471Y518912D01*
X873466Y518944D01*
X873423Y519024D01*
X873387Y519108D01*
X873361Y519140D01*
X873350Y519161D01*
X873327Y519183D01*
X873282Y519239D01*
X846518Y546003D01*
X846444Y546056D01*
X846375Y546116D01*
X846345Y546128D01*
X846319Y546147D01*
X846232Y546174D01*
X846147Y546208D01*
X846106Y546212D01*
X846083Y546219D01*
X846051Y546218D01*
X845980Y546226D01*
X756792Y546226D01*
X739870Y563148D01*
X739796Y563201D01*
X739726Y563261D01*
X739696Y563273D01*
X739670Y563292D01*
X739583Y563319D01*
X739498Y563353D01*
X739457Y563357D01*
X739435Y563364D01*
X739403Y563363D01*
X739331Y563371D01*
X720632Y563371D01*
X720587Y563364D01*
X720541Y563366D01*
X720466Y563344D01*
X720389Y563332D01*
X720349Y563310D01*
X720305Y563297D01*
X720241Y563253D01*
X720172Y563216D01*
X720140Y563183D01*
X720103Y563157D01*
X720056Y563095D01*
X720003Y563038D01*
X719983Y562996D01*
X719956Y562960D01*
X719932Y562886D01*
X719899Y562815D01*
X719894Y562769D01*
X719880Y562726D01*
X719881Y562648D01*
X719872Y562571D01*
X719882Y562526D01*
X719882Y562480D01*
X719920Y562348D01*
X719924Y562330D01*
X719927Y562326D01*
X719929Y562319D01*
X720853Y560088D01*
X720853Y558386D01*
X720867Y558296D01*
X720875Y558205D01*
X720887Y558175D01*
X720892Y558143D01*
X720935Y558063D01*
X720971Y557979D01*
X720997Y557947D01*
X721008Y557926D01*
X721031Y557904D01*
X721076Y557848D01*
X726786Y552138D01*
X726860Y552085D01*
X726929Y552025D01*
X726959Y552013D01*
X726985Y551994D01*
X727072Y551967D01*
X727157Y551933D01*
X727198Y551929D01*
X727221Y551922D01*
X727253Y551923D01*
X727324Y551915D01*
X728232Y551915D01*
X730369Y551029D01*
X732004Y549394D01*
X732890Y547257D01*
X732890Y544943D01*
X732004Y542806D01*
X730369Y541171D01*
X728232Y540285D01*
X725918Y540285D01*
X723781Y541171D01*
X722146Y542806D01*
X721260Y544943D01*
X721260Y545851D01*
X721246Y545941D01*
X721238Y546032D01*
X721226Y546062D01*
X721221Y546094D01*
X721196Y546141D01*
X721195Y546143D01*
X721190Y546151D01*
X721178Y546174D01*
X721142Y546258D01*
X721116Y546290D01*
X721105Y546311D01*
X721082Y546333D01*
X721079Y546338D01*
X721069Y546354D01*
X721059Y546363D01*
X721037Y546389D01*
X715327Y552099D01*
X715253Y552152D01*
X715184Y552212D01*
X715154Y552224D01*
X715128Y552243D01*
X715041Y552270D01*
X714956Y552304D01*
X714915Y552308D01*
X714893Y552315D01*
X714860Y552314D01*
X714789Y552322D01*
X713087Y552322D01*
X710706Y553308D01*
X708883Y555131D01*
X707897Y557512D01*
X707897Y560088D01*
X708821Y562319D01*
X708832Y562363D01*
X708851Y562405D01*
X708859Y562482D01*
X708877Y562558D01*
X708873Y562604D01*
X708878Y562649D01*
X708861Y562726D01*
X708854Y562803D01*
X708835Y562845D01*
X708826Y562890D01*
X708786Y562957D01*
X708754Y563028D01*
X708723Y563062D01*
X708700Y563101D01*
X708640Y563152D01*
X708588Y563209D01*
X708548Y563231D01*
X708513Y563261D01*
X708440Y563290D01*
X708372Y563327D01*
X708327Y563336D01*
X708284Y563353D01*
X708149Y563368D01*
X708130Y563371D01*
X708125Y563370D01*
X708118Y563371D01*
X682532Y563371D01*
X682487Y563364D01*
X682441Y563366D01*
X682366Y563344D01*
X682289Y563332D01*
X682249Y563310D01*
X682205Y563297D01*
X682141Y563253D01*
X682072Y563216D01*
X682040Y563183D01*
X682003Y563157D01*
X681956Y563095D01*
X681903Y563038D01*
X681883Y562996D01*
X681856Y562960D01*
X681832Y562886D01*
X681799Y562815D01*
X681794Y562769D01*
X681780Y562726D01*
X681781Y562648D01*
X681772Y562571D01*
X681782Y562526D01*
X681782Y562480D01*
X681820Y562348D01*
X681824Y562330D01*
X681827Y562326D01*
X681829Y562319D01*
X682753Y560088D01*
X682753Y557512D01*
X681767Y555131D01*
X679944Y553308D01*
X677563Y552322D01*
X674987Y552322D01*
X672606Y553308D01*
X670783Y555131D01*
X669797Y557512D01*
X669797Y560088D01*
X670721Y562319D01*
X670732Y562363D01*
X670751Y562405D01*
X670759Y562482D01*
X670777Y562558D01*
X670773Y562604D01*
X670778Y562649D01*
X670761Y562726D01*
X670754Y562803D01*
X670735Y562845D01*
X670726Y562890D01*
X670686Y562957D01*
X670654Y563028D01*
X670623Y563062D01*
X670600Y563101D01*
X670540Y563152D01*
X670488Y563209D01*
X670448Y563231D01*
X670413Y563261D01*
X670340Y563290D01*
X670272Y563327D01*
X670227Y563336D01*
X670184Y563353D01*
X670049Y563368D01*
X670030Y563371D01*
X670025Y563370D01*
X670018Y563371D01*
X647607Y563371D01*
X647562Y563364D01*
X647516Y563366D01*
X647441Y563344D01*
X647364Y563332D01*
X647324Y563310D01*
X647280Y563297D01*
X647216Y563253D01*
X647147Y563216D01*
X647115Y563183D01*
X647078Y563157D01*
X647031Y563095D01*
X646978Y563038D01*
X646958Y562996D01*
X646931Y562960D01*
X646907Y562886D01*
X646874Y562815D01*
X646869Y562769D01*
X646855Y562726D01*
X646856Y562648D01*
X646847Y562571D01*
X646857Y562526D01*
X646857Y562480D01*
X646895Y562348D01*
X646899Y562330D01*
X646902Y562326D01*
X646904Y562319D01*
X647828Y560088D01*
X647828Y557512D01*
X646842Y555131D01*
X645019Y553308D01*
X642638Y552322D01*
X640062Y552322D01*
X637681Y553308D01*
X635858Y555131D01*
X634872Y557512D01*
X634872Y560088D01*
X635796Y562319D01*
X635807Y562363D01*
X635826Y562405D01*
X635834Y562482D01*
X635852Y562558D01*
X635848Y562604D01*
X635853Y562649D01*
X635836Y562726D01*
X635829Y562803D01*
X635810Y562845D01*
X635801Y562890D01*
X635761Y562957D01*
X635729Y563028D01*
X635698Y563062D01*
X635675Y563101D01*
X635615Y563152D01*
X635563Y563209D01*
X635523Y563231D01*
X635488Y563261D01*
X635415Y563290D01*
X635347Y563327D01*
X635302Y563336D01*
X635259Y563353D01*
X635124Y563368D01*
X635105Y563371D01*
X635100Y563370D01*
X635093Y563371D01*
X609507Y563371D01*
X609462Y563364D01*
X609416Y563366D01*
X609341Y563344D01*
X609264Y563332D01*
X609224Y563310D01*
X609180Y563297D01*
X609116Y563253D01*
X609047Y563216D01*
X609015Y563183D01*
X608978Y563157D01*
X608931Y563095D01*
X608878Y563038D01*
X608858Y562996D01*
X608831Y562960D01*
X608807Y562886D01*
X608774Y562815D01*
X608769Y562769D01*
X608755Y562726D01*
X608756Y562648D01*
X608747Y562571D01*
X608757Y562526D01*
X608757Y562480D01*
X608795Y562348D01*
X608799Y562330D01*
X608802Y562326D01*
X608804Y562319D01*
X609728Y560088D01*
X609728Y557512D01*
X608742Y555131D01*
X606919Y553308D01*
X604538Y552322D01*
X601962Y552322D01*
X599581Y553308D01*
X597758Y555131D01*
X596772Y557512D01*
X596772Y560088D01*
X597696Y562319D01*
X597707Y562363D01*
X597726Y562405D01*
X597734Y562482D01*
X597752Y562558D01*
X597748Y562604D01*
X597753Y562649D01*
X597736Y562726D01*
X597729Y562803D01*
X597710Y562845D01*
X597701Y562890D01*
X597661Y562957D01*
X597629Y563028D01*
X597598Y563062D01*
X597575Y563101D01*
X597515Y563152D01*
X597463Y563209D01*
X597423Y563231D01*
X597388Y563261D01*
X597315Y563290D01*
X597247Y563327D01*
X597202Y563336D01*
X597159Y563353D01*
X597024Y563368D01*
X597005Y563371D01*
X597000Y563370D01*
X596993Y563371D01*
X575785Y563371D01*
X575695Y563357D01*
X575604Y563349D01*
X575574Y563337D01*
X575542Y563332D01*
X575462Y563289D01*
X575378Y563253D01*
X575346Y563227D01*
X575325Y563216D01*
X575303Y563193D01*
X575247Y563148D01*
X571851Y559752D01*
X571798Y559678D01*
X571738Y559609D01*
X571726Y559579D01*
X571707Y559553D01*
X571680Y559466D01*
X571646Y559381D01*
X571642Y559340D01*
X571635Y559317D01*
X571636Y559285D01*
X571628Y559214D01*
X571628Y557512D01*
X570642Y555131D01*
X568819Y553308D01*
X566438Y552322D01*
X563862Y552322D01*
X561481Y553308D01*
X559658Y555131D01*
X558672Y557512D01*
X558672Y560088D01*
X559658Y562469D01*
X561481Y564292D01*
X563862Y565278D01*
X565564Y565278D01*
X565654Y565292D01*
X565745Y565300D01*
X565775Y565312D01*
X565807Y565317D01*
X565887Y565360D01*
X565971Y565396D01*
X566004Y565422D01*
X566024Y565433D01*
X566046Y565456D01*
X566102Y565501D01*
X568769Y568168D01*
X568811Y568226D01*
X568861Y568278D01*
X568883Y568325D01*
X568913Y568367D01*
X568934Y568436D01*
X568964Y568501D01*
X568970Y568553D01*
X568985Y568603D01*
X568983Y568674D01*
X568991Y568745D01*
X568980Y568796D01*
X568979Y568848D01*
X568954Y568916D01*
X568939Y568986D01*
X568912Y569031D01*
X568894Y569079D01*
X568850Y569135D01*
X568813Y569197D01*
X568773Y569231D01*
X568741Y569271D01*
X568680Y569310D01*
X568626Y569357D01*
X568578Y569376D01*
X568534Y569404D01*
X568464Y569422D01*
X568398Y569449D01*
X568326Y569457D01*
X568295Y569465D01*
X568272Y569463D01*
X568231Y569467D01*
X38100Y569467D01*
X38078Y569464D01*
X38040Y569465D01*
X36292Y569327D01*
X36286Y569326D01*
X36281Y569326D01*
X36116Y569292D01*
X32791Y568212D01*
X32759Y568195D01*
X32725Y568187D01*
X32579Y568104D01*
X29750Y566049D01*
X29725Y566023D01*
X29694Y566004D01*
X29581Y565880D01*
X27526Y563051D01*
X27522Y563044D01*
X27517Y563038D01*
X27506Y563015D01*
X27487Y562992D01*
X27418Y562839D01*
X26338Y559514D01*
X26337Y559508D01*
X26334Y559503D01*
X26303Y559338D01*
X26165Y557590D01*
X26167Y557568D01*
X26163Y557530D01*
X26163Y58420D01*
X26166Y58398D01*
X26165Y58360D01*
X26303Y56612D01*
X26304Y56606D01*
X26304Y56601D01*
X26338Y56436D01*
X27418Y53111D01*
X27435Y53079D01*
X27443Y53045D01*
X27526Y52899D01*
X29581Y50070D01*
X29607Y50045D01*
X29626Y50014D01*
X29750Y49901D01*
X32579Y47846D01*
X32611Y47830D01*
X32638Y47807D01*
X32791Y47738D01*
X36116Y46658D01*
X36122Y46657D01*
X36127Y46654D01*
X36292Y46623D01*
X38040Y46485D01*
X38062Y46487D01*
X38100Y46483D01*
X153105Y46483D01*
X153150Y46490D01*
G37*
%LPC*%
G36*
X616348Y165635D02*
X616348Y165635D01*
X614211Y166521D01*
X612807Y167924D01*
X612733Y167977D01*
X612664Y168037D01*
X612634Y168049D01*
X612608Y168068D01*
X612521Y168095D01*
X612436Y168129D01*
X612395Y168133D01*
X612373Y168140D01*
X612340Y168139D01*
X612269Y168147D01*
X523297Y168147D01*
X523207Y168133D01*
X523116Y168125D01*
X523086Y168113D01*
X523054Y168108D01*
X522973Y168065D01*
X522890Y168029D01*
X522857Y168003D01*
X522837Y167992D01*
X522815Y167969D01*
X522759Y167924D01*
X522625Y167791D01*
X520488Y166905D01*
X518174Y166905D01*
X516037Y167791D01*
X514402Y169426D01*
X513516Y171563D01*
X513516Y173877D01*
X514389Y175985D01*
X514400Y176029D01*
X514419Y176071D01*
X514428Y176148D01*
X514446Y176224D01*
X514441Y176270D01*
X514446Y176315D01*
X514430Y176392D01*
X514423Y176469D01*
X514404Y176511D01*
X514394Y176556D01*
X514354Y176623D01*
X514323Y176694D01*
X514291Y176728D01*
X514268Y176767D01*
X514209Y176818D01*
X514156Y176875D01*
X514116Y176897D01*
X514081Y176927D01*
X514009Y176956D01*
X513941Y176993D01*
X513895Y177002D01*
X513853Y177019D01*
X513717Y177034D01*
X513699Y177037D01*
X513694Y177036D01*
X513686Y177037D01*
X471326Y177037D01*
X471236Y177023D01*
X471145Y177015D01*
X471115Y177003D01*
X471083Y176998D01*
X471002Y176955D01*
X470919Y176919D01*
X470886Y176893D01*
X470866Y176882D01*
X470844Y176859D01*
X470788Y176814D01*
X470654Y176681D01*
X468517Y175795D01*
X466203Y175795D01*
X464066Y176681D01*
X462431Y178316D01*
X461545Y180453D01*
X461545Y182767D01*
X462431Y184904D01*
X464066Y186539D01*
X466203Y187425D01*
X468517Y187425D01*
X470654Y186539D01*
X470788Y186406D01*
X470862Y186353D01*
X470931Y186293D01*
X470961Y186281D01*
X470987Y186262D01*
X471074Y186235D01*
X471159Y186201D01*
X471200Y186197D01*
X471222Y186190D01*
X471255Y186191D01*
X471326Y186183D01*
X475586Y186183D01*
X475657Y186194D01*
X475729Y186196D01*
X475778Y186214D01*
X475829Y186222D01*
X475892Y186256D01*
X475960Y186281D01*
X476000Y186313D01*
X476046Y186338D01*
X476096Y186390D01*
X476152Y186434D01*
X476180Y186478D01*
X476216Y186516D01*
X476246Y186581D01*
X476285Y186641D01*
X476297Y186692D01*
X476319Y186739D01*
X476327Y186810D01*
X476345Y186880D01*
X476341Y186932D01*
X476346Y186983D01*
X476331Y187054D01*
X476326Y187125D01*
X476305Y187173D01*
X476294Y187224D01*
X476257Y187285D01*
X476229Y187351D01*
X476184Y187407D01*
X476168Y187435D01*
X476150Y187450D01*
X476124Y187482D01*
X475131Y188476D01*
X474245Y190613D01*
X474245Y192927D01*
X475131Y195064D01*
X476766Y196699D01*
X478903Y197585D01*
X479093Y197585D01*
X479183Y197599D01*
X479274Y197607D01*
X479303Y197619D01*
X479335Y197624D01*
X479416Y197667D01*
X479500Y197703D01*
X479532Y197729D01*
X479553Y197740D01*
X479575Y197763D01*
X479631Y197808D01*
X507376Y225553D01*
X508483Y225553D01*
X508528Y225560D01*
X508574Y225558D01*
X508649Y225580D01*
X508726Y225592D01*
X508766Y225614D01*
X508811Y225627D01*
X508875Y225671D01*
X508943Y225708D01*
X508975Y225741D01*
X509013Y225767D01*
X509059Y225830D01*
X509113Y225886D01*
X509132Y225928D01*
X509159Y225964D01*
X509183Y226038D01*
X509216Y226109D01*
X509221Y226155D01*
X509236Y226198D01*
X509235Y226276D01*
X509243Y226353D01*
X509234Y226398D01*
X509233Y226444D01*
X509195Y226576D01*
X509191Y226594D01*
X509189Y226598D01*
X509186Y226605D01*
X508535Y228177D01*
X508535Y230491D01*
X509421Y232628D01*
X511056Y234263D01*
X513193Y235149D01*
X513383Y235149D01*
X513473Y235163D01*
X513564Y235171D01*
X513593Y235183D01*
X513625Y235188D01*
X513706Y235231D01*
X513790Y235267D01*
X513822Y235293D01*
X513843Y235304D01*
X513865Y235327D01*
X513921Y235372D01*
X538764Y260215D01*
X538817Y260289D01*
X538877Y260359D01*
X538889Y260389D01*
X538908Y260415D01*
X538935Y260502D01*
X538969Y260587D01*
X538973Y260628D01*
X538980Y260650D01*
X538979Y260682D01*
X538987Y260753D01*
X538987Y358127D01*
X538973Y358217D01*
X538965Y358308D01*
X538953Y358338D01*
X538948Y358370D01*
X538905Y358450D01*
X538869Y358534D01*
X538843Y358566D01*
X538832Y358587D01*
X538809Y358609D01*
X538764Y358665D01*
X509777Y387652D01*
X509777Y427490D01*
X509763Y427580D01*
X509755Y427671D01*
X509743Y427701D01*
X509738Y427733D01*
X509695Y427814D01*
X509659Y427898D01*
X509633Y427930D01*
X509622Y427950D01*
X509599Y427973D01*
X509554Y428029D01*
X509421Y428162D01*
X508535Y430300D01*
X508535Y431207D01*
X508521Y431297D01*
X508513Y431388D01*
X508501Y431418D01*
X508496Y431450D01*
X508453Y431531D01*
X508417Y431615D01*
X508391Y431647D01*
X508380Y431667D01*
X508357Y431690D01*
X508312Y431746D01*
X500760Y439298D01*
X500760Y496239D01*
X500746Y496329D01*
X500738Y496420D01*
X500726Y496449D01*
X500721Y496481D01*
X500678Y496562D01*
X500642Y496646D01*
X500616Y496678D01*
X500605Y496699D01*
X500582Y496721D01*
X500537Y496777D01*
X499333Y497981D01*
X498347Y500362D01*
X498347Y502938D01*
X499333Y505319D01*
X501156Y507142D01*
X503537Y508128D01*
X506113Y508128D01*
X508494Y507142D01*
X510317Y505319D01*
X511303Y502938D01*
X511303Y500362D01*
X510317Y497981D01*
X509113Y496777D01*
X509060Y496703D01*
X509000Y496633D01*
X508988Y496603D01*
X508969Y496577D01*
X508942Y496490D01*
X508908Y496405D01*
X508904Y496364D01*
X508897Y496342D01*
X508898Y496310D01*
X508890Y496239D01*
X508890Y442980D01*
X508904Y442890D01*
X508912Y442799D01*
X508924Y442769D01*
X508929Y442737D01*
X508972Y442657D01*
X509008Y442573D01*
X509034Y442541D01*
X509045Y442520D01*
X509068Y442498D01*
X509113Y442442D01*
X514061Y437494D01*
X514135Y437441D01*
X514204Y437381D01*
X514234Y437369D01*
X514260Y437350D01*
X514347Y437324D01*
X514432Y437289D01*
X514473Y437285D01*
X514495Y437278D01*
X514528Y437279D01*
X514599Y437271D01*
X515507Y437271D01*
X517644Y436386D01*
X519279Y434750D01*
X520165Y432613D01*
X520165Y430300D01*
X519279Y428162D01*
X519146Y428029D01*
X519093Y427955D01*
X519033Y427885D01*
X519021Y427855D01*
X519002Y427829D01*
X518975Y427742D01*
X518941Y427657D01*
X518937Y427616D01*
X518930Y427594D01*
X518931Y427562D01*
X518923Y427490D01*
X518923Y391756D01*
X518937Y391666D01*
X518945Y391575D01*
X518957Y391545D01*
X518962Y391513D01*
X519005Y391432D01*
X519041Y391348D01*
X519067Y391316D01*
X519078Y391295D01*
X519101Y391273D01*
X519146Y391217D01*
X548133Y362230D01*
X548133Y256650D01*
X520388Y228905D01*
X520335Y228831D01*
X520275Y228761D01*
X520263Y228731D01*
X520244Y228705D01*
X520217Y228618D01*
X520183Y228533D01*
X520179Y228492D01*
X520172Y228470D01*
X520173Y228438D01*
X520165Y228367D01*
X520165Y228177D01*
X519514Y226605D01*
X519503Y226561D01*
X519484Y226519D01*
X519475Y226442D01*
X519457Y226366D01*
X519462Y226320D01*
X519457Y226275D01*
X519473Y226198D01*
X519480Y226121D01*
X519499Y226079D01*
X519509Y226034D01*
X519549Y225967D01*
X519580Y225896D01*
X519612Y225862D01*
X519635Y225823D01*
X519694Y225772D01*
X519747Y225715D01*
X519787Y225693D01*
X519822Y225663D01*
X519894Y225634D01*
X519962Y225597D01*
X520008Y225588D01*
X520050Y225571D01*
X520186Y225556D01*
X520204Y225553D01*
X520209Y225554D01*
X520217Y225553D01*
X531191Y225553D01*
X531281Y225567D01*
X531372Y225575D01*
X531401Y225587D01*
X531433Y225592D01*
X531514Y225635D01*
X531598Y225671D01*
X531630Y225697D01*
X531651Y225708D01*
X531673Y225731D01*
X531729Y225776D01*
X573054Y267101D01*
X573107Y267175D01*
X573167Y267245D01*
X573179Y267275D01*
X573198Y267301D01*
X573225Y267388D01*
X573259Y267473D01*
X573263Y267514D01*
X573270Y267536D01*
X573269Y267568D01*
X573277Y267639D01*
X573277Y335904D01*
X599752Y362379D01*
X599805Y362453D01*
X599865Y362523D01*
X599877Y362553D01*
X599896Y362579D01*
X599923Y362666D01*
X599957Y362751D01*
X599961Y362792D01*
X599968Y362814D01*
X599967Y362846D01*
X599975Y362917D01*
X599975Y363107D01*
X600861Y365244D01*
X602496Y366879D01*
X604633Y367765D01*
X606947Y367765D01*
X609084Y366879D01*
X610719Y365244D01*
X611605Y363107D01*
X611605Y360793D01*
X610719Y358656D01*
X609084Y357021D01*
X606947Y356135D01*
X606757Y356135D01*
X606667Y356121D01*
X606576Y356113D01*
X606547Y356101D01*
X606515Y356096D01*
X606434Y356053D01*
X606350Y356017D01*
X606318Y355991D01*
X606297Y355980D01*
X606275Y355957D01*
X606219Y355912D01*
X582646Y332339D01*
X582593Y332265D01*
X582533Y332195D01*
X582521Y332165D01*
X582502Y332139D01*
X582475Y332052D01*
X582441Y331967D01*
X582437Y331926D01*
X582430Y331904D01*
X582431Y331872D01*
X582423Y331801D01*
X582423Y263536D01*
X535294Y216407D01*
X511479Y216407D01*
X511389Y216393D01*
X511298Y216385D01*
X511269Y216373D01*
X511237Y216368D01*
X511156Y216325D01*
X511072Y216289D01*
X511040Y216263D01*
X511019Y216252D01*
X510997Y216229D01*
X510941Y216184D01*
X486098Y191341D01*
X486045Y191267D01*
X485985Y191197D01*
X485973Y191167D01*
X485954Y191141D01*
X485927Y191054D01*
X485893Y190969D01*
X485889Y190928D01*
X485882Y190906D01*
X485883Y190874D01*
X485875Y190803D01*
X485875Y190613D01*
X484989Y188476D01*
X483996Y187482D01*
X483954Y187424D01*
X483904Y187372D01*
X483882Y187325D01*
X483852Y187283D01*
X483831Y187214D01*
X483801Y187149D01*
X483795Y187097D01*
X483780Y187047D01*
X483782Y186976D01*
X483774Y186905D01*
X483785Y186854D01*
X483786Y186802D01*
X483811Y186734D01*
X483826Y186664D01*
X483853Y186619D01*
X483870Y186571D01*
X483915Y186515D01*
X483952Y186453D01*
X483992Y186419D01*
X484024Y186379D01*
X484084Y186340D01*
X484139Y186293D01*
X484187Y186274D01*
X484231Y186246D01*
X484301Y186228D01*
X484367Y186201D01*
X484438Y186193D01*
X484470Y186185D01*
X484493Y186187D01*
X484534Y186183D01*
X513411Y186183D01*
X513501Y186197D01*
X513592Y186205D01*
X513621Y186217D01*
X513653Y186222D01*
X513734Y186265D01*
X513818Y186301D01*
X513850Y186327D01*
X513871Y186338D01*
X513893Y186361D01*
X513949Y186406D01*
X576892Y249349D01*
X576945Y249423D01*
X577005Y249493D01*
X577017Y249523D01*
X577036Y249549D01*
X577063Y249636D01*
X577097Y249721D01*
X577101Y249762D01*
X577108Y249784D01*
X577107Y249816D01*
X577115Y249887D01*
X577115Y250077D01*
X578001Y252214D01*
X579636Y253849D01*
X581773Y254735D01*
X584087Y254735D01*
X586224Y253849D01*
X587859Y252214D01*
X588745Y250077D01*
X588745Y247763D01*
X587859Y245626D01*
X586224Y243991D01*
X584087Y243105D01*
X583897Y243105D01*
X583807Y243091D01*
X583716Y243083D01*
X583687Y243071D01*
X583655Y243066D01*
X583574Y243023D01*
X583490Y242987D01*
X583458Y242961D01*
X583437Y242950D01*
X583415Y242927D01*
X583359Y242882D01*
X579147Y238671D01*
X579121Y238633D01*
X579087Y238602D01*
X579049Y238534D01*
X579004Y238471D01*
X578990Y238427D01*
X578968Y238387D01*
X578954Y238310D01*
X578932Y238236D01*
X578933Y238190D01*
X578925Y238145D01*
X578936Y238068D01*
X578938Y237990D01*
X578954Y237947D01*
X578960Y237901D01*
X578996Y237832D01*
X579022Y237759D01*
X579051Y237723D01*
X579072Y237682D01*
X579127Y237628D01*
X579176Y237567D01*
X579215Y237542D01*
X579247Y237510D01*
X579367Y237444D01*
X579383Y237434D01*
X579388Y237433D01*
X579394Y237429D01*
X581144Y236704D01*
X582779Y235069D01*
X583665Y232932D01*
X583665Y230618D01*
X582779Y228481D01*
X581144Y226846D01*
X579007Y225960D01*
X576693Y225960D01*
X574556Y226846D01*
X572921Y228481D01*
X572196Y230231D01*
X572172Y230270D01*
X572156Y230313D01*
X572107Y230373D01*
X572066Y230440D01*
X572031Y230469D01*
X572002Y230505D01*
X571937Y230547D01*
X571877Y230596D01*
X571834Y230613D01*
X571795Y230638D01*
X571720Y230657D01*
X571647Y230685D01*
X571601Y230687D01*
X571557Y230698D01*
X571479Y230692D01*
X571401Y230695D01*
X571357Y230682D01*
X571312Y230679D01*
X571240Y230648D01*
X571165Y230626D01*
X571127Y230600D01*
X571085Y230582D01*
X570979Y230497D01*
X570963Y230486D01*
X570960Y230482D01*
X570954Y230478D01*
X520249Y179773D01*
X520223Y179735D01*
X520189Y179704D01*
X520151Y179636D01*
X520106Y179573D01*
X520092Y179529D01*
X520070Y179489D01*
X520056Y179412D01*
X520034Y179338D01*
X520035Y179292D01*
X520027Y179247D01*
X520038Y179170D01*
X520040Y179092D01*
X520056Y179049D01*
X520062Y179003D01*
X520098Y178934D01*
X520124Y178861D01*
X520153Y178825D01*
X520174Y178784D01*
X520229Y178730D01*
X520278Y178669D01*
X520317Y178644D01*
X520349Y178612D01*
X520469Y178546D01*
X520485Y178536D01*
X520490Y178535D01*
X520496Y178531D01*
X522625Y177649D01*
X522759Y177516D01*
X522833Y177463D01*
X522902Y177403D01*
X522932Y177391D01*
X522958Y177372D01*
X523045Y177345D01*
X523130Y177311D01*
X523171Y177307D01*
X523193Y177300D01*
X523226Y177301D01*
X523297Y177293D01*
X618282Y177293D01*
X618306Y177283D01*
X618347Y177279D01*
X618369Y177272D01*
X618401Y177273D01*
X618472Y177265D01*
X618662Y177265D01*
X620799Y176379D01*
X622434Y174744D01*
X623320Y172607D01*
X623320Y170293D01*
X622434Y168156D01*
X620799Y166521D01*
X618662Y165635D01*
X616348Y165635D01*
G37*
%LPD*%
%LPC*%
G36*
X190613Y425985D02*
X190613Y425985D01*
X188476Y426871D01*
X187834Y427512D01*
X187760Y427565D01*
X187691Y427625D01*
X187661Y427637D01*
X187635Y427656D01*
X187548Y427683D01*
X187463Y427717D01*
X187422Y427721D01*
X187400Y427728D01*
X187367Y427727D01*
X187296Y427735D01*
X146906Y427735D01*
X135635Y439006D01*
X135635Y442443D01*
X135628Y442488D01*
X135630Y442534D01*
X135608Y442609D01*
X135596Y442686D01*
X135574Y442726D01*
X135561Y442771D01*
X135517Y442835D01*
X135480Y442903D01*
X135447Y442935D01*
X135421Y442973D01*
X135358Y443019D01*
X135302Y443073D01*
X135260Y443092D01*
X135224Y443119D01*
X135150Y443143D01*
X135079Y443176D01*
X135033Y443181D01*
X134990Y443196D01*
X134912Y443195D01*
X134835Y443203D01*
X134790Y443194D01*
X134744Y443193D01*
X134612Y443155D01*
X134594Y443151D01*
X134590Y443149D01*
X134583Y443146D01*
X133011Y442495D01*
X130697Y442495D01*
X128560Y443381D01*
X126925Y445016D01*
X126039Y447153D01*
X126039Y449467D01*
X126925Y451604D01*
X127566Y452246D01*
X127619Y452320D01*
X127679Y452389D01*
X127691Y452419D01*
X127710Y452445D01*
X127737Y452532D01*
X127771Y452617D01*
X127775Y452658D01*
X127782Y452680D01*
X127781Y452713D01*
X127789Y452784D01*
X127789Y491052D01*
X127786Y491074D01*
X127788Y491092D01*
X127773Y491158D01*
X127767Y491233D01*
X127755Y491263D01*
X127750Y491295D01*
X127739Y491314D01*
X127735Y491333D01*
X127700Y491392D01*
X127671Y491459D01*
X127645Y491492D01*
X127634Y491512D01*
X127619Y491526D01*
X127609Y491544D01*
X127592Y491559D01*
X127566Y491590D01*
X126925Y492232D01*
X126039Y494369D01*
X126039Y496683D01*
X126925Y498820D01*
X128560Y500455D01*
X130697Y501341D01*
X133011Y501341D01*
X134583Y500690D01*
X134627Y500679D01*
X134669Y500660D01*
X134746Y500651D01*
X134822Y500633D01*
X134868Y500638D01*
X134913Y500633D01*
X134990Y500649D01*
X135067Y500656D01*
X135109Y500675D01*
X135154Y500685D01*
X135221Y500725D01*
X135292Y500756D01*
X135326Y500788D01*
X135365Y500811D01*
X135416Y500870D01*
X135473Y500923D01*
X135495Y500963D01*
X135525Y500998D01*
X135554Y501070D01*
X135591Y501138D01*
X135600Y501184D01*
X135617Y501226D01*
X135632Y501362D01*
X135635Y501380D01*
X135634Y501385D01*
X135635Y501393D01*
X135635Y519844D01*
X169766Y553975D01*
X202564Y553975D01*
X202635Y553986D01*
X202707Y553988D01*
X202756Y554006D01*
X202807Y554014D01*
X202870Y554048D01*
X202938Y554073D01*
X202978Y554105D01*
X203024Y554130D01*
X203074Y554182D01*
X203130Y554226D01*
X203158Y554270D01*
X203194Y554308D01*
X203224Y554373D01*
X203263Y554433D01*
X203275Y554484D01*
X203297Y554531D01*
X203305Y554602D01*
X203323Y554672D01*
X203319Y554724D01*
X203324Y554775D01*
X203309Y554846D01*
X203304Y554917D01*
X203283Y554965D01*
X203272Y555016D01*
X203235Y555077D01*
X203207Y555143D01*
X203162Y555199D01*
X203146Y555227D01*
X203128Y555242D01*
X203102Y555274D01*
X202081Y556296D01*
X201195Y558433D01*
X201195Y560747D01*
X202081Y562884D01*
X203716Y564519D01*
X205853Y565405D01*
X208167Y565405D01*
X210304Y564519D01*
X211736Y563088D01*
X211810Y563035D01*
X211879Y562975D01*
X211909Y562963D01*
X211935Y562944D01*
X212022Y562917D01*
X212107Y562883D01*
X212148Y562879D01*
X212170Y562872D01*
X212203Y562873D01*
X212274Y562865D01*
X354634Y562865D01*
X354724Y562879D01*
X354815Y562887D01*
X354844Y562899D01*
X354876Y562904D01*
X354957Y562947D01*
X355041Y562983D01*
X355073Y563009D01*
X355094Y563020D01*
X355116Y563043D01*
X355172Y563088D01*
X356376Y564292D01*
X358757Y565278D01*
X361333Y565278D01*
X363714Y564292D01*
X365537Y562469D01*
X366417Y560344D01*
X366441Y560305D01*
X366457Y560262D01*
X366505Y560201D01*
X366547Y560135D01*
X366582Y560106D01*
X366611Y560070D01*
X366676Y560028D01*
X366736Y559978D01*
X366779Y559962D01*
X366817Y559937D01*
X366893Y559918D01*
X366966Y559890D01*
X367011Y559888D01*
X367056Y559877D01*
X367134Y559883D01*
X367211Y559879D01*
X367256Y559892D01*
X367301Y559896D01*
X367373Y559926D01*
X367448Y559948D01*
X367485Y559974D01*
X367528Y559992D01*
X367634Y560077D01*
X367650Y560088D01*
X367653Y560092D01*
X367659Y560097D01*
X370426Y562865D01*
X392734Y562865D01*
X392824Y562879D01*
X392915Y562887D01*
X392944Y562899D01*
X392976Y562904D01*
X393057Y562947D01*
X393141Y562983D01*
X393173Y563009D01*
X393194Y563020D01*
X393216Y563043D01*
X393272Y563088D01*
X394476Y564292D01*
X396857Y565278D01*
X399433Y565278D01*
X401814Y564292D01*
X403637Y562469D01*
X404623Y560088D01*
X404623Y557512D01*
X403637Y555131D01*
X401814Y553308D01*
X399433Y552322D01*
X396857Y552322D01*
X394476Y553308D01*
X393272Y554512D01*
X393198Y554565D01*
X393128Y554625D01*
X393098Y554637D01*
X393072Y554656D01*
X392985Y554683D01*
X392900Y554717D01*
X392859Y554721D01*
X392837Y554728D01*
X392805Y554727D01*
X392734Y554735D01*
X374109Y554735D01*
X374019Y554721D01*
X373928Y554713D01*
X373898Y554701D01*
X373866Y554696D01*
X373786Y554653D01*
X373702Y554617D01*
X373670Y554591D01*
X373649Y554580D01*
X373627Y554557D01*
X373571Y554512D01*
X364904Y545845D01*
X225577Y545845D01*
X225532Y545838D01*
X225486Y545840D01*
X225411Y545818D01*
X225334Y545806D01*
X225294Y545784D01*
X225249Y545771D01*
X225185Y545727D01*
X225117Y545690D01*
X225085Y545657D01*
X225047Y545631D01*
X225001Y545568D01*
X224947Y545512D01*
X224928Y545470D01*
X224901Y545434D01*
X224877Y545360D01*
X224844Y545289D01*
X224839Y545243D01*
X224824Y545200D01*
X224825Y545122D01*
X224817Y545045D01*
X224826Y545000D01*
X224827Y544954D01*
X224865Y544822D01*
X224869Y544804D01*
X224871Y544800D01*
X224874Y544793D01*
X225525Y543221D01*
X225525Y540907D01*
X224639Y538770D01*
X223004Y537135D01*
X220867Y536249D01*
X218553Y536249D01*
X216416Y537135D01*
X214781Y538770D01*
X214675Y539025D01*
X214613Y539125D01*
X214553Y539225D01*
X214549Y539229D01*
X214545Y539234D01*
X214455Y539309D01*
X214366Y539385D01*
X214361Y539387D01*
X214356Y539391D01*
X214247Y539433D01*
X214138Y539477D01*
X214131Y539478D01*
X214126Y539479D01*
X214108Y539480D01*
X213972Y539495D01*
X179799Y539495D01*
X179709Y539481D01*
X179618Y539473D01*
X179588Y539461D01*
X179556Y539456D01*
X179476Y539413D01*
X179392Y539377D01*
X179360Y539351D01*
X179339Y539340D01*
X179317Y539317D01*
X179261Y539272D01*
X151834Y511845D01*
X151781Y511771D01*
X151721Y511702D01*
X151709Y511672D01*
X151690Y511646D01*
X151663Y511559D01*
X151629Y511474D01*
X151625Y511433D01*
X151618Y511410D01*
X151619Y511378D01*
X151611Y511307D01*
X151611Y450244D01*
X151625Y450154D01*
X151633Y450063D01*
X151645Y450033D01*
X151650Y450001D01*
X151693Y449920D01*
X151729Y449837D01*
X151755Y449804D01*
X151766Y449784D01*
X151789Y449762D01*
X151834Y449706D01*
X152475Y449064D01*
X153361Y446927D01*
X153361Y444613D01*
X152475Y442476D01*
X150840Y440841D01*
X148703Y439955D01*
X148021Y439955D01*
X147950Y439944D01*
X147878Y439942D01*
X147830Y439924D01*
X147778Y439916D01*
X147715Y439882D01*
X147647Y439857D01*
X147607Y439825D01*
X147561Y439800D01*
X147511Y439748D01*
X147455Y439704D01*
X147427Y439660D01*
X147391Y439622D01*
X147361Y439557D01*
X147322Y439497D01*
X147310Y439446D01*
X147288Y439399D01*
X147280Y439328D01*
X147262Y439258D01*
X147266Y439206D01*
X147261Y439155D01*
X147276Y439084D01*
X147282Y439013D01*
X147302Y438965D01*
X147313Y438914D01*
X147350Y438853D01*
X147378Y438787D01*
X147423Y438731D01*
X147439Y438703D01*
X147457Y438688D01*
X147483Y438656D01*
X150051Y436088D01*
X150125Y436035D01*
X150194Y435975D01*
X150224Y435963D01*
X150250Y435944D01*
X150338Y435917D01*
X150422Y435883D01*
X150463Y435879D01*
X150486Y435872D01*
X150518Y435873D01*
X150589Y435865D01*
X187296Y435865D01*
X187386Y435879D01*
X187477Y435887D01*
X187507Y435899D01*
X187539Y435904D01*
X187620Y435947D01*
X187703Y435983D01*
X187736Y436009D01*
X187756Y436020D01*
X187778Y436043D01*
X187834Y436088D01*
X188476Y436729D01*
X190613Y437615D01*
X192927Y437615D01*
X195064Y436729D01*
X196699Y435094D01*
X197585Y432957D01*
X197585Y430643D01*
X196699Y428506D01*
X195064Y426871D01*
X192927Y425985D01*
X190613Y425985D01*
G37*
%LPD*%
%LPC*%
G36*
X241946Y105917D02*
X241946Y105917D01*
X239044Y108819D01*
X211661Y136202D01*
X211587Y136255D01*
X211517Y136315D01*
X211487Y136327D01*
X211461Y136346D01*
X211374Y136373D01*
X211289Y136407D01*
X211248Y136411D01*
X211226Y136418D01*
X211194Y136417D01*
X211123Y136425D01*
X210933Y136425D01*
X208796Y137311D01*
X207161Y138946D01*
X206275Y141083D01*
X206275Y143397D01*
X207161Y145534D01*
X208796Y147169D01*
X210933Y148055D01*
X213247Y148055D01*
X215384Y147169D01*
X217019Y145534D01*
X217905Y143397D01*
X217905Y143207D01*
X217919Y143117D01*
X217927Y143026D01*
X217939Y142997D01*
X217944Y142965D01*
X217987Y142884D01*
X218023Y142800D01*
X218049Y142768D01*
X218060Y142747D01*
X218083Y142725D01*
X218128Y142669D01*
X245511Y115286D01*
X245585Y115233D01*
X245655Y115173D01*
X245685Y115161D01*
X245711Y115142D01*
X245798Y115115D01*
X245883Y115081D01*
X245924Y115077D01*
X245946Y115070D01*
X245978Y115071D01*
X246049Y115063D01*
X315291Y115063D01*
X315381Y115077D01*
X315472Y115085D01*
X315501Y115097D01*
X315533Y115102D01*
X315614Y115145D01*
X315698Y115181D01*
X315730Y115207D01*
X315751Y115218D01*
X315773Y115241D01*
X315829Y115286D01*
X330484Y129941D01*
X330537Y130015D01*
X330597Y130085D01*
X330609Y130115D01*
X330628Y130141D01*
X330655Y130228D01*
X330689Y130313D01*
X330693Y130354D01*
X330700Y130376D01*
X330699Y130408D01*
X330707Y130479D01*
X330707Y209881D01*
X330693Y209971D01*
X330685Y210062D01*
X330673Y210091D01*
X330668Y210123D01*
X330625Y210204D01*
X330589Y210288D01*
X330563Y210320D01*
X330552Y210341D01*
X330529Y210363D01*
X330484Y210419D01*
X318369Y222534D01*
X318295Y222587D01*
X318225Y222647D01*
X318195Y222659D01*
X318169Y222678D01*
X318082Y222705D01*
X317997Y222739D01*
X317956Y222743D01*
X317934Y222750D01*
X317902Y222749D01*
X317831Y222757D01*
X233836Y222757D01*
X233746Y222743D01*
X233655Y222735D01*
X233625Y222723D01*
X233593Y222718D01*
X233512Y222675D01*
X233429Y222639D01*
X233396Y222613D01*
X233376Y222602D01*
X233354Y222579D01*
X233298Y222534D01*
X233164Y222401D01*
X231027Y221515D01*
X228713Y221515D01*
X226576Y222401D01*
X224941Y224036D01*
X224055Y226173D01*
X224055Y228487D01*
X224941Y230624D01*
X226576Y232259D01*
X228713Y233145D01*
X231027Y233145D01*
X233164Y232259D01*
X233298Y232126D01*
X233372Y232073D01*
X233441Y232013D01*
X233471Y232001D01*
X233497Y231982D01*
X233584Y231955D01*
X233669Y231921D01*
X233710Y231917D01*
X233732Y231910D01*
X233765Y231911D01*
X233836Y231903D01*
X321934Y231903D01*
X339853Y213984D01*
X339853Y126376D01*
X336951Y123474D01*
X322296Y108819D01*
X319394Y105917D01*
X241946Y105917D01*
G37*
%LPD*%
%LPC*%
G36*
X275590Y481073D02*
X275590Y481073D01*
X275570Y481071D01*
X275535Y481075D01*
X275158Y481075D01*
X275134Y481087D01*
X275050Y481103D01*
X275018Y481113D01*
X274999Y481112D01*
X274969Y481118D01*
X271993Y481331D01*
X271956Y481327D01*
X271919Y481332D01*
X271834Y481316D01*
X271748Y481308D01*
X271739Y481304D01*
X271486Y481359D01*
X271453Y481361D01*
X271378Y481375D01*
X271119Y481393D01*
X271108Y481402D01*
X271073Y481416D01*
X271043Y481437D01*
X270884Y481490D01*
X267909Y482137D01*
X267871Y482139D01*
X267836Y482149D01*
X267749Y482146D01*
X267663Y482150D01*
X267653Y482147D01*
X267411Y482238D01*
X267379Y482244D01*
X267307Y482268D01*
X267053Y482323D01*
X267043Y482334D01*
X267011Y482352D01*
X266983Y482377D01*
X266834Y482453D01*
X263981Y483517D01*
X263944Y483524D01*
X263910Y483539D01*
X263824Y483548D01*
X263740Y483564D01*
X263729Y483563D01*
X263502Y483687D01*
X263471Y483698D01*
X263403Y483732D01*
X263160Y483823D01*
X263152Y483835D01*
X263123Y483857D01*
X263099Y483886D01*
X262962Y483982D01*
X260289Y485442D01*
X260254Y485454D01*
X260223Y485474D01*
X260139Y485494D01*
X260057Y485523D01*
X260047Y485523D01*
X259840Y485678D01*
X259811Y485693D01*
X259749Y485737D01*
X259521Y485861D01*
X259514Y485874D01*
X259488Y485901D01*
X259469Y485933D01*
X259347Y486047D01*
X256909Y487872D01*
X256883Y487885D01*
X256869Y487897D01*
X256864Y487899D01*
X256848Y487913D01*
X256768Y487946D01*
X256691Y487986D01*
X256681Y487987D01*
X256498Y488170D01*
X256472Y488189D01*
X256416Y488241D01*
X256208Y488397D01*
X256204Y488410D01*
X256182Y488440D01*
X256167Y488475D01*
X256063Y488606D01*
X253910Y490759D01*
X253879Y490780D01*
X253855Y490808D01*
X253780Y490852D01*
X253710Y490902D01*
X253700Y490905D01*
X253545Y491112D01*
X253521Y491135D01*
X253474Y491194D01*
X253290Y491378D01*
X253288Y491392D01*
X253271Y491425D01*
X253261Y491461D01*
X253176Y491605D01*
X251351Y494043D01*
X251325Y494068D01*
X251304Y494100D01*
X251236Y494153D01*
X251174Y494213D01*
X251165Y494218D01*
X251041Y494445D01*
X251021Y494471D01*
X250982Y494536D01*
X250826Y494744D01*
X250826Y494758D01*
X250814Y494793D01*
X250809Y494830D01*
X250746Y494985D01*
X249286Y497658D01*
X249264Y497687D01*
X249248Y497721D01*
X249188Y497783D01*
X249135Y497852D01*
X249127Y497857D01*
X249036Y498099D01*
X249020Y498128D01*
X248991Y498198D01*
X248867Y498426D01*
X248868Y498441D01*
X248861Y498477D01*
X248862Y498514D01*
X248821Y498677D01*
X247757Y501529D01*
X247738Y501562D01*
X247728Y501598D01*
X247678Y501668D01*
X247635Y501743D01*
X247627Y501750D01*
X247572Y502003D01*
X247560Y502033D01*
X247542Y502107D01*
X247451Y502350D01*
X247455Y502364D01*
X247452Y502401D01*
X247459Y502438D01*
X247451Y502509D01*
X247451Y502511D01*
X247451Y502514D01*
X247441Y502605D01*
X246794Y505580D01*
X246780Y505614D01*
X246775Y505651D01*
X246735Y505728D01*
X246704Y505808D01*
X246697Y505816D01*
X246679Y506074D01*
X246671Y506106D01*
X246663Y506182D01*
X246608Y506436D01*
X246613Y506449D01*
X246617Y506486D01*
X246628Y506521D01*
X246635Y506689D01*
X246417Y509726D01*
X246409Y509762D01*
X246409Y509799D01*
X246380Y509881D01*
X246360Y509965D01*
X246355Y509974D01*
X246373Y510232D01*
X246370Y510264D01*
X246373Y510340D01*
X246355Y510600D01*
X246362Y510612D01*
X246371Y510648D01*
X246387Y510681D01*
X246417Y510846D01*
X246635Y513883D01*
X246631Y513920D01*
X246636Y513957D01*
X246620Y514042D01*
X246612Y514128D01*
X246608Y514137D01*
X246663Y514390D01*
X246665Y514423D01*
X246679Y514498D01*
X246697Y514757D01*
X246706Y514768D01*
X246720Y514803D01*
X246741Y514833D01*
X246794Y514992D01*
X247441Y517967D01*
X247443Y518005D01*
X247453Y518040D01*
X247450Y518127D01*
X247454Y518213D01*
X247451Y518223D01*
X247542Y518465D01*
X247548Y518497D01*
X247572Y518569D01*
X247627Y518823D01*
X247638Y518833D01*
X247656Y518865D01*
X247681Y518893D01*
X247757Y519043D01*
X248821Y521895D01*
X248828Y521932D01*
X248843Y521966D01*
X248852Y522052D01*
X248868Y522136D01*
X248867Y522147D01*
X248991Y522374D01*
X249002Y522405D01*
X249036Y522473D01*
X249127Y522716D01*
X249139Y522724D01*
X249161Y522753D01*
X249190Y522777D01*
X249286Y522914D01*
X250746Y525587D01*
X250758Y525622D01*
X250778Y525653D01*
X250798Y525737D01*
X250827Y525819D01*
X250827Y525829D01*
X250982Y526036D01*
X250997Y526065D01*
X251041Y526127D01*
X251165Y526355D01*
X251178Y526362D01*
X251205Y526388D01*
X251237Y526407D01*
X251351Y526529D01*
X253176Y528967D01*
X253193Y528999D01*
X253217Y529028D01*
X253250Y529108D01*
X253290Y529185D01*
X253291Y529195D01*
X253474Y529378D01*
X253493Y529404D01*
X253545Y529460D01*
X253701Y529668D01*
X253714Y529672D01*
X253745Y529694D01*
X253779Y529709D01*
X253910Y529813D01*
X256063Y531966D01*
X256084Y531996D01*
X256112Y532021D01*
X256156Y532096D01*
X256206Y532166D01*
X256209Y532176D01*
X256416Y532331D01*
X256439Y532355D01*
X256498Y532402D01*
X256682Y532586D01*
X256696Y532588D01*
X256729Y532605D01*
X256765Y532615D01*
X256909Y532700D01*
X259347Y534525D01*
X259372Y534551D01*
X259404Y534572D01*
X259457Y534640D01*
X259517Y534702D01*
X259522Y534711D01*
X259749Y534835D01*
X259775Y534855D01*
X259840Y534894D01*
X260048Y535050D01*
X260062Y535050D01*
X260097Y535062D01*
X260134Y535067D01*
X260289Y535130D01*
X262962Y536590D01*
X262991Y536612D01*
X263025Y536628D01*
X263087Y536688D01*
X263156Y536741D01*
X263161Y536749D01*
X263403Y536840D01*
X263432Y536856D01*
X263502Y536885D01*
X263730Y537009D01*
X263745Y537008D01*
X263781Y537015D01*
X263818Y537014D01*
X263981Y537055D01*
X266833Y538119D01*
X266866Y538138D01*
X266901Y538148D01*
X266972Y538198D01*
X267047Y538241D01*
X267054Y538249D01*
X267307Y538304D01*
X267337Y538316D01*
X267411Y538334D01*
X267654Y538425D01*
X267668Y538421D01*
X267705Y538424D01*
X267742Y538417D01*
X267909Y538435D01*
X270884Y539082D01*
X270918Y539096D01*
X270955Y539101D01*
X271032Y539141D01*
X271112Y539172D01*
X271120Y539179D01*
X271378Y539197D01*
X271410Y539205D01*
X271486Y539213D01*
X271740Y539268D01*
X271753Y539263D01*
X271790Y539259D01*
X271825Y539248D01*
X271993Y539241D01*
X274969Y539454D01*
X275031Y539469D01*
X275096Y539474D01*
X275148Y539497D01*
X275535Y539497D01*
X275555Y539500D01*
X275590Y539499D01*
X275966Y539526D01*
X275992Y539515D01*
X276077Y539506D01*
X276109Y539498D01*
X276128Y539500D01*
X276158Y539497D01*
X276800Y539497D01*
X276863Y539507D01*
X276928Y539508D01*
X276982Y539526D01*
X277368Y539499D01*
X277388Y539501D01*
X277422Y539497D01*
X277800Y539497D01*
X277824Y539485D01*
X277908Y539469D01*
X277940Y539459D01*
X277959Y539460D01*
X277989Y539454D01*
X281092Y539232D01*
X281129Y539236D01*
X281166Y539231D01*
X281250Y539247D01*
X281337Y539255D01*
X281346Y539259D01*
X281599Y539204D01*
X281631Y539202D01*
X281706Y539188D01*
X281965Y539170D01*
X281976Y539161D01*
X282011Y539147D01*
X282042Y539126D01*
X282201Y539073D01*
X285300Y538399D01*
X285337Y538397D01*
X285373Y538387D01*
X285459Y538391D01*
X285545Y538386D01*
X285555Y538389D01*
X285797Y538298D01*
X285829Y538292D01*
X285891Y538271D01*
X285898Y538269D01*
X285900Y538268D01*
X285902Y538268D01*
X286156Y538213D01*
X286165Y538202D01*
X286198Y538184D01*
X286225Y538159D01*
X286375Y538083D01*
X289346Y536975D01*
X289383Y536968D01*
X289417Y536952D01*
X289503Y536944D01*
X289588Y536927D01*
X289598Y536929D01*
X289825Y536805D01*
X289856Y536794D01*
X289924Y536759D01*
X290167Y536669D01*
X290175Y536657D01*
X290205Y536634D01*
X290228Y536605D01*
X290366Y536509D01*
X293149Y534989D01*
X293184Y534977D01*
X293216Y534957D01*
X293300Y534937D01*
X293381Y534908D01*
X293392Y534908D01*
X293599Y534753D01*
X293627Y534738D01*
X293690Y534694D01*
X293918Y534570D01*
X293924Y534557D01*
X293950Y534530D01*
X293970Y534498D01*
X294092Y534383D01*
X296631Y532483D01*
X296664Y532466D01*
X296692Y532442D01*
X296772Y532409D01*
X296849Y532369D01*
X296859Y532368D01*
X297042Y532185D01*
X297068Y532166D01*
X297124Y532114D01*
X297332Y531958D01*
X297336Y531944D01*
X297358Y531914D01*
X297373Y531880D01*
X297478Y531749D01*
X299720Y529507D01*
X299750Y529485D01*
X299775Y529457D01*
X299850Y529414D01*
X299920Y529363D01*
X299930Y529360D01*
X300085Y529153D01*
X300108Y529130D01*
X300156Y529071D01*
X300340Y528887D01*
X300342Y528873D01*
X300352Y528854D01*
X300356Y528835D01*
X300364Y528821D01*
X300369Y528804D01*
X300454Y528660D01*
X302354Y526121D01*
X302381Y526095D01*
X302402Y526064D01*
X302470Y526010D01*
X302532Y525950D01*
X302541Y525946D01*
X302665Y525719D01*
X302685Y525693D01*
X302724Y525627D01*
X302879Y525420D01*
X302880Y525405D01*
X302892Y525370D01*
X302897Y525333D01*
X302960Y525178D01*
X304480Y522395D01*
X304503Y522365D01*
X304519Y522332D01*
X304578Y522269D01*
X304631Y522201D01*
X304640Y522195D01*
X304730Y521953D01*
X304747Y521925D01*
X304776Y521854D01*
X304900Y521626D01*
X304898Y521612D01*
X304906Y521575D01*
X304905Y521538D01*
X304946Y521375D01*
X306054Y518404D01*
X306073Y518372D01*
X306083Y518336D01*
X306133Y518265D01*
X306176Y518190D01*
X306184Y518184D01*
X306239Y517931D01*
X306251Y517900D01*
X306269Y517826D01*
X306360Y517583D01*
X306356Y517569D01*
X306359Y517532D01*
X306352Y517496D01*
X306370Y517329D01*
X307044Y514230D01*
X307058Y514195D01*
X307063Y514158D01*
X307103Y514082D01*
X307134Y514001D01*
X307141Y513993D01*
X307159Y513735D01*
X307167Y513703D01*
X307175Y513628D01*
X307230Y513374D01*
X307224Y513361D01*
X307221Y513324D01*
X307210Y513288D01*
X307203Y513121D01*
X307430Y509957D01*
X307438Y509921D01*
X307438Y509884D01*
X307467Y509802D01*
X307487Y509718D01*
X307492Y509709D01*
X307474Y509451D01*
X307477Y509419D01*
X307474Y509343D01*
X307492Y509083D01*
X307485Y509071D01*
X307476Y509035D01*
X307460Y509002D01*
X307430Y508837D01*
X307221Y505926D01*
X307225Y505889D01*
X307220Y505852D01*
X307236Y505768D01*
X307244Y505681D01*
X307248Y505672D01*
X307193Y505419D01*
X307191Y505387D01*
X307178Y505312D01*
X307159Y505053D01*
X307150Y505042D01*
X307136Y505007D01*
X307115Y504976D01*
X307062Y504817D01*
X306442Y501966D01*
X306440Y501929D01*
X306430Y501893D01*
X306434Y501807D01*
X306429Y501721D01*
X306432Y501711D01*
X306341Y501468D01*
X306335Y501436D01*
X306311Y501364D01*
X306256Y501110D01*
X306245Y501101D01*
X306227Y501068D01*
X306202Y501041D01*
X306126Y500891D01*
X305106Y498157D01*
X305101Y498130D01*
X305091Y498109D01*
X305090Y498101D01*
X305084Y498087D01*
X305076Y498001D01*
X305059Y497916D01*
X305060Y497906D01*
X304936Y497678D01*
X304925Y497648D01*
X304891Y497580D01*
X304800Y497336D01*
X304789Y497329D01*
X304766Y497299D01*
X304737Y497275D01*
X304641Y497138D01*
X303243Y494577D01*
X303230Y494542D01*
X303210Y494510D01*
X303190Y494427D01*
X303161Y494345D01*
X303161Y494335D01*
X303006Y494128D01*
X302991Y494099D01*
X302947Y494036D01*
X302823Y493808D01*
X302810Y493802D01*
X302783Y493776D01*
X302751Y493757D01*
X302637Y493634D01*
X300888Y491299D01*
X300871Y491266D01*
X300847Y491237D01*
X300814Y491157D01*
X300775Y491081D01*
X300773Y491070D01*
X300590Y490887D01*
X300571Y490861D01*
X300519Y490805D01*
X300363Y490597D01*
X300350Y490593D01*
X300319Y490571D01*
X300285Y490556D01*
X300154Y490452D01*
X298091Y488389D01*
X298070Y488358D01*
X298042Y488334D01*
X297998Y488259D01*
X297948Y488189D01*
X297945Y488179D01*
X297738Y488024D01*
X297715Y488000D01*
X297655Y487953D01*
X297472Y487769D01*
X297458Y487767D01*
X297425Y487749D01*
X297389Y487740D01*
X297244Y487655D01*
X294909Y485906D01*
X294883Y485879D01*
X294852Y485859D01*
X294798Y485791D01*
X294738Y485729D01*
X294734Y485720D01*
X294507Y485596D01*
X294481Y485576D01*
X294415Y485537D01*
X294207Y485381D01*
X294193Y485381D01*
X294158Y485368D01*
X294121Y485364D01*
X293966Y485300D01*
X291405Y483902D01*
X291376Y483879D01*
X291342Y483863D01*
X291279Y483804D01*
X291211Y483751D01*
X291205Y483742D01*
X290963Y483652D01*
X290935Y483636D01*
X290864Y483607D01*
X290636Y483482D01*
X290622Y483484D01*
X290586Y483477D01*
X290548Y483477D01*
X290386Y483437D01*
X287652Y482417D01*
X287620Y482398D01*
X287584Y482388D01*
X287514Y482338D01*
X287439Y482295D01*
X287432Y482287D01*
X287179Y482232D01*
X287148Y482220D01*
X287075Y482202D01*
X286831Y482111D01*
X286818Y482115D01*
X286780Y482112D01*
X286744Y482119D01*
X286577Y482101D01*
X283726Y481481D01*
X283691Y481467D01*
X283654Y481462D01*
X283578Y481422D01*
X283497Y481391D01*
X283489Y481384D01*
X283231Y481365D01*
X283199Y481358D01*
X283124Y481350D01*
X282870Y481295D01*
X282857Y481300D01*
X282820Y481304D01*
X282784Y481315D01*
X282617Y481322D01*
X279767Y481118D01*
X279705Y481103D01*
X279640Y481098D01*
X279588Y481075D01*
X279201Y481075D01*
X279181Y481072D01*
X279146Y481073D01*
X278770Y481046D01*
X278744Y481057D01*
X278659Y481066D01*
X278627Y481074D01*
X278609Y481072D01*
X278578Y481075D01*
X276158Y481075D01*
X276095Y481065D01*
X276030Y481064D01*
X275976Y481046D01*
X275590Y481073D01*
G37*
%LPD*%
%LPC*%
G36*
X275590Y130807D02*
X275590Y130807D01*
X275570Y130805D01*
X275535Y130809D01*
X275158Y130809D01*
X275134Y130821D01*
X275050Y130837D01*
X275018Y130847D01*
X274999Y130846D01*
X274969Y130852D01*
X271993Y131065D01*
X271956Y131061D01*
X271919Y131066D01*
X271834Y131050D01*
X271748Y131042D01*
X271739Y131038D01*
X271486Y131093D01*
X271453Y131095D01*
X271378Y131109D01*
X271119Y131127D01*
X271108Y131136D01*
X271073Y131150D01*
X271043Y131171D01*
X270884Y131224D01*
X268584Y131724D01*
X267909Y131871D01*
X267872Y131873D01*
X267836Y131883D01*
X267749Y131879D01*
X267663Y131884D01*
X267653Y131881D01*
X267411Y131972D01*
X267379Y131978D01*
X267307Y132002D01*
X267053Y132057D01*
X267043Y132068D01*
X267011Y132086D01*
X266983Y132111D01*
X266833Y132187D01*
X263981Y133251D01*
X263944Y133258D01*
X263910Y133273D01*
X263824Y133282D01*
X263740Y133298D01*
X263729Y133297D01*
X263502Y133421D01*
X263471Y133432D01*
X263403Y133466D01*
X263160Y133557D01*
X263152Y133569D01*
X263123Y133591D01*
X263099Y133620D01*
X262962Y133716D01*
X260289Y135176D01*
X260254Y135188D01*
X260223Y135208D01*
X260139Y135228D01*
X260057Y135257D01*
X260047Y135257D01*
X259840Y135412D01*
X259813Y135426D01*
X259799Y135439D01*
X259790Y135442D01*
X259749Y135471D01*
X259521Y135595D01*
X259514Y135608D01*
X259488Y135635D01*
X259469Y135667D01*
X259347Y135781D01*
X256909Y137606D01*
X256877Y137623D01*
X256848Y137647D01*
X256768Y137680D01*
X256691Y137720D01*
X256681Y137721D01*
X256498Y137904D01*
X256472Y137923D01*
X256416Y137975D01*
X256208Y138131D01*
X256204Y138144D01*
X256182Y138175D01*
X256167Y138209D01*
X256063Y138340D01*
X253910Y140493D01*
X253879Y140514D01*
X253855Y140542D01*
X253780Y140586D01*
X253710Y140636D01*
X253700Y140639D01*
X253545Y140846D01*
X253521Y140869D01*
X253474Y140928D01*
X253290Y141112D01*
X253288Y141126D01*
X253277Y141147D01*
X253274Y141158D01*
X253268Y141168D01*
X253261Y141195D01*
X253176Y141339D01*
X251351Y143777D01*
X251325Y143802D01*
X251304Y143834D01*
X251236Y143887D01*
X251174Y143947D01*
X251165Y143952D01*
X251041Y144179D01*
X251021Y144205D01*
X250982Y144270D01*
X250826Y144478D01*
X250826Y144492D01*
X250814Y144527D01*
X250809Y144564D01*
X250746Y144719D01*
X249286Y147392D01*
X249264Y147421D01*
X249248Y147455D01*
X249188Y147517D01*
X249135Y147586D01*
X249127Y147591D01*
X249036Y147833D01*
X249020Y147862D01*
X248991Y147932D01*
X248867Y148160D01*
X248868Y148175D01*
X248861Y148211D01*
X248862Y148248D01*
X248821Y148411D01*
X247757Y151264D01*
X247738Y151296D01*
X247728Y151332D01*
X247678Y151402D01*
X247635Y151477D01*
X247627Y151484D01*
X247572Y151737D01*
X247560Y151767D01*
X247542Y151841D01*
X247451Y152084D01*
X247455Y152098D01*
X247452Y152135D01*
X247459Y152172D01*
X247441Y152339D01*
X246794Y155314D01*
X246780Y155348D01*
X246775Y155385D01*
X246735Y155462D01*
X246704Y155542D01*
X246697Y155550D01*
X246679Y155808D01*
X246671Y155840D01*
X246663Y155916D01*
X246608Y156170D01*
X246613Y156183D01*
X246617Y156220D01*
X246628Y156255D01*
X246635Y156423D01*
X246417Y159460D01*
X246409Y159496D01*
X246409Y159533D01*
X246380Y159615D01*
X246360Y159699D01*
X246355Y159708D01*
X246373Y159966D01*
X246370Y159998D01*
X246373Y160074D01*
X246355Y160334D01*
X246362Y160346D01*
X246371Y160382D01*
X246387Y160415D01*
X246417Y160580D01*
X246635Y163617D01*
X246631Y163654D01*
X246636Y163691D01*
X246620Y163776D01*
X246612Y163862D01*
X246608Y163871D01*
X246663Y164124D01*
X246665Y164157D01*
X246679Y164232D01*
X246697Y164491D01*
X246706Y164502D01*
X246720Y164537D01*
X246741Y164567D01*
X246794Y164726D01*
X247441Y167701D01*
X247443Y167739D01*
X247453Y167774D01*
X247450Y167861D01*
X247454Y167947D01*
X247451Y167957D01*
X247542Y168199D01*
X247548Y168231D01*
X247572Y168303D01*
X247627Y168557D01*
X247638Y168567D01*
X247654Y168595D01*
X247674Y168616D01*
X247676Y168621D01*
X247681Y168627D01*
X247757Y168776D01*
X248821Y171629D01*
X248828Y171666D01*
X248843Y171700D01*
X248852Y171786D01*
X248868Y171870D01*
X248867Y171881D01*
X248991Y172108D01*
X249002Y172139D01*
X249036Y172207D01*
X249127Y172450D01*
X249139Y172458D01*
X249161Y172487D01*
X249190Y172511D01*
X249286Y172648D01*
X250746Y175321D01*
X250758Y175356D01*
X250778Y175387D01*
X250798Y175471D01*
X250827Y175553D01*
X250827Y175563D01*
X250982Y175770D01*
X250997Y175799D01*
X251041Y175861D01*
X251165Y176089D01*
X251178Y176096D01*
X251205Y176122D01*
X251237Y176141D01*
X251351Y176263D01*
X253176Y178701D01*
X253193Y178733D01*
X253217Y178762D01*
X253250Y178842D01*
X253290Y178919D01*
X253291Y178929D01*
X253474Y179112D01*
X253493Y179138D01*
X253545Y179194D01*
X253701Y179402D01*
X253714Y179406D01*
X253744Y179428D01*
X253779Y179443D01*
X253910Y179547D01*
X256063Y181700D01*
X256084Y181731D01*
X256112Y181755D01*
X256156Y181830D01*
X256206Y181900D01*
X256209Y181910D01*
X256416Y182065D01*
X256439Y182089D01*
X256498Y182136D01*
X256682Y182320D01*
X256696Y182322D01*
X256729Y182339D01*
X256765Y182349D01*
X256909Y182434D01*
X259347Y184259D01*
X259372Y184285D01*
X259404Y184306D01*
X259457Y184374D01*
X259517Y184436D01*
X259522Y184445D01*
X259749Y184569D01*
X259775Y184589D01*
X259840Y184628D01*
X260048Y184784D01*
X260062Y184784D01*
X260097Y184796D01*
X260134Y184801D01*
X260289Y184864D01*
X262962Y186324D01*
X262991Y186346D01*
X263025Y186362D01*
X263087Y186422D01*
X263156Y186475D01*
X263161Y186483D01*
X263403Y186574D01*
X263432Y186590D01*
X263502Y186619D01*
X263730Y186743D01*
X263745Y186742D01*
X263781Y186749D01*
X263818Y186748D01*
X263981Y186789D01*
X266833Y187853D01*
X266866Y187872D01*
X266902Y187882D01*
X266972Y187932D01*
X267047Y187975D01*
X267054Y187983D01*
X267307Y188038D01*
X267337Y188050D01*
X267411Y188068D01*
X267654Y188159D01*
X267668Y188155D01*
X267705Y188158D01*
X267742Y188151D01*
X267909Y188169D01*
X270884Y188816D01*
X270918Y188830D01*
X270955Y188835D01*
X271032Y188875D01*
X271112Y188906D01*
X271120Y188913D01*
X271378Y188931D01*
X271410Y188939D01*
X271486Y188947D01*
X271740Y189002D01*
X271753Y188997D01*
X271790Y188993D01*
X271825Y188982D01*
X271993Y188975D01*
X274969Y189188D01*
X275031Y189203D01*
X275096Y189208D01*
X275148Y189231D01*
X275535Y189231D01*
X275555Y189234D01*
X275590Y189233D01*
X275966Y189260D01*
X275992Y189249D01*
X276077Y189240D01*
X276109Y189232D01*
X276128Y189234D01*
X276158Y189231D01*
X276800Y189231D01*
X276863Y189241D01*
X276928Y189242D01*
X276982Y189260D01*
X277368Y189233D01*
X277388Y189235D01*
X277422Y189231D01*
X277800Y189231D01*
X277824Y189219D01*
X277908Y189203D01*
X277940Y189193D01*
X277959Y189194D01*
X277989Y189188D01*
X281092Y188966D01*
X281129Y188970D01*
X281166Y188965D01*
X281250Y188981D01*
X281337Y188989D01*
X281346Y188993D01*
X281599Y188938D01*
X281631Y188936D01*
X281706Y188922D01*
X281965Y188904D01*
X281976Y188895D01*
X282011Y188881D01*
X282042Y188860D01*
X282201Y188807D01*
X285300Y188133D01*
X285337Y188131D01*
X285373Y188121D01*
X285459Y188124D01*
X285545Y188120D01*
X285555Y188123D01*
X285797Y188032D01*
X285829Y188026D01*
X285902Y188002D01*
X286156Y187947D01*
X286165Y187936D01*
X286198Y187918D01*
X286225Y187893D01*
X286375Y187817D01*
X289346Y186709D01*
X289383Y186702D01*
X289417Y186686D01*
X289503Y186678D01*
X289588Y186661D01*
X289598Y186663D01*
X289825Y186539D01*
X289856Y186528D01*
X289924Y186493D01*
X290167Y186403D01*
X290175Y186391D01*
X290205Y186368D01*
X290228Y186339D01*
X290366Y186243D01*
X293149Y184723D01*
X293184Y184711D01*
X293216Y184691D01*
X293300Y184671D01*
X293381Y184642D01*
X293392Y184642D01*
X293598Y184487D01*
X293627Y184472D01*
X293690Y184428D01*
X293918Y184303D01*
X293924Y184291D01*
X293950Y184264D01*
X293970Y184232D01*
X294092Y184117D01*
X296631Y182217D01*
X296664Y182200D01*
X296692Y182176D01*
X296772Y182143D01*
X296849Y182103D01*
X296859Y182102D01*
X297042Y181919D01*
X297068Y181900D01*
X297124Y181848D01*
X297332Y181692D01*
X297336Y181679D01*
X297358Y181648D01*
X297373Y181614D01*
X297478Y181483D01*
X299720Y179241D01*
X299750Y179219D01*
X299775Y179191D01*
X299850Y179147D01*
X299920Y179097D01*
X299930Y179094D01*
X300085Y178887D01*
X300108Y178864D01*
X300156Y178805D01*
X300340Y178621D01*
X300342Y178607D01*
X300359Y178574D01*
X300369Y178538D01*
X300454Y178394D01*
X302354Y175855D01*
X302381Y175829D01*
X302402Y175798D01*
X302470Y175744D01*
X302532Y175684D01*
X302541Y175680D01*
X302665Y175453D01*
X302685Y175427D01*
X302724Y175361D01*
X302879Y175154D01*
X302880Y175139D01*
X302892Y175104D01*
X302897Y175067D01*
X302960Y174912D01*
X304480Y172129D01*
X304503Y172099D01*
X304519Y172066D01*
X304578Y172003D01*
X304631Y171935D01*
X304640Y171929D01*
X304730Y171687D01*
X304747Y171659D01*
X304776Y171588D01*
X304900Y171360D01*
X304898Y171346D01*
X304906Y171309D01*
X304905Y171272D01*
X304946Y171109D01*
X306054Y168138D01*
X306073Y168106D01*
X306083Y168070D01*
X306133Y167999D01*
X306176Y167924D01*
X306184Y167918D01*
X306239Y167665D01*
X306251Y167634D01*
X306269Y167560D01*
X306360Y167317D01*
X306356Y167304D01*
X306359Y167266D01*
X306352Y167230D01*
X306370Y167063D01*
X307044Y163964D01*
X307058Y163929D01*
X307063Y163892D01*
X307103Y163816D01*
X307134Y163735D01*
X307141Y163727D01*
X307159Y163469D01*
X307167Y163437D01*
X307175Y163362D01*
X307230Y163108D01*
X307224Y163095D01*
X307221Y163058D01*
X307210Y163022D01*
X307203Y162855D01*
X307430Y159691D01*
X307438Y159655D01*
X307438Y159618D01*
X307467Y159536D01*
X307487Y159452D01*
X307492Y159443D01*
X307474Y159185D01*
X307477Y159153D01*
X307475Y159121D01*
X307474Y159108D01*
X307475Y159105D01*
X307474Y159077D01*
X307492Y158817D01*
X307485Y158805D01*
X307476Y158769D01*
X307460Y158736D01*
X307430Y158571D01*
X307221Y155660D01*
X307225Y155623D01*
X307220Y155586D01*
X307236Y155502D01*
X307244Y155415D01*
X307248Y155406D01*
X307193Y155153D01*
X307191Y155121D01*
X307178Y155046D01*
X307159Y154787D01*
X307150Y154776D01*
X307136Y154741D01*
X307115Y154710D01*
X307062Y154551D01*
X306442Y151700D01*
X306440Y151663D01*
X306430Y151627D01*
X306433Y151551D01*
X306427Y151496D01*
X306430Y151480D01*
X306429Y151455D01*
X306432Y151445D01*
X306341Y151202D01*
X306335Y151170D01*
X306311Y151098D01*
X306256Y150844D01*
X306245Y150835D01*
X306227Y150802D01*
X306202Y150775D01*
X306126Y150625D01*
X305106Y147891D01*
X305099Y147855D01*
X305084Y147821D01*
X305076Y147735D01*
X305059Y147650D01*
X305060Y147640D01*
X304936Y147412D01*
X304925Y147382D01*
X304891Y147314D01*
X304800Y147070D01*
X304789Y147063D01*
X304766Y147033D01*
X304737Y147009D01*
X304641Y146872D01*
X303243Y144311D01*
X303230Y144276D01*
X303210Y144244D01*
X303190Y144161D01*
X303161Y144079D01*
X303161Y144069D01*
X303006Y143862D01*
X302991Y143833D01*
X302947Y143770D01*
X302823Y143542D01*
X302810Y143536D01*
X302783Y143510D01*
X302751Y143491D01*
X302637Y143368D01*
X300888Y141033D01*
X300871Y141000D01*
X300847Y140971D01*
X300814Y140891D01*
X300775Y140815D01*
X300773Y140804D01*
X300590Y140622D01*
X300571Y140595D01*
X300519Y140539D01*
X300363Y140331D01*
X300350Y140327D01*
X300319Y140305D01*
X300285Y140290D01*
X300154Y140186D01*
X298091Y138123D01*
X298070Y138092D01*
X298042Y138068D01*
X297998Y137993D01*
X297948Y137923D01*
X297945Y137913D01*
X297738Y137758D01*
X297715Y137734D01*
X297655Y137687D01*
X297472Y137503D01*
X297458Y137501D01*
X297425Y137483D01*
X297389Y137474D01*
X297244Y137389D01*
X294909Y135640D01*
X294883Y135613D01*
X294852Y135593D01*
X294798Y135525D01*
X294738Y135463D01*
X294734Y135454D01*
X294507Y135330D01*
X294481Y135310D01*
X294415Y135271D01*
X294207Y135115D01*
X294193Y135115D01*
X294158Y135102D01*
X294121Y135098D01*
X293966Y135034D01*
X291405Y133636D01*
X291376Y133613D01*
X291342Y133597D01*
X291279Y133538D01*
X291211Y133485D01*
X291205Y133476D01*
X290963Y133386D01*
X290935Y133370D01*
X290864Y133341D01*
X290636Y133216D01*
X290622Y133218D01*
X290586Y133211D01*
X290548Y133211D01*
X290386Y133171D01*
X287652Y132151D01*
X287620Y132132D01*
X287584Y132122D01*
X287514Y132072D01*
X287439Y132029D01*
X287432Y132021D01*
X287179Y131966D01*
X287148Y131954D01*
X287075Y131936D01*
X286831Y131845D01*
X286818Y131849D01*
X286780Y131846D01*
X286744Y131853D01*
X286577Y131835D01*
X283726Y131215D01*
X283691Y131201D01*
X283654Y131196D01*
X283578Y131156D01*
X283497Y131125D01*
X283489Y131118D01*
X283231Y131099D01*
X283199Y131092D01*
X283124Y131084D01*
X282870Y131029D01*
X282857Y131034D01*
X282820Y131038D01*
X282784Y131049D01*
X282617Y131056D01*
X279767Y130852D01*
X279705Y130837D01*
X279640Y130832D01*
X279588Y130809D01*
X279201Y130809D01*
X279181Y130806D01*
X279146Y130807D01*
X278770Y130780D01*
X278744Y130791D01*
X278659Y130800D01*
X278627Y130808D01*
X278609Y130806D01*
X278578Y130809D01*
X276158Y130809D01*
X276095Y130799D01*
X276031Y130798D01*
X275976Y130780D01*
X275590Y130807D01*
G37*
%LPD*%
%LPC*%
G36*
X99568Y107693D02*
X99568Y107693D01*
X99548Y107691D01*
X99513Y107695D01*
X99136Y107695D01*
X99112Y107707D01*
X99028Y107723D01*
X98996Y107733D01*
X98977Y107732D01*
X98947Y107738D01*
X96224Y107932D01*
X96187Y107929D01*
X96150Y107934D01*
X96065Y107918D01*
X95979Y107910D01*
X95970Y107906D01*
X95717Y107961D01*
X95684Y107963D01*
X95609Y107976D01*
X95350Y107995D01*
X95339Y108004D01*
X95304Y108018D01*
X95274Y108038D01*
X95115Y108092D01*
X94961Y108126D01*
X92388Y108685D01*
X92350Y108687D01*
X92315Y108697D01*
X92228Y108693D01*
X92142Y108698D01*
X92132Y108695D01*
X91890Y108786D01*
X91858Y108792D01*
X91786Y108816D01*
X91532Y108871D01*
X91522Y108882D01*
X91490Y108900D01*
X91462Y108925D01*
X91312Y109001D01*
X88698Y109976D01*
X88661Y109983D01*
X88627Y109999D01*
X88541Y110007D01*
X88456Y110024D01*
X88446Y110022D01*
X88219Y110146D01*
X88188Y110157D01*
X88120Y110192D01*
X87877Y110282D01*
X87869Y110294D01*
X87839Y110317D01*
X87816Y110346D01*
X87678Y110442D01*
X85229Y111779D01*
X85194Y111792D01*
X85162Y111812D01*
X85078Y111832D01*
X84997Y111861D01*
X84986Y111861D01*
X84779Y112016D01*
X84750Y112031D01*
X84688Y112075D01*
X84460Y112199D01*
X84454Y112212D01*
X84428Y112239D01*
X84408Y112270D01*
X84286Y112385D01*
X82052Y114058D01*
X82019Y114075D01*
X81991Y114099D01*
X81910Y114131D01*
X81834Y114171D01*
X81824Y114173D01*
X81641Y114356D01*
X81614Y114375D01*
X81559Y114427D01*
X81350Y114583D01*
X81346Y114596D01*
X81324Y114626D01*
X81310Y114661D01*
X81205Y114791D01*
X79231Y116765D01*
X79201Y116787D01*
X79177Y116815D01*
X79102Y116858D01*
X79032Y116908D01*
X79022Y116911D01*
X78867Y117119D01*
X78843Y117141D01*
X78796Y117201D01*
X78612Y117384D01*
X78610Y117398D01*
X78592Y117431D01*
X78583Y117467D01*
X78498Y117612D01*
X76825Y119846D01*
X76798Y119872D01*
X76778Y119903D01*
X76710Y119957D01*
X76648Y120016D01*
X76639Y120021D01*
X76515Y120248D01*
X76494Y120274D01*
X76456Y120339D01*
X76300Y120547D01*
X76300Y120561D01*
X76287Y120597D01*
X76283Y120634D01*
X76219Y120789D01*
X74882Y123238D01*
X74859Y123268D01*
X74843Y123301D01*
X74784Y123364D01*
X74731Y123432D01*
X74722Y123438D01*
X74632Y123680D01*
X74615Y123708D01*
X74586Y123779D01*
X74462Y124007D01*
X74464Y124021D01*
X74456Y124058D01*
X74457Y124095D01*
X74416Y124258D01*
X73441Y126872D01*
X73422Y126905D01*
X73412Y126940D01*
X73362Y127011D01*
X73319Y127086D01*
X73311Y127093D01*
X73256Y127346D01*
X73244Y127376D01*
X73226Y127450D01*
X73135Y127693D01*
X73138Y127707D01*
X73136Y127744D01*
X73143Y127781D01*
X73125Y127948D01*
X72532Y130675D01*
X72518Y130709D01*
X72513Y130746D01*
X72473Y130823D01*
X72442Y130903D01*
X72435Y130911D01*
X72416Y131169D01*
X72409Y131201D01*
X72401Y131277D01*
X72346Y131531D01*
X72351Y131544D01*
X72354Y131581D01*
X72366Y131616D01*
X72372Y131782D01*
X72372Y131784D01*
X72178Y134507D01*
X72163Y134569D01*
X72158Y134634D01*
X72135Y134686D01*
X72135Y135073D01*
X72132Y135093D01*
X72133Y135128D01*
X72106Y135504D01*
X72117Y135530D01*
X72126Y135615D01*
X72134Y135647D01*
X72132Y135666D01*
X72135Y135696D01*
X72135Y136338D01*
X72134Y136346D01*
X72134Y136350D01*
X72130Y136367D01*
X72125Y136401D01*
X72124Y136465D01*
X72106Y136520D01*
X72133Y136906D01*
X72131Y136926D01*
X72135Y136961D01*
X72135Y137338D01*
X72147Y137362D01*
X72163Y137446D01*
X72173Y137478D01*
X72172Y137497D01*
X72178Y137527D01*
X72391Y140503D01*
X72387Y140540D01*
X72392Y140577D01*
X72376Y140662D01*
X72368Y140748D01*
X72364Y140757D01*
X72419Y141010D01*
X72421Y141043D01*
X72435Y141118D01*
X72453Y141377D01*
X72462Y141388D01*
X72476Y141423D01*
X72497Y141453D01*
X72550Y141612D01*
X73197Y144587D01*
X73199Y144625D01*
X73209Y144660D01*
X73206Y144747D01*
X73210Y144833D01*
X73207Y144843D01*
X73298Y145085D01*
X73304Y145117D01*
X73328Y145189D01*
X73383Y145443D01*
X73394Y145453D01*
X73412Y145485D01*
X73437Y145513D01*
X73513Y145663D01*
X74577Y148515D01*
X74584Y148552D01*
X74599Y148586D01*
X74608Y148672D01*
X74624Y148756D01*
X74623Y148767D01*
X74747Y148994D01*
X74758Y149025D01*
X74792Y149093D01*
X74883Y149336D01*
X74895Y149344D01*
X74917Y149373D01*
X74946Y149397D01*
X75042Y149534D01*
X76502Y152207D01*
X76514Y152242D01*
X76534Y152273D01*
X76554Y152357D01*
X76583Y152439D01*
X76583Y152449D01*
X76738Y152656D01*
X76753Y152685D01*
X76797Y152747D01*
X76921Y152975D01*
X76934Y152982D01*
X76961Y153008D01*
X76993Y153027D01*
X77107Y153149D01*
X78932Y155587D01*
X78949Y155619D01*
X78973Y155648D01*
X79006Y155728D01*
X79046Y155805D01*
X79047Y155815D01*
X79230Y155998D01*
X79249Y156024D01*
X79301Y156080D01*
X79457Y156288D01*
X79470Y156292D01*
X79501Y156314D01*
X79535Y156329D01*
X79666Y156433D01*
X81819Y158586D01*
X81840Y158616D01*
X81868Y158641D01*
X81912Y158716D01*
X81962Y158786D01*
X81965Y158796D01*
X82172Y158951D01*
X82195Y158975D01*
X82254Y159022D01*
X82438Y159206D01*
X82452Y159208D01*
X82485Y159225D01*
X82521Y159235D01*
X82665Y159320D01*
X85103Y161145D01*
X85128Y161171D01*
X85160Y161192D01*
X85213Y161260D01*
X85273Y161322D01*
X85278Y161331D01*
X85505Y161455D01*
X85531Y161475D01*
X85596Y161514D01*
X85804Y161670D01*
X85818Y161670D01*
X85853Y161682D01*
X85890Y161687D01*
X86045Y161750D01*
X88718Y163210D01*
X88747Y163233D01*
X88781Y163248D01*
X88843Y163308D01*
X88912Y163361D01*
X88917Y163369D01*
X89159Y163460D01*
X89188Y163476D01*
X89258Y163505D01*
X89486Y163629D01*
X89501Y163628D01*
X89537Y163635D01*
X89574Y163634D01*
X89737Y163675D01*
X92590Y164739D01*
X92622Y164758D01*
X92658Y164768D01*
X92728Y164818D01*
X92803Y164861D01*
X92810Y164869D01*
X93063Y164924D01*
X93093Y164936D01*
X93167Y164954D01*
X93410Y165045D01*
X93424Y165041D01*
X93461Y165044D01*
X93498Y165037D01*
X93665Y165055D01*
X96640Y165702D01*
X96674Y165716D01*
X96711Y165721D01*
X96788Y165761D01*
X96868Y165792D01*
X96876Y165799D01*
X97134Y165817D01*
X97166Y165825D01*
X97242Y165833D01*
X97496Y165888D01*
X97509Y165883D01*
X97546Y165879D01*
X97581Y165868D01*
X97749Y165861D01*
X98810Y165937D01*
X98872Y165952D01*
X98936Y165957D01*
X98991Y165980D01*
X99049Y165994D01*
X99104Y166028D01*
X99163Y166054D01*
X99230Y166107D01*
X99258Y166125D01*
X99269Y166139D01*
X99271Y166140D01*
X99568Y166119D01*
X99589Y166121D01*
X99623Y166117D01*
X101291Y166117D01*
X101311Y166120D01*
X101346Y166119D01*
X101722Y166146D01*
X101748Y166135D01*
X101833Y166126D01*
X101865Y166118D01*
X101883Y166120D01*
X101914Y166117D01*
X103440Y166117D01*
X103533Y166024D01*
X103541Y166018D01*
X103547Y166010D01*
X103632Y165952D01*
X103647Y165938D01*
X103666Y165928D01*
X103733Y165880D01*
X103742Y165877D01*
X103750Y165872D01*
X103851Y165838D01*
X103868Y165830D01*
X103885Y165827D01*
X103909Y165818D01*
X103925Y165815D01*
X103949Y165814D01*
X103968Y165808D01*
X103984Y165808D01*
X104033Y165799D01*
X104292Y165781D01*
X104303Y165772D01*
X104338Y165758D01*
X104368Y165737D01*
X104527Y165684D01*
X107750Y164983D01*
X107787Y164981D01*
X107823Y164971D01*
X107910Y164974D01*
X107996Y164970D01*
X108006Y164973D01*
X108248Y164882D01*
X108280Y164876D01*
X108352Y164852D01*
X108606Y164797D01*
X108616Y164786D01*
X108648Y164768D01*
X108676Y164743D01*
X108825Y164667D01*
X111916Y163514D01*
X111952Y163507D01*
X111986Y163492D01*
X112072Y163484D01*
X112157Y163467D01*
X112167Y163468D01*
X112394Y163344D01*
X112425Y163333D01*
X112493Y163299D01*
X112736Y163208D01*
X112744Y163197D01*
X112774Y163174D01*
X112798Y163145D01*
X112888Y163082D01*
X112908Y163064D01*
X112919Y163060D01*
X112935Y163049D01*
X115830Y161468D01*
X115865Y161456D01*
X115896Y161436D01*
X115980Y161415D01*
X116062Y161387D01*
X116072Y161387D01*
X116279Y161232D01*
X116308Y161217D01*
X116371Y161173D01*
X116599Y161048D01*
X116605Y161036D01*
X116631Y161009D01*
X116650Y160977D01*
X116773Y160862D01*
X119413Y158886D01*
X119446Y158869D01*
X119474Y158844D01*
X119555Y158812D01*
X119631Y158772D01*
X119641Y158771D01*
X119824Y158588D01*
X119851Y158569D01*
X119906Y158517D01*
X120114Y158361D01*
X120118Y158347D01*
X120140Y158317D01*
X120155Y158283D01*
X120260Y158152D01*
X122592Y155820D01*
X122622Y155798D01*
X122647Y155770D01*
X122722Y155727D01*
X122792Y155676D01*
X122802Y155673D01*
X122957Y155466D01*
X122980Y155443D01*
X123028Y155384D01*
X123211Y155200D01*
X123214Y155186D01*
X123231Y155153D01*
X123241Y155117D01*
X123326Y154973D01*
X125302Y152333D01*
X125329Y152307D01*
X125350Y152275D01*
X125417Y152222D01*
X125480Y152162D01*
X125489Y152158D01*
X125613Y151931D01*
X125633Y151905D01*
X125672Y151839D01*
X125827Y151631D01*
X125828Y151617D01*
X125840Y151582D01*
X125845Y151545D01*
X125908Y151390D01*
X127489Y148495D01*
X127512Y148466D01*
X127528Y148432D01*
X127587Y148369D01*
X127640Y148301D01*
X127649Y148295D01*
X127739Y148053D01*
X127755Y148025D01*
X127784Y147954D01*
X127909Y147726D01*
X127907Y147712D01*
X127914Y147675D01*
X127913Y147638D01*
X127954Y147476D01*
X129107Y144385D01*
X129126Y144353D01*
X129136Y144317D01*
X129186Y144247D01*
X129229Y144172D01*
X129237Y144165D01*
X129292Y143912D01*
X129304Y143882D01*
X129322Y143808D01*
X129413Y143565D01*
X129409Y143551D01*
X129412Y143514D01*
X129405Y143477D01*
X129423Y143310D01*
X130124Y140087D01*
X130138Y140053D01*
X130143Y140016D01*
X130182Y139939D01*
X130214Y139859D01*
X130221Y139851D01*
X130239Y139593D01*
X130247Y139561D01*
X130255Y139485D01*
X130310Y139231D01*
X130304Y139218D01*
X130301Y139181D01*
X130290Y139146D01*
X130283Y138978D01*
X130514Y135749D01*
X130529Y135687D01*
X130534Y135622D01*
X130557Y135570D01*
X130557Y135183D01*
X130560Y135163D01*
X130559Y135128D01*
X130586Y134752D01*
X130575Y134726D01*
X130566Y134641D01*
X130558Y134609D01*
X130560Y134591D01*
X130557Y134560D01*
X130557Y133918D01*
X130567Y133855D01*
X130568Y133790D01*
X130586Y133736D01*
X130559Y133350D01*
X130561Y133330D01*
X130557Y133295D01*
X130557Y132918D01*
X130545Y132894D01*
X130529Y132810D01*
X130519Y132778D01*
X130520Y132759D01*
X130514Y132729D01*
X130338Y130259D01*
X130341Y130222D01*
X130336Y130185D01*
X130352Y130100D01*
X130360Y130014D01*
X130364Y130005D01*
X130309Y129752D01*
X130307Y129719D01*
X130294Y129644D01*
X130275Y129385D01*
X130266Y129374D01*
X130253Y129340D01*
X130232Y129309D01*
X130178Y129150D01*
X129639Y126671D01*
X129637Y126633D01*
X129627Y126597D01*
X129631Y126511D01*
X129626Y126425D01*
X129629Y126415D01*
X129538Y126173D01*
X129532Y126141D01*
X129508Y126069D01*
X129453Y125815D01*
X129442Y125805D01*
X129424Y125773D01*
X129399Y125745D01*
X129323Y125595D01*
X128436Y123218D01*
X128429Y123182D01*
X128414Y123148D01*
X128406Y123062D01*
X128389Y122977D01*
X128390Y122967D01*
X128266Y122740D01*
X128255Y122709D01*
X128221Y122641D01*
X128130Y122397D01*
X128119Y122390D01*
X128096Y122360D01*
X128067Y122336D01*
X127971Y122199D01*
X126755Y119972D01*
X126743Y119937D01*
X126723Y119905D01*
X126702Y119822D01*
X126674Y119740D01*
X126673Y119730D01*
X126518Y119523D01*
X126503Y119494D01*
X126460Y119431D01*
X126335Y119203D01*
X126322Y119197D01*
X126296Y119171D01*
X126264Y119152D01*
X126149Y119029D01*
X124629Y116998D01*
X124612Y116965D01*
X124587Y116937D01*
X124555Y116857D01*
X124515Y116780D01*
X124513Y116770D01*
X124331Y116587D01*
X124312Y116560D01*
X124259Y116505D01*
X124104Y116297D01*
X124090Y116293D01*
X124060Y116271D01*
X124026Y116256D01*
X123895Y116151D01*
X122101Y114357D01*
X122079Y114327D01*
X122051Y114302D01*
X122008Y114227D01*
X121957Y114157D01*
X121954Y114148D01*
X121747Y113993D01*
X121724Y113969D01*
X121665Y113921D01*
X121481Y113738D01*
X121467Y113735D01*
X121434Y113718D01*
X121398Y113708D01*
X121254Y113623D01*
X119223Y112103D01*
X119197Y112076D01*
X119166Y112056D01*
X119112Y111988D01*
X119052Y111926D01*
X119048Y111916D01*
X118821Y111792D01*
X118795Y111772D01*
X118729Y111734D01*
X118521Y111578D01*
X118507Y111578D01*
X118472Y111565D01*
X118435Y111561D01*
X118280Y111497D01*
X116053Y110281D01*
X116024Y110258D01*
X115990Y110242D01*
X115927Y110183D01*
X115859Y110130D01*
X115854Y110121D01*
X115611Y110031D01*
X115583Y110015D01*
X115512Y109986D01*
X115284Y109861D01*
X115270Y109863D01*
X115234Y109856D01*
X115196Y109856D01*
X115034Y109816D01*
X112657Y108929D01*
X112624Y108910D01*
X112589Y108900D01*
X112518Y108850D01*
X112443Y108807D01*
X112436Y108799D01*
X112183Y108744D01*
X112153Y108732D01*
X112079Y108714D01*
X111836Y108623D01*
X111822Y108626D01*
X111785Y108624D01*
X111748Y108631D01*
X111581Y108613D01*
X109102Y108074D01*
X109068Y108060D01*
X109031Y108055D01*
X108954Y108015D01*
X108874Y107983D01*
X108866Y107977D01*
X108608Y107958D01*
X108576Y107951D01*
X108500Y107943D01*
X108246Y107888D01*
X108233Y107893D01*
X108196Y107896D01*
X108161Y107908D01*
X107993Y107914D01*
X105523Y107738D01*
X105461Y107723D01*
X105396Y107718D01*
X105344Y107695D01*
X104957Y107695D01*
X104937Y107692D01*
X104902Y107693D01*
X104526Y107666D01*
X104500Y107677D01*
X104415Y107686D01*
X104383Y107694D01*
X104364Y107692D01*
X104334Y107695D01*
X100136Y107695D01*
X100073Y107685D01*
X100009Y107684D01*
X99954Y107666D01*
X99568Y107693D01*
G37*
%LPD*%
%LPC*%
G36*
X687183Y255805D02*
X687183Y255805D01*
X685046Y256691D01*
X683411Y258326D01*
X682525Y260463D01*
X682525Y262777D01*
X683411Y264914D01*
X685046Y266549D01*
X687183Y267435D01*
X687373Y267435D01*
X687463Y267449D01*
X687554Y267457D01*
X687583Y267469D01*
X687615Y267474D01*
X687696Y267517D01*
X687780Y267553D01*
X687812Y267579D01*
X687833Y267590D01*
X687855Y267613D01*
X687911Y267658D01*
X716641Y296388D01*
X716683Y296446D01*
X716732Y296498D01*
X716754Y296545D01*
X716784Y296587D01*
X716806Y296656D01*
X716836Y296721D01*
X716842Y296773D01*
X716857Y296823D01*
X716855Y296894D01*
X716863Y296965D01*
X716852Y297016D01*
X716850Y297068D01*
X716826Y297136D01*
X716811Y297206D01*
X716784Y297251D01*
X716766Y297299D01*
X716721Y297355D01*
X716684Y297417D01*
X716645Y297451D01*
X716612Y297491D01*
X716552Y297530D01*
X716498Y297577D01*
X716449Y297596D01*
X716405Y297624D01*
X716336Y297642D01*
X716269Y297669D01*
X716198Y297677D01*
X716167Y297685D01*
X716144Y297683D01*
X716103Y297687D01*
X705006Y297687D01*
X704916Y297673D01*
X704825Y297665D01*
X704795Y297653D01*
X704763Y297648D01*
X704682Y297605D01*
X704599Y297569D01*
X704566Y297543D01*
X704546Y297532D01*
X704524Y297509D01*
X704468Y297464D01*
X704334Y297331D01*
X702197Y296445D01*
X699883Y296445D01*
X697746Y297331D01*
X696111Y298966D01*
X695225Y301103D01*
X695225Y303417D01*
X696111Y305554D01*
X697746Y307189D01*
X699883Y308075D01*
X702197Y308075D01*
X704334Y307189D01*
X704468Y307056D01*
X704542Y307003D01*
X704611Y306943D01*
X704641Y306931D01*
X704667Y306912D01*
X704754Y306885D01*
X704839Y306851D01*
X704880Y306847D01*
X704902Y306840D01*
X704935Y306841D01*
X705006Y306833D01*
X808834Y306833D01*
X808924Y306847D01*
X809015Y306855D01*
X809045Y306867D01*
X809077Y306872D01*
X809158Y306915D01*
X809241Y306951D01*
X809274Y306977D01*
X809294Y306988D01*
X809316Y307011D01*
X809372Y307056D01*
X809506Y307189D01*
X811643Y308075D01*
X813957Y308075D01*
X816094Y307189D01*
X817729Y305554D01*
X818615Y303417D01*
X818615Y301103D01*
X817729Y298966D01*
X816094Y297331D01*
X813957Y296445D01*
X811643Y296445D01*
X809506Y297331D01*
X809372Y297464D01*
X809298Y297517D01*
X809229Y297577D01*
X809199Y297589D01*
X809173Y297608D01*
X809086Y297635D01*
X809001Y297669D01*
X808960Y297673D01*
X808938Y297680D01*
X808905Y297679D01*
X808834Y297687D01*
X804574Y297687D01*
X804503Y297676D01*
X804431Y297674D01*
X804382Y297656D01*
X804331Y297648D01*
X804268Y297614D01*
X804200Y297589D01*
X804160Y297557D01*
X804114Y297532D01*
X804064Y297480D01*
X804008Y297436D01*
X803980Y297392D01*
X803944Y297354D01*
X803914Y297289D01*
X803875Y297229D01*
X803863Y297178D01*
X803841Y297131D01*
X803833Y297060D01*
X803815Y296990D01*
X803819Y296938D01*
X803814Y296887D01*
X803829Y296816D01*
X803834Y296745D01*
X803855Y296697D01*
X803866Y296646D01*
X803903Y296585D01*
X803931Y296519D01*
X803976Y296463D01*
X803992Y296435D01*
X804010Y296420D01*
X804036Y296388D01*
X805029Y295394D01*
X805915Y293257D01*
X805915Y290943D01*
X805029Y288806D01*
X803394Y287171D01*
X801257Y286285D01*
X798943Y286285D01*
X796806Y287171D01*
X796672Y287304D01*
X796598Y287357D01*
X796529Y287417D01*
X796499Y287429D01*
X796473Y287448D01*
X796386Y287475D01*
X796301Y287509D01*
X796260Y287513D01*
X796238Y287520D01*
X796205Y287519D01*
X796134Y287527D01*
X721029Y287527D01*
X720939Y287513D01*
X720848Y287505D01*
X720819Y287493D01*
X720787Y287488D01*
X720706Y287445D01*
X720622Y287409D01*
X720590Y287383D01*
X720569Y287372D01*
X720547Y287349D01*
X720491Y287304D01*
X694378Y261191D01*
X694325Y261117D01*
X694265Y261047D01*
X694253Y261017D01*
X694234Y260991D01*
X694207Y260904D01*
X694173Y260819D01*
X694169Y260778D01*
X694162Y260756D01*
X694163Y260724D01*
X694155Y260653D01*
X694155Y260463D01*
X693269Y258326D01*
X691634Y256691D01*
X689497Y255805D01*
X687183Y255805D01*
G37*
%LPD*%
%LPC*%
G36*
X665593Y168175D02*
X665593Y168175D01*
X663456Y169061D01*
X661821Y170696D01*
X660935Y172833D01*
X660935Y175147D01*
X661821Y177284D01*
X663456Y178919D01*
X665593Y179805D01*
X666501Y179805D01*
X666591Y179819D01*
X666682Y179827D01*
X666712Y179839D01*
X666744Y179844D01*
X666824Y179887D01*
X666908Y179923D01*
X666940Y179949D01*
X666961Y179960D01*
X666983Y179983D01*
X667039Y180028D01*
X670146Y183135D01*
X778528Y183135D01*
X778573Y183142D01*
X778619Y183140D01*
X778694Y183162D01*
X778770Y183174D01*
X778811Y183196D01*
X778855Y183209D01*
X778919Y183253D01*
X778988Y183290D01*
X779019Y183323D01*
X779057Y183349D01*
X779103Y183412D01*
X779157Y183468D01*
X779176Y183510D01*
X779204Y183546D01*
X779228Y183620D01*
X779261Y183691D01*
X779266Y183737D01*
X779280Y183780D01*
X779279Y183858D01*
X779288Y183935D01*
X779278Y183980D01*
X779278Y184026D01*
X779239Y184158D01*
X779236Y184176D01*
X779233Y184180D01*
X779231Y184187D01*
X778410Y186168D01*
X778410Y188482D01*
X779296Y190619D01*
X779429Y190753D01*
X779482Y190827D01*
X779542Y190896D01*
X779554Y190926D01*
X779573Y190952D01*
X779600Y191039D01*
X779634Y191124D01*
X779638Y191165D01*
X779645Y191187D01*
X779644Y191220D01*
X779652Y191291D01*
X779652Y221459D01*
X779638Y221549D01*
X779630Y221640D01*
X779618Y221670D01*
X779613Y221702D01*
X779570Y221783D01*
X779534Y221866D01*
X779508Y221899D01*
X779497Y221919D01*
X779474Y221941D01*
X779429Y221997D01*
X778661Y222766D01*
X777775Y224903D01*
X777775Y227217D01*
X778661Y229354D01*
X780296Y230989D01*
X782433Y231875D01*
X784747Y231875D01*
X786884Y230989D01*
X788519Y229354D01*
X789405Y227217D01*
X789405Y224903D01*
X788856Y223578D01*
X788841Y223514D01*
X788816Y223453D01*
X788807Y223370D01*
X788800Y223338D01*
X788801Y223319D01*
X788798Y223287D01*
X788798Y191291D01*
X788812Y191201D01*
X788820Y191110D01*
X788832Y191080D01*
X788837Y191048D01*
X788880Y190967D01*
X788916Y190884D01*
X788942Y190851D01*
X788953Y190831D01*
X788976Y190809D01*
X789021Y190753D01*
X789154Y190619D01*
X790040Y188482D01*
X790040Y186168D01*
X789219Y184187D01*
X789209Y184143D01*
X789189Y184101D01*
X789181Y184024D01*
X789163Y183948D01*
X789167Y183902D01*
X789162Y183857D01*
X789179Y183780D01*
X789186Y183703D01*
X789205Y183661D01*
X789214Y183616D01*
X789254Y183549D01*
X789286Y183478D01*
X789317Y183444D01*
X789341Y183405D01*
X789400Y183354D01*
X789452Y183297D01*
X789493Y183275D01*
X789528Y183245D01*
X789600Y183216D01*
X789668Y183179D01*
X789713Y183170D01*
X789756Y183153D01*
X789892Y183138D01*
X789910Y183135D01*
X789915Y183136D01*
X789922Y183135D01*
X889606Y183135D01*
X889696Y183149D01*
X889787Y183157D01*
X889817Y183169D01*
X889849Y183174D01*
X889930Y183217D01*
X890013Y183253D01*
X890046Y183279D01*
X890066Y183290D01*
X890088Y183313D01*
X890144Y183358D01*
X890786Y183999D01*
X892923Y184885D01*
X895237Y184885D01*
X897374Y183999D01*
X899009Y182364D01*
X899895Y180227D01*
X899895Y177913D01*
X899009Y175776D01*
X897374Y174141D01*
X895237Y173255D01*
X892923Y173255D01*
X890786Y174141D01*
X890144Y174782D01*
X890070Y174835D01*
X890001Y174895D01*
X889971Y174907D01*
X889945Y174926D01*
X889858Y174953D01*
X889773Y174987D01*
X889732Y174991D01*
X889710Y174998D01*
X889677Y174997D01*
X889606Y175005D01*
X673829Y175005D01*
X673739Y174991D01*
X673648Y174983D01*
X673618Y174971D01*
X673586Y174966D01*
X673506Y174923D01*
X673422Y174887D01*
X673390Y174861D01*
X673369Y174850D01*
X673347Y174827D01*
X673291Y174782D01*
X672788Y174279D01*
X672735Y174205D01*
X672675Y174136D01*
X672663Y174106D01*
X672644Y174080D01*
X672617Y173993D01*
X672583Y173908D01*
X672579Y173867D01*
X672572Y173844D01*
X672573Y173812D01*
X672565Y173741D01*
X672565Y172833D01*
X671679Y170696D01*
X670044Y169061D01*
X667907Y168175D01*
X665593Y168175D01*
G37*
%LPD*%
%LPC*%
G36*
X474985Y307972D02*
X474985Y307972D01*
X474963Y307970D01*
X474925Y307974D01*
X474603Y307974D01*
X474581Y307985D01*
X474492Y308002D01*
X474460Y308012D01*
X474443Y308011D01*
X474416Y308017D01*
X471807Y308222D01*
X471775Y308219D01*
X471743Y308224D01*
X471653Y308209D01*
X471561Y308202D01*
X471559Y308200D01*
X471362Y308248D01*
X471330Y308250D01*
X471244Y308266D01*
X471039Y308282D01*
X471028Y308292D01*
X470998Y308304D01*
X470972Y308322D01*
X470814Y308379D01*
X468209Y309005D01*
X468177Y309007D01*
X468147Y309017D01*
X468055Y309016D01*
X467964Y309023D01*
X467961Y309022D01*
X467774Y309099D01*
X467742Y309107D01*
X467661Y309136D01*
X467460Y309184D01*
X467450Y309196D01*
X467423Y309212D01*
X467400Y309234D01*
X467253Y309315D01*
X464778Y310341D01*
X464747Y310348D01*
X464718Y310362D01*
X464628Y310376D01*
X464538Y310397D01*
X464536Y310396D01*
X464363Y310502D01*
X464333Y310514D01*
X464257Y310556D01*
X464067Y310635D01*
X464059Y310648D01*
X464034Y310668D01*
X464015Y310694D01*
X463883Y310797D01*
X463082Y311287D01*
X461598Y312197D01*
X461569Y312209D01*
X461543Y312227D01*
X461455Y312255D01*
X461370Y312290D01*
X461368Y312290D01*
X461214Y312421D01*
X461186Y312438D01*
X461117Y312491D01*
X460942Y312599D01*
X460936Y312613D01*
X460915Y312637D01*
X460900Y312665D01*
X460785Y312787D01*
X458748Y314527D01*
X458721Y314544D01*
X458698Y314566D01*
X458616Y314607D01*
X458537Y314655D01*
X458535Y314655D01*
X458404Y314809D01*
X458378Y314830D01*
X458319Y314894D01*
X458162Y315027D01*
X458159Y315042D01*
X458142Y315069D01*
X458132Y315099D01*
X458037Y315238D01*
X456297Y317275D01*
X456273Y317296D01*
X456254Y317321D01*
X456180Y317375D01*
X456109Y317434D01*
X456107Y317435D01*
X456001Y317607D01*
X455980Y317632D01*
X455931Y317704D01*
X455797Y317861D01*
X455796Y317876D01*
X455783Y317905D01*
X455778Y317936D01*
X455707Y318088D01*
X454307Y320373D01*
X454286Y320397D01*
X454271Y320425D01*
X454206Y320489D01*
X454146Y320559D01*
X454144Y320560D01*
X454066Y320747D01*
X454049Y320775D01*
X454012Y320853D01*
X453904Y321029D01*
X453906Y321044D01*
X453898Y321075D01*
X453897Y321107D01*
X453851Y321268D01*
X452825Y323743D01*
X452808Y323770D01*
X452799Y323801D01*
X452744Y323874D01*
X452696Y323952D01*
X452694Y323954D01*
X452646Y324151D01*
X452634Y324181D01*
X452609Y324264D01*
X452531Y324455D01*
X452534Y324469D01*
X452531Y324501D01*
X452536Y324532D01*
X452515Y324699D01*
X451889Y327304D01*
X451877Y327333D01*
X451872Y327365D01*
X451829Y327446D01*
X451794Y327531D01*
X451792Y327533D01*
X451776Y327734D01*
X451768Y327766D01*
X451758Y327852D01*
X451710Y328053D01*
X451715Y328067D01*
X451717Y328098D01*
X451727Y328129D01*
X451732Y328297D01*
X451527Y330906D01*
X451512Y330966D01*
X451507Y331028D01*
X451484Y331082D01*
X451484Y331415D01*
X451481Y331437D01*
X451482Y331475D01*
X451457Y331796D01*
X451466Y331819D01*
X451476Y331909D01*
X451483Y331941D01*
X451481Y331958D01*
X451484Y331985D01*
X451484Y334759D01*
X451474Y334823D01*
X451473Y334887D01*
X451458Y334932D01*
X451482Y335276D01*
X451480Y335296D01*
X451484Y335330D01*
X451484Y335663D01*
X451493Y335680D01*
X451508Y335764D01*
X451518Y335796D01*
X451517Y335814D01*
X451523Y335845D01*
X451711Y338476D01*
X451708Y338514D01*
X451713Y338550D01*
X451697Y338635D01*
X451689Y338717D01*
X451736Y338932D01*
X451738Y338965D01*
X451752Y339040D01*
X451767Y339258D01*
X451768Y339260D01*
X451782Y339294D01*
X451803Y339325D01*
X451856Y339484D01*
X452429Y342117D01*
X452431Y342154D01*
X452441Y342190D01*
X452437Y342276D01*
X452441Y342358D01*
X452518Y342565D01*
X452525Y342597D01*
X452549Y342669D01*
X452595Y342883D01*
X452597Y342884D01*
X452615Y342916D01*
X452640Y342944D01*
X452716Y343094D01*
X453657Y345618D01*
X453664Y345655D01*
X453680Y345689D01*
X453688Y345775D01*
X453704Y345855D01*
X453809Y346048D01*
X453820Y346079D01*
X453855Y346147D01*
X453931Y346353D01*
X453933Y346354D01*
X453955Y346383D01*
X453984Y346407D01*
X454080Y346544D01*
X455371Y348909D01*
X455384Y348944D01*
X455404Y348976D01*
X455424Y349060D01*
X455451Y349137D01*
X455583Y349313D01*
X455598Y349342D01*
X455642Y349405D01*
X455747Y349597D01*
X455749Y349598D01*
X455760Y349609D01*
X455772Y349615D01*
X455787Y349631D01*
X455807Y349643D01*
X455922Y349765D01*
X457536Y351922D01*
X457554Y351955D01*
X457578Y351984D01*
X457610Y352064D01*
X457648Y352137D01*
X457804Y352292D01*
X457823Y352319D01*
X457875Y352375D01*
X458006Y352550D01*
X458008Y352550D01*
X458038Y352572D01*
X458072Y352587D01*
X458203Y352692D01*
X460108Y354597D01*
X460130Y354627D01*
X460158Y354652D01*
X460202Y354727D01*
X460249Y354793D01*
X460425Y354925D01*
X460442Y354942D01*
X460445Y354944D01*
X460455Y354954D01*
X460508Y354996D01*
X460663Y355151D01*
X460664Y355152D01*
X460697Y355169D01*
X460733Y355178D01*
X460878Y355264D01*
X463035Y356878D01*
X463060Y356905D01*
X463092Y356925D01*
X463145Y356993D01*
X463202Y357052D01*
X463395Y357158D01*
X463421Y357178D01*
X463487Y357217D01*
X463662Y357348D01*
X463664Y357348D01*
X463699Y357361D01*
X463736Y357365D01*
X463891Y357429D01*
X466256Y358720D01*
X466285Y358743D01*
X466319Y358758D01*
X466382Y358818D01*
X466447Y358869D01*
X466653Y358945D01*
X466681Y358962D01*
X466752Y358991D01*
X466944Y359096D01*
X466946Y359095D01*
X466982Y359103D01*
X467019Y359102D01*
X467182Y359143D01*
X469706Y360084D01*
X469739Y360103D01*
X469774Y360114D01*
X469845Y360164D01*
X469916Y360204D01*
X470131Y360251D01*
X470162Y360263D01*
X470235Y360282D01*
X470441Y360358D01*
X470442Y360358D01*
X470480Y360360D01*
X470516Y360354D01*
X470683Y360371D01*
X473316Y360944D01*
X473350Y360958D01*
X473387Y360963D01*
X473464Y361002D01*
X473541Y361033D01*
X473760Y361048D01*
X473792Y361056D01*
X473868Y361064D01*
X474082Y361110D01*
X474083Y361110D01*
X474120Y361107D01*
X474156Y361095D01*
X474324Y361089D01*
X475587Y361179D01*
X475650Y361194D01*
X475714Y361199D01*
X475768Y361222D01*
X475826Y361236D01*
X475881Y361270D01*
X475940Y361295D01*
X475991Y361336D01*
X476246Y361318D01*
X476266Y361320D01*
X476300Y361316D01*
X477470Y361316D01*
X477490Y361319D01*
X477524Y361318D01*
X477856Y361341D01*
X477874Y361334D01*
X477959Y361325D01*
X477991Y361317D01*
X478010Y361319D01*
X478041Y361316D01*
X480323Y361316D01*
X480570Y361069D01*
X480579Y361063D01*
X480585Y361055D01*
X480678Y360991D01*
X480680Y360990D01*
X480681Y360989D01*
X480770Y360925D01*
X480780Y360922D01*
X480788Y360917D01*
X480947Y360863D01*
X483445Y360320D01*
X483482Y360318D01*
X483518Y360308D01*
X483604Y360311D01*
X483686Y360307D01*
X483892Y360230D01*
X483924Y360224D01*
X483996Y360200D01*
X484211Y360153D01*
X484212Y360152D01*
X484244Y360134D01*
X484272Y360108D01*
X484422Y360033D01*
X487116Y359028D01*
X487152Y359021D01*
X487186Y359005D01*
X487272Y358997D01*
X487353Y358981D01*
X487546Y358876D01*
X487577Y358865D01*
X487645Y358831D01*
X487850Y358754D01*
X487851Y358753D01*
X487881Y358730D01*
X487904Y358701D01*
X488042Y358605D01*
X490566Y357227D01*
X490601Y357215D01*
X490632Y357195D01*
X490716Y357174D01*
X490794Y357147D01*
X490970Y357015D01*
X490999Y357000D01*
X491061Y356956D01*
X491254Y356851D01*
X491254Y356850D01*
X491280Y356823D01*
X491300Y356791D01*
X491422Y356676D01*
X493724Y354953D01*
X493757Y354936D01*
X493785Y354912D01*
X493866Y354880D01*
X493938Y354842D01*
X494094Y354686D01*
X494121Y354667D01*
X494176Y354615D01*
X494352Y354484D01*
X494352Y354482D01*
X494374Y354452D01*
X494389Y354418D01*
X494493Y354287D01*
X496527Y352253D01*
X496557Y352232D01*
X496582Y352204D01*
X496656Y352160D01*
X496723Y352112D01*
X496855Y351936D01*
X496878Y351914D01*
X496926Y351854D01*
X497081Y351699D01*
X497081Y351697D01*
X497099Y351664D01*
X497108Y351628D01*
X497193Y351484D01*
X498916Y349182D01*
X498943Y349156D01*
X498964Y349125D01*
X499032Y349071D01*
X499091Y349014D01*
X499196Y348821D01*
X499216Y348795D01*
X499255Y348730D01*
X499386Y348554D01*
X499386Y348553D01*
X499399Y348518D01*
X499403Y348481D01*
X499428Y348420D01*
X499428Y348419D01*
X499429Y348418D01*
X499467Y348326D01*
X500845Y345802D01*
X500868Y345773D01*
X500884Y345739D01*
X500943Y345676D01*
X500994Y345611D01*
X501071Y345405D01*
X501083Y345383D01*
X501085Y345374D01*
X501093Y345360D01*
X501116Y345306D01*
X501221Y345114D01*
X501221Y345112D01*
X501228Y345075D01*
X501227Y345038D01*
X501268Y344876D01*
X502273Y342182D01*
X502291Y342149D01*
X502302Y342114D01*
X502352Y342043D01*
X502393Y341972D01*
X502440Y341756D01*
X502452Y341726D01*
X502470Y341652D01*
X502547Y341447D01*
X502546Y341445D01*
X502549Y341408D01*
X502542Y341371D01*
X502560Y341205D01*
X503171Y338395D01*
X503185Y338360D01*
X503190Y338323D01*
X503230Y338247D01*
X503260Y338170D01*
X503276Y337951D01*
X503283Y337919D01*
X503291Y337843D01*
X503338Y337629D01*
X503337Y337627D01*
X503334Y337590D01*
X503322Y337555D01*
X503316Y337387D01*
X503517Y334575D01*
X503532Y334512D01*
X503537Y334448D01*
X503556Y334404D01*
X503556Y334060D01*
X503559Y334040D01*
X503558Y334006D01*
X503581Y333674D01*
X503574Y333656D01*
X503565Y333571D01*
X503557Y333538D01*
X503559Y333520D01*
X503556Y333489D01*
X503556Y333261D01*
X503566Y333197D01*
X503567Y333133D01*
X503582Y333088D01*
X503558Y332744D01*
X503560Y332724D01*
X503556Y332690D01*
X503556Y332357D01*
X503547Y332340D01*
X503532Y332256D01*
X503522Y332224D01*
X503523Y332206D01*
X503517Y332175D01*
X503342Y329724D01*
X503345Y329687D01*
X503340Y329650D01*
X503343Y329635D01*
X503342Y329628D01*
X503356Y329564D01*
X503364Y329483D01*
X503317Y329268D01*
X503315Y329236D01*
X503301Y329161D01*
X503286Y328942D01*
X503285Y328941D01*
X503271Y328906D01*
X503250Y328875D01*
X503197Y328716D01*
X502663Y326261D01*
X502661Y326224D01*
X502650Y326188D01*
X502654Y326102D01*
X502650Y326019D01*
X502573Y325813D01*
X502567Y325781D01*
X502542Y325709D01*
X502496Y325495D01*
X502495Y325494D01*
X502476Y325461D01*
X502451Y325434D01*
X502376Y325284D01*
X501498Y322930D01*
X501490Y322893D01*
X501475Y322859D01*
X501467Y322773D01*
X501451Y322692D01*
X501345Y322499D01*
X501334Y322468D01*
X501300Y322400D01*
X501224Y322195D01*
X501222Y322194D01*
X501199Y322164D01*
X501171Y322141D01*
X501075Y322003D01*
X499870Y319798D01*
X499858Y319763D01*
X499838Y319731D01*
X499817Y319647D01*
X499790Y319570D01*
X499658Y319393D01*
X499643Y319364D01*
X499600Y319302D01*
X499494Y319110D01*
X499493Y319109D01*
X499466Y319083D01*
X499434Y319064D01*
X499320Y318941D01*
X497814Y316929D01*
X497797Y316897D01*
X497772Y316868D01*
X497740Y316788D01*
X497702Y316715D01*
X497546Y316559D01*
X497527Y316533D01*
X497475Y316477D01*
X497344Y316302D01*
X497342Y316301D01*
X497312Y316279D01*
X497278Y316265D01*
X497147Y316160D01*
X495370Y314383D01*
X495348Y314353D01*
X495320Y314328D01*
X495277Y314253D01*
X495229Y314187D01*
X495053Y314055D01*
X495030Y314031D01*
X494971Y313984D01*
X494816Y313829D01*
X494814Y313828D01*
X494781Y313811D01*
X494745Y313801D01*
X494601Y313716D01*
X492589Y312210D01*
X492563Y312183D01*
X492532Y312163D01*
X492478Y312095D01*
X492421Y312036D01*
X492228Y311930D01*
X492202Y311910D01*
X492137Y311872D01*
X491961Y311740D01*
X491960Y311740D01*
X491924Y311728D01*
X491887Y311723D01*
X491732Y311660D01*
X489527Y310455D01*
X489497Y310433D01*
X489464Y310417D01*
X489401Y310357D01*
X489336Y310307D01*
X489130Y310230D01*
X489102Y310214D01*
X489031Y310185D01*
X488838Y310080D01*
X488837Y310080D01*
X488800Y310072D01*
X488763Y310073D01*
X488600Y310032D01*
X486246Y309154D01*
X486214Y309136D01*
X486178Y309125D01*
X486107Y309075D01*
X486036Y309034D01*
X485821Y308988D01*
X485790Y308975D01*
X485717Y308957D01*
X485511Y308880D01*
X485510Y308881D01*
X485472Y308879D01*
X485436Y308885D01*
X485269Y308867D01*
X482814Y308333D01*
X482779Y308320D01*
X482742Y308314D01*
X482665Y308275D01*
X482589Y308244D01*
X482369Y308229D01*
X482337Y308221D01*
X482262Y308213D01*
X482047Y308167D01*
X482046Y308167D01*
X482009Y308170D01*
X481973Y308182D01*
X481806Y308188D01*
X479355Y308013D01*
X479292Y307998D01*
X479228Y307993D01*
X479184Y307974D01*
X478840Y307974D01*
X478820Y307971D01*
X478786Y307972D01*
X478454Y307949D01*
X478436Y307956D01*
X478351Y307965D01*
X478319Y307973D01*
X478300Y307971D01*
X478269Y307974D01*
X475495Y307974D01*
X475434Y307964D01*
X475373Y307964D01*
X475317Y307946D01*
X474985Y307972D01*
G37*
%LPD*%
%LPC*%
G36*
X586853Y126265D02*
X586853Y126265D01*
X584716Y127151D01*
X584582Y127284D01*
X584508Y127337D01*
X584439Y127397D01*
X584409Y127409D01*
X584383Y127428D01*
X584296Y127455D01*
X584211Y127489D01*
X584170Y127493D01*
X584148Y127500D01*
X584115Y127499D01*
X584044Y127507D01*
X440066Y127507D01*
X388191Y179382D01*
X388117Y179435D01*
X388047Y179495D01*
X388017Y179507D01*
X387991Y179526D01*
X387904Y179553D01*
X387819Y179587D01*
X387778Y179591D01*
X387756Y179598D01*
X387724Y179597D01*
X387653Y179605D01*
X387463Y179605D01*
X385326Y180491D01*
X383691Y182126D01*
X382805Y184263D01*
X382805Y186577D01*
X383691Y188714D01*
X385326Y190349D01*
X387463Y191235D01*
X389777Y191235D01*
X391914Y190349D01*
X393549Y188714D01*
X394435Y186577D01*
X394435Y186387D01*
X394449Y186297D01*
X394457Y186206D01*
X394469Y186177D01*
X394474Y186145D01*
X394517Y186064D01*
X394553Y185980D01*
X394579Y185948D01*
X394590Y185927D01*
X394613Y185905D01*
X394658Y185849D01*
X443631Y136876D01*
X443705Y136823D01*
X443775Y136763D01*
X443805Y136751D01*
X443831Y136732D01*
X443918Y136705D01*
X444003Y136671D01*
X444044Y136667D01*
X444066Y136660D01*
X444098Y136661D01*
X444169Y136653D01*
X584044Y136653D01*
X584134Y136667D01*
X584225Y136675D01*
X584255Y136687D01*
X584287Y136692D01*
X584368Y136735D01*
X584451Y136771D01*
X584484Y136797D01*
X584504Y136808D01*
X584526Y136831D01*
X584582Y136876D01*
X584716Y137009D01*
X586853Y137895D01*
X589167Y137895D01*
X591304Y137009D01*
X592939Y135374D01*
X593825Y133237D01*
X593825Y130923D01*
X592939Y128786D01*
X591304Y127151D01*
X589167Y126265D01*
X586853Y126265D01*
G37*
%LPD*%
%LPC*%
G36*
X97100Y514245D02*
X97100Y514245D01*
X88786Y517689D01*
X82423Y524052D01*
X78979Y532366D01*
X78979Y541365D01*
X82423Y549679D01*
X88786Y556042D01*
X97100Y559486D01*
X106100Y559486D01*
X114414Y556042D01*
X120777Y549679D01*
X124221Y541365D01*
X124221Y532366D01*
X120777Y524052D01*
X114414Y517689D01*
X106100Y514245D01*
X97100Y514245D01*
G37*
%LPD*%
%LPC*%
G36*
X401433Y539015D02*
X401433Y539015D01*
X399296Y539901D01*
X397661Y541536D01*
X396775Y543673D01*
X396775Y545987D01*
X397661Y548124D01*
X399296Y549759D01*
X401433Y550645D01*
X403747Y550645D01*
X405884Y549759D01*
X406526Y549118D01*
X406600Y549065D01*
X406669Y549005D01*
X406699Y548993D01*
X406725Y548974D01*
X406812Y548947D01*
X406897Y548913D01*
X406938Y548909D01*
X406960Y548902D01*
X406993Y548903D01*
X407064Y548895D01*
X465361Y548895D01*
X465451Y548909D01*
X465542Y548917D01*
X465572Y548929D01*
X465604Y548934D01*
X465684Y548977D01*
X465768Y549013D01*
X465800Y549039D01*
X465821Y549050D01*
X465833Y549062D01*
X465834Y549063D01*
X465846Y549075D01*
X465899Y549118D01*
X473994Y557213D01*
X474047Y557287D01*
X474107Y557356D01*
X474119Y557386D01*
X474138Y557412D01*
X474165Y557499D01*
X474199Y557584D01*
X474203Y557625D01*
X474210Y557648D01*
X474209Y557680D01*
X474217Y557751D01*
X474217Y560088D01*
X475203Y562469D01*
X477026Y564292D01*
X479407Y565278D01*
X481983Y565278D01*
X484364Y564292D01*
X486187Y562469D01*
X487173Y560088D01*
X487173Y557512D01*
X486187Y555131D01*
X484364Y553308D01*
X481983Y552322D01*
X480916Y552322D01*
X480826Y552308D01*
X480735Y552300D01*
X480705Y552288D01*
X480673Y552283D01*
X480593Y552240D01*
X480509Y552204D01*
X480477Y552178D01*
X480456Y552167D01*
X480434Y552144D01*
X480378Y552099D01*
X469044Y540765D01*
X407064Y540765D01*
X406974Y540751D01*
X406883Y540743D01*
X406853Y540731D01*
X406821Y540726D01*
X406740Y540683D01*
X406657Y540647D01*
X406624Y540621D01*
X406604Y540610D01*
X406582Y540587D01*
X406526Y540542D01*
X405884Y539901D01*
X403747Y539015D01*
X401433Y539015D01*
G37*
%LPD*%
%LPC*%
G36*
X189536Y326733D02*
X189536Y326733D01*
X187398Y327618D01*
X185763Y329254D01*
X185671Y329475D01*
X185610Y329574D01*
X185550Y329675D01*
X185545Y329679D01*
X185541Y329684D01*
X185452Y329759D01*
X185363Y329835D01*
X185357Y329837D01*
X185352Y329841D01*
X185243Y329883D01*
X185134Y329927D01*
X185127Y329928D01*
X185122Y329929D01*
X185104Y329930D01*
X184968Y329945D01*
X153064Y329945D01*
X152974Y329931D01*
X152883Y329923D01*
X152853Y329911D01*
X152821Y329906D01*
X152740Y329863D01*
X152657Y329827D01*
X152624Y329801D01*
X152604Y329790D01*
X152582Y329767D01*
X152526Y329722D01*
X151884Y329081D01*
X149747Y328195D01*
X147433Y328195D01*
X145296Y329081D01*
X143661Y330716D01*
X142775Y332853D01*
X142775Y335167D01*
X143661Y337304D01*
X145296Y338939D01*
X147433Y339825D01*
X149747Y339825D01*
X151884Y338939D01*
X152526Y338298D01*
X152600Y338245D01*
X152669Y338185D01*
X152699Y338173D01*
X152725Y338154D01*
X152812Y338127D01*
X152897Y338093D01*
X152938Y338089D01*
X152960Y338082D01*
X152993Y338083D01*
X153064Y338075D01*
X188689Y338075D01*
X188754Y338085D01*
X188820Y338086D01*
X188900Y338109D01*
X188932Y338114D01*
X188949Y338124D01*
X188981Y338133D01*
X189536Y338363D01*
X191849Y338363D01*
X193986Y337477D01*
X195622Y335842D01*
X196507Y333704D01*
X196507Y331391D01*
X195622Y329254D01*
X193986Y327618D01*
X191849Y326733D01*
X189536Y326733D01*
G37*
%LPD*%
%LPC*%
G36*
X748143Y222785D02*
X748143Y222785D01*
X746006Y223671D01*
X744371Y225306D01*
X743485Y227443D01*
X743485Y229757D01*
X744371Y231894D01*
X744504Y232028D01*
X744557Y232102D01*
X744617Y232171D01*
X744629Y232201D01*
X744648Y232227D01*
X744675Y232314D01*
X744709Y232399D01*
X744713Y232440D01*
X744720Y232462D01*
X744719Y232495D01*
X744727Y232566D01*
X744727Y257654D01*
X744713Y257744D01*
X744705Y257835D01*
X744693Y257865D01*
X744688Y257897D01*
X744645Y257978D01*
X744609Y258061D01*
X744583Y258094D01*
X744572Y258114D01*
X744549Y258136D01*
X744504Y258192D01*
X744371Y258326D01*
X743485Y260463D01*
X743485Y262777D01*
X744371Y264914D01*
X746006Y266549D01*
X748143Y267435D01*
X750457Y267435D01*
X752594Y266549D01*
X754229Y264914D01*
X755115Y262777D01*
X755115Y260463D01*
X754229Y258326D01*
X754096Y258192D01*
X754043Y258118D01*
X753983Y258049D01*
X753971Y258019D01*
X753952Y257993D01*
X753925Y257906D01*
X753891Y257821D01*
X753887Y257780D01*
X753880Y257758D01*
X753881Y257725D01*
X753873Y257654D01*
X753873Y232566D01*
X753887Y232476D01*
X753895Y232385D01*
X753907Y232355D01*
X753912Y232323D01*
X753955Y232242D01*
X753991Y232159D01*
X754017Y232126D01*
X754028Y232106D01*
X754051Y232084D01*
X754096Y232028D01*
X754229Y231894D01*
X755115Y229757D01*
X755115Y227443D01*
X754229Y225306D01*
X752594Y223671D01*
X750457Y222785D01*
X748143Y222785D01*
G37*
%LPD*%
%LPC*%
G36*
X377303Y474245D02*
X377303Y474245D01*
X375166Y475131D01*
X373531Y476766D01*
X372645Y478903D01*
X372645Y479811D01*
X372631Y479901D01*
X372623Y479992D01*
X372611Y480022D01*
X372606Y480054D01*
X372563Y480134D01*
X372527Y480218D01*
X372501Y480250D01*
X372490Y480271D01*
X372467Y480293D01*
X372422Y480349D01*
X357193Y495579D01*
X357099Y495646D01*
X357004Y495717D01*
X356998Y495719D01*
X356993Y495722D01*
X356882Y495756D01*
X356770Y495793D01*
X356764Y495793D01*
X356758Y495795D01*
X356641Y495792D01*
X356524Y495791D01*
X356517Y495788D01*
X356512Y495788D01*
X356495Y495782D01*
X356363Y495744D01*
X354983Y495172D01*
X352407Y495172D01*
X350026Y496158D01*
X348203Y497981D01*
X347217Y500362D01*
X347217Y502938D01*
X348203Y505319D01*
X350026Y507142D01*
X352407Y508128D01*
X354983Y508128D01*
X357364Y507142D01*
X359187Y505319D01*
X359297Y505054D01*
X359331Y504998D01*
X359357Y504938D01*
X359409Y504873D01*
X359426Y504845D01*
X359441Y504832D01*
X359462Y504807D01*
X361158Y503111D01*
X378171Y486098D01*
X378245Y486045D01*
X378314Y485985D01*
X378344Y485973D01*
X378370Y485954D01*
X378457Y485927D01*
X378542Y485893D01*
X378583Y485889D01*
X378605Y485882D01*
X378638Y485883D01*
X378709Y485875D01*
X379617Y485875D01*
X381754Y484989D01*
X383389Y483354D01*
X384275Y481217D01*
X384275Y478903D01*
X383389Y476766D01*
X381754Y475131D01*
X379617Y474245D01*
X377303Y474245D01*
G37*
%LPD*%
%LPC*%
G36*
X431782Y552322D02*
X431782Y552322D01*
X429401Y553308D01*
X427578Y555131D01*
X426592Y557512D01*
X426592Y560088D01*
X427578Y562469D01*
X429401Y564292D01*
X431782Y565278D01*
X434358Y565278D01*
X436739Y564292D01*
X438562Y562469D01*
X439548Y560088D01*
X439548Y557512D01*
X438562Y555131D01*
X436739Y553308D01*
X434358Y552322D01*
X431782Y552322D01*
G37*
%LPD*%
%LPC*%
G36*
X527032Y552322D02*
X527032Y552322D01*
X524651Y553308D01*
X522828Y555131D01*
X521842Y557512D01*
X521842Y560088D01*
X522828Y562469D01*
X524651Y564292D01*
X527032Y565278D01*
X529608Y565278D01*
X531989Y564292D01*
X533812Y562469D01*
X534798Y560088D01*
X534798Y557512D01*
X533812Y555131D01*
X531989Y553308D01*
X529608Y552322D01*
X527032Y552322D01*
G37*
%LPD*%
%LPC*%
G36*
X351662Y332993D02*
X351662Y332993D01*
X351662Y341631D01*
X358559Y341631D01*
X360138Y341381D01*
X361659Y340886D01*
X363084Y340160D01*
X364378Y339220D01*
X365509Y338089D01*
X366449Y336795D01*
X367175Y335370D01*
X367670Y333849D01*
X367805Y332993D01*
X351662Y332993D01*
G37*
%LPD*%
%LPC*%
G36*
X332473Y332993D02*
X332473Y332993D01*
X332608Y333849D01*
X333103Y335370D01*
X333829Y336795D01*
X334769Y338089D01*
X335900Y339220D01*
X337194Y340160D01*
X338619Y340886D01*
X340140Y341381D01*
X341719Y341631D01*
X348616Y341631D01*
X348616Y332993D01*
X332473Y332993D01*
G37*
%LPD*%
%LPC*%
G36*
X341719Y321309D02*
X341719Y321309D01*
X340140Y321559D01*
X338619Y322054D01*
X337194Y322780D01*
X335900Y323720D01*
X334769Y324851D01*
X333829Y326145D01*
X333103Y327570D01*
X332608Y329091D01*
X332473Y329947D01*
X348616Y329947D01*
X348616Y321309D01*
X341719Y321309D01*
G37*
%LPD*%
%LPC*%
G36*
X458152Y502602D02*
X458152Y502602D01*
X458152Y508583D01*
X459238Y508367D01*
X460509Y507841D01*
X461653Y507076D01*
X462626Y506103D01*
X463391Y504959D01*
X463917Y503688D01*
X464133Y502602D01*
X458152Y502602D01*
G37*
%LPD*%
%LPC*%
G36*
X450267Y502602D02*
X450267Y502602D01*
X450483Y503688D01*
X451009Y504959D01*
X451774Y506103D01*
X452747Y507076D01*
X453891Y507841D01*
X455162Y508367D01*
X456248Y508583D01*
X456248Y502602D01*
X450267Y502602D01*
G37*
%LPD*%
%LPC*%
G36*
X458152Y500698D02*
X458152Y500698D01*
X464133Y500698D01*
X463917Y499612D01*
X463391Y498341D01*
X462626Y497197D01*
X461653Y496224D01*
X460509Y495459D01*
X459238Y494933D01*
X458152Y494717D01*
X458152Y500698D01*
G37*
%LPD*%
%LPC*%
G36*
X455162Y494933D02*
X455162Y494933D01*
X453891Y495459D01*
X452747Y496224D01*
X451774Y497197D01*
X451009Y498341D01*
X450483Y499612D01*
X450267Y500698D01*
X456248Y500698D01*
X456248Y494717D01*
X455162Y494933D01*
G37*
%LPD*%
%LPC*%
G36*
X350138Y331469D02*
X350138Y331469D01*
X350138Y331471D01*
X350140Y331471D01*
X350140Y331469D01*
X350138Y331469D01*
G37*
%LPD*%
D10*
X398145Y558800D03*
X433070Y558800D03*
X603250Y558800D03*
X565150Y558800D03*
X480695Y558800D03*
X457200Y501650D03*
X504825Y501650D03*
X542925Y501650D03*
X528320Y558800D03*
X676275Y558800D03*
X714375Y558800D03*
X762000Y558800D03*
X403225Y501650D03*
X576580Y501650D03*
X610235Y501650D03*
X645160Y501650D03*
X686435Y501650D03*
X722630Y501650D03*
X758825Y501650D03*
X353695Y501650D03*
X360045Y558800D03*
X641350Y558800D03*
D11*
X1033018Y219202D02*
X1033272Y199644D01*
X1033272Y198882D01*
X1033270Y198698D01*
X1033263Y198514D01*
X1033252Y198330D01*
X1033236Y198147D01*
X1033216Y197964D01*
X1033192Y197781D01*
X1033163Y197599D01*
X1033130Y197418D01*
X1033092Y197238D01*
X1033051Y197058D01*
X1033004Y196880D01*
X1032954Y196703D01*
X1032899Y196527D01*
X1032840Y196353D01*
X1032777Y196180D01*
X1032709Y196009D01*
X1032638Y195839D01*
X1032562Y195671D01*
X1032483Y195505D01*
X1032399Y195341D01*
X1032312Y195179D01*
X1032220Y195019D01*
X1032125Y194861D01*
X1032026Y194706D01*
X1031923Y194553D01*
X1031817Y194403D01*
X1031707Y194255D01*
X1031593Y194110D01*
X1031476Y193968D01*
X1031356Y193829D01*
X1031232Y193693D01*
X1031105Y193559D01*
X1030975Y193429D01*
X1030841Y193302D01*
X1030705Y193178D01*
X1030566Y193058D01*
X1030424Y192941D01*
X1030279Y192827D01*
X1030131Y192717D01*
X1029981Y192611D01*
X1029828Y192508D01*
X1029673Y192409D01*
X1029515Y192314D01*
X1029355Y192222D01*
X1029193Y192135D01*
X1029029Y192051D01*
X1028863Y191972D01*
X1028695Y191896D01*
X1028525Y191825D01*
X1028354Y191757D01*
X1028181Y191694D01*
X1028007Y191635D01*
X1027831Y191580D01*
X1027654Y191530D01*
X1027476Y191483D01*
X1027296Y191442D01*
X1027116Y191404D01*
X1026935Y191371D01*
X1026753Y191342D01*
X1026570Y191318D01*
X1026387Y191298D01*
X1026204Y191282D01*
X1026020Y191271D01*
X1025836Y191264D01*
X1025652Y191262D01*
X1004316Y191262D01*
X1014730Y193548D02*
X1014730Y219202D01*
X1033272Y232410D02*
X1033272Y251968D01*
X1033272Y232410D02*
X1033270Y232213D01*
X1033262Y232015D01*
X1033250Y231819D01*
X1033234Y231622D01*
X1033212Y231426D01*
X1033186Y231230D01*
X1033155Y231035D01*
X1033119Y230841D01*
X1033079Y230648D01*
X1033034Y230456D01*
X1032984Y230265D01*
X1032930Y230075D01*
X1032871Y229887D01*
X1032807Y229700D01*
X1032739Y229515D01*
X1032667Y229331D01*
X1032590Y229150D01*
X1032509Y228970D01*
X1032423Y228792D01*
X1032333Y228616D01*
X1032239Y228443D01*
X1032140Y228272D01*
X1032038Y228103D01*
X1031931Y227937D01*
X1031821Y227774D01*
X1031706Y227613D01*
X1031588Y227455D01*
X1031466Y227300D01*
X1031340Y227148D01*
X1031211Y226999D01*
X1031078Y226854D01*
X1030941Y226711D01*
X1030801Y226572D01*
X1030658Y226436D01*
X1030511Y226304D01*
X1030361Y226176D01*
X1030209Y226051D01*
X1030053Y225930D01*
X1029894Y225812D01*
X1029733Y225699D01*
X1029569Y225590D01*
X1029402Y225484D01*
X1029232Y225383D01*
X1029061Y225286D01*
X1028887Y225193D01*
X1028710Y225104D01*
X1028532Y225019D01*
X1028352Y224939D01*
X1028170Y224863D01*
X1027986Y224792D01*
X1027800Y224725D01*
X1027613Y224663D01*
X1027424Y224605D01*
X1027234Y224552D01*
X1027043Y224504D01*
X1026850Y224460D01*
X1026657Y224421D01*
X1026463Y224386D01*
X1026267Y224357D01*
X1026072Y224332D01*
X1025875Y224311D01*
X1025679Y224296D01*
X1025482Y224285D01*
X1025284Y224279D01*
X1025087Y224278D01*
X1024890Y224282D01*
X1004316Y224028D01*
X1033018Y258318D02*
X1033018Y278638D01*
X1033016Y278837D01*
X1033008Y279035D01*
X1032996Y279233D01*
X1032979Y279431D01*
X1032957Y279629D01*
X1032931Y279826D01*
X1032899Y280022D01*
X1032863Y280217D01*
X1032822Y280412D01*
X1032777Y280605D01*
X1032726Y280797D01*
X1032671Y280988D01*
X1032611Y281177D01*
X1032547Y281365D01*
X1032478Y281552D01*
X1032405Y281736D01*
X1032327Y281919D01*
X1032244Y282100D01*
X1032158Y282278D01*
X1032067Y282455D01*
X1031971Y282629D01*
X1031872Y282801D01*
X1031768Y282971D01*
X1031660Y283137D01*
X1031548Y283301D01*
X1031432Y283463D01*
X1031312Y283621D01*
X1031189Y283777D01*
X1031061Y283929D01*
X1030930Y284078D01*
X1030795Y284224D01*
X1030657Y284367D01*
X1030516Y284506D01*
X1030370Y284642D01*
X1030222Y284774D01*
X1030071Y284903D01*
X1029916Y285028D01*
X1029759Y285149D01*
X1029598Y285266D01*
X1029435Y285379D01*
X1029269Y285488D01*
X1029100Y285593D01*
X1028929Y285694D01*
X1028755Y285790D01*
X1028580Y285883D01*
X1028401Y285971D01*
X1028221Y286055D01*
X1028039Y286134D01*
X1027855Y286209D01*
X1027669Y286279D01*
X1027482Y286345D01*
X1027293Y286406D01*
X1027102Y286462D01*
X1026911Y286514D01*
X1026718Y286561D01*
X1026523Y286603D01*
X1026328Y286641D01*
X1026133Y286674D01*
X1025936Y286702D01*
X1025739Y286725D01*
X1025541Y286744D01*
X1025343Y286757D01*
X1025144Y286766D01*
X1004062Y286512D01*
X1005078Y277622D02*
X1005078Y263398D01*
X1005081Y263183D01*
X1005088Y262967D01*
X1005101Y262752D01*
X1005120Y262537D01*
X1005143Y262323D01*
X1005172Y262110D01*
X1005206Y261897D01*
X1005245Y261685D01*
X1005289Y261474D01*
X1005338Y261264D01*
X1005392Y261056D01*
X1005451Y260849D01*
X1005515Y260643D01*
X1005585Y260439D01*
X1005659Y260237D01*
X1005738Y260036D01*
X1005822Y259838D01*
X1005910Y259641D01*
X1006004Y259447D01*
X1006102Y259255D01*
X1006204Y259066D01*
X1006312Y258879D01*
X1006423Y258695D01*
X1006540Y258513D01*
X1006660Y258335D01*
X1006785Y258159D01*
X1006914Y257986D01*
X1007047Y257817D01*
X1007184Y257651D01*
X1007325Y257488D01*
X1007471Y257329D01*
X1007620Y257173D01*
X1007772Y257021D01*
X1007928Y256873D01*
X1008088Y256728D01*
X1008252Y256588D01*
X1008418Y256451D01*
X1008588Y256319D01*
X1008761Y256190D01*
X1008937Y256066D01*
X1009116Y255946D01*
X1009298Y255831D01*
X1009483Y255720D01*
X1009670Y255613D01*
X1009860Y255512D01*
X1010053Y255414D01*
X1010247Y255322D01*
X1010444Y255234D01*
X1010643Y255151D01*
X1010843Y255072D01*
X1011046Y254999D01*
X1011250Y254931D01*
X1011456Y254867D01*
X1011664Y254809D01*
X1011872Y254755D01*
X1012082Y254707D01*
X1012293Y254664D01*
X1012505Y254626D01*
X1012718Y254593D01*
X1012932Y254565D01*
X1013146Y254542D01*
X1013361Y254525D01*
X1013576Y254513D01*
X1013792Y254506D01*
X1014007Y254504D01*
X1014222Y254508D01*
X1014467Y254518D01*
X1014711Y254534D01*
X1014954Y254555D01*
X1015197Y254583D01*
X1015439Y254617D01*
X1015680Y254656D01*
X1015921Y254702D01*
X1016160Y254753D01*
X1016397Y254810D01*
X1016634Y254873D01*
X1016868Y254941D01*
X1017101Y255015D01*
X1017332Y255095D01*
X1017561Y255181D01*
X1017788Y255272D01*
X1018013Y255368D01*
X1018235Y255470D01*
X1018454Y255578D01*
X1018671Y255690D01*
X1018885Y255808D01*
X1019097Y255932D01*
X1019305Y256060D01*
X1019510Y256193D01*
X1019711Y256331D01*
X1019909Y256474D01*
X1020104Y256622D01*
X1020295Y256775D01*
X1020482Y256932D01*
X1020665Y257094D01*
X1020845Y257260D01*
X1021020Y257431D01*
X1021191Y257605D01*
X1021358Y257784D01*
X1021520Y257967D01*
X1021678Y258154D01*
X1021831Y258344D01*
X1021979Y258538D01*
X1022123Y258736D01*
X1022262Y258937D01*
X1022396Y259142D01*
X1022525Y259350D01*
X1022648Y259560D01*
X1022767Y259774D01*
X1022880Y259991D01*
X1022988Y260210D01*
X1023091Y260432D01*
X1023188Y260656D01*
X1023280Y260883D01*
X1023366Y261112D01*
X1023366Y284734D01*
X1033272Y303276D02*
X1033272Y325628D01*
X1033272Y303276D02*
X1033270Y303083D01*
X1033263Y302889D01*
X1033251Y302696D01*
X1033234Y302504D01*
X1033213Y302311D01*
X1033187Y302120D01*
X1033156Y301929D01*
X1033121Y301739D01*
X1033081Y301549D01*
X1033037Y301361D01*
X1032988Y301174D01*
X1032934Y300988D01*
X1032876Y300804D01*
X1032813Y300621D01*
X1032746Y300440D01*
X1032674Y300260D01*
X1032598Y300082D01*
X1032518Y299906D01*
X1032434Y299732D01*
X1032345Y299560D01*
X1032252Y299391D01*
X1032155Y299224D01*
X1032054Y299059D01*
X1031948Y298896D01*
X1031839Y298737D01*
X1031726Y298580D01*
X1031610Y298425D01*
X1031489Y298274D01*
X1031365Y298126D01*
X1031237Y297981D01*
X1031106Y297839D01*
X1030971Y297700D01*
X1030833Y297564D01*
X1030692Y297432D01*
X1030548Y297304D01*
X1030400Y297179D01*
X1030249Y297057D01*
X1030096Y296940D01*
X1029939Y296826D01*
X1029780Y296716D01*
X1029619Y296610D01*
X1029454Y296508D01*
X1029288Y296410D01*
X1029119Y296316D01*
X1028947Y296226D01*
X1028774Y296141D01*
X1028598Y296060D01*
X1028421Y295983D01*
X1028242Y295910D01*
X1028061Y295842D01*
X1027878Y295778D01*
X1027694Y295719D01*
X1027508Y295664D01*
X1027322Y295614D01*
X1027134Y295569D01*
X1026945Y295528D01*
X1026755Y295491D01*
X1026564Y295460D01*
X1026372Y295433D01*
X1026180Y295410D01*
X1025988Y295393D01*
X1025795Y295380D01*
X1025602Y295372D01*
X1025408Y295368D01*
X1025215Y295369D01*
X1025021Y295375D01*
X1024828Y295386D01*
X1024636Y295402D01*
X1013206Y295656D01*
X1013001Y295663D01*
X1012796Y295675D01*
X1012591Y295692D01*
X1012387Y295714D01*
X1012183Y295741D01*
X1011981Y295773D01*
X1011779Y295809D01*
X1011578Y295851D01*
X1011378Y295898D01*
X1011179Y295949D01*
X1010981Y296005D01*
X1010785Y296066D01*
X1010591Y296131D01*
X1010398Y296202D01*
X1010207Y296277D01*
X1010017Y296356D01*
X1009830Y296440D01*
X1009645Y296529D01*
X1009462Y296622D01*
X1009281Y296719D01*
X1009103Y296821D01*
X1008927Y296927D01*
X1008754Y297038D01*
X1008584Y297152D01*
X1008416Y297271D01*
X1008251Y297394D01*
X1008090Y297520D01*
X1007931Y297651D01*
X1007776Y297785D01*
X1007624Y297923D01*
X1007475Y298065D01*
X1007330Y298210D01*
X1007189Y298359D01*
X1007051Y298511D01*
X1006917Y298666D01*
X1006786Y298825D01*
X1006660Y298986D01*
X1006537Y299151D01*
X1006419Y299319D01*
X1006304Y299489D01*
X1006194Y299662D01*
X1006088Y299838D01*
X1005986Y300016D01*
X1005889Y300197D01*
X1005796Y300380D01*
X1005707Y300565D01*
X1005623Y300753D01*
X1005544Y300942D01*
X1005469Y301133D01*
X1005399Y301326D01*
X1005333Y301521D01*
X1005272Y301717D01*
X1005217Y301914D01*
X1005165Y302113D01*
X1005119Y302313D01*
X1005078Y302514D01*
X1004824Y325628D01*
X1018032Y335280D02*
X1034288Y335280D01*
X1018032Y335280D02*
X1004062Y335280D01*
X1018032Y335280D02*
X1033272Y367284D01*
X1004570Y367284D02*
X1019048Y338074D01*
X1032764Y374904D02*
X1032764Y410464D01*
X1033018Y392938D02*
X1004316Y392938D01*
X1033018Y416814D02*
X1033018Y437134D01*
X1033016Y437333D01*
X1033008Y437531D01*
X1032996Y437729D01*
X1032979Y437927D01*
X1032957Y438125D01*
X1032931Y438322D01*
X1032899Y438518D01*
X1032863Y438713D01*
X1032822Y438908D01*
X1032777Y439101D01*
X1032726Y439293D01*
X1032671Y439484D01*
X1032611Y439673D01*
X1032547Y439861D01*
X1032478Y440048D01*
X1032405Y440232D01*
X1032327Y440415D01*
X1032244Y440596D01*
X1032158Y440774D01*
X1032067Y440951D01*
X1031971Y441125D01*
X1031872Y441297D01*
X1031768Y441467D01*
X1031660Y441633D01*
X1031548Y441797D01*
X1031432Y441959D01*
X1031312Y442117D01*
X1031189Y442273D01*
X1031061Y442425D01*
X1030930Y442574D01*
X1030795Y442720D01*
X1030657Y442863D01*
X1030516Y443002D01*
X1030370Y443138D01*
X1030222Y443270D01*
X1030071Y443399D01*
X1029916Y443524D01*
X1029759Y443645D01*
X1029598Y443762D01*
X1029435Y443875D01*
X1029269Y443984D01*
X1029100Y444089D01*
X1028929Y444190D01*
X1028755Y444286D01*
X1028580Y444379D01*
X1028401Y444467D01*
X1028221Y444551D01*
X1028039Y444630D01*
X1027855Y444705D01*
X1027669Y444775D01*
X1027482Y444841D01*
X1027293Y444902D01*
X1027102Y444958D01*
X1026911Y445010D01*
X1026718Y445057D01*
X1026523Y445099D01*
X1026328Y445137D01*
X1026133Y445170D01*
X1025936Y445198D01*
X1025739Y445221D01*
X1025541Y445240D01*
X1025343Y445253D01*
X1025144Y445262D01*
X1004062Y445008D01*
X1005078Y436118D02*
X1005078Y421894D01*
X1005081Y421679D01*
X1005088Y421463D01*
X1005101Y421248D01*
X1005120Y421033D01*
X1005143Y420819D01*
X1005172Y420606D01*
X1005206Y420393D01*
X1005245Y420181D01*
X1005289Y419970D01*
X1005338Y419760D01*
X1005392Y419552D01*
X1005451Y419345D01*
X1005515Y419139D01*
X1005585Y418935D01*
X1005659Y418733D01*
X1005738Y418532D01*
X1005822Y418334D01*
X1005910Y418137D01*
X1006004Y417943D01*
X1006102Y417751D01*
X1006204Y417562D01*
X1006312Y417375D01*
X1006423Y417191D01*
X1006540Y417009D01*
X1006660Y416831D01*
X1006785Y416655D01*
X1006914Y416482D01*
X1007047Y416313D01*
X1007184Y416147D01*
X1007325Y415984D01*
X1007471Y415825D01*
X1007620Y415669D01*
X1007772Y415517D01*
X1007928Y415369D01*
X1008088Y415224D01*
X1008252Y415084D01*
X1008418Y414947D01*
X1008588Y414815D01*
X1008761Y414686D01*
X1008937Y414562D01*
X1009116Y414442D01*
X1009298Y414327D01*
X1009483Y414216D01*
X1009670Y414109D01*
X1009860Y414008D01*
X1010053Y413910D01*
X1010247Y413818D01*
X1010444Y413730D01*
X1010643Y413647D01*
X1010843Y413568D01*
X1011046Y413495D01*
X1011250Y413427D01*
X1011456Y413363D01*
X1011664Y413305D01*
X1011872Y413251D01*
X1012082Y413203D01*
X1012293Y413160D01*
X1012505Y413122D01*
X1012718Y413089D01*
X1012932Y413061D01*
X1013146Y413038D01*
X1013361Y413021D01*
X1013576Y413009D01*
X1013792Y413002D01*
X1014007Y413000D01*
X1014222Y413004D01*
X1014467Y413014D01*
X1014711Y413030D01*
X1014954Y413051D01*
X1015197Y413079D01*
X1015439Y413113D01*
X1015680Y413152D01*
X1015921Y413198D01*
X1016160Y413249D01*
X1016397Y413306D01*
X1016634Y413369D01*
X1016868Y413437D01*
X1017101Y413511D01*
X1017332Y413591D01*
X1017561Y413677D01*
X1017788Y413768D01*
X1018013Y413864D01*
X1018235Y413966D01*
X1018454Y414074D01*
X1018671Y414186D01*
X1018885Y414304D01*
X1019097Y414428D01*
X1019305Y414556D01*
X1019510Y414689D01*
X1019711Y414827D01*
X1019909Y414970D01*
X1020104Y415118D01*
X1020295Y415271D01*
X1020482Y415428D01*
X1020665Y415590D01*
X1020845Y415756D01*
X1021020Y415927D01*
X1021191Y416101D01*
X1021358Y416280D01*
X1021520Y416463D01*
X1021678Y416650D01*
X1021831Y416840D01*
X1021979Y417034D01*
X1022123Y417232D01*
X1022262Y417433D01*
X1022396Y417638D01*
X1022525Y417846D01*
X1022648Y418056D01*
X1022767Y418270D01*
X1022880Y418487D01*
X1022988Y418706D01*
X1023091Y418928D01*
X1023188Y419152D01*
X1023280Y419379D01*
X1023366Y419608D01*
X1023366Y443230D01*
X1013206Y456692D02*
X1034542Y456692D01*
X1013206Y456692D02*
X1013006Y456694D01*
X1012805Y456702D01*
X1012605Y456714D01*
X1012406Y456731D01*
X1012206Y456753D01*
X1012008Y456780D01*
X1011810Y456812D01*
X1011613Y456849D01*
X1011417Y456890D01*
X1011222Y456937D01*
X1011028Y456988D01*
X1010835Y457044D01*
X1010644Y457104D01*
X1010455Y457169D01*
X1010267Y457239D01*
X1010081Y457314D01*
X1009897Y457393D01*
X1009714Y457476D01*
X1009534Y457564D01*
X1009356Y457656D01*
X1009181Y457753D01*
X1009008Y457854D01*
X1008837Y457959D01*
X1008669Y458068D01*
X1008504Y458182D01*
X1008341Y458299D01*
X1008182Y458420D01*
X1008025Y458546D01*
X1007872Y458675D01*
X1007722Y458807D01*
X1007575Y458944D01*
X1007431Y459084D01*
X1007291Y459227D01*
X1007155Y459374D01*
X1007022Y459524D01*
X1006893Y459678D01*
X1006768Y459834D01*
X1006647Y459993D01*
X1006529Y460156D01*
X1006416Y460321D01*
X1006306Y460489D01*
X1006201Y460660D01*
X1006100Y460833D01*
X1006004Y461009D01*
X1005911Y461186D01*
X1005823Y461367D01*
X1005740Y461549D01*
X1005661Y461733D01*
X1005587Y461919D01*
X1005517Y462107D01*
X1005451Y462296D01*
X1005391Y462488D01*
X1005335Y462680D01*
X1005284Y462874D01*
X1005238Y463069D01*
X1005196Y463265D01*
X1005159Y463462D01*
X1005128Y463660D01*
X1005101Y463858D01*
X1005078Y464058D01*
X1004824Y484886D01*
D12*
X357759Y331470D02*
X342519Y331470D01*
X342519Y306070D02*
X357759Y306070D01*
D11*
X360045Y558800D02*
X207800Y558800D01*
X207010Y559590D01*
D13*
X207010Y559590D03*
D11*
X372110Y558800D02*
X398145Y558800D01*
X372110Y558800D02*
X363220Y549910D01*
X171450Y549910D01*
X139700Y518160D01*
X139700Y440690D01*
X148590Y431800D01*
X191770Y431800D01*
D13*
X191770Y431800D03*
X251460Y441960D03*
D14*
X251460Y373380D01*
D13*
X251460Y373380D03*
X467360Y181610D03*
D14*
X515620Y181610D01*
X582930Y248920D01*
D13*
X582930Y248920D03*
X170180Y302966D03*
D14*
X170180Y68682D01*
X182474Y56388D01*
X466118Y56388D02*
X467360Y55146D01*
D13*
X467360Y55146D03*
D14*
X466118Y56388D02*
X182474Y56388D01*
D13*
X911058Y361482D03*
D11*
X911058Y419902D01*
X877570Y453390D01*
X877570Y520700D01*
X847979Y550291D02*
X758475Y550291D01*
X742013Y566753D01*
X573786Y567436D02*
X565150Y558800D01*
X847979Y550291D02*
X877570Y520700D01*
X741330Y567436D02*
X573786Y567436D01*
X741330Y567436D02*
X742013Y566753D01*
D13*
X605790Y361950D03*
D14*
X577850Y334010D01*
X577850Y265430D01*
D13*
X480060Y191770D03*
D14*
X533400Y220980D02*
X577850Y265430D01*
X533400Y220980D02*
X509270Y220980D01*
X480060Y191770D01*
D13*
X160020Y302260D03*
X158750Y50800D03*
D14*
X158750Y300990D02*
X160020Y302260D01*
X158750Y300990D02*
X158750Y50800D01*
D13*
X459006Y112494D03*
D14*
X478056Y112494D01*
D13*
X478056Y112494D03*
X896620Y513080D03*
D11*
X896620Y446558D01*
D13*
X896620Y446558D03*
D11*
X727075Y546100D02*
X714375Y558800D01*
D13*
X727075Y546100D03*
X908050Y446558D03*
D11*
X908050Y519430D01*
D13*
X908050Y519430D03*
X566420Y104140D03*
X577850Y231775D03*
D14*
X566420Y104140D02*
X397510Y104140D01*
X374650Y127000D02*
X374650Y295910D01*
X364490Y306070D01*
X350520Y306070D01*
X350139Y306070D01*
X374650Y127000D02*
X397510Y104140D01*
X350520Y306070D02*
X445770Y401320D01*
X445770Y486410D01*
X430530Y501650D01*
X403225Y501650D01*
D13*
X809244Y321056D03*
D14*
X648970Y281940D02*
X638810Y281940D01*
X648970Y281940D02*
X684530Y317500D01*
X704850Y317500D01*
X708406Y321056D02*
X809244Y321056D01*
X708406Y321056D02*
X704850Y317500D01*
D13*
X638810Y281940D03*
X704850Y317500D03*
X293370Y321310D03*
D14*
X339979Y321310D01*
X350139Y331470D01*
X350139Y332359D02*
X435610Y417830D01*
X350139Y332359D02*
X350139Y331470D01*
X435610Y417830D02*
X435610Y463550D01*
D13*
X435610Y463550D03*
D11*
X628650Y292100D02*
X638810Y281940D01*
X628650Y292100D02*
X628650Y361950D01*
X619760Y370840D01*
X580390Y370840D01*
X527050Y424180D01*
X527050Y508000D01*
X513080Y521970D01*
X477520Y521970D02*
X457200Y501650D01*
X477520Y521970D02*
X513080Y521970D01*
D13*
X812800Y302260D03*
D14*
X701040Y302260D01*
D13*
X701040Y302260D03*
X236220Y302260D03*
D14*
X236220Y443230D01*
X254000Y461010D01*
X392430Y461010D02*
X401320Y452120D01*
X392430Y461010D02*
X254000Y461010D01*
D13*
X401320Y452120D03*
X514350Y431456D03*
D14*
X514350Y389546D01*
X543560Y360336D01*
X543560Y258544D01*
X514350Y229334D01*
D13*
X514350Y229334D03*
X519331Y172720D03*
D14*
X616235Y172720D01*
X617505Y171450D01*
D13*
X617505Y171450D03*
D11*
X504825Y440981D02*
X504825Y501650D01*
X504825Y440981D02*
X514350Y431456D01*
D13*
X800100Y292100D03*
D14*
X718820Y292100D01*
X688340Y261620D01*
D13*
X688340Y261620D03*
D11*
X584835Y377825D02*
X539115Y423545D01*
X584835Y377825D02*
X862330Y377825D01*
X866140Y374015D01*
X866140Y295275D01*
D13*
X866140Y295275D03*
X539115Y423545D03*
D11*
X539115Y497840D02*
X542925Y501650D01*
X539115Y497840D02*
X539115Y423545D01*
D13*
X232946Y292100D03*
D14*
X280670Y308328D02*
X280670Y416560D01*
X280670Y308328D02*
X264443Y292100D01*
X232946Y292100D01*
X280670Y416560D02*
X287212Y423102D01*
X407862Y423102D01*
D13*
X407862Y423102D03*
X637540Y97790D03*
D14*
X633730Y93980D01*
X193040Y140970D02*
X193040Y245110D01*
D13*
X193040Y245110D03*
D14*
X240030Y93980D02*
X633730Y93980D01*
X240030Y93980D02*
X193040Y140970D01*
D11*
X193040Y245110D02*
X240030Y245110D01*
X264160Y269240D01*
X264160Y280670D01*
D13*
X264160Y280670D03*
X264160Y313578D03*
D11*
X264160Y420370D01*
X294640Y450850D01*
D13*
X294640Y450850D03*
X378460Y480060D03*
D11*
X356870Y501650D01*
X353695Y501650D01*
D13*
X647700Y97790D03*
D14*
X647700Y92710D01*
X637540Y82550D01*
X231140Y82550D01*
X184150Y129540D01*
D13*
X184150Y266700D03*
D14*
X184150Y129540D01*
D13*
X131854Y448310D03*
D11*
X131854Y495526D01*
D13*
X131854Y495526D03*
X657296Y97254D03*
D14*
X657296Y85796D01*
X643890Y72390D01*
X222250Y72390D01*
X195388Y99252D01*
X195388Y105218D01*
D13*
X195388Y105218D03*
D11*
X657296Y102306D02*
X657296Y97254D01*
X657296Y102306D02*
X662940Y107950D01*
X946150Y107950D01*
X958850Y120650D01*
X947704Y496286D02*
X930910Y496286D01*
D13*
X930910Y496286D03*
X850900Y496286D03*
D11*
X758825Y496286D01*
X758825Y501650D01*
X958850Y485140D02*
X958850Y120650D01*
X958850Y485140D02*
X947704Y496286D01*
D13*
X668020Y97790D03*
D14*
X668020Y83820D01*
X647700Y63500D01*
X217170Y63500D01*
X185420Y95250D01*
X185420Y114300D01*
D13*
X185420Y114300D03*
X212090Y142240D03*
D14*
X243840Y110490D01*
X317500Y110490D02*
X335280Y128270D01*
X335280Y212090D01*
X320040Y227330D02*
X229870Y227330D01*
D13*
X229870Y227330D03*
D14*
X243840Y110490D02*
X317500Y110490D01*
X335280Y212090D02*
X320040Y227330D01*
D13*
X666750Y173990D03*
D11*
X671830Y179070D02*
X894080Y179070D01*
X671830Y179070D02*
X666750Y173990D01*
D13*
X894080Y179070D03*
X847884Y320040D03*
D11*
X847884Y362626D01*
X855237Y369979D01*
D13*
X855237Y369979D03*
X855934Y416913D03*
D11*
X855934Y477566D01*
X843310Y490190D02*
X756300Y490190D01*
X744840Y501650D02*
X722630Y501650D01*
X744840Y501650D02*
X756300Y490190D01*
X843310Y490190D02*
X855934Y477566D01*
D13*
X849503Y251968D03*
D11*
X873817Y392557D02*
X647954Y392557D01*
X873817Y392557D02*
X883130Y383244D01*
X883130Y260994D01*
X874105Y251968D02*
X849503Y251968D01*
X874105Y251968D02*
X883130Y260994D01*
X610235Y501650D02*
X594233Y485648D01*
X594233Y446278D01*
X647954Y392557D01*
D13*
X749300Y228600D03*
D14*
X749300Y261620D01*
D13*
X749300Y261620D03*
X850900Y272415D03*
D11*
X869725Y385191D02*
X616839Y385191D01*
X869725Y385191D02*
X875256Y379660D01*
X875256Y275980D01*
X871692Y272415D02*
X850900Y272415D01*
X871692Y272415D02*
X875256Y275980D01*
X616839Y385191D02*
X574294Y427736D01*
D13*
X574294Y427736D03*
D11*
X573024Y498094D02*
X576580Y501650D01*
X573024Y498094D02*
X573024Y429006D01*
X574294Y427736D01*
D13*
X852551Y211455D03*
D11*
X886575Y409067D02*
X712851Y409067D01*
X886575Y409067D02*
X902942Y392700D01*
X902942Y221243D01*
X893155Y211455D02*
X852551Y211455D01*
X893155Y211455D02*
X902942Y221243D01*
X712851Y409067D02*
X682879Y439039D01*
X682879Y498094D02*
X686435Y501650D01*
X682879Y498094D02*
X682879Y439039D01*
D13*
X784225Y187325D03*
D14*
X784225Y225425D01*
X783590Y226060D01*
D13*
X783590Y226060D03*
X849503Y231267D03*
D11*
X880450Y399923D02*
X666242Y399923D01*
X880450Y399923D02*
X891766Y388607D01*
X891766Y240928D01*
X882106Y231267D01*
X849503Y231267D01*
X666242Y399923D02*
X620268Y445897D01*
X620268Y476758D02*
X645160Y501650D01*
X620268Y476758D02*
X620268Y445897D01*
D13*
X588010Y132080D03*
D14*
X441960Y132080D01*
X388620Y185420D01*
D13*
X388620Y185420D03*
D11*
X147546Y505460D02*
X147546Y505940D01*
D13*
X147546Y445770D03*
D11*
X147546Y505460D01*
D13*
X148590Y334010D03*
D11*
X189230Y334010D01*
X190692Y332548D01*
D13*
X190692Y332548D03*
D11*
X147546Y505940D02*
X147546Y513306D01*
X177800Y543560D01*
X218214Y543560D01*
X219710Y542064D01*
D13*
X219710Y542064D03*
X402590Y544830D03*
D11*
X467360Y544830D01*
X480695Y558165D02*
X480695Y558800D01*
X480695Y558165D02*
X467360Y544830D01*
D13*
X920750Y519430D03*
D11*
X920750Y384175D01*
D13*
X920750Y384175D03*
M02*
