G04 EAGLE Gerber RS-274X export*
G75*
%MOMM*%
%FSLAX34Y34*%
%LPD*%
%INSilkscreen Top*%
%IPPOS*%
%AMOC8*
5,1,8,0,0,1.08239X$1,22.5*%
G01*
%ADD10C,0.076200*%
%ADD11C,0.152400*%
%ADD12C,0.127000*%
%ADD13C,0.101600*%
%ADD14C,0.254000*%
%ADD15C,0.200000*%


D10*
X347726Y540131D02*
X347726Y549529D01*
X347726Y545352D02*
X352947Y545352D01*
X352947Y549529D02*
X352947Y540131D01*
X357174Y544830D02*
X357176Y545015D01*
X357183Y545200D01*
X357194Y545384D01*
X357209Y545568D01*
X357229Y545752D01*
X357253Y545936D01*
X357282Y546118D01*
X357315Y546300D01*
X357352Y546481D01*
X357394Y546661D01*
X357440Y546841D01*
X357490Y547019D01*
X357544Y547195D01*
X357603Y547371D01*
X357665Y547545D01*
X357732Y547717D01*
X357803Y547888D01*
X357878Y548057D01*
X357957Y548224D01*
X357987Y548304D01*
X358020Y548383D01*
X358057Y548460D01*
X358097Y548536D01*
X358140Y548610D01*
X358186Y548682D01*
X358236Y548751D01*
X358288Y548819D01*
X358344Y548884D01*
X358402Y548947D01*
X358464Y549006D01*
X358527Y549064D01*
X358594Y549118D01*
X358662Y549169D01*
X358733Y549217D01*
X358806Y549262D01*
X358880Y549304D01*
X358957Y549342D01*
X359035Y549377D01*
X359114Y549409D01*
X359195Y549437D01*
X359277Y549461D01*
X359361Y549482D01*
X359444Y549499D01*
X359529Y549512D01*
X359614Y549521D01*
X359699Y549527D01*
X359785Y549529D01*
X359871Y549527D01*
X359956Y549521D01*
X360041Y549512D01*
X360126Y549499D01*
X360209Y549482D01*
X360293Y549461D01*
X360375Y549437D01*
X360456Y549409D01*
X360535Y549377D01*
X360613Y549342D01*
X360690Y549304D01*
X360764Y549262D01*
X360837Y549217D01*
X360908Y549169D01*
X360976Y549118D01*
X361043Y549064D01*
X361106Y549006D01*
X361168Y548947D01*
X361226Y548884D01*
X361282Y548819D01*
X361334Y548751D01*
X361384Y548682D01*
X361430Y548610D01*
X361473Y548536D01*
X361513Y548460D01*
X361550Y548383D01*
X361583Y548304D01*
X361613Y548224D01*
X361692Y548057D01*
X361767Y547888D01*
X361838Y547717D01*
X361905Y547545D01*
X361967Y547371D01*
X362026Y547195D01*
X362080Y547019D01*
X362130Y546841D01*
X362176Y546661D01*
X362218Y546481D01*
X362255Y546300D01*
X362288Y546118D01*
X362317Y545936D01*
X362341Y545752D01*
X362361Y545568D01*
X362376Y545384D01*
X362387Y545200D01*
X362394Y545015D01*
X362396Y544830D01*
X357175Y544830D02*
X357177Y544645D01*
X357184Y544460D01*
X357195Y544276D01*
X357210Y544092D01*
X357230Y543908D01*
X357254Y543724D01*
X357283Y543542D01*
X357316Y543360D01*
X357353Y543179D01*
X357395Y542999D01*
X357441Y542819D01*
X357491Y542641D01*
X357545Y542465D01*
X357604Y542289D01*
X357666Y542115D01*
X357733Y541943D01*
X357804Y541772D01*
X357879Y541603D01*
X357958Y541436D01*
X357957Y541436D02*
X357987Y541356D01*
X358020Y541277D01*
X358057Y541200D01*
X358097Y541124D01*
X358140Y541050D01*
X358186Y540978D01*
X358236Y540909D01*
X358289Y540841D01*
X358344Y540776D01*
X358403Y540713D01*
X358464Y540654D01*
X358527Y540596D01*
X358594Y540542D01*
X358662Y540491D01*
X358733Y540443D01*
X358806Y540398D01*
X358880Y540356D01*
X358957Y540318D01*
X359035Y540283D01*
X359114Y540251D01*
X359195Y540223D01*
X359277Y540199D01*
X359361Y540178D01*
X359444Y540161D01*
X359529Y540148D01*
X359614Y540139D01*
X359699Y540133D01*
X359785Y540131D01*
X361613Y541436D02*
X361692Y541603D01*
X361767Y541772D01*
X361838Y541943D01*
X361905Y542115D01*
X361967Y542289D01*
X362026Y542465D01*
X362080Y542641D01*
X362130Y542819D01*
X362176Y542999D01*
X362218Y543179D01*
X362255Y543360D01*
X362288Y543542D01*
X362317Y543724D01*
X362341Y543908D01*
X362361Y544092D01*
X362376Y544276D01*
X362387Y544460D01*
X362394Y544645D01*
X362396Y544830D01*
X361613Y541436D02*
X361583Y541356D01*
X361550Y541277D01*
X361513Y541200D01*
X361473Y541124D01*
X361430Y541050D01*
X361384Y540978D01*
X361334Y540909D01*
X361282Y540841D01*
X361226Y540776D01*
X361168Y540713D01*
X361106Y540654D01*
X361043Y540596D01*
X360976Y540542D01*
X360908Y540491D01*
X360837Y540443D01*
X360764Y540398D01*
X360690Y540356D01*
X360613Y540318D01*
X360535Y540283D01*
X360456Y540251D01*
X360375Y540223D01*
X360293Y540199D01*
X360209Y540178D01*
X360126Y540161D01*
X360041Y540148D01*
X359956Y540139D01*
X359871Y540133D01*
X359785Y540131D01*
X357697Y542219D02*
X361874Y547441D01*
X366406Y543786D02*
X372672Y543786D01*
X369539Y540653D02*
X369539Y546918D01*
X385826Y549529D02*
X385826Y540131D01*
X385826Y545352D02*
X391047Y545352D01*
X391047Y549529D02*
X391047Y540131D01*
X395274Y544830D02*
X395276Y545015D01*
X395283Y545200D01*
X395294Y545384D01*
X395309Y545568D01*
X395329Y545752D01*
X395353Y545936D01*
X395382Y546118D01*
X395415Y546300D01*
X395452Y546481D01*
X395494Y546661D01*
X395540Y546841D01*
X395590Y547019D01*
X395644Y547195D01*
X395703Y547371D01*
X395765Y547545D01*
X395832Y547717D01*
X395903Y547888D01*
X395978Y548057D01*
X396057Y548224D01*
X396087Y548304D01*
X396120Y548383D01*
X396157Y548460D01*
X396197Y548536D01*
X396240Y548610D01*
X396286Y548682D01*
X396336Y548751D01*
X396388Y548819D01*
X396444Y548884D01*
X396502Y548947D01*
X396564Y549006D01*
X396627Y549064D01*
X396694Y549118D01*
X396762Y549169D01*
X396833Y549217D01*
X396906Y549262D01*
X396980Y549304D01*
X397057Y549342D01*
X397135Y549377D01*
X397214Y549409D01*
X397295Y549437D01*
X397377Y549461D01*
X397461Y549482D01*
X397544Y549499D01*
X397629Y549512D01*
X397714Y549521D01*
X397799Y549527D01*
X397885Y549529D01*
X397971Y549527D01*
X398056Y549521D01*
X398141Y549512D01*
X398226Y549499D01*
X398309Y549482D01*
X398393Y549461D01*
X398475Y549437D01*
X398556Y549409D01*
X398635Y549377D01*
X398713Y549342D01*
X398790Y549304D01*
X398864Y549262D01*
X398937Y549217D01*
X399008Y549169D01*
X399076Y549118D01*
X399143Y549064D01*
X399206Y549006D01*
X399268Y548947D01*
X399326Y548884D01*
X399382Y548819D01*
X399434Y548751D01*
X399484Y548682D01*
X399530Y548610D01*
X399573Y548536D01*
X399613Y548460D01*
X399650Y548383D01*
X399683Y548304D01*
X399713Y548224D01*
X399792Y548057D01*
X399867Y547888D01*
X399938Y547717D01*
X400005Y547545D01*
X400067Y547371D01*
X400126Y547195D01*
X400180Y547019D01*
X400230Y546841D01*
X400276Y546661D01*
X400318Y546481D01*
X400355Y546300D01*
X400388Y546118D01*
X400417Y545936D01*
X400441Y545752D01*
X400461Y545568D01*
X400476Y545384D01*
X400487Y545200D01*
X400494Y545015D01*
X400496Y544830D01*
X395275Y544830D02*
X395277Y544645D01*
X395284Y544460D01*
X395295Y544276D01*
X395310Y544092D01*
X395330Y543908D01*
X395354Y543724D01*
X395383Y543542D01*
X395416Y543360D01*
X395453Y543179D01*
X395495Y542999D01*
X395541Y542819D01*
X395591Y542641D01*
X395645Y542465D01*
X395704Y542289D01*
X395766Y542115D01*
X395833Y541943D01*
X395904Y541772D01*
X395979Y541603D01*
X396058Y541436D01*
X396057Y541436D02*
X396087Y541356D01*
X396120Y541277D01*
X396157Y541200D01*
X396197Y541124D01*
X396240Y541050D01*
X396286Y540978D01*
X396336Y540909D01*
X396389Y540841D01*
X396444Y540776D01*
X396503Y540713D01*
X396564Y540654D01*
X396627Y540596D01*
X396694Y540542D01*
X396762Y540491D01*
X396833Y540443D01*
X396906Y540398D01*
X396980Y540356D01*
X397057Y540318D01*
X397135Y540283D01*
X397214Y540251D01*
X397295Y540223D01*
X397377Y540199D01*
X397461Y540178D01*
X397544Y540161D01*
X397629Y540148D01*
X397714Y540139D01*
X397799Y540133D01*
X397885Y540131D01*
X399713Y541436D02*
X399792Y541603D01*
X399867Y541772D01*
X399938Y541943D01*
X400005Y542115D01*
X400067Y542289D01*
X400126Y542465D01*
X400180Y542641D01*
X400230Y542819D01*
X400276Y542999D01*
X400318Y543179D01*
X400355Y543360D01*
X400388Y543542D01*
X400417Y543724D01*
X400441Y543908D01*
X400461Y544092D01*
X400476Y544276D01*
X400487Y544460D01*
X400494Y544645D01*
X400496Y544830D01*
X399713Y541436D02*
X399683Y541356D01*
X399650Y541277D01*
X399613Y541200D01*
X399573Y541124D01*
X399530Y541050D01*
X399484Y540978D01*
X399434Y540909D01*
X399382Y540841D01*
X399326Y540776D01*
X399268Y540713D01*
X399206Y540654D01*
X399143Y540596D01*
X399076Y540542D01*
X399008Y540491D01*
X398937Y540443D01*
X398864Y540398D01*
X398790Y540356D01*
X398713Y540318D01*
X398635Y540283D01*
X398556Y540251D01*
X398475Y540223D01*
X398393Y540199D01*
X398309Y540178D01*
X398226Y540161D01*
X398141Y540148D01*
X398056Y540139D01*
X397971Y540133D01*
X397885Y540131D01*
X395797Y542219D02*
X399974Y547441D01*
X404506Y543786D02*
X410772Y543786D01*
X420751Y540131D02*
X420751Y549529D01*
X423362Y549529D01*
X423463Y549527D01*
X423564Y549521D01*
X423665Y549511D01*
X423765Y549498D01*
X423865Y549480D01*
X423964Y549459D01*
X424062Y549433D01*
X424159Y549404D01*
X424255Y549372D01*
X424349Y549335D01*
X424442Y549295D01*
X424534Y549251D01*
X424623Y549204D01*
X424711Y549153D01*
X424797Y549099D01*
X424880Y549042D01*
X424962Y548982D01*
X425040Y548918D01*
X425117Y548852D01*
X425190Y548782D01*
X425261Y548710D01*
X425329Y548635D01*
X425394Y548557D01*
X425456Y548477D01*
X425515Y548395D01*
X425571Y548310D01*
X425623Y548224D01*
X425672Y548135D01*
X425718Y548044D01*
X425759Y547952D01*
X425798Y547858D01*
X425832Y547763D01*
X425863Y547667D01*
X425890Y547569D01*
X425914Y547471D01*
X425933Y547371D01*
X425949Y547271D01*
X425961Y547171D01*
X425969Y547070D01*
X425973Y546969D01*
X425973Y546867D01*
X425969Y546766D01*
X425961Y546665D01*
X425949Y546565D01*
X425933Y546465D01*
X425914Y546365D01*
X425890Y546267D01*
X425863Y546169D01*
X425832Y546073D01*
X425798Y545978D01*
X425759Y545884D01*
X425718Y545792D01*
X425672Y545701D01*
X425623Y545613D01*
X425571Y545526D01*
X425515Y545441D01*
X425456Y545359D01*
X425394Y545279D01*
X425329Y545201D01*
X425261Y545126D01*
X425190Y545054D01*
X425117Y544984D01*
X425040Y544918D01*
X424962Y544854D01*
X424880Y544794D01*
X424797Y544737D01*
X424711Y544683D01*
X424623Y544632D01*
X424534Y544585D01*
X424442Y544541D01*
X424349Y544501D01*
X424255Y544464D01*
X424159Y544432D01*
X424062Y544403D01*
X423964Y544377D01*
X423865Y544356D01*
X423765Y544338D01*
X423665Y544325D01*
X423564Y544315D01*
X423463Y544309D01*
X423362Y544307D01*
X423362Y544308D02*
X420751Y544308D01*
X431460Y540131D02*
X431460Y549529D01*
X434070Y549529D02*
X428849Y549529D01*
X438166Y548224D02*
X438087Y548057D01*
X438012Y547888D01*
X437941Y547717D01*
X437874Y547545D01*
X437812Y547371D01*
X437753Y547195D01*
X437699Y547019D01*
X437649Y546841D01*
X437603Y546661D01*
X437561Y546481D01*
X437524Y546300D01*
X437491Y546118D01*
X437462Y545936D01*
X437438Y545752D01*
X437418Y545568D01*
X437403Y545384D01*
X437392Y545200D01*
X437385Y545015D01*
X437383Y544830D01*
X438166Y548224D02*
X438196Y548304D01*
X438229Y548383D01*
X438266Y548460D01*
X438306Y548536D01*
X438349Y548610D01*
X438395Y548682D01*
X438445Y548751D01*
X438497Y548819D01*
X438553Y548884D01*
X438611Y548947D01*
X438673Y549006D01*
X438736Y549064D01*
X438803Y549118D01*
X438871Y549169D01*
X438942Y549217D01*
X439015Y549262D01*
X439089Y549304D01*
X439166Y549342D01*
X439244Y549377D01*
X439323Y549409D01*
X439404Y549437D01*
X439486Y549461D01*
X439570Y549482D01*
X439653Y549499D01*
X439738Y549512D01*
X439823Y549521D01*
X439908Y549527D01*
X439994Y549529D01*
X440080Y549527D01*
X440165Y549521D01*
X440250Y549512D01*
X440335Y549499D01*
X440418Y549482D01*
X440502Y549461D01*
X440584Y549437D01*
X440665Y549409D01*
X440744Y549377D01*
X440822Y549342D01*
X440899Y549304D01*
X440973Y549262D01*
X441046Y549217D01*
X441117Y549169D01*
X441185Y549118D01*
X441252Y549064D01*
X441315Y549006D01*
X441377Y548947D01*
X441435Y548884D01*
X441491Y548819D01*
X441543Y548751D01*
X441593Y548682D01*
X441639Y548610D01*
X441682Y548536D01*
X441722Y548460D01*
X441759Y548383D01*
X441792Y548304D01*
X441822Y548224D01*
X441901Y548057D01*
X441976Y547888D01*
X442047Y547717D01*
X442114Y547545D01*
X442176Y547371D01*
X442235Y547195D01*
X442289Y547019D01*
X442339Y546841D01*
X442385Y546661D01*
X442427Y546481D01*
X442464Y546300D01*
X442497Y546118D01*
X442526Y545936D01*
X442550Y545752D01*
X442570Y545568D01*
X442585Y545384D01*
X442596Y545200D01*
X442603Y545015D01*
X442605Y544830D01*
X437384Y544830D02*
X437386Y544645D01*
X437393Y544460D01*
X437404Y544276D01*
X437419Y544092D01*
X437439Y543908D01*
X437463Y543724D01*
X437492Y543542D01*
X437525Y543360D01*
X437562Y543179D01*
X437604Y542999D01*
X437650Y542819D01*
X437700Y542641D01*
X437754Y542465D01*
X437813Y542289D01*
X437875Y542115D01*
X437942Y541943D01*
X438013Y541772D01*
X438088Y541603D01*
X438167Y541436D01*
X438166Y541436D02*
X438196Y541356D01*
X438229Y541277D01*
X438266Y541200D01*
X438306Y541124D01*
X438349Y541050D01*
X438395Y540978D01*
X438445Y540909D01*
X438498Y540841D01*
X438553Y540776D01*
X438612Y540713D01*
X438673Y540654D01*
X438736Y540596D01*
X438803Y540542D01*
X438871Y540491D01*
X438942Y540443D01*
X439015Y540398D01*
X439089Y540356D01*
X439166Y540318D01*
X439244Y540283D01*
X439323Y540251D01*
X439404Y540223D01*
X439486Y540199D01*
X439570Y540178D01*
X439653Y540161D01*
X439738Y540148D01*
X439823Y540139D01*
X439908Y540133D01*
X439994Y540131D01*
X441822Y541436D02*
X441901Y541603D01*
X441976Y541772D01*
X442047Y541943D01*
X442114Y542115D01*
X442176Y542289D01*
X442235Y542465D01*
X442289Y542641D01*
X442339Y542819D01*
X442385Y542999D01*
X442427Y543179D01*
X442464Y543360D01*
X442497Y543542D01*
X442526Y543724D01*
X442550Y543908D01*
X442570Y544092D01*
X442585Y544276D01*
X442596Y544460D01*
X442603Y544645D01*
X442605Y544830D01*
X441822Y541436D02*
X441792Y541356D01*
X441759Y541277D01*
X441722Y541200D01*
X441682Y541124D01*
X441639Y541050D01*
X441593Y540978D01*
X441543Y540909D01*
X441491Y540841D01*
X441435Y540776D01*
X441377Y540713D01*
X441315Y540654D01*
X441252Y540596D01*
X441185Y540542D01*
X441117Y540491D01*
X441046Y540443D01*
X440973Y540398D01*
X440899Y540356D01*
X440822Y540318D01*
X440744Y540283D01*
X440665Y540251D01*
X440584Y540223D01*
X440502Y540199D01*
X440418Y540178D01*
X440335Y540161D01*
X440250Y540148D01*
X440165Y540139D01*
X440080Y540133D01*
X439994Y540131D01*
X437906Y542219D02*
X442083Y547441D01*
X455676Y540131D02*
X461941Y549529D01*
X455676Y549529D02*
X461941Y540131D01*
X465342Y544830D02*
X465344Y545015D01*
X465351Y545200D01*
X465362Y545384D01*
X465377Y545568D01*
X465397Y545752D01*
X465421Y545936D01*
X465450Y546118D01*
X465483Y546300D01*
X465520Y546481D01*
X465562Y546661D01*
X465608Y546841D01*
X465658Y547019D01*
X465712Y547195D01*
X465771Y547371D01*
X465833Y547545D01*
X465900Y547717D01*
X465971Y547888D01*
X466046Y548057D01*
X466125Y548224D01*
X466155Y548304D01*
X466188Y548383D01*
X466225Y548460D01*
X466265Y548536D01*
X466308Y548610D01*
X466354Y548682D01*
X466404Y548751D01*
X466456Y548819D01*
X466512Y548884D01*
X466570Y548947D01*
X466632Y549006D01*
X466695Y549064D01*
X466762Y549118D01*
X466830Y549169D01*
X466901Y549217D01*
X466974Y549262D01*
X467048Y549304D01*
X467125Y549342D01*
X467203Y549377D01*
X467282Y549409D01*
X467363Y549437D01*
X467445Y549461D01*
X467529Y549482D01*
X467612Y549499D01*
X467697Y549512D01*
X467782Y549521D01*
X467867Y549527D01*
X467953Y549529D01*
X468039Y549527D01*
X468124Y549521D01*
X468209Y549512D01*
X468294Y549499D01*
X468377Y549482D01*
X468461Y549461D01*
X468543Y549437D01*
X468624Y549409D01*
X468703Y549377D01*
X468781Y549342D01*
X468858Y549304D01*
X468932Y549262D01*
X469005Y549217D01*
X469076Y549169D01*
X469144Y549118D01*
X469211Y549064D01*
X469274Y549006D01*
X469336Y548947D01*
X469394Y548884D01*
X469450Y548819D01*
X469502Y548751D01*
X469552Y548682D01*
X469598Y548610D01*
X469641Y548536D01*
X469681Y548460D01*
X469718Y548383D01*
X469751Y548304D01*
X469781Y548224D01*
X469780Y548224D02*
X469859Y548057D01*
X469934Y547888D01*
X470005Y547717D01*
X470072Y547545D01*
X470134Y547371D01*
X470193Y547195D01*
X470247Y547019D01*
X470297Y546841D01*
X470343Y546661D01*
X470385Y546481D01*
X470422Y546300D01*
X470455Y546118D01*
X470484Y545936D01*
X470508Y545752D01*
X470528Y545568D01*
X470543Y545384D01*
X470554Y545200D01*
X470561Y545015D01*
X470563Y544830D01*
X465342Y544830D02*
X465344Y544645D01*
X465351Y544460D01*
X465362Y544276D01*
X465377Y544092D01*
X465397Y543908D01*
X465421Y543724D01*
X465450Y543542D01*
X465483Y543360D01*
X465520Y543179D01*
X465562Y542999D01*
X465608Y542819D01*
X465658Y542641D01*
X465712Y542465D01*
X465771Y542289D01*
X465833Y542115D01*
X465900Y541943D01*
X465971Y541772D01*
X466046Y541603D01*
X466125Y541436D01*
X466155Y541356D01*
X466188Y541277D01*
X466225Y541200D01*
X466265Y541124D01*
X466308Y541050D01*
X466354Y540978D01*
X466404Y540909D01*
X466457Y540841D01*
X466512Y540776D01*
X466571Y540713D01*
X466632Y540654D01*
X466695Y540596D01*
X466762Y540542D01*
X466830Y540491D01*
X466901Y540443D01*
X466974Y540398D01*
X467048Y540356D01*
X467125Y540318D01*
X467203Y540283D01*
X467282Y540251D01*
X467363Y540223D01*
X467445Y540199D01*
X467529Y540178D01*
X467612Y540161D01*
X467697Y540148D01*
X467782Y540139D01*
X467867Y540133D01*
X467953Y540131D01*
X469780Y541436D02*
X469859Y541603D01*
X469934Y541772D01*
X470005Y541943D01*
X470072Y542115D01*
X470134Y542289D01*
X470193Y542465D01*
X470247Y542641D01*
X470297Y542819D01*
X470343Y542999D01*
X470385Y543179D01*
X470422Y543360D01*
X470455Y543542D01*
X470484Y543724D01*
X470508Y543908D01*
X470528Y544092D01*
X470543Y544276D01*
X470554Y544460D01*
X470561Y544645D01*
X470563Y544830D01*
X469781Y541436D02*
X469751Y541356D01*
X469718Y541277D01*
X469681Y541200D01*
X469641Y541124D01*
X469598Y541050D01*
X469552Y540978D01*
X469502Y540909D01*
X469450Y540841D01*
X469394Y540776D01*
X469336Y540713D01*
X469274Y540654D01*
X469211Y540596D01*
X469144Y540542D01*
X469076Y540491D01*
X469005Y540443D01*
X468932Y540398D01*
X468858Y540356D01*
X468781Y540318D01*
X468703Y540283D01*
X468624Y540251D01*
X468543Y540223D01*
X468461Y540199D01*
X468377Y540178D01*
X468294Y540161D01*
X468209Y540148D01*
X468124Y540139D01*
X468039Y540133D01*
X467953Y540131D01*
X465864Y542219D02*
X470041Y547441D01*
X474094Y539087D02*
X478271Y539087D01*
X482123Y540131D02*
X482123Y549529D01*
X482123Y540131D02*
X486300Y540131D01*
X490118Y540131D02*
X490118Y549529D01*
X493251Y544308D01*
X496384Y549529D01*
X496384Y540131D01*
X502700Y540131D02*
X502700Y549529D01*
X505310Y549529D02*
X500089Y549529D01*
X519176Y540131D02*
X522309Y549529D01*
X525441Y540131D01*
X524658Y542481D02*
X519959Y542481D01*
X528842Y544830D02*
X528844Y545015D01*
X528851Y545200D01*
X528862Y545384D01*
X528877Y545568D01*
X528897Y545752D01*
X528921Y545936D01*
X528950Y546118D01*
X528983Y546300D01*
X529020Y546481D01*
X529062Y546661D01*
X529108Y546841D01*
X529158Y547019D01*
X529212Y547195D01*
X529271Y547371D01*
X529333Y547545D01*
X529400Y547717D01*
X529471Y547888D01*
X529546Y548057D01*
X529625Y548224D01*
X529655Y548304D01*
X529688Y548383D01*
X529725Y548460D01*
X529765Y548536D01*
X529808Y548610D01*
X529854Y548682D01*
X529904Y548751D01*
X529956Y548819D01*
X530012Y548884D01*
X530070Y548947D01*
X530132Y549006D01*
X530195Y549064D01*
X530262Y549118D01*
X530330Y549169D01*
X530401Y549217D01*
X530474Y549262D01*
X530548Y549304D01*
X530625Y549342D01*
X530703Y549377D01*
X530782Y549409D01*
X530863Y549437D01*
X530945Y549461D01*
X531029Y549482D01*
X531112Y549499D01*
X531197Y549512D01*
X531282Y549521D01*
X531367Y549527D01*
X531453Y549529D01*
X531539Y549527D01*
X531624Y549521D01*
X531709Y549512D01*
X531794Y549499D01*
X531877Y549482D01*
X531961Y549461D01*
X532043Y549437D01*
X532124Y549409D01*
X532203Y549377D01*
X532281Y549342D01*
X532358Y549304D01*
X532432Y549262D01*
X532505Y549217D01*
X532576Y549169D01*
X532644Y549118D01*
X532711Y549064D01*
X532774Y549006D01*
X532836Y548947D01*
X532894Y548884D01*
X532950Y548819D01*
X533002Y548751D01*
X533052Y548682D01*
X533098Y548610D01*
X533141Y548536D01*
X533181Y548460D01*
X533218Y548383D01*
X533251Y548304D01*
X533281Y548224D01*
X533280Y548224D02*
X533359Y548057D01*
X533434Y547888D01*
X533505Y547717D01*
X533572Y547545D01*
X533634Y547371D01*
X533693Y547195D01*
X533747Y547019D01*
X533797Y546841D01*
X533843Y546661D01*
X533885Y546481D01*
X533922Y546300D01*
X533955Y546118D01*
X533984Y545936D01*
X534008Y545752D01*
X534028Y545568D01*
X534043Y545384D01*
X534054Y545200D01*
X534061Y545015D01*
X534063Y544830D01*
X528842Y544830D02*
X528844Y544645D01*
X528851Y544460D01*
X528862Y544276D01*
X528877Y544092D01*
X528897Y543908D01*
X528921Y543724D01*
X528950Y543542D01*
X528983Y543360D01*
X529020Y543179D01*
X529062Y542999D01*
X529108Y542819D01*
X529158Y542641D01*
X529212Y542465D01*
X529271Y542289D01*
X529333Y542115D01*
X529400Y541943D01*
X529471Y541772D01*
X529546Y541603D01*
X529625Y541436D01*
X529655Y541356D01*
X529688Y541277D01*
X529725Y541200D01*
X529765Y541124D01*
X529808Y541050D01*
X529854Y540978D01*
X529904Y540909D01*
X529957Y540841D01*
X530012Y540776D01*
X530071Y540713D01*
X530132Y540654D01*
X530195Y540596D01*
X530262Y540542D01*
X530330Y540491D01*
X530401Y540443D01*
X530474Y540398D01*
X530548Y540356D01*
X530625Y540318D01*
X530703Y540283D01*
X530782Y540251D01*
X530863Y540223D01*
X530945Y540199D01*
X531029Y540178D01*
X531112Y540161D01*
X531197Y540148D01*
X531282Y540139D01*
X531367Y540133D01*
X531453Y540131D01*
X533280Y541436D02*
X533359Y541603D01*
X533434Y541772D01*
X533505Y541943D01*
X533572Y542115D01*
X533634Y542289D01*
X533693Y542465D01*
X533747Y542641D01*
X533797Y542819D01*
X533843Y542999D01*
X533885Y543179D01*
X533922Y543360D01*
X533955Y543542D01*
X533984Y543724D01*
X534008Y543908D01*
X534028Y544092D01*
X534043Y544276D01*
X534054Y544460D01*
X534061Y544645D01*
X534063Y544830D01*
X533281Y541436D02*
X533251Y541356D01*
X533218Y541277D01*
X533181Y541200D01*
X533141Y541124D01*
X533098Y541050D01*
X533052Y540978D01*
X533002Y540909D01*
X532950Y540841D01*
X532894Y540776D01*
X532836Y540713D01*
X532774Y540654D01*
X532711Y540596D01*
X532644Y540542D01*
X532576Y540491D01*
X532505Y540443D01*
X532432Y540398D01*
X532358Y540356D01*
X532281Y540318D01*
X532203Y540283D01*
X532124Y540251D01*
X532043Y540223D01*
X531961Y540199D01*
X531877Y540178D01*
X531794Y540161D01*
X531709Y540148D01*
X531624Y540139D01*
X531539Y540133D01*
X531453Y540131D01*
X529364Y542219D02*
X533541Y547441D01*
X538074Y543786D02*
X544339Y543786D01*
X344509Y492379D02*
X341376Y482981D01*
X347641Y482981D02*
X344509Y492379D01*
X346858Y485331D02*
X342159Y485331D01*
X351042Y487680D02*
X351044Y487865D01*
X351051Y488050D01*
X351062Y488234D01*
X351077Y488418D01*
X351097Y488602D01*
X351121Y488786D01*
X351150Y488968D01*
X351183Y489150D01*
X351220Y489331D01*
X351262Y489511D01*
X351308Y489691D01*
X351358Y489869D01*
X351412Y490045D01*
X351471Y490221D01*
X351533Y490395D01*
X351600Y490567D01*
X351671Y490738D01*
X351746Y490907D01*
X351825Y491074D01*
X351855Y491154D01*
X351888Y491233D01*
X351925Y491310D01*
X351965Y491386D01*
X352008Y491460D01*
X352054Y491532D01*
X352104Y491601D01*
X352156Y491669D01*
X352212Y491734D01*
X352270Y491797D01*
X352332Y491856D01*
X352395Y491914D01*
X352462Y491968D01*
X352530Y492019D01*
X352601Y492067D01*
X352674Y492112D01*
X352748Y492154D01*
X352825Y492192D01*
X352903Y492227D01*
X352982Y492259D01*
X353063Y492287D01*
X353145Y492311D01*
X353229Y492332D01*
X353312Y492349D01*
X353397Y492362D01*
X353482Y492371D01*
X353567Y492377D01*
X353653Y492379D01*
X353739Y492377D01*
X353824Y492371D01*
X353909Y492362D01*
X353994Y492349D01*
X354077Y492332D01*
X354161Y492311D01*
X354243Y492287D01*
X354324Y492259D01*
X354403Y492227D01*
X354481Y492192D01*
X354558Y492154D01*
X354632Y492112D01*
X354705Y492067D01*
X354776Y492019D01*
X354844Y491968D01*
X354911Y491914D01*
X354974Y491856D01*
X355036Y491797D01*
X355094Y491734D01*
X355150Y491669D01*
X355202Y491601D01*
X355252Y491532D01*
X355298Y491460D01*
X355341Y491386D01*
X355381Y491310D01*
X355418Y491233D01*
X355451Y491154D01*
X355481Y491074D01*
X355480Y491074D02*
X355559Y490907D01*
X355634Y490738D01*
X355705Y490567D01*
X355772Y490395D01*
X355834Y490221D01*
X355893Y490045D01*
X355947Y489869D01*
X355997Y489691D01*
X356043Y489511D01*
X356085Y489331D01*
X356122Y489150D01*
X356155Y488968D01*
X356184Y488786D01*
X356208Y488602D01*
X356228Y488418D01*
X356243Y488234D01*
X356254Y488050D01*
X356261Y487865D01*
X356263Y487680D01*
X351042Y487680D02*
X351044Y487495D01*
X351051Y487310D01*
X351062Y487126D01*
X351077Y486942D01*
X351097Y486758D01*
X351121Y486574D01*
X351150Y486392D01*
X351183Y486210D01*
X351220Y486029D01*
X351262Y485849D01*
X351308Y485669D01*
X351358Y485491D01*
X351412Y485315D01*
X351471Y485139D01*
X351533Y484965D01*
X351600Y484793D01*
X351671Y484622D01*
X351746Y484453D01*
X351825Y484286D01*
X351855Y484206D01*
X351888Y484127D01*
X351925Y484050D01*
X351965Y483974D01*
X352008Y483900D01*
X352054Y483828D01*
X352104Y483759D01*
X352157Y483691D01*
X352212Y483626D01*
X352271Y483563D01*
X352332Y483504D01*
X352395Y483446D01*
X352462Y483392D01*
X352530Y483341D01*
X352601Y483293D01*
X352674Y483248D01*
X352748Y483206D01*
X352825Y483168D01*
X352903Y483133D01*
X352982Y483101D01*
X353063Y483073D01*
X353145Y483049D01*
X353229Y483028D01*
X353312Y483011D01*
X353397Y482998D01*
X353482Y482989D01*
X353567Y482983D01*
X353653Y482981D01*
X355480Y484286D02*
X355559Y484453D01*
X355634Y484622D01*
X355705Y484793D01*
X355772Y484965D01*
X355834Y485139D01*
X355893Y485315D01*
X355947Y485491D01*
X355997Y485669D01*
X356043Y485849D01*
X356085Y486029D01*
X356122Y486210D01*
X356155Y486392D01*
X356184Y486574D01*
X356208Y486758D01*
X356228Y486942D01*
X356243Y487126D01*
X356254Y487310D01*
X356261Y487495D01*
X356263Y487680D01*
X355481Y484286D02*
X355451Y484206D01*
X355418Y484127D01*
X355381Y484050D01*
X355341Y483974D01*
X355298Y483900D01*
X355252Y483828D01*
X355202Y483759D01*
X355150Y483691D01*
X355094Y483626D01*
X355036Y483563D01*
X354974Y483504D01*
X354911Y483446D01*
X354844Y483392D01*
X354776Y483341D01*
X354705Y483293D01*
X354632Y483248D01*
X354558Y483206D01*
X354481Y483168D01*
X354403Y483133D01*
X354324Y483101D01*
X354243Y483073D01*
X354161Y483049D01*
X354077Y483028D01*
X353994Y483011D01*
X353909Y482998D01*
X353824Y482989D01*
X353739Y482983D01*
X353653Y482981D01*
X351564Y485069D02*
X355741Y490291D01*
X360274Y486636D02*
X366539Y486636D01*
X363406Y483503D02*
X363406Y489768D01*
X713486Y488202D02*
X716097Y488202D01*
X716097Y488203D02*
X716198Y488201D01*
X716299Y488195D01*
X716400Y488185D01*
X716500Y488172D01*
X716600Y488154D01*
X716699Y488133D01*
X716797Y488107D01*
X716894Y488078D01*
X716990Y488046D01*
X717084Y488009D01*
X717177Y487969D01*
X717269Y487925D01*
X717358Y487878D01*
X717446Y487827D01*
X717532Y487773D01*
X717615Y487716D01*
X717697Y487656D01*
X717775Y487592D01*
X717852Y487526D01*
X717925Y487456D01*
X717996Y487384D01*
X718064Y487309D01*
X718129Y487231D01*
X718191Y487151D01*
X718250Y487069D01*
X718306Y486984D01*
X718358Y486897D01*
X718407Y486809D01*
X718453Y486718D01*
X718494Y486626D01*
X718533Y486532D01*
X718567Y486437D01*
X718598Y486341D01*
X718625Y486243D01*
X718649Y486145D01*
X718668Y486045D01*
X718684Y485945D01*
X718696Y485845D01*
X718704Y485744D01*
X718708Y485643D01*
X718708Y485541D01*
X718704Y485440D01*
X718696Y485339D01*
X718684Y485239D01*
X718668Y485139D01*
X718649Y485039D01*
X718625Y484941D01*
X718598Y484843D01*
X718567Y484747D01*
X718533Y484652D01*
X718494Y484558D01*
X718453Y484466D01*
X718407Y484375D01*
X718358Y484287D01*
X718306Y484200D01*
X718250Y484115D01*
X718191Y484033D01*
X718129Y483953D01*
X718064Y483875D01*
X717996Y483800D01*
X717925Y483728D01*
X717852Y483658D01*
X717775Y483592D01*
X717697Y483528D01*
X717615Y483468D01*
X717532Y483411D01*
X717446Y483357D01*
X717358Y483306D01*
X717269Y483259D01*
X717177Y483215D01*
X717084Y483175D01*
X716990Y483138D01*
X716894Y483106D01*
X716797Y483077D01*
X716699Y483051D01*
X716600Y483030D01*
X716500Y483012D01*
X716400Y482999D01*
X716299Y482989D01*
X716198Y482983D01*
X716097Y482981D01*
X713486Y482981D01*
X713486Y492379D01*
X716097Y492379D01*
X716187Y492377D01*
X716276Y492371D01*
X716366Y492362D01*
X716455Y492348D01*
X716543Y492331D01*
X716630Y492310D01*
X716717Y492285D01*
X716802Y492256D01*
X716886Y492224D01*
X716968Y492189D01*
X717049Y492149D01*
X717128Y492107D01*
X717205Y492061D01*
X717280Y492011D01*
X717353Y491959D01*
X717424Y491903D01*
X717492Y491845D01*
X717557Y491783D01*
X717620Y491719D01*
X717680Y491652D01*
X717737Y491583D01*
X717791Y491511D01*
X717842Y491437D01*
X717890Y491361D01*
X717934Y491283D01*
X717975Y491203D01*
X718013Y491121D01*
X718047Y491038D01*
X718077Y490953D01*
X718104Y490867D01*
X718127Y490781D01*
X718146Y490693D01*
X718161Y490604D01*
X718173Y490515D01*
X718181Y490426D01*
X718185Y490336D01*
X718185Y490246D01*
X718181Y490156D01*
X718173Y490067D01*
X718161Y489978D01*
X718146Y489889D01*
X718127Y489801D01*
X718104Y489715D01*
X718077Y489629D01*
X718047Y489544D01*
X718013Y489461D01*
X717975Y489379D01*
X717934Y489299D01*
X717890Y489221D01*
X717842Y489145D01*
X717791Y489071D01*
X717737Y488999D01*
X717680Y488930D01*
X717620Y488863D01*
X717557Y488799D01*
X717492Y488737D01*
X717424Y488679D01*
X717353Y488623D01*
X717280Y488571D01*
X717205Y488521D01*
X717128Y488475D01*
X717049Y488433D01*
X716968Y488393D01*
X716886Y488358D01*
X716802Y488326D01*
X716717Y488297D01*
X716630Y488272D01*
X716543Y488251D01*
X716455Y488234D01*
X716366Y488220D01*
X716276Y488211D01*
X716187Y488205D01*
X716097Y488203D01*
X722194Y487680D02*
X722196Y487865D01*
X722203Y488050D01*
X722214Y488234D01*
X722229Y488418D01*
X722249Y488602D01*
X722273Y488786D01*
X722302Y488968D01*
X722335Y489150D01*
X722372Y489331D01*
X722414Y489511D01*
X722460Y489691D01*
X722510Y489869D01*
X722564Y490045D01*
X722623Y490221D01*
X722685Y490395D01*
X722752Y490567D01*
X722823Y490738D01*
X722898Y490907D01*
X722977Y491074D01*
X722976Y491074D02*
X723006Y491154D01*
X723039Y491233D01*
X723076Y491310D01*
X723116Y491386D01*
X723159Y491460D01*
X723205Y491532D01*
X723255Y491601D01*
X723307Y491669D01*
X723363Y491734D01*
X723421Y491797D01*
X723483Y491856D01*
X723546Y491914D01*
X723613Y491968D01*
X723681Y492019D01*
X723752Y492067D01*
X723825Y492112D01*
X723899Y492154D01*
X723976Y492192D01*
X724054Y492227D01*
X724133Y492259D01*
X724214Y492287D01*
X724296Y492311D01*
X724380Y492332D01*
X724463Y492349D01*
X724548Y492362D01*
X724633Y492371D01*
X724718Y492377D01*
X724804Y492379D01*
X724890Y492377D01*
X724975Y492371D01*
X725060Y492362D01*
X725145Y492349D01*
X725228Y492332D01*
X725312Y492311D01*
X725394Y492287D01*
X725475Y492259D01*
X725554Y492227D01*
X725632Y492192D01*
X725709Y492154D01*
X725783Y492112D01*
X725856Y492067D01*
X725927Y492019D01*
X725995Y491968D01*
X726062Y491914D01*
X726125Y491856D01*
X726187Y491797D01*
X726245Y491734D01*
X726301Y491669D01*
X726353Y491601D01*
X726403Y491532D01*
X726449Y491460D01*
X726492Y491386D01*
X726532Y491310D01*
X726569Y491233D01*
X726602Y491154D01*
X726632Y491074D01*
X726711Y490907D01*
X726786Y490738D01*
X726857Y490567D01*
X726924Y490395D01*
X726986Y490221D01*
X727045Y490045D01*
X727099Y489869D01*
X727149Y489691D01*
X727195Y489511D01*
X727237Y489331D01*
X727274Y489150D01*
X727307Y488968D01*
X727336Y488786D01*
X727360Y488602D01*
X727380Y488418D01*
X727395Y488234D01*
X727406Y488050D01*
X727413Y487865D01*
X727415Y487680D01*
X722194Y487680D02*
X722196Y487495D01*
X722203Y487310D01*
X722214Y487126D01*
X722229Y486942D01*
X722249Y486758D01*
X722273Y486574D01*
X722302Y486392D01*
X722335Y486210D01*
X722372Y486029D01*
X722414Y485849D01*
X722460Y485669D01*
X722510Y485491D01*
X722564Y485315D01*
X722623Y485139D01*
X722685Y484965D01*
X722752Y484793D01*
X722823Y484622D01*
X722898Y484453D01*
X722977Y484286D01*
X722976Y484286D02*
X723006Y484206D01*
X723039Y484127D01*
X723076Y484050D01*
X723116Y483974D01*
X723159Y483900D01*
X723205Y483828D01*
X723255Y483759D01*
X723308Y483691D01*
X723363Y483626D01*
X723422Y483563D01*
X723483Y483504D01*
X723546Y483446D01*
X723613Y483392D01*
X723681Y483341D01*
X723752Y483293D01*
X723825Y483248D01*
X723899Y483206D01*
X723976Y483168D01*
X724054Y483133D01*
X724133Y483101D01*
X724214Y483073D01*
X724296Y483049D01*
X724380Y483028D01*
X724463Y483011D01*
X724548Y482998D01*
X724633Y482989D01*
X724718Y482983D01*
X724804Y482981D01*
X726632Y484286D02*
X726711Y484453D01*
X726786Y484622D01*
X726857Y484793D01*
X726924Y484965D01*
X726986Y485139D01*
X727045Y485315D01*
X727099Y485491D01*
X727149Y485669D01*
X727195Y485849D01*
X727237Y486029D01*
X727274Y486210D01*
X727307Y486392D01*
X727336Y486574D01*
X727360Y486758D01*
X727380Y486942D01*
X727395Y487126D01*
X727406Y487310D01*
X727413Y487495D01*
X727415Y487680D01*
X726632Y484286D02*
X726602Y484206D01*
X726569Y484127D01*
X726532Y484050D01*
X726492Y483974D01*
X726449Y483900D01*
X726403Y483828D01*
X726353Y483759D01*
X726301Y483691D01*
X726245Y483626D01*
X726187Y483563D01*
X726125Y483504D01*
X726062Y483446D01*
X725995Y483392D01*
X725927Y483341D01*
X725856Y483293D01*
X725783Y483248D01*
X725709Y483206D01*
X725632Y483168D01*
X725554Y483133D01*
X725475Y483101D01*
X725394Y483073D01*
X725312Y483049D01*
X725228Y483028D01*
X725145Y483011D01*
X725060Y482998D01*
X724975Y482989D01*
X724890Y482983D01*
X724804Y482981D01*
X722716Y485069D02*
X726893Y490291D01*
X731425Y486636D02*
X737691Y486636D01*
X746506Y488202D02*
X749117Y488202D01*
X749117Y488203D02*
X749218Y488201D01*
X749319Y488195D01*
X749420Y488185D01*
X749520Y488172D01*
X749620Y488154D01*
X749719Y488133D01*
X749817Y488107D01*
X749914Y488078D01*
X750010Y488046D01*
X750104Y488009D01*
X750197Y487969D01*
X750289Y487925D01*
X750378Y487878D01*
X750466Y487827D01*
X750552Y487773D01*
X750635Y487716D01*
X750717Y487656D01*
X750795Y487592D01*
X750872Y487526D01*
X750945Y487456D01*
X751016Y487384D01*
X751084Y487309D01*
X751149Y487231D01*
X751211Y487151D01*
X751270Y487069D01*
X751326Y486984D01*
X751378Y486897D01*
X751427Y486809D01*
X751473Y486718D01*
X751514Y486626D01*
X751553Y486532D01*
X751587Y486437D01*
X751618Y486341D01*
X751645Y486243D01*
X751669Y486145D01*
X751688Y486045D01*
X751704Y485945D01*
X751716Y485845D01*
X751724Y485744D01*
X751728Y485643D01*
X751728Y485541D01*
X751724Y485440D01*
X751716Y485339D01*
X751704Y485239D01*
X751688Y485139D01*
X751669Y485039D01*
X751645Y484941D01*
X751618Y484843D01*
X751587Y484747D01*
X751553Y484652D01*
X751514Y484558D01*
X751473Y484466D01*
X751427Y484375D01*
X751378Y484287D01*
X751326Y484200D01*
X751270Y484115D01*
X751211Y484033D01*
X751149Y483953D01*
X751084Y483875D01*
X751016Y483800D01*
X750945Y483728D01*
X750872Y483658D01*
X750795Y483592D01*
X750717Y483528D01*
X750635Y483468D01*
X750552Y483411D01*
X750466Y483357D01*
X750378Y483306D01*
X750289Y483259D01*
X750197Y483215D01*
X750104Y483175D01*
X750010Y483138D01*
X749914Y483106D01*
X749817Y483077D01*
X749719Y483051D01*
X749620Y483030D01*
X749520Y483012D01*
X749420Y482999D01*
X749319Y482989D01*
X749218Y482983D01*
X749117Y482981D01*
X746506Y482981D01*
X746506Y492379D01*
X749117Y492379D01*
X749207Y492377D01*
X749296Y492371D01*
X749386Y492362D01*
X749475Y492348D01*
X749563Y492331D01*
X749650Y492310D01*
X749737Y492285D01*
X749822Y492256D01*
X749906Y492224D01*
X749988Y492189D01*
X750069Y492149D01*
X750148Y492107D01*
X750225Y492061D01*
X750300Y492011D01*
X750373Y491959D01*
X750444Y491903D01*
X750512Y491845D01*
X750577Y491783D01*
X750640Y491719D01*
X750700Y491652D01*
X750757Y491583D01*
X750811Y491511D01*
X750862Y491437D01*
X750910Y491361D01*
X750954Y491283D01*
X750995Y491203D01*
X751033Y491121D01*
X751067Y491038D01*
X751097Y490953D01*
X751124Y490867D01*
X751147Y490781D01*
X751166Y490693D01*
X751181Y490604D01*
X751193Y490515D01*
X751201Y490426D01*
X751205Y490336D01*
X751205Y490246D01*
X751201Y490156D01*
X751193Y490067D01*
X751181Y489978D01*
X751166Y489889D01*
X751147Y489801D01*
X751124Y489715D01*
X751097Y489629D01*
X751067Y489544D01*
X751033Y489461D01*
X750995Y489379D01*
X750954Y489299D01*
X750910Y489221D01*
X750862Y489145D01*
X750811Y489071D01*
X750757Y488999D01*
X750700Y488930D01*
X750640Y488863D01*
X750577Y488799D01*
X750512Y488737D01*
X750444Y488679D01*
X750373Y488623D01*
X750300Y488571D01*
X750225Y488521D01*
X750148Y488475D01*
X750069Y488433D01*
X749988Y488393D01*
X749906Y488358D01*
X749822Y488326D01*
X749737Y488297D01*
X749650Y488272D01*
X749563Y488251D01*
X749475Y488234D01*
X749386Y488220D01*
X749296Y488211D01*
X749207Y488205D01*
X749117Y488203D01*
X755214Y487680D02*
X755216Y487865D01*
X755223Y488050D01*
X755234Y488234D01*
X755249Y488418D01*
X755269Y488602D01*
X755293Y488786D01*
X755322Y488968D01*
X755355Y489150D01*
X755392Y489331D01*
X755434Y489511D01*
X755480Y489691D01*
X755530Y489869D01*
X755584Y490045D01*
X755643Y490221D01*
X755705Y490395D01*
X755772Y490567D01*
X755843Y490738D01*
X755918Y490907D01*
X755997Y491074D01*
X755996Y491074D02*
X756026Y491154D01*
X756059Y491233D01*
X756096Y491310D01*
X756136Y491386D01*
X756179Y491460D01*
X756225Y491532D01*
X756275Y491601D01*
X756327Y491669D01*
X756383Y491734D01*
X756441Y491797D01*
X756503Y491856D01*
X756566Y491914D01*
X756633Y491968D01*
X756701Y492019D01*
X756772Y492067D01*
X756845Y492112D01*
X756919Y492154D01*
X756996Y492192D01*
X757074Y492227D01*
X757153Y492259D01*
X757234Y492287D01*
X757316Y492311D01*
X757400Y492332D01*
X757483Y492349D01*
X757568Y492362D01*
X757653Y492371D01*
X757738Y492377D01*
X757824Y492379D01*
X757910Y492377D01*
X757995Y492371D01*
X758080Y492362D01*
X758165Y492349D01*
X758248Y492332D01*
X758332Y492311D01*
X758414Y492287D01*
X758495Y492259D01*
X758574Y492227D01*
X758652Y492192D01*
X758729Y492154D01*
X758803Y492112D01*
X758876Y492067D01*
X758947Y492019D01*
X759015Y491968D01*
X759082Y491914D01*
X759145Y491856D01*
X759207Y491797D01*
X759265Y491734D01*
X759321Y491669D01*
X759373Y491601D01*
X759423Y491532D01*
X759469Y491460D01*
X759512Y491386D01*
X759552Y491310D01*
X759589Y491233D01*
X759622Y491154D01*
X759652Y491074D01*
X759731Y490907D01*
X759806Y490738D01*
X759877Y490567D01*
X759944Y490395D01*
X760006Y490221D01*
X760065Y490045D01*
X760119Y489869D01*
X760169Y489691D01*
X760215Y489511D01*
X760257Y489331D01*
X760294Y489150D01*
X760327Y488968D01*
X760356Y488786D01*
X760380Y488602D01*
X760400Y488418D01*
X760415Y488234D01*
X760426Y488050D01*
X760433Y487865D01*
X760435Y487680D01*
X755214Y487680D02*
X755216Y487495D01*
X755223Y487310D01*
X755234Y487126D01*
X755249Y486942D01*
X755269Y486758D01*
X755293Y486574D01*
X755322Y486392D01*
X755355Y486210D01*
X755392Y486029D01*
X755434Y485849D01*
X755480Y485669D01*
X755530Y485491D01*
X755584Y485315D01*
X755643Y485139D01*
X755705Y484965D01*
X755772Y484793D01*
X755843Y484622D01*
X755918Y484453D01*
X755997Y484286D01*
X755996Y484286D02*
X756026Y484206D01*
X756059Y484127D01*
X756096Y484050D01*
X756136Y483974D01*
X756179Y483900D01*
X756225Y483828D01*
X756275Y483759D01*
X756328Y483691D01*
X756383Y483626D01*
X756442Y483563D01*
X756503Y483504D01*
X756566Y483446D01*
X756633Y483392D01*
X756701Y483341D01*
X756772Y483293D01*
X756845Y483248D01*
X756919Y483206D01*
X756996Y483168D01*
X757074Y483133D01*
X757153Y483101D01*
X757234Y483073D01*
X757316Y483049D01*
X757400Y483028D01*
X757483Y483011D01*
X757568Y482998D01*
X757653Y482989D01*
X757738Y482983D01*
X757824Y482981D01*
X759652Y484286D02*
X759731Y484453D01*
X759806Y484622D01*
X759877Y484793D01*
X759944Y484965D01*
X760006Y485139D01*
X760065Y485315D01*
X760119Y485491D01*
X760169Y485669D01*
X760215Y485849D01*
X760257Y486029D01*
X760294Y486210D01*
X760327Y486392D01*
X760356Y486574D01*
X760380Y486758D01*
X760400Y486942D01*
X760415Y487126D01*
X760426Y487310D01*
X760433Y487495D01*
X760435Y487680D01*
X759652Y484286D02*
X759622Y484206D01*
X759589Y484127D01*
X759552Y484050D01*
X759512Y483974D01*
X759469Y483900D01*
X759423Y483828D01*
X759373Y483759D01*
X759321Y483691D01*
X759265Y483626D01*
X759207Y483563D01*
X759145Y483504D01*
X759082Y483446D01*
X759015Y483392D01*
X758947Y483341D01*
X758876Y483293D01*
X758803Y483248D01*
X758729Y483206D01*
X758652Y483168D01*
X758574Y483133D01*
X758495Y483101D01*
X758414Y483073D01*
X758332Y483049D01*
X758248Y483028D01*
X758165Y483011D01*
X758080Y482998D01*
X757995Y482989D01*
X757910Y482983D01*
X757824Y482981D01*
X755736Y485069D02*
X759913Y490291D01*
X764445Y486636D02*
X770711Y486636D01*
X767578Y483503D02*
X767578Y489768D01*
X560183Y540131D02*
X558094Y540131D01*
X558005Y540133D01*
X557917Y540139D01*
X557829Y540148D01*
X557741Y540161D01*
X557654Y540178D01*
X557568Y540198D01*
X557483Y540223D01*
X557398Y540250D01*
X557315Y540282D01*
X557234Y540316D01*
X557154Y540355D01*
X557076Y540396D01*
X556999Y540441D01*
X556925Y540489D01*
X556852Y540540D01*
X556782Y540594D01*
X556715Y540652D01*
X556649Y540712D01*
X556587Y540774D01*
X556527Y540840D01*
X556469Y540907D01*
X556415Y540977D01*
X556364Y541050D01*
X556316Y541124D01*
X556271Y541201D01*
X556230Y541279D01*
X556191Y541359D01*
X556157Y541440D01*
X556125Y541523D01*
X556098Y541608D01*
X556073Y541693D01*
X556053Y541779D01*
X556036Y541866D01*
X556023Y541954D01*
X556014Y542042D01*
X556008Y542130D01*
X556006Y542219D01*
X556006Y547441D01*
X556008Y547532D01*
X556014Y547623D01*
X556024Y547714D01*
X556038Y547804D01*
X556055Y547893D01*
X556077Y547981D01*
X556103Y548069D01*
X556132Y548155D01*
X556165Y548240D01*
X556202Y548323D01*
X556242Y548405D01*
X556286Y548485D01*
X556333Y548563D01*
X556384Y548639D01*
X556437Y548712D01*
X556494Y548783D01*
X556555Y548852D01*
X556618Y548917D01*
X556683Y548980D01*
X556752Y549040D01*
X556823Y549098D01*
X556896Y549151D01*
X556972Y549202D01*
X557050Y549249D01*
X557130Y549293D01*
X557212Y549333D01*
X557295Y549370D01*
X557380Y549403D01*
X557466Y549432D01*
X557554Y549458D01*
X557642Y549480D01*
X557731Y549497D01*
X557821Y549511D01*
X557912Y549521D01*
X558003Y549527D01*
X558094Y549529D01*
X560183Y549529D01*
X563974Y549529D02*
X563974Y540131D01*
X563974Y549529D02*
X568151Y549529D01*
X568151Y545352D02*
X563974Y545352D01*
X571664Y543786D02*
X577929Y543786D01*
X593019Y540131D02*
X595108Y540131D01*
X593019Y540131D02*
X592930Y540133D01*
X592842Y540139D01*
X592754Y540148D01*
X592666Y540161D01*
X592579Y540178D01*
X592493Y540198D01*
X592408Y540223D01*
X592323Y540250D01*
X592240Y540282D01*
X592159Y540316D01*
X592079Y540355D01*
X592001Y540396D01*
X591924Y540441D01*
X591850Y540489D01*
X591777Y540540D01*
X591707Y540594D01*
X591640Y540652D01*
X591574Y540712D01*
X591512Y540774D01*
X591452Y540840D01*
X591394Y540907D01*
X591340Y540977D01*
X591289Y541050D01*
X591241Y541124D01*
X591196Y541201D01*
X591155Y541279D01*
X591116Y541359D01*
X591082Y541440D01*
X591050Y541523D01*
X591023Y541608D01*
X590998Y541693D01*
X590978Y541779D01*
X590961Y541866D01*
X590948Y541954D01*
X590939Y542042D01*
X590933Y542130D01*
X590931Y542219D01*
X590931Y547441D01*
X590933Y547532D01*
X590939Y547623D01*
X590949Y547714D01*
X590963Y547804D01*
X590980Y547893D01*
X591002Y547981D01*
X591028Y548069D01*
X591057Y548155D01*
X591090Y548240D01*
X591127Y548323D01*
X591167Y548405D01*
X591211Y548485D01*
X591258Y548563D01*
X591309Y548639D01*
X591362Y548712D01*
X591419Y548783D01*
X591480Y548852D01*
X591543Y548917D01*
X591608Y548980D01*
X591677Y549040D01*
X591748Y549098D01*
X591821Y549151D01*
X591897Y549202D01*
X591975Y549249D01*
X592055Y549293D01*
X592137Y549333D01*
X592220Y549370D01*
X592305Y549403D01*
X592391Y549432D01*
X592479Y549458D01*
X592567Y549480D01*
X592656Y549497D01*
X592746Y549511D01*
X592837Y549521D01*
X592928Y549527D01*
X593019Y549529D01*
X595108Y549529D01*
X598899Y549529D02*
X598899Y540131D01*
X598899Y549529D02*
X603076Y549529D01*
X603076Y545352D02*
X598899Y545352D01*
X606589Y543786D02*
X612854Y543786D01*
X609722Y546918D02*
X609722Y540653D01*
X384514Y487941D02*
X381381Y492379D01*
X384514Y487941D02*
X387646Y492379D01*
X384514Y487941D02*
X384514Y482981D01*
X390655Y481937D02*
X394832Y481937D01*
X398684Y482981D02*
X398684Y492379D01*
X398684Y482981D02*
X402861Y482981D01*
X406679Y482981D02*
X406679Y492379D01*
X409812Y487158D01*
X412945Y492379D01*
X412945Y482981D01*
X419261Y482981D02*
X419261Y492379D01*
X421871Y492379D02*
X416650Y492379D01*
X448536Y488202D02*
X450102Y488202D01*
X450102Y482981D01*
X446969Y482981D01*
X446880Y482983D01*
X446792Y482989D01*
X446704Y482998D01*
X446616Y483011D01*
X446529Y483028D01*
X446443Y483048D01*
X446358Y483073D01*
X446273Y483100D01*
X446190Y483132D01*
X446109Y483166D01*
X446029Y483205D01*
X445951Y483246D01*
X445874Y483291D01*
X445800Y483339D01*
X445727Y483390D01*
X445657Y483444D01*
X445590Y483502D01*
X445524Y483562D01*
X445462Y483624D01*
X445402Y483690D01*
X445344Y483757D01*
X445290Y483827D01*
X445239Y483900D01*
X445191Y483974D01*
X445146Y484051D01*
X445105Y484129D01*
X445066Y484209D01*
X445032Y484290D01*
X445000Y484373D01*
X444973Y484458D01*
X444948Y484543D01*
X444928Y484629D01*
X444911Y484716D01*
X444898Y484804D01*
X444889Y484892D01*
X444883Y484980D01*
X444881Y485069D01*
X444881Y490291D01*
X444883Y490382D01*
X444889Y490473D01*
X444899Y490564D01*
X444913Y490654D01*
X444930Y490743D01*
X444952Y490831D01*
X444978Y490919D01*
X445007Y491005D01*
X445040Y491090D01*
X445077Y491173D01*
X445117Y491255D01*
X445161Y491335D01*
X445208Y491413D01*
X445259Y491489D01*
X445312Y491562D01*
X445369Y491633D01*
X445430Y491702D01*
X445493Y491767D01*
X445558Y491830D01*
X445627Y491890D01*
X445698Y491948D01*
X445771Y492001D01*
X445847Y492052D01*
X445925Y492099D01*
X446005Y492143D01*
X446087Y492183D01*
X446170Y492220D01*
X446255Y492253D01*
X446341Y492282D01*
X446429Y492308D01*
X446517Y492330D01*
X446606Y492347D01*
X446696Y492361D01*
X446787Y492371D01*
X446878Y492377D01*
X446969Y492379D01*
X450102Y492379D01*
X454635Y492379D02*
X454635Y482981D01*
X459856Y482981D02*
X454635Y492379D01*
X459856Y492379D02*
X459856Y482981D01*
X464388Y482981D02*
X464388Y492379D01*
X466999Y492379D01*
X467099Y492377D01*
X467199Y492371D01*
X467298Y492362D01*
X467398Y492348D01*
X467496Y492331D01*
X467594Y492310D01*
X467691Y492286D01*
X467787Y492257D01*
X467882Y492225D01*
X467975Y492190D01*
X468067Y492151D01*
X468158Y492108D01*
X468246Y492062D01*
X468333Y492012D01*
X468418Y491960D01*
X468501Y491904D01*
X468582Y491845D01*
X468660Y491782D01*
X468736Y491717D01*
X468810Y491649D01*
X468880Y491579D01*
X468948Y491505D01*
X469013Y491429D01*
X469076Y491351D01*
X469135Y491270D01*
X469191Y491187D01*
X469243Y491102D01*
X469293Y491015D01*
X469339Y490927D01*
X469382Y490836D01*
X469421Y490744D01*
X469456Y490651D01*
X469488Y490556D01*
X469517Y490460D01*
X469541Y490363D01*
X469562Y490265D01*
X469579Y490167D01*
X469593Y490067D01*
X469602Y489968D01*
X469608Y489868D01*
X469610Y489768D01*
X469609Y489768D02*
X469609Y485592D01*
X469610Y485592D02*
X469608Y485492D01*
X469602Y485392D01*
X469593Y485293D01*
X469579Y485193D01*
X469562Y485095D01*
X469541Y484997D01*
X469517Y484900D01*
X469488Y484804D01*
X469456Y484709D01*
X469421Y484616D01*
X469382Y484524D01*
X469339Y484433D01*
X469293Y484345D01*
X469243Y484258D01*
X469191Y484173D01*
X469135Y484090D01*
X469076Y484009D01*
X469013Y483931D01*
X468948Y483855D01*
X468880Y483781D01*
X468810Y483711D01*
X468736Y483643D01*
X468660Y483578D01*
X468582Y483515D01*
X468501Y483456D01*
X468418Y483400D01*
X468333Y483348D01*
X468246Y483298D01*
X468158Y483252D01*
X468067Y483209D01*
X467975Y483170D01*
X467882Y483135D01*
X467787Y483103D01*
X467691Y483074D01*
X467594Y483050D01*
X467496Y483029D01*
X467398Y483012D01*
X467298Y482998D01*
X467199Y482989D01*
X467099Y482983D01*
X466999Y482981D01*
X464388Y482981D01*
X495378Y492380D02*
X495473Y492378D01*
X495567Y492372D01*
X495661Y492363D01*
X495755Y492350D01*
X495848Y492333D01*
X495940Y492312D01*
X496032Y492287D01*
X496122Y492259D01*
X496211Y492227D01*
X496299Y492192D01*
X496385Y492153D01*
X496470Y492111D01*
X496553Y492065D01*
X496634Y492016D01*
X496713Y491964D01*
X496790Y491909D01*
X496864Y491850D01*
X496936Y491789D01*
X497006Y491725D01*
X497073Y491658D01*
X497137Y491588D01*
X497198Y491516D01*
X497257Y491442D01*
X497312Y491365D01*
X497364Y491286D01*
X497413Y491205D01*
X497459Y491122D01*
X497501Y491037D01*
X497540Y490951D01*
X497575Y490863D01*
X497607Y490774D01*
X497635Y490684D01*
X497660Y490592D01*
X497681Y490500D01*
X497698Y490407D01*
X497711Y490313D01*
X497720Y490219D01*
X497726Y490125D01*
X497728Y490030D01*
X495378Y492379D02*
X495270Y492377D01*
X495161Y492371D01*
X495053Y492361D01*
X494946Y492348D01*
X494839Y492330D01*
X494732Y492309D01*
X494627Y492284D01*
X494522Y492255D01*
X494419Y492223D01*
X494317Y492186D01*
X494216Y492146D01*
X494117Y492103D01*
X494019Y492056D01*
X493923Y492005D01*
X493829Y491951D01*
X493737Y491894D01*
X493647Y491833D01*
X493559Y491769D01*
X493474Y491703D01*
X493391Y491633D01*
X493311Y491560D01*
X493233Y491484D01*
X493158Y491406D01*
X493086Y491325D01*
X493017Y491241D01*
X492951Y491155D01*
X492888Y491067D01*
X492829Y490976D01*
X492772Y490884D01*
X492719Y490789D01*
X492670Y490693D01*
X492624Y490594D01*
X492581Y490495D01*
X492542Y490393D01*
X492507Y490291D01*
X496944Y488202D02*
X497013Y488271D01*
X497079Y488342D01*
X497143Y488415D01*
X497204Y488491D01*
X497262Y488570D01*
X497316Y488650D01*
X497368Y488733D01*
X497416Y488817D01*
X497462Y488903D01*
X497503Y488991D01*
X497542Y489081D01*
X497577Y489172D01*
X497608Y489264D01*
X497636Y489357D01*
X497660Y489451D01*
X497680Y489546D01*
X497697Y489642D01*
X497710Y489739D01*
X497719Y489836D01*
X497725Y489933D01*
X497727Y490030D01*
X496944Y488202D02*
X492506Y482981D01*
X497727Y482981D01*
X501650Y485069D02*
X503738Y492379D01*
X501650Y485069D02*
X506871Y485069D01*
X505305Y487158D02*
X505305Y482981D01*
X513404Y482981D02*
X510272Y492379D01*
X516537Y492379D02*
X513404Y482981D01*
X629031Y540131D02*
X629031Y549529D01*
X629031Y545352D02*
X634252Y545352D01*
X634252Y549529D02*
X634252Y540131D01*
X638480Y547441D02*
X641090Y549529D01*
X641090Y540131D01*
X638480Y540131D02*
X643701Y540131D01*
X647711Y543786D02*
X653977Y543786D01*
X650844Y540653D02*
X650844Y546918D01*
X667131Y549529D02*
X667131Y540131D01*
X667131Y545352D02*
X672352Y545352D01*
X672352Y549529D02*
X672352Y540131D01*
X676580Y547441D02*
X679190Y549529D01*
X679190Y540131D01*
X676580Y540131D02*
X681801Y540131D01*
X685811Y543786D02*
X692077Y543786D01*
X702056Y540131D02*
X702056Y549529D01*
X704667Y549529D01*
X704768Y549527D01*
X704869Y549521D01*
X704970Y549511D01*
X705070Y549498D01*
X705170Y549480D01*
X705269Y549459D01*
X705367Y549433D01*
X705464Y549404D01*
X705560Y549372D01*
X705654Y549335D01*
X705747Y549295D01*
X705839Y549251D01*
X705928Y549204D01*
X706016Y549153D01*
X706102Y549099D01*
X706185Y549042D01*
X706267Y548982D01*
X706345Y548918D01*
X706422Y548852D01*
X706495Y548782D01*
X706566Y548710D01*
X706634Y548635D01*
X706699Y548557D01*
X706761Y548477D01*
X706820Y548395D01*
X706876Y548310D01*
X706928Y548224D01*
X706977Y548135D01*
X707023Y548044D01*
X707064Y547952D01*
X707103Y547858D01*
X707137Y547763D01*
X707168Y547667D01*
X707195Y547569D01*
X707219Y547471D01*
X707238Y547371D01*
X707254Y547271D01*
X707266Y547171D01*
X707274Y547070D01*
X707278Y546969D01*
X707278Y546867D01*
X707274Y546766D01*
X707266Y546665D01*
X707254Y546565D01*
X707238Y546465D01*
X707219Y546365D01*
X707195Y546267D01*
X707168Y546169D01*
X707137Y546073D01*
X707103Y545978D01*
X707064Y545884D01*
X707023Y545792D01*
X706977Y545701D01*
X706928Y545613D01*
X706876Y545526D01*
X706820Y545441D01*
X706761Y545359D01*
X706699Y545279D01*
X706634Y545201D01*
X706566Y545126D01*
X706495Y545054D01*
X706422Y544984D01*
X706345Y544918D01*
X706267Y544854D01*
X706185Y544794D01*
X706102Y544737D01*
X706016Y544683D01*
X705928Y544632D01*
X705839Y544585D01*
X705747Y544541D01*
X705654Y544501D01*
X705560Y544464D01*
X705464Y544432D01*
X705367Y544403D01*
X705269Y544377D01*
X705170Y544356D01*
X705070Y544338D01*
X704970Y544325D01*
X704869Y544315D01*
X704768Y544309D01*
X704667Y544307D01*
X704667Y544308D02*
X702056Y544308D01*
X712765Y540131D02*
X712765Y549529D01*
X715375Y549529D02*
X710154Y549529D01*
X718689Y547441D02*
X721299Y549529D01*
X721299Y540131D01*
X718689Y540131D02*
X723910Y540131D01*
X736981Y540131D02*
X743246Y549529D01*
X736981Y549529D02*
X743246Y540131D01*
X751869Y547180D02*
X751867Y547275D01*
X751861Y547369D01*
X751852Y547463D01*
X751839Y547557D01*
X751822Y547650D01*
X751801Y547742D01*
X751776Y547834D01*
X751748Y547924D01*
X751716Y548013D01*
X751681Y548101D01*
X751642Y548187D01*
X751600Y548272D01*
X751554Y548355D01*
X751505Y548436D01*
X751453Y548515D01*
X751398Y548592D01*
X751339Y548666D01*
X751278Y548738D01*
X751214Y548808D01*
X751147Y548875D01*
X751077Y548939D01*
X751005Y549000D01*
X750931Y549059D01*
X750854Y549114D01*
X750775Y549166D01*
X750694Y549215D01*
X750611Y549261D01*
X750526Y549303D01*
X750440Y549342D01*
X750352Y549377D01*
X750263Y549409D01*
X750173Y549437D01*
X750081Y549462D01*
X749989Y549483D01*
X749896Y549500D01*
X749802Y549513D01*
X749708Y549522D01*
X749614Y549528D01*
X749519Y549530D01*
X749519Y549529D02*
X749411Y549527D01*
X749302Y549521D01*
X749194Y549511D01*
X749087Y549498D01*
X748980Y549480D01*
X748873Y549459D01*
X748768Y549434D01*
X748663Y549405D01*
X748560Y549373D01*
X748458Y549336D01*
X748357Y549296D01*
X748258Y549253D01*
X748160Y549206D01*
X748064Y549155D01*
X747970Y549101D01*
X747878Y549044D01*
X747788Y548983D01*
X747700Y548919D01*
X747615Y548853D01*
X747532Y548783D01*
X747452Y548710D01*
X747374Y548634D01*
X747299Y548556D01*
X747227Y548475D01*
X747158Y548391D01*
X747092Y548305D01*
X747029Y548217D01*
X746970Y548126D01*
X746913Y548034D01*
X746860Y547939D01*
X746811Y547843D01*
X746765Y547744D01*
X746722Y547645D01*
X746683Y547543D01*
X746648Y547441D01*
X751086Y545352D02*
X751155Y545421D01*
X751221Y545492D01*
X751285Y545565D01*
X751346Y545641D01*
X751404Y545720D01*
X751458Y545800D01*
X751510Y545883D01*
X751558Y545967D01*
X751604Y546053D01*
X751645Y546141D01*
X751684Y546231D01*
X751719Y546322D01*
X751750Y546414D01*
X751778Y546507D01*
X751802Y546601D01*
X751822Y546696D01*
X751839Y546792D01*
X751852Y546889D01*
X751861Y546986D01*
X751867Y547083D01*
X751869Y547180D01*
X751085Y545352D02*
X746647Y540131D01*
X751868Y540131D01*
X755399Y539087D02*
X759576Y539087D01*
X763428Y540131D02*
X763428Y549529D01*
X763428Y540131D02*
X767605Y540131D01*
X771423Y540131D02*
X771423Y549529D01*
X774556Y544308D01*
X777689Y549529D01*
X777689Y540131D01*
X784005Y540131D02*
X784005Y549529D01*
X786615Y549529D02*
X781394Y549529D01*
X536914Y482981D02*
X533781Y482981D01*
X536914Y482981D02*
X537003Y482983D01*
X537091Y482989D01*
X537179Y482998D01*
X537267Y483011D01*
X537354Y483028D01*
X537440Y483048D01*
X537525Y483073D01*
X537610Y483100D01*
X537693Y483132D01*
X537774Y483166D01*
X537854Y483205D01*
X537932Y483246D01*
X538009Y483291D01*
X538083Y483339D01*
X538156Y483390D01*
X538226Y483444D01*
X538293Y483502D01*
X538359Y483562D01*
X538421Y483624D01*
X538481Y483690D01*
X538539Y483757D01*
X538593Y483827D01*
X538644Y483900D01*
X538692Y483974D01*
X538737Y484051D01*
X538778Y484129D01*
X538817Y484209D01*
X538851Y484290D01*
X538883Y484373D01*
X538910Y484458D01*
X538935Y484543D01*
X538955Y484629D01*
X538972Y484716D01*
X538985Y484804D01*
X538994Y484892D01*
X539000Y484980D01*
X539002Y485069D01*
X539002Y486114D01*
X539000Y486203D01*
X538994Y486291D01*
X538985Y486379D01*
X538972Y486467D01*
X538955Y486554D01*
X538935Y486640D01*
X538910Y486725D01*
X538883Y486810D01*
X538851Y486893D01*
X538817Y486974D01*
X538778Y487054D01*
X538737Y487132D01*
X538692Y487209D01*
X538644Y487283D01*
X538593Y487356D01*
X538539Y487426D01*
X538481Y487493D01*
X538421Y487559D01*
X538359Y487621D01*
X538293Y487681D01*
X538226Y487739D01*
X538156Y487793D01*
X538083Y487844D01*
X538009Y487892D01*
X537932Y487937D01*
X537854Y487978D01*
X537774Y488017D01*
X537693Y488051D01*
X537610Y488083D01*
X537525Y488110D01*
X537440Y488135D01*
X537354Y488155D01*
X537267Y488172D01*
X537179Y488185D01*
X537091Y488194D01*
X537003Y488200D01*
X536914Y488202D01*
X533781Y488202D01*
X533781Y492379D01*
X539002Y492379D01*
X542403Y492379D02*
X545536Y482981D01*
X548668Y492379D01*
X564261Y482981D02*
X567394Y492379D01*
X570526Y482981D01*
X569743Y485331D02*
X565044Y485331D01*
X573927Y490291D02*
X576538Y492379D01*
X576538Y482981D01*
X579148Y482981D02*
X573927Y482981D01*
X583159Y486636D02*
X589424Y486636D01*
X597916Y482981D02*
X601049Y492379D01*
X604181Y482981D01*
X603398Y485331D02*
X598699Y485331D01*
X607582Y490291D02*
X610193Y492379D01*
X610193Y482981D01*
X612803Y482981D02*
X607582Y482981D01*
X616814Y486636D02*
X623079Y486636D01*
X619946Y483503D02*
X619946Y489768D01*
X636016Y488202D02*
X638627Y488202D01*
X638627Y488203D02*
X638728Y488201D01*
X638829Y488195D01*
X638930Y488185D01*
X639030Y488172D01*
X639130Y488154D01*
X639229Y488133D01*
X639327Y488107D01*
X639424Y488078D01*
X639520Y488046D01*
X639614Y488009D01*
X639707Y487969D01*
X639799Y487925D01*
X639888Y487878D01*
X639976Y487827D01*
X640062Y487773D01*
X640145Y487716D01*
X640227Y487656D01*
X640305Y487592D01*
X640382Y487526D01*
X640455Y487456D01*
X640526Y487384D01*
X640594Y487309D01*
X640659Y487231D01*
X640721Y487151D01*
X640780Y487069D01*
X640836Y486984D01*
X640888Y486897D01*
X640937Y486809D01*
X640983Y486718D01*
X641024Y486626D01*
X641063Y486532D01*
X641097Y486437D01*
X641128Y486341D01*
X641155Y486243D01*
X641179Y486145D01*
X641198Y486045D01*
X641214Y485945D01*
X641226Y485845D01*
X641234Y485744D01*
X641238Y485643D01*
X641238Y485541D01*
X641234Y485440D01*
X641226Y485339D01*
X641214Y485239D01*
X641198Y485139D01*
X641179Y485039D01*
X641155Y484941D01*
X641128Y484843D01*
X641097Y484747D01*
X641063Y484652D01*
X641024Y484558D01*
X640983Y484466D01*
X640937Y484375D01*
X640888Y484287D01*
X640836Y484200D01*
X640780Y484115D01*
X640721Y484033D01*
X640659Y483953D01*
X640594Y483875D01*
X640526Y483800D01*
X640455Y483728D01*
X640382Y483658D01*
X640305Y483592D01*
X640227Y483528D01*
X640145Y483468D01*
X640062Y483411D01*
X639976Y483357D01*
X639888Y483306D01*
X639799Y483259D01*
X639707Y483215D01*
X639614Y483175D01*
X639520Y483138D01*
X639424Y483106D01*
X639327Y483077D01*
X639229Y483051D01*
X639130Y483030D01*
X639030Y483012D01*
X638930Y482999D01*
X638829Y482989D01*
X638728Y482983D01*
X638627Y482981D01*
X636016Y482981D01*
X636016Y492379D01*
X638627Y492379D01*
X638717Y492377D01*
X638806Y492371D01*
X638896Y492362D01*
X638985Y492348D01*
X639073Y492331D01*
X639160Y492310D01*
X639247Y492285D01*
X639332Y492256D01*
X639416Y492224D01*
X639498Y492189D01*
X639579Y492149D01*
X639658Y492107D01*
X639735Y492061D01*
X639810Y492011D01*
X639883Y491959D01*
X639954Y491903D01*
X640022Y491845D01*
X640087Y491783D01*
X640150Y491719D01*
X640210Y491652D01*
X640267Y491583D01*
X640321Y491511D01*
X640372Y491437D01*
X640420Y491361D01*
X640464Y491283D01*
X640505Y491203D01*
X640543Y491121D01*
X640577Y491038D01*
X640607Y490953D01*
X640634Y490867D01*
X640657Y490781D01*
X640676Y490693D01*
X640691Y490604D01*
X640703Y490515D01*
X640711Y490426D01*
X640715Y490336D01*
X640715Y490246D01*
X640711Y490156D01*
X640703Y490067D01*
X640691Y489978D01*
X640676Y489889D01*
X640657Y489801D01*
X640634Y489715D01*
X640607Y489629D01*
X640577Y489544D01*
X640543Y489461D01*
X640505Y489379D01*
X640464Y489299D01*
X640420Y489221D01*
X640372Y489145D01*
X640321Y489071D01*
X640267Y488999D01*
X640210Y488930D01*
X640150Y488863D01*
X640087Y488799D01*
X640022Y488737D01*
X639954Y488679D01*
X639883Y488623D01*
X639810Y488571D01*
X639735Y488521D01*
X639658Y488475D01*
X639579Y488433D01*
X639498Y488393D01*
X639416Y488358D01*
X639332Y488326D01*
X639247Y488297D01*
X639160Y488272D01*
X639073Y488251D01*
X638985Y488234D01*
X638896Y488220D01*
X638806Y488211D01*
X638717Y488205D01*
X638627Y488203D01*
X644724Y490291D02*
X647334Y492379D01*
X647334Y482981D01*
X644724Y482981D02*
X649945Y482981D01*
X653955Y486636D02*
X660221Y486636D01*
X674116Y488202D02*
X676727Y488202D01*
X676727Y488203D02*
X676828Y488201D01*
X676929Y488195D01*
X677030Y488185D01*
X677130Y488172D01*
X677230Y488154D01*
X677329Y488133D01*
X677427Y488107D01*
X677524Y488078D01*
X677620Y488046D01*
X677714Y488009D01*
X677807Y487969D01*
X677899Y487925D01*
X677988Y487878D01*
X678076Y487827D01*
X678162Y487773D01*
X678245Y487716D01*
X678327Y487656D01*
X678405Y487592D01*
X678482Y487526D01*
X678555Y487456D01*
X678626Y487384D01*
X678694Y487309D01*
X678759Y487231D01*
X678821Y487151D01*
X678880Y487069D01*
X678936Y486984D01*
X678988Y486897D01*
X679037Y486809D01*
X679083Y486718D01*
X679124Y486626D01*
X679163Y486532D01*
X679197Y486437D01*
X679228Y486341D01*
X679255Y486243D01*
X679279Y486145D01*
X679298Y486045D01*
X679314Y485945D01*
X679326Y485845D01*
X679334Y485744D01*
X679338Y485643D01*
X679338Y485541D01*
X679334Y485440D01*
X679326Y485339D01*
X679314Y485239D01*
X679298Y485139D01*
X679279Y485039D01*
X679255Y484941D01*
X679228Y484843D01*
X679197Y484747D01*
X679163Y484652D01*
X679124Y484558D01*
X679083Y484466D01*
X679037Y484375D01*
X678988Y484287D01*
X678936Y484200D01*
X678880Y484115D01*
X678821Y484033D01*
X678759Y483953D01*
X678694Y483875D01*
X678626Y483800D01*
X678555Y483728D01*
X678482Y483658D01*
X678405Y483592D01*
X678327Y483528D01*
X678245Y483468D01*
X678162Y483411D01*
X678076Y483357D01*
X677988Y483306D01*
X677899Y483259D01*
X677807Y483215D01*
X677714Y483175D01*
X677620Y483138D01*
X677524Y483106D01*
X677427Y483077D01*
X677329Y483051D01*
X677230Y483030D01*
X677130Y483012D01*
X677030Y482999D01*
X676929Y482989D01*
X676828Y482983D01*
X676727Y482981D01*
X674116Y482981D01*
X674116Y492379D01*
X676727Y492379D01*
X676817Y492377D01*
X676906Y492371D01*
X676996Y492362D01*
X677085Y492348D01*
X677173Y492331D01*
X677260Y492310D01*
X677347Y492285D01*
X677432Y492256D01*
X677516Y492224D01*
X677598Y492189D01*
X677679Y492149D01*
X677758Y492107D01*
X677835Y492061D01*
X677910Y492011D01*
X677983Y491959D01*
X678054Y491903D01*
X678122Y491845D01*
X678187Y491783D01*
X678250Y491719D01*
X678310Y491652D01*
X678367Y491583D01*
X678421Y491511D01*
X678472Y491437D01*
X678520Y491361D01*
X678564Y491283D01*
X678605Y491203D01*
X678643Y491121D01*
X678677Y491038D01*
X678707Y490953D01*
X678734Y490867D01*
X678757Y490781D01*
X678776Y490693D01*
X678791Y490604D01*
X678803Y490515D01*
X678811Y490426D01*
X678815Y490336D01*
X678815Y490246D01*
X678811Y490156D01*
X678803Y490067D01*
X678791Y489978D01*
X678776Y489889D01*
X678757Y489801D01*
X678734Y489715D01*
X678707Y489629D01*
X678677Y489544D01*
X678643Y489461D01*
X678605Y489379D01*
X678564Y489299D01*
X678520Y489221D01*
X678472Y489145D01*
X678421Y489071D01*
X678367Y488999D01*
X678310Y488930D01*
X678250Y488863D01*
X678187Y488799D01*
X678122Y488737D01*
X678054Y488679D01*
X677983Y488623D01*
X677910Y488571D01*
X677835Y488521D01*
X677758Y488475D01*
X677679Y488433D01*
X677598Y488393D01*
X677516Y488358D01*
X677432Y488326D01*
X677347Y488297D01*
X677260Y488272D01*
X677173Y488251D01*
X677085Y488234D01*
X676996Y488220D01*
X676906Y488211D01*
X676817Y488205D01*
X676727Y488203D01*
X682824Y490291D02*
X685434Y492379D01*
X685434Y482981D01*
X682824Y482981D02*
X688045Y482981D01*
X692055Y486636D02*
X698321Y486636D01*
X695188Y483503D02*
X695188Y489768D01*
D11*
X762762Y102743D02*
X768181Y86487D01*
X773599Y102743D01*
X779157Y93712D02*
X779157Y90099D01*
X779158Y93712D02*
X779160Y93831D01*
X779166Y93951D01*
X779176Y94070D01*
X779190Y94188D01*
X779207Y94307D01*
X779229Y94424D01*
X779254Y94541D01*
X779284Y94656D01*
X779317Y94771D01*
X779354Y94885D01*
X779394Y94997D01*
X779439Y95108D01*
X779487Y95217D01*
X779538Y95325D01*
X779593Y95431D01*
X779652Y95535D01*
X779714Y95637D01*
X779779Y95737D01*
X779848Y95835D01*
X779920Y95931D01*
X779995Y96024D01*
X780072Y96114D01*
X780153Y96202D01*
X780237Y96287D01*
X780324Y96369D01*
X780413Y96449D01*
X780505Y96525D01*
X780599Y96599D01*
X780696Y96669D01*
X780794Y96736D01*
X780895Y96800D01*
X780999Y96860D01*
X781104Y96917D01*
X781211Y96970D01*
X781319Y97020D01*
X781429Y97066D01*
X781541Y97108D01*
X781654Y97147D01*
X781768Y97182D01*
X781883Y97213D01*
X782000Y97241D01*
X782117Y97264D01*
X782234Y97284D01*
X782353Y97300D01*
X782472Y97312D01*
X782591Y97320D01*
X782710Y97324D01*
X782830Y97324D01*
X782949Y97320D01*
X783068Y97312D01*
X783187Y97300D01*
X783306Y97284D01*
X783423Y97264D01*
X783540Y97241D01*
X783657Y97213D01*
X783772Y97182D01*
X783886Y97147D01*
X783999Y97108D01*
X784111Y97066D01*
X784221Y97020D01*
X784329Y96970D01*
X784436Y96917D01*
X784541Y96860D01*
X784645Y96800D01*
X784746Y96736D01*
X784844Y96669D01*
X784941Y96599D01*
X785035Y96525D01*
X785127Y96449D01*
X785216Y96369D01*
X785303Y96287D01*
X785387Y96202D01*
X785468Y96114D01*
X785545Y96024D01*
X785620Y95931D01*
X785692Y95835D01*
X785761Y95737D01*
X785826Y95637D01*
X785888Y95535D01*
X785947Y95431D01*
X786002Y95325D01*
X786053Y95217D01*
X786101Y95108D01*
X786146Y94997D01*
X786186Y94885D01*
X786223Y94771D01*
X786256Y94656D01*
X786286Y94541D01*
X786311Y94424D01*
X786333Y94307D01*
X786350Y94188D01*
X786364Y94070D01*
X786374Y93951D01*
X786380Y93831D01*
X786382Y93712D01*
X786382Y90099D01*
X786380Y89980D01*
X786374Y89860D01*
X786364Y89741D01*
X786350Y89623D01*
X786333Y89504D01*
X786311Y89387D01*
X786286Y89270D01*
X786256Y89155D01*
X786223Y89040D01*
X786186Y88926D01*
X786146Y88814D01*
X786101Y88703D01*
X786053Y88594D01*
X786002Y88486D01*
X785947Y88380D01*
X785888Y88276D01*
X785826Y88174D01*
X785761Y88074D01*
X785692Y87976D01*
X785620Y87880D01*
X785545Y87787D01*
X785468Y87697D01*
X785387Y87609D01*
X785303Y87524D01*
X785216Y87442D01*
X785127Y87362D01*
X785035Y87286D01*
X784941Y87212D01*
X784844Y87142D01*
X784746Y87075D01*
X784645Y87011D01*
X784541Y86951D01*
X784436Y86894D01*
X784329Y86841D01*
X784221Y86791D01*
X784111Y86745D01*
X783999Y86703D01*
X783886Y86664D01*
X783772Y86629D01*
X783657Y86598D01*
X783540Y86570D01*
X783423Y86547D01*
X783306Y86527D01*
X783187Y86511D01*
X783068Y86499D01*
X782949Y86491D01*
X782830Y86487D01*
X782710Y86487D01*
X782591Y86491D01*
X782472Y86499D01*
X782353Y86511D01*
X782234Y86527D01*
X782117Y86547D01*
X782000Y86570D01*
X781883Y86598D01*
X781768Y86629D01*
X781654Y86664D01*
X781541Y86703D01*
X781429Y86745D01*
X781319Y86791D01*
X781211Y86841D01*
X781104Y86894D01*
X780999Y86951D01*
X780895Y87011D01*
X780794Y87075D01*
X780696Y87142D01*
X780599Y87212D01*
X780505Y87286D01*
X780413Y87362D01*
X780324Y87442D01*
X780237Y87524D01*
X780153Y87609D01*
X780072Y87697D01*
X779995Y87787D01*
X779920Y87880D01*
X779848Y87976D01*
X779779Y88074D01*
X779714Y88174D01*
X779652Y88276D01*
X779593Y88380D01*
X779538Y88486D01*
X779487Y88594D01*
X779439Y88703D01*
X779394Y88814D01*
X779354Y88926D01*
X779317Y89040D01*
X779284Y89155D01*
X779254Y89270D01*
X779229Y89387D01*
X779207Y89504D01*
X779190Y89623D01*
X779176Y89741D01*
X779166Y89860D01*
X779160Y89980D01*
X779158Y90099D01*
X792941Y89196D02*
X792941Y102743D01*
X792942Y89196D02*
X792944Y89095D01*
X792950Y88994D01*
X792959Y88893D01*
X792972Y88792D01*
X792989Y88692D01*
X793010Y88593D01*
X793034Y88495D01*
X793062Y88398D01*
X793094Y88301D01*
X793129Y88206D01*
X793168Y88113D01*
X793210Y88021D01*
X793256Y87930D01*
X793305Y87842D01*
X793357Y87755D01*
X793413Y87670D01*
X793471Y87587D01*
X793533Y87507D01*
X793598Y87429D01*
X793665Y87353D01*
X793735Y87280D01*
X793808Y87210D01*
X793884Y87143D01*
X793962Y87078D01*
X794042Y87016D01*
X794125Y86958D01*
X794210Y86902D01*
X794297Y86850D01*
X794385Y86801D01*
X794476Y86755D01*
X794568Y86713D01*
X794661Y86674D01*
X794756Y86639D01*
X794853Y86607D01*
X794950Y86579D01*
X795048Y86555D01*
X795147Y86534D01*
X795247Y86517D01*
X795348Y86504D01*
X795449Y86495D01*
X795550Y86489D01*
X795651Y86487D01*
X799744Y97324D02*
X805162Y97324D01*
X801550Y102743D02*
X801550Y89196D01*
X801552Y89095D01*
X801558Y88994D01*
X801567Y88893D01*
X801580Y88792D01*
X801597Y88692D01*
X801618Y88593D01*
X801642Y88495D01*
X801670Y88398D01*
X801702Y88301D01*
X801737Y88206D01*
X801776Y88113D01*
X801818Y88021D01*
X801864Y87930D01*
X801913Y87842D01*
X801965Y87755D01*
X802021Y87670D01*
X802079Y87587D01*
X802141Y87507D01*
X802206Y87429D01*
X802273Y87353D01*
X802343Y87280D01*
X802416Y87210D01*
X802492Y87143D01*
X802570Y87078D01*
X802650Y87016D01*
X802733Y86958D01*
X802818Y86902D01*
X802905Y86850D01*
X802993Y86801D01*
X803084Y86755D01*
X803176Y86713D01*
X803269Y86674D01*
X803364Y86639D01*
X803461Y86607D01*
X803558Y86579D01*
X803656Y86555D01*
X803755Y86534D01*
X803855Y86517D01*
X803956Y86504D01*
X804057Y86495D01*
X804158Y86489D01*
X804259Y86487D01*
X805162Y86487D01*
X813650Y86487D02*
X818166Y86487D01*
X813650Y86487D02*
X813549Y86489D01*
X813448Y86495D01*
X813347Y86504D01*
X813246Y86517D01*
X813146Y86534D01*
X813047Y86555D01*
X812949Y86579D01*
X812852Y86607D01*
X812755Y86639D01*
X812660Y86674D01*
X812567Y86713D01*
X812475Y86755D01*
X812384Y86801D01*
X812296Y86850D01*
X812209Y86902D01*
X812124Y86958D01*
X812041Y87016D01*
X811961Y87078D01*
X811883Y87143D01*
X811807Y87210D01*
X811734Y87280D01*
X811664Y87353D01*
X811597Y87429D01*
X811532Y87507D01*
X811470Y87587D01*
X811412Y87670D01*
X811356Y87755D01*
X811304Y87842D01*
X811255Y87930D01*
X811209Y88021D01*
X811167Y88113D01*
X811128Y88206D01*
X811093Y88301D01*
X811061Y88398D01*
X811033Y88495D01*
X811009Y88593D01*
X810988Y88692D01*
X810971Y88792D01*
X810958Y88893D01*
X810949Y88994D01*
X810943Y89095D01*
X810941Y89196D01*
X810941Y93712D01*
X810943Y93831D01*
X810949Y93951D01*
X810959Y94070D01*
X810973Y94188D01*
X810990Y94307D01*
X811012Y94424D01*
X811037Y94541D01*
X811067Y94656D01*
X811100Y94771D01*
X811137Y94885D01*
X811177Y94997D01*
X811222Y95108D01*
X811270Y95217D01*
X811321Y95325D01*
X811376Y95431D01*
X811435Y95535D01*
X811497Y95637D01*
X811562Y95737D01*
X811631Y95835D01*
X811703Y95931D01*
X811778Y96024D01*
X811855Y96114D01*
X811936Y96202D01*
X812020Y96287D01*
X812107Y96369D01*
X812196Y96449D01*
X812288Y96525D01*
X812382Y96599D01*
X812479Y96669D01*
X812577Y96736D01*
X812678Y96800D01*
X812782Y96860D01*
X812887Y96917D01*
X812994Y96970D01*
X813102Y97020D01*
X813212Y97066D01*
X813324Y97108D01*
X813437Y97147D01*
X813551Y97182D01*
X813666Y97213D01*
X813783Y97241D01*
X813900Y97264D01*
X814017Y97284D01*
X814136Y97300D01*
X814255Y97312D01*
X814374Y97320D01*
X814493Y97324D01*
X814613Y97324D01*
X814732Y97320D01*
X814851Y97312D01*
X814970Y97300D01*
X815089Y97284D01*
X815206Y97264D01*
X815323Y97241D01*
X815440Y97213D01*
X815555Y97182D01*
X815669Y97147D01*
X815782Y97108D01*
X815894Y97066D01*
X816004Y97020D01*
X816112Y96970D01*
X816219Y96917D01*
X816324Y96860D01*
X816428Y96800D01*
X816529Y96736D01*
X816627Y96669D01*
X816724Y96599D01*
X816818Y96525D01*
X816910Y96449D01*
X816999Y96369D01*
X817086Y96287D01*
X817170Y96202D01*
X817251Y96114D01*
X817328Y96024D01*
X817403Y95931D01*
X817475Y95835D01*
X817544Y95737D01*
X817609Y95637D01*
X817671Y95535D01*
X817730Y95431D01*
X817785Y95325D01*
X817836Y95217D01*
X817884Y95108D01*
X817929Y94997D01*
X817969Y94885D01*
X818006Y94771D01*
X818039Y94656D01*
X818069Y94541D01*
X818094Y94424D01*
X818116Y94307D01*
X818133Y94188D01*
X818147Y94070D01*
X818157Y93951D01*
X818163Y93831D01*
X818165Y93712D01*
X818166Y93712D02*
X818166Y91906D01*
X810941Y91906D01*
X825094Y86487D02*
X825094Y97324D01*
X830512Y97324D01*
X830512Y95518D01*
X836036Y97324D02*
X836036Y86487D01*
X836036Y97324D02*
X841454Y97324D01*
X841454Y95518D01*
X849459Y92809D02*
X853523Y92809D01*
X849459Y92809D02*
X849347Y92807D01*
X849236Y92801D01*
X849125Y92791D01*
X849014Y92778D01*
X848904Y92760D01*
X848795Y92738D01*
X848686Y92713D01*
X848578Y92684D01*
X848472Y92651D01*
X848366Y92614D01*
X848262Y92574D01*
X848160Y92530D01*
X848059Y92482D01*
X847960Y92431D01*
X847862Y92376D01*
X847767Y92318D01*
X847674Y92257D01*
X847583Y92192D01*
X847494Y92124D01*
X847408Y92053D01*
X847325Y91980D01*
X847244Y91903D01*
X847165Y91823D01*
X847090Y91741D01*
X847018Y91656D01*
X846948Y91569D01*
X846882Y91479D01*
X846819Y91387D01*
X846759Y91292D01*
X846703Y91196D01*
X846650Y91098D01*
X846601Y90998D01*
X846555Y90896D01*
X846513Y90793D01*
X846474Y90688D01*
X846439Y90582D01*
X846408Y90475D01*
X846381Y90367D01*
X846357Y90258D01*
X846338Y90148D01*
X846322Y90038D01*
X846310Y89927D01*
X846302Y89815D01*
X846298Y89704D01*
X846298Y89592D01*
X846302Y89481D01*
X846310Y89369D01*
X846322Y89258D01*
X846338Y89148D01*
X846357Y89038D01*
X846381Y88929D01*
X846408Y88821D01*
X846439Y88714D01*
X846474Y88608D01*
X846513Y88503D01*
X846555Y88400D01*
X846601Y88298D01*
X846650Y88198D01*
X846703Y88100D01*
X846759Y88004D01*
X846819Y87909D01*
X846882Y87817D01*
X846948Y87727D01*
X847018Y87640D01*
X847090Y87555D01*
X847165Y87473D01*
X847244Y87393D01*
X847325Y87316D01*
X847408Y87243D01*
X847494Y87172D01*
X847583Y87104D01*
X847674Y87039D01*
X847767Y86978D01*
X847862Y86920D01*
X847960Y86865D01*
X848059Y86814D01*
X848160Y86766D01*
X848262Y86722D01*
X848366Y86682D01*
X848472Y86645D01*
X848578Y86612D01*
X848686Y86583D01*
X848795Y86558D01*
X848904Y86536D01*
X849014Y86518D01*
X849125Y86505D01*
X849236Y86495D01*
X849347Y86489D01*
X849459Y86487D01*
X853523Y86487D01*
X853523Y94615D01*
X853521Y94716D01*
X853515Y94817D01*
X853506Y94918D01*
X853493Y95019D01*
X853476Y95119D01*
X853455Y95218D01*
X853431Y95316D01*
X853403Y95413D01*
X853371Y95510D01*
X853336Y95605D01*
X853297Y95698D01*
X853255Y95790D01*
X853209Y95881D01*
X853160Y95970D01*
X853108Y96056D01*
X853052Y96141D01*
X852994Y96224D01*
X852932Y96304D01*
X852867Y96382D01*
X852800Y96458D01*
X852730Y96531D01*
X852657Y96601D01*
X852581Y96668D01*
X852503Y96733D01*
X852423Y96795D01*
X852340Y96853D01*
X852255Y96909D01*
X852169Y96961D01*
X852080Y97010D01*
X851989Y97056D01*
X851897Y97098D01*
X851804Y97137D01*
X851709Y97172D01*
X851612Y97204D01*
X851515Y97232D01*
X851417Y97256D01*
X851318Y97277D01*
X851218Y97294D01*
X851117Y97307D01*
X851016Y97316D01*
X850915Y97322D01*
X850814Y97324D01*
X847201Y97324D01*
X870305Y102743D02*
X870305Y86487D01*
X872111Y86487D02*
X868498Y86487D01*
X868498Y102743D02*
X872111Y102743D01*
X878815Y102743D02*
X878815Y86487D01*
X878815Y102743D02*
X883331Y102743D01*
X883462Y102741D01*
X883594Y102735D01*
X883725Y102726D01*
X883855Y102712D01*
X883986Y102695D01*
X884115Y102674D01*
X884244Y102650D01*
X884372Y102621D01*
X884500Y102589D01*
X884626Y102553D01*
X884751Y102514D01*
X884876Y102471D01*
X884998Y102424D01*
X885120Y102374D01*
X885240Y102320D01*
X885358Y102263D01*
X885474Y102202D01*
X885589Y102138D01*
X885702Y102071D01*
X885813Y102000D01*
X885921Y101926D01*
X886028Y101849D01*
X886132Y101769D01*
X886234Y101686D01*
X886333Y101601D01*
X886430Y101512D01*
X886524Y101420D01*
X886616Y101326D01*
X886705Y101229D01*
X886790Y101130D01*
X886873Y101028D01*
X886953Y100924D01*
X887030Y100817D01*
X887104Y100709D01*
X887175Y100598D01*
X887242Y100485D01*
X887306Y100370D01*
X887367Y100254D01*
X887424Y100136D01*
X887478Y100016D01*
X887528Y99894D01*
X887575Y99772D01*
X887618Y99647D01*
X887657Y99522D01*
X887693Y99396D01*
X887725Y99268D01*
X887754Y99140D01*
X887778Y99011D01*
X887799Y98882D01*
X887816Y98751D01*
X887830Y98621D01*
X887839Y98490D01*
X887845Y98358D01*
X887847Y98227D01*
X887846Y98227D02*
X887846Y91003D01*
X887847Y91003D02*
X887845Y90872D01*
X887839Y90740D01*
X887830Y90609D01*
X887816Y90479D01*
X887799Y90348D01*
X887778Y90219D01*
X887754Y90090D01*
X887725Y89962D01*
X887693Y89834D01*
X887657Y89708D01*
X887618Y89583D01*
X887575Y89458D01*
X887528Y89336D01*
X887478Y89214D01*
X887424Y89094D01*
X887367Y88976D01*
X887306Y88860D01*
X887242Y88745D01*
X887175Y88632D01*
X887104Y88521D01*
X887030Y88413D01*
X886953Y88306D01*
X886873Y88202D01*
X886790Y88100D01*
X886705Y88001D01*
X886616Y87904D01*
X886524Y87810D01*
X886430Y87718D01*
X886333Y87629D01*
X886234Y87544D01*
X886132Y87461D01*
X886028Y87381D01*
X885921Y87304D01*
X885813Y87230D01*
X885702Y87159D01*
X885589Y87092D01*
X885474Y87028D01*
X885358Y86967D01*
X885240Y86910D01*
X885120Y86856D01*
X884998Y86806D01*
X884876Y86759D01*
X884751Y86716D01*
X884626Y86677D01*
X884500Y86641D01*
X884372Y86609D01*
X884244Y86580D01*
X884115Y86556D01*
X883985Y86535D01*
X883855Y86518D01*
X883725Y86504D01*
X883594Y86495D01*
X883462Y86489D01*
X883331Y86487D01*
X878815Y86487D01*
X895518Y86487D02*
X902743Y86487D01*
X895518Y86487D02*
X895518Y102743D01*
X902743Y102743D01*
X900937Y95518D02*
X895518Y95518D01*
X907611Y86487D02*
X918449Y102743D01*
X907611Y102743D02*
X918449Y86487D01*
X936055Y86487D02*
X939668Y86487D01*
X936055Y86487D02*
X935937Y86489D01*
X935819Y86495D01*
X935701Y86504D01*
X935584Y86518D01*
X935467Y86535D01*
X935350Y86556D01*
X935235Y86581D01*
X935120Y86610D01*
X935006Y86643D01*
X934894Y86679D01*
X934783Y86719D01*
X934673Y86762D01*
X934564Y86809D01*
X934457Y86859D01*
X934352Y86914D01*
X934249Y86971D01*
X934148Y87032D01*
X934048Y87096D01*
X933951Y87163D01*
X933856Y87233D01*
X933764Y87307D01*
X933673Y87383D01*
X933586Y87463D01*
X933501Y87545D01*
X933419Y87630D01*
X933339Y87717D01*
X933263Y87808D01*
X933189Y87900D01*
X933119Y87995D01*
X933052Y88092D01*
X932988Y88192D01*
X932927Y88293D01*
X932870Y88396D01*
X932815Y88501D01*
X932765Y88608D01*
X932718Y88717D01*
X932675Y88827D01*
X932635Y88938D01*
X932599Y89050D01*
X932566Y89164D01*
X932537Y89279D01*
X932512Y89394D01*
X932491Y89511D01*
X932474Y89628D01*
X932460Y89745D01*
X932451Y89863D01*
X932445Y89981D01*
X932443Y90099D01*
X932443Y99131D01*
X932445Y99249D01*
X932451Y99367D01*
X932460Y99485D01*
X932474Y99602D01*
X932491Y99719D01*
X932512Y99836D01*
X932537Y99951D01*
X932566Y100066D01*
X932599Y100180D01*
X932635Y100292D01*
X932675Y100403D01*
X932718Y100513D01*
X932765Y100622D01*
X932815Y100729D01*
X932869Y100834D01*
X932927Y100937D01*
X932988Y101038D01*
X933052Y101138D01*
X933119Y101235D01*
X933189Y101330D01*
X933263Y101422D01*
X933339Y101513D01*
X933419Y101600D01*
X933501Y101685D01*
X933586Y101767D01*
X933673Y101847D01*
X933764Y101923D01*
X933856Y101997D01*
X933951Y102067D01*
X934048Y102134D01*
X934148Y102198D01*
X934249Y102259D01*
X934352Y102316D01*
X934457Y102370D01*
X934564Y102421D01*
X934673Y102468D01*
X934783Y102511D01*
X934894Y102551D01*
X935006Y102587D01*
X935120Y102620D01*
X935235Y102649D01*
X935350Y102674D01*
X935467Y102695D01*
X935584Y102712D01*
X935701Y102726D01*
X935819Y102735D01*
X935937Y102741D01*
X936055Y102743D01*
X939668Y102743D01*
X945890Y102743D02*
X945890Y86487D01*
X945890Y97324D02*
X950406Y97324D01*
X950510Y97322D01*
X950613Y97316D01*
X950717Y97306D01*
X950820Y97292D01*
X950922Y97274D01*
X951023Y97253D01*
X951124Y97227D01*
X951223Y97198D01*
X951322Y97165D01*
X951419Y97128D01*
X951514Y97087D01*
X951608Y97043D01*
X951700Y96995D01*
X951790Y96944D01*
X951879Y96889D01*
X951965Y96831D01*
X952048Y96769D01*
X952130Y96705D01*
X952208Y96637D01*
X952284Y96567D01*
X952358Y96494D01*
X952428Y96417D01*
X952496Y96339D01*
X952560Y96257D01*
X952622Y96174D01*
X952680Y96088D01*
X952735Y95999D01*
X952786Y95909D01*
X952834Y95817D01*
X952878Y95723D01*
X952919Y95628D01*
X952956Y95531D01*
X952989Y95432D01*
X953018Y95333D01*
X953044Y95232D01*
X953065Y95131D01*
X953083Y95029D01*
X953097Y94926D01*
X953107Y94822D01*
X953113Y94719D01*
X953115Y94615D01*
X953115Y86487D01*
X963046Y92809D02*
X967110Y92809D01*
X963046Y92809D02*
X962934Y92807D01*
X962823Y92801D01*
X962712Y92791D01*
X962601Y92778D01*
X962491Y92760D01*
X962382Y92738D01*
X962273Y92713D01*
X962165Y92684D01*
X962059Y92651D01*
X961953Y92614D01*
X961849Y92574D01*
X961747Y92530D01*
X961646Y92482D01*
X961547Y92431D01*
X961449Y92376D01*
X961354Y92318D01*
X961261Y92257D01*
X961170Y92192D01*
X961081Y92124D01*
X960995Y92053D01*
X960912Y91980D01*
X960831Y91903D01*
X960752Y91823D01*
X960677Y91741D01*
X960605Y91656D01*
X960535Y91569D01*
X960469Y91479D01*
X960406Y91387D01*
X960346Y91292D01*
X960290Y91196D01*
X960237Y91098D01*
X960188Y90998D01*
X960142Y90896D01*
X960100Y90793D01*
X960061Y90688D01*
X960026Y90582D01*
X959995Y90475D01*
X959968Y90367D01*
X959944Y90258D01*
X959925Y90148D01*
X959909Y90038D01*
X959897Y89927D01*
X959889Y89815D01*
X959885Y89704D01*
X959885Y89592D01*
X959889Y89481D01*
X959897Y89369D01*
X959909Y89258D01*
X959925Y89148D01*
X959944Y89038D01*
X959968Y88929D01*
X959995Y88821D01*
X960026Y88714D01*
X960061Y88608D01*
X960100Y88503D01*
X960142Y88400D01*
X960188Y88298D01*
X960237Y88198D01*
X960290Y88100D01*
X960346Y88004D01*
X960406Y87909D01*
X960469Y87817D01*
X960535Y87727D01*
X960605Y87640D01*
X960677Y87555D01*
X960752Y87473D01*
X960831Y87393D01*
X960912Y87316D01*
X960995Y87243D01*
X961081Y87172D01*
X961170Y87104D01*
X961261Y87039D01*
X961354Y86978D01*
X961449Y86920D01*
X961547Y86865D01*
X961646Y86814D01*
X961747Y86766D01*
X961849Y86722D01*
X961953Y86682D01*
X962059Y86645D01*
X962165Y86612D01*
X962273Y86583D01*
X962382Y86558D01*
X962491Y86536D01*
X962601Y86518D01*
X962712Y86505D01*
X962823Y86495D01*
X962934Y86489D01*
X963046Y86487D01*
X967110Y86487D01*
X967110Y94615D01*
X967108Y94716D01*
X967102Y94817D01*
X967093Y94918D01*
X967080Y95019D01*
X967063Y95119D01*
X967042Y95218D01*
X967018Y95316D01*
X966990Y95413D01*
X966958Y95510D01*
X966923Y95605D01*
X966884Y95698D01*
X966842Y95790D01*
X966796Y95881D01*
X966747Y95970D01*
X966695Y96056D01*
X966639Y96141D01*
X966581Y96224D01*
X966519Y96304D01*
X966454Y96382D01*
X966387Y96458D01*
X966317Y96531D01*
X966244Y96601D01*
X966168Y96668D01*
X966090Y96733D01*
X966010Y96795D01*
X965927Y96853D01*
X965842Y96909D01*
X965756Y96961D01*
X965667Y97010D01*
X965576Y97056D01*
X965484Y97098D01*
X965391Y97137D01*
X965296Y97172D01*
X965199Y97204D01*
X965102Y97232D01*
X965004Y97256D01*
X964905Y97277D01*
X964805Y97294D01*
X964704Y97307D01*
X964603Y97316D01*
X964502Y97322D01*
X964401Y97324D01*
X960788Y97324D01*
X975381Y92809D02*
X979897Y91003D01*
X975381Y92809D02*
X975293Y92846D01*
X975207Y92887D01*
X975122Y92931D01*
X975039Y92979D01*
X974959Y93030D01*
X974880Y93084D01*
X974804Y93142D01*
X974730Y93202D01*
X974658Y93266D01*
X974590Y93332D01*
X974524Y93402D01*
X974461Y93473D01*
X974400Y93548D01*
X974343Y93624D01*
X974290Y93703D01*
X974239Y93784D01*
X974192Y93867D01*
X974148Y93952D01*
X974108Y94039D01*
X974071Y94127D01*
X974038Y94217D01*
X974008Y94308D01*
X973983Y94400D01*
X973961Y94493D01*
X973943Y94587D01*
X973928Y94681D01*
X973918Y94776D01*
X973912Y94872D01*
X973909Y94967D01*
X973910Y95063D01*
X973916Y95158D01*
X973925Y95254D01*
X973938Y95348D01*
X973954Y95442D01*
X973975Y95536D01*
X974000Y95628D01*
X974028Y95719D01*
X974060Y95809D01*
X974095Y95898D01*
X974134Y95985D01*
X974177Y96071D01*
X974223Y96155D01*
X974273Y96236D01*
X974325Y96316D01*
X974381Y96394D01*
X974441Y96469D01*
X974503Y96541D01*
X974568Y96611D01*
X974636Y96679D01*
X974706Y96743D01*
X974779Y96805D01*
X974855Y96863D01*
X974933Y96919D01*
X975013Y96971D01*
X975095Y97020D01*
X975179Y97065D01*
X975265Y97107D01*
X975352Y97146D01*
X975441Y97181D01*
X975532Y97212D01*
X975623Y97239D01*
X975716Y97263D01*
X975809Y97283D01*
X975903Y97299D01*
X975998Y97311D01*
X976093Y97320D01*
X976189Y97324D01*
X976284Y97325D01*
X976531Y97318D01*
X976777Y97306D01*
X977023Y97288D01*
X977269Y97263D01*
X977513Y97233D01*
X977757Y97197D01*
X978000Y97156D01*
X978242Y97108D01*
X978483Y97054D01*
X978722Y96995D01*
X978960Y96930D01*
X979196Y96859D01*
X979431Y96783D01*
X979664Y96701D01*
X979894Y96613D01*
X980122Y96520D01*
X980349Y96422D01*
X979897Y91002D02*
X979985Y90965D01*
X980071Y90924D01*
X980156Y90880D01*
X980239Y90832D01*
X980319Y90781D01*
X980398Y90727D01*
X980474Y90669D01*
X980548Y90609D01*
X980620Y90545D01*
X980688Y90479D01*
X980754Y90409D01*
X980817Y90338D01*
X980878Y90263D01*
X980935Y90187D01*
X980988Y90108D01*
X981039Y90027D01*
X981086Y89944D01*
X981130Y89859D01*
X981170Y89772D01*
X981207Y89684D01*
X981240Y89594D01*
X981270Y89503D01*
X981295Y89411D01*
X981317Y89318D01*
X981335Y89224D01*
X981350Y89130D01*
X981360Y89035D01*
X981366Y88939D01*
X981369Y88844D01*
X981368Y88748D01*
X981362Y88653D01*
X981353Y88557D01*
X981340Y88463D01*
X981324Y88369D01*
X981303Y88275D01*
X981278Y88183D01*
X981250Y88092D01*
X981218Y88002D01*
X981183Y87913D01*
X981144Y87826D01*
X981101Y87740D01*
X981055Y87656D01*
X981005Y87575D01*
X980953Y87495D01*
X980897Y87417D01*
X980837Y87342D01*
X980775Y87270D01*
X980710Y87200D01*
X980642Y87132D01*
X980572Y87068D01*
X980499Y87006D01*
X980423Y86948D01*
X980345Y86892D01*
X980265Y86840D01*
X980183Y86791D01*
X980099Y86746D01*
X980013Y86704D01*
X979926Y86665D01*
X979837Y86630D01*
X979746Y86599D01*
X979655Y86572D01*
X979562Y86548D01*
X979469Y86528D01*
X979375Y86512D01*
X979280Y86500D01*
X979185Y86491D01*
X979089Y86487D01*
X978994Y86486D01*
X978993Y86487D02*
X978631Y86496D01*
X978269Y86514D01*
X977908Y86541D01*
X977548Y86576D01*
X977188Y86619D01*
X976829Y86671D01*
X976472Y86732D01*
X976117Y86801D01*
X975763Y86878D01*
X975411Y86964D01*
X975061Y87058D01*
X974713Y87161D01*
X974368Y87271D01*
X974026Y87390D01*
X988928Y92809D02*
X993444Y91003D01*
X988928Y92809D02*
X988840Y92846D01*
X988754Y92887D01*
X988669Y92931D01*
X988586Y92979D01*
X988506Y93030D01*
X988427Y93084D01*
X988351Y93142D01*
X988277Y93202D01*
X988205Y93266D01*
X988137Y93332D01*
X988071Y93402D01*
X988008Y93473D01*
X987947Y93548D01*
X987890Y93624D01*
X987837Y93703D01*
X987786Y93784D01*
X987739Y93867D01*
X987695Y93952D01*
X987655Y94039D01*
X987618Y94127D01*
X987585Y94217D01*
X987555Y94308D01*
X987530Y94400D01*
X987508Y94493D01*
X987490Y94587D01*
X987475Y94681D01*
X987465Y94776D01*
X987459Y94872D01*
X987456Y94967D01*
X987457Y95063D01*
X987463Y95158D01*
X987472Y95254D01*
X987485Y95348D01*
X987501Y95442D01*
X987522Y95536D01*
X987547Y95628D01*
X987575Y95719D01*
X987607Y95809D01*
X987642Y95898D01*
X987681Y95985D01*
X987724Y96071D01*
X987770Y96155D01*
X987820Y96236D01*
X987872Y96316D01*
X987928Y96394D01*
X987988Y96469D01*
X988050Y96541D01*
X988115Y96611D01*
X988183Y96679D01*
X988253Y96743D01*
X988326Y96805D01*
X988402Y96863D01*
X988480Y96919D01*
X988560Y96971D01*
X988642Y97020D01*
X988726Y97065D01*
X988812Y97107D01*
X988899Y97146D01*
X988988Y97181D01*
X989079Y97212D01*
X989170Y97239D01*
X989263Y97263D01*
X989356Y97283D01*
X989450Y97299D01*
X989545Y97311D01*
X989640Y97320D01*
X989736Y97324D01*
X989831Y97325D01*
X990078Y97318D01*
X990324Y97306D01*
X990570Y97288D01*
X990816Y97263D01*
X991060Y97233D01*
X991304Y97197D01*
X991547Y97156D01*
X991789Y97108D01*
X992030Y97054D01*
X992269Y96995D01*
X992507Y96930D01*
X992743Y96859D01*
X992978Y96783D01*
X993211Y96701D01*
X993441Y96613D01*
X993669Y96520D01*
X993896Y96422D01*
X993444Y91002D02*
X993532Y90965D01*
X993618Y90924D01*
X993703Y90880D01*
X993786Y90832D01*
X993866Y90781D01*
X993945Y90727D01*
X994021Y90669D01*
X994095Y90609D01*
X994167Y90545D01*
X994235Y90479D01*
X994301Y90409D01*
X994364Y90338D01*
X994425Y90263D01*
X994482Y90187D01*
X994535Y90108D01*
X994586Y90027D01*
X994633Y89944D01*
X994677Y89859D01*
X994717Y89772D01*
X994754Y89684D01*
X994787Y89594D01*
X994817Y89503D01*
X994842Y89411D01*
X994864Y89318D01*
X994882Y89224D01*
X994897Y89130D01*
X994907Y89035D01*
X994913Y88939D01*
X994916Y88844D01*
X994915Y88748D01*
X994909Y88653D01*
X994900Y88557D01*
X994887Y88463D01*
X994871Y88369D01*
X994850Y88275D01*
X994825Y88183D01*
X994797Y88092D01*
X994765Y88002D01*
X994730Y87913D01*
X994691Y87826D01*
X994648Y87740D01*
X994602Y87656D01*
X994552Y87575D01*
X994500Y87495D01*
X994444Y87417D01*
X994384Y87342D01*
X994322Y87270D01*
X994257Y87200D01*
X994189Y87132D01*
X994119Y87068D01*
X994046Y87006D01*
X993970Y86948D01*
X993892Y86892D01*
X993812Y86840D01*
X993730Y86791D01*
X993646Y86746D01*
X993560Y86704D01*
X993473Y86665D01*
X993384Y86630D01*
X993293Y86599D01*
X993202Y86572D01*
X993109Y86548D01*
X993016Y86528D01*
X992922Y86512D01*
X992827Y86500D01*
X992732Y86491D01*
X992636Y86487D01*
X992541Y86486D01*
X992540Y86487D02*
X992178Y86496D01*
X991816Y86514D01*
X991455Y86541D01*
X991095Y86576D01*
X990735Y86619D01*
X990376Y86671D01*
X990019Y86732D01*
X989664Y86801D01*
X989310Y86878D01*
X988958Y86964D01*
X988608Y87058D01*
X988260Y87161D01*
X987915Y87271D01*
X987573Y87390D01*
X1001086Y86487D02*
X1001086Y97324D01*
X1000634Y101840D02*
X1000634Y102743D01*
X1001537Y102743D01*
X1001537Y101840D01*
X1000634Y101840D01*
X1008728Y92809D02*
X1013243Y91003D01*
X1008727Y92809D02*
X1008639Y92846D01*
X1008553Y92887D01*
X1008468Y92931D01*
X1008385Y92979D01*
X1008305Y93030D01*
X1008226Y93084D01*
X1008150Y93142D01*
X1008076Y93202D01*
X1008004Y93266D01*
X1007936Y93332D01*
X1007870Y93402D01*
X1007807Y93473D01*
X1007746Y93548D01*
X1007689Y93624D01*
X1007636Y93703D01*
X1007585Y93784D01*
X1007538Y93867D01*
X1007494Y93952D01*
X1007454Y94039D01*
X1007417Y94127D01*
X1007384Y94217D01*
X1007354Y94308D01*
X1007329Y94400D01*
X1007307Y94493D01*
X1007289Y94587D01*
X1007274Y94681D01*
X1007264Y94776D01*
X1007258Y94872D01*
X1007255Y94967D01*
X1007256Y95063D01*
X1007262Y95158D01*
X1007271Y95254D01*
X1007284Y95348D01*
X1007300Y95442D01*
X1007321Y95536D01*
X1007346Y95628D01*
X1007374Y95719D01*
X1007406Y95809D01*
X1007441Y95898D01*
X1007480Y95985D01*
X1007523Y96071D01*
X1007569Y96155D01*
X1007619Y96236D01*
X1007671Y96316D01*
X1007727Y96394D01*
X1007787Y96469D01*
X1007849Y96541D01*
X1007914Y96611D01*
X1007982Y96679D01*
X1008052Y96743D01*
X1008125Y96805D01*
X1008201Y96863D01*
X1008279Y96919D01*
X1008359Y96971D01*
X1008441Y97020D01*
X1008525Y97065D01*
X1008611Y97107D01*
X1008698Y97146D01*
X1008787Y97181D01*
X1008878Y97212D01*
X1008969Y97239D01*
X1009062Y97263D01*
X1009155Y97283D01*
X1009249Y97299D01*
X1009344Y97311D01*
X1009439Y97320D01*
X1009535Y97324D01*
X1009630Y97325D01*
X1009877Y97318D01*
X1010123Y97306D01*
X1010369Y97288D01*
X1010615Y97263D01*
X1010859Y97233D01*
X1011103Y97197D01*
X1011346Y97156D01*
X1011588Y97108D01*
X1011829Y97054D01*
X1012068Y96995D01*
X1012306Y96930D01*
X1012542Y96859D01*
X1012777Y96783D01*
X1013010Y96701D01*
X1013240Y96613D01*
X1013468Y96520D01*
X1013695Y96422D01*
X1013244Y91002D02*
X1013332Y90965D01*
X1013418Y90924D01*
X1013503Y90880D01*
X1013586Y90832D01*
X1013666Y90781D01*
X1013745Y90727D01*
X1013821Y90669D01*
X1013895Y90609D01*
X1013967Y90545D01*
X1014035Y90479D01*
X1014101Y90409D01*
X1014164Y90338D01*
X1014225Y90263D01*
X1014282Y90187D01*
X1014335Y90108D01*
X1014386Y90027D01*
X1014433Y89944D01*
X1014477Y89859D01*
X1014517Y89772D01*
X1014554Y89684D01*
X1014587Y89594D01*
X1014617Y89503D01*
X1014642Y89411D01*
X1014664Y89318D01*
X1014682Y89224D01*
X1014697Y89130D01*
X1014707Y89035D01*
X1014713Y88939D01*
X1014716Y88844D01*
X1014715Y88748D01*
X1014709Y88653D01*
X1014700Y88557D01*
X1014687Y88463D01*
X1014671Y88369D01*
X1014650Y88275D01*
X1014625Y88183D01*
X1014597Y88092D01*
X1014565Y88002D01*
X1014530Y87913D01*
X1014491Y87826D01*
X1014448Y87740D01*
X1014402Y87656D01*
X1014352Y87575D01*
X1014300Y87495D01*
X1014244Y87417D01*
X1014184Y87342D01*
X1014122Y87270D01*
X1014057Y87200D01*
X1013989Y87132D01*
X1013919Y87068D01*
X1013846Y87006D01*
X1013770Y86948D01*
X1013692Y86892D01*
X1013612Y86840D01*
X1013530Y86791D01*
X1013446Y86746D01*
X1013360Y86704D01*
X1013273Y86665D01*
X1013184Y86630D01*
X1013093Y86599D01*
X1013002Y86572D01*
X1012909Y86548D01*
X1012816Y86528D01*
X1012722Y86512D01*
X1012627Y86500D01*
X1012532Y86491D01*
X1012436Y86487D01*
X1012341Y86486D01*
X1012340Y86487D02*
X1011978Y86496D01*
X1011616Y86514D01*
X1011255Y86541D01*
X1010895Y86576D01*
X1010535Y86619D01*
X1010176Y86671D01*
X1009819Y86732D01*
X1009464Y86801D01*
X1009110Y86878D01*
X1008758Y86964D01*
X1008408Y87058D01*
X1008060Y87161D01*
X1007715Y87271D01*
X1007373Y87390D01*
X1030128Y95518D02*
X1034643Y95518D01*
X1034643Y95519D02*
X1034776Y95517D01*
X1034908Y95511D01*
X1035040Y95501D01*
X1035172Y95488D01*
X1035304Y95470D01*
X1035434Y95449D01*
X1035565Y95424D01*
X1035694Y95395D01*
X1035822Y95362D01*
X1035950Y95326D01*
X1036076Y95286D01*
X1036201Y95242D01*
X1036325Y95194D01*
X1036447Y95143D01*
X1036568Y95088D01*
X1036687Y95030D01*
X1036805Y94968D01*
X1036920Y94903D01*
X1037034Y94834D01*
X1037145Y94763D01*
X1037254Y94687D01*
X1037361Y94609D01*
X1037466Y94528D01*
X1037568Y94443D01*
X1037668Y94356D01*
X1037765Y94266D01*
X1037860Y94173D01*
X1037951Y94077D01*
X1038040Y93979D01*
X1038126Y93878D01*
X1038209Y93774D01*
X1038289Y93668D01*
X1038365Y93560D01*
X1038439Y93450D01*
X1038509Y93337D01*
X1038576Y93223D01*
X1038639Y93106D01*
X1038699Y92988D01*
X1038756Y92868D01*
X1038809Y92746D01*
X1038858Y92623D01*
X1038904Y92499D01*
X1038946Y92373D01*
X1038984Y92246D01*
X1039019Y92118D01*
X1039050Y91989D01*
X1039077Y91860D01*
X1039100Y91729D01*
X1039120Y91598D01*
X1039135Y91466D01*
X1039147Y91334D01*
X1039155Y91202D01*
X1039159Y91069D01*
X1039159Y90937D01*
X1039155Y90804D01*
X1039147Y90672D01*
X1039135Y90540D01*
X1039120Y90408D01*
X1039100Y90277D01*
X1039077Y90146D01*
X1039050Y90017D01*
X1039019Y89888D01*
X1038984Y89760D01*
X1038946Y89633D01*
X1038904Y89507D01*
X1038858Y89383D01*
X1038809Y89260D01*
X1038756Y89138D01*
X1038699Y89018D01*
X1038639Y88900D01*
X1038576Y88783D01*
X1038509Y88669D01*
X1038439Y88556D01*
X1038365Y88446D01*
X1038289Y88338D01*
X1038209Y88232D01*
X1038126Y88128D01*
X1038040Y88027D01*
X1037951Y87929D01*
X1037860Y87833D01*
X1037765Y87740D01*
X1037668Y87650D01*
X1037568Y87563D01*
X1037466Y87478D01*
X1037361Y87397D01*
X1037254Y87319D01*
X1037145Y87243D01*
X1037034Y87172D01*
X1036920Y87103D01*
X1036805Y87038D01*
X1036687Y86976D01*
X1036568Y86918D01*
X1036447Y86863D01*
X1036325Y86812D01*
X1036201Y86764D01*
X1036076Y86720D01*
X1035950Y86680D01*
X1035822Y86644D01*
X1035694Y86611D01*
X1035565Y86582D01*
X1035434Y86557D01*
X1035304Y86536D01*
X1035172Y86518D01*
X1035040Y86505D01*
X1034908Y86495D01*
X1034776Y86489D01*
X1034643Y86487D01*
X1030128Y86487D01*
X1030128Y102743D01*
X1034643Y102743D01*
X1034762Y102741D01*
X1034882Y102735D01*
X1035001Y102725D01*
X1035119Y102711D01*
X1035238Y102694D01*
X1035355Y102672D01*
X1035472Y102647D01*
X1035587Y102617D01*
X1035702Y102584D01*
X1035816Y102547D01*
X1035928Y102507D01*
X1036039Y102462D01*
X1036148Y102414D01*
X1036256Y102363D01*
X1036362Y102308D01*
X1036466Y102249D01*
X1036568Y102187D01*
X1036668Y102122D01*
X1036766Y102053D01*
X1036862Y101981D01*
X1036955Y101906D01*
X1037045Y101829D01*
X1037133Y101748D01*
X1037218Y101664D01*
X1037300Y101577D01*
X1037380Y101488D01*
X1037456Y101396D01*
X1037530Y101302D01*
X1037600Y101205D01*
X1037667Y101107D01*
X1037731Y101006D01*
X1037791Y100902D01*
X1037848Y100797D01*
X1037901Y100690D01*
X1037951Y100582D01*
X1037997Y100472D01*
X1038039Y100360D01*
X1038078Y100247D01*
X1038113Y100133D01*
X1038144Y100018D01*
X1038172Y99901D01*
X1038195Y99784D01*
X1038215Y99667D01*
X1038231Y99548D01*
X1038243Y99429D01*
X1038251Y99310D01*
X1038255Y99191D01*
X1038255Y99071D01*
X1038251Y98952D01*
X1038243Y98833D01*
X1038231Y98714D01*
X1038215Y98595D01*
X1038195Y98478D01*
X1038172Y98361D01*
X1038144Y98244D01*
X1038113Y98129D01*
X1038078Y98015D01*
X1038039Y97902D01*
X1037997Y97790D01*
X1037951Y97680D01*
X1037901Y97572D01*
X1037848Y97465D01*
X1037791Y97360D01*
X1037731Y97256D01*
X1037667Y97155D01*
X1037600Y97057D01*
X1037530Y96960D01*
X1037456Y96866D01*
X1037380Y96774D01*
X1037300Y96685D01*
X1037218Y96598D01*
X1037133Y96514D01*
X1037045Y96433D01*
X1036955Y96356D01*
X1036862Y96281D01*
X1036766Y96209D01*
X1036668Y96140D01*
X1036568Y96075D01*
X1036466Y96013D01*
X1036362Y95954D01*
X1036256Y95899D01*
X1036148Y95848D01*
X1036039Y95800D01*
X1035928Y95755D01*
X1035816Y95715D01*
X1035702Y95678D01*
X1035587Y95645D01*
X1035472Y95615D01*
X1035355Y95590D01*
X1035238Y95568D01*
X1035119Y95551D01*
X1035001Y95537D01*
X1034882Y95527D01*
X1034762Y95521D01*
X1034643Y95519D01*
X1044888Y93712D02*
X1044888Y90099D01*
X1044888Y93712D02*
X1044890Y93831D01*
X1044896Y93951D01*
X1044906Y94070D01*
X1044920Y94188D01*
X1044937Y94307D01*
X1044959Y94424D01*
X1044984Y94541D01*
X1045014Y94656D01*
X1045047Y94771D01*
X1045084Y94885D01*
X1045124Y94997D01*
X1045169Y95108D01*
X1045217Y95217D01*
X1045268Y95325D01*
X1045323Y95431D01*
X1045382Y95535D01*
X1045444Y95637D01*
X1045509Y95737D01*
X1045578Y95835D01*
X1045650Y95931D01*
X1045725Y96024D01*
X1045802Y96114D01*
X1045883Y96202D01*
X1045967Y96287D01*
X1046054Y96369D01*
X1046143Y96449D01*
X1046235Y96525D01*
X1046329Y96599D01*
X1046426Y96669D01*
X1046524Y96736D01*
X1046625Y96800D01*
X1046729Y96860D01*
X1046834Y96917D01*
X1046941Y96970D01*
X1047049Y97020D01*
X1047159Y97066D01*
X1047271Y97108D01*
X1047384Y97147D01*
X1047498Y97182D01*
X1047613Y97213D01*
X1047730Y97241D01*
X1047847Y97264D01*
X1047964Y97284D01*
X1048083Y97300D01*
X1048202Y97312D01*
X1048321Y97320D01*
X1048440Y97324D01*
X1048560Y97324D01*
X1048679Y97320D01*
X1048798Y97312D01*
X1048917Y97300D01*
X1049036Y97284D01*
X1049153Y97264D01*
X1049270Y97241D01*
X1049387Y97213D01*
X1049502Y97182D01*
X1049616Y97147D01*
X1049729Y97108D01*
X1049841Y97066D01*
X1049951Y97020D01*
X1050059Y96970D01*
X1050166Y96917D01*
X1050271Y96860D01*
X1050375Y96800D01*
X1050476Y96736D01*
X1050574Y96669D01*
X1050671Y96599D01*
X1050765Y96525D01*
X1050857Y96449D01*
X1050946Y96369D01*
X1051033Y96287D01*
X1051117Y96202D01*
X1051198Y96114D01*
X1051275Y96024D01*
X1051350Y95931D01*
X1051422Y95835D01*
X1051491Y95737D01*
X1051556Y95637D01*
X1051618Y95535D01*
X1051677Y95431D01*
X1051732Y95325D01*
X1051783Y95217D01*
X1051831Y95108D01*
X1051876Y94997D01*
X1051916Y94885D01*
X1051953Y94771D01*
X1051986Y94656D01*
X1052016Y94541D01*
X1052041Y94424D01*
X1052063Y94307D01*
X1052080Y94188D01*
X1052094Y94070D01*
X1052104Y93951D01*
X1052110Y93831D01*
X1052112Y93712D01*
X1052113Y93712D02*
X1052113Y90099D01*
X1052112Y90099D02*
X1052110Y89980D01*
X1052104Y89860D01*
X1052094Y89741D01*
X1052080Y89623D01*
X1052063Y89504D01*
X1052041Y89387D01*
X1052016Y89270D01*
X1051986Y89155D01*
X1051953Y89040D01*
X1051916Y88926D01*
X1051876Y88814D01*
X1051831Y88703D01*
X1051783Y88594D01*
X1051732Y88486D01*
X1051677Y88380D01*
X1051618Y88276D01*
X1051556Y88174D01*
X1051491Y88074D01*
X1051422Y87976D01*
X1051350Y87880D01*
X1051275Y87787D01*
X1051198Y87697D01*
X1051117Y87609D01*
X1051033Y87524D01*
X1050946Y87442D01*
X1050857Y87362D01*
X1050765Y87286D01*
X1050671Y87212D01*
X1050574Y87142D01*
X1050476Y87075D01*
X1050375Y87011D01*
X1050271Y86951D01*
X1050166Y86894D01*
X1050059Y86841D01*
X1049951Y86791D01*
X1049841Y86745D01*
X1049729Y86703D01*
X1049616Y86664D01*
X1049502Y86629D01*
X1049387Y86598D01*
X1049270Y86570D01*
X1049153Y86547D01*
X1049036Y86527D01*
X1048917Y86511D01*
X1048798Y86499D01*
X1048679Y86491D01*
X1048560Y86487D01*
X1048440Y86487D01*
X1048321Y86491D01*
X1048202Y86499D01*
X1048083Y86511D01*
X1047964Y86527D01*
X1047847Y86547D01*
X1047730Y86570D01*
X1047613Y86598D01*
X1047498Y86629D01*
X1047384Y86664D01*
X1047271Y86703D01*
X1047159Y86745D01*
X1047049Y86791D01*
X1046941Y86841D01*
X1046834Y86894D01*
X1046729Y86951D01*
X1046625Y87011D01*
X1046524Y87075D01*
X1046426Y87142D01*
X1046329Y87212D01*
X1046235Y87286D01*
X1046143Y87362D01*
X1046054Y87442D01*
X1045967Y87524D01*
X1045883Y87609D01*
X1045802Y87697D01*
X1045725Y87787D01*
X1045650Y87880D01*
X1045578Y87976D01*
X1045509Y88074D01*
X1045444Y88174D01*
X1045382Y88276D01*
X1045323Y88380D01*
X1045268Y88486D01*
X1045217Y88594D01*
X1045169Y88703D01*
X1045124Y88814D01*
X1045084Y88926D01*
X1045047Y89040D01*
X1045014Y89155D01*
X1044984Y89270D01*
X1044959Y89387D01*
X1044937Y89504D01*
X1044920Y89623D01*
X1044906Y89741D01*
X1044896Y89860D01*
X1044890Y89980D01*
X1044888Y90099D01*
X1061523Y92809D02*
X1065587Y92809D01*
X1061523Y92809D02*
X1061411Y92807D01*
X1061300Y92801D01*
X1061189Y92791D01*
X1061078Y92778D01*
X1060968Y92760D01*
X1060859Y92738D01*
X1060750Y92713D01*
X1060642Y92684D01*
X1060536Y92651D01*
X1060430Y92614D01*
X1060326Y92574D01*
X1060224Y92530D01*
X1060123Y92482D01*
X1060024Y92431D01*
X1059926Y92376D01*
X1059831Y92318D01*
X1059738Y92257D01*
X1059647Y92192D01*
X1059558Y92124D01*
X1059472Y92053D01*
X1059389Y91980D01*
X1059308Y91903D01*
X1059229Y91823D01*
X1059154Y91741D01*
X1059082Y91656D01*
X1059012Y91569D01*
X1058946Y91479D01*
X1058883Y91387D01*
X1058823Y91292D01*
X1058767Y91196D01*
X1058714Y91098D01*
X1058665Y90998D01*
X1058619Y90896D01*
X1058577Y90793D01*
X1058538Y90688D01*
X1058503Y90582D01*
X1058472Y90475D01*
X1058445Y90367D01*
X1058421Y90258D01*
X1058402Y90148D01*
X1058386Y90038D01*
X1058374Y89927D01*
X1058366Y89815D01*
X1058362Y89704D01*
X1058362Y89592D01*
X1058366Y89481D01*
X1058374Y89369D01*
X1058386Y89258D01*
X1058402Y89148D01*
X1058421Y89038D01*
X1058445Y88929D01*
X1058472Y88821D01*
X1058503Y88714D01*
X1058538Y88608D01*
X1058577Y88503D01*
X1058619Y88400D01*
X1058665Y88298D01*
X1058714Y88198D01*
X1058767Y88100D01*
X1058823Y88004D01*
X1058883Y87909D01*
X1058946Y87817D01*
X1059012Y87727D01*
X1059082Y87640D01*
X1059154Y87555D01*
X1059229Y87473D01*
X1059308Y87393D01*
X1059389Y87316D01*
X1059472Y87243D01*
X1059558Y87172D01*
X1059647Y87104D01*
X1059738Y87039D01*
X1059831Y86978D01*
X1059926Y86920D01*
X1060024Y86865D01*
X1060123Y86814D01*
X1060224Y86766D01*
X1060326Y86722D01*
X1060430Y86682D01*
X1060536Y86645D01*
X1060642Y86612D01*
X1060750Y86583D01*
X1060859Y86558D01*
X1060968Y86536D01*
X1061078Y86518D01*
X1061189Y86505D01*
X1061300Y86495D01*
X1061411Y86489D01*
X1061523Y86487D01*
X1065587Y86487D01*
X1065587Y94615D01*
X1065586Y94615D02*
X1065584Y94716D01*
X1065578Y94817D01*
X1065569Y94918D01*
X1065556Y95019D01*
X1065539Y95119D01*
X1065518Y95218D01*
X1065494Y95316D01*
X1065466Y95413D01*
X1065434Y95510D01*
X1065399Y95605D01*
X1065360Y95698D01*
X1065318Y95790D01*
X1065272Y95881D01*
X1065223Y95970D01*
X1065171Y96056D01*
X1065115Y96141D01*
X1065057Y96224D01*
X1064995Y96304D01*
X1064930Y96382D01*
X1064863Y96458D01*
X1064793Y96531D01*
X1064720Y96601D01*
X1064644Y96668D01*
X1064566Y96733D01*
X1064486Y96795D01*
X1064403Y96853D01*
X1064318Y96909D01*
X1064232Y96961D01*
X1064143Y97010D01*
X1064052Y97056D01*
X1063960Y97098D01*
X1063867Y97137D01*
X1063772Y97172D01*
X1063675Y97204D01*
X1063578Y97232D01*
X1063480Y97256D01*
X1063381Y97277D01*
X1063281Y97294D01*
X1063180Y97307D01*
X1063079Y97316D01*
X1062978Y97322D01*
X1062877Y97324D01*
X1059265Y97324D01*
X1073109Y97324D02*
X1073109Y86487D01*
X1073109Y97324D02*
X1078528Y97324D01*
X1078528Y95518D01*
X1090597Y102743D02*
X1090597Y86487D01*
X1086081Y86487D01*
X1085980Y86489D01*
X1085879Y86495D01*
X1085778Y86504D01*
X1085677Y86517D01*
X1085577Y86534D01*
X1085478Y86555D01*
X1085380Y86579D01*
X1085283Y86607D01*
X1085186Y86639D01*
X1085091Y86674D01*
X1084998Y86713D01*
X1084906Y86755D01*
X1084815Y86801D01*
X1084727Y86850D01*
X1084640Y86902D01*
X1084555Y86958D01*
X1084472Y87016D01*
X1084392Y87078D01*
X1084314Y87143D01*
X1084238Y87210D01*
X1084165Y87280D01*
X1084095Y87353D01*
X1084028Y87429D01*
X1083963Y87507D01*
X1083901Y87587D01*
X1083843Y87670D01*
X1083787Y87755D01*
X1083735Y87842D01*
X1083686Y87930D01*
X1083640Y88021D01*
X1083598Y88113D01*
X1083559Y88206D01*
X1083524Y88301D01*
X1083492Y88398D01*
X1083464Y88495D01*
X1083440Y88593D01*
X1083419Y88692D01*
X1083402Y88792D01*
X1083389Y88893D01*
X1083380Y88994D01*
X1083374Y89095D01*
X1083372Y89196D01*
X1083372Y94615D01*
X1083374Y94716D01*
X1083380Y94817D01*
X1083389Y94918D01*
X1083402Y95019D01*
X1083419Y95119D01*
X1083440Y95218D01*
X1083464Y95316D01*
X1083492Y95413D01*
X1083524Y95510D01*
X1083559Y95605D01*
X1083598Y95698D01*
X1083640Y95790D01*
X1083686Y95881D01*
X1083735Y95970D01*
X1083787Y96056D01*
X1083843Y96141D01*
X1083901Y96224D01*
X1083963Y96304D01*
X1084028Y96382D01*
X1084095Y96458D01*
X1084165Y96531D01*
X1084238Y96601D01*
X1084314Y96668D01*
X1084392Y96733D01*
X1084472Y96795D01*
X1084555Y96853D01*
X1084640Y96909D01*
X1084727Y96961D01*
X1084815Y97010D01*
X1084906Y97056D01*
X1084998Y97098D01*
X1085091Y97137D01*
X1085186Y97172D01*
X1085283Y97204D01*
X1085380Y97232D01*
X1085478Y97256D01*
X1085577Y97277D01*
X1085677Y97294D01*
X1085778Y97307D01*
X1085879Y97316D01*
X1085980Y97322D01*
X1086081Y97324D01*
X1090597Y97324D01*
D10*
X829056Y76454D02*
X829056Y67056D01*
X829056Y76454D02*
X831667Y76454D01*
X831767Y76452D01*
X831867Y76446D01*
X831966Y76437D01*
X832066Y76423D01*
X832164Y76406D01*
X832262Y76385D01*
X832359Y76361D01*
X832455Y76332D01*
X832550Y76300D01*
X832643Y76265D01*
X832735Y76226D01*
X832826Y76183D01*
X832914Y76137D01*
X833001Y76087D01*
X833086Y76035D01*
X833169Y75979D01*
X833250Y75920D01*
X833328Y75857D01*
X833404Y75792D01*
X833478Y75724D01*
X833548Y75654D01*
X833616Y75580D01*
X833681Y75504D01*
X833744Y75426D01*
X833803Y75345D01*
X833859Y75262D01*
X833911Y75177D01*
X833961Y75090D01*
X834007Y75002D01*
X834050Y74911D01*
X834089Y74819D01*
X834124Y74726D01*
X834156Y74631D01*
X834185Y74535D01*
X834209Y74438D01*
X834230Y74340D01*
X834247Y74242D01*
X834261Y74142D01*
X834270Y74043D01*
X834276Y73943D01*
X834278Y73843D01*
X834277Y73843D02*
X834277Y69667D01*
X834278Y69667D02*
X834276Y69567D01*
X834270Y69467D01*
X834261Y69368D01*
X834247Y69268D01*
X834230Y69170D01*
X834209Y69072D01*
X834185Y68975D01*
X834156Y68879D01*
X834124Y68784D01*
X834089Y68691D01*
X834050Y68599D01*
X834007Y68508D01*
X833961Y68420D01*
X833911Y68333D01*
X833859Y68248D01*
X833803Y68165D01*
X833744Y68084D01*
X833681Y68006D01*
X833616Y67930D01*
X833548Y67856D01*
X833478Y67786D01*
X833404Y67718D01*
X833328Y67653D01*
X833250Y67590D01*
X833169Y67531D01*
X833086Y67475D01*
X833001Y67423D01*
X832914Y67373D01*
X832826Y67327D01*
X832735Y67284D01*
X832643Y67245D01*
X832550Y67210D01*
X832455Y67178D01*
X832359Y67149D01*
X832262Y67125D01*
X832164Y67104D01*
X832066Y67087D01*
X831966Y67073D01*
X831867Y67064D01*
X831767Y67058D01*
X831667Y67056D01*
X829056Y67056D01*
X839984Y67056D02*
X842594Y67056D01*
X839984Y67056D02*
X839907Y67058D01*
X839831Y67064D01*
X839754Y67073D01*
X839678Y67086D01*
X839603Y67103D01*
X839529Y67123D01*
X839456Y67148D01*
X839385Y67175D01*
X839314Y67206D01*
X839246Y67241D01*
X839179Y67279D01*
X839114Y67320D01*
X839051Y67364D01*
X838991Y67411D01*
X838932Y67462D01*
X838877Y67515D01*
X838824Y67570D01*
X838773Y67629D01*
X838726Y67689D01*
X838682Y67752D01*
X838641Y67817D01*
X838603Y67884D01*
X838568Y67952D01*
X838537Y68023D01*
X838510Y68094D01*
X838485Y68167D01*
X838465Y68241D01*
X838448Y68316D01*
X838435Y68392D01*
X838426Y68469D01*
X838420Y68545D01*
X838418Y68622D01*
X838417Y68622D02*
X838417Y71233D01*
X838418Y71233D02*
X838420Y71323D01*
X838426Y71412D01*
X838435Y71502D01*
X838449Y71591D01*
X838466Y71679D01*
X838487Y71766D01*
X838512Y71853D01*
X838541Y71938D01*
X838573Y72022D01*
X838608Y72104D01*
X838648Y72185D01*
X838690Y72264D01*
X838736Y72341D01*
X838786Y72416D01*
X838838Y72489D01*
X838894Y72560D01*
X838952Y72628D01*
X839014Y72693D01*
X839078Y72756D01*
X839145Y72816D01*
X839214Y72873D01*
X839286Y72927D01*
X839360Y72978D01*
X839436Y73026D01*
X839514Y73070D01*
X839594Y73111D01*
X839676Y73149D01*
X839759Y73183D01*
X839844Y73213D01*
X839930Y73240D01*
X840016Y73263D01*
X840104Y73282D01*
X840193Y73297D01*
X840282Y73309D01*
X840371Y73317D01*
X840461Y73321D01*
X840551Y73321D01*
X840641Y73317D01*
X840730Y73309D01*
X840819Y73297D01*
X840908Y73282D01*
X840996Y73263D01*
X841082Y73240D01*
X841168Y73213D01*
X841253Y73183D01*
X841336Y73149D01*
X841418Y73111D01*
X841498Y73070D01*
X841576Y73026D01*
X841652Y72978D01*
X841726Y72927D01*
X841798Y72873D01*
X841867Y72816D01*
X841934Y72756D01*
X841998Y72693D01*
X842060Y72628D01*
X842118Y72560D01*
X842174Y72489D01*
X842226Y72416D01*
X842276Y72341D01*
X842322Y72264D01*
X842364Y72185D01*
X842404Y72104D01*
X842439Y72022D01*
X842471Y71938D01*
X842500Y71853D01*
X842525Y71766D01*
X842546Y71679D01*
X842563Y71591D01*
X842577Y71502D01*
X842586Y71412D01*
X842592Y71323D01*
X842594Y71233D01*
X842594Y70189D01*
X838417Y70189D01*
X847125Y70711D02*
X849736Y69667D01*
X847125Y70711D02*
X847059Y70739D01*
X846994Y70772D01*
X846931Y70807D01*
X846870Y70846D01*
X846811Y70888D01*
X846755Y70933D01*
X846701Y70981D01*
X846650Y71032D01*
X846601Y71085D01*
X846556Y71142D01*
X846513Y71200D01*
X846474Y71260D01*
X846437Y71323D01*
X846405Y71388D01*
X846376Y71454D01*
X846350Y71521D01*
X846328Y71590D01*
X846310Y71660D01*
X846295Y71731D01*
X846284Y71802D01*
X846277Y71874D01*
X846274Y71946D01*
X846275Y72018D01*
X846280Y72091D01*
X846288Y72162D01*
X846300Y72234D01*
X846316Y72304D01*
X846336Y72373D01*
X846360Y72442D01*
X846387Y72509D01*
X846417Y72574D01*
X846451Y72638D01*
X846489Y72700D01*
X846529Y72760D01*
X846573Y72817D01*
X846620Y72872D01*
X846670Y72925D01*
X846722Y72974D01*
X846777Y73021D01*
X846834Y73065D01*
X846894Y73106D01*
X846956Y73143D01*
X847020Y73178D01*
X847085Y73208D01*
X847152Y73236D01*
X847220Y73259D01*
X847290Y73279D01*
X847360Y73295D01*
X847431Y73308D01*
X847503Y73316D01*
X847575Y73321D01*
X847647Y73322D01*
X847648Y73321D02*
X847799Y73317D01*
X847950Y73309D01*
X848101Y73298D01*
X848252Y73282D01*
X848402Y73262D01*
X848552Y73239D01*
X848701Y73212D01*
X848849Y73181D01*
X848997Y73146D01*
X849143Y73108D01*
X849289Y73065D01*
X849433Y73019D01*
X849576Y72970D01*
X849718Y72917D01*
X849858Y72860D01*
X849997Y72799D01*
X849736Y69667D02*
X849802Y69639D01*
X849867Y69606D01*
X849930Y69571D01*
X849991Y69532D01*
X850050Y69490D01*
X850106Y69445D01*
X850160Y69397D01*
X850211Y69346D01*
X850260Y69293D01*
X850305Y69236D01*
X850348Y69178D01*
X850387Y69118D01*
X850424Y69055D01*
X850456Y68990D01*
X850485Y68924D01*
X850511Y68857D01*
X850533Y68788D01*
X850551Y68718D01*
X850566Y68647D01*
X850577Y68576D01*
X850584Y68504D01*
X850587Y68432D01*
X850586Y68360D01*
X850581Y68287D01*
X850573Y68216D01*
X850561Y68144D01*
X850545Y68074D01*
X850525Y68005D01*
X850501Y67936D01*
X850474Y67869D01*
X850444Y67804D01*
X850410Y67740D01*
X850372Y67678D01*
X850332Y67618D01*
X850288Y67561D01*
X850241Y67506D01*
X850191Y67453D01*
X850139Y67404D01*
X850084Y67357D01*
X850027Y67313D01*
X849967Y67272D01*
X849905Y67235D01*
X849841Y67200D01*
X849776Y67170D01*
X849709Y67142D01*
X849641Y67119D01*
X849571Y67099D01*
X849501Y67083D01*
X849430Y67070D01*
X849358Y67062D01*
X849286Y67057D01*
X849214Y67056D01*
X849004Y67061D01*
X848795Y67072D01*
X848586Y67087D01*
X848378Y67107D01*
X848170Y67133D01*
X847963Y67163D01*
X847756Y67198D01*
X847551Y67238D01*
X847346Y67282D01*
X847143Y67332D01*
X846940Y67386D01*
X846739Y67446D01*
X846540Y67509D01*
X846342Y67578D01*
X854222Y67056D02*
X854222Y73321D01*
X853961Y75932D02*
X853961Y76454D01*
X854483Y76454D01*
X854483Y75932D01*
X853961Y75932D01*
X859445Y67056D02*
X862056Y67056D01*
X859445Y67056D02*
X859368Y67058D01*
X859292Y67064D01*
X859215Y67073D01*
X859139Y67086D01*
X859064Y67103D01*
X858990Y67123D01*
X858917Y67148D01*
X858846Y67175D01*
X858775Y67206D01*
X858707Y67241D01*
X858640Y67279D01*
X858575Y67320D01*
X858512Y67364D01*
X858452Y67411D01*
X858393Y67462D01*
X858338Y67515D01*
X858285Y67570D01*
X858234Y67629D01*
X858187Y67689D01*
X858143Y67752D01*
X858102Y67817D01*
X858064Y67884D01*
X858029Y67952D01*
X857998Y68023D01*
X857971Y68094D01*
X857946Y68167D01*
X857926Y68241D01*
X857909Y68316D01*
X857896Y68392D01*
X857887Y68469D01*
X857881Y68545D01*
X857879Y68622D01*
X857879Y71755D01*
X857881Y71832D01*
X857887Y71908D01*
X857896Y71985D01*
X857909Y72061D01*
X857926Y72136D01*
X857946Y72210D01*
X857971Y72283D01*
X857998Y72354D01*
X858029Y72425D01*
X858064Y72493D01*
X858102Y72560D01*
X858143Y72625D01*
X858187Y72688D01*
X858234Y72748D01*
X858285Y72807D01*
X858338Y72862D01*
X858393Y72915D01*
X858452Y72966D01*
X858512Y73013D01*
X858575Y73057D01*
X858640Y73098D01*
X858707Y73136D01*
X858775Y73171D01*
X858846Y73202D01*
X858917Y73229D01*
X858990Y73254D01*
X859064Y73274D01*
X859139Y73291D01*
X859215Y73304D01*
X859292Y73313D01*
X859368Y73319D01*
X859445Y73321D01*
X862056Y73321D01*
X862056Y65490D01*
X862055Y65490D02*
X862053Y65413D01*
X862047Y65337D01*
X862038Y65260D01*
X862025Y65184D01*
X862008Y65109D01*
X861988Y65035D01*
X861963Y64962D01*
X861936Y64891D01*
X861905Y64820D01*
X861870Y64752D01*
X861832Y64685D01*
X861791Y64620D01*
X861747Y64557D01*
X861700Y64497D01*
X861649Y64438D01*
X861596Y64383D01*
X861541Y64330D01*
X861482Y64279D01*
X861422Y64232D01*
X861359Y64188D01*
X861294Y64147D01*
X861227Y64109D01*
X861159Y64074D01*
X861088Y64043D01*
X861017Y64016D01*
X860944Y63991D01*
X860870Y63971D01*
X860795Y63954D01*
X860719Y63941D01*
X860643Y63932D01*
X860566Y63926D01*
X860489Y63924D01*
X860489Y63923D02*
X858401Y63923D01*
X866459Y67056D02*
X866459Y73321D01*
X869069Y73321D01*
X869146Y73319D01*
X869222Y73313D01*
X869299Y73304D01*
X869375Y73291D01*
X869450Y73274D01*
X869524Y73254D01*
X869597Y73229D01*
X869668Y73202D01*
X869739Y73171D01*
X869807Y73136D01*
X869874Y73098D01*
X869939Y73057D01*
X870002Y73013D01*
X870062Y72966D01*
X870121Y72915D01*
X870176Y72862D01*
X870229Y72807D01*
X870280Y72748D01*
X870327Y72688D01*
X870371Y72625D01*
X870412Y72560D01*
X870450Y72493D01*
X870485Y72425D01*
X870516Y72354D01*
X870543Y72283D01*
X870568Y72210D01*
X870588Y72136D01*
X870605Y72061D01*
X870618Y71985D01*
X870627Y71909D01*
X870633Y71832D01*
X870635Y71755D01*
X870636Y71755D02*
X870636Y67056D01*
X876255Y67056D02*
X878865Y67056D01*
X876255Y67056D02*
X876178Y67058D01*
X876102Y67064D01*
X876025Y67073D01*
X875949Y67086D01*
X875874Y67103D01*
X875800Y67123D01*
X875727Y67148D01*
X875656Y67175D01*
X875585Y67206D01*
X875517Y67241D01*
X875450Y67279D01*
X875385Y67320D01*
X875322Y67364D01*
X875262Y67411D01*
X875203Y67462D01*
X875148Y67515D01*
X875095Y67570D01*
X875044Y67629D01*
X874997Y67689D01*
X874953Y67752D01*
X874912Y67817D01*
X874874Y67884D01*
X874839Y67952D01*
X874808Y68023D01*
X874781Y68094D01*
X874756Y68167D01*
X874736Y68241D01*
X874719Y68316D01*
X874706Y68392D01*
X874697Y68469D01*
X874691Y68545D01*
X874689Y68622D01*
X874688Y68622D02*
X874688Y71233D01*
X874689Y71233D02*
X874691Y71323D01*
X874697Y71412D01*
X874706Y71502D01*
X874720Y71591D01*
X874737Y71679D01*
X874758Y71766D01*
X874783Y71853D01*
X874812Y71938D01*
X874844Y72022D01*
X874879Y72104D01*
X874919Y72185D01*
X874961Y72264D01*
X875007Y72341D01*
X875057Y72416D01*
X875109Y72489D01*
X875165Y72560D01*
X875223Y72628D01*
X875285Y72693D01*
X875349Y72756D01*
X875416Y72816D01*
X875485Y72873D01*
X875557Y72927D01*
X875631Y72978D01*
X875707Y73026D01*
X875785Y73070D01*
X875865Y73111D01*
X875947Y73149D01*
X876030Y73183D01*
X876115Y73213D01*
X876201Y73240D01*
X876287Y73263D01*
X876375Y73282D01*
X876464Y73297D01*
X876553Y73309D01*
X876642Y73317D01*
X876732Y73321D01*
X876822Y73321D01*
X876912Y73317D01*
X877001Y73309D01*
X877090Y73297D01*
X877179Y73282D01*
X877267Y73263D01*
X877353Y73240D01*
X877439Y73213D01*
X877524Y73183D01*
X877607Y73149D01*
X877689Y73111D01*
X877769Y73070D01*
X877847Y73026D01*
X877923Y72978D01*
X877997Y72927D01*
X878069Y72873D01*
X878138Y72816D01*
X878205Y72756D01*
X878269Y72693D01*
X878331Y72628D01*
X878389Y72560D01*
X878445Y72489D01*
X878497Y72416D01*
X878547Y72341D01*
X878593Y72264D01*
X878635Y72185D01*
X878675Y72104D01*
X878710Y72022D01*
X878742Y71938D01*
X878771Y71853D01*
X878796Y71766D01*
X878817Y71679D01*
X878834Y71591D01*
X878848Y71502D01*
X878857Y71412D01*
X878863Y71323D01*
X878865Y71233D01*
X878865Y70189D01*
X874688Y70189D01*
X886744Y67056D02*
X886744Y76454D01*
X886744Y67056D02*
X884134Y67056D01*
X884057Y67058D01*
X883981Y67064D01*
X883904Y67073D01*
X883828Y67086D01*
X883753Y67103D01*
X883679Y67123D01*
X883606Y67148D01*
X883535Y67175D01*
X883464Y67206D01*
X883396Y67241D01*
X883329Y67279D01*
X883264Y67320D01*
X883201Y67364D01*
X883141Y67411D01*
X883082Y67462D01*
X883027Y67515D01*
X882974Y67570D01*
X882923Y67629D01*
X882876Y67689D01*
X882832Y67752D01*
X882791Y67817D01*
X882753Y67884D01*
X882718Y67952D01*
X882687Y68023D01*
X882660Y68094D01*
X882635Y68167D01*
X882615Y68241D01*
X882598Y68316D01*
X882585Y68392D01*
X882576Y68469D01*
X882570Y68545D01*
X882568Y68622D01*
X882567Y68622D02*
X882567Y71755D01*
X882568Y71755D02*
X882570Y71832D01*
X882576Y71908D01*
X882585Y71985D01*
X882598Y72061D01*
X882615Y72136D01*
X882635Y72210D01*
X882660Y72283D01*
X882687Y72354D01*
X882718Y72425D01*
X882753Y72493D01*
X882791Y72560D01*
X882832Y72625D01*
X882876Y72688D01*
X882923Y72748D01*
X882974Y72807D01*
X883027Y72862D01*
X883082Y72915D01*
X883141Y72966D01*
X883201Y73013D01*
X883264Y73057D01*
X883329Y73098D01*
X883396Y73136D01*
X883464Y73171D01*
X883535Y73202D01*
X883606Y73229D01*
X883679Y73254D01*
X883753Y73274D01*
X883828Y73291D01*
X883904Y73304D01*
X883981Y73313D01*
X884057Y73319D01*
X884134Y73321D01*
X886744Y73321D01*
X896070Y76454D02*
X896070Y67056D01*
X898680Y67056D01*
X898757Y67058D01*
X898833Y67064D01*
X898910Y67073D01*
X898986Y67086D01*
X899061Y67103D01*
X899135Y67123D01*
X899208Y67148D01*
X899279Y67175D01*
X899350Y67206D01*
X899418Y67241D01*
X899485Y67279D01*
X899550Y67320D01*
X899613Y67364D01*
X899673Y67411D01*
X899732Y67462D01*
X899787Y67515D01*
X899840Y67570D01*
X899891Y67629D01*
X899938Y67689D01*
X899982Y67752D01*
X900023Y67817D01*
X900061Y67884D01*
X900096Y67952D01*
X900127Y68023D01*
X900154Y68094D01*
X900179Y68167D01*
X900199Y68241D01*
X900216Y68316D01*
X900229Y68392D01*
X900238Y68468D01*
X900244Y68545D01*
X900246Y68622D01*
X900247Y68622D02*
X900247Y71755D01*
X900246Y71755D02*
X900244Y71832D01*
X900238Y71908D01*
X900229Y71985D01*
X900216Y72061D01*
X900199Y72136D01*
X900179Y72210D01*
X900154Y72283D01*
X900127Y72354D01*
X900096Y72425D01*
X900061Y72493D01*
X900023Y72560D01*
X899982Y72625D01*
X899938Y72688D01*
X899891Y72748D01*
X899840Y72807D01*
X899787Y72862D01*
X899732Y72915D01*
X899673Y72966D01*
X899613Y73013D01*
X899550Y73057D01*
X899485Y73098D01*
X899418Y73136D01*
X899350Y73171D01*
X899279Y73202D01*
X899208Y73229D01*
X899135Y73254D01*
X899061Y73274D01*
X898986Y73291D01*
X898910Y73304D01*
X898833Y73313D01*
X898757Y73319D01*
X898680Y73321D01*
X896070Y73321D01*
X903644Y63923D02*
X904688Y63923D01*
X907821Y73321D01*
X903644Y73321D02*
X905732Y67056D01*
X916533Y67056D02*
X916533Y76454D01*
X921754Y67056D01*
X921754Y76454D01*
X925849Y73321D02*
X925849Y67056D01*
X925588Y75932D02*
X925588Y76454D01*
X926110Y76454D01*
X926110Y75932D01*
X925588Y75932D01*
X930335Y70711D02*
X932946Y69667D01*
X930335Y70711D02*
X930269Y70739D01*
X930204Y70772D01*
X930141Y70807D01*
X930080Y70846D01*
X930021Y70888D01*
X929965Y70933D01*
X929911Y70981D01*
X929860Y71032D01*
X929811Y71085D01*
X929766Y71142D01*
X929723Y71200D01*
X929684Y71260D01*
X929647Y71323D01*
X929615Y71388D01*
X929586Y71454D01*
X929560Y71521D01*
X929538Y71590D01*
X929520Y71660D01*
X929505Y71731D01*
X929494Y71802D01*
X929487Y71874D01*
X929484Y71946D01*
X929485Y72018D01*
X929490Y72091D01*
X929498Y72162D01*
X929510Y72234D01*
X929526Y72304D01*
X929546Y72373D01*
X929570Y72442D01*
X929597Y72509D01*
X929627Y72574D01*
X929661Y72638D01*
X929699Y72700D01*
X929739Y72760D01*
X929783Y72817D01*
X929830Y72872D01*
X929880Y72925D01*
X929932Y72974D01*
X929987Y73021D01*
X930044Y73065D01*
X930104Y73106D01*
X930166Y73143D01*
X930230Y73178D01*
X930295Y73208D01*
X930362Y73236D01*
X930430Y73259D01*
X930500Y73279D01*
X930570Y73295D01*
X930641Y73308D01*
X930713Y73316D01*
X930785Y73321D01*
X930857Y73322D01*
X930858Y73321D02*
X931009Y73317D01*
X931160Y73309D01*
X931311Y73298D01*
X931462Y73282D01*
X931612Y73262D01*
X931762Y73239D01*
X931911Y73212D01*
X932059Y73181D01*
X932207Y73146D01*
X932353Y73108D01*
X932499Y73065D01*
X932643Y73019D01*
X932786Y72970D01*
X932928Y72917D01*
X933068Y72860D01*
X933207Y72799D01*
X932946Y69667D02*
X933012Y69639D01*
X933077Y69606D01*
X933140Y69571D01*
X933201Y69532D01*
X933260Y69490D01*
X933316Y69445D01*
X933370Y69397D01*
X933421Y69346D01*
X933470Y69293D01*
X933515Y69236D01*
X933558Y69178D01*
X933597Y69118D01*
X933634Y69055D01*
X933666Y68990D01*
X933695Y68924D01*
X933721Y68857D01*
X933743Y68788D01*
X933761Y68718D01*
X933776Y68647D01*
X933787Y68576D01*
X933794Y68504D01*
X933797Y68432D01*
X933796Y68360D01*
X933791Y68287D01*
X933783Y68216D01*
X933771Y68144D01*
X933755Y68074D01*
X933735Y68005D01*
X933711Y67936D01*
X933684Y67869D01*
X933654Y67804D01*
X933620Y67740D01*
X933582Y67678D01*
X933542Y67618D01*
X933498Y67561D01*
X933451Y67506D01*
X933401Y67453D01*
X933349Y67404D01*
X933294Y67357D01*
X933237Y67313D01*
X933177Y67272D01*
X933115Y67235D01*
X933051Y67200D01*
X932986Y67170D01*
X932919Y67142D01*
X932851Y67119D01*
X932781Y67099D01*
X932711Y67083D01*
X932640Y67070D01*
X932568Y67062D01*
X932496Y67057D01*
X932424Y67056D01*
X932214Y67061D01*
X932005Y67072D01*
X931796Y67087D01*
X931588Y67107D01*
X931380Y67133D01*
X931173Y67163D01*
X930966Y67198D01*
X930761Y67238D01*
X930556Y67282D01*
X930353Y67332D01*
X930150Y67386D01*
X929949Y67446D01*
X929750Y67509D01*
X929552Y67578D01*
X937781Y67056D02*
X937781Y76454D01*
X937781Y73321D02*
X940392Y73321D01*
X940469Y73319D01*
X940545Y73313D01*
X940622Y73304D01*
X940698Y73291D01*
X940773Y73274D01*
X940847Y73254D01*
X940920Y73229D01*
X940991Y73202D01*
X941062Y73171D01*
X941130Y73136D01*
X941197Y73098D01*
X941262Y73057D01*
X941325Y73013D01*
X941385Y72966D01*
X941444Y72915D01*
X941499Y72862D01*
X941552Y72807D01*
X941603Y72748D01*
X941650Y72688D01*
X941694Y72625D01*
X941735Y72560D01*
X941773Y72493D01*
X941808Y72425D01*
X941839Y72354D01*
X941866Y72283D01*
X941891Y72210D01*
X941911Y72136D01*
X941928Y72061D01*
X941941Y71985D01*
X941950Y71909D01*
X941956Y71832D01*
X941958Y71755D01*
X941958Y67056D01*
X947793Y70711D02*
X950142Y70711D01*
X947793Y70710D02*
X947709Y70708D01*
X947624Y70702D01*
X947541Y70692D01*
X947457Y70679D01*
X947375Y70661D01*
X947293Y70640D01*
X947212Y70615D01*
X947133Y70587D01*
X947055Y70554D01*
X946979Y70518D01*
X946904Y70479D01*
X946831Y70436D01*
X946760Y70390D01*
X946692Y70341D01*
X946626Y70289D01*
X946562Y70233D01*
X946501Y70175D01*
X946443Y70114D01*
X946387Y70050D01*
X946335Y69984D01*
X946286Y69916D01*
X946240Y69845D01*
X946197Y69772D01*
X946158Y69697D01*
X946122Y69621D01*
X946089Y69543D01*
X946061Y69464D01*
X946036Y69383D01*
X946015Y69301D01*
X945997Y69219D01*
X945984Y69135D01*
X945974Y69052D01*
X945968Y68967D01*
X945966Y68883D01*
X945968Y68799D01*
X945974Y68714D01*
X945984Y68631D01*
X945997Y68547D01*
X946015Y68465D01*
X946036Y68383D01*
X946061Y68302D01*
X946089Y68223D01*
X946122Y68145D01*
X946158Y68069D01*
X946197Y67994D01*
X946240Y67921D01*
X946286Y67850D01*
X946335Y67782D01*
X946387Y67716D01*
X946443Y67652D01*
X946501Y67591D01*
X946562Y67533D01*
X946626Y67477D01*
X946692Y67425D01*
X946760Y67376D01*
X946831Y67330D01*
X946904Y67287D01*
X946979Y67248D01*
X947055Y67212D01*
X947133Y67179D01*
X947212Y67151D01*
X947293Y67126D01*
X947375Y67105D01*
X947457Y67087D01*
X947541Y67074D01*
X947624Y67064D01*
X947709Y67058D01*
X947793Y67056D01*
X950142Y67056D01*
X950142Y71755D01*
X950140Y71832D01*
X950134Y71908D01*
X950125Y71985D01*
X950112Y72061D01*
X950095Y72136D01*
X950075Y72210D01*
X950050Y72283D01*
X950023Y72354D01*
X949992Y72425D01*
X949957Y72493D01*
X949919Y72560D01*
X949878Y72625D01*
X949834Y72688D01*
X949787Y72748D01*
X949736Y72807D01*
X949683Y72862D01*
X949628Y72915D01*
X949569Y72966D01*
X949509Y73013D01*
X949446Y73057D01*
X949381Y73098D01*
X949314Y73136D01*
X949246Y73171D01*
X949175Y73202D01*
X949104Y73229D01*
X949031Y73254D01*
X948957Y73274D01*
X948882Y73291D01*
X948806Y73304D01*
X948729Y73313D01*
X948653Y73319D01*
X948576Y73321D01*
X946487Y73321D01*
X954545Y73321D02*
X954545Y67056D01*
X954545Y73321D02*
X957156Y73321D01*
X957233Y73319D01*
X957309Y73313D01*
X957386Y73304D01*
X957462Y73291D01*
X957537Y73274D01*
X957611Y73254D01*
X957684Y73229D01*
X957755Y73202D01*
X957826Y73171D01*
X957894Y73136D01*
X957961Y73098D01*
X958026Y73057D01*
X958089Y73013D01*
X958149Y72966D01*
X958208Y72915D01*
X958263Y72862D01*
X958316Y72807D01*
X958367Y72748D01*
X958414Y72688D01*
X958458Y72625D01*
X958499Y72560D01*
X958537Y72493D01*
X958572Y72425D01*
X958603Y72354D01*
X958630Y72283D01*
X958655Y72210D01*
X958675Y72136D01*
X958692Y72061D01*
X958705Y71985D01*
X958714Y71909D01*
X958720Y71832D01*
X958722Y71755D01*
X958722Y67056D01*
X962006Y73321D02*
X965139Y73321D01*
X963050Y76454D02*
X963050Y68622D01*
X963051Y68622D02*
X963053Y68545D01*
X963059Y68469D01*
X963068Y68392D01*
X963081Y68316D01*
X963098Y68241D01*
X963118Y68167D01*
X963143Y68094D01*
X963170Y68023D01*
X963201Y67952D01*
X963236Y67884D01*
X963274Y67817D01*
X963315Y67752D01*
X963359Y67689D01*
X963406Y67629D01*
X963457Y67570D01*
X963510Y67515D01*
X963565Y67462D01*
X963624Y67411D01*
X963684Y67364D01*
X963747Y67320D01*
X963812Y67279D01*
X963879Y67241D01*
X963947Y67206D01*
X964018Y67175D01*
X964089Y67148D01*
X964162Y67123D01*
X964236Y67103D01*
X964311Y67086D01*
X964387Y67073D01*
X964464Y67064D01*
X964540Y67058D01*
X964617Y67056D01*
X965139Y67056D01*
X973966Y72277D02*
X976577Y72277D01*
X976577Y72278D02*
X976678Y72276D01*
X976779Y72270D01*
X976880Y72260D01*
X976980Y72247D01*
X977080Y72229D01*
X977179Y72208D01*
X977277Y72182D01*
X977374Y72153D01*
X977470Y72121D01*
X977564Y72084D01*
X977657Y72044D01*
X977749Y72000D01*
X977838Y71953D01*
X977926Y71902D01*
X978012Y71848D01*
X978095Y71791D01*
X978177Y71731D01*
X978255Y71667D01*
X978332Y71601D01*
X978405Y71531D01*
X978476Y71459D01*
X978544Y71384D01*
X978609Y71306D01*
X978671Y71226D01*
X978730Y71144D01*
X978786Y71059D01*
X978838Y70972D01*
X978887Y70884D01*
X978933Y70793D01*
X978974Y70701D01*
X979013Y70607D01*
X979047Y70512D01*
X979078Y70416D01*
X979105Y70318D01*
X979129Y70220D01*
X979148Y70120D01*
X979164Y70020D01*
X979176Y69920D01*
X979184Y69819D01*
X979188Y69718D01*
X979188Y69616D01*
X979184Y69515D01*
X979176Y69414D01*
X979164Y69314D01*
X979148Y69214D01*
X979129Y69114D01*
X979105Y69016D01*
X979078Y68918D01*
X979047Y68822D01*
X979013Y68727D01*
X978974Y68633D01*
X978933Y68541D01*
X978887Y68450D01*
X978838Y68361D01*
X978786Y68275D01*
X978730Y68190D01*
X978671Y68108D01*
X978609Y68028D01*
X978544Y67950D01*
X978476Y67875D01*
X978405Y67803D01*
X978332Y67733D01*
X978255Y67667D01*
X978177Y67603D01*
X978095Y67543D01*
X978012Y67486D01*
X977926Y67432D01*
X977838Y67381D01*
X977749Y67334D01*
X977657Y67290D01*
X977564Y67250D01*
X977470Y67213D01*
X977374Y67181D01*
X977277Y67152D01*
X977179Y67126D01*
X977080Y67105D01*
X976980Y67087D01*
X976880Y67074D01*
X976779Y67064D01*
X976678Y67058D01*
X976577Y67056D01*
X973966Y67056D01*
X973966Y76454D01*
X976577Y76454D01*
X976667Y76452D01*
X976756Y76446D01*
X976846Y76437D01*
X976935Y76423D01*
X977023Y76406D01*
X977110Y76385D01*
X977197Y76360D01*
X977282Y76331D01*
X977366Y76299D01*
X977448Y76264D01*
X977529Y76224D01*
X977608Y76182D01*
X977685Y76136D01*
X977760Y76086D01*
X977833Y76034D01*
X977904Y75978D01*
X977972Y75920D01*
X978037Y75858D01*
X978100Y75794D01*
X978160Y75727D01*
X978217Y75658D01*
X978271Y75586D01*
X978322Y75512D01*
X978370Y75436D01*
X978414Y75358D01*
X978455Y75278D01*
X978493Y75196D01*
X978527Y75113D01*
X978557Y75028D01*
X978584Y74942D01*
X978607Y74856D01*
X978626Y74768D01*
X978641Y74679D01*
X978653Y74590D01*
X978661Y74501D01*
X978665Y74411D01*
X978665Y74321D01*
X978661Y74231D01*
X978653Y74142D01*
X978641Y74053D01*
X978626Y73964D01*
X978607Y73876D01*
X978584Y73790D01*
X978557Y73704D01*
X978527Y73619D01*
X978493Y73536D01*
X978455Y73454D01*
X978414Y73374D01*
X978370Y73296D01*
X978322Y73220D01*
X978271Y73146D01*
X978217Y73074D01*
X978160Y73005D01*
X978100Y72938D01*
X978037Y72874D01*
X977972Y72812D01*
X977904Y72754D01*
X977833Y72698D01*
X977760Y72646D01*
X977685Y72596D01*
X977608Y72550D01*
X977529Y72508D01*
X977448Y72468D01*
X977366Y72433D01*
X977282Y72401D01*
X977197Y72372D01*
X977110Y72347D01*
X977023Y72326D01*
X976935Y72309D01*
X976846Y72295D01*
X976756Y72286D01*
X976667Y72280D01*
X976577Y72278D01*
X982542Y73321D02*
X982542Y67056D01*
X982281Y75932D02*
X982281Y76454D01*
X982803Y76454D01*
X982803Y75932D01*
X982281Y75932D01*
X986370Y76454D02*
X986370Y68622D01*
X986372Y68545D01*
X986378Y68469D01*
X986387Y68392D01*
X986400Y68316D01*
X986417Y68241D01*
X986437Y68167D01*
X986462Y68094D01*
X986489Y68023D01*
X986520Y67952D01*
X986555Y67884D01*
X986593Y67817D01*
X986634Y67752D01*
X986678Y67689D01*
X986725Y67629D01*
X986776Y67570D01*
X986829Y67515D01*
X986884Y67462D01*
X986943Y67411D01*
X987003Y67364D01*
X987066Y67320D01*
X987131Y67279D01*
X987198Y67241D01*
X987266Y67206D01*
X987337Y67175D01*
X987408Y67148D01*
X987481Y67123D01*
X987555Y67103D01*
X987630Y67086D01*
X987706Y67073D01*
X987783Y67064D01*
X987859Y67058D01*
X987936Y67056D01*
X991426Y68622D02*
X991426Y73321D01*
X991426Y68622D02*
X991428Y68545D01*
X991434Y68469D01*
X991443Y68392D01*
X991456Y68316D01*
X991473Y68241D01*
X991493Y68167D01*
X991518Y68094D01*
X991545Y68023D01*
X991576Y67952D01*
X991611Y67884D01*
X991649Y67817D01*
X991690Y67752D01*
X991734Y67689D01*
X991781Y67629D01*
X991832Y67570D01*
X991885Y67515D01*
X991940Y67462D01*
X991999Y67411D01*
X992059Y67364D01*
X992122Y67320D01*
X992187Y67279D01*
X992254Y67241D01*
X992322Y67206D01*
X992393Y67175D01*
X992464Y67148D01*
X992537Y67123D01*
X992611Y67103D01*
X992686Y67086D01*
X992762Y67073D01*
X992839Y67064D01*
X992915Y67058D01*
X992992Y67056D01*
X995603Y67056D01*
X995603Y73321D01*
X1000012Y73321D02*
X1000012Y67056D01*
X1000012Y73321D02*
X1003144Y73321D01*
X1003144Y72277D01*
X1006466Y76454D02*
X1006466Y67056D01*
X1006466Y70189D02*
X1010643Y73321D01*
X1008293Y71494D02*
X1010643Y67056D01*
X1015763Y70711D02*
X1018112Y70711D01*
X1015763Y70710D02*
X1015679Y70708D01*
X1015594Y70702D01*
X1015511Y70692D01*
X1015427Y70679D01*
X1015345Y70661D01*
X1015263Y70640D01*
X1015182Y70615D01*
X1015103Y70587D01*
X1015025Y70554D01*
X1014949Y70518D01*
X1014874Y70479D01*
X1014801Y70436D01*
X1014730Y70390D01*
X1014662Y70341D01*
X1014596Y70289D01*
X1014532Y70233D01*
X1014471Y70175D01*
X1014413Y70114D01*
X1014357Y70050D01*
X1014305Y69984D01*
X1014256Y69916D01*
X1014210Y69845D01*
X1014167Y69772D01*
X1014128Y69697D01*
X1014092Y69621D01*
X1014059Y69543D01*
X1014031Y69464D01*
X1014006Y69383D01*
X1013985Y69301D01*
X1013967Y69219D01*
X1013954Y69135D01*
X1013944Y69052D01*
X1013938Y68967D01*
X1013936Y68883D01*
X1013938Y68799D01*
X1013944Y68714D01*
X1013954Y68631D01*
X1013967Y68547D01*
X1013985Y68465D01*
X1014006Y68383D01*
X1014031Y68302D01*
X1014059Y68223D01*
X1014092Y68145D01*
X1014128Y68069D01*
X1014167Y67994D01*
X1014210Y67921D01*
X1014256Y67850D01*
X1014305Y67782D01*
X1014357Y67716D01*
X1014413Y67652D01*
X1014471Y67591D01*
X1014532Y67533D01*
X1014596Y67477D01*
X1014662Y67425D01*
X1014730Y67376D01*
X1014801Y67330D01*
X1014874Y67287D01*
X1014949Y67248D01*
X1015025Y67212D01*
X1015103Y67179D01*
X1015182Y67151D01*
X1015263Y67126D01*
X1015345Y67105D01*
X1015427Y67087D01*
X1015511Y67074D01*
X1015594Y67064D01*
X1015679Y67058D01*
X1015763Y67056D01*
X1018112Y67056D01*
X1018112Y71755D01*
X1018110Y71832D01*
X1018104Y71908D01*
X1018095Y71985D01*
X1018082Y72061D01*
X1018065Y72136D01*
X1018045Y72210D01*
X1018020Y72283D01*
X1017993Y72354D01*
X1017962Y72425D01*
X1017927Y72493D01*
X1017889Y72560D01*
X1017848Y72625D01*
X1017804Y72688D01*
X1017757Y72748D01*
X1017706Y72807D01*
X1017653Y72862D01*
X1017598Y72915D01*
X1017539Y72966D01*
X1017479Y73013D01*
X1017416Y73057D01*
X1017351Y73098D01*
X1017284Y73136D01*
X1017216Y73171D01*
X1017145Y73202D01*
X1017074Y73229D01*
X1017001Y73254D01*
X1016927Y73274D01*
X1016852Y73291D01*
X1016776Y73304D01*
X1016699Y73313D01*
X1016623Y73319D01*
X1016546Y73321D01*
X1014458Y73321D01*
X1022567Y73321D02*
X1022567Y67056D01*
X1022567Y73321D02*
X1025700Y73321D01*
X1025700Y72277D01*
D12*
X752505Y99595D02*
X337505Y99595D01*
X752505Y99595D02*
X752505Y88595D01*
X337505Y88595D01*
X337505Y99595D01*
D13*
X333397Y191988D02*
X333397Y203672D01*
X339888Y203672D02*
X333397Y196532D01*
X335993Y199128D02*
X339888Y191988D01*
X344277Y201076D02*
X347522Y203672D01*
X347522Y191988D01*
X344277Y191988D02*
X350768Y191988D01*
D12*
X157500Y126932D02*
X157500Y541932D01*
X157500Y126932D02*
X146500Y126932D01*
X146500Y541932D01*
X157500Y541932D01*
X885070Y546422D02*
X885070Y131422D01*
X885070Y546422D02*
X896070Y546422D01*
X896070Y131422D01*
X885070Y131422D01*
D13*
X792677Y127314D02*
X780993Y127314D01*
X780993Y133805D02*
X788133Y127314D01*
X785537Y129910D02*
X792677Y133805D01*
X792677Y138194D02*
X792677Y141439D01*
X792675Y141552D01*
X792669Y141665D01*
X792659Y141778D01*
X792645Y141891D01*
X792628Y142003D01*
X792606Y142114D01*
X792581Y142224D01*
X792551Y142334D01*
X792518Y142442D01*
X792481Y142549D01*
X792441Y142655D01*
X792396Y142759D01*
X792348Y142862D01*
X792297Y142963D01*
X792242Y143062D01*
X792184Y143159D01*
X792122Y143254D01*
X792057Y143347D01*
X791989Y143437D01*
X791918Y143525D01*
X791843Y143611D01*
X791766Y143694D01*
X791686Y143774D01*
X791603Y143851D01*
X791517Y143926D01*
X791429Y143997D01*
X791339Y144065D01*
X791246Y144130D01*
X791151Y144192D01*
X791054Y144250D01*
X790955Y144305D01*
X790854Y144356D01*
X790751Y144404D01*
X790647Y144449D01*
X790541Y144489D01*
X790434Y144526D01*
X790326Y144559D01*
X790216Y144589D01*
X790106Y144614D01*
X789995Y144636D01*
X789883Y144653D01*
X789770Y144667D01*
X789657Y144677D01*
X789544Y144683D01*
X789431Y144685D01*
X789318Y144683D01*
X789205Y144677D01*
X789092Y144667D01*
X788979Y144653D01*
X788867Y144636D01*
X788756Y144614D01*
X788646Y144589D01*
X788536Y144559D01*
X788428Y144526D01*
X788321Y144489D01*
X788215Y144449D01*
X788111Y144404D01*
X788008Y144356D01*
X787907Y144305D01*
X787808Y144250D01*
X787711Y144192D01*
X787616Y144130D01*
X787523Y144065D01*
X787433Y143997D01*
X787345Y143926D01*
X787259Y143851D01*
X787176Y143774D01*
X787096Y143694D01*
X787019Y143611D01*
X786944Y143525D01*
X786873Y143437D01*
X786805Y143347D01*
X786740Y143254D01*
X786678Y143159D01*
X786620Y143062D01*
X786565Y142963D01*
X786514Y142862D01*
X786466Y142759D01*
X786421Y142655D01*
X786381Y142549D01*
X786344Y142442D01*
X786311Y142334D01*
X786281Y142224D01*
X786256Y142114D01*
X786234Y142003D01*
X786217Y141891D01*
X786203Y141778D01*
X786193Y141665D01*
X786187Y141552D01*
X786185Y141439D01*
X780993Y142088D02*
X780993Y138194D01*
X780993Y142088D02*
X780995Y142189D01*
X781001Y142289D01*
X781011Y142389D01*
X781024Y142489D01*
X781042Y142588D01*
X781063Y142687D01*
X781088Y142784D01*
X781117Y142881D01*
X781150Y142976D01*
X781186Y143070D01*
X781226Y143162D01*
X781269Y143253D01*
X781316Y143342D01*
X781366Y143429D01*
X781420Y143515D01*
X781477Y143598D01*
X781537Y143678D01*
X781600Y143757D01*
X781667Y143833D01*
X781736Y143906D01*
X781808Y143976D01*
X781882Y144044D01*
X781959Y144109D01*
X782039Y144170D01*
X782121Y144229D01*
X782205Y144284D01*
X782291Y144336D01*
X782379Y144385D01*
X782469Y144430D01*
X782561Y144472D01*
X782654Y144510D01*
X782749Y144544D01*
X782844Y144575D01*
X782941Y144602D01*
X783039Y144625D01*
X783138Y144645D01*
X783238Y144660D01*
X783338Y144672D01*
X783438Y144680D01*
X783539Y144684D01*
X783639Y144684D01*
X783740Y144680D01*
X783840Y144672D01*
X783940Y144660D01*
X784040Y144645D01*
X784139Y144625D01*
X784237Y144602D01*
X784334Y144575D01*
X784429Y144544D01*
X784524Y144510D01*
X784617Y144472D01*
X784709Y144430D01*
X784799Y144385D01*
X784887Y144336D01*
X784973Y144284D01*
X785057Y144229D01*
X785139Y144170D01*
X785219Y144109D01*
X785296Y144044D01*
X785370Y143976D01*
X785442Y143906D01*
X785511Y143833D01*
X785578Y143757D01*
X785641Y143678D01*
X785701Y143598D01*
X785758Y143515D01*
X785812Y143429D01*
X785862Y143342D01*
X785909Y143253D01*
X785952Y143162D01*
X785992Y143070D01*
X786028Y142976D01*
X786061Y142881D01*
X786090Y142784D01*
X786115Y142687D01*
X786136Y142588D01*
X786154Y142489D01*
X786167Y142389D01*
X786177Y142289D01*
X786183Y142189D01*
X786185Y142088D01*
X786186Y142088D02*
X786186Y139492D01*
D14*
X373714Y355770D02*
X316214Y355770D01*
X316214Y281770D01*
X373714Y281770D01*
X373714Y355770D01*
D15*
X373139Y305770D02*
X368139Y305770D01*
X368139Y331770D02*
X373139Y331770D01*
X368139Y331770D02*
X368139Y305770D01*
D13*
X361395Y275712D02*
X355299Y266568D01*
X361395Y266568D02*
X355299Y275712D01*
X364951Y273680D02*
X367491Y275712D01*
X367491Y266568D01*
X364951Y266568D02*
X370031Y266568D01*
M02*
