G04 EAGLE Gerber RS-274X export*
G75*
%MOMM*%
%FSLAX34Y34*%
%LPD*%
%INSoldermask Bottom*%
%IPPOS*%
%AMOC8*
5,1,8,0,0,1.08239X$1,22.5*%
G01*
%ADD10C,3.203194*%
%ADD11C,0.406400*%
%ADD12C,1.727200*%
%ADD13C,0.959600*%


D10*
X101600Y536866D03*
X1011025Y536866D03*
X1011025Y136866D03*
X101600Y136866D03*
X276566Y509941D03*
X276696Y160061D03*
X476596Y335071D03*
D11*
X1033018Y219202D02*
X1033272Y199644D01*
X1033272Y198882D01*
X1033270Y198698D01*
X1033263Y198514D01*
X1033252Y198330D01*
X1033236Y198147D01*
X1033216Y197964D01*
X1033192Y197781D01*
X1033163Y197599D01*
X1033130Y197418D01*
X1033092Y197238D01*
X1033051Y197058D01*
X1033004Y196880D01*
X1032954Y196703D01*
X1032899Y196527D01*
X1032840Y196353D01*
X1032777Y196180D01*
X1032709Y196009D01*
X1032638Y195839D01*
X1032562Y195671D01*
X1032483Y195505D01*
X1032399Y195341D01*
X1032312Y195179D01*
X1032220Y195019D01*
X1032125Y194861D01*
X1032026Y194706D01*
X1031923Y194553D01*
X1031817Y194403D01*
X1031707Y194255D01*
X1031593Y194110D01*
X1031476Y193968D01*
X1031356Y193829D01*
X1031232Y193693D01*
X1031105Y193559D01*
X1030975Y193429D01*
X1030841Y193302D01*
X1030705Y193178D01*
X1030566Y193058D01*
X1030424Y192941D01*
X1030279Y192827D01*
X1030131Y192717D01*
X1029981Y192611D01*
X1029828Y192508D01*
X1029673Y192409D01*
X1029515Y192314D01*
X1029355Y192222D01*
X1029193Y192135D01*
X1029029Y192051D01*
X1028863Y191972D01*
X1028695Y191896D01*
X1028525Y191825D01*
X1028354Y191757D01*
X1028181Y191694D01*
X1028007Y191635D01*
X1027831Y191580D01*
X1027654Y191530D01*
X1027476Y191483D01*
X1027296Y191442D01*
X1027116Y191404D01*
X1026935Y191371D01*
X1026753Y191342D01*
X1026570Y191318D01*
X1026387Y191298D01*
X1026204Y191282D01*
X1026020Y191271D01*
X1025836Y191264D01*
X1025652Y191262D01*
X1004316Y191262D01*
X1014730Y193548D02*
X1014730Y219202D01*
X1033272Y232410D02*
X1033272Y251968D01*
X1033272Y232410D02*
X1033270Y232213D01*
X1033262Y232015D01*
X1033250Y231819D01*
X1033234Y231622D01*
X1033212Y231426D01*
X1033186Y231230D01*
X1033155Y231035D01*
X1033119Y230841D01*
X1033079Y230648D01*
X1033034Y230456D01*
X1032984Y230265D01*
X1032930Y230075D01*
X1032871Y229887D01*
X1032807Y229700D01*
X1032739Y229515D01*
X1032667Y229331D01*
X1032590Y229150D01*
X1032509Y228970D01*
X1032423Y228792D01*
X1032333Y228616D01*
X1032239Y228443D01*
X1032140Y228272D01*
X1032038Y228103D01*
X1031931Y227937D01*
X1031821Y227774D01*
X1031706Y227613D01*
X1031588Y227455D01*
X1031466Y227300D01*
X1031340Y227148D01*
X1031211Y226999D01*
X1031078Y226854D01*
X1030941Y226711D01*
X1030801Y226572D01*
X1030658Y226436D01*
X1030511Y226304D01*
X1030361Y226176D01*
X1030209Y226051D01*
X1030053Y225930D01*
X1029894Y225812D01*
X1029733Y225699D01*
X1029569Y225590D01*
X1029402Y225484D01*
X1029232Y225383D01*
X1029061Y225286D01*
X1028887Y225193D01*
X1028710Y225104D01*
X1028532Y225019D01*
X1028352Y224939D01*
X1028170Y224863D01*
X1027986Y224792D01*
X1027800Y224725D01*
X1027613Y224663D01*
X1027424Y224605D01*
X1027234Y224552D01*
X1027043Y224504D01*
X1026850Y224460D01*
X1026657Y224421D01*
X1026463Y224386D01*
X1026267Y224357D01*
X1026072Y224332D01*
X1025875Y224311D01*
X1025679Y224296D01*
X1025482Y224285D01*
X1025284Y224279D01*
X1025087Y224278D01*
X1024890Y224282D01*
X1004316Y224028D01*
X1033018Y258318D02*
X1033018Y278638D01*
X1033016Y278837D01*
X1033008Y279035D01*
X1032996Y279233D01*
X1032979Y279431D01*
X1032957Y279629D01*
X1032931Y279826D01*
X1032899Y280022D01*
X1032863Y280217D01*
X1032822Y280412D01*
X1032777Y280605D01*
X1032726Y280797D01*
X1032671Y280988D01*
X1032611Y281177D01*
X1032547Y281365D01*
X1032478Y281552D01*
X1032405Y281736D01*
X1032327Y281919D01*
X1032244Y282100D01*
X1032158Y282278D01*
X1032067Y282455D01*
X1031971Y282629D01*
X1031872Y282801D01*
X1031768Y282971D01*
X1031660Y283137D01*
X1031548Y283301D01*
X1031432Y283463D01*
X1031312Y283621D01*
X1031189Y283777D01*
X1031061Y283929D01*
X1030930Y284078D01*
X1030795Y284224D01*
X1030657Y284367D01*
X1030516Y284506D01*
X1030370Y284642D01*
X1030222Y284774D01*
X1030071Y284903D01*
X1029916Y285028D01*
X1029759Y285149D01*
X1029598Y285266D01*
X1029435Y285379D01*
X1029269Y285488D01*
X1029100Y285593D01*
X1028929Y285694D01*
X1028755Y285790D01*
X1028580Y285883D01*
X1028401Y285971D01*
X1028221Y286055D01*
X1028039Y286134D01*
X1027855Y286209D01*
X1027669Y286279D01*
X1027482Y286345D01*
X1027293Y286406D01*
X1027102Y286462D01*
X1026911Y286514D01*
X1026718Y286561D01*
X1026523Y286603D01*
X1026328Y286641D01*
X1026133Y286674D01*
X1025936Y286702D01*
X1025739Y286725D01*
X1025541Y286744D01*
X1025343Y286757D01*
X1025144Y286766D01*
X1004062Y286512D01*
X1005078Y277622D02*
X1005078Y263398D01*
X1005081Y263183D01*
X1005088Y262967D01*
X1005101Y262752D01*
X1005120Y262537D01*
X1005143Y262323D01*
X1005172Y262110D01*
X1005206Y261897D01*
X1005245Y261685D01*
X1005289Y261474D01*
X1005338Y261264D01*
X1005392Y261056D01*
X1005451Y260849D01*
X1005515Y260643D01*
X1005585Y260439D01*
X1005659Y260237D01*
X1005738Y260036D01*
X1005822Y259838D01*
X1005910Y259641D01*
X1006004Y259447D01*
X1006102Y259255D01*
X1006204Y259066D01*
X1006312Y258879D01*
X1006423Y258695D01*
X1006540Y258513D01*
X1006660Y258335D01*
X1006785Y258159D01*
X1006914Y257986D01*
X1007047Y257817D01*
X1007184Y257651D01*
X1007325Y257488D01*
X1007471Y257329D01*
X1007620Y257173D01*
X1007772Y257021D01*
X1007928Y256873D01*
X1008088Y256728D01*
X1008252Y256588D01*
X1008418Y256451D01*
X1008588Y256319D01*
X1008761Y256190D01*
X1008937Y256066D01*
X1009116Y255946D01*
X1009298Y255831D01*
X1009483Y255720D01*
X1009670Y255613D01*
X1009860Y255512D01*
X1010053Y255414D01*
X1010247Y255322D01*
X1010444Y255234D01*
X1010643Y255151D01*
X1010843Y255072D01*
X1011046Y254999D01*
X1011250Y254931D01*
X1011456Y254867D01*
X1011664Y254809D01*
X1011872Y254755D01*
X1012082Y254707D01*
X1012293Y254664D01*
X1012505Y254626D01*
X1012718Y254593D01*
X1012932Y254565D01*
X1013146Y254542D01*
X1013361Y254525D01*
X1013576Y254513D01*
X1013792Y254506D01*
X1014007Y254504D01*
X1014222Y254508D01*
X1014467Y254518D01*
X1014711Y254534D01*
X1014954Y254555D01*
X1015197Y254583D01*
X1015439Y254617D01*
X1015680Y254656D01*
X1015921Y254702D01*
X1016160Y254753D01*
X1016397Y254810D01*
X1016634Y254873D01*
X1016868Y254941D01*
X1017101Y255015D01*
X1017332Y255095D01*
X1017561Y255181D01*
X1017788Y255272D01*
X1018013Y255368D01*
X1018235Y255470D01*
X1018454Y255578D01*
X1018671Y255690D01*
X1018885Y255808D01*
X1019097Y255932D01*
X1019305Y256060D01*
X1019510Y256193D01*
X1019711Y256331D01*
X1019909Y256474D01*
X1020104Y256622D01*
X1020295Y256775D01*
X1020482Y256932D01*
X1020665Y257094D01*
X1020845Y257260D01*
X1021020Y257431D01*
X1021191Y257605D01*
X1021358Y257784D01*
X1021520Y257967D01*
X1021678Y258154D01*
X1021831Y258344D01*
X1021979Y258538D01*
X1022123Y258736D01*
X1022262Y258937D01*
X1022396Y259142D01*
X1022525Y259350D01*
X1022648Y259560D01*
X1022767Y259774D01*
X1022880Y259991D01*
X1022988Y260210D01*
X1023091Y260432D01*
X1023188Y260656D01*
X1023280Y260883D01*
X1023366Y261112D01*
X1023366Y284734D01*
X1033272Y303276D02*
X1033272Y325628D01*
X1033272Y303276D02*
X1033270Y303083D01*
X1033263Y302889D01*
X1033251Y302696D01*
X1033234Y302504D01*
X1033213Y302311D01*
X1033187Y302120D01*
X1033156Y301929D01*
X1033121Y301739D01*
X1033081Y301549D01*
X1033037Y301361D01*
X1032988Y301174D01*
X1032934Y300988D01*
X1032876Y300804D01*
X1032813Y300621D01*
X1032746Y300440D01*
X1032674Y300260D01*
X1032598Y300082D01*
X1032518Y299906D01*
X1032434Y299732D01*
X1032345Y299560D01*
X1032252Y299391D01*
X1032155Y299224D01*
X1032054Y299059D01*
X1031948Y298896D01*
X1031839Y298737D01*
X1031726Y298580D01*
X1031610Y298425D01*
X1031489Y298274D01*
X1031365Y298126D01*
X1031237Y297981D01*
X1031106Y297839D01*
X1030971Y297700D01*
X1030833Y297564D01*
X1030692Y297432D01*
X1030548Y297304D01*
X1030400Y297179D01*
X1030249Y297057D01*
X1030096Y296940D01*
X1029939Y296826D01*
X1029780Y296716D01*
X1029619Y296610D01*
X1029454Y296508D01*
X1029288Y296410D01*
X1029119Y296316D01*
X1028947Y296226D01*
X1028774Y296141D01*
X1028598Y296060D01*
X1028421Y295983D01*
X1028242Y295910D01*
X1028061Y295842D01*
X1027878Y295778D01*
X1027694Y295719D01*
X1027508Y295664D01*
X1027322Y295614D01*
X1027134Y295569D01*
X1026945Y295528D01*
X1026755Y295491D01*
X1026564Y295460D01*
X1026372Y295433D01*
X1026180Y295410D01*
X1025988Y295393D01*
X1025795Y295380D01*
X1025602Y295372D01*
X1025408Y295368D01*
X1025215Y295369D01*
X1025021Y295375D01*
X1024828Y295386D01*
X1024636Y295402D01*
X1013206Y295656D01*
X1013001Y295663D01*
X1012796Y295675D01*
X1012591Y295692D01*
X1012387Y295714D01*
X1012183Y295741D01*
X1011981Y295773D01*
X1011779Y295809D01*
X1011578Y295851D01*
X1011378Y295898D01*
X1011179Y295949D01*
X1010981Y296005D01*
X1010785Y296066D01*
X1010591Y296131D01*
X1010398Y296202D01*
X1010207Y296277D01*
X1010017Y296356D01*
X1009830Y296440D01*
X1009645Y296529D01*
X1009462Y296622D01*
X1009281Y296719D01*
X1009103Y296821D01*
X1008927Y296927D01*
X1008754Y297038D01*
X1008584Y297152D01*
X1008416Y297271D01*
X1008251Y297394D01*
X1008090Y297520D01*
X1007931Y297651D01*
X1007776Y297785D01*
X1007624Y297923D01*
X1007475Y298065D01*
X1007330Y298210D01*
X1007189Y298359D01*
X1007051Y298511D01*
X1006917Y298666D01*
X1006786Y298825D01*
X1006660Y298986D01*
X1006537Y299151D01*
X1006419Y299319D01*
X1006304Y299489D01*
X1006194Y299662D01*
X1006088Y299838D01*
X1005986Y300016D01*
X1005889Y300197D01*
X1005796Y300380D01*
X1005707Y300565D01*
X1005623Y300753D01*
X1005544Y300942D01*
X1005469Y301133D01*
X1005399Y301326D01*
X1005333Y301521D01*
X1005272Y301717D01*
X1005217Y301914D01*
X1005165Y302113D01*
X1005119Y302313D01*
X1005078Y302514D01*
X1004824Y325628D01*
X1018032Y335280D02*
X1034288Y335280D01*
X1018032Y335280D02*
X1004062Y335280D01*
X1018032Y335280D02*
X1033272Y367284D01*
X1004570Y367284D02*
X1019048Y338074D01*
X1032764Y374904D02*
X1032764Y410464D01*
X1033018Y392938D02*
X1004316Y392938D01*
X1033018Y416814D02*
X1033018Y437134D01*
X1033016Y437333D01*
X1033008Y437531D01*
X1032996Y437729D01*
X1032979Y437927D01*
X1032957Y438125D01*
X1032931Y438322D01*
X1032899Y438518D01*
X1032863Y438713D01*
X1032822Y438908D01*
X1032777Y439101D01*
X1032726Y439293D01*
X1032671Y439484D01*
X1032611Y439673D01*
X1032547Y439861D01*
X1032478Y440048D01*
X1032405Y440232D01*
X1032327Y440415D01*
X1032244Y440596D01*
X1032158Y440774D01*
X1032067Y440951D01*
X1031971Y441125D01*
X1031872Y441297D01*
X1031768Y441467D01*
X1031660Y441633D01*
X1031548Y441797D01*
X1031432Y441959D01*
X1031312Y442117D01*
X1031189Y442273D01*
X1031061Y442425D01*
X1030930Y442574D01*
X1030795Y442720D01*
X1030657Y442863D01*
X1030516Y443002D01*
X1030370Y443138D01*
X1030222Y443270D01*
X1030071Y443399D01*
X1029916Y443524D01*
X1029759Y443645D01*
X1029598Y443762D01*
X1029435Y443875D01*
X1029269Y443984D01*
X1029100Y444089D01*
X1028929Y444190D01*
X1028755Y444286D01*
X1028580Y444379D01*
X1028401Y444467D01*
X1028221Y444551D01*
X1028039Y444630D01*
X1027855Y444705D01*
X1027669Y444775D01*
X1027482Y444841D01*
X1027293Y444902D01*
X1027102Y444958D01*
X1026911Y445010D01*
X1026718Y445057D01*
X1026523Y445099D01*
X1026328Y445137D01*
X1026133Y445170D01*
X1025936Y445198D01*
X1025739Y445221D01*
X1025541Y445240D01*
X1025343Y445253D01*
X1025144Y445262D01*
X1004062Y445008D01*
X1005078Y436118D02*
X1005078Y421894D01*
X1005081Y421679D01*
X1005088Y421463D01*
X1005101Y421248D01*
X1005120Y421033D01*
X1005143Y420819D01*
X1005172Y420606D01*
X1005206Y420393D01*
X1005245Y420181D01*
X1005289Y419970D01*
X1005338Y419760D01*
X1005392Y419552D01*
X1005451Y419345D01*
X1005515Y419139D01*
X1005585Y418935D01*
X1005659Y418733D01*
X1005738Y418532D01*
X1005822Y418334D01*
X1005910Y418137D01*
X1006004Y417943D01*
X1006102Y417751D01*
X1006204Y417562D01*
X1006312Y417375D01*
X1006423Y417191D01*
X1006540Y417009D01*
X1006660Y416831D01*
X1006785Y416655D01*
X1006914Y416482D01*
X1007047Y416313D01*
X1007184Y416147D01*
X1007325Y415984D01*
X1007471Y415825D01*
X1007620Y415669D01*
X1007772Y415517D01*
X1007928Y415369D01*
X1008088Y415224D01*
X1008252Y415084D01*
X1008418Y414947D01*
X1008588Y414815D01*
X1008761Y414686D01*
X1008937Y414562D01*
X1009116Y414442D01*
X1009298Y414327D01*
X1009483Y414216D01*
X1009670Y414109D01*
X1009860Y414008D01*
X1010053Y413910D01*
X1010247Y413818D01*
X1010444Y413730D01*
X1010643Y413647D01*
X1010843Y413568D01*
X1011046Y413495D01*
X1011250Y413427D01*
X1011456Y413363D01*
X1011664Y413305D01*
X1011872Y413251D01*
X1012082Y413203D01*
X1012293Y413160D01*
X1012505Y413122D01*
X1012718Y413089D01*
X1012932Y413061D01*
X1013146Y413038D01*
X1013361Y413021D01*
X1013576Y413009D01*
X1013792Y413002D01*
X1014007Y413000D01*
X1014222Y413004D01*
X1014467Y413014D01*
X1014711Y413030D01*
X1014954Y413051D01*
X1015197Y413079D01*
X1015439Y413113D01*
X1015680Y413152D01*
X1015921Y413198D01*
X1016160Y413249D01*
X1016397Y413306D01*
X1016634Y413369D01*
X1016868Y413437D01*
X1017101Y413511D01*
X1017332Y413591D01*
X1017561Y413677D01*
X1017788Y413768D01*
X1018013Y413864D01*
X1018235Y413966D01*
X1018454Y414074D01*
X1018671Y414186D01*
X1018885Y414304D01*
X1019097Y414428D01*
X1019305Y414556D01*
X1019510Y414689D01*
X1019711Y414827D01*
X1019909Y414970D01*
X1020104Y415118D01*
X1020295Y415271D01*
X1020482Y415428D01*
X1020665Y415590D01*
X1020845Y415756D01*
X1021020Y415927D01*
X1021191Y416101D01*
X1021358Y416280D01*
X1021520Y416463D01*
X1021678Y416650D01*
X1021831Y416840D01*
X1021979Y417034D01*
X1022123Y417232D01*
X1022262Y417433D01*
X1022396Y417638D01*
X1022525Y417846D01*
X1022648Y418056D01*
X1022767Y418270D01*
X1022880Y418487D01*
X1022988Y418706D01*
X1023091Y418928D01*
X1023188Y419152D01*
X1023280Y419379D01*
X1023366Y419608D01*
X1023366Y443230D01*
X1013206Y456692D02*
X1034542Y456692D01*
X1013206Y456692D02*
X1013006Y456694D01*
X1012805Y456702D01*
X1012605Y456714D01*
X1012406Y456731D01*
X1012206Y456753D01*
X1012008Y456780D01*
X1011810Y456812D01*
X1011613Y456849D01*
X1011417Y456890D01*
X1011222Y456937D01*
X1011028Y456988D01*
X1010835Y457044D01*
X1010644Y457104D01*
X1010455Y457169D01*
X1010267Y457239D01*
X1010081Y457314D01*
X1009897Y457393D01*
X1009714Y457476D01*
X1009534Y457564D01*
X1009356Y457656D01*
X1009181Y457753D01*
X1009008Y457854D01*
X1008837Y457959D01*
X1008669Y458068D01*
X1008504Y458182D01*
X1008341Y458299D01*
X1008182Y458420D01*
X1008025Y458546D01*
X1007872Y458675D01*
X1007722Y458807D01*
X1007575Y458944D01*
X1007431Y459084D01*
X1007291Y459227D01*
X1007155Y459374D01*
X1007022Y459524D01*
X1006893Y459678D01*
X1006768Y459834D01*
X1006647Y459993D01*
X1006529Y460156D01*
X1006416Y460321D01*
X1006306Y460489D01*
X1006201Y460660D01*
X1006100Y460833D01*
X1006004Y461009D01*
X1005911Y461186D01*
X1005823Y461367D01*
X1005740Y461549D01*
X1005661Y461733D01*
X1005587Y461919D01*
X1005517Y462107D01*
X1005451Y462296D01*
X1005391Y462488D01*
X1005335Y462680D01*
X1005284Y462874D01*
X1005238Y463069D01*
X1005196Y463265D01*
X1005159Y463462D01*
X1005128Y463660D01*
X1005101Y463858D01*
X1005078Y464058D01*
X1004824Y484886D01*
D12*
X357759Y331470D02*
X342519Y331470D01*
X342519Y306070D02*
X357759Y306070D01*
D13*
X207010Y559590D03*
X191770Y431800D03*
X251460Y441960D03*
X251460Y373380D03*
X467360Y181610D03*
X582930Y248920D03*
X170180Y302966D03*
X467360Y55146D03*
X911058Y361482D03*
X605790Y361950D03*
X480060Y191770D03*
X160020Y302260D03*
X158750Y50800D03*
X459006Y112494D03*
X478056Y112494D03*
X896620Y513080D03*
X896620Y446558D03*
X727075Y546100D03*
X908050Y446558D03*
X908050Y519430D03*
X566420Y104140D03*
X577850Y231775D03*
X809244Y321056D03*
X638810Y281940D03*
X704850Y317500D03*
X293370Y321310D03*
X435610Y463550D03*
X812800Y302260D03*
X701040Y302260D03*
X236220Y302260D03*
X401320Y452120D03*
X514350Y431456D03*
X514350Y229334D03*
X519331Y172720D03*
X617505Y171450D03*
X800100Y292100D03*
X688340Y261620D03*
X866140Y295275D03*
X539115Y423545D03*
X232946Y292100D03*
X407862Y423102D03*
X637540Y97790D03*
X193040Y245110D03*
X264160Y280670D03*
X264160Y313578D03*
X294640Y450850D03*
X378460Y480060D03*
X647700Y97790D03*
X184150Y266700D03*
X131854Y448310D03*
X131854Y495526D03*
X657296Y97254D03*
X195388Y105218D03*
X930910Y496286D03*
X850900Y496286D03*
X668020Y97790D03*
X185420Y114300D03*
X212090Y142240D03*
X229870Y227330D03*
X666750Y173990D03*
X894080Y179070D03*
X847884Y320040D03*
X855237Y369979D03*
X855934Y416913D03*
X849503Y251968D03*
X749300Y228600D03*
X749300Y261620D03*
X850900Y272415D03*
X574294Y427736D03*
X852551Y211455D03*
X784225Y187325D03*
X783590Y226060D03*
X849503Y231267D03*
X588010Y132080D03*
X388620Y185420D03*
X147546Y445770D03*
X148590Y334010D03*
X190692Y332548D03*
X219710Y542064D03*
X402590Y544830D03*
X920750Y519430D03*
X920750Y384175D03*
M02*
