G04 EAGLE Gerber RS-274X export*
G75*
%MOMM*%
%FSLAX34Y34*%
%LPD*%
%INSoldermask Top*%
%IPPOS*%
%AMOC8*
5,1,8,0,0,1.08239X$1,22.5*%
G01*
%ADD10C,3.203194*%
%ADD11R,0.803200X2.403200*%
%ADD12R,2.003200X2.803200*%
%ADD13R,2.403200X0.803200*%
%ADD14R,2.803200X2.003200*%
%ADD15C,0.762000*%
%ADD16C,0.406400*%
%ADD17C,1.727200*%
%ADD18C,0.959600*%


D10*
X101600Y536866D03*
X1011025Y536866D03*
X1011025Y136866D03*
X101600Y136866D03*
X276566Y509941D03*
X276696Y160061D03*
X476596Y335071D03*
D11*
X417505Y153595D03*
X407505Y153595D03*
X427505Y153595D03*
X397505Y153595D03*
D12*
X733505Y129595D03*
X351505Y129595D03*
D11*
X387505Y153595D03*
X377505Y153595D03*
X437505Y153595D03*
X447505Y153595D03*
X457505Y153595D03*
X467505Y153595D03*
X477505Y153595D03*
X487505Y153595D03*
X497505Y153595D03*
X507505Y153595D03*
X517505Y153595D03*
X527505Y153595D03*
X537505Y153595D03*
X547505Y153595D03*
X557505Y153595D03*
X567505Y153595D03*
X577505Y153595D03*
X587505Y153595D03*
X597505Y153595D03*
X607505Y153595D03*
X617505Y153595D03*
X627505Y153595D03*
X637505Y153595D03*
X647505Y153595D03*
X657505Y153595D03*
X667505Y153595D03*
X677505Y153595D03*
X687505Y153595D03*
X697505Y153595D03*
X707505Y153595D03*
D13*
X211500Y461932D03*
X211500Y471932D03*
X211500Y451932D03*
X211500Y481932D03*
D14*
X187500Y145932D03*
X187500Y527932D03*
D13*
X211500Y491932D03*
X211500Y501932D03*
X211500Y441932D03*
X211500Y431932D03*
X211500Y421932D03*
X211500Y411932D03*
X211500Y401932D03*
X211500Y391932D03*
X211500Y381932D03*
X211500Y371932D03*
X211500Y361932D03*
X211500Y351932D03*
X211500Y341932D03*
X211500Y331932D03*
X211500Y321932D03*
X211500Y311932D03*
X211500Y301932D03*
X211500Y291932D03*
X211500Y281932D03*
X211500Y271932D03*
X211500Y261932D03*
X211500Y251932D03*
X211500Y241932D03*
X211500Y231932D03*
X211500Y221932D03*
X211500Y211932D03*
X211500Y201932D03*
X211500Y191932D03*
X211500Y181932D03*
X211500Y171932D03*
X831070Y211422D03*
X831070Y201422D03*
X831070Y221422D03*
X831070Y191422D03*
D14*
X855070Y527422D03*
X855070Y145422D03*
D13*
X831070Y181422D03*
X831070Y171422D03*
X831070Y231422D03*
X831070Y241422D03*
X831070Y251422D03*
X831070Y261422D03*
X831070Y271422D03*
X831070Y281422D03*
X831070Y291422D03*
X831070Y301422D03*
X831070Y311422D03*
X831070Y321422D03*
X831070Y331422D03*
X831070Y341422D03*
X831070Y351422D03*
X831070Y361422D03*
X831070Y371422D03*
X831070Y381422D03*
X831070Y391422D03*
X831070Y401422D03*
X831070Y411422D03*
X831070Y421422D03*
X831070Y431422D03*
X831070Y441422D03*
X831070Y451422D03*
X831070Y461422D03*
X831070Y471422D03*
X831070Y481422D03*
X831070Y491422D03*
X831070Y501422D03*
D15*
X398145Y558800D03*
X433070Y558800D03*
X603250Y558800D03*
X565150Y558800D03*
X480695Y558800D03*
X457200Y501650D03*
X504825Y501650D03*
X542925Y501650D03*
X528320Y558800D03*
X676275Y558800D03*
X714375Y558800D03*
X762000Y558800D03*
X403225Y501650D03*
X576580Y501650D03*
X610235Y501650D03*
X645160Y501650D03*
X686435Y501650D03*
X722630Y501650D03*
X758825Y501650D03*
X353695Y501650D03*
X360045Y558800D03*
X641350Y558800D03*
D16*
X934847Y182372D02*
X934593Y162814D01*
X934593Y162052D01*
X934595Y161868D01*
X934602Y161684D01*
X934613Y161500D01*
X934629Y161317D01*
X934649Y161134D01*
X934673Y160951D01*
X934702Y160769D01*
X934735Y160588D01*
X934773Y160408D01*
X934814Y160228D01*
X934861Y160050D01*
X934911Y159873D01*
X934966Y159697D01*
X935025Y159523D01*
X935088Y159350D01*
X935156Y159179D01*
X935227Y159009D01*
X935303Y158841D01*
X935382Y158675D01*
X935466Y158511D01*
X935553Y158349D01*
X935645Y158189D01*
X935740Y158031D01*
X935839Y157876D01*
X935942Y157723D01*
X936048Y157573D01*
X936158Y157425D01*
X936272Y157280D01*
X936389Y157138D01*
X936509Y156999D01*
X936633Y156863D01*
X936760Y156729D01*
X936890Y156599D01*
X937024Y156472D01*
X937160Y156348D01*
X937299Y156228D01*
X937441Y156111D01*
X937586Y155997D01*
X937734Y155887D01*
X937884Y155781D01*
X938037Y155678D01*
X938192Y155579D01*
X938350Y155484D01*
X938510Y155392D01*
X938672Y155305D01*
X938836Y155221D01*
X939002Y155142D01*
X939170Y155066D01*
X939340Y154995D01*
X939511Y154927D01*
X939684Y154864D01*
X939858Y154805D01*
X940034Y154750D01*
X940211Y154700D01*
X940389Y154653D01*
X940569Y154612D01*
X940749Y154574D01*
X940930Y154541D01*
X941112Y154512D01*
X941295Y154488D01*
X941478Y154468D01*
X941661Y154452D01*
X941845Y154441D01*
X942029Y154434D01*
X942213Y154432D01*
X963549Y154432D01*
X953135Y156718D02*
X953135Y182372D01*
X934593Y195580D02*
X934593Y215138D01*
X934593Y195580D02*
X934595Y195383D01*
X934603Y195185D01*
X934615Y194989D01*
X934631Y194792D01*
X934653Y194596D01*
X934679Y194400D01*
X934710Y194205D01*
X934746Y194011D01*
X934786Y193818D01*
X934831Y193626D01*
X934881Y193435D01*
X934935Y193245D01*
X934994Y193057D01*
X935058Y192870D01*
X935126Y192685D01*
X935198Y192501D01*
X935275Y192320D01*
X935356Y192140D01*
X935442Y191962D01*
X935532Y191786D01*
X935626Y191613D01*
X935725Y191442D01*
X935827Y191273D01*
X935934Y191107D01*
X936044Y190944D01*
X936159Y190783D01*
X936277Y190625D01*
X936399Y190470D01*
X936525Y190318D01*
X936654Y190169D01*
X936787Y190024D01*
X936924Y189881D01*
X937064Y189742D01*
X937207Y189606D01*
X937354Y189474D01*
X937504Y189346D01*
X937656Y189221D01*
X937812Y189100D01*
X937971Y188982D01*
X938132Y188869D01*
X938296Y188760D01*
X938463Y188654D01*
X938633Y188553D01*
X938804Y188456D01*
X938978Y188363D01*
X939155Y188274D01*
X939333Y188189D01*
X939513Y188109D01*
X939695Y188033D01*
X939879Y187962D01*
X940065Y187895D01*
X940252Y187833D01*
X940441Y187775D01*
X940631Y187722D01*
X940822Y187674D01*
X941015Y187630D01*
X941208Y187591D01*
X941402Y187556D01*
X941598Y187527D01*
X941793Y187502D01*
X941990Y187481D01*
X942186Y187466D01*
X942383Y187455D01*
X942581Y187449D01*
X942778Y187448D01*
X942975Y187452D01*
X963549Y187198D01*
X934847Y221488D02*
X934847Y241808D01*
X934849Y242007D01*
X934857Y242205D01*
X934869Y242403D01*
X934886Y242601D01*
X934908Y242799D01*
X934934Y242996D01*
X934966Y243192D01*
X935002Y243387D01*
X935043Y243582D01*
X935088Y243775D01*
X935139Y243967D01*
X935194Y244158D01*
X935254Y244347D01*
X935318Y244535D01*
X935387Y244722D01*
X935460Y244906D01*
X935538Y245089D01*
X935621Y245270D01*
X935707Y245448D01*
X935798Y245625D01*
X935894Y245799D01*
X935993Y245971D01*
X936097Y246141D01*
X936205Y246307D01*
X936317Y246471D01*
X936433Y246633D01*
X936553Y246791D01*
X936676Y246947D01*
X936804Y247099D01*
X936935Y247248D01*
X937070Y247394D01*
X937208Y247537D01*
X937349Y247676D01*
X937495Y247812D01*
X937643Y247944D01*
X937794Y248073D01*
X937949Y248198D01*
X938106Y248319D01*
X938267Y248436D01*
X938430Y248549D01*
X938596Y248658D01*
X938765Y248763D01*
X938936Y248864D01*
X939110Y248960D01*
X939285Y249053D01*
X939464Y249141D01*
X939644Y249225D01*
X939826Y249304D01*
X940010Y249379D01*
X940196Y249449D01*
X940383Y249515D01*
X940572Y249576D01*
X940763Y249632D01*
X940954Y249684D01*
X941147Y249731D01*
X941342Y249773D01*
X941537Y249811D01*
X941732Y249844D01*
X941929Y249872D01*
X942126Y249895D01*
X942324Y249914D01*
X942522Y249927D01*
X942721Y249936D01*
X963803Y249682D01*
X962787Y240792D02*
X962787Y226568D01*
X962784Y226353D01*
X962777Y226137D01*
X962764Y225922D01*
X962745Y225707D01*
X962722Y225493D01*
X962693Y225280D01*
X962659Y225067D01*
X962620Y224855D01*
X962576Y224644D01*
X962527Y224434D01*
X962473Y224226D01*
X962414Y224019D01*
X962350Y223813D01*
X962280Y223609D01*
X962206Y223407D01*
X962127Y223206D01*
X962043Y223008D01*
X961955Y222811D01*
X961861Y222617D01*
X961763Y222425D01*
X961661Y222236D01*
X961553Y222049D01*
X961442Y221865D01*
X961325Y221683D01*
X961205Y221505D01*
X961080Y221329D01*
X960951Y221156D01*
X960818Y220987D01*
X960681Y220821D01*
X960540Y220658D01*
X960394Y220499D01*
X960245Y220343D01*
X960093Y220191D01*
X959937Y220043D01*
X959777Y219898D01*
X959613Y219758D01*
X959447Y219621D01*
X959277Y219489D01*
X959104Y219360D01*
X958928Y219236D01*
X958749Y219116D01*
X958567Y219001D01*
X958382Y218890D01*
X958195Y218783D01*
X958005Y218682D01*
X957812Y218584D01*
X957618Y218492D01*
X957421Y218404D01*
X957222Y218321D01*
X957022Y218242D01*
X956819Y218169D01*
X956615Y218101D01*
X956409Y218037D01*
X956201Y217979D01*
X955993Y217925D01*
X955783Y217877D01*
X955572Y217834D01*
X955360Y217796D01*
X955147Y217763D01*
X954933Y217735D01*
X954719Y217712D01*
X954504Y217695D01*
X954289Y217683D01*
X954073Y217676D01*
X953858Y217674D01*
X953643Y217678D01*
X953398Y217688D01*
X953154Y217704D01*
X952911Y217725D01*
X952668Y217753D01*
X952426Y217787D01*
X952185Y217826D01*
X951944Y217872D01*
X951705Y217923D01*
X951468Y217980D01*
X951231Y218043D01*
X950997Y218111D01*
X950764Y218185D01*
X950533Y218265D01*
X950304Y218351D01*
X950077Y218442D01*
X949852Y218538D01*
X949630Y218640D01*
X949411Y218748D01*
X949194Y218860D01*
X948980Y218978D01*
X948768Y219102D01*
X948560Y219230D01*
X948355Y219363D01*
X948154Y219501D01*
X947956Y219644D01*
X947761Y219792D01*
X947570Y219945D01*
X947383Y220102D01*
X947200Y220264D01*
X947020Y220430D01*
X946845Y220601D01*
X946674Y220775D01*
X946507Y220954D01*
X946345Y221137D01*
X946187Y221324D01*
X946034Y221514D01*
X945886Y221708D01*
X945742Y221906D01*
X945603Y222107D01*
X945469Y222312D01*
X945340Y222520D01*
X945217Y222730D01*
X945098Y222944D01*
X944985Y223161D01*
X944877Y223380D01*
X944774Y223602D01*
X944677Y223826D01*
X944585Y224053D01*
X944499Y224282D01*
X944499Y247904D01*
X934593Y266446D02*
X934593Y288798D01*
X934593Y266446D02*
X934595Y266253D01*
X934602Y266059D01*
X934614Y265866D01*
X934631Y265674D01*
X934652Y265481D01*
X934678Y265290D01*
X934709Y265099D01*
X934744Y264909D01*
X934784Y264719D01*
X934828Y264531D01*
X934877Y264344D01*
X934931Y264158D01*
X934989Y263974D01*
X935052Y263791D01*
X935119Y263610D01*
X935191Y263430D01*
X935267Y263252D01*
X935347Y263076D01*
X935431Y262902D01*
X935520Y262730D01*
X935613Y262561D01*
X935710Y262394D01*
X935811Y262229D01*
X935917Y262066D01*
X936026Y261907D01*
X936139Y261750D01*
X936255Y261595D01*
X936376Y261444D01*
X936500Y261296D01*
X936628Y261151D01*
X936759Y261009D01*
X936894Y260870D01*
X937032Y260734D01*
X937173Y260602D01*
X937317Y260474D01*
X937465Y260349D01*
X937616Y260227D01*
X937769Y260110D01*
X937926Y259996D01*
X938085Y259886D01*
X938246Y259780D01*
X938411Y259678D01*
X938577Y259580D01*
X938746Y259486D01*
X938918Y259396D01*
X939091Y259311D01*
X939267Y259230D01*
X939444Y259153D01*
X939623Y259080D01*
X939804Y259012D01*
X939987Y258948D01*
X940171Y258889D01*
X940357Y258834D01*
X940543Y258784D01*
X940731Y258739D01*
X940920Y258698D01*
X941110Y258661D01*
X941301Y258630D01*
X941493Y258603D01*
X941685Y258580D01*
X941877Y258563D01*
X942070Y258550D01*
X942263Y258542D01*
X942457Y258538D01*
X942650Y258539D01*
X942844Y258545D01*
X943037Y258556D01*
X943229Y258572D01*
X954659Y258826D01*
X954864Y258833D01*
X955069Y258845D01*
X955274Y258862D01*
X955478Y258884D01*
X955682Y258911D01*
X955884Y258943D01*
X956086Y258979D01*
X956287Y259021D01*
X956487Y259068D01*
X956686Y259119D01*
X956884Y259175D01*
X957080Y259236D01*
X957274Y259301D01*
X957467Y259372D01*
X957658Y259447D01*
X957848Y259526D01*
X958035Y259610D01*
X958220Y259699D01*
X958403Y259792D01*
X958584Y259889D01*
X958762Y259991D01*
X958938Y260097D01*
X959111Y260208D01*
X959281Y260322D01*
X959449Y260441D01*
X959614Y260564D01*
X959775Y260690D01*
X959934Y260821D01*
X960089Y260955D01*
X960241Y261093D01*
X960390Y261235D01*
X960535Y261380D01*
X960676Y261529D01*
X960814Y261681D01*
X960948Y261836D01*
X961079Y261995D01*
X961205Y262156D01*
X961328Y262321D01*
X961446Y262489D01*
X961561Y262659D01*
X961671Y262832D01*
X961777Y263008D01*
X961879Y263186D01*
X961976Y263367D01*
X962069Y263550D01*
X962158Y263735D01*
X962242Y263923D01*
X962321Y264112D01*
X962396Y264303D01*
X962466Y264496D01*
X962532Y264691D01*
X962593Y264887D01*
X962648Y265084D01*
X962700Y265283D01*
X962746Y265483D01*
X962787Y265684D01*
X963041Y288798D01*
X949833Y298450D02*
X933577Y298450D01*
X949833Y298450D02*
X963803Y298450D01*
X949833Y298450D02*
X934593Y330454D01*
X963295Y330454D02*
X948817Y301244D01*
X935101Y338074D02*
X935101Y373634D01*
X934847Y356108D02*
X963549Y356108D01*
X934847Y379984D02*
X934847Y400304D01*
X934849Y400503D01*
X934857Y400701D01*
X934869Y400899D01*
X934886Y401097D01*
X934908Y401295D01*
X934934Y401492D01*
X934966Y401688D01*
X935002Y401883D01*
X935043Y402078D01*
X935088Y402271D01*
X935139Y402463D01*
X935194Y402654D01*
X935254Y402843D01*
X935318Y403031D01*
X935387Y403218D01*
X935460Y403402D01*
X935538Y403585D01*
X935621Y403766D01*
X935707Y403944D01*
X935798Y404121D01*
X935894Y404295D01*
X935993Y404467D01*
X936097Y404637D01*
X936205Y404803D01*
X936317Y404967D01*
X936433Y405129D01*
X936553Y405287D01*
X936676Y405443D01*
X936804Y405595D01*
X936935Y405744D01*
X937070Y405890D01*
X937208Y406033D01*
X937349Y406172D01*
X937495Y406308D01*
X937643Y406440D01*
X937794Y406569D01*
X937949Y406694D01*
X938106Y406815D01*
X938267Y406932D01*
X938430Y407045D01*
X938596Y407154D01*
X938765Y407259D01*
X938936Y407360D01*
X939110Y407456D01*
X939285Y407549D01*
X939464Y407637D01*
X939644Y407721D01*
X939826Y407800D01*
X940010Y407875D01*
X940196Y407945D01*
X940383Y408011D01*
X940572Y408072D01*
X940763Y408128D01*
X940954Y408180D01*
X941147Y408227D01*
X941342Y408269D01*
X941537Y408307D01*
X941732Y408340D01*
X941929Y408368D01*
X942126Y408391D01*
X942324Y408410D01*
X942522Y408423D01*
X942721Y408432D01*
X963803Y408178D01*
X962787Y399288D02*
X962787Y385064D01*
X962784Y384849D01*
X962777Y384633D01*
X962764Y384418D01*
X962745Y384203D01*
X962722Y383989D01*
X962693Y383776D01*
X962659Y383563D01*
X962620Y383351D01*
X962576Y383140D01*
X962527Y382930D01*
X962473Y382722D01*
X962414Y382515D01*
X962350Y382309D01*
X962280Y382105D01*
X962206Y381903D01*
X962127Y381702D01*
X962043Y381504D01*
X961955Y381307D01*
X961861Y381113D01*
X961763Y380921D01*
X961661Y380732D01*
X961553Y380545D01*
X961442Y380361D01*
X961325Y380179D01*
X961205Y380001D01*
X961080Y379825D01*
X960951Y379652D01*
X960818Y379483D01*
X960681Y379317D01*
X960540Y379154D01*
X960394Y378995D01*
X960245Y378839D01*
X960093Y378687D01*
X959937Y378539D01*
X959777Y378394D01*
X959613Y378254D01*
X959447Y378117D01*
X959277Y377985D01*
X959104Y377856D01*
X958928Y377732D01*
X958749Y377612D01*
X958567Y377497D01*
X958382Y377386D01*
X958195Y377279D01*
X958005Y377178D01*
X957812Y377080D01*
X957618Y376988D01*
X957421Y376900D01*
X957222Y376817D01*
X957022Y376738D01*
X956819Y376665D01*
X956615Y376597D01*
X956409Y376533D01*
X956201Y376475D01*
X955993Y376421D01*
X955783Y376373D01*
X955572Y376330D01*
X955360Y376292D01*
X955147Y376259D01*
X954933Y376231D01*
X954719Y376208D01*
X954504Y376191D01*
X954289Y376179D01*
X954073Y376172D01*
X953858Y376170D01*
X953643Y376174D01*
X953398Y376184D01*
X953154Y376200D01*
X952911Y376221D01*
X952668Y376249D01*
X952426Y376283D01*
X952185Y376322D01*
X951944Y376368D01*
X951705Y376419D01*
X951468Y376476D01*
X951231Y376539D01*
X950997Y376607D01*
X950764Y376681D01*
X950533Y376761D01*
X950304Y376847D01*
X950077Y376938D01*
X949852Y377034D01*
X949630Y377136D01*
X949411Y377244D01*
X949194Y377356D01*
X948980Y377474D01*
X948768Y377598D01*
X948560Y377726D01*
X948355Y377859D01*
X948154Y377997D01*
X947956Y378140D01*
X947761Y378288D01*
X947570Y378441D01*
X947383Y378598D01*
X947200Y378760D01*
X947020Y378926D01*
X946845Y379097D01*
X946674Y379271D01*
X946507Y379450D01*
X946345Y379633D01*
X946187Y379820D01*
X946034Y380010D01*
X945886Y380204D01*
X945742Y380402D01*
X945603Y380603D01*
X945469Y380808D01*
X945340Y381016D01*
X945217Y381226D01*
X945098Y381440D01*
X944985Y381657D01*
X944877Y381876D01*
X944774Y382098D01*
X944677Y382322D01*
X944585Y382549D01*
X944499Y382778D01*
X944499Y406400D01*
X954659Y419862D02*
X933323Y419862D01*
X954659Y419862D02*
X954859Y419864D01*
X955060Y419872D01*
X955260Y419884D01*
X955459Y419901D01*
X955659Y419923D01*
X955857Y419950D01*
X956055Y419982D01*
X956252Y420019D01*
X956448Y420060D01*
X956643Y420107D01*
X956837Y420158D01*
X957030Y420214D01*
X957221Y420274D01*
X957410Y420339D01*
X957598Y420409D01*
X957784Y420484D01*
X957968Y420563D01*
X958151Y420646D01*
X958331Y420734D01*
X958509Y420826D01*
X958684Y420923D01*
X958857Y421024D01*
X959028Y421129D01*
X959196Y421238D01*
X959361Y421352D01*
X959524Y421469D01*
X959683Y421590D01*
X959840Y421716D01*
X959993Y421845D01*
X960143Y421977D01*
X960290Y422114D01*
X960434Y422254D01*
X960574Y422397D01*
X960710Y422544D01*
X960843Y422694D01*
X960972Y422848D01*
X961097Y423004D01*
X961218Y423163D01*
X961336Y423326D01*
X961449Y423491D01*
X961559Y423659D01*
X961664Y423830D01*
X961765Y424003D01*
X961861Y424179D01*
X961954Y424356D01*
X962042Y424537D01*
X962125Y424719D01*
X962204Y424903D01*
X962278Y425089D01*
X962348Y425277D01*
X962414Y425466D01*
X962474Y425658D01*
X962530Y425850D01*
X962581Y426044D01*
X962627Y426239D01*
X962669Y426435D01*
X962706Y426632D01*
X962737Y426830D01*
X962764Y427028D01*
X962787Y427228D01*
X963041Y448056D01*
D17*
X357759Y331470D02*
X342519Y331470D01*
X342519Y306070D02*
X357759Y306070D01*
D18*
X207010Y559590D03*
X191770Y431800D03*
X251460Y441960D03*
X251460Y373380D03*
X467360Y181610D03*
X582930Y248920D03*
X170180Y302966D03*
X467360Y55146D03*
X911058Y361482D03*
X605790Y361950D03*
X480060Y191770D03*
X160020Y302260D03*
X158750Y50800D03*
X459006Y112494D03*
X478056Y112494D03*
X896620Y513080D03*
X896620Y446558D03*
X727075Y546100D03*
X908050Y446558D03*
X908050Y519430D03*
X566420Y104140D03*
X577850Y231775D03*
X809244Y321056D03*
X638810Y281940D03*
X704850Y317500D03*
X293370Y321310D03*
X435610Y463550D03*
X812800Y302260D03*
X701040Y302260D03*
X236220Y302260D03*
X401320Y452120D03*
X514350Y431456D03*
X514350Y229334D03*
X519331Y172720D03*
X617505Y171450D03*
X800100Y292100D03*
X688340Y261620D03*
X866140Y295275D03*
X539115Y423545D03*
X232946Y292100D03*
X407862Y423102D03*
X637540Y97790D03*
X193040Y245110D03*
X264160Y280670D03*
X264160Y313578D03*
X294640Y450850D03*
X378460Y480060D03*
X647700Y97790D03*
X184150Y266700D03*
X131854Y448310D03*
X131854Y495526D03*
X657296Y97254D03*
X195388Y105218D03*
X930910Y496286D03*
X850900Y496286D03*
X668020Y97790D03*
X185420Y114300D03*
X212090Y142240D03*
X229870Y227330D03*
X666750Y173990D03*
X894080Y179070D03*
X847884Y320040D03*
X855237Y369979D03*
X855934Y416913D03*
X849503Y251968D03*
X749300Y228600D03*
X749300Y261620D03*
X850900Y272415D03*
X574294Y427736D03*
X852551Y211455D03*
X784225Y187325D03*
X783590Y226060D03*
X849503Y231267D03*
X588010Y132080D03*
X388620Y185420D03*
X147546Y445770D03*
X148590Y334010D03*
X190692Y332548D03*
X219710Y542064D03*
X402590Y544830D03*
X920750Y519430D03*
X920750Y384175D03*
M02*
