G04 EAGLE Gerber RS-274X export*
G75*
%MOMM*%
%FSLAX34Y34*%
%LPD*%
%INBottom Copper*%
%IPPOS*%
%AMOC8*
5,1,8,0,0,1.08239X$1,22.5*%
G01*
%ADD10C,1.524000*%
%ADD11C,0.076200*%
%ADD12C,0.406400*%
%ADD13C,0.889000*%
%ADD14C,0.609600*%
%ADD15C,0.756400*%
%ADD16C,0.812800*%
%ADD17C,1.270000*%

G36*
X145982Y95887D02*
X145982Y95887D01*
X145991Y95886D01*
X146092Y95907D01*
X146194Y95925D01*
X146202Y95930D01*
X146211Y95932D01*
X146298Y95987D01*
X146387Y96040D01*
X146393Y96047D01*
X146401Y96051D01*
X146463Y96134D01*
X146528Y96214D01*
X146531Y96222D01*
X146537Y96230D01*
X146567Y96328D01*
X146600Y96426D01*
X146600Y96435D01*
X146603Y96444D01*
X146597Y96548D01*
X146594Y96651D01*
X146590Y96659D01*
X146590Y96668D01*
X146548Y96763D01*
X146509Y96858D01*
X146503Y96865D01*
X146500Y96874D01*
X146427Y96948D01*
X146358Y97024D01*
X146350Y97028D01*
X146344Y97035D01*
X146177Y97121D01*
X142564Y98347D01*
X142563Y98347D01*
X142458Y98363D01*
X142343Y98380D01*
X142342Y98380D01*
X142105Y98497D01*
X142071Y98507D01*
X142029Y98529D01*
X141770Y98617D01*
X141753Y98639D01*
X141752Y98640D01*
X141598Y98747D01*
X137502Y100767D01*
X137501Y100767D01*
X137501Y100768D01*
X137392Y100799D01*
X137286Y100829D01*
X137066Y100976D01*
X137034Y100990D01*
X136995Y101017D01*
X136749Y101138D01*
X136736Y101163D01*
X136735Y101164D01*
X136596Y101290D01*
X132799Y103827D01*
X132798Y103828D01*
X132797Y103828D01*
X132699Y103871D01*
X132593Y103917D01*
X132394Y104091D01*
X132364Y104109D01*
X132328Y104142D01*
X132101Y104294D01*
X132091Y104320D01*
X132090Y104321D01*
X131969Y104464D01*
X128535Y107475D01*
X128535Y107476D01*
X128534Y107476D01*
X128438Y107534D01*
X128343Y107591D01*
X128169Y107790D01*
X128141Y107812D01*
X128110Y107849D01*
X127904Y108029D01*
X127898Y108056D01*
X127897Y108057D01*
X127897Y108058D01*
X127795Y108215D01*
X124784Y111649D01*
X124783Y111650D01*
X124701Y111716D01*
X124609Y111789D01*
X124608Y111789D01*
X124462Y112008D01*
X124437Y112034D01*
X124411Y112074D01*
X124231Y112280D01*
X124228Y112308D01*
X124227Y112308D01*
X124227Y112309D01*
X124147Y112479D01*
X121610Y116276D01*
X121609Y116277D01*
X121530Y116359D01*
X121455Y116438D01*
X121454Y116438D01*
X121337Y116675D01*
X121316Y116703D01*
X121296Y116746D01*
X121144Y116974D01*
X121144Y117002D01*
X121144Y117003D01*
X121087Y117182D01*
X119067Y121278D01*
X119067Y121279D01*
X119002Y121367D01*
X118934Y121458D01*
X118934Y121459D01*
X118849Y121709D01*
X118832Y121740D01*
X118817Y121785D01*
X118696Y122030D01*
X118700Y122058D01*
X118700Y122059D01*
X118700Y122060D01*
X118667Y122244D01*
X117199Y126569D01*
X117199Y126570D01*
X117198Y126570D01*
X117154Y126651D01*
X117147Y126668D01*
X117140Y126676D01*
X117090Y126765D01*
X117090Y126766D01*
X117039Y127025D01*
X117026Y127057D01*
X117017Y127105D01*
X116929Y127364D01*
X116937Y127391D01*
X116937Y127392D01*
X116928Y127579D01*
X116037Y132059D01*
X116037Y132060D01*
X115998Y132157D01*
X115955Y132267D01*
X115955Y132268D01*
X115938Y132531D01*
X115929Y132566D01*
X115927Y132614D01*
X115873Y132882D01*
X115885Y132907D01*
X115885Y132908D01*
X115885Y132909D01*
X115901Y133096D01*
X115605Y137601D01*
X115600Y137623D01*
X115601Y137644D01*
X115573Y137731D01*
X115569Y137747D01*
X115569Y138130D01*
X115566Y138149D01*
X115568Y138172D01*
X115566Y138202D01*
X115566Y138203D01*
X115542Y138297D01*
X115548Y138389D01*
X115544Y138424D01*
X115548Y138472D01*
X115543Y138552D01*
X115566Y138658D01*
X115568Y138689D01*
X115566Y138707D01*
X115569Y138730D01*
X115569Y139093D01*
X115600Y139232D01*
X115605Y139253D01*
X115605Y139255D01*
X115605Y139259D01*
X115925Y144129D01*
X115924Y144130D01*
X115925Y144130D01*
X115913Y144235D01*
X115899Y144352D01*
X115951Y144611D01*
X115951Y144621D01*
X115954Y144629D01*
X115953Y144653D01*
X115962Y144693D01*
X115979Y144966D01*
X115997Y144988D01*
X115997Y144989D01*
X115998Y144990D01*
X116061Y145166D01*
X117023Y150004D01*
X117024Y150005D01*
X117025Y150119D01*
X117027Y150228D01*
X117112Y150478D01*
X117117Y150513D01*
X117134Y150559D01*
X117187Y150827D01*
X117207Y150846D01*
X117208Y150847D01*
X117208Y150848D01*
X117294Y151014D01*
X118880Y155685D01*
X118880Y155686D01*
X118896Y155792D01*
X118913Y155907D01*
X119030Y156144D01*
X119039Y156178D01*
X119061Y156221D01*
X119149Y156479D01*
X119172Y156496D01*
X119172Y156497D01*
X119173Y156497D01*
X119280Y156651D01*
X121461Y161075D01*
X121462Y161076D01*
X121493Y161186D01*
X121523Y161291D01*
X121670Y161511D01*
X121678Y161530D01*
X121688Y161542D01*
X121693Y161555D01*
X121712Y161582D01*
X121833Y161828D01*
X121857Y161841D01*
X121858Y161842D01*
X121985Y161981D01*
X124725Y166082D01*
X124725Y166083D01*
X124726Y166083D01*
X124765Y166175D01*
X124814Y166288D01*
X124815Y166288D01*
X124988Y166487D01*
X125007Y166517D01*
X125039Y166552D01*
X125191Y166780D01*
X125217Y166790D01*
X125218Y166791D01*
X125219Y166791D01*
X125362Y166912D01*
X128614Y170620D01*
X128614Y170621D01*
X128615Y170622D01*
X128672Y170718D01*
X128730Y170813D01*
X128928Y170987D01*
X128950Y171015D01*
X128987Y171046D01*
X129167Y171251D01*
X129194Y171258D01*
X129195Y171259D01*
X129196Y171259D01*
X129354Y171360D01*
X133062Y174612D01*
X133062Y174613D01*
X133063Y174613D01*
X133131Y174700D01*
X133202Y174788D01*
X133422Y174935D01*
X133447Y174960D01*
X133487Y174986D01*
X133693Y175166D01*
X133721Y175169D01*
X133722Y175169D01*
X133892Y175249D01*
X137993Y177989D01*
X137994Y177990D01*
X138072Y178065D01*
X138155Y178145D01*
X138155Y178146D01*
X138392Y178262D01*
X138420Y178283D01*
X138463Y178304D01*
X138691Y178456D01*
X138719Y178455D01*
X138720Y178455D01*
X138899Y178513D01*
X143323Y180694D01*
X143323Y180695D01*
X143324Y180695D01*
X143411Y180760D01*
X143503Y180827D01*
X143503Y180828D01*
X143753Y180913D01*
X143757Y180914D01*
X143760Y180915D01*
X143785Y180930D01*
X143830Y180944D01*
X144075Y181065D01*
X144103Y181061D01*
X144104Y181061D01*
X144105Y181061D01*
X144289Y181094D01*
X148960Y182680D01*
X148961Y182680D01*
X149055Y182733D01*
X149156Y182788D01*
X149156Y182789D01*
X149415Y182840D01*
X149448Y182853D01*
X149496Y182862D01*
X149755Y182950D01*
X149782Y182942D01*
X149783Y182942D01*
X149970Y182951D01*
X154808Y183913D01*
X154809Y183913D01*
X154913Y183954D01*
X155017Y183995D01*
X155281Y184012D01*
X155315Y184021D01*
X155363Y184023D01*
X155631Y184077D01*
X155657Y184065D01*
X155658Y184065D01*
X155845Y184049D01*
X160715Y184369D01*
X160737Y184374D01*
X160758Y184373D01*
X160845Y184401D01*
X160861Y184405D01*
X161244Y184405D01*
X161263Y184408D01*
X161286Y184406D01*
X161648Y184430D01*
X161790Y184409D01*
X161810Y184405D01*
X161813Y184405D01*
X161816Y184405D01*
X162796Y184405D01*
X162818Y184409D01*
X162839Y184406D01*
X162927Y184428D01*
X162943Y184431D01*
X163326Y184406D01*
X163345Y184408D01*
X163368Y184405D01*
X163731Y184405D01*
X163870Y184374D01*
X163891Y184369D01*
X163893Y184369D01*
X163897Y184369D01*
X168303Y184080D01*
X168304Y184080D01*
X168410Y184092D01*
X168526Y184105D01*
X168785Y184054D01*
X168820Y184053D01*
X168867Y184043D01*
X169249Y184018D01*
X169338Y184028D01*
X169428Y184032D01*
X169449Y184041D01*
X169472Y184043D01*
X169552Y184084D01*
X169635Y184119D01*
X169652Y184134D01*
X169672Y184144D01*
X169733Y184210D01*
X169799Y184272D01*
X169809Y184292D01*
X169825Y184309D01*
X169859Y184392D01*
X169899Y184473D01*
X169903Y184498D01*
X169910Y184516D01*
X169912Y184567D01*
X169913Y184575D01*
X169917Y184587D01*
X169917Y184602D01*
X169925Y184659D01*
X169712Y202065D01*
X169701Y202126D01*
X169699Y202188D01*
X169680Y202235D01*
X169670Y202285D01*
X169638Y202338D01*
X169614Y202395D01*
X169580Y202433D01*
X169553Y202477D01*
X169505Y202515D01*
X169463Y202561D01*
X169418Y202584D01*
X169378Y202616D01*
X169319Y202635D01*
X169263Y202664D01*
X169204Y202672D01*
X169164Y202685D01*
X169128Y202684D01*
X169078Y202691D01*
X148347Y202691D01*
X144612Y204238D01*
X141754Y207096D01*
X140207Y210831D01*
X140207Y214873D01*
X141754Y218608D01*
X144448Y221301D01*
X144482Y221351D01*
X144525Y221395D01*
X144546Y221443D01*
X144576Y221485D01*
X144591Y221544D01*
X144616Y221600D01*
X144619Y221652D01*
X144632Y221703D01*
X144626Y221763D01*
X144629Y221824D01*
X144614Y221874D01*
X144609Y221926D01*
X144582Y221980D01*
X144564Y222039D01*
X144528Y222089D01*
X144509Y222127D01*
X144483Y222152D01*
X144455Y222191D01*
X144406Y222241D01*
X141731Y228847D01*
X141731Y254751D01*
X142236Y255969D01*
X142245Y256010D01*
X142263Y256049D01*
X142268Y256119D01*
X142284Y256188D01*
X142278Y256230D01*
X142281Y256272D01*
X142259Y256360D01*
X142252Y256410D01*
X142242Y256429D01*
X142236Y256454D01*
X141985Y257059D01*
X141985Y273846D01*
X141980Y273876D01*
X141982Y273906D01*
X141954Y274021D01*
X141946Y274066D01*
X141940Y274076D01*
X141937Y274088D01*
X141731Y274585D01*
X141731Y278627D01*
X141937Y279124D01*
X141944Y279154D01*
X141958Y279181D01*
X141975Y279298D01*
X141985Y279343D01*
X141983Y279353D01*
X141985Y279366D01*
X141985Y296661D01*
X142354Y297552D01*
X142360Y297577D01*
X142372Y297600D01*
X142383Y297686D01*
X142402Y297771D01*
X142398Y297797D01*
X142402Y297822D01*
X142376Y297956D01*
X142371Y297993D01*
X142367Y297999D01*
X142366Y298006D01*
X141386Y300767D01*
X141595Y304804D01*
X150354Y323196D01*
X150378Y323287D01*
X150408Y323375D01*
X150408Y323394D01*
X150413Y323413D01*
X150405Y323506D01*
X150402Y323600D01*
X150395Y323617D01*
X150393Y323636D01*
X150353Y323721D01*
X150317Y323807D01*
X150305Y323822D01*
X150296Y323839D01*
X150229Y323904D01*
X150166Y323973D01*
X150149Y323982D01*
X150135Y323995D01*
X150050Y324033D01*
X149966Y324076D01*
X149946Y324079D01*
X149930Y324086D01*
X149880Y324088D01*
X149781Y324103D01*
X148601Y324103D01*
X144866Y325650D01*
X142008Y328508D01*
X140461Y332243D01*
X140461Y336285D01*
X142031Y340074D01*
X142040Y340115D01*
X142058Y340154D01*
X142063Y340224D01*
X142078Y340293D01*
X142072Y340335D01*
X142076Y340377D01*
X142054Y340465D01*
X142047Y340515D01*
X142037Y340533D01*
X142031Y340559D01*
X141477Y341895D01*
X141477Y370079D01*
X144556Y377052D01*
X145889Y378267D01*
X145935Y378327D01*
X145987Y378381D01*
X146002Y378416D01*
X146025Y378446D01*
X146047Y378518D01*
X146078Y378586D01*
X146080Y378624D01*
X146091Y378660D01*
X146087Y378735D01*
X146092Y378810D01*
X146081Y378846D01*
X146078Y378884D01*
X146048Y378953D01*
X146026Y379025D01*
X146001Y379060D01*
X145988Y379090D01*
X145957Y379122D01*
X145917Y379177D01*
X144406Y380737D01*
X141731Y387343D01*
X141731Y413247D01*
X141982Y413852D01*
X141991Y413893D01*
X142009Y413932D01*
X142014Y414002D01*
X142030Y414071D01*
X142024Y414113D01*
X142027Y414155D01*
X142005Y414243D01*
X141998Y414293D01*
X141988Y414311D01*
X141982Y414337D01*
X141477Y415555D01*
X141477Y440846D01*
X143077Y444625D01*
X143088Y444673D01*
X143108Y444717D01*
X143112Y444781D01*
X143126Y444844D01*
X143120Y444892D01*
X143123Y444941D01*
X143103Y445018D01*
X143097Y445066D01*
X143084Y445090D01*
X143076Y445123D01*
X141758Y448189D01*
X141505Y467694D01*
X141500Y467720D01*
X141502Y467747D01*
X141477Y467846D01*
X141477Y469830D01*
X141477Y469834D01*
X141477Y469839D01*
X141452Y471803D01*
X141463Y471882D01*
X141470Y471902D01*
X141470Y471923D01*
X141477Y471959D01*
X141476Y471966D01*
X141477Y471974D01*
X141477Y474199D01*
X144184Y480734D01*
X149186Y485736D01*
X155721Y488443D01*
X182615Y488443D01*
X186350Y486896D01*
X189208Y484038D01*
X190755Y480303D01*
X190755Y476261D01*
X189208Y472526D01*
X186350Y469668D01*
X182615Y468121D01*
X180975Y468121D01*
X180910Y468110D01*
X180844Y468108D01*
X180801Y468090D01*
X180754Y468082D01*
X180697Y468048D01*
X180637Y468023D01*
X180602Y467992D01*
X180561Y467967D01*
X180519Y467916D01*
X180471Y467872D01*
X180449Y467830D01*
X180420Y467793D01*
X180399Y467731D01*
X180368Y467672D01*
X180360Y467618D01*
X180348Y467581D01*
X180349Y467541D01*
X180341Y467487D01*
X180341Y456317D01*
X180353Y456248D01*
X180356Y456178D01*
X180373Y456138D01*
X180380Y456096D01*
X180416Y456036D01*
X180443Y455971D01*
X180472Y455940D01*
X180495Y455902D01*
X180549Y455859D01*
X180596Y455808D01*
X180635Y455788D01*
X180669Y455761D01*
X180735Y455739D01*
X180797Y455708D01*
X180847Y455701D01*
X180881Y455689D01*
X180923Y455690D01*
X180983Y455682D01*
X182490Y455701D01*
X186243Y454200D01*
X189136Y451378D01*
X190729Y447662D01*
X190779Y443620D01*
X189278Y439867D01*
X186456Y436974D01*
X182740Y435381D01*
X162425Y435130D01*
X162364Y435118D01*
X162302Y435117D01*
X162255Y435097D01*
X162205Y435088D01*
X162152Y435056D01*
X162095Y435032D01*
X162057Y434998D01*
X162013Y434971D01*
X161975Y434923D01*
X161929Y434881D01*
X161906Y434835D01*
X161874Y434795D01*
X161855Y434736D01*
X161826Y434681D01*
X161818Y434622D01*
X161805Y434582D01*
X161806Y434545D01*
X161799Y434496D01*
X161799Y424004D01*
X161814Y423918D01*
X161823Y423830D01*
X161834Y423808D01*
X161838Y423784D01*
X161883Y423708D01*
X161922Y423629D01*
X161940Y423612D01*
X161953Y423590D01*
X162021Y423535D01*
X162085Y423474D01*
X162107Y423465D01*
X162127Y423449D01*
X162210Y423421D01*
X162291Y423386D01*
X162316Y423385D01*
X162339Y423377D01*
X162427Y423380D01*
X162515Y423376D01*
X162542Y423383D01*
X162564Y423384D01*
X162610Y423403D01*
X162695Y423427D01*
X166330Y425078D01*
X169660Y425172D01*
X170402Y425193D01*
X170453Y425194D01*
X172548Y425253D01*
X174260Y425301D01*
X181453Y422498D01*
X186988Y417117D01*
X189993Y410006D01*
X189993Y389901D01*
X189587Y388921D01*
X189577Y388876D01*
X189558Y388834D01*
X189553Y388767D01*
X189539Y388702D01*
X189546Y388656D01*
X189542Y388610D01*
X189564Y388529D01*
X189571Y388480D01*
X189582Y388459D01*
X189590Y388429D01*
X190984Y385175D01*
X191032Y381133D01*
X189531Y377381D01*
X187726Y375532D01*
X187673Y375454D01*
X187616Y375380D01*
X187611Y375362D01*
X187600Y375346D01*
X187578Y375255D01*
X187550Y375166D01*
X187551Y375147D01*
X187547Y375128D01*
X187557Y375035D01*
X187563Y374942D01*
X187570Y374922D01*
X187572Y374905D01*
X187595Y374860D01*
X187633Y374768D01*
X189200Y372095D01*
X189589Y370092D01*
X189607Y370045D01*
X189628Y369963D01*
X189970Y369163D01*
X189981Y368118D01*
X189990Y368073D01*
X189993Y368004D01*
X190192Y366978D01*
X190018Y366125D01*
X190016Y366075D01*
X190005Y365991D01*
X190268Y342007D01*
X189563Y340249D01*
X189555Y340211D01*
X189538Y340175D01*
X189532Y340102D01*
X189517Y340029D01*
X189523Y339990D01*
X189520Y339952D01*
X189544Y339857D01*
X189551Y339807D01*
X189560Y339792D01*
X189565Y339770D01*
X191009Y336285D01*
X191009Y332243D01*
X189462Y328508D01*
X186604Y325650D01*
X182869Y324103D01*
X181876Y324103D01*
X181779Y324086D01*
X181681Y324073D01*
X181669Y324066D01*
X181655Y324064D01*
X181570Y324013D01*
X181483Y323967D01*
X181474Y323957D01*
X181462Y323949D01*
X181400Y323873D01*
X181334Y323799D01*
X181329Y323786D01*
X181321Y323775D01*
X181289Y323682D01*
X181253Y323590D01*
X181253Y323576D01*
X181249Y323563D01*
X181252Y323464D01*
X181250Y323366D01*
X181255Y323351D01*
X181255Y323338D01*
X181273Y323294D01*
X181308Y323187D01*
X190341Y304961D01*
X190614Y300928D01*
X189322Y297098D01*
X186663Y294054D01*
X183041Y292259D01*
X179008Y291986D01*
X175178Y293278D01*
X172134Y295937D01*
X166464Y307375D01*
X166445Y307401D01*
X166434Y307429D01*
X166421Y307444D01*
X166411Y307463D01*
X166367Y307506D01*
X166331Y307555D01*
X166301Y307575D01*
X166282Y307595D01*
X166268Y307602D01*
X166250Y307620D01*
X166194Y307644D01*
X166143Y307678D01*
X166104Y307686D01*
X166083Y307698D01*
X166068Y307700D01*
X166045Y307710D01*
X165984Y307714D01*
X165924Y307727D01*
X165903Y307724D01*
X165897Y307725D01*
X165895Y307725D01*
X165868Y307720D01*
X165821Y307723D01*
X165762Y307705D01*
X165701Y307697D01*
X165683Y307687D01*
X165674Y307686D01*
X165649Y307671D01*
X165606Y307658D01*
X165558Y307620D01*
X165503Y307592D01*
X165491Y307577D01*
X165481Y307571D01*
X165460Y307546D01*
X165428Y307522D01*
X165386Y307459D01*
X165355Y307424D01*
X165349Y307409D01*
X165339Y307397D01*
X165334Y307383D01*
X165323Y307366D01*
X161460Y299253D01*
X161445Y299196D01*
X161420Y299143D01*
X161415Y299089D01*
X161401Y299036D01*
X161406Y298978D01*
X161401Y298919D01*
X161417Y298857D01*
X161421Y298813D01*
X161436Y298782D01*
X161447Y298737D01*
X162307Y296661D01*
X162307Y287401D01*
X162318Y287336D01*
X162320Y287270D01*
X162338Y287227D01*
X162346Y287180D01*
X162380Y287123D01*
X162405Y287063D01*
X162436Y287028D01*
X162461Y286987D01*
X162512Y286945D01*
X162556Y286897D01*
X162598Y286875D01*
X162635Y286846D01*
X162697Y286825D01*
X162756Y286794D01*
X162810Y286786D01*
X162847Y286774D01*
X162887Y286775D01*
X162941Y286767D01*
X182615Y286767D01*
X186350Y285220D01*
X189208Y282362D01*
X190755Y278627D01*
X190755Y274585D01*
X189208Y270850D01*
X186350Y267992D01*
X182615Y266445D01*
X178559Y266445D01*
X178453Y266426D01*
X178348Y266409D01*
X178343Y266406D01*
X178338Y266406D01*
X178245Y266351D01*
X178153Y266298D01*
X178149Y266294D01*
X178145Y266291D01*
X178078Y266209D01*
X178008Y266126D01*
X178007Y266121D01*
X178003Y266117D01*
X177969Y266015D01*
X177933Y265915D01*
X177933Y265910D01*
X177932Y265905D01*
X177935Y265799D01*
X177936Y265690D01*
X177938Y265686D01*
X177938Y265680D01*
X177978Y265582D01*
X178017Y265481D01*
X178021Y265477D01*
X178022Y265473D01*
X178095Y265394D01*
X178166Y265313D01*
X178171Y265310D01*
X178174Y265307D01*
X178202Y265293D01*
X178329Y265220D01*
X181453Y264002D01*
X186988Y258621D01*
X189993Y251510D01*
X189993Y231405D01*
X189587Y230425D01*
X189577Y230380D01*
X189558Y230338D01*
X189553Y230271D01*
X189539Y230206D01*
X189546Y230160D01*
X189542Y230114D01*
X189564Y230033D01*
X189571Y229984D01*
X189582Y229963D01*
X189590Y229933D01*
X190984Y226679D01*
X191032Y222637D01*
X189531Y218885D01*
X186907Y216197D01*
X186866Y216136D01*
X186817Y216081D01*
X186812Y216068D01*
X186810Y216065D01*
X186803Y216043D01*
X186781Y216011D01*
X186764Y215940D01*
X186738Y215871D01*
X186737Y215832D01*
X186728Y215794D01*
X186736Y215720D01*
X186736Y215647D01*
X186750Y215604D01*
X186754Y215571D01*
X186774Y215531D01*
X186794Y215469D01*
X189609Y209879D01*
X189780Y208143D01*
X189781Y208140D01*
X189781Y208137D01*
X189828Y207955D01*
X189967Y207631D01*
X189986Y206075D01*
X189991Y206051D01*
X189989Y206020D01*
X190142Y204472D01*
X190040Y204134D01*
X190039Y204131D01*
X190038Y204128D01*
X190012Y203942D01*
X190271Y182761D01*
X188769Y179008D01*
X187432Y177637D01*
X187425Y177628D01*
X187416Y177621D01*
X187363Y177535D01*
X187306Y177452D01*
X187303Y177440D01*
X187297Y177431D01*
X187277Y177332D01*
X187253Y177234D01*
X187254Y177222D01*
X187252Y177211D01*
X187267Y177111D01*
X187279Y177011D01*
X187284Y177001D01*
X187286Y176989D01*
X187335Y176901D01*
X187381Y176811D01*
X187389Y176803D01*
X187395Y176793D01*
X187533Y176667D01*
X188555Y175984D01*
X188556Y175984D01*
X188557Y175983D01*
X188655Y175941D01*
X188761Y175894D01*
X188762Y175894D01*
X188960Y175720D01*
X188990Y175702D01*
X189026Y175670D01*
X189253Y175518D01*
X189263Y175491D01*
X189264Y175491D01*
X189264Y175490D01*
X189385Y175347D01*
X192744Y172402D01*
X192745Y172401D01*
X192841Y172343D01*
X192936Y172286D01*
X192937Y172286D01*
X193111Y172087D01*
X193138Y172065D01*
X193169Y172029D01*
X193375Y171848D01*
X193382Y171821D01*
X193382Y171820D01*
X193484Y171662D01*
X196429Y168303D01*
X196430Y168303D01*
X196430Y168302D01*
X196516Y168234D01*
X196605Y168164D01*
X196605Y168163D01*
X196752Y167944D01*
X196776Y167918D01*
X196802Y167878D01*
X196982Y167672D01*
X196986Y167644D01*
X196986Y167643D01*
X197066Y167473D01*
X199548Y163759D01*
X199549Y163758D01*
X199628Y163676D01*
X199704Y163597D01*
X199821Y163360D01*
X199842Y163332D01*
X199862Y163289D01*
X200014Y163061D01*
X200014Y163033D01*
X200014Y163032D01*
X200028Y162988D01*
X200028Y162986D01*
X200031Y162977D01*
X200071Y162853D01*
X202047Y158847D01*
X202047Y158846D01*
X202047Y158845D01*
X202114Y158755D01*
X202180Y158666D01*
X202265Y158416D01*
X202282Y158385D01*
X202297Y158339D01*
X202418Y158094D01*
X202414Y158066D01*
X202414Y158065D01*
X202414Y158064D01*
X202441Y157913D01*
X202441Y157912D01*
X202442Y157911D01*
X202447Y157880D01*
X203883Y153650D01*
X203883Y153649D01*
X203884Y153648D01*
X203937Y153552D01*
X203992Y153453D01*
X204043Y153194D01*
X204056Y153161D01*
X204065Y153114D01*
X204153Y152855D01*
X204145Y152828D01*
X204145Y152827D01*
X204154Y152639D01*
X205025Y148258D01*
X205026Y148257D01*
X205026Y148256D01*
X205066Y148154D01*
X205107Y148049D01*
X205108Y148049D01*
X205125Y147785D01*
X205133Y147751D01*
X205136Y147703D01*
X205189Y147435D01*
X205178Y147409D01*
X205178Y147408D01*
X205177Y147408D01*
X205175Y147374D01*
X205168Y147354D01*
X205169Y147307D01*
X205162Y147221D01*
X205454Y142763D01*
X205454Y142762D01*
X205454Y142761D01*
X205464Y142721D01*
X205465Y142690D01*
X205483Y142645D01*
X205508Y142545D01*
X205491Y142282D01*
X205495Y142246D01*
X205491Y142199D01*
X205509Y141926D01*
X205494Y141902D01*
X205494Y141901D01*
X205494Y141900D01*
X205454Y141717D01*
X205121Y136629D01*
X205120Y136628D01*
X205133Y136517D01*
X205146Y136406D01*
X205094Y136147D01*
X205094Y136112D01*
X205084Y136065D01*
X205066Y135792D01*
X205048Y135770D01*
X205048Y135769D01*
X205047Y135769D01*
X204984Y135592D01*
X203989Y130592D01*
X203989Y130591D01*
X203989Y130590D01*
X203987Y130474D01*
X203985Y130367D01*
X203901Y130117D01*
X203895Y130082D01*
X203879Y130037D01*
X203826Y129769D01*
X203805Y129749D01*
X203805Y129748D01*
X203804Y129748D01*
X203719Y129581D01*
X202080Y124753D01*
X202080Y124752D01*
X202079Y124752D01*
X202063Y124643D01*
X202046Y124531D01*
X201930Y124294D01*
X201920Y124260D01*
X201898Y124217D01*
X201810Y123959D01*
X201787Y123942D01*
X201787Y123941D01*
X201786Y123941D01*
X201679Y123787D01*
X199424Y119214D01*
X199424Y119213D01*
X199393Y119103D01*
X199362Y118998D01*
X199216Y118778D01*
X199202Y118746D01*
X199174Y118707D01*
X199053Y118461D01*
X199029Y118448D01*
X199028Y118447D01*
X199027Y118447D01*
X198901Y118308D01*
X196069Y114069D01*
X196068Y114068D01*
X196068Y114067D01*
X196025Y113969D01*
X195979Y113863D01*
X195805Y113664D01*
X195787Y113634D01*
X195755Y113598D01*
X195603Y113371D01*
X195576Y113361D01*
X195576Y113360D01*
X195575Y113360D01*
X195432Y113239D01*
X192070Y109405D01*
X192069Y109404D01*
X192012Y109308D01*
X191954Y109213D01*
X191756Y109039D01*
X191734Y109011D01*
X191697Y108980D01*
X191517Y108775D01*
X191490Y108768D01*
X191489Y108767D01*
X191488Y108767D01*
X191331Y108666D01*
X187497Y105304D01*
X187496Y105303D01*
X187428Y105217D01*
X187357Y105129D01*
X187357Y105128D01*
X187138Y104981D01*
X187112Y104957D01*
X187072Y104931D01*
X186866Y104751D01*
X186838Y104748D01*
X186838Y104747D01*
X186837Y104747D01*
X186794Y104727D01*
X186786Y104726D01*
X186764Y104713D01*
X186667Y104667D01*
X182428Y101835D01*
X182428Y101834D01*
X182427Y101834D01*
X182344Y101754D01*
X182266Y101679D01*
X182029Y101562D01*
X182001Y101541D01*
X181958Y101520D01*
X181730Y101368D01*
X181702Y101369D01*
X181701Y101369D01*
X181522Y101312D01*
X176949Y99057D01*
X176949Y99056D01*
X176948Y99056D01*
X176865Y98994D01*
X176769Y98923D01*
X176519Y98838D01*
X176488Y98821D01*
X176442Y98806D01*
X176197Y98685D01*
X176169Y98690D01*
X176168Y98689D01*
X176167Y98690D01*
X175983Y98656D01*
X171459Y97121D01*
X171451Y97116D01*
X171442Y97115D01*
X171353Y97062D01*
X171263Y97012D01*
X171257Y97005D01*
X171249Y97000D01*
X171184Y96920D01*
X171116Y96842D01*
X171113Y96833D01*
X171107Y96826D01*
X171074Y96729D01*
X171038Y96631D01*
X171038Y96622D01*
X171036Y96614D01*
X171039Y96511D01*
X171039Y96407D01*
X171042Y96399D01*
X171042Y96389D01*
X171081Y96294D01*
X171117Y96197D01*
X171123Y96190D01*
X171126Y96182D01*
X171196Y96106D01*
X171264Y96027D01*
X171272Y96023D01*
X171278Y96016D01*
X171370Y95969D01*
X171460Y95919D01*
X171469Y95918D01*
X171477Y95913D01*
X171663Y95886D01*
X692277Y95886D01*
X692342Y95897D01*
X692408Y95899D01*
X692451Y95917D01*
X692498Y95925D01*
X692555Y95959D01*
X692615Y95984D01*
X692650Y96015D01*
X692691Y96040D01*
X692733Y96091D01*
X692781Y96135D01*
X692803Y96177D01*
X692832Y96214D01*
X692853Y96276D01*
X692884Y96335D01*
X692892Y96389D01*
X692904Y96426D01*
X692903Y96466D01*
X692911Y96520D01*
X692911Y153478D01*
X693358Y153925D01*
X814386Y153925D01*
X827704Y140606D01*
X827761Y140567D01*
X827811Y140520D01*
X827852Y140504D01*
X827889Y140478D01*
X827955Y140461D01*
X828018Y140435D01*
X828063Y140433D01*
X828106Y140422D01*
X828174Y140429D01*
X828243Y140427D01*
X828285Y140441D01*
X828329Y140445D01*
X828391Y140476D01*
X828456Y140497D01*
X828490Y140525D01*
X828530Y140545D01*
X828577Y140595D01*
X828631Y140638D01*
X828654Y140676D01*
X828684Y140708D01*
X828711Y140771D01*
X828746Y140830D01*
X828757Y140880D01*
X828772Y140915D01*
X828773Y140956D01*
X828786Y141013D01*
X828800Y141228D01*
X828798Y141247D01*
X828801Y141270D01*
X828801Y141633D01*
X828832Y141772D01*
X828837Y141793D01*
X828837Y141795D01*
X828837Y141799D01*
X829139Y146404D01*
X829139Y146405D01*
X829127Y146508D01*
X829114Y146627D01*
X829165Y146886D01*
X829166Y146921D01*
X829176Y146968D01*
X829194Y147241D01*
X829212Y147263D01*
X829212Y147264D01*
X829276Y147441D01*
X830186Y152018D01*
X830186Y152019D01*
X830188Y152132D01*
X830190Y152242D01*
X830190Y152243D01*
X830275Y152493D01*
X830280Y152528D01*
X830296Y152573D01*
X830350Y152841D01*
X830370Y152860D01*
X830370Y152861D01*
X830371Y152862D01*
X830457Y153028D01*
X831957Y157447D01*
X831957Y157448D01*
X831974Y157558D01*
X831990Y157669D01*
X832107Y157906D01*
X832117Y157940D01*
X832139Y157983D01*
X832227Y158242D01*
X832249Y158259D01*
X832250Y158259D01*
X832250Y158260D01*
X832357Y158414D01*
X834421Y162599D01*
X834421Y162600D01*
X834422Y162600D01*
X834451Y162703D01*
X834483Y162815D01*
X834630Y163035D01*
X834644Y163067D01*
X834671Y163106D01*
X834792Y163352D01*
X834817Y163365D01*
X834818Y163366D01*
X834944Y163505D01*
X837537Y167385D01*
X837537Y167386D01*
X837538Y167386D01*
X837575Y167473D01*
X837627Y167591D01*
X837801Y167790D01*
X837819Y167820D01*
X837851Y167855D01*
X838003Y168083D01*
X838029Y168093D01*
X838030Y168094D01*
X838031Y168094D01*
X838174Y168215D01*
X841251Y171724D01*
X841252Y171725D01*
X841308Y171820D01*
X841366Y171916D01*
X841565Y172090D01*
X841587Y172118D01*
X841624Y172149D01*
X841804Y172355D01*
X841831Y172361D01*
X841832Y172362D01*
X841833Y172362D01*
X841990Y172463D01*
X845499Y175540D01*
X845499Y175541D01*
X845500Y175541D01*
X845568Y175627D01*
X845639Y175716D01*
X845859Y175863D01*
X845884Y175887D01*
X845924Y175913D01*
X846130Y176094D01*
X846158Y176097D01*
X846159Y176097D01*
X846329Y176177D01*
X850209Y178770D01*
X850210Y178770D01*
X850210Y178771D01*
X850284Y178842D01*
X850371Y178925D01*
X850371Y178926D01*
X850608Y179043D01*
X850636Y179064D01*
X850679Y179084D01*
X850907Y179236D01*
X850935Y179235D01*
X850936Y179236D01*
X851115Y179293D01*
X855300Y181357D01*
X855301Y181357D01*
X855302Y181357D01*
X855389Y181422D01*
X855481Y181490D01*
X855731Y181575D01*
X855762Y181592D01*
X855808Y181607D01*
X856053Y181728D01*
X856081Y181724D01*
X856082Y181724D01*
X856267Y181757D01*
X860686Y183257D01*
X860686Y183258D01*
X860687Y183258D01*
X860780Y183309D01*
X860882Y183366D01*
X861141Y183418D01*
X861174Y183430D01*
X861221Y183439D01*
X861480Y183527D01*
X861507Y183519D01*
X861508Y183519D01*
X861509Y183519D01*
X861696Y183528D01*
X866273Y184438D01*
X866274Y184439D01*
X866275Y184439D01*
X866380Y184480D01*
X866482Y184520D01*
X866482Y184521D01*
X866746Y184538D01*
X866780Y184546D01*
X866828Y184549D01*
X867096Y184602D01*
X867122Y184591D01*
X867123Y184591D01*
X867124Y184590D01*
X867310Y184575D01*
X871915Y184877D01*
X871937Y184882D01*
X871958Y184881D01*
X872045Y184909D01*
X872061Y184913D01*
X872445Y184913D01*
X872463Y184916D01*
X872486Y184914D01*
X872848Y184938D01*
X872990Y184917D01*
X873010Y184913D01*
X873013Y184913D01*
X873016Y184913D01*
X873488Y184913D01*
X873510Y184917D01*
X873531Y184914D01*
X873619Y184936D01*
X873635Y184939D01*
X874018Y184914D01*
X874037Y184916D01*
X874060Y184913D01*
X874423Y184913D01*
X874562Y184882D01*
X874583Y184877D01*
X874585Y184877D01*
X874589Y184877D01*
X879326Y184566D01*
X879327Y184566D01*
X879328Y184566D01*
X879433Y184578D01*
X879549Y184591D01*
X879550Y184591D01*
X879809Y184540D01*
X879844Y184539D01*
X879891Y184529D01*
X880164Y184511D01*
X880186Y184494D01*
X880187Y184493D01*
X880364Y184430D01*
X885071Y183493D01*
X885072Y183493D01*
X885187Y183491D01*
X885295Y183489D01*
X885545Y183404D01*
X885581Y183399D01*
X885626Y183383D01*
X885894Y183330D01*
X885913Y183309D01*
X885914Y183309D01*
X885915Y183308D01*
X886081Y183223D01*
X890626Y181680D01*
X890627Y181680D01*
X890627Y181679D01*
X890733Y181664D01*
X890848Y181646D01*
X891085Y181530D01*
X891119Y181520D01*
X891162Y181498D01*
X891421Y181410D01*
X891437Y181387D01*
X891438Y181387D01*
X891439Y181386D01*
X891593Y181279D01*
X895897Y179157D01*
X895898Y179156D01*
X896008Y179125D01*
X896113Y179095D01*
X896333Y178948D01*
X896365Y178934D01*
X896404Y178906D01*
X896650Y178786D01*
X896663Y178761D01*
X896664Y178760D01*
X896803Y178634D01*
X900794Y175967D01*
X900795Y175966D01*
X900889Y175926D01*
X900999Y175877D01*
X901000Y175877D01*
X901198Y175703D01*
X901228Y175685D01*
X901264Y175653D01*
X901491Y175501D01*
X901502Y175475D01*
X901502Y175474D01*
X901503Y175473D01*
X901624Y175330D01*
X905232Y172166D01*
X905233Y172165D01*
X905332Y172106D01*
X905424Y172050D01*
X905425Y172050D01*
X905599Y171851D01*
X905626Y171829D01*
X905657Y171793D01*
X905863Y171613D01*
X905870Y171585D01*
X905870Y171584D01*
X905972Y171426D01*
X909136Y167818D01*
X909137Y167817D01*
X909226Y167746D01*
X909312Y167678D01*
X909459Y167458D01*
X909484Y167432D01*
X909509Y167392D01*
X909690Y167187D01*
X909693Y167159D01*
X909693Y167158D01*
X909693Y167157D01*
X909773Y166988D01*
X912440Y162997D01*
X912440Y162996D01*
X912519Y162914D01*
X912595Y162835D01*
X912596Y162835D01*
X912712Y162598D01*
X912733Y162570D01*
X912754Y162527D01*
X912906Y162299D01*
X912905Y162271D01*
X912906Y162270D01*
X912963Y162091D01*
X915085Y157787D01*
X915086Y157786D01*
X915086Y157785D01*
X915151Y157698D01*
X915219Y157606D01*
X915304Y157356D01*
X915321Y157325D01*
X915336Y157279D01*
X915457Y157034D01*
X915452Y157006D01*
X915453Y157005D01*
X915452Y157004D01*
X915486Y156820D01*
X917029Y152275D01*
X917029Y152274D01*
X917082Y152178D01*
X917137Y152079D01*
X917189Y151820D01*
X917202Y151787D01*
X917210Y151739D01*
X917298Y151481D01*
X917290Y151454D01*
X917291Y151453D01*
X917290Y151452D01*
X917299Y151265D01*
X918236Y146557D01*
X918236Y146556D01*
X918277Y146452D01*
X918318Y146349D01*
X918318Y146348D01*
X918335Y146085D01*
X918344Y146050D01*
X918346Y146003D01*
X918399Y145734D01*
X918388Y145709D01*
X918388Y145708D01*
X918388Y145707D01*
X918372Y145520D01*
X918683Y140783D01*
X918688Y140761D01*
X918687Y140740D01*
X918715Y140653D01*
X918719Y140637D01*
X918719Y140480D01*
X918723Y140458D01*
X918720Y140437D01*
X918742Y140349D01*
X918745Y140333D01*
X918731Y140122D01*
X918735Y140087D01*
X918731Y140040D01*
X918744Y139850D01*
X918729Y139754D01*
X918726Y139743D01*
X918726Y139731D01*
X918723Y139708D01*
X918719Y139688D01*
X918719Y139685D01*
X918719Y139682D01*
X918719Y139545D01*
X918688Y139406D01*
X918683Y139385D01*
X918683Y139383D01*
X918683Y139379D01*
X918372Y134642D01*
X918372Y134641D01*
X918372Y134640D01*
X918385Y134532D01*
X918397Y134419D01*
X918397Y134418D01*
X918346Y134159D01*
X918345Y134124D01*
X918335Y134077D01*
X918317Y133804D01*
X918300Y133782D01*
X918299Y133781D01*
X918236Y133605D01*
X917299Y128897D01*
X917299Y128896D01*
X917297Y128782D01*
X917295Y128673D01*
X917210Y128423D01*
X917205Y128387D01*
X917189Y128342D01*
X917136Y128074D01*
X917115Y128055D01*
X917115Y128054D01*
X917114Y128053D01*
X917029Y127887D01*
X915486Y123342D01*
X915486Y123341D01*
X915485Y123341D01*
X915477Y123285D01*
X915466Y123252D01*
X915467Y123217D01*
X915452Y123120D01*
X915336Y122883D01*
X915326Y122849D01*
X915304Y122806D01*
X915216Y122547D01*
X915193Y122531D01*
X915193Y122530D01*
X915192Y122529D01*
X915085Y122375D01*
X912963Y118071D01*
X912962Y118070D01*
X912929Y117954D01*
X912901Y117855D01*
X912754Y117635D01*
X912740Y117603D01*
X912712Y117564D01*
X912592Y117318D01*
X912567Y117305D01*
X912566Y117304D01*
X912440Y117165D01*
X909773Y113174D01*
X909772Y113173D01*
X909732Y113080D01*
X909683Y112969D01*
X909683Y112968D01*
X909509Y112770D01*
X909491Y112740D01*
X909459Y112704D01*
X909307Y112477D01*
X909281Y112466D01*
X909280Y112466D01*
X909279Y112465D01*
X909136Y112344D01*
X905972Y108736D01*
X905971Y108735D01*
X905913Y108639D01*
X905856Y108544D01*
X905856Y108543D01*
X905657Y108369D01*
X905635Y108342D01*
X905599Y108311D01*
X905419Y108105D01*
X905391Y108098D01*
X905390Y108098D01*
X905232Y107996D01*
X901624Y104832D01*
X901623Y104831D01*
X901554Y104745D01*
X901484Y104656D01*
X901264Y104509D01*
X901238Y104484D01*
X901198Y104459D01*
X900993Y104278D01*
X900965Y104275D01*
X900964Y104275D01*
X900963Y104275D01*
X900794Y104195D01*
X896803Y101528D01*
X896802Y101528D01*
X896723Y101451D01*
X896641Y101373D01*
X896641Y101372D01*
X896404Y101256D01*
X896376Y101235D01*
X896333Y101214D01*
X896105Y101062D01*
X896077Y101063D01*
X896076Y101062D01*
X895897Y101005D01*
X891593Y98883D01*
X891592Y98882D01*
X891591Y98882D01*
X891496Y98811D01*
X891412Y98749D01*
X891162Y98664D01*
X891131Y98647D01*
X891085Y98632D01*
X890840Y98511D01*
X890812Y98516D01*
X890811Y98515D01*
X890810Y98516D01*
X890626Y98482D01*
X886615Y97121D01*
X886607Y97116D01*
X886598Y97115D01*
X886509Y97062D01*
X886418Y97012D01*
X886413Y97005D01*
X886405Y97000D01*
X886340Y96920D01*
X886272Y96842D01*
X886269Y96833D01*
X886263Y96826D01*
X886230Y96729D01*
X886194Y96631D01*
X886194Y96622D01*
X886191Y96614D01*
X886194Y96511D01*
X886195Y96407D01*
X886198Y96399D01*
X886198Y96389D01*
X886237Y96294D01*
X886273Y96197D01*
X886279Y96190D01*
X886282Y96182D01*
X886352Y96106D01*
X886420Y96027D01*
X886428Y96023D01*
X886434Y96016D01*
X886525Y95969D01*
X886616Y95919D01*
X886625Y95918D01*
X886633Y95913D01*
X886819Y95886D01*
X915849Y95886D01*
X915898Y95895D01*
X915992Y95902D01*
X916274Y95968D01*
X916277Y95969D01*
X916281Y95969D01*
X916454Y96040D01*
X919245Y97695D01*
X919248Y97698D01*
X919251Y97699D01*
X919395Y97819D01*
X921555Y100241D01*
X921557Y100244D01*
X921560Y100246D01*
X921661Y100404D01*
X922091Y101364D01*
X922100Y101403D01*
X922119Y101438D01*
X922133Y101533D01*
X922145Y101582D01*
X922143Y101600D01*
X922146Y101623D01*
X922146Y686052D01*
X922130Y686142D01*
X922120Y686233D01*
X922110Y686254D01*
X922107Y686273D01*
X922081Y686316D01*
X922040Y686403D01*
X921001Y687967D01*
X920994Y687974D01*
X920989Y687983D01*
X920859Y688118D01*
X918714Y689768D01*
X918705Y689773D01*
X918698Y689780D01*
X918531Y689866D01*
X915968Y690736D01*
X915920Y690743D01*
X915816Y690767D01*
X914463Y690877D01*
X914440Y690875D01*
X914411Y690879D01*
X912543Y690877D01*
X912534Y690879D01*
X912524Y690877D01*
X912511Y690879D01*
X906304Y690879D01*
X906237Y690867D01*
X906168Y690865D01*
X906127Y690847D01*
X906083Y690840D01*
X906024Y690805D01*
X905961Y690778D01*
X905928Y690748D01*
X905890Y690725D01*
X905847Y690672D01*
X905797Y690626D01*
X905777Y690586D01*
X905749Y690551D01*
X905727Y690486D01*
X905696Y690425D01*
X905691Y690381D01*
X905677Y690339D01*
X905679Y690270D01*
X905671Y690202D01*
X905682Y690159D01*
X905683Y690114D01*
X905709Y690051D01*
X905726Y689984D01*
X905754Y689941D01*
X905768Y689907D01*
X905795Y689876D01*
X905827Y689827D01*
X907866Y687502D01*
X907867Y687501D01*
X907953Y687432D01*
X908042Y687362D01*
X908189Y687142D01*
X908214Y687116D01*
X908239Y687076D01*
X908420Y686871D01*
X908423Y686843D01*
X908423Y686842D01*
X908423Y686841D01*
X908503Y686672D01*
X911170Y682681D01*
X911170Y682680D01*
X911253Y682595D01*
X911325Y682519D01*
X911326Y682519D01*
X911442Y682282D01*
X911462Y682257D01*
X911473Y682229D01*
X911478Y682223D01*
X911484Y682211D01*
X911636Y681983D01*
X911635Y681955D01*
X911636Y681954D01*
X911693Y681775D01*
X913815Y677471D01*
X913816Y677470D01*
X913816Y677469D01*
X913881Y677382D01*
X913949Y677290D01*
X914034Y677040D01*
X914051Y677009D01*
X914066Y676963D01*
X914187Y676718D01*
X914182Y676690D01*
X914183Y676689D01*
X914182Y676688D01*
X914216Y676504D01*
X915759Y671959D01*
X915759Y671958D01*
X915812Y671862D01*
X915867Y671763D01*
X915919Y671504D01*
X915932Y671471D01*
X915940Y671423D01*
X916028Y671165D01*
X916020Y671138D01*
X916021Y671137D01*
X916020Y671136D01*
X916029Y670949D01*
X916966Y666241D01*
X916966Y666240D01*
X917007Y666136D01*
X917048Y666033D01*
X917048Y666032D01*
X917065Y665769D01*
X917074Y665734D01*
X917076Y665687D01*
X917129Y665418D01*
X917118Y665393D01*
X917118Y665392D01*
X917118Y665391D01*
X917102Y665204D01*
X917413Y660467D01*
X917418Y660445D01*
X917417Y660424D01*
X917445Y660337D01*
X917449Y660321D01*
X917449Y659938D01*
X917452Y659919D01*
X917450Y659896D01*
X917470Y659592D01*
X917470Y659591D01*
X917470Y659590D01*
X917478Y659557D01*
X917478Y659553D01*
X917482Y659517D01*
X917478Y659469D01*
X917478Y659468D01*
X917470Y659430D01*
X917450Y659126D01*
X917452Y659107D01*
X917449Y659084D01*
X917449Y658721D01*
X917418Y658582D01*
X917413Y658561D01*
X917413Y658559D01*
X917413Y658555D01*
X917106Y653884D01*
X917107Y653883D01*
X917106Y653882D01*
X917119Y653778D01*
X917132Y653661D01*
X917080Y653402D01*
X917080Y653366D01*
X917069Y653320D01*
X917052Y653047D01*
X917034Y653025D01*
X917034Y653024D01*
X917033Y653023D01*
X916970Y652847D01*
X916047Y648205D01*
X916047Y648204D01*
X916046Y648203D01*
X916044Y648090D01*
X916042Y647980D01*
X916043Y647980D01*
X915958Y647730D01*
X915952Y647695D01*
X915936Y647650D01*
X915883Y647382D01*
X915863Y647362D01*
X915862Y647362D01*
X915862Y647361D01*
X915776Y647194D01*
X914254Y642712D01*
X914254Y642711D01*
X914237Y642599D01*
X914221Y642491D01*
X914221Y642490D01*
X914104Y642253D01*
X914095Y642219D01*
X914073Y642177D01*
X913985Y641918D01*
X913962Y641901D01*
X913962Y641900D01*
X913961Y641900D01*
X913854Y641746D01*
X911761Y637501D01*
X911761Y637500D01*
X911760Y637500D01*
X911726Y637381D01*
X911699Y637285D01*
X911552Y637065D01*
X911538Y637033D01*
X911511Y636994D01*
X911390Y636748D01*
X911365Y636735D01*
X911364Y636734D01*
X911238Y636595D01*
X908608Y632660D01*
X908608Y632659D01*
X908607Y632658D01*
X908567Y632566D01*
X908518Y632454D01*
X908518Y632453D01*
X908344Y632255D01*
X908326Y632225D01*
X908294Y632189D01*
X908142Y631962D01*
X908116Y631952D01*
X908115Y631951D01*
X908114Y631951D01*
X907971Y631830D01*
X904851Y628271D01*
X904850Y628271D01*
X904850Y628270D01*
X904791Y628171D01*
X904735Y628079D01*
X904536Y627904D01*
X904514Y627877D01*
X904478Y627846D01*
X904297Y627640D01*
X904270Y627633D01*
X904269Y627633D01*
X904111Y627531D01*
X900552Y624411D01*
X900552Y624410D01*
X900551Y624410D01*
X900482Y624322D01*
X900413Y624235D01*
X900412Y624235D01*
X900193Y624088D01*
X900171Y624067D01*
X900163Y624062D01*
X900160Y624059D01*
X900127Y624038D01*
X899921Y623857D01*
X899893Y623854D01*
X899892Y623854D01*
X899722Y623774D01*
X895787Y621144D01*
X895786Y621144D01*
X895707Y621067D01*
X895625Y620989D01*
X895625Y620988D01*
X895388Y620871D01*
X895360Y620850D01*
X895317Y620830D01*
X895089Y620678D01*
X895061Y620679D01*
X895060Y620678D01*
X894881Y620621D01*
X890636Y618528D01*
X890636Y618527D01*
X890635Y618527D01*
X890545Y618461D01*
X890456Y618395D01*
X890455Y618394D01*
X890205Y618309D01*
X890175Y618292D01*
X890129Y618278D01*
X889884Y618157D01*
X889856Y618161D01*
X889855Y618161D01*
X889854Y618161D01*
X889670Y618128D01*
X885188Y616606D01*
X885187Y616606D01*
X885186Y616606D01*
X885089Y616551D01*
X884991Y616498D01*
X884991Y616497D01*
X884732Y616446D01*
X884699Y616433D01*
X884652Y616424D01*
X884393Y616336D01*
X884366Y616344D01*
X884365Y616344D01*
X884364Y616344D01*
X884177Y616335D01*
X879535Y615412D01*
X879534Y615412D01*
X879429Y615370D01*
X879326Y615330D01*
X879062Y615313D01*
X879028Y615304D01*
X878980Y615302D01*
X878712Y615248D01*
X878686Y615260D01*
X878685Y615260D01*
X878498Y615276D01*
X873827Y614969D01*
X873805Y614964D01*
X873784Y614965D01*
X873697Y614937D01*
X873681Y614933D01*
X873298Y614933D01*
X873279Y614930D01*
X873256Y614932D01*
X872894Y614908D01*
X872752Y614929D01*
X872732Y614933D01*
X872729Y614933D01*
X872726Y614933D01*
X872508Y614933D01*
X872486Y614929D01*
X872465Y614932D01*
X872377Y614910D01*
X872361Y614907D01*
X871978Y614932D01*
X871959Y614930D01*
X871936Y614933D01*
X871573Y614933D01*
X871434Y614964D01*
X871413Y614969D01*
X871411Y614969D01*
X871407Y614969D01*
X866769Y615273D01*
X866768Y615273D01*
X866663Y615261D01*
X866546Y615248D01*
X866287Y615299D01*
X866252Y615300D01*
X866205Y615310D01*
X865932Y615328D01*
X865910Y615346D01*
X865909Y615346D01*
X865908Y615347D01*
X865732Y615410D01*
X861123Y616327D01*
X861122Y616327D01*
X861121Y616327D01*
X861008Y616329D01*
X860898Y616331D01*
X860648Y616416D01*
X860613Y616421D01*
X860568Y616437D01*
X860299Y616490D01*
X860280Y616511D01*
X860279Y616511D01*
X860279Y616512D01*
X860112Y616597D01*
X855662Y618108D01*
X855661Y618108D01*
X855660Y618109D01*
X855552Y618125D01*
X855440Y618142D01*
X855439Y618142D01*
X855202Y618258D01*
X855168Y618268D01*
X855126Y618290D01*
X854867Y618378D01*
X854850Y618401D01*
X854849Y618402D01*
X854695Y618509D01*
X850480Y620587D01*
X850479Y620587D01*
X850479Y620588D01*
X850369Y620619D01*
X850264Y620649D01*
X850044Y620796D01*
X850012Y620810D01*
X849973Y620837D01*
X849727Y620958D01*
X849714Y620983D01*
X849713Y620984D01*
X849574Y621110D01*
X845666Y623721D01*
X845665Y623722D01*
X845572Y623762D01*
X845461Y623811D01*
X845460Y623811D01*
X845262Y623985D01*
X845232Y624003D01*
X845196Y624036D01*
X844968Y624188D01*
X844958Y624214D01*
X844957Y624215D01*
X844836Y624358D01*
X841303Y627457D01*
X841302Y627457D01*
X841302Y627458D01*
X841205Y627516D01*
X841111Y627573D01*
X841110Y627573D01*
X840936Y627771D01*
X840908Y627793D01*
X840877Y627830D01*
X840672Y628010D01*
X840665Y628038D01*
X840664Y628039D01*
X840563Y628197D01*
X837464Y631730D01*
X837464Y631731D01*
X837463Y631731D01*
X837378Y631799D01*
X837289Y631870D01*
X837288Y631870D01*
X837142Y632090D01*
X837117Y632115D01*
X837091Y632156D01*
X836911Y632361D01*
X836908Y632389D01*
X836907Y632390D01*
X836907Y632391D01*
X836827Y632560D01*
X834216Y636468D01*
X834216Y636469D01*
X834215Y636469D01*
X834141Y636546D01*
X834061Y636630D01*
X834060Y636630D01*
X833943Y636867D01*
X833922Y636895D01*
X833902Y636938D01*
X833750Y637166D01*
X833751Y637194D01*
X833750Y637195D01*
X833693Y637374D01*
X831615Y641589D01*
X831614Y641590D01*
X831548Y641679D01*
X831481Y641770D01*
X831396Y642020D01*
X831379Y642051D01*
X831364Y642096D01*
X831243Y642342D01*
X831248Y642370D01*
X831247Y642370D01*
X831248Y642371D01*
X831214Y642556D01*
X829703Y647006D01*
X829703Y647007D01*
X829650Y647102D01*
X829595Y647202D01*
X829595Y647203D01*
X829543Y647462D01*
X829530Y647494D01*
X829522Y647542D01*
X829434Y647801D01*
X829442Y647828D01*
X829442Y647829D01*
X829433Y648017D01*
X828516Y652626D01*
X828516Y652627D01*
X828476Y652728D01*
X828434Y652835D01*
X828416Y653099D01*
X828408Y653133D01*
X828405Y653181D01*
X828352Y653449D01*
X828363Y653475D01*
X828364Y653476D01*
X828379Y653663D01*
X828075Y658301D01*
X828070Y658323D01*
X828071Y658344D01*
X828043Y658431D01*
X828039Y658447D01*
X828039Y658830D01*
X828036Y658849D01*
X828038Y658872D01*
X828014Y659234D01*
X828035Y659376D01*
X828039Y659396D01*
X828039Y659399D01*
X828039Y659402D01*
X828039Y659874D01*
X828035Y659896D01*
X828038Y659917D01*
X828016Y660005D01*
X828013Y660021D01*
X828038Y660404D01*
X828036Y660423D01*
X828039Y660446D01*
X828039Y660809D01*
X828070Y660948D01*
X828075Y660969D01*
X828075Y660971D01*
X828075Y660975D01*
X828382Y665646D01*
X828381Y665647D01*
X828382Y665648D01*
X828370Y665749D01*
X828356Y665869D01*
X828408Y666128D01*
X828408Y666164D01*
X828419Y666210D01*
X828436Y666483D01*
X828454Y666505D01*
X828454Y666506D01*
X828455Y666507D01*
X828518Y666683D01*
X829441Y671325D01*
X829441Y671326D01*
X829442Y671327D01*
X829444Y671440D01*
X829446Y671550D01*
X829445Y671550D01*
X829530Y671800D01*
X829536Y671835D01*
X829552Y671880D01*
X829605Y672148D01*
X829625Y672168D01*
X829626Y672168D01*
X829626Y672169D01*
X829712Y672336D01*
X831234Y676818D01*
X831234Y676819D01*
X831250Y676927D01*
X831267Y677039D01*
X831267Y677040D01*
X831384Y677277D01*
X831393Y677311D01*
X831415Y677353D01*
X831503Y677612D01*
X831526Y677629D01*
X831526Y677630D01*
X831527Y677630D01*
X831634Y677784D01*
X833727Y682029D01*
X833727Y682030D01*
X833728Y682030D01*
X833759Y682140D01*
X833789Y682245D01*
X833936Y682465D01*
X833950Y682497D01*
X833977Y682536D01*
X834098Y682782D01*
X834123Y682795D01*
X834124Y682796D01*
X834250Y682935D01*
X836880Y686870D01*
X836880Y686871D01*
X836881Y686872D01*
X836922Y686967D01*
X836970Y687076D01*
X836970Y687077D01*
X837144Y687275D01*
X837162Y687305D01*
X837194Y687341D01*
X837346Y687568D01*
X837372Y687578D01*
X837373Y687579D01*
X837374Y687579D01*
X837517Y687700D01*
X839382Y689827D01*
X839417Y689886D01*
X839460Y689939D01*
X839474Y689981D01*
X839497Y690019D01*
X839510Y690086D01*
X839532Y690151D01*
X839531Y690196D01*
X839539Y690239D01*
X839527Y690307D01*
X839525Y690376D01*
X839509Y690417D01*
X839501Y690461D01*
X839467Y690520D01*
X839441Y690583D01*
X839411Y690616D01*
X839389Y690655D01*
X839336Y690698D01*
X839290Y690749D01*
X839250Y690769D01*
X839216Y690798D01*
X839151Y690820D01*
X839090Y690852D01*
X839039Y690859D01*
X839004Y690871D01*
X838963Y690871D01*
X838905Y690879D01*
X688882Y690879D01*
X688857Y690875D01*
X688832Y690877D01*
X688716Y690851D01*
X687002Y690879D01*
X686997Y690878D01*
X686992Y690879D01*
X686889Y690879D01*
X686872Y690876D01*
X686850Y690878D01*
X685459Y690794D01*
X685410Y690783D01*
X685315Y690769D01*
X682608Y689960D01*
X682605Y689959D01*
X682602Y689958D01*
X682433Y689877D01*
X680097Y688288D01*
X680095Y688285D01*
X680092Y688284D01*
X679955Y688155D01*
X678209Y685934D01*
X678207Y685932D01*
X678205Y685929D01*
X678114Y685765D01*
X677332Y683685D01*
X677329Y683665D01*
X677319Y683647D01*
X677294Y683474D01*
X677292Y683464D01*
X677292Y683463D01*
X677292Y683462D01*
X677292Y612774D01*
X661402Y612774D01*
X661381Y612771D01*
X661376Y612771D01*
X661233Y612745D01*
X661189Y612737D01*
X661185Y612735D01*
X661181Y612735D01*
X661176Y612732D01*
X652511Y609741D01*
X649714Y609656D01*
X649693Y609652D01*
X649672Y609654D01*
X649510Y609613D01*
X649494Y609610D01*
X649492Y609609D01*
X649490Y609608D01*
X649468Y609599D01*
X647844Y609599D01*
X647835Y609598D01*
X647825Y609599D01*
X646202Y609550D01*
X646180Y609558D01*
X646159Y609562D01*
X646140Y609572D01*
X645977Y609596D01*
X645959Y609599D01*
X645957Y609599D01*
X645955Y609599D01*
X448543Y609599D01*
X448529Y609597D01*
X448512Y609599D01*
X444177Y609386D01*
X435366Y611843D01*
X434144Y612666D01*
X434058Y612704D01*
X433975Y612747D01*
X433954Y612750D01*
X433938Y612757D01*
X433888Y612759D01*
X433789Y612774D01*
X421004Y612774D01*
X421004Y627480D01*
X421002Y627493D01*
X421004Y627506D01*
X420969Y627690D01*
X419172Y632828D01*
X419149Y634264D01*
X419144Y634290D01*
X419146Y634315D01*
X419113Y634448D01*
X419106Y634485D01*
X419103Y634490D01*
X419101Y634497D01*
X419099Y634502D01*
X419099Y637466D01*
X419098Y637470D01*
X419099Y637476D01*
X419073Y639179D01*
X419092Y639308D01*
X419099Y639344D01*
X419098Y639350D01*
X419099Y639358D01*
X419099Y655464D01*
X419083Y655554D01*
X419073Y655645D01*
X419063Y655664D01*
X419060Y655685D01*
X419013Y655764D01*
X418972Y655846D01*
X418956Y655860D01*
X418945Y655878D01*
X418874Y655936D01*
X418807Y655998D01*
X418788Y656006D01*
X418771Y656019D01*
X418684Y656049D01*
X418600Y656084D01*
X418579Y656084D01*
X418559Y656091D01*
X418467Y656088D01*
X418375Y656092D01*
X418355Y656085D01*
X418334Y656085D01*
X418250Y656050D01*
X418162Y656021D01*
X418146Y656008D01*
X418127Y656000D01*
X418059Y655938D01*
X417987Y655881D01*
X417976Y655863D01*
X417961Y655849D01*
X417919Y655767D01*
X417872Y655689D01*
X417867Y655666D01*
X417858Y655649D01*
X417848Y655577D01*
X417832Y655505D01*
X417742Y654138D01*
X417743Y654137D01*
X417742Y654136D01*
X417755Y654027D01*
X417768Y653915D01*
X417716Y653656D01*
X417716Y653620D01*
X417705Y653574D01*
X417688Y653301D01*
X417670Y653279D01*
X417670Y653278D01*
X417669Y653277D01*
X417606Y653101D01*
X416683Y648459D01*
X416683Y648458D01*
X416682Y648457D01*
X416680Y648344D01*
X416678Y648234D01*
X416679Y648234D01*
X416594Y647984D01*
X416588Y647949D01*
X416572Y647904D01*
X416519Y647636D01*
X416499Y647616D01*
X416498Y647616D01*
X416498Y647615D01*
X416412Y647448D01*
X414890Y642966D01*
X414890Y642965D01*
X414873Y642853D01*
X414857Y642745D01*
X414857Y642744D01*
X414740Y642507D01*
X414731Y642473D01*
X414709Y642431D01*
X414621Y642172D01*
X414598Y642155D01*
X414598Y642154D01*
X414597Y642154D01*
X414490Y642000D01*
X412397Y637755D01*
X412397Y637754D01*
X412396Y637754D01*
X412365Y637644D01*
X412335Y637539D01*
X412188Y637319D01*
X412174Y637287D01*
X412147Y637248D01*
X412026Y637002D01*
X412001Y636989D01*
X412000Y636988D01*
X411874Y636849D01*
X409244Y632914D01*
X409244Y632913D01*
X409243Y632912D01*
X409202Y632818D01*
X409154Y632708D01*
X409154Y632707D01*
X408980Y632509D01*
X408962Y632479D01*
X408930Y632443D01*
X408778Y632216D01*
X408752Y632206D01*
X408751Y632205D01*
X408750Y632205D01*
X408607Y632084D01*
X405487Y628525D01*
X405486Y628525D01*
X405486Y628524D01*
X405428Y628428D01*
X405371Y628333D01*
X405172Y628158D01*
X405150Y628131D01*
X405114Y628100D01*
X404933Y627894D01*
X404906Y627887D01*
X404905Y627887D01*
X404747Y627785D01*
X401188Y624665D01*
X401188Y624664D01*
X401187Y624664D01*
X401119Y624578D01*
X401049Y624489D01*
X401048Y624489D01*
X400829Y624342D01*
X400803Y624317D01*
X400763Y624292D01*
X400557Y624111D01*
X400529Y624108D01*
X400528Y624108D01*
X400358Y624028D01*
X396423Y621398D01*
X396422Y621398D01*
X396343Y621321D01*
X396261Y621243D01*
X396261Y621242D01*
X396024Y621125D01*
X395996Y621104D01*
X395953Y621084D01*
X395725Y620932D01*
X395697Y620933D01*
X395696Y620932D01*
X395517Y620875D01*
X391272Y618782D01*
X391272Y618781D01*
X391271Y618781D01*
X391183Y618716D01*
X391092Y618649D01*
X391091Y618648D01*
X390841Y618563D01*
X390811Y618546D01*
X390765Y618532D01*
X390520Y618411D01*
X390492Y618415D01*
X390491Y618415D01*
X390490Y618415D01*
X390306Y618382D01*
X385824Y616860D01*
X385823Y616860D01*
X385822Y616860D01*
X385726Y616806D01*
X385627Y616752D01*
X385627Y616751D01*
X385368Y616700D01*
X385335Y616687D01*
X385288Y616678D01*
X385029Y616590D01*
X385002Y616598D01*
X385001Y616598D01*
X385000Y616598D01*
X384813Y616589D01*
X380171Y615666D01*
X380170Y615666D01*
X380064Y615624D01*
X379962Y615584D01*
X379698Y615567D01*
X379664Y615558D01*
X379616Y615556D01*
X379348Y615502D01*
X379322Y615514D01*
X379321Y615514D01*
X379134Y615530D01*
X374463Y615223D01*
X374441Y615218D01*
X374420Y615219D01*
X374333Y615191D01*
X374317Y615187D01*
X374160Y615187D01*
X374138Y615183D01*
X374117Y615186D01*
X374029Y615164D01*
X374013Y615161D01*
X373802Y615175D01*
X373767Y615171D01*
X373720Y615175D01*
X373530Y615162D01*
X373388Y615183D01*
X373368Y615187D01*
X373365Y615187D01*
X373362Y615187D01*
X373225Y615187D01*
X373086Y615218D01*
X373065Y615223D01*
X373063Y615223D01*
X373059Y615223D01*
X368289Y615536D01*
X368288Y615536D01*
X368287Y615536D01*
X368182Y615524D01*
X368066Y615511D01*
X368065Y615511D01*
X367806Y615562D01*
X367771Y615563D01*
X367724Y615573D01*
X367451Y615591D01*
X367429Y615608D01*
X367428Y615609D01*
X367251Y615673D01*
X362512Y616615D01*
X362511Y616615D01*
X362510Y616616D01*
X362397Y616617D01*
X362287Y616620D01*
X362287Y616619D01*
X362037Y616704D01*
X362002Y616710D01*
X361957Y616726D01*
X361688Y616779D01*
X361669Y616799D01*
X361668Y616800D01*
X361501Y616886D01*
X356925Y618440D01*
X356924Y618440D01*
X356923Y618440D01*
X356815Y618456D01*
X356703Y618473D01*
X356466Y618590D01*
X356432Y618599D01*
X356389Y618621D01*
X356130Y618709D01*
X356113Y618732D01*
X356112Y618733D01*
X355958Y618840D01*
X351624Y620977D01*
X351623Y620978D01*
X351513Y621009D01*
X351408Y621039D01*
X351188Y621186D01*
X351156Y621200D01*
X351117Y621228D01*
X350871Y621348D01*
X350858Y621373D01*
X350857Y621374D01*
X350718Y621500D01*
X346700Y624185D01*
X346699Y624186D01*
X346698Y624186D01*
X346606Y624226D01*
X346494Y624275D01*
X346295Y624449D01*
X346265Y624467D01*
X346229Y624500D01*
X346002Y624652D01*
X345992Y624678D01*
X345991Y624678D01*
X345991Y624679D01*
X345870Y624822D01*
X342236Y628009D01*
X342235Y628010D01*
X342142Y628066D01*
X342044Y628124D01*
X341870Y628323D01*
X341842Y628345D01*
X341811Y628382D01*
X341605Y628562D01*
X341599Y628589D01*
X341598Y628590D01*
X341598Y628591D01*
X341497Y628748D01*
X338310Y632382D01*
X338309Y632383D01*
X338223Y632451D01*
X338135Y632522D01*
X338134Y632522D01*
X337988Y632741D01*
X337963Y632767D01*
X337937Y632807D01*
X337757Y633013D01*
X337754Y633041D01*
X337753Y633041D01*
X337753Y633042D01*
X337673Y633212D01*
X334988Y637230D01*
X334988Y637231D01*
X334914Y637307D01*
X334833Y637392D01*
X334832Y637392D01*
X334716Y637629D01*
X334694Y637657D01*
X334674Y637701D01*
X334522Y637928D01*
X334523Y637956D01*
X334523Y637957D01*
X334465Y638136D01*
X332328Y642470D01*
X332327Y642471D01*
X332327Y642472D01*
X332265Y642556D01*
X332195Y642651D01*
X332194Y642651D01*
X332109Y642901D01*
X332092Y642932D01*
X332078Y642978D01*
X331957Y643223D01*
X331961Y643251D01*
X331961Y643252D01*
X331945Y643340D01*
X331944Y643374D01*
X331935Y643397D01*
X331928Y643437D01*
X330374Y648013D01*
X330374Y648014D01*
X330320Y648110D01*
X330266Y648209D01*
X330265Y648210D01*
X330214Y648469D01*
X330201Y648502D01*
X330192Y648549D01*
X330104Y648808D01*
X330112Y648835D01*
X330112Y648836D01*
X330103Y649024D01*
X329161Y653763D01*
X329160Y653764D01*
X329160Y653765D01*
X329119Y653870D01*
X329079Y653972D01*
X329078Y653972D01*
X329061Y654236D01*
X329052Y654270D01*
X329050Y654318D01*
X328997Y654586D01*
X329008Y654612D01*
X329008Y654613D01*
X329008Y654614D01*
X329024Y654801D01*
X328711Y659571D01*
X328706Y659593D01*
X328707Y659614D01*
X328679Y659701D01*
X328675Y659717D01*
X328675Y660100D01*
X328672Y660119D01*
X328674Y660142D01*
X328654Y660446D01*
X328654Y660447D01*
X328654Y660448D01*
X328646Y660481D01*
X328646Y660486D01*
X328642Y660521D01*
X328646Y660568D01*
X328646Y660570D01*
X328654Y660608D01*
X328674Y660912D01*
X328672Y660931D01*
X328675Y660954D01*
X328675Y661317D01*
X328706Y661456D01*
X328711Y661477D01*
X328711Y661479D01*
X328711Y661483D01*
X329013Y666088D01*
X329013Y666089D01*
X329001Y666194D01*
X328988Y666311D01*
X329039Y666570D01*
X329040Y666600D01*
X329046Y666617D01*
X329045Y666630D01*
X329050Y666652D01*
X329068Y666925D01*
X329086Y666947D01*
X329086Y666948D01*
X329150Y667125D01*
X330060Y671702D01*
X330060Y671703D01*
X330062Y671812D01*
X330064Y671926D01*
X330064Y671927D01*
X330149Y672177D01*
X330154Y672212D01*
X330170Y672257D01*
X330224Y672525D01*
X330244Y672544D01*
X330244Y672545D01*
X330245Y672546D01*
X330331Y672712D01*
X331831Y677131D01*
X331831Y677132D01*
X331847Y677241D01*
X331864Y677353D01*
X331981Y677590D01*
X331991Y677624D01*
X332013Y677667D01*
X332101Y677926D01*
X332123Y677943D01*
X332124Y677943D01*
X332124Y677944D01*
X332231Y678098D01*
X334295Y682283D01*
X334295Y682284D01*
X334296Y682284D01*
X334325Y682387D01*
X334333Y682414D01*
X334353Y682473D01*
X334353Y682483D01*
X334357Y682499D01*
X334504Y682719D01*
X334518Y682751D01*
X334545Y682790D01*
X334666Y683036D01*
X334691Y683049D01*
X334692Y683050D01*
X334818Y683189D01*
X337411Y687069D01*
X337411Y687070D01*
X337412Y687070D01*
X337450Y687159D01*
X337501Y687275D01*
X337675Y687474D01*
X337693Y687504D01*
X337725Y687539D01*
X337877Y687767D01*
X337903Y687777D01*
X337904Y687778D01*
X337905Y687778D01*
X338048Y687899D01*
X339738Y689827D01*
X339774Y689886D01*
X339817Y689939D01*
X339831Y689981D01*
X339854Y690019D01*
X339867Y690086D01*
X339889Y690151D01*
X339887Y690196D01*
X339896Y690239D01*
X339884Y690307D01*
X339882Y690376D01*
X339865Y690417D01*
X339858Y690461D01*
X339823Y690520D01*
X339798Y690583D01*
X339768Y690616D01*
X339745Y690655D01*
X339693Y690698D01*
X339646Y690749D01*
X339607Y690769D01*
X339573Y690798D01*
X339508Y690820D01*
X339447Y690852D01*
X339396Y690859D01*
X339361Y690871D01*
X339319Y690871D01*
X339261Y690879D01*
X196491Y690879D01*
X196424Y690867D01*
X196355Y690865D01*
X196314Y690847D01*
X196270Y690840D01*
X196211Y690805D01*
X196148Y690778D01*
X196115Y690748D01*
X196077Y690725D01*
X196034Y690672D01*
X195984Y690626D01*
X195964Y690586D01*
X195936Y690551D01*
X195914Y690486D01*
X195883Y690425D01*
X195878Y690381D01*
X195864Y690339D01*
X195866Y690270D01*
X195858Y690202D01*
X195869Y690159D01*
X195870Y690114D01*
X195896Y690051D01*
X195913Y689984D01*
X195941Y689941D01*
X195955Y689907D01*
X195983Y689876D01*
X196014Y689827D01*
X196368Y689423D01*
X196369Y689423D01*
X196369Y689422D01*
X196455Y689354D01*
X196544Y689283D01*
X196691Y689063D01*
X196715Y689038D01*
X196741Y688998D01*
X196922Y688792D01*
X196925Y688764D01*
X196925Y688763D01*
X197005Y688593D01*
X199598Y684713D01*
X199598Y684712D01*
X199599Y684712D01*
X199675Y684633D01*
X199753Y684551D01*
X199754Y684551D01*
X199871Y684314D01*
X199892Y684286D01*
X199912Y684243D01*
X200064Y684015D01*
X200063Y683987D01*
X200064Y683986D01*
X200121Y683807D01*
X202185Y679622D01*
X202185Y679621D01*
X202186Y679620D01*
X202249Y679534D01*
X202318Y679441D01*
X202403Y679191D01*
X202420Y679160D01*
X202435Y679114D01*
X202556Y678869D01*
X202552Y678841D01*
X202552Y678840D01*
X202585Y678655D01*
X204085Y674236D01*
X204086Y674236D01*
X204086Y674235D01*
X204139Y674139D01*
X204194Y674040D01*
X204246Y673781D01*
X204258Y673748D01*
X204267Y673701D01*
X204355Y673442D01*
X204347Y673415D01*
X204347Y673414D01*
X204347Y673413D01*
X204356Y673226D01*
X205266Y668649D01*
X205267Y668648D01*
X205267Y668647D01*
X205308Y668542D01*
X205348Y668440D01*
X205349Y668440D01*
X205366Y668176D01*
X205374Y668142D01*
X205377Y668094D01*
X205430Y667826D01*
X205419Y667800D01*
X205419Y667799D01*
X205418Y667798D01*
X205403Y667612D01*
X205705Y663007D01*
X205710Y662985D01*
X205709Y662964D01*
X205737Y662877D01*
X205741Y662861D01*
X205741Y662478D01*
X205744Y662459D01*
X205742Y662436D01*
X205766Y662074D01*
X205745Y661932D01*
X205741Y661912D01*
X205741Y661909D01*
X205741Y661906D01*
X205741Y659656D01*
X205745Y659634D01*
X205742Y659613D01*
X205764Y659525D01*
X205767Y659509D01*
X205742Y659126D01*
X205744Y659107D01*
X205741Y659084D01*
X205741Y658721D01*
X205710Y658582D01*
X205705Y658561D01*
X205705Y658559D01*
X205705Y658555D01*
X205409Y654050D01*
X205409Y654049D01*
X205409Y654048D01*
X205421Y653944D01*
X205423Y653895D01*
X205428Y653881D01*
X205435Y653827D01*
X205435Y653826D01*
X205383Y653568D01*
X205383Y653532D01*
X205372Y653485D01*
X205354Y653212D01*
X205337Y653190D01*
X205336Y653189D01*
X205273Y653013D01*
X204382Y648533D01*
X204382Y648532D01*
X204380Y648415D01*
X204378Y648309D01*
X204293Y648059D01*
X204288Y648024D01*
X204271Y647978D01*
X204218Y647710D01*
X204198Y647691D01*
X204198Y647690D01*
X204197Y647690D01*
X204111Y647523D01*
X202643Y643198D01*
X202643Y643197D01*
X202627Y643088D01*
X202610Y642977D01*
X202610Y642976D01*
X202493Y642739D01*
X202483Y642705D01*
X202461Y642663D01*
X202373Y642404D01*
X202351Y642387D01*
X202350Y642386D01*
X202243Y642232D01*
X200607Y638915D01*
X200578Y638815D01*
X200547Y638716D01*
X200547Y638707D01*
X200545Y638699D01*
X200553Y638596D01*
X200558Y638491D01*
X200561Y638484D01*
X200562Y638475D01*
X200605Y638381D01*
X200646Y638285D01*
X200652Y638279D01*
X200655Y638271D01*
X200730Y638197D01*
X200801Y638123D01*
X200808Y638119D01*
X200814Y638113D01*
X200909Y638070D01*
X201002Y638024D01*
X201011Y638023D01*
X201018Y638020D01*
X201123Y638012D01*
X201226Y638002D01*
X201234Y638004D01*
X201242Y638003D01*
X201281Y638015D01*
X201408Y638044D01*
X201627Y638130D01*
X201670Y638157D01*
X201752Y638197D01*
X202298Y638570D01*
X203025Y638723D01*
X203036Y638727D01*
X203049Y638728D01*
X203222Y638800D01*
X203857Y639184D01*
X204512Y639283D01*
X204560Y639300D01*
X204649Y639320D01*
X205265Y639563D01*
X206006Y639550D01*
X206019Y639552D01*
X206032Y639550D01*
X206217Y639582D01*
X206921Y639814D01*
X207581Y639765D01*
X207632Y639771D01*
X207723Y639771D01*
X208378Y639870D01*
X209098Y639693D01*
X209110Y639692D01*
X209122Y639687D01*
X209310Y639677D01*
X210048Y639747D01*
X210681Y639552D01*
X210731Y639546D01*
X210821Y639526D01*
X211481Y639477D01*
X212143Y639144D01*
X212156Y639140D01*
X212166Y639133D01*
X212346Y639081D01*
X213082Y638985D01*
X213655Y638654D01*
X213703Y638637D01*
X213786Y638598D01*
X214419Y638403D01*
X214699Y638171D01*
X214741Y638148D01*
X214778Y638116D01*
X214852Y638085D01*
X214894Y638061D01*
X214920Y638057D01*
X214951Y638044D01*
X215013Y638029D01*
X215962Y637330D01*
X215990Y637316D01*
X216022Y637291D01*
X217043Y636702D01*
X217288Y636383D01*
X217311Y636362D01*
X217415Y636259D01*
X221121Y633528D01*
X221127Y633526D01*
X221132Y633520D01*
X222442Y632599D01*
X222450Y632584D01*
X222554Y632480D01*
X222558Y632475D01*
X222857Y631981D01*
X222881Y631953D01*
X222898Y631921D01*
X222972Y631850D01*
X223005Y631813D01*
X223019Y631805D01*
X223033Y631791D01*
X223280Y631617D01*
X223326Y631595D01*
X223403Y631549D01*
X224022Y631292D01*
X224669Y630646D01*
X224705Y630621D01*
X224751Y630577D01*
X225524Y630030D01*
X225537Y630010D01*
X225576Y629982D01*
X225608Y629947D01*
X225666Y629917D01*
X225719Y629879D01*
X225765Y629866D01*
X225808Y629844D01*
X225872Y629837D01*
X225935Y629819D01*
X225991Y629822D01*
X226030Y629818D01*
X226068Y629827D01*
X226122Y629830D01*
X226761Y629962D01*
X228425Y629641D01*
X228426Y629641D01*
X228427Y629641D01*
X230087Y629325D01*
X231500Y628393D01*
X231501Y628392D01*
X254543Y613270D01*
X254558Y613264D01*
X254569Y613254D01*
X254743Y613184D01*
X254840Y613161D01*
X256033Y612294D01*
X256045Y612288D01*
X256058Y612277D01*
X257290Y611468D01*
X257346Y611385D01*
X257357Y611374D01*
X257364Y611360D01*
X257498Y611229D01*
X257567Y611179D01*
X257611Y611158D01*
X257704Y611103D01*
X258220Y610896D01*
X258954Y610179D01*
X258986Y610157D01*
X259025Y610119D01*
X259855Y609516D01*
X260145Y609041D01*
X260178Y609004D01*
X260243Y608919D01*
X260630Y608540D01*
X260662Y608518D01*
X260688Y608490D01*
X260718Y608475D01*
X260755Y608445D01*
X261236Y608165D01*
X261858Y607349D01*
X261887Y607323D01*
X261919Y607280D01*
X262653Y606563D01*
X262872Y606051D01*
X262899Y606010D01*
X262951Y605916D01*
X263279Y605485D01*
X263315Y605452D01*
X263389Y605373D01*
X263824Y605026D01*
X264321Y604129D01*
X264346Y604099D01*
X264372Y604051D01*
X264994Y603235D01*
X265136Y602697D01*
X265157Y602653D01*
X265195Y602552D01*
X265457Y602078D01*
X265488Y602040D01*
X265549Y601952D01*
X265930Y601545D01*
X266292Y600585D01*
X266311Y600552D01*
X266330Y600501D01*
X266828Y599603D01*
X266890Y599050D01*
X266904Y599004D01*
X266927Y598898D01*
X267118Y598392D01*
X267143Y598350D01*
X267191Y598253D01*
X267508Y597796D01*
X267727Y596793D01*
X267742Y596758D01*
X267753Y596705D01*
X268115Y595744D01*
X268097Y595188D01*
X268104Y595140D01*
X268111Y595032D01*
X268227Y594503D01*
X268246Y594458D01*
X268279Y594356D01*
X268527Y593857D01*
X268598Y592833D01*
X268608Y592796D01*
X268611Y592742D01*
X268830Y591740D01*
X268732Y591192D01*
X268732Y591143D01*
X268723Y591036D01*
X268737Y590834D01*
X268739Y590826D01*
X268738Y590819D01*
X268783Y590637D01*
X268865Y590436D01*
X268861Y589076D01*
X268864Y589056D01*
X268862Y589030D01*
X268957Y587673D01*
X268888Y587467D01*
X268886Y587460D01*
X268883Y587453D01*
X268855Y587268D01*
X268612Y515613D01*
X268617Y515583D01*
X268614Y515554D01*
X268619Y515536D01*
X268606Y513800D01*
X268606Y513799D01*
X268606Y513797D01*
X268604Y513197D01*
X268611Y513154D01*
X268612Y513090D01*
X268758Y512218D01*
X268604Y511550D01*
X268602Y511500D01*
X268588Y511412D01*
X268583Y510726D01*
X268278Y510007D01*
X268275Y509991D01*
X268267Y509977D01*
X268229Y509793D01*
X268187Y509013D01*
X267891Y508394D01*
X267878Y508346D01*
X267846Y508263D01*
X267691Y507595D01*
X267238Y506959D01*
X267231Y506944D01*
X267220Y506932D01*
X267143Y506761D01*
X266933Y506009D01*
X266509Y505469D01*
X266486Y505425D01*
X266436Y505351D01*
X266140Y504732D01*
X265559Y504210D01*
X265549Y504197D01*
X265536Y504188D01*
X265424Y504038D01*
X265054Y503349D01*
X264524Y502915D01*
X264491Y502876D01*
X264427Y502815D01*
X264003Y502276D01*
X263628Y502065D01*
X263589Y502032D01*
X263544Y502008D01*
X263492Y501952D01*
X263455Y501922D01*
X263441Y501897D01*
X263416Y501871D01*
X263359Y501788D01*
X262361Y501139D01*
X262339Y501118D01*
X262304Y501098D01*
X261383Y500343D01*
X261010Y500230D01*
X260985Y500218D01*
X260847Y500155D01*
X257664Y498086D01*
X257628Y498052D01*
X257561Y498002D01*
X257042Y497484D01*
X256257Y497158D01*
X256218Y497133D01*
X256154Y497104D01*
X255440Y496641D01*
X254719Y496507D01*
X254673Y496489D01*
X254592Y496469D01*
X253915Y496188D01*
X253064Y496188D01*
X253019Y496180D01*
X252948Y496178D01*
X252112Y496022D01*
X251394Y496174D01*
X251345Y496176D01*
X251263Y496188D01*
X250529Y496188D01*
X249744Y496514D01*
X249698Y496524D01*
X249632Y496548D01*
X248800Y496725D01*
X248196Y497140D01*
X248150Y497160D01*
X248079Y497203D01*
X247402Y497484D01*
X246800Y498085D01*
X246762Y498112D01*
X246711Y498160D01*
X246010Y498641D01*
X245610Y499256D01*
X245576Y499292D01*
X245527Y499359D01*
X245008Y499878D01*
X244682Y500663D01*
X244657Y500702D01*
X244628Y500766D01*
X244165Y501479D01*
X244031Y502201D01*
X244013Y502247D01*
X243993Y502328D01*
X243712Y503005D01*
X243712Y503856D01*
X243704Y503901D01*
X243702Y503972D01*
X243546Y504808D01*
X243698Y505526D01*
X243700Y505575D01*
X243712Y505657D01*
X243712Y585969D01*
X243707Y585999D01*
X243708Y586040D01*
X243616Y586854D01*
X243604Y586893D01*
X243603Y586897D01*
X243603Y586926D01*
X243599Y586936D01*
X243597Y586953D01*
X243433Y587537D01*
X243415Y587574D01*
X243399Y587631D01*
X243145Y588182D01*
X243121Y588216D01*
X243096Y588270D01*
X242758Y588773D01*
X242729Y588803D01*
X242695Y588852D01*
X242282Y589296D01*
X242249Y589321D01*
X242208Y589364D01*
X241441Y589961D01*
X241421Y589971D01*
X241400Y589990D01*
X220453Y603766D01*
X220387Y603794D01*
X220326Y603830D01*
X220285Y603838D01*
X220247Y603854D01*
X220175Y603858D01*
X220105Y603870D01*
X220064Y603863D01*
X220023Y603865D01*
X219954Y603843D01*
X219884Y603831D01*
X219848Y603810D01*
X219809Y603797D01*
X219752Y603753D01*
X219691Y603717D01*
X219665Y603685D01*
X219632Y603659D01*
X219594Y603598D01*
X219549Y603543D01*
X219536Y603503D01*
X219514Y603468D01*
X219500Y603398D01*
X219477Y603330D01*
X219477Y603283D01*
X219470Y603248D01*
X219477Y603205D01*
X219477Y603143D01*
X219486Y603082D01*
X219215Y601998D01*
X219213Y601964D01*
X219201Y601919D01*
X219067Y600810D01*
X218840Y600405D01*
X218826Y600365D01*
X218778Y600248D01*
X218665Y599798D01*
X218000Y598900D01*
X217984Y598869D01*
X217956Y598833D01*
X217409Y597858D01*
X217044Y597572D01*
X217015Y597540D01*
X216926Y597451D01*
X216650Y597078D01*
X215691Y596503D01*
X215665Y596480D01*
X215626Y596458D01*
X214747Y595767D01*
X214300Y595642D01*
X214287Y595636D01*
X214284Y595635D01*
X214275Y595630D01*
X214262Y595623D01*
X214145Y595575D01*
X213957Y595462D01*
X213876Y595392D01*
X213794Y595322D01*
X213792Y595318D01*
X213788Y595315D01*
X213737Y595221D01*
X213685Y595127D01*
X213684Y595122D01*
X213681Y595118D01*
X213666Y595012D01*
X213650Y594905D01*
X213651Y594900D01*
X213650Y594895D01*
X213673Y594791D01*
X213694Y594685D01*
X213697Y594681D01*
X213698Y594676D01*
X213755Y594587D01*
X213812Y594494D01*
X213816Y594491D01*
X213819Y594487D01*
X213843Y594469D01*
X213957Y594375D01*
X215133Y593667D01*
X215195Y593584D01*
X215206Y593574D01*
X215213Y593560D01*
X215352Y593434D01*
X215438Y593377D01*
X216253Y592153D01*
X216263Y592143D01*
X216271Y592128D01*
X216345Y592028D01*
X216375Y591999D01*
X216399Y591965D01*
X216456Y591923D01*
X216508Y591874D01*
X216547Y591858D01*
X216581Y591833D01*
X216649Y591814D01*
X216715Y591787D01*
X216756Y591785D01*
X216797Y591774D01*
X216888Y591779D01*
X216939Y591777D01*
X216958Y591783D01*
X216984Y591784D01*
X217356Y591862D01*
X217363Y591862D01*
X217385Y591855D01*
X217538Y591860D01*
X217562Y591860D01*
X219108Y591526D01*
X219115Y591526D01*
X219123Y591523D01*
X220682Y591227D01*
X220688Y591224D01*
X220706Y591210D01*
X220849Y591156D01*
X220872Y591146D01*
X222172Y590247D01*
X222178Y590244D01*
X222185Y590238D01*
X236865Y580612D01*
X236908Y580594D01*
X236970Y580557D01*
X237738Y580238D01*
X238270Y579706D01*
X238311Y579678D01*
X238371Y579624D01*
X239000Y579212D01*
X239468Y578524D01*
X239501Y578491D01*
X239544Y578433D01*
X240132Y577844D01*
X240420Y577150D01*
X240447Y577108D01*
X240482Y577035D01*
X240905Y576414D01*
X241074Y575599D01*
X241092Y575555D01*
X241109Y575485D01*
X241428Y574717D01*
X241428Y573965D01*
X241436Y573916D01*
X241441Y573835D01*
X241594Y573099D01*
X241439Y572282D01*
X241438Y572235D01*
X241428Y572163D01*
X241428Y564685D01*
X241437Y564636D01*
X241445Y564540D01*
X241589Y563924D01*
X241436Y562986D01*
X241437Y562944D01*
X241428Y562884D01*
X241428Y561933D01*
X241185Y561348D01*
X241175Y561299D01*
X241145Y561208D01*
X241043Y560583D01*
X240543Y559775D01*
X240527Y559736D01*
X240496Y559684D01*
X240132Y558806D01*
X239685Y558358D01*
X239656Y558316D01*
X239594Y558243D01*
X239260Y557705D01*
X238489Y557150D01*
X238459Y557120D01*
X238410Y557084D01*
X237738Y556412D01*
X237153Y556170D01*
X237111Y556142D01*
X237026Y556098D01*
X236512Y555729D01*
X235587Y555511D01*
X235548Y555495D01*
X235489Y555480D01*
X234611Y555116D01*
X233977Y555116D01*
X233928Y555107D01*
X233832Y555099D01*
X233216Y554955D01*
X232278Y555108D01*
X232236Y555107D01*
X232176Y555116D01*
X231225Y555116D01*
X230640Y555359D01*
X230591Y555369D01*
X230500Y555399D01*
X229875Y555501D01*
X229067Y556001D01*
X229028Y556017D01*
X228976Y556048D01*
X228098Y556412D01*
X227650Y556860D01*
X227608Y556888D01*
X227535Y556950D01*
X210971Y567213D01*
X210920Y567233D01*
X210874Y567262D01*
X210817Y567274D01*
X210763Y567295D01*
X210708Y567296D01*
X210654Y567308D01*
X210597Y567299D01*
X210538Y567300D01*
X210487Y567282D01*
X210433Y567274D01*
X210382Y567246D01*
X210326Y567226D01*
X210284Y567192D01*
X210236Y567165D01*
X210189Y567113D01*
X210153Y567084D01*
X210138Y567057D01*
X210110Y567027D01*
X209441Y566026D01*
X209432Y566008D01*
X209416Y565987D01*
X208745Y564806D01*
X208572Y564672D01*
X208567Y564666D01*
X208561Y564663D01*
X208434Y564524D01*
X208313Y564342D01*
X207183Y563589D01*
X207168Y563575D01*
X207145Y563562D01*
X206072Y562728D01*
X205861Y562670D01*
X205855Y562666D01*
X205847Y562666D01*
X205828Y562657D01*
X205814Y562654D01*
X205779Y562633D01*
X205678Y562586D01*
X203337Y561025D01*
X203324Y561012D01*
X203304Y561002D01*
X202439Y560342D01*
X202405Y560305D01*
X202364Y560275D01*
X202330Y560222D01*
X202288Y560177D01*
X202268Y560130D01*
X202240Y560087D01*
X202226Y560026D01*
X202203Y559969D01*
X202202Y559918D01*
X202190Y559868D01*
X202198Y559807D01*
X202196Y559744D01*
X202213Y559696D01*
X202219Y559646D01*
X202248Y559591D01*
X202268Y559532D01*
X202300Y559492D01*
X202324Y559447D01*
X202379Y559395D01*
X202409Y559357D01*
X202433Y559343D01*
X202460Y559318D01*
X203659Y558478D01*
X203667Y558474D01*
X203674Y558467D01*
X236365Y536921D01*
X236409Y536902D01*
X236472Y536864D01*
X237230Y536550D01*
X237770Y536011D01*
X237810Y535983D01*
X237869Y535930D01*
X238506Y535510D01*
X238967Y534830D01*
X239000Y534796D01*
X239044Y534737D01*
X239624Y534156D01*
X239916Y533452D01*
X239943Y533410D01*
X239977Y533339D01*
X240405Y532707D01*
X240570Y531902D01*
X240588Y531858D01*
X240605Y531787D01*
X240920Y531029D01*
X240920Y530266D01*
X240928Y530218D01*
X240933Y530138D01*
X241086Y529391D01*
X240931Y528584D01*
X240931Y528550D01*
X240927Y528538D01*
X240927Y528516D01*
X240920Y528464D01*
X240920Y521391D01*
X240927Y521352D01*
X240927Y521296D01*
X241078Y520306D01*
X240938Y519741D01*
X240935Y519691D01*
X240933Y519676D01*
X240927Y519658D01*
X240927Y519640D01*
X240920Y519589D01*
X240920Y519007D01*
X240588Y518206D01*
X240577Y518159D01*
X240551Y518086D01*
X240348Y517058D01*
X240296Y516980D01*
X240290Y516965D01*
X240279Y516953D01*
X240208Y516780D01*
X240186Y516689D01*
X239714Y516048D01*
X239692Y516003D01*
X239639Y515914D01*
X239624Y515880D01*
X239529Y515785D01*
X239506Y515752D01*
X239467Y515712D01*
X239334Y515531D01*
X239322Y515508D01*
X239301Y515482D01*
X238560Y514250D01*
X238485Y514194D01*
X238474Y514183D01*
X238460Y514175D01*
X238334Y514036D01*
X238282Y513958D01*
X237088Y513158D01*
X237069Y513140D01*
X237040Y513123D01*
X235925Y512215D01*
X235835Y512188D01*
X235821Y512181D01*
X235805Y512179D01*
X235640Y512091D01*
X235564Y512035D01*
X234169Y511688D01*
X234146Y511677D01*
X234113Y511671D01*
X232756Y511195D01*
X232663Y511200D01*
X232647Y511199D01*
X232631Y511201D01*
X232446Y511175D01*
X232356Y511148D01*
X231183Y511268D01*
X231178Y511268D01*
X231173Y511269D01*
X231024Y511260D01*
X230869Y511288D01*
X230825Y511288D01*
X230760Y511299D01*
X229430Y511311D01*
X229343Y511348D01*
X229328Y511351D01*
X229314Y511359D01*
X229130Y511397D01*
X229036Y511402D01*
X228360Y511728D01*
X228319Y511739D01*
X228200Y511780D01*
X227680Y511876D01*
X226925Y512365D01*
X226884Y512382D01*
X226828Y512416D01*
X226001Y512768D01*
X225521Y513256D01*
X225480Y513285D01*
X225413Y513344D01*
X191707Y535179D01*
X191641Y535207D01*
X191580Y535243D01*
X191538Y535250D01*
X191500Y535266D01*
X191429Y535269D01*
X191359Y535281D01*
X191317Y535273D01*
X191275Y535275D01*
X191208Y535253D01*
X191138Y535240D01*
X191102Y535219D01*
X191062Y535206D01*
X191006Y535162D01*
X190945Y535125D01*
X190914Y535089D01*
X190886Y535067D01*
X190864Y535030D01*
X190824Y534983D01*
X190512Y534483D01*
X190507Y534470D01*
X190498Y534459D01*
X190496Y534454D01*
X190491Y534448D01*
X189833Y533220D01*
X189691Y533104D01*
X189685Y533096D01*
X189676Y533091D01*
X189554Y532949D01*
X189458Y532793D01*
X188324Y531984D01*
X188311Y531970D01*
X188291Y531958D01*
X187213Y531076D01*
X187037Y531023D01*
X187028Y531019D01*
X187019Y531017D01*
X186852Y530932D01*
X184775Y529449D01*
X184762Y529435D01*
X184741Y529423D01*
X183672Y528544D01*
X183488Y528488D01*
X183479Y528484D01*
X183470Y528482D01*
X183303Y528397D01*
X183147Y528285D01*
X181798Y527973D01*
X181781Y527966D01*
X181757Y527962D01*
X180432Y527560D01*
X180241Y527578D01*
X180232Y527578D01*
X180223Y527580D01*
X180036Y527565D01*
X179849Y527522D01*
X178483Y527749D01*
X178464Y527749D01*
X178441Y527755D01*
X177063Y527890D01*
X176893Y527981D01*
X176885Y527983D01*
X176877Y527989D01*
X176699Y528047D01*
X176509Y528078D01*
X175335Y528811D01*
X175317Y528818D01*
X175298Y528833D01*
X174077Y529485D01*
X173955Y529633D01*
X173948Y529639D01*
X173943Y529647D01*
X173800Y529769D01*
X173637Y529870D01*
X172833Y530997D01*
X172819Y531010D01*
X172807Y531031D01*
X171928Y532100D01*
X171872Y532284D01*
X171868Y532293D01*
X171866Y532302D01*
X171781Y532469D01*
X171669Y532625D01*
X171357Y533974D01*
X171350Y533991D01*
X171346Y534015D01*
X170944Y535340D01*
X170962Y535531D01*
X170962Y535540D01*
X170964Y535549D01*
X170949Y535736D01*
X170906Y535923D01*
X171133Y537289D01*
X171133Y537308D01*
X171139Y537331D01*
X172099Y547124D01*
X172097Y547149D01*
X172102Y547173D01*
X172088Y547260D01*
X172081Y547348D01*
X172071Y547370D01*
X172067Y547395D01*
X172024Y547471D01*
X171986Y547551D01*
X171969Y547569D01*
X171957Y547590D01*
X171851Y547685D01*
X171827Y547709D01*
X171822Y547711D01*
X171817Y547715D01*
X140136Y568611D01*
X140123Y568617D01*
X140112Y568626D01*
X139939Y568698D01*
X139821Y568727D01*
X138651Y569589D01*
X138638Y569596D01*
X138624Y569609D01*
X137459Y570377D01*
X137425Y570392D01*
X137383Y570420D01*
X136990Y570608D01*
X136483Y571172D01*
X136445Y571203D01*
X136388Y571259D01*
X135778Y571709D01*
X135376Y572375D01*
X135359Y572395D01*
X135348Y572418D01*
X135253Y572516D01*
X135228Y572544D01*
X135222Y572547D01*
X135217Y572553D01*
X134598Y573024D01*
X134216Y573678D01*
X134184Y573716D01*
X134140Y573783D01*
X133634Y574347D01*
X133375Y575081D01*
X133362Y575103D01*
X133356Y575128D01*
X133283Y575243D01*
X133264Y575276D01*
X133259Y575280D01*
X133255Y575286D01*
X132744Y575873D01*
X132503Y576592D01*
X132479Y576634D01*
X132449Y576709D01*
X132068Y577364D01*
X131963Y578134D01*
X131955Y578159D01*
X131954Y578185D01*
X131905Y578312D01*
X131894Y578348D01*
X131890Y578353D01*
X131887Y578360D01*
X131505Y579038D01*
X131414Y579791D01*
X131400Y579838D01*
X131386Y579917D01*
X131144Y580635D01*
X131198Y581411D01*
X131195Y581437D01*
X131199Y581463D01*
X131177Y581597D01*
X131173Y581634D01*
X131170Y581640D01*
X131169Y581648D01*
X130932Y582389D01*
X130995Y583144D01*
X130991Y583193D01*
X130993Y583273D01*
X130902Y584026D01*
X131111Y584775D01*
X131113Y584801D01*
X131123Y584825D01*
X131129Y584961D01*
X131132Y584998D01*
X131131Y585005D01*
X131131Y585012D01*
X131049Y585786D01*
X131263Y586513D01*
X131269Y586561D01*
X131287Y586640D01*
X131350Y587395D01*
X131707Y588086D01*
X131714Y588111D01*
X131729Y588133D01*
X131762Y588265D01*
X131773Y588301D01*
X131772Y588307D01*
X131774Y588315D01*
X131850Y589089D01*
X132208Y589758D01*
X132223Y589804D01*
X132257Y589877D01*
X132471Y590604D01*
X132960Y591209D01*
X132973Y591232D01*
X132991Y591250D01*
X133050Y591373D01*
X133068Y591406D01*
X133069Y591412D01*
X133073Y591419D01*
X133304Y592162D01*
X133789Y592744D01*
X133813Y592787D01*
X133842Y592826D01*
X133847Y592832D01*
X133861Y592851D01*
X134218Y593520D01*
X134820Y594013D01*
X134836Y594033D01*
X134858Y594048D01*
X134941Y594156D01*
X134965Y594184D01*
X134967Y594190D01*
X134972Y594197D01*
X135349Y594877D01*
X135942Y595350D01*
X135974Y595386D01*
X136034Y595440D01*
X136519Y596022D01*
X136933Y596239D01*
X136979Y596276D01*
X137031Y596303D01*
X137075Y596350D01*
X137110Y596377D01*
X137128Y596406D01*
X137159Y596440D01*
X137223Y596531D01*
X138261Y597201D01*
X138281Y597219D01*
X138312Y597237D01*
X139278Y598007D01*
X139610Y598102D01*
X139620Y598107D01*
X139778Y598179D01*
X166237Y615235D01*
X166284Y615279D01*
X166338Y615315D01*
X166366Y615355D01*
X166401Y615388D01*
X166430Y615446D01*
X166468Y615499D01*
X166480Y615545D01*
X166502Y615588D01*
X166509Y615653D01*
X166525Y615715D01*
X166521Y615763D01*
X166526Y615811D01*
X166510Y615874D01*
X166504Y615939D01*
X166483Y615982D01*
X166471Y616029D01*
X166435Y616082D01*
X166406Y616141D01*
X166372Y616174D01*
X166344Y616214D01*
X166291Y616251D01*
X166245Y616296D01*
X166200Y616315D01*
X166161Y616343D01*
X166098Y616359D01*
X166039Y616385D01*
X165983Y616390D01*
X165944Y616400D01*
X165905Y616396D01*
X165852Y616401D01*
X163389Y616239D01*
X163367Y616234D01*
X163346Y616235D01*
X163259Y616207D01*
X163243Y616203D01*
X162860Y616203D01*
X162841Y616200D01*
X162818Y616202D01*
X162456Y616178D01*
X162314Y616199D01*
X162294Y616203D01*
X162291Y616203D01*
X162288Y616203D01*
X161308Y616203D01*
X161286Y616199D01*
X161265Y616202D01*
X161177Y616180D01*
X161161Y616177D01*
X160778Y616202D01*
X160759Y616200D01*
X160736Y616203D01*
X160373Y616203D01*
X160234Y616234D01*
X160213Y616239D01*
X160211Y616239D01*
X160207Y616239D01*
X155470Y616550D01*
X155469Y616550D01*
X155468Y616550D01*
X155363Y616538D01*
X155247Y616525D01*
X155246Y616525D01*
X154987Y616576D01*
X154952Y616577D01*
X154905Y616587D01*
X154632Y616605D01*
X154610Y616622D01*
X154609Y616623D01*
X154432Y616686D01*
X149725Y617623D01*
X149724Y617623D01*
X149609Y617625D01*
X149501Y617627D01*
X149251Y617712D01*
X149215Y617717D01*
X149170Y617733D01*
X148902Y617786D01*
X148883Y617807D01*
X148882Y617807D01*
X148881Y617808D01*
X148715Y617893D01*
X144170Y619436D01*
X144169Y619436D01*
X144169Y619437D01*
X144063Y619452D01*
X143948Y619470D01*
X143711Y619586D01*
X143677Y619596D01*
X143634Y619618D01*
X143375Y619706D01*
X143359Y619729D01*
X143358Y619729D01*
X143357Y619730D01*
X143203Y619837D01*
X138899Y621959D01*
X138898Y621960D01*
X138788Y621991D01*
X138683Y622021D01*
X138463Y622168D01*
X138431Y622182D01*
X138392Y622210D01*
X138146Y622330D01*
X138133Y622355D01*
X138132Y622356D01*
X137993Y622482D01*
X134002Y625149D01*
X134001Y625150D01*
X133908Y625190D01*
X133797Y625239D01*
X133796Y625239D01*
X133598Y625413D01*
X133568Y625431D01*
X133532Y625463D01*
X133305Y625615D01*
X133294Y625641D01*
X133294Y625642D01*
X133293Y625643D01*
X133172Y625786D01*
X129564Y628950D01*
X129563Y628951D01*
X129467Y629009D01*
X129372Y629066D01*
X129371Y629066D01*
X129197Y629265D01*
X129170Y629287D01*
X129139Y629323D01*
X128933Y629503D01*
X128926Y629531D01*
X128926Y629532D01*
X128874Y629612D01*
X128868Y629628D01*
X128854Y629643D01*
X128824Y629690D01*
X125660Y633298D01*
X125659Y633299D01*
X125577Y633364D01*
X125484Y633438D01*
X125337Y633658D01*
X125312Y633684D01*
X125287Y633724D01*
X125106Y633929D01*
X125103Y633957D01*
X125103Y633958D01*
X125103Y633959D01*
X125023Y634128D01*
X122356Y638119D01*
X122356Y638120D01*
X122281Y638197D01*
X122201Y638281D01*
X122200Y638281D01*
X122084Y638518D01*
X122063Y638546D01*
X122042Y638589D01*
X121890Y638817D01*
X121891Y638845D01*
X121890Y638846D01*
X121833Y639025D01*
X119711Y643329D01*
X119710Y643330D01*
X119710Y643331D01*
X119639Y643426D01*
X119577Y643510D01*
X119492Y643760D01*
X119475Y643791D01*
X119460Y643837D01*
X119339Y644082D01*
X119344Y644110D01*
X119343Y644111D01*
X119344Y644112D01*
X119310Y644296D01*
X117767Y648841D01*
X117767Y648842D01*
X117718Y648931D01*
X117659Y649037D01*
X117607Y649296D01*
X117594Y649329D01*
X117586Y649377D01*
X117498Y649635D01*
X117506Y649662D01*
X117505Y649663D01*
X117506Y649664D01*
X117497Y649851D01*
X116560Y654559D01*
X116560Y654560D01*
X116522Y654657D01*
X116478Y654767D01*
X116478Y654768D01*
X116461Y655031D01*
X116452Y655066D01*
X116450Y655113D01*
X116397Y655382D01*
X116408Y655407D01*
X116408Y655408D01*
X116408Y655409D01*
X116424Y655596D01*
X116113Y660333D01*
X116108Y660355D01*
X116109Y660376D01*
X116081Y660463D01*
X116077Y660479D01*
X116077Y660862D01*
X116074Y660881D01*
X116076Y660904D01*
X116074Y660934D01*
X116074Y660935D01*
X116074Y660936D01*
X116050Y661029D01*
X116056Y661120D01*
X116052Y661156D01*
X116056Y661203D01*
X116051Y661284D01*
X116074Y661390D01*
X116076Y661420D01*
X116074Y661439D01*
X116077Y661462D01*
X116077Y661825D01*
X116108Y661964D01*
X116113Y661985D01*
X116113Y661987D01*
X116113Y661991D01*
X116424Y666728D01*
X116424Y666729D01*
X116424Y666730D01*
X116412Y666835D01*
X116399Y666951D01*
X116399Y666952D01*
X116450Y667211D01*
X116450Y667235D01*
X116456Y667251D01*
X116455Y667268D01*
X116461Y667293D01*
X116479Y667566D01*
X116496Y667588D01*
X116497Y667589D01*
X116560Y667765D01*
X117497Y672473D01*
X117497Y672474D01*
X117499Y672582D01*
X117501Y672697D01*
X117586Y672947D01*
X117591Y672983D01*
X117607Y673028D01*
X117660Y673296D01*
X117681Y673315D01*
X117681Y673316D01*
X117682Y673317D01*
X117702Y673356D01*
X117722Y673381D01*
X117737Y673424D01*
X117767Y673483D01*
X119310Y678028D01*
X119310Y678029D01*
X119311Y678029D01*
X119326Y678130D01*
X119344Y678250D01*
X119460Y678487D01*
X119470Y678521D01*
X119492Y678564D01*
X119580Y678823D01*
X119603Y678839D01*
X119603Y678840D01*
X119604Y678841D01*
X119711Y678995D01*
X121833Y683299D01*
X121834Y683300D01*
X121864Y683406D01*
X121895Y683515D01*
X122042Y683735D01*
X122056Y683767D01*
X122084Y683806D01*
X122204Y684052D01*
X122229Y684065D01*
X122230Y684066D01*
X122356Y684205D01*
X125023Y688196D01*
X125024Y688197D01*
X125063Y688288D01*
X125113Y688401D01*
X125113Y688402D01*
X125287Y688600D01*
X125305Y688630D01*
X125337Y688666D01*
X125489Y688893D01*
X125515Y688904D01*
X125516Y688904D01*
X125517Y688905D01*
X125660Y689026D01*
X126362Y689827D01*
X126398Y689886D01*
X126441Y689939D01*
X126455Y689981D01*
X126478Y690019D01*
X126491Y690086D01*
X126513Y690151D01*
X126511Y690196D01*
X126520Y690239D01*
X126508Y690307D01*
X126506Y690376D01*
X126489Y690417D01*
X126482Y690461D01*
X126448Y690520D01*
X126422Y690583D01*
X126392Y690616D01*
X126370Y690655D01*
X126317Y690698D01*
X126270Y690749D01*
X126231Y690769D01*
X126197Y690798D01*
X126132Y690820D01*
X126071Y690852D01*
X126020Y690859D01*
X125985Y690871D01*
X125944Y690871D01*
X125885Y690879D01*
X121174Y690879D01*
X121150Y690875D01*
X121126Y690877D01*
X120985Y690845D01*
X120982Y690845D01*
X119295Y690879D01*
X119289Y690878D01*
X119282Y690879D01*
X119143Y690879D01*
X119130Y690877D01*
X119114Y690879D01*
X116261Y690745D01*
X116213Y690734D01*
X116135Y690726D01*
X110529Y689306D01*
X110491Y689289D01*
X110371Y689242D01*
X105343Y686385D01*
X105311Y686358D01*
X105208Y686282D01*
X104708Y685782D01*
X104683Y685747D01*
X104652Y685718D01*
X104620Y685655D01*
X104579Y685597D01*
X104569Y685556D01*
X104549Y685518D01*
X104536Y685429D01*
X104524Y685380D01*
X104526Y685359D01*
X104522Y685333D01*
X104522Y101720D01*
X104538Y101632D01*
X104547Y101543D01*
X104557Y101522D01*
X104561Y101499D01*
X104607Y101422D01*
X104647Y101342D01*
X104665Y101323D01*
X104676Y101306D01*
X104715Y101274D01*
X104779Y101209D01*
X108848Y98205D01*
X108890Y98184D01*
X108988Y98127D01*
X114456Y95931D01*
X114483Y95926D01*
X114507Y95913D01*
X114637Y95894D01*
X114676Y95886D01*
X114684Y95887D01*
X114693Y95886D01*
X145973Y95886D01*
X145982Y95887D01*
G37*
%LPC*%
G36*
X546393Y263016D02*
X546393Y263016D01*
X543137Y264365D01*
X543107Y264372D01*
X543079Y264386D01*
X542962Y264403D01*
X542918Y264413D01*
X542907Y264411D01*
X542894Y264413D01*
X439737Y264413D01*
X435629Y266115D01*
X396925Y304819D01*
X395223Y308927D01*
X395223Y424854D01*
X395216Y424895D01*
X395218Y424938D01*
X395196Y425005D01*
X395184Y425075D01*
X395162Y425111D01*
X395149Y425151D01*
X395095Y425224D01*
X395069Y425268D01*
X395053Y425281D01*
X395037Y425302D01*
X393509Y426831D01*
X391695Y431209D01*
X391695Y435947D01*
X393509Y440325D01*
X396859Y443675D01*
X401237Y445489D01*
X405975Y445489D01*
X410353Y443675D01*
X413703Y440325D01*
X414389Y438669D01*
X414406Y438643D01*
X414415Y438614D01*
X414486Y438519D01*
X414510Y438481D01*
X414519Y438474D01*
X414527Y438464D01*
X415875Y437115D01*
X417577Y433007D01*
X417577Y316042D01*
X417584Y316000D01*
X417582Y315958D01*
X417604Y315891D01*
X417616Y315821D01*
X417638Y315785D01*
X417651Y315744D01*
X417705Y315672D01*
X417731Y315628D01*
X417747Y315615D01*
X417763Y315594D01*
X446404Y286953D01*
X446432Y286933D01*
X446439Y286925D01*
X446444Y286923D01*
X446467Y286897D01*
X446530Y286865D01*
X446588Y286824D01*
X446629Y286814D01*
X446667Y286794D01*
X446757Y286781D01*
X446805Y286768D01*
X446826Y286771D01*
X446852Y286767D01*
X537083Y286767D01*
X537148Y286778D01*
X537214Y286780D01*
X537257Y286798D01*
X537304Y286806D01*
X537361Y286840D01*
X537421Y286865D01*
X537456Y286896D01*
X537497Y286921D01*
X537539Y286972D01*
X537587Y287016D01*
X537609Y287058D01*
X537638Y287095D01*
X537659Y287157D01*
X537690Y287216D01*
X537698Y287270D01*
X537710Y287307D01*
X537710Y287333D01*
X537710Y287336D01*
X537710Y287351D01*
X537717Y287401D01*
X537717Y307330D01*
X537701Y307418D01*
X537692Y307506D01*
X537682Y307528D01*
X537678Y307551D01*
X537632Y307628D01*
X537593Y307707D01*
X537576Y307724D01*
X537563Y307744D01*
X537494Y307800D01*
X537430Y307861D01*
X537408Y307871D01*
X537389Y307886D01*
X537305Y307914D01*
X537223Y307949D01*
X537199Y307950D01*
X537177Y307957D01*
X537088Y307955D01*
X536999Y307959D01*
X536976Y307951D01*
X536952Y307951D01*
X536870Y307917D01*
X536785Y307890D01*
X536764Y307874D01*
X536745Y307866D01*
X536707Y307832D01*
X536635Y307779D01*
X534680Y305824D01*
X530059Y303910D01*
X525057Y303910D01*
X520435Y305825D01*
X516899Y309361D01*
X514984Y313983D01*
X514984Y318985D01*
X516333Y322241D01*
X516340Y322271D01*
X516354Y322299D01*
X516371Y322416D01*
X516381Y322460D01*
X516379Y322471D01*
X516381Y322484D01*
X516381Y453581D01*
X518083Y457689D01*
X521316Y460922D01*
X522479Y462086D01*
X522497Y462111D01*
X522520Y462131D01*
X522581Y462232D01*
X522607Y462270D01*
X522610Y462280D01*
X522617Y462291D01*
X523303Y463947D01*
X526653Y467297D01*
X531031Y469111D01*
X535769Y469111D01*
X536840Y468667D01*
X536916Y468651D01*
X536989Y468626D01*
X537025Y468627D01*
X537059Y468619D01*
X537136Y468630D01*
X537214Y468632D01*
X537246Y468646D01*
X537282Y468651D01*
X537350Y468688D01*
X537421Y468717D01*
X537448Y468741D01*
X537479Y468758D01*
X537530Y468816D01*
X537587Y468868D01*
X537603Y468900D01*
X537627Y468926D01*
X537654Y468999D01*
X537690Y469068D01*
X537696Y469108D01*
X537706Y469136D01*
X537707Y469183D01*
X537717Y469253D01*
X537717Y474917D01*
X539419Y479025D01*
X541529Y481136D01*
X541547Y481161D01*
X541570Y481181D01*
X541631Y481282D01*
X541657Y481320D01*
X541660Y481330D01*
X541667Y481341D01*
X542353Y482997D01*
X545703Y486347D01*
X550081Y488161D01*
X554819Y488161D01*
X559197Y486347D01*
X562547Y482997D01*
X564361Y478619D01*
X564361Y473881D01*
X562547Y469503D01*
X560257Y467212D01*
X560232Y467177D01*
X560201Y467149D01*
X560169Y467086D01*
X560128Y467028D01*
X560118Y466987D01*
X560098Y466949D01*
X560085Y466859D01*
X560072Y466811D01*
X560075Y466790D01*
X560071Y466764D01*
X560071Y450186D01*
X560084Y450109D01*
X560090Y450032D01*
X560104Y450000D01*
X560110Y449965D01*
X560150Y449898D01*
X560182Y449828D01*
X560206Y449802D01*
X560225Y449772D01*
X560285Y449723D01*
X560339Y449668D01*
X560371Y449653D01*
X560399Y449630D01*
X560472Y449605D01*
X560542Y449573D01*
X560578Y449570D01*
X560611Y449558D01*
X560689Y449561D01*
X560766Y449554D01*
X560805Y449564D01*
X560836Y449565D01*
X560879Y449582D01*
X560948Y449600D01*
X562061Y450061D01*
X566799Y450061D01*
X571177Y448247D01*
X574527Y444897D01*
X576341Y440519D01*
X576341Y435781D01*
X574527Y431403D01*
X571177Y428053D01*
X570876Y427928D01*
X570831Y427899D01*
X570781Y427878D01*
X570737Y427839D01*
X570687Y427807D01*
X570655Y427764D01*
X570615Y427727D01*
X570588Y427675D01*
X570553Y427628D01*
X570537Y427576D01*
X570512Y427527D01*
X570502Y427457D01*
X570489Y427413D01*
X570491Y427382D01*
X570485Y427342D01*
X570485Y423541D01*
X570498Y423464D01*
X570504Y423387D01*
X570518Y423355D01*
X570524Y423320D01*
X570564Y423253D01*
X570596Y423182D01*
X570620Y423157D01*
X570639Y423126D01*
X570699Y423078D01*
X570753Y423023D01*
X570785Y423007D01*
X570813Y422985D01*
X570886Y422960D01*
X570956Y422928D01*
X570992Y422925D01*
X571025Y422913D01*
X571103Y422916D01*
X571180Y422909D01*
X571219Y422919D01*
X571250Y422920D01*
X571293Y422937D01*
X571362Y422955D01*
X575481Y424661D01*
X580219Y424661D01*
X584597Y422847D01*
X587947Y419497D01*
X588633Y417841D01*
X588650Y417816D01*
X588659Y417786D01*
X588675Y417765D01*
X588682Y417746D01*
X588715Y417710D01*
X588730Y417691D01*
X588754Y417653D01*
X588763Y417646D01*
X588771Y417636D01*
X598316Y408090D01*
X601549Y404857D01*
X603251Y400749D01*
X603251Y322484D01*
X603256Y322454D01*
X603254Y322423D01*
X603282Y322308D01*
X603290Y322263D01*
X603296Y322254D01*
X603299Y322241D01*
X604648Y318985D01*
X604648Y313983D01*
X602733Y309361D01*
X599197Y305825D01*
X594575Y303910D01*
X589573Y303910D01*
X584951Y305825D01*
X581415Y309361D01*
X579500Y313983D01*
X579500Y318985D01*
X580849Y322241D01*
X580856Y322271D01*
X580870Y322299D01*
X580887Y322416D01*
X580897Y322460D01*
X580895Y322471D01*
X580897Y322484D01*
X580897Y393634D01*
X580890Y393676D01*
X580892Y393718D01*
X580870Y393785D01*
X580858Y393855D01*
X580836Y393891D01*
X580823Y393932D01*
X580769Y394004D01*
X580743Y394048D01*
X580727Y394061D01*
X580711Y394082D01*
X572964Y401829D01*
X572939Y401847D01*
X572919Y401870D01*
X572818Y401931D01*
X572780Y401957D01*
X572770Y401960D01*
X572759Y401967D01*
X571362Y402545D01*
X571286Y402562D01*
X571213Y402587D01*
X571177Y402586D01*
X571142Y402593D01*
X571066Y402582D01*
X570988Y402580D01*
X570956Y402567D01*
X570920Y402562D01*
X570852Y402525D01*
X570781Y402496D01*
X570754Y402472D01*
X570723Y402455D01*
X570672Y402397D01*
X570615Y402344D01*
X570599Y402313D01*
X570575Y402286D01*
X570548Y402214D01*
X570512Y402145D01*
X570506Y402105D01*
X570496Y402076D01*
X570495Y402030D01*
X570485Y401959D01*
X570485Y322484D01*
X570490Y322454D01*
X570488Y322423D01*
X570516Y322308D01*
X570524Y322263D01*
X570530Y322254D01*
X570533Y322241D01*
X571882Y318985D01*
X571882Y313983D01*
X569967Y309361D01*
X566431Y305825D01*
X561809Y303910D01*
X560705Y303910D01*
X560640Y303899D01*
X560574Y303897D01*
X560531Y303879D01*
X560484Y303871D01*
X560427Y303837D01*
X560367Y303812D01*
X560332Y303781D01*
X560291Y303756D01*
X560249Y303705D01*
X560201Y303661D01*
X560179Y303619D01*
X560150Y303582D01*
X560129Y303520D01*
X560098Y303461D01*
X560090Y303407D01*
X560078Y303370D01*
X560079Y303330D01*
X560071Y303276D01*
X560071Y281590D01*
X560076Y281560D01*
X560074Y281529D01*
X560102Y281414D01*
X560110Y281369D01*
X560116Y281360D01*
X560119Y281347D01*
X561468Y278091D01*
X561468Y273089D01*
X559553Y268467D01*
X556017Y264931D01*
X551395Y263016D01*
X546393Y263016D01*
G37*
%LPD*%
%LPC*%
G36*
X569764Y120827D02*
X569764Y120827D01*
X563976Y123225D01*
X559546Y127655D01*
X557148Y133443D01*
X557148Y154948D01*
X559546Y160737D01*
X560518Y161709D01*
X560543Y161744D01*
X560574Y161773D01*
X560606Y161836D01*
X560647Y161894D01*
X560657Y161935D01*
X560677Y161973D01*
X560690Y162062D01*
X560703Y162111D01*
X560700Y162132D01*
X560704Y162158D01*
X560704Y172106D01*
X560697Y172148D01*
X560699Y172190D01*
X560677Y172257D01*
X560665Y172327D01*
X560643Y172363D01*
X560630Y172404D01*
X560576Y172476D01*
X560550Y172520D01*
X560534Y172533D01*
X560518Y172554D01*
X537034Y196039D01*
X535177Y200521D01*
X535177Y216417D01*
X535172Y216447D01*
X535174Y216478D01*
X535164Y216520D01*
X535164Y216524D01*
X535162Y216529D01*
X535146Y216593D01*
X535138Y216638D01*
X535132Y216647D01*
X535129Y216660D01*
X534796Y217463D01*
X534796Y222465D01*
X536711Y227087D01*
X540247Y230623D01*
X544869Y232538D01*
X549871Y232538D01*
X554493Y230623D01*
X558029Y227087D01*
X559944Y222465D01*
X559944Y217463D01*
X559611Y216660D01*
X559604Y216630D01*
X559590Y216602D01*
X559576Y216505D01*
X559570Y216487D01*
X559570Y216472D01*
X559563Y216440D01*
X559565Y216430D01*
X559563Y216417D01*
X559563Y208259D01*
X559570Y208217D01*
X559568Y208175D01*
X559590Y208108D01*
X559602Y208038D01*
X559624Y208002D01*
X559637Y207961D01*
X559691Y207889D01*
X559717Y207845D01*
X559733Y207832D01*
X559749Y207811D01*
X579307Y188253D01*
X579380Y188202D01*
X579449Y188146D01*
X579471Y188138D01*
X579491Y188125D01*
X579577Y188102D01*
X579661Y188074D01*
X579685Y188074D01*
X579708Y188069D01*
X579797Y188078D01*
X579886Y188080D01*
X579908Y188089D01*
X579931Y188092D01*
X580011Y188131D01*
X580093Y188165D01*
X580111Y188181D01*
X580132Y188191D01*
X580193Y188256D01*
X580259Y188316D01*
X580270Y188337D01*
X580286Y188355D01*
X580321Y188436D01*
X580362Y188516D01*
X580365Y188542D01*
X580374Y188561D01*
X580376Y188612D01*
X580389Y188701D01*
X580389Y215909D01*
X580384Y215939D01*
X580386Y215970D01*
X580358Y216085D01*
X580350Y216130D01*
X580344Y216139D01*
X580341Y216152D01*
X580008Y216955D01*
X580008Y221957D01*
X581923Y226579D01*
X585459Y230115D01*
X590081Y232030D01*
X595083Y232030D01*
X599705Y230115D01*
X603241Y226579D01*
X605156Y221957D01*
X605156Y216955D01*
X604823Y216152D01*
X604816Y216122D01*
X604802Y216094D01*
X604785Y215977D01*
X604775Y215932D01*
X604777Y215922D01*
X604775Y215909D01*
X604775Y196321D01*
X604782Y196279D01*
X604780Y196237D01*
X604802Y196170D01*
X604814Y196100D01*
X604836Y196064D01*
X604849Y196023D01*
X604903Y195951D01*
X604929Y195907D01*
X604945Y195894D01*
X604961Y195873D01*
X608760Y192073D01*
X610617Y187591D01*
X610617Y186732D01*
X610635Y186633D01*
X610649Y186533D01*
X610654Y186523D01*
X610656Y186511D01*
X610707Y186425D01*
X610755Y186336D01*
X610764Y186328D01*
X610771Y186318D01*
X610848Y186255D01*
X610924Y186188D01*
X610936Y186184D01*
X610945Y186177D01*
X611040Y186145D01*
X611134Y186109D01*
X611146Y186109D01*
X611157Y186105D01*
X611257Y186108D01*
X611358Y186107D01*
X611370Y186111D01*
X611382Y186111D01*
X611474Y186149D01*
X611569Y186184D01*
X611578Y186191D01*
X611589Y186196D01*
X611664Y186264D01*
X611740Y186329D01*
X611747Y186340D01*
X611755Y186347D01*
X611776Y186388D01*
X611837Y186489D01*
X613361Y190168D01*
X625923Y202731D01*
X625948Y202765D01*
X625979Y202794D01*
X626011Y202857D01*
X626052Y202915D01*
X626062Y202956D01*
X626082Y202994D01*
X626095Y203083D01*
X626108Y203132D01*
X626105Y203153D01*
X626109Y203179D01*
X626109Y215909D01*
X626104Y215939D01*
X626106Y215970D01*
X626078Y216085D01*
X626070Y216130D01*
X626064Y216139D01*
X626061Y216152D01*
X625728Y216955D01*
X625728Y221957D01*
X627643Y226579D01*
X631179Y230115D01*
X635801Y232030D01*
X640803Y232030D01*
X645425Y230115D01*
X648961Y226579D01*
X650876Y221957D01*
X650876Y216955D01*
X650543Y216152D01*
X650536Y216122D01*
X650522Y216094D01*
X650505Y215977D01*
X650495Y215932D01*
X650497Y215922D01*
X650495Y215909D01*
X650495Y195441D01*
X648638Y190959D01*
X636076Y178396D01*
X636051Y178362D01*
X636020Y178333D01*
X635988Y178270D01*
X635947Y178212D01*
X635937Y178171D01*
X635917Y178133D01*
X635904Y178044D01*
X635891Y177995D01*
X635894Y177974D01*
X635890Y177948D01*
X635890Y163312D01*
X635908Y163213D01*
X635922Y163113D01*
X635927Y163102D01*
X635929Y163091D01*
X635980Y163004D01*
X636028Y162916D01*
X636037Y162908D01*
X636044Y162897D01*
X636121Y162834D01*
X636197Y162768D01*
X636209Y162764D01*
X636218Y162756D01*
X636313Y162724D01*
X636407Y162688D01*
X636419Y162688D01*
X636430Y162684D01*
X636530Y162687D01*
X636631Y162686D01*
X636643Y162691D01*
X636655Y162691D01*
X636747Y162728D01*
X636842Y162763D01*
X636851Y162771D01*
X636862Y162775D01*
X636937Y162843D01*
X637013Y162908D01*
X637020Y162919D01*
X637028Y162927D01*
X637049Y162967D01*
X637110Y163069D01*
X638761Y167054D01*
X666563Y194857D01*
X666588Y194891D01*
X666619Y194920D01*
X666651Y194983D01*
X666692Y195041D01*
X666702Y195082D01*
X666722Y195120D01*
X666735Y195209D01*
X666748Y195258D01*
X666745Y195279D01*
X666749Y195305D01*
X666749Y215401D01*
X666744Y215431D01*
X666746Y215462D01*
X666718Y215577D01*
X666710Y215622D01*
X666704Y215631D01*
X666701Y215644D01*
X666368Y216447D01*
X666368Y221449D01*
X668283Y226071D01*
X671819Y229607D01*
X676441Y231522D01*
X681443Y231522D01*
X686065Y229607D01*
X689601Y226071D01*
X691516Y221449D01*
X691516Y216447D01*
X691183Y215644D01*
X691176Y215614D01*
X691162Y215586D01*
X691145Y215469D01*
X691135Y215424D01*
X691137Y215414D01*
X691135Y215401D01*
X691135Y187567D01*
X689278Y183085D01*
X664060Y157867D01*
X664030Y157823D01*
X663991Y157785D01*
X663966Y157731D01*
X663932Y157683D01*
X663919Y157631D01*
X663896Y157582D01*
X663891Y157523D01*
X663876Y157466D01*
X663882Y157412D01*
X663878Y157358D01*
X663892Y157300D01*
X663893Y157277D01*
X663897Y157267D01*
X663900Y157243D01*
X663913Y157215D01*
X663923Y157176D01*
X664846Y154948D01*
X664846Y133443D01*
X662448Y127655D01*
X658018Y123225D01*
X652230Y120827D01*
X645964Y120827D01*
X640176Y123225D01*
X636845Y126555D01*
X636791Y126593D01*
X636744Y126638D01*
X636700Y126656D01*
X636661Y126683D01*
X636598Y126700D01*
X636537Y126725D01*
X636490Y126727D01*
X636444Y126739D01*
X636379Y126732D01*
X636313Y126735D01*
X636268Y126721D01*
X636221Y126716D01*
X636162Y126687D01*
X636099Y126667D01*
X636055Y126634D01*
X636020Y126617D01*
X635993Y126588D01*
X635948Y126555D01*
X632618Y123225D01*
X626830Y120827D01*
X620564Y120827D01*
X614776Y123225D01*
X611446Y126555D01*
X611391Y126593D01*
X611344Y126638D01*
X611300Y126656D01*
X611261Y126683D01*
X611198Y126700D01*
X611137Y126725D01*
X611090Y126727D01*
X611044Y126739D01*
X610979Y126732D01*
X610913Y126735D01*
X610868Y126721D01*
X610821Y126716D01*
X610762Y126687D01*
X610699Y126667D01*
X610655Y126634D01*
X610620Y126617D01*
X610593Y126588D01*
X610549Y126555D01*
X607218Y123225D01*
X601430Y120827D01*
X595164Y120827D01*
X589376Y123225D01*
X586046Y126555D01*
X585991Y126593D01*
X585944Y126638D01*
X585900Y126656D01*
X585861Y126683D01*
X585798Y126700D01*
X585737Y126725D01*
X585690Y126727D01*
X585644Y126739D01*
X585579Y126732D01*
X585513Y126735D01*
X585468Y126721D01*
X585421Y126716D01*
X585362Y126687D01*
X585299Y126667D01*
X585255Y126634D01*
X585220Y126617D01*
X585193Y126588D01*
X585149Y126555D01*
X581818Y123225D01*
X576030Y120827D01*
X569764Y120827D01*
G37*
%LPD*%
%LPC*%
G36*
X213288Y275803D02*
X213288Y275803D01*
X210399Y278629D01*
X208810Y282346D01*
X208555Y305297D01*
X208534Y307227D01*
X208496Y310622D01*
X209600Y313091D01*
X209611Y313136D01*
X209632Y313179D01*
X209638Y313245D01*
X209654Y313309D01*
X209649Y313355D01*
X209653Y313402D01*
X209636Y313466D01*
X209629Y313532D01*
X209608Y313574D01*
X209596Y313619D01*
X209555Y313680D01*
X208188Y317531D01*
X208397Y321568D01*
X217156Y339960D01*
X217180Y340051D01*
X217210Y340139D01*
X217210Y340158D01*
X217215Y340177D01*
X217207Y340270D01*
X217204Y340364D01*
X217197Y340381D01*
X217195Y340400D01*
X217155Y340485D01*
X217119Y340571D01*
X217107Y340586D01*
X217098Y340603D01*
X217031Y340668D01*
X216968Y340737D01*
X216951Y340746D01*
X216937Y340759D01*
X216852Y340797D01*
X216768Y340840D01*
X216748Y340843D01*
X216732Y340850D01*
X216682Y340852D01*
X216583Y340867D01*
X215403Y340867D01*
X211668Y342414D01*
X208810Y345272D01*
X207263Y349007D01*
X207263Y353049D01*
X208231Y355385D01*
X208238Y355415D01*
X208252Y355443D01*
X208269Y355560D01*
X208279Y355605D01*
X208277Y355615D01*
X208279Y355628D01*
X208279Y379641D01*
X210779Y386108D01*
X213501Y389102D01*
X213541Y389164D01*
X213587Y389222D01*
X213600Y389259D01*
X213620Y389292D01*
X213635Y389364D01*
X213659Y389434D01*
X213658Y389473D01*
X213666Y389511D01*
X213655Y389585D01*
X213653Y389659D01*
X213638Y389695D01*
X213632Y389733D01*
X213596Y389798D01*
X213568Y389867D01*
X213539Y389900D01*
X213523Y389929D01*
X213489Y389958D01*
X213446Y390009D01*
X212420Y390894D01*
X209365Y396438D01*
X209094Y398255D01*
X209078Y398302D01*
X209052Y398405D01*
X208787Y399045D01*
X208787Y400266D01*
X208780Y400305D01*
X208780Y400360D01*
X208600Y401568D01*
X208768Y402240D01*
X208772Y402290D01*
X208787Y402394D01*
X208787Y422222D01*
X211614Y428503D01*
X211630Y428565D01*
X211655Y428624D01*
X211657Y428673D01*
X211669Y428721D01*
X211662Y428784D01*
X211665Y428848D01*
X211650Y428895D01*
X211644Y428944D01*
X211616Y429001D01*
X211596Y429061D01*
X211562Y429108D01*
X211543Y429144D01*
X211516Y429170D01*
X211485Y429212D01*
X209318Y431378D01*
X207771Y435113D01*
X207771Y439155D01*
X209318Y442890D01*
X212176Y445748D01*
X215467Y447111D01*
X215542Y447159D01*
X215620Y447201D01*
X215636Y447219D01*
X215656Y447232D01*
X215709Y447303D01*
X215768Y447370D01*
X215776Y447392D01*
X215791Y447411D01*
X215816Y447497D01*
X215848Y447580D01*
X215848Y447604D01*
X215855Y447626D01*
X215849Y447715D01*
X215849Y447804D01*
X215841Y447827D01*
X215840Y447850D01*
X215803Y447931D01*
X215773Y448015D01*
X215757Y448033D01*
X215748Y448055D01*
X215685Y448118D01*
X215628Y448186D01*
X215605Y448200D01*
X215590Y448215D01*
X215545Y448236D01*
X215467Y448283D01*
X211668Y449856D01*
X208810Y452714D01*
X207263Y456449D01*
X207263Y460491D01*
X208810Y464226D01*
X211668Y467084D01*
X214779Y468372D01*
X214854Y468420D01*
X214933Y468463D01*
X214948Y468481D01*
X214968Y468494D01*
X215022Y468565D01*
X215080Y468632D01*
X215089Y468654D01*
X215103Y468673D01*
X215128Y468758D01*
X215160Y468841D01*
X215160Y468865D01*
X215167Y468888D01*
X215161Y468977D01*
X215162Y469066D01*
X215154Y469088D01*
X215152Y469112D01*
X215116Y469193D01*
X215085Y469277D01*
X215070Y469295D01*
X215060Y469317D01*
X214998Y469380D01*
X214940Y469448D01*
X214917Y469461D01*
X214903Y469476D01*
X214857Y469498D01*
X214779Y469544D01*
X211414Y470938D01*
X208556Y473796D01*
X207009Y477531D01*
X207009Y481573D01*
X208556Y485308D01*
X211414Y488166D01*
X215149Y489713D01*
X243243Y489713D01*
X249624Y487001D01*
X254436Y482011D01*
X256914Y475535D01*
X256795Y472267D01*
X256797Y472256D01*
X256795Y472244D01*
X256795Y439615D01*
X254094Y433460D01*
X252115Y431639D01*
X252064Y431572D01*
X252007Y431510D01*
X251996Y431483D01*
X251979Y431460D01*
X251955Y431380D01*
X251923Y431301D01*
X251922Y431273D01*
X251914Y431246D01*
X251919Y431162D01*
X251917Y431077D01*
X251926Y431050D01*
X251928Y431022D01*
X251962Y430945D01*
X251990Y430865D01*
X252009Y430839D01*
X252019Y430817D01*
X252054Y430781D01*
X252104Y430716D01*
X253791Y429087D01*
X256539Y422620D01*
X256539Y421250D01*
X256541Y421243D01*
X256541Y419099D01*
X256541Y419098D01*
X256542Y416983D01*
X256541Y416980D01*
X256542Y416974D01*
X256542Y416965D01*
X256541Y416956D01*
X256541Y399663D01*
X254412Y393669D01*
X253984Y393142D01*
X253968Y393113D01*
X253945Y393088D01*
X253914Y393015D01*
X253876Y392945D01*
X253871Y392913D01*
X253858Y392882D01*
X253854Y392802D01*
X253842Y392724D01*
X253849Y392691D01*
X253848Y392658D01*
X253872Y392582D01*
X253889Y392504D01*
X253906Y392476D01*
X253916Y392444D01*
X253982Y392355D01*
X254008Y392314D01*
X254019Y392306D01*
X254028Y392293D01*
X256010Y390312D01*
X257557Y386577D01*
X257557Y382535D01*
X256010Y378800D01*
X253152Y375942D01*
X249417Y374395D01*
X229235Y374395D01*
X229170Y374384D01*
X229104Y374382D01*
X229061Y374364D01*
X229014Y374356D01*
X228957Y374322D01*
X228897Y374297D01*
X228862Y374266D01*
X228821Y374241D01*
X228779Y374190D01*
X228731Y374146D01*
X228709Y374104D01*
X228680Y374067D01*
X228659Y374005D01*
X228628Y373946D01*
X228620Y373892D01*
X228608Y373855D01*
X228609Y373815D01*
X228601Y373761D01*
X228601Y361823D01*
X228612Y361758D01*
X228614Y361692D01*
X228632Y361649D01*
X228640Y361602D01*
X228674Y361545D01*
X228699Y361485D01*
X228730Y361450D01*
X228755Y361409D01*
X228806Y361367D01*
X228850Y361319D01*
X228892Y361297D01*
X228929Y361268D01*
X228991Y361247D01*
X229050Y361216D01*
X229104Y361208D01*
X229141Y361196D01*
X229181Y361197D01*
X229235Y361189D01*
X231822Y361189D01*
X231836Y361191D01*
X231850Y361189D01*
X232034Y361225D01*
X232187Y361280D01*
X233926Y361190D01*
X233941Y361191D01*
X233959Y361189D01*
X249671Y361189D01*
X253406Y359642D01*
X256264Y356784D01*
X257811Y353049D01*
X257811Y349007D01*
X256264Y345272D01*
X253406Y342414D01*
X249671Y340867D01*
X248678Y340867D01*
X248581Y340850D01*
X248483Y340837D01*
X248471Y340830D01*
X248457Y340828D01*
X248372Y340777D01*
X248285Y340731D01*
X248276Y340721D01*
X248264Y340713D01*
X248202Y340637D01*
X248136Y340563D01*
X248131Y340550D01*
X248123Y340539D01*
X248091Y340446D01*
X248055Y340354D01*
X248055Y340340D01*
X248051Y340327D01*
X248054Y340228D01*
X248052Y340130D01*
X248057Y340115D01*
X248057Y340102D01*
X248075Y340058D01*
X248110Y339951D01*
X257143Y321725D01*
X257416Y317692D01*
X256676Y315497D01*
X256672Y315476D01*
X256664Y315457D01*
X256656Y315366D01*
X256643Y315275D01*
X256647Y315254D01*
X256645Y315234D01*
X256685Y315073D01*
X256689Y315056D01*
X256690Y315054D01*
X256691Y315052D01*
X257049Y314187D01*
X257049Y292288D01*
X257050Y292282D01*
X257049Y292276D01*
X257080Y292092D01*
X257176Y291797D01*
X257051Y290203D01*
X257053Y290181D01*
X257049Y290154D01*
X257049Y288555D01*
X256930Y288269D01*
X256929Y288263D01*
X256926Y288259D01*
X256884Y288076D01*
X256862Y287800D01*
X255518Y284215D01*
X255512Y284185D01*
X255497Y284147D01*
X255486Y284103D01*
X254280Y282481D01*
X252559Y280167D01*
X247862Y276817D01*
X242364Y275069D01*
X239480Y275081D01*
X237333Y275090D01*
X235489Y275098D01*
X233803Y275847D01*
X231868Y276706D01*
X231841Y276718D01*
X231733Y276766D01*
X229047Y277960D01*
X228375Y278654D01*
X228314Y278698D01*
X228260Y278749D01*
X228224Y278763D01*
X228193Y278786D01*
X228121Y278805D01*
X228052Y278834D01*
X228014Y278835D01*
X227977Y278845D01*
X227902Y278839D01*
X227828Y278841D01*
X227791Y278829D01*
X227753Y278826D01*
X227686Y278794D01*
X227615Y278770D01*
X227580Y278744D01*
X227550Y278730D01*
X227519Y278698D01*
X227465Y278657D01*
X224799Y275931D01*
X221082Y274342D01*
X217040Y274297D01*
X213288Y275803D01*
G37*
%LPD*%
%LPC*%
G36*
X373553Y99052D02*
X373553Y99052D01*
X373551Y99052D01*
X373551Y99053D01*
X373541Y99054D01*
X373370Y99092D01*
X369023Y99377D01*
X369023Y99376D01*
X369022Y99377D01*
X368917Y99364D01*
X368800Y99351D01*
X368541Y99403D01*
X368506Y99403D01*
X368459Y99414D01*
X368186Y99431D01*
X368164Y99449D01*
X368163Y99449D01*
X368163Y99450D01*
X367986Y99513D01*
X363719Y100362D01*
X363718Y100362D01*
X363717Y100362D01*
X363604Y100364D01*
X363494Y100366D01*
X363244Y100451D01*
X363209Y100456D01*
X363164Y100472D01*
X362896Y100526D01*
X362876Y100546D01*
X362875Y100547D01*
X362708Y100633D01*
X358588Y102031D01*
X358587Y102031D01*
X358587Y102032D01*
X358479Y102048D01*
X358366Y102065D01*
X358129Y102181D01*
X358095Y102191D01*
X358052Y102213D01*
X357794Y102301D01*
X357777Y102324D01*
X357776Y102324D01*
X357776Y102325D01*
X357622Y102432D01*
X353719Y104356D01*
X353718Y104357D01*
X353609Y104388D01*
X353504Y104418D01*
X353503Y104418D01*
X353284Y104565D01*
X353251Y104579D01*
X353212Y104606D01*
X352967Y104727D01*
X352953Y104752D01*
X352952Y104753D01*
X352813Y104879D01*
X349196Y107296D01*
X349195Y107297D01*
X349194Y107297D01*
X349102Y107337D01*
X348990Y107386D01*
X348791Y107560D01*
X348761Y107578D01*
X348725Y107611D01*
X348498Y107762D01*
X348488Y107789D01*
X348487Y107789D01*
X348487Y107790D01*
X348366Y107933D01*
X345095Y110802D01*
X345094Y110802D01*
X345093Y110803D01*
X344997Y110861D01*
X344902Y110918D01*
X344728Y111116D01*
X344700Y111138D01*
X344669Y111175D01*
X344464Y111355D01*
X344457Y111383D01*
X344456Y111383D01*
X344456Y111384D01*
X344355Y111542D01*
X341486Y114813D01*
X341485Y114814D01*
X341399Y114882D01*
X341311Y114953D01*
X341310Y114953D01*
X341164Y115172D01*
X341139Y115198D01*
X341113Y115238D01*
X340933Y115444D01*
X340930Y115472D01*
X340929Y115472D01*
X340929Y115473D01*
X340849Y115643D01*
X338432Y119260D01*
X338431Y119261D01*
X338431Y119262D01*
X338357Y119339D01*
X338276Y119422D01*
X338159Y119659D01*
X338144Y119679D01*
X338139Y119691D01*
X338133Y119698D01*
X338118Y119731D01*
X337966Y119958D01*
X337966Y119987D01*
X337966Y119988D01*
X337909Y120166D01*
X335985Y124069D01*
X335984Y124069D01*
X335984Y124070D01*
X335948Y124119D01*
X335943Y124131D01*
X335920Y124156D01*
X335919Y124157D01*
X335851Y124249D01*
X335766Y124499D01*
X335749Y124530D01*
X335734Y124576D01*
X335613Y124821D01*
X335618Y124849D01*
X335617Y124850D01*
X335618Y124851D01*
X335584Y125035D01*
X334186Y129155D01*
X334185Y129156D01*
X334185Y129157D01*
X334136Y129246D01*
X334077Y129352D01*
X334025Y129611D01*
X334019Y129626D01*
X334019Y129632D01*
X334011Y129652D01*
X334004Y129691D01*
X333916Y129950D01*
X333924Y129977D01*
X333924Y129978D01*
X333924Y129979D01*
X333915Y130166D01*
X333066Y134433D01*
X333066Y134434D01*
X333066Y134435D01*
X333024Y134540D01*
X332984Y134642D01*
X332967Y134906D01*
X332958Y134940D01*
X332956Y134988D01*
X332902Y135256D01*
X332914Y135282D01*
X332914Y135283D01*
X332914Y135284D01*
X332930Y135470D01*
X332645Y139817D01*
X332618Y139925D01*
X332591Y140032D01*
X332591Y140033D01*
X332591Y140034D01*
X332589Y140037D01*
X332607Y140294D01*
X332603Y140330D01*
X332608Y140381D01*
X332590Y140647D01*
X332607Y140675D01*
X332607Y140676D01*
X332608Y140677D01*
X332610Y140687D01*
X332634Y140795D01*
X332643Y140824D01*
X332643Y140837D01*
X332648Y140858D01*
X332968Y145330D01*
X332956Y145438D01*
X332956Y145441D01*
X332954Y145488D01*
X332950Y145498D01*
X332945Y145547D01*
X332944Y145550D01*
X332944Y145553D01*
X332941Y145557D01*
X332995Y145804D01*
X332996Y145842D01*
X333008Y145893D01*
X333026Y146153D01*
X333049Y146180D01*
X333050Y146183D01*
X333051Y146186D01*
X333058Y146206D01*
X333115Y146356D01*
X334069Y150741D01*
X334073Y150849D01*
X334078Y150959D01*
X334077Y150962D01*
X334077Y150965D01*
X334076Y150970D01*
X334164Y151206D01*
X334170Y151244D01*
X334189Y151293D01*
X334245Y151548D01*
X334270Y151571D01*
X334272Y151574D01*
X334274Y151576D01*
X334284Y151596D01*
X334361Y151735D01*
X335929Y155940D01*
X335942Y156010D01*
X335954Y156046D01*
X335953Y156071D01*
X335969Y156155D01*
X335969Y156158D01*
X335969Y156161D01*
X335968Y156166D01*
X336089Y156387D01*
X336101Y156424D01*
X336127Y156470D01*
X336218Y156714D01*
X336247Y156734D01*
X336249Y156736D01*
X336251Y156738D01*
X336264Y156756D01*
X336360Y156883D01*
X337518Y159004D01*
X337518Y159005D01*
X338211Y160273D01*
X338511Y160822D01*
X338545Y160924D01*
X338581Y161029D01*
X338581Y161033D01*
X338582Y161035D01*
X338582Y161040D01*
X338733Y161242D01*
X338750Y161276D01*
X338781Y161318D01*
X338907Y161547D01*
X338938Y161562D01*
X338940Y161565D01*
X338943Y161566D01*
X338958Y161582D01*
X339071Y161694D01*
X341761Y165287D01*
X341779Y165324D01*
X341798Y165347D01*
X341813Y165391D01*
X341859Y165482D01*
X341860Y165485D01*
X341861Y165487D01*
X341862Y165493D01*
X342040Y165671D01*
X342062Y165702D01*
X342099Y165739D01*
X342256Y165948D01*
X342289Y165959D01*
X342291Y165961D01*
X342294Y165961D01*
X342311Y165975D01*
X342439Y166070D01*
X345613Y169244D01*
X345674Y169332D01*
X345738Y169422D01*
X345739Y169426D01*
X345741Y169428D01*
X345742Y169433D01*
X345944Y169584D01*
X345960Y169601D01*
X345979Y169613D01*
X345992Y169628D01*
X346012Y169643D01*
X346197Y169828D01*
X346231Y169833D01*
X346234Y169835D01*
X346237Y169836D01*
X346257Y169847D01*
X346396Y169922D01*
X349989Y172612D01*
X350064Y172693D01*
X350139Y172771D01*
X350140Y172774D01*
X350142Y172776D01*
X350144Y172781D01*
X350365Y172902D01*
X350395Y172925D01*
X350441Y172950D01*
X350650Y173107D01*
X350685Y173108D01*
X350688Y173109D01*
X350691Y173109D01*
X350711Y173117D01*
X350861Y173172D01*
X354800Y175323D01*
X354885Y175391D01*
X354971Y175459D01*
X354972Y175462D01*
X354975Y175464D01*
X354977Y175468D01*
X355213Y175556D01*
X355246Y175576D01*
X355296Y175594D01*
X355525Y175719D01*
X355559Y175715D01*
X355562Y175715D01*
X355565Y175715D01*
X355587Y175721D01*
X355743Y175754D01*
X355977Y175841D01*
X357677Y176475D01*
X359378Y177109D01*
X359378Y177110D01*
X359948Y177322D01*
X360041Y177377D01*
X360136Y177432D01*
X360138Y177435D01*
X360141Y177436D01*
X360144Y177440D01*
X360390Y177494D01*
X360425Y177508D01*
X360477Y177519D01*
X360721Y177611D01*
X360755Y177602D01*
X360758Y177602D01*
X360761Y177601D01*
X360783Y177603D01*
X360942Y177614D01*
X365327Y178568D01*
X365428Y178610D01*
X365530Y178650D01*
X365532Y178653D01*
X365535Y178654D01*
X365539Y178657D01*
X365790Y178675D01*
X365827Y178685D01*
X365879Y178688D01*
X366134Y178743D01*
X366166Y178730D01*
X366170Y178730D01*
X366172Y178729D01*
X366195Y178728D01*
X366353Y178715D01*
X370774Y179032D01*
X370793Y179037D01*
X370813Y179036D01*
X370901Y179064D01*
X370928Y179071D01*
X371298Y179071D01*
X371318Y179074D01*
X371343Y179072D01*
X371653Y179094D01*
X371655Y179095D01*
X371693Y179104D01*
X371703Y179106D01*
X371753Y179102D01*
X371759Y179102D01*
X371804Y179092D01*
X372114Y179072D01*
X372133Y179074D01*
X372156Y179071D01*
X372519Y179071D01*
X372658Y179040D01*
X372679Y179035D01*
X372681Y179035D01*
X372685Y179035D01*
X376925Y178757D01*
X376926Y178757D01*
X376927Y178757D01*
X377031Y178769D01*
X377148Y178782D01*
X377407Y178731D01*
X377443Y178730D01*
X377489Y178720D01*
X377762Y178702D01*
X377784Y178684D01*
X377785Y178684D01*
X377786Y178684D01*
X377962Y178620D01*
X382181Y177781D01*
X382182Y177781D01*
X382295Y177779D01*
X382405Y177777D01*
X382655Y177692D01*
X382690Y177687D01*
X382736Y177671D01*
X383004Y177617D01*
X383023Y177597D01*
X383024Y177597D01*
X383024Y177596D01*
X383191Y177510D01*
X387264Y176128D01*
X387265Y176128D01*
X387265Y176127D01*
X387374Y176111D01*
X387486Y176094D01*
X387723Y175978D01*
X387757Y175968D01*
X387800Y175946D01*
X388059Y175858D01*
X388075Y175835D01*
X388076Y175835D01*
X388076Y175834D01*
X388230Y175727D01*
X392088Y173825D01*
X392089Y173825D01*
X392202Y173792D01*
X392304Y173763D01*
X392524Y173616D01*
X392556Y173602D01*
X392595Y173575D01*
X392841Y173454D01*
X392854Y173429D01*
X392855Y173429D01*
X392855Y173428D01*
X392994Y173302D01*
X396570Y170912D01*
X396571Y170912D01*
X396572Y170912D01*
X396670Y170869D01*
X396776Y170823D01*
X396975Y170649D01*
X397005Y170630D01*
X397041Y170598D01*
X397268Y170446D01*
X397278Y170420D01*
X397279Y170419D01*
X397400Y170276D01*
X400634Y167440D01*
X400635Y167439D01*
X400731Y167381D01*
X400826Y167324D01*
X400827Y167324D01*
X401001Y167125D01*
X401028Y167103D01*
X401059Y167067D01*
X401265Y166886D01*
X401272Y166859D01*
X401272Y166858D01*
X401374Y166700D01*
X404210Y163466D01*
X404211Y163465D01*
X404302Y163393D01*
X404385Y163326D01*
X404532Y163106D01*
X404557Y163081D01*
X404583Y163041D01*
X404763Y162835D01*
X404766Y162807D01*
X404767Y162806D01*
X404846Y162636D01*
X407236Y159060D01*
X407237Y159060D01*
X407237Y159059D01*
X407317Y158977D01*
X407392Y158898D01*
X407509Y158661D01*
X407530Y158633D01*
X407550Y158590D01*
X407702Y158362D01*
X407702Y158334D01*
X407702Y158333D01*
X407759Y158154D01*
X409661Y154296D01*
X409662Y154296D01*
X409662Y154295D01*
X409729Y154205D01*
X409795Y154116D01*
X409880Y153866D01*
X409897Y153835D01*
X409912Y153789D01*
X410033Y153544D01*
X410028Y153516D01*
X410029Y153515D01*
X410028Y153514D01*
X410062Y153330D01*
X411444Y149257D01*
X411445Y149256D01*
X411498Y149160D01*
X411553Y149061D01*
X411605Y148802D01*
X411618Y148769D01*
X411626Y148721D01*
X411714Y148462D01*
X411706Y148435D01*
X411706Y148434D01*
X411715Y148247D01*
X412554Y144028D01*
X412554Y144027D01*
X412555Y144027D01*
X412596Y143922D01*
X412636Y143819D01*
X412654Y143555D01*
X412662Y143521D01*
X412665Y143473D01*
X412718Y143205D01*
X412707Y143179D01*
X412707Y143178D01*
X412706Y143178D01*
X412691Y142991D01*
X412972Y138694D01*
X413001Y138579D01*
X413025Y138479D01*
X413026Y138478D01*
X413026Y138477D01*
X413028Y138474D01*
X413010Y138217D01*
X413014Y138181D01*
X413009Y138130D01*
X413027Y137864D01*
X413010Y137836D01*
X413010Y137835D01*
X413009Y137834D01*
X413007Y137824D01*
X412969Y137653D01*
X412646Y133127D01*
X412657Y133019D01*
X412668Y132910D01*
X412669Y132907D01*
X412669Y132904D01*
X412672Y132899D01*
X412618Y132653D01*
X412617Y132615D01*
X412605Y132564D01*
X412587Y132303D01*
X412565Y132276D01*
X412563Y132273D01*
X412562Y132271D01*
X412555Y132250D01*
X412498Y132101D01*
X411533Y127663D01*
X411529Y127554D01*
X411524Y127445D01*
X411524Y127441D01*
X411524Y127438D01*
X411526Y127434D01*
X411438Y127198D01*
X411431Y127160D01*
X411412Y127111D01*
X411357Y126856D01*
X411331Y126832D01*
X411330Y126829D01*
X411328Y126828D01*
X411318Y126808D01*
X411241Y126668D01*
X409653Y122412D01*
X409634Y122306D01*
X409613Y122198D01*
X409614Y122194D01*
X409613Y122192D01*
X409614Y122186D01*
X409493Y121965D01*
X409481Y121929D01*
X409456Y121883D01*
X409365Y121639D01*
X409336Y121619D01*
X409334Y121616D01*
X409332Y121615D01*
X409319Y121597D01*
X409223Y121470D01*
X408927Y120928D01*
X407888Y119025D01*
X407195Y117757D01*
X407195Y117756D01*
X407046Y117483D01*
X407011Y117380D01*
X406976Y117276D01*
X406976Y117273D01*
X406975Y117270D01*
X406975Y117265D01*
X406824Y117063D01*
X406807Y117029D01*
X406775Y116987D01*
X406650Y116758D01*
X406619Y116743D01*
X406616Y116740D01*
X406614Y116739D01*
X406599Y116723D01*
X406485Y116611D01*
X403763Y112975D01*
X403714Y112877D01*
X403664Y112780D01*
X403664Y112777D01*
X403663Y112774D01*
X403662Y112769D01*
X403484Y112591D01*
X403462Y112559D01*
X403425Y112522D01*
X403268Y112314D01*
X403235Y112303D01*
X403233Y112301D01*
X403230Y112300D01*
X403213Y112286D01*
X403160Y112247D01*
X403118Y112222D01*
X403105Y112207D01*
X403085Y112191D01*
X399873Y108979D01*
X399811Y108891D01*
X399747Y108801D01*
X399746Y108797D01*
X399745Y108795D01*
X399743Y108790D01*
X399542Y108639D01*
X399516Y108611D01*
X399473Y108580D01*
X399289Y108395D01*
X399254Y108390D01*
X399251Y108388D01*
X399249Y108388D01*
X399229Y108376D01*
X399089Y108301D01*
X395453Y105579D01*
X395378Y105498D01*
X395303Y105420D01*
X395302Y105417D01*
X395300Y105414D01*
X395298Y105410D01*
X395077Y105289D01*
X395047Y105265D01*
X395001Y105240D01*
X394792Y105084D01*
X394757Y105083D01*
X394754Y105082D01*
X394751Y105082D01*
X394731Y105073D01*
X394581Y105018D01*
X390594Y102841D01*
X390509Y102773D01*
X390424Y102705D01*
X390422Y102702D01*
X390420Y102701D01*
X390417Y102696D01*
X390181Y102608D01*
X390148Y102589D01*
X390099Y102571D01*
X389870Y102446D01*
X389835Y102450D01*
X389832Y102449D01*
X389829Y102449D01*
X389807Y102444D01*
X389652Y102411D01*
X389056Y102189D01*
X387355Y101554D01*
X385655Y100920D01*
X385396Y100823D01*
X385302Y100768D01*
X385207Y100713D01*
X385205Y100711D01*
X385203Y100709D01*
X385199Y100705D01*
X384953Y100652D01*
X384918Y100637D01*
X384866Y100626D01*
X384622Y100535D01*
X384588Y100544D01*
X384585Y100544D01*
X384582Y100544D01*
X384560Y100542D01*
X384401Y100531D01*
X379963Y99566D01*
X379862Y99524D01*
X379761Y99483D01*
X379758Y99481D01*
X379755Y99480D01*
X379752Y99477D01*
X379500Y99459D01*
X379463Y99449D01*
X379411Y99446D01*
X379156Y99390D01*
X379124Y99404D01*
X379121Y99404D01*
X379118Y99405D01*
X379095Y99406D01*
X378937Y99418D01*
X374411Y99095D01*
X374299Y99066D01*
X374195Y99040D01*
X374194Y99040D01*
X374193Y99039D01*
X374191Y99038D01*
X373934Y99055D01*
X373897Y99051D01*
X373847Y99054D01*
X373580Y99035D01*
X373553Y99052D01*
G37*
%LPD*%
%LPC*%
G36*
X488481Y303910D02*
X488481Y303910D01*
X483859Y305825D01*
X480323Y309361D01*
X478408Y313983D01*
X478408Y318985D01*
X479757Y322241D01*
X479764Y322271D01*
X479778Y322299D01*
X479795Y322416D01*
X479805Y322460D01*
X479803Y322471D01*
X479805Y322484D01*
X479805Y480505D01*
X481507Y484613D01*
X484379Y487486D01*
X484397Y487511D01*
X484420Y487531D01*
X484481Y487632D01*
X484507Y487670D01*
X484510Y487680D01*
X484517Y487691D01*
X485203Y489347D01*
X488553Y492697D01*
X492931Y494511D01*
X497669Y494511D01*
X502047Y492697D01*
X505397Y489347D01*
X507211Y484969D01*
X507211Y480231D01*
X505397Y475853D01*
X502345Y472800D01*
X502320Y472765D01*
X502289Y472737D01*
X502257Y472674D01*
X502216Y472616D01*
X502206Y472575D01*
X502186Y472537D01*
X502173Y472447D01*
X502160Y472399D01*
X502163Y472378D01*
X502159Y472352D01*
X502159Y322484D01*
X502164Y322454D01*
X502162Y322423D01*
X502190Y322308D01*
X502198Y322263D01*
X502204Y322254D01*
X502207Y322241D01*
X503556Y318985D01*
X503556Y313983D01*
X501641Y309361D01*
X498105Y305825D01*
X493483Y303910D01*
X488481Y303910D01*
G37*
%LPD*%
%LPC*%
G36*
X657013Y261365D02*
X657013Y261365D01*
X651225Y263763D01*
X646795Y268193D01*
X644994Y272541D01*
X644959Y272595D01*
X644933Y272654D01*
X644899Y272689D01*
X644873Y272730D01*
X644821Y272769D01*
X644776Y272815D01*
X644732Y272836D01*
X644693Y272865D01*
X644632Y272883D01*
X644573Y272911D01*
X644525Y272915D01*
X644478Y272929D01*
X644414Y272925D01*
X644350Y272930D01*
X644303Y272917D01*
X644254Y272914D01*
X644196Y272887D01*
X644134Y272870D01*
X644094Y272842D01*
X644050Y272822D01*
X644004Y272777D01*
X643952Y272739D01*
X643919Y272693D01*
X643890Y272665D01*
X643874Y272630D01*
X643843Y272586D01*
X643436Y271789D01*
X642496Y270495D01*
X641365Y269364D01*
X640071Y268424D01*
X638646Y267698D01*
X637125Y267203D01*
X636015Y267028D01*
X636015Y284099D01*
X636004Y284164D01*
X636002Y284229D01*
X635984Y284273D01*
X635976Y284320D01*
X635942Y284376D01*
X635917Y284437D01*
X635885Y284472D01*
X635861Y284513D01*
X635810Y284554D01*
X635766Y284603D01*
X635724Y284625D01*
X635687Y284654D01*
X635625Y284675D01*
X635566Y284705D01*
X635512Y284714D01*
X635475Y284726D01*
X635435Y284725D01*
X635381Y284733D01*
X634745Y284733D01*
X634745Y284735D01*
X635381Y284735D01*
X635446Y284747D01*
X635511Y284748D01*
X635555Y284766D01*
X635602Y284775D01*
X635659Y284808D01*
X635719Y284833D01*
X635754Y284865D01*
X635795Y284889D01*
X635836Y284940D01*
X635885Y284984D01*
X635907Y285026D01*
X635936Y285063D01*
X635957Y285125D01*
X635988Y285184D01*
X635996Y285238D01*
X636008Y285275D01*
X636007Y285315D01*
X636015Y285369D01*
X636015Y302440D01*
X637125Y302265D01*
X638646Y301770D01*
X640071Y301044D01*
X641365Y300104D01*
X642496Y298973D01*
X643436Y297679D01*
X643843Y296882D01*
X643882Y296830D01*
X643912Y296774D01*
X643949Y296742D01*
X643978Y296703D01*
X644033Y296668D01*
X644081Y296626D01*
X644127Y296609D01*
X644168Y296582D01*
X644231Y296569D01*
X644291Y296546D01*
X644340Y296546D01*
X644387Y296536D01*
X644451Y296545D01*
X644515Y296544D01*
X644561Y296561D01*
X644609Y296568D01*
X644666Y296599D01*
X644726Y296621D01*
X644763Y296652D01*
X644806Y296676D01*
X644848Y296724D01*
X644897Y296766D01*
X644927Y296815D01*
X644953Y296845D01*
X644966Y296881D01*
X644994Y296927D01*
X646795Y301275D01*
X651225Y305705D01*
X657013Y308103D01*
X663279Y308103D01*
X669067Y305705D01*
X673497Y301275D01*
X675557Y296302D01*
X675586Y296257D01*
X675606Y296207D01*
X675646Y296163D01*
X675678Y296113D01*
X675721Y296081D01*
X675758Y296041D01*
X675810Y296014D01*
X675857Y295979D01*
X675909Y295963D01*
X675957Y295938D01*
X676028Y295928D01*
X676072Y295915D01*
X676103Y295917D01*
X676143Y295911D01*
X699958Y295911D01*
X700000Y295918D01*
X700042Y295916D01*
X700109Y295938D01*
X700179Y295950D01*
X700215Y295972D01*
X700256Y295985D01*
X700328Y296039D01*
X700372Y296065D01*
X700385Y296081D01*
X700406Y296097D01*
X702885Y298576D01*
X702910Y298611D01*
X702941Y298639D01*
X702973Y298702D01*
X703014Y298760D01*
X703024Y298801D01*
X703044Y298839D01*
X703057Y298929D01*
X703070Y298977D01*
X703067Y298998D01*
X703071Y299024D01*
X703071Y305150D01*
X703066Y305180D01*
X703068Y305211D01*
X703042Y305317D01*
X703042Y305319D01*
X703041Y305321D01*
X703040Y305326D01*
X703032Y305371D01*
X703026Y305380D01*
X703023Y305393D01*
X701674Y308649D01*
X701674Y313651D01*
X703589Y318273D01*
X707125Y321809D01*
X711747Y323724D01*
X716749Y323724D01*
X721371Y321809D01*
X724907Y318273D01*
X726822Y313651D01*
X726822Y308649D01*
X725473Y305393D01*
X725466Y305363D01*
X725452Y305335D01*
X725435Y305218D01*
X725425Y305174D01*
X725427Y305163D01*
X725425Y305150D01*
X725425Y291909D01*
X723723Y287801D01*
X711181Y275259D01*
X707073Y273557D01*
X676143Y273557D01*
X676090Y273548D01*
X676035Y273548D01*
X675980Y273528D01*
X675922Y273518D01*
X675875Y273490D01*
X675824Y273472D01*
X675779Y273433D01*
X675729Y273403D01*
X675695Y273361D01*
X675653Y273326D01*
X675617Y273265D01*
X675587Y273229D01*
X675578Y273200D01*
X675557Y273166D01*
X673497Y268193D01*
X669067Y263763D01*
X663279Y261365D01*
X657013Y261365D01*
G37*
%LPD*%
%LPC*%
G36*
X715179Y456691D02*
X715179Y456691D01*
X709391Y459089D01*
X704961Y463519D01*
X703160Y467867D01*
X703125Y467921D01*
X703099Y467980D01*
X703065Y468015D01*
X703039Y468056D01*
X702987Y468095D01*
X702942Y468141D01*
X702898Y468162D01*
X702859Y468191D01*
X702798Y468209D01*
X702739Y468237D01*
X702691Y468241D01*
X702644Y468255D01*
X702580Y468251D01*
X702516Y468256D01*
X702469Y468243D01*
X702420Y468240D01*
X702362Y468213D01*
X702300Y468196D01*
X702260Y468168D01*
X702216Y468148D01*
X702170Y468103D01*
X702118Y468065D01*
X702085Y468019D01*
X702056Y467990D01*
X702040Y467956D01*
X702009Y467912D01*
X701602Y467115D01*
X700662Y465821D01*
X699531Y464690D01*
X698237Y463750D01*
X696812Y463024D01*
X695291Y462529D01*
X694181Y462354D01*
X694181Y479425D01*
X694170Y479490D01*
X694168Y479555D01*
X694150Y479599D01*
X694142Y479646D01*
X694108Y479702D01*
X694083Y479763D01*
X694051Y479798D01*
X694027Y479839D01*
X693976Y479880D01*
X693932Y479929D01*
X693890Y479951D01*
X693853Y479980D01*
X693791Y480001D01*
X693732Y480031D01*
X693678Y480040D01*
X693641Y480052D01*
X693601Y480051D01*
X693547Y480059D01*
X692911Y480059D01*
X692911Y480061D01*
X693547Y480061D01*
X693612Y480073D01*
X693677Y480074D01*
X693721Y480092D01*
X693768Y480101D01*
X693825Y480134D01*
X693885Y480159D01*
X693920Y480191D01*
X693961Y480215D01*
X694002Y480266D01*
X694051Y480310D01*
X694073Y480352D01*
X694102Y480389D01*
X694123Y480451D01*
X694154Y480510D01*
X694162Y480564D01*
X694174Y480601D01*
X694173Y480641D01*
X694181Y480695D01*
X694181Y497766D01*
X695291Y497591D01*
X696812Y497096D01*
X698237Y496370D01*
X699531Y495430D01*
X700662Y494299D01*
X701602Y493005D01*
X702009Y492208D01*
X702048Y492156D01*
X702078Y492100D01*
X702115Y492068D01*
X702144Y492029D01*
X702199Y491994D01*
X702247Y491952D01*
X702293Y491935D01*
X702334Y491909D01*
X702397Y491895D01*
X702457Y491872D01*
X702506Y491872D01*
X702553Y491862D01*
X702617Y491871D01*
X702681Y491870D01*
X702727Y491887D01*
X702775Y491894D01*
X702832Y491925D01*
X702892Y491947D01*
X702929Y491978D01*
X702972Y492002D01*
X703014Y492050D01*
X703063Y492092D01*
X703093Y492141D01*
X703119Y492171D01*
X703132Y492207D01*
X703160Y492253D01*
X704961Y496601D01*
X708111Y499751D01*
X708129Y499776D01*
X708152Y499796D01*
X708213Y499898D01*
X708239Y499935D01*
X708242Y499946D01*
X708249Y499957D01*
X708837Y501377D01*
X720157Y512698D01*
X720182Y512733D01*
X720213Y512761D01*
X720245Y512824D01*
X720286Y512882D01*
X720296Y512923D01*
X720316Y512961D01*
X720329Y513051D01*
X720342Y513099D01*
X720339Y513120D01*
X720343Y513146D01*
X720343Y539846D01*
X720338Y539876D01*
X720340Y539907D01*
X720324Y539972D01*
X720324Y539991D01*
X720312Y540019D01*
X720312Y540022D01*
X720304Y540067D01*
X720298Y540076D01*
X720295Y540089D01*
X718946Y543345D01*
X718946Y548347D01*
X720861Y552969D01*
X724397Y556505D01*
X729019Y558420D01*
X734021Y558420D01*
X738643Y556505D01*
X742179Y552969D01*
X744094Y548347D01*
X744094Y543345D01*
X742745Y540089D01*
X742738Y540059D01*
X742724Y540031D01*
X742715Y539971D01*
X742710Y539954D01*
X742710Y539937D01*
X742707Y539914D01*
X742697Y539870D01*
X742699Y539859D01*
X742697Y539846D01*
X742697Y506031D01*
X740995Y501923D01*
X733137Y494065D01*
X733106Y494021D01*
X733068Y493983D01*
X733043Y493929D01*
X733009Y493881D01*
X732996Y493828D01*
X732973Y493779D01*
X732968Y493721D01*
X732953Y493664D01*
X732959Y493610D01*
X732954Y493556D01*
X732972Y493487D01*
X732977Y493440D01*
X732990Y493413D01*
X733000Y493374D01*
X734061Y490813D01*
X734061Y469307D01*
X731663Y463519D01*
X727233Y459089D01*
X721445Y456691D01*
X715179Y456691D01*
G37*
%LPD*%
%LPC*%
G36*
X378120Y188721D02*
X378120Y188721D01*
X372798Y190926D01*
X368726Y194998D01*
X366521Y200320D01*
X366521Y206080D01*
X368726Y211402D01*
X372798Y215474D01*
X378120Y217679D01*
X441030Y217679D01*
X446352Y215474D01*
X450424Y211402D01*
X452629Y206080D01*
X452629Y200320D01*
X450424Y194998D01*
X446352Y190926D01*
X441030Y188721D01*
X378120Y188721D01*
G37*
%LPD*%
G36*
X179343Y552588D02*
X179343Y552588D01*
X179409Y552587D01*
X179431Y552597D01*
X179449Y552599D01*
X179482Y552620D01*
X179541Y552646D01*
X187923Y558488D01*
X187948Y558516D01*
X187980Y558536D01*
X188006Y558579D01*
X188039Y558617D01*
X188049Y558653D01*
X188068Y558685D01*
X188072Y558735D01*
X188086Y558784D01*
X188079Y558820D01*
X188082Y558858D01*
X188063Y558904D01*
X188054Y558954D01*
X188031Y558984D01*
X188017Y559018D01*
X187972Y559062D01*
X187949Y559092D01*
X187931Y559101D01*
X187913Y559119D01*
X158973Y577905D01*
X157876Y578776D01*
X156976Y579825D01*
X156292Y581026D01*
X155848Y582334D01*
X155661Y583703D01*
X155736Y585083D01*
X156072Y586424D01*
X156656Y587676D01*
X157467Y588795D01*
X158483Y589746D01*
X165363Y594600D01*
X172632Y598843D01*
X173214Y599070D01*
X173818Y599160D01*
X174428Y599114D01*
X175011Y598932D01*
X175571Y598607D01*
X198172Y584386D01*
X198232Y584365D01*
X198289Y584337D01*
X198313Y584338D01*
X198335Y584330D01*
X198399Y584338D01*
X198462Y584338D01*
X198486Y584349D01*
X198507Y584352D01*
X198539Y584373D01*
X198594Y584398D01*
X206468Y589986D01*
X206484Y590004D01*
X206505Y590016D01*
X206541Y590068D01*
X206583Y590116D01*
X206589Y590139D01*
X206603Y590159D01*
X206611Y590222D01*
X206628Y590283D01*
X206623Y590307D01*
X206627Y590330D01*
X206607Y590391D01*
X206594Y590453D01*
X206580Y590472D01*
X206572Y590495D01*
X206510Y590562D01*
X206489Y590590D01*
X206481Y590594D01*
X206474Y590602D01*
X187941Y604311D01*
X187465Y604707D01*
X187124Y605179D01*
X186910Y605720D01*
X186838Y606298D01*
X186910Y606876D01*
X187124Y607417D01*
X187465Y607889D01*
X187930Y608276D01*
X216358Y626297D01*
X216382Y626321D01*
X216412Y626338D01*
X216442Y626382D01*
X216479Y626421D01*
X216490Y626453D01*
X216509Y626482D01*
X216516Y626534D01*
X216533Y626585D01*
X216528Y626619D01*
X216533Y626653D01*
X216516Y626704D01*
X216508Y626757D01*
X216489Y626785D01*
X216478Y626818D01*
X216432Y626867D01*
X216410Y626899D01*
X216395Y626908D01*
X216380Y626924D01*
X211554Y630480D01*
X211536Y630488D01*
X211518Y630503D01*
X210490Y631096D01*
X210456Y631106D01*
X210411Y631130D01*
X209277Y631479D01*
X209242Y631481D01*
X209193Y631495D01*
X208010Y631582D01*
X207975Y631577D01*
X207924Y631579D01*
X206751Y631401D01*
X206719Y631388D01*
X206669Y631379D01*
X205564Y630944D01*
X205536Y630924D01*
X205489Y630904D01*
X204514Y630237D01*
X143050Y590616D01*
X143038Y590603D01*
X143019Y590593D01*
X141737Y589573D01*
X141718Y589548D01*
X141682Y589519D01*
X140634Y588260D01*
X140619Y588231D01*
X140590Y588196D01*
X139818Y586750D01*
X139810Y586719D01*
X139789Y586679D01*
X139325Y585108D01*
X139323Y585075D01*
X139311Y585032D01*
X139174Y583399D01*
X139179Y583367D01*
X139176Y583321D01*
X139372Y581695D01*
X139384Y581665D01*
X139390Y581619D01*
X139911Y580066D01*
X139928Y580039D01*
X139943Y579996D01*
X140768Y578580D01*
X140791Y578557D01*
X140814Y578518D01*
X141909Y577299D01*
X141935Y577280D01*
X141966Y577247D01*
X143284Y576274D01*
X143293Y576270D01*
X143301Y576263D01*
X179115Y552641D01*
X179177Y552618D01*
X179236Y552588D01*
X179257Y552588D01*
X179277Y552581D01*
X179343Y552588D01*
G37*
G36*
X252222Y504328D02*
X252222Y504328D01*
X252295Y504325D01*
X252310Y504331D01*
X252323Y504331D01*
X252357Y504350D01*
X252429Y504379D01*
X257509Y507681D01*
X257522Y507695D01*
X257543Y507706D01*
X258595Y508567D01*
X258616Y508594D01*
X258653Y508627D01*
X259493Y509696D01*
X259507Y509727D01*
X259537Y509767D01*
X260123Y510993D01*
X260130Y511027D01*
X260151Y511072D01*
X260456Y512397D01*
X260456Y512431D01*
X260466Y512480D01*
X260476Y513839D01*
X260476Y513840D01*
X260476Y513841D01*
X260730Y588771D01*
X260727Y588783D01*
X260729Y588798D01*
X260534Y591605D01*
X260527Y591628D01*
X260527Y591660D01*
X259927Y594409D01*
X259916Y594431D01*
X259911Y594462D01*
X258919Y597095D01*
X258906Y597115D01*
X258896Y597145D01*
X257532Y599607D01*
X257516Y599625D01*
X257502Y599653D01*
X255797Y601891D01*
X255784Y601901D01*
X255777Y601915D01*
X255768Y601921D01*
X255760Y601933D01*
X253748Y603899D01*
X253727Y603912D01*
X253706Y603935D01*
X251430Y605590D01*
X251422Y605593D01*
X251415Y605600D01*
X227031Y621602D01*
X226971Y621624D01*
X226915Y621653D01*
X226891Y621653D01*
X226868Y621661D01*
X226805Y621655D01*
X226742Y621656D01*
X226717Y621645D01*
X226696Y621643D01*
X226664Y621622D01*
X226609Y621599D01*
X217973Y615757D01*
X217947Y615728D01*
X217914Y615708D01*
X217889Y615666D01*
X217855Y615630D01*
X217844Y615593D01*
X217824Y615559D01*
X217820Y615510D01*
X217806Y615464D01*
X217813Y615425D01*
X217810Y615387D01*
X217828Y615341D01*
X217836Y615293D01*
X217859Y615262D01*
X217873Y615226D01*
X217916Y615184D01*
X217939Y615153D01*
X217958Y615143D01*
X217977Y615124D01*
X246158Y596591D01*
X247753Y595350D01*
X249120Y593883D01*
X250237Y592218D01*
X251075Y590397D01*
X251615Y588465D01*
X251842Y586465D01*
X251842Y504698D01*
X251858Y504627D01*
X251870Y504555D01*
X251878Y504543D01*
X251881Y504529D01*
X251928Y504473D01*
X251969Y504414D01*
X251982Y504407D01*
X251991Y504396D01*
X252058Y504366D01*
X252122Y504331D01*
X252136Y504331D01*
X252150Y504325D01*
X252222Y504328D01*
G37*
G36*
X231550Y519412D02*
X231550Y519412D01*
X231648Y519422D01*
X231975Y519519D01*
X232003Y519535D01*
X232092Y519578D01*
X232366Y519780D01*
X232387Y519805D01*
X232456Y519875D01*
X232645Y520158D01*
X232656Y520189D01*
X232698Y520278D01*
X232779Y520609D01*
X232780Y520645D01*
X232790Y520700D01*
X232790Y529336D01*
X232784Y529363D01*
X232786Y529391D01*
X232764Y529446D01*
X232751Y529505D01*
X232733Y529526D01*
X232723Y529552D01*
X232665Y529609D01*
X232641Y529638D01*
X232630Y529643D01*
X232619Y529654D01*
X199091Y551752D01*
X199037Y551772D01*
X198986Y551800D01*
X198956Y551801D01*
X198929Y551811D01*
X198871Y551805D01*
X198813Y551808D01*
X198781Y551796D01*
X198756Y551793D01*
X198727Y551774D01*
X198678Y551755D01*
X190296Y546421D01*
X190264Y546388D01*
X190226Y546364D01*
X190204Y546327D01*
X190175Y546297D01*
X190161Y546254D01*
X190138Y546215D01*
X190134Y546172D01*
X190121Y546132D01*
X190128Y546087D01*
X190124Y546042D01*
X190140Y546003D01*
X190146Y545961D01*
X190172Y545923D01*
X190189Y545881D01*
X190225Y545846D01*
X190245Y545818D01*
X190268Y545805D01*
X190293Y545781D01*
X230679Y519619D01*
X230706Y519609D01*
X230737Y519588D01*
X231051Y519455D01*
X231083Y519449D01*
X231178Y519425D01*
X231518Y519406D01*
X231550Y519412D01*
G37*
G36*
X860924Y95887D02*
X860924Y95887D01*
X860933Y95886D01*
X861034Y95907D01*
X861136Y95925D01*
X861144Y95930D01*
X861153Y95932D01*
X861240Y95987D01*
X861329Y96040D01*
X861335Y96047D01*
X861343Y96051D01*
X861405Y96134D01*
X861470Y96214D01*
X861473Y96222D01*
X861479Y96230D01*
X861509Y96328D01*
X861542Y96426D01*
X861542Y96435D01*
X861545Y96444D01*
X861539Y96548D01*
X861536Y96651D01*
X861532Y96659D01*
X861532Y96668D01*
X861490Y96763D01*
X861451Y96858D01*
X861445Y96865D01*
X861442Y96874D01*
X861369Y96948D01*
X861300Y97024D01*
X861292Y97028D01*
X861286Y97035D01*
X861119Y97121D01*
X857051Y98502D01*
X857050Y98502D01*
X857049Y98502D01*
X856941Y98518D01*
X856829Y98535D01*
X856592Y98652D01*
X856558Y98661D01*
X856515Y98683D01*
X856256Y98771D01*
X856239Y98794D01*
X856238Y98795D01*
X856084Y98902D01*
X851750Y101039D01*
X851749Y101040D01*
X851639Y101071D01*
X851534Y101101D01*
X851314Y101248D01*
X851282Y101262D01*
X851243Y101290D01*
X850997Y101410D01*
X850984Y101435D01*
X850983Y101436D01*
X850844Y101562D01*
X846826Y104247D01*
X846825Y104248D01*
X846824Y104248D01*
X846732Y104288D01*
X846620Y104337D01*
X846421Y104511D01*
X846391Y104529D01*
X846355Y104562D01*
X846128Y104714D01*
X846118Y104740D01*
X846117Y104740D01*
X846117Y104741D01*
X845996Y104884D01*
X842362Y108071D01*
X842361Y108072D01*
X842268Y108128D01*
X842170Y108186D01*
X841996Y108385D01*
X841968Y108407D01*
X841937Y108444D01*
X841731Y108624D01*
X841725Y108651D01*
X841724Y108652D01*
X841724Y108653D01*
X841623Y108810D01*
X838436Y112444D01*
X838435Y112445D01*
X838349Y112513D01*
X838261Y112584D01*
X838260Y112584D01*
X838114Y112803D01*
X838089Y112829D01*
X838063Y112869D01*
X837883Y113075D01*
X837880Y113103D01*
X837879Y113103D01*
X837879Y113104D01*
X837799Y113274D01*
X835114Y117292D01*
X835114Y117293D01*
X835039Y117370D01*
X834959Y117454D01*
X834958Y117454D01*
X834842Y117691D01*
X834821Y117719D01*
X834800Y117762D01*
X834648Y117990D01*
X834649Y118018D01*
X834649Y118019D01*
X834591Y118198D01*
X833054Y121316D01*
X833006Y121380D01*
X832965Y121449D01*
X832940Y121470D01*
X832921Y121496D01*
X832853Y121540D01*
X832791Y121591D01*
X832760Y121601D01*
X832733Y121619D01*
X832654Y121637D01*
X832579Y121662D01*
X832546Y121662D01*
X832514Y121669D01*
X832434Y121658D01*
X832354Y121656D01*
X832324Y121644D01*
X832292Y121639D01*
X832221Y121602D01*
X832147Y121572D01*
X832122Y121550D01*
X832093Y121534D01*
X832040Y121474D01*
X831981Y121420D01*
X831966Y121391D01*
X831944Y121367D01*
X831915Y121292D01*
X831878Y121221D01*
X831873Y121184D01*
X831863Y121158D01*
X831862Y121110D01*
X831851Y121035D01*
X831851Y96520D01*
X831862Y96455D01*
X831864Y96389D01*
X831882Y96346D01*
X831890Y96299D01*
X831924Y96242D01*
X831949Y96182D01*
X831980Y96147D01*
X832005Y96106D01*
X832056Y96065D01*
X832100Y96016D01*
X832142Y95994D01*
X832179Y95965D01*
X832241Y95944D01*
X832300Y95913D01*
X832354Y95905D01*
X832391Y95893D01*
X832431Y95894D01*
X832485Y95886D01*
X860915Y95886D01*
X860924Y95887D01*
G37*
G36*
X232950Y563257D02*
X232950Y563257D01*
X233019Y563259D01*
X233035Y563268D01*
X233054Y563271D01*
X233111Y563309D01*
X233171Y563342D01*
X233182Y563357D01*
X233197Y563368D01*
X233231Y563428D01*
X233271Y563484D01*
X233275Y563504D01*
X233283Y563518D01*
X233285Y563557D01*
X233298Y563626D01*
X233298Y573024D01*
X233292Y573052D01*
X233294Y573080D01*
X233272Y573135D01*
X233259Y573193D01*
X233241Y573215D01*
X233230Y573241D01*
X233173Y573297D01*
X233149Y573326D01*
X233137Y573331D01*
X233127Y573342D01*
X217633Y583502D01*
X217577Y583522D01*
X217526Y583550D01*
X217497Y583552D01*
X217470Y583561D01*
X217411Y583555D01*
X217352Y583557D01*
X217322Y583545D01*
X217298Y583543D01*
X217268Y583523D01*
X217218Y583504D01*
X209344Y578424D01*
X209311Y578389D01*
X209271Y578362D01*
X209251Y578328D01*
X209224Y578299D01*
X209209Y578253D01*
X209185Y578212D01*
X209183Y578172D01*
X209171Y578134D01*
X209178Y578086D01*
X209175Y578039D01*
X209191Y578002D01*
X209197Y577963D01*
X209225Y577923D01*
X209243Y577879D01*
X209278Y577847D01*
X209296Y577821D01*
X209321Y577807D01*
X209350Y577781D01*
X232718Y563303D01*
X232783Y563281D01*
X232846Y563253D01*
X232864Y563253D01*
X232882Y563247D01*
X232950Y563257D01*
G37*
G36*
X165034Y344427D02*
X165034Y344427D01*
X165048Y344425D01*
X165232Y344461D01*
X165385Y344516D01*
X167124Y344426D01*
X167139Y344427D01*
X167157Y344425D01*
X169278Y344425D01*
X169346Y344437D01*
X169415Y344440D01*
X169456Y344457D01*
X169499Y344464D01*
X169558Y344500D01*
X169622Y344526D01*
X169654Y344556D01*
X169692Y344579D01*
X169736Y344632D01*
X169786Y344680D01*
X169806Y344719D01*
X169833Y344753D01*
X169855Y344818D01*
X169886Y344880D01*
X169893Y344930D01*
X169905Y344965D01*
X169904Y345007D01*
X169912Y345066D01*
X169713Y363156D01*
X169703Y363210D01*
X169702Y363265D01*
X169682Y363319D01*
X169671Y363376D01*
X169642Y363423D01*
X169623Y363475D01*
X169585Y363519D01*
X169555Y363568D01*
X169512Y363602D01*
X169475Y363644D01*
X169424Y363672D01*
X169379Y363707D01*
X169326Y363725D01*
X169278Y363751D01*
X169210Y363763D01*
X169166Y363777D01*
X169134Y363776D01*
X169093Y363783D01*
X162447Y363930D01*
X162375Y363919D01*
X162302Y363917D01*
X162265Y363902D01*
X162225Y363896D01*
X162162Y363860D01*
X162095Y363833D01*
X162065Y363806D01*
X162030Y363786D01*
X161983Y363730D01*
X161929Y363681D01*
X161911Y363646D01*
X161885Y363615D01*
X161860Y363547D01*
X161826Y363482D01*
X161820Y363436D01*
X161808Y363404D01*
X161808Y363360D01*
X161799Y363296D01*
X161799Y345059D01*
X161810Y344994D01*
X161812Y344928D01*
X161830Y344885D01*
X161838Y344838D01*
X161872Y344781D01*
X161897Y344721D01*
X161928Y344686D01*
X161953Y344645D01*
X162004Y344603D01*
X162048Y344555D01*
X162090Y344533D01*
X162127Y344504D01*
X162189Y344483D01*
X162248Y344452D01*
X162302Y344444D01*
X162339Y344432D01*
X162379Y344433D01*
X162433Y344425D01*
X165020Y344425D01*
X165034Y344427D01*
G37*
G36*
X418504Y663189D02*
X418504Y663189D01*
X418596Y663191D01*
X418615Y663199D01*
X418636Y663201D01*
X418719Y663241D01*
X418803Y663276D01*
X418819Y663290D01*
X418838Y663299D01*
X418901Y663365D01*
X418969Y663427D01*
X418979Y663446D01*
X418993Y663461D01*
X419030Y663545D01*
X419072Y663627D01*
X419075Y663650D01*
X419082Y663667D01*
X419088Y663740D01*
X419099Y663812D01*
X419099Y681836D01*
X419095Y681862D01*
X419096Y681896D01*
X418974Y683190D01*
X418960Y683239D01*
X418943Y683333D01*
X418106Y685819D01*
X418104Y685822D01*
X418104Y685826D01*
X418016Y685992D01*
X416466Y688109D01*
X416464Y688111D01*
X416462Y688114D01*
X416329Y688246D01*
X414212Y689796D01*
X414209Y689798D01*
X414206Y689800D01*
X414039Y689886D01*
X411553Y690723D01*
X411503Y690731D01*
X411410Y690754D01*
X410116Y690876D01*
X410090Y690874D01*
X410056Y690879D01*
X406940Y690879D01*
X406873Y690867D01*
X406804Y690865D01*
X406763Y690847D01*
X406719Y690840D01*
X406660Y690805D01*
X406597Y690778D01*
X406564Y690748D01*
X406526Y690725D01*
X406483Y690672D01*
X406433Y690626D01*
X406413Y690586D01*
X406385Y690551D01*
X406363Y690486D01*
X406332Y690425D01*
X406327Y690381D01*
X406313Y690339D01*
X406315Y690270D01*
X406307Y690202D01*
X406318Y690159D01*
X406319Y690114D01*
X406345Y690051D01*
X406362Y689984D01*
X406390Y689941D01*
X406404Y689907D01*
X406431Y689876D01*
X406463Y689827D01*
X408502Y687502D01*
X408503Y687501D01*
X408589Y687432D01*
X408678Y687362D01*
X408825Y687142D01*
X408850Y687116D01*
X408875Y687076D01*
X409056Y686871D01*
X409059Y686843D01*
X409059Y686842D01*
X409059Y686841D01*
X409139Y686672D01*
X411806Y682681D01*
X411806Y682680D01*
X411889Y682595D01*
X411961Y682519D01*
X411962Y682519D01*
X412078Y682282D01*
X412098Y682257D01*
X412109Y682229D01*
X412114Y682223D01*
X412120Y682211D01*
X412272Y681983D01*
X412271Y681955D01*
X412272Y681954D01*
X412329Y681775D01*
X414451Y677471D01*
X414452Y677470D01*
X414452Y677469D01*
X414517Y677382D01*
X414585Y677290D01*
X414670Y677040D01*
X414687Y677009D01*
X414702Y676963D01*
X414823Y676718D01*
X414818Y676690D01*
X414819Y676689D01*
X414818Y676688D01*
X414852Y676504D01*
X416395Y671959D01*
X416395Y671958D01*
X416448Y671862D01*
X416503Y671763D01*
X416555Y671504D01*
X416568Y671471D01*
X416576Y671423D01*
X416664Y671165D01*
X416656Y671137D01*
X416657Y671137D01*
X416656Y671136D01*
X416665Y670949D01*
X417602Y666242D01*
X417602Y666241D01*
X417602Y666240D01*
X417643Y666135D01*
X417684Y666033D01*
X417684Y666032D01*
X417701Y665769D01*
X417710Y665734D01*
X417712Y665687D01*
X417765Y665418D01*
X417754Y665393D01*
X417754Y665392D01*
X417754Y665391D01*
X417738Y665204D01*
X417832Y663771D01*
X417854Y663682D01*
X417870Y663591D01*
X417881Y663573D01*
X417886Y663553D01*
X417938Y663477D01*
X417985Y663398D01*
X418001Y663385D01*
X418013Y663368D01*
X418088Y663314D01*
X418159Y663257D01*
X418179Y663250D01*
X418196Y663238D01*
X418284Y663214D01*
X418371Y663185D01*
X418392Y663185D01*
X418413Y663180D01*
X418504Y663189D01*
G37*
%LPC*%
G36*
X682751Y481329D02*
X682751Y481329D01*
X682751Y488480D01*
X683001Y490059D01*
X683496Y491580D01*
X684222Y493005D01*
X685162Y494299D01*
X686293Y495430D01*
X687587Y496370D01*
X689012Y497096D01*
X690533Y497591D01*
X691643Y497766D01*
X691643Y481329D01*
X682751Y481329D01*
G37*
%LPD*%
%LPC*%
G36*
X624585Y286003D02*
X624585Y286003D01*
X624585Y293154D01*
X624835Y294733D01*
X625330Y296254D01*
X626056Y297679D01*
X626996Y298973D01*
X628127Y300104D01*
X629421Y301044D01*
X630846Y301770D01*
X632367Y302265D01*
X633477Y302440D01*
X633477Y286003D01*
X624585Y286003D01*
G37*
%LPD*%
%LPC*%
G36*
X690533Y462529D02*
X690533Y462529D01*
X689012Y463024D01*
X687587Y463750D01*
X686293Y464690D01*
X685162Y465821D01*
X684222Y467115D01*
X683496Y468540D01*
X683001Y470061D01*
X682751Y471640D01*
X682751Y478791D01*
X691643Y478791D01*
X691643Y462354D01*
X690533Y462529D01*
G37*
%LPD*%
%LPC*%
G36*
X632367Y267203D02*
X632367Y267203D01*
X630846Y267698D01*
X629421Y268424D01*
X628127Y269364D01*
X626996Y270495D01*
X626056Y271789D01*
X625330Y273214D01*
X624835Y274735D01*
X624585Y276314D01*
X624585Y283465D01*
X633477Y283465D01*
X633477Y267028D01*
X632367Y267203D01*
G37*
%LPD*%
G36*
X189251Y568101D02*
X189251Y568101D01*
X189291Y568100D01*
X189361Y568122D01*
X189432Y568136D01*
X189467Y568156D01*
X189505Y568169D01*
X189562Y568214D01*
X189624Y568252D01*
X189649Y568283D01*
X189681Y568308D01*
X189719Y568370D01*
X189764Y568427D01*
X189780Y568470D01*
X189797Y568500D01*
X189806Y568543D01*
X189828Y568604D01*
X189973Y569328D01*
X189973Y569346D01*
X189979Y569368D01*
X191236Y578707D01*
X191234Y578750D01*
X191242Y578792D01*
X191230Y578861D01*
X191226Y578931D01*
X191210Y578970D01*
X191202Y579013D01*
X191166Y579073D01*
X191139Y579137D01*
X191110Y579169D01*
X191088Y579206D01*
X191020Y579264D01*
X190985Y579301D01*
X190966Y579310D01*
X190946Y579328D01*
X181948Y584989D01*
X181931Y584996D01*
X181916Y585008D01*
X181827Y585038D01*
X181740Y585074D01*
X181721Y585074D01*
X181704Y585080D01*
X181610Y585077D01*
X181515Y585080D01*
X181498Y585074D01*
X181479Y585073D01*
X181392Y585038D01*
X181303Y585008D01*
X181289Y584996D01*
X181272Y584989D01*
X181202Y584926D01*
X181129Y584866D01*
X181120Y584850D01*
X181106Y584838D01*
X181063Y584754D01*
X181015Y584673D01*
X181012Y584655D01*
X181003Y584638D01*
X180976Y584453D01*
X180976Y580715D01*
X180982Y580681D01*
X180981Y580635D01*
X181121Y579530D01*
X180998Y579078D01*
X180994Y579036D01*
X180976Y578911D01*
X180976Y578443D01*
X180549Y577414D01*
X180542Y577381D01*
X180524Y577338D01*
X180230Y576264D01*
X179944Y575894D01*
X179924Y575856D01*
X179859Y575748D01*
X179680Y575316D01*
X179530Y575166D01*
X179519Y575150D01*
X179504Y575138D01*
X179455Y575058D01*
X179402Y574982D01*
X179397Y574963D01*
X179387Y574946D01*
X179370Y574855D01*
X179346Y574764D01*
X179348Y574745D01*
X179345Y574725D01*
X179360Y574634D01*
X179370Y574541D01*
X179378Y574524D01*
X179382Y574504D01*
X179428Y574423D01*
X179469Y574340D01*
X179483Y574327D01*
X179493Y574310D01*
X179628Y574190D01*
X179632Y574186D01*
X179633Y574186D01*
X179634Y574185D01*
X188860Y568196D01*
X188928Y568168D01*
X188991Y568131D01*
X189030Y568125D01*
X189067Y568109D01*
X189140Y568106D01*
X189212Y568094D01*
X189251Y568101D01*
G37*
G36*
X235650Y404888D02*
X235650Y404888D01*
X235716Y404890D01*
X235759Y404908D01*
X235806Y404916D01*
X235863Y404950D01*
X235923Y404975D01*
X235958Y405006D01*
X235999Y405031D01*
X236041Y405082D01*
X236089Y405126D01*
X236111Y405168D01*
X236140Y405205D01*
X236161Y405267D01*
X236192Y405326D01*
X236200Y405380D01*
X236212Y405417D01*
X236211Y405457D01*
X236219Y405511D01*
X236219Y415417D01*
X236208Y415482D01*
X236206Y415548D01*
X236188Y415591D01*
X236180Y415638D01*
X236146Y415695D01*
X236121Y415755D01*
X236090Y415790D01*
X236065Y415831D01*
X236014Y415873D01*
X235970Y415921D01*
X235928Y415943D01*
X235891Y415972D01*
X235829Y415993D01*
X235770Y416024D01*
X235716Y416032D01*
X235679Y416044D01*
X235639Y416043D01*
X235585Y416051D01*
X229743Y416051D01*
X229678Y416040D01*
X229612Y416038D01*
X229569Y416020D01*
X229522Y416012D01*
X229465Y415978D01*
X229405Y415953D01*
X229370Y415922D01*
X229329Y415897D01*
X229287Y415846D01*
X229239Y415802D01*
X229217Y415760D01*
X229188Y415723D01*
X229167Y415661D01*
X229136Y415602D01*
X229128Y415548D01*
X229116Y415511D01*
X229117Y415471D01*
X229109Y415417D01*
X229109Y405511D01*
X229120Y405446D01*
X229122Y405380D01*
X229140Y405337D01*
X229148Y405290D01*
X229182Y405233D01*
X229207Y405173D01*
X229238Y405138D01*
X229263Y405097D01*
X229314Y405055D01*
X229358Y405007D01*
X229400Y404985D01*
X229437Y404956D01*
X229499Y404935D01*
X229558Y404904D01*
X229612Y404896D01*
X229649Y404884D01*
X229689Y404885D01*
X229743Y404877D01*
X235585Y404877D01*
X235650Y404888D01*
G37*
%LPC*%
G36*
X679386Y545274D02*
X679386Y545274D01*
X679386Y551255D01*
X680472Y551039D01*
X681743Y550513D01*
X682887Y549748D01*
X683860Y548775D01*
X684625Y547631D01*
X685151Y546360D01*
X685367Y545274D01*
X679386Y545274D01*
G37*
%LPD*%
%LPC*%
G36*
X671501Y545274D02*
X671501Y545274D01*
X671717Y546360D01*
X672243Y547631D01*
X673008Y548775D01*
X673981Y549748D01*
X675125Y550513D01*
X676396Y551039D01*
X677482Y551255D01*
X677482Y545274D01*
X671501Y545274D01*
G37*
%LPD*%
%LPC*%
G36*
X679386Y543370D02*
X679386Y543370D01*
X685367Y543370D01*
X685151Y542284D01*
X684625Y541013D01*
X683860Y539869D01*
X682887Y538896D01*
X681743Y538131D01*
X680472Y537605D01*
X679386Y537389D01*
X679386Y543370D01*
G37*
%LPD*%
%LPC*%
G36*
X676396Y537605D02*
X676396Y537605D01*
X675125Y538131D01*
X673981Y538896D01*
X673008Y539869D01*
X672243Y541013D01*
X671717Y542284D01*
X671501Y543370D01*
X677482Y543370D01*
X677482Y537389D01*
X676396Y537605D01*
G37*
%LPD*%
G36*
X233393Y321835D02*
X233393Y321835D01*
X233425Y321832D01*
X233503Y321850D01*
X233583Y321861D01*
X233612Y321876D01*
X233643Y321884D01*
X233710Y321929D01*
X233781Y321967D01*
X233802Y321991D01*
X233829Y322009D01*
X233876Y322074D01*
X233930Y322134D01*
X233942Y322165D01*
X233961Y322191D01*
X233982Y322269D01*
X234011Y322344D01*
X234011Y322376D01*
X234020Y322407D01*
X234013Y322488D01*
X234014Y322568D01*
X234003Y322603D01*
X234000Y322631D01*
X233980Y322674D01*
X233957Y322746D01*
X233266Y324139D01*
X233236Y324181D01*
X233213Y324227D01*
X233169Y324270D01*
X233133Y324319D01*
X233089Y324348D01*
X233052Y324384D01*
X232996Y324408D01*
X232945Y324442D01*
X232894Y324453D01*
X232847Y324474D01*
X232786Y324478D01*
X232726Y324491D01*
X232675Y324484D01*
X232623Y324487D01*
X232564Y324469D01*
X232503Y324461D01*
X232458Y324437D01*
X232408Y324422D01*
X232360Y324384D01*
X232305Y324356D01*
X232271Y324317D01*
X232230Y324286D01*
X232188Y324223D01*
X232157Y324188D01*
X232146Y324161D01*
X232125Y324130D01*
X231635Y323100D01*
X231604Y322987D01*
X231576Y322885D01*
X231576Y322884D01*
X231586Y322771D01*
X231595Y322661D01*
X231596Y322661D01*
X231596Y322660D01*
X231647Y322552D01*
X231692Y322458D01*
X231692Y322457D01*
X231774Y322378D01*
X231852Y322302D01*
X231853Y322302D01*
X231853Y322301D01*
X231858Y322299D01*
X232021Y322221D01*
X233202Y321858D01*
X233282Y321849D01*
X233361Y321831D01*
X233393Y321835D01*
G37*
G36*
X163050Y265118D02*
X163050Y265118D01*
X163072Y265119D01*
X163118Y265137D01*
X163203Y265162D01*
X163361Y265234D01*
X163435Y265285D01*
X163513Y265331D01*
X163527Y265348D01*
X163546Y265361D01*
X163598Y265435D01*
X163655Y265505D01*
X163662Y265526D01*
X163675Y265545D01*
X163698Y265632D01*
X163726Y265717D01*
X163726Y265740D01*
X163731Y265762D01*
X163722Y265852D01*
X163720Y265942D01*
X163711Y265962D01*
X163709Y265985D01*
X163669Y266066D01*
X163635Y266149D01*
X163620Y266166D01*
X163610Y266187D01*
X163545Y266248D01*
X163484Y266315D01*
X163464Y266325D01*
X163448Y266341D01*
X163365Y266376D01*
X163284Y266418D01*
X163260Y266421D01*
X163241Y266429D01*
X163191Y266432D01*
X163099Y266445D01*
X162941Y266445D01*
X162876Y266434D01*
X162810Y266432D01*
X162767Y266414D01*
X162720Y266406D01*
X162663Y266372D01*
X162603Y266347D01*
X162568Y266316D01*
X162527Y266291D01*
X162485Y266240D01*
X162437Y266196D01*
X162415Y266154D01*
X162386Y266117D01*
X162365Y266055D01*
X162334Y265996D01*
X162326Y265942D01*
X162314Y265905D01*
X162315Y265865D01*
X162307Y265811D01*
X162307Y265739D01*
X162322Y265653D01*
X162331Y265565D01*
X162342Y265543D01*
X162346Y265518D01*
X162391Y265443D01*
X162430Y265364D01*
X162448Y265347D01*
X162461Y265325D01*
X162529Y265270D01*
X162593Y265209D01*
X162615Y265199D01*
X162635Y265184D01*
X162718Y265156D01*
X162799Y265121D01*
X162824Y265120D01*
X162847Y265112D01*
X162935Y265115D01*
X163023Y265110D01*
X163050Y265118D01*
G37*
D10*
X623697Y136576D02*
X623697Y151816D01*
X598297Y151816D02*
X598297Y136576D01*
X572897Y136576D02*
X572897Y151816D01*
X649097Y151816D02*
X649097Y136576D01*
X692912Y472440D02*
X692912Y487680D01*
X718312Y487680D02*
X718312Y472440D01*
X634746Y292354D02*
X634746Y277114D01*
X660146Y277114D02*
X660146Y292354D01*
D11*
X201930Y598170D02*
X191008Y606298D01*
X201930Y598170D02*
X210820Y603504D01*
X212344Y616204D01*
X219202Y620522D01*
X219202Y624078D01*
X191008Y606298D01*
X200223Y599440D02*
X204047Y599440D01*
X208280Y601980D02*
X196810Y601980D01*
X193397Y604520D02*
X210942Y604520D01*
X211247Y607060D02*
X192216Y607060D01*
X196244Y609600D02*
X211552Y609600D01*
X211856Y612140D02*
X200272Y612140D01*
X204299Y614680D02*
X212161Y614680D01*
X213958Y617220D02*
X208327Y617220D01*
X212355Y619760D02*
X217992Y619760D01*
X219202Y622300D02*
X216383Y622300D01*
X193040Y607579D02*
X193040Y604786D01*
X195580Y602896D02*
X195580Y609181D01*
X198120Y610783D02*
X198120Y601005D01*
X200660Y599115D02*
X200660Y612385D01*
X203200Y613987D02*
X203200Y598932D01*
X205740Y600456D02*
X205740Y615588D01*
X208280Y617190D02*
X208280Y601980D01*
X210820Y603504D02*
X210820Y618792D01*
X213360Y620394D02*
X213360Y616844D01*
X215900Y618443D02*
X215900Y621996D01*
X218440Y623597D02*
X218440Y620042D01*
X202184Y570484D02*
X198374Y567944D01*
X202184Y570484D02*
X203200Y578612D01*
X208534Y582168D01*
X209296Y587248D01*
X200152Y581152D01*
X198374Y567944D01*
X198511Y568960D02*
X199898Y568960D01*
X198853Y571500D02*
X202311Y571500D01*
X202629Y574040D02*
X199195Y574040D01*
X199537Y576580D02*
X202946Y576580D01*
X203962Y579120D02*
X199878Y579120D01*
X200914Y581660D02*
X207772Y581660D01*
X208839Y584200D02*
X204724Y584200D01*
X208534Y586740D02*
X209220Y586740D01*
X200660Y581491D02*
X200660Y569468D01*
X203200Y578612D02*
X203200Y583184D01*
X205740Y584877D02*
X205740Y580305D01*
X208280Y581999D02*
X208280Y586571D01*
X167132Y577088D02*
X161290Y581152D01*
X160617Y581758D01*
X160116Y582512D01*
X159819Y583367D01*
X159743Y584270D01*
X159893Y585163D01*
X160261Y585990D01*
X160823Y586700D01*
X161544Y587248D01*
X172466Y594614D01*
X172466Y580136D01*
X167132Y577088D01*
X164211Y579120D02*
X170688Y579120D01*
X172466Y581660D02*
X160726Y581660D01*
X159749Y584200D02*
X172466Y584200D01*
X172466Y586740D02*
X160876Y586740D01*
X164557Y589280D02*
X172466Y589280D01*
X172466Y591820D02*
X168323Y591820D01*
X172089Y594360D02*
X172466Y594360D01*
X160020Y585447D02*
X160020Y582789D01*
X162560Y580269D02*
X162560Y587933D01*
X165100Y589646D02*
X165100Y578502D01*
X167640Y577378D02*
X167640Y591359D01*
X170180Y593072D02*
X170180Y578830D01*
X183134Y538734D02*
X179578Y536194D01*
X183134Y538734D02*
X183896Y546354D01*
X190500Y551180D01*
X190500Y556006D01*
X180848Y549148D01*
X179578Y536194D01*
X179802Y538480D02*
X182778Y538480D01*
X183363Y541020D02*
X180051Y541020D01*
X180300Y543560D02*
X183617Y543560D01*
X183871Y546100D02*
X180549Y546100D01*
X180798Y548640D02*
X187024Y548640D01*
X183708Y551180D02*
X190500Y551180D01*
X190500Y553720D02*
X187283Y553720D01*
X180340Y543966D02*
X180340Y536738D01*
X182880Y538553D02*
X182880Y550592D01*
X185420Y552397D02*
X185420Y547468D01*
X187960Y549324D02*
X187960Y554201D01*
D12*
X151638Y469900D02*
X151892Y450342D01*
X151638Y469900D02*
X151638Y470662D01*
X151640Y470846D01*
X151647Y471030D01*
X151658Y471214D01*
X151674Y471397D01*
X151694Y471580D01*
X151718Y471763D01*
X151747Y471945D01*
X151780Y472126D01*
X151818Y472306D01*
X151859Y472486D01*
X151906Y472664D01*
X151956Y472841D01*
X152011Y473017D01*
X152070Y473191D01*
X152133Y473364D01*
X152201Y473535D01*
X152272Y473705D01*
X152348Y473873D01*
X152427Y474039D01*
X152511Y474203D01*
X152598Y474365D01*
X152690Y474525D01*
X152785Y474683D01*
X152884Y474838D01*
X152987Y474991D01*
X153093Y475141D01*
X153203Y475289D01*
X153317Y475434D01*
X153434Y475576D01*
X153554Y475715D01*
X153678Y475851D01*
X153805Y475985D01*
X153935Y476115D01*
X154069Y476242D01*
X154205Y476366D01*
X154344Y476486D01*
X154486Y476603D01*
X154631Y476717D01*
X154779Y476827D01*
X154929Y476933D01*
X155082Y477036D01*
X155237Y477135D01*
X155395Y477230D01*
X155555Y477322D01*
X155717Y477409D01*
X155881Y477493D01*
X156047Y477572D01*
X156215Y477648D01*
X156385Y477719D01*
X156556Y477787D01*
X156729Y477850D01*
X156903Y477909D01*
X157079Y477964D01*
X157256Y478014D01*
X157434Y478061D01*
X157614Y478102D01*
X157794Y478140D01*
X157975Y478173D01*
X158157Y478202D01*
X158340Y478226D01*
X158523Y478246D01*
X158706Y478262D01*
X158890Y478273D01*
X159074Y478280D01*
X159258Y478282D01*
X180594Y478282D01*
X170180Y475996D02*
X170180Y450342D01*
X151638Y437134D02*
X151638Y417576D01*
X151638Y437134D02*
X151640Y437331D01*
X151648Y437529D01*
X151660Y437725D01*
X151676Y437922D01*
X151698Y438118D01*
X151724Y438314D01*
X151755Y438509D01*
X151791Y438703D01*
X151831Y438896D01*
X151876Y439088D01*
X151926Y439279D01*
X151980Y439469D01*
X152039Y439657D01*
X152103Y439844D01*
X152171Y440029D01*
X152243Y440213D01*
X152320Y440394D01*
X152401Y440574D01*
X152487Y440752D01*
X152577Y440928D01*
X152671Y441101D01*
X152770Y441272D01*
X152872Y441441D01*
X152979Y441607D01*
X153089Y441770D01*
X153204Y441931D01*
X153322Y442089D01*
X153444Y442244D01*
X153570Y442396D01*
X153699Y442545D01*
X153832Y442690D01*
X153969Y442833D01*
X154109Y442972D01*
X154252Y443108D01*
X154399Y443240D01*
X154549Y443368D01*
X154701Y443493D01*
X154857Y443614D01*
X155016Y443732D01*
X155177Y443845D01*
X155341Y443954D01*
X155508Y444060D01*
X155678Y444161D01*
X155849Y444258D01*
X156023Y444351D01*
X156200Y444440D01*
X156378Y444525D01*
X156558Y444605D01*
X156740Y444681D01*
X156924Y444752D01*
X157110Y444819D01*
X157297Y444881D01*
X157486Y444939D01*
X157676Y444992D01*
X157867Y445040D01*
X158060Y445084D01*
X158253Y445123D01*
X158447Y445158D01*
X158643Y445187D01*
X158838Y445212D01*
X159035Y445233D01*
X159231Y445248D01*
X159428Y445259D01*
X159626Y445265D01*
X159823Y445266D01*
X160020Y445262D01*
X180594Y445516D01*
X151892Y411226D02*
X151892Y390906D01*
X151894Y390707D01*
X151902Y390509D01*
X151914Y390311D01*
X151931Y390113D01*
X151953Y389915D01*
X151979Y389718D01*
X152011Y389522D01*
X152047Y389327D01*
X152088Y389132D01*
X152133Y388939D01*
X152184Y388747D01*
X152239Y388556D01*
X152299Y388367D01*
X152363Y388179D01*
X152432Y387992D01*
X152505Y387808D01*
X152583Y387625D01*
X152666Y387444D01*
X152752Y387266D01*
X152843Y387089D01*
X152939Y386915D01*
X153038Y386743D01*
X153142Y386573D01*
X153250Y386407D01*
X153362Y386243D01*
X153478Y386081D01*
X153598Y385923D01*
X153721Y385767D01*
X153849Y385615D01*
X153980Y385466D01*
X154115Y385320D01*
X154253Y385177D01*
X154394Y385038D01*
X154540Y384902D01*
X154688Y384770D01*
X154839Y384641D01*
X154994Y384516D01*
X155151Y384395D01*
X155312Y384278D01*
X155475Y384165D01*
X155641Y384056D01*
X155810Y383951D01*
X155981Y383850D01*
X156155Y383754D01*
X156330Y383661D01*
X156509Y383573D01*
X156689Y383489D01*
X156871Y383410D01*
X157055Y383335D01*
X157241Y383265D01*
X157428Y383199D01*
X157617Y383138D01*
X157808Y383082D01*
X157999Y383030D01*
X158192Y382983D01*
X158387Y382941D01*
X158582Y382903D01*
X158777Y382870D01*
X158974Y382842D01*
X159171Y382819D01*
X159369Y382800D01*
X159567Y382787D01*
X159766Y382778D01*
X180848Y383032D01*
X179832Y391922D02*
X179832Y406146D01*
X179829Y406361D01*
X179822Y406577D01*
X179809Y406792D01*
X179790Y407007D01*
X179767Y407221D01*
X179738Y407434D01*
X179704Y407647D01*
X179665Y407859D01*
X179621Y408070D01*
X179572Y408280D01*
X179518Y408488D01*
X179459Y408695D01*
X179395Y408901D01*
X179325Y409105D01*
X179251Y409307D01*
X179172Y409508D01*
X179088Y409706D01*
X179000Y409903D01*
X178906Y410097D01*
X178808Y410289D01*
X178706Y410478D01*
X178598Y410665D01*
X178487Y410849D01*
X178370Y411031D01*
X178250Y411209D01*
X178125Y411385D01*
X177996Y411558D01*
X177863Y411727D01*
X177726Y411893D01*
X177585Y412056D01*
X177439Y412215D01*
X177290Y412371D01*
X177138Y412523D01*
X176982Y412671D01*
X176822Y412816D01*
X176658Y412956D01*
X176492Y413093D01*
X176322Y413225D01*
X176149Y413354D01*
X175973Y413478D01*
X175794Y413598D01*
X175612Y413713D01*
X175427Y413824D01*
X175240Y413931D01*
X175050Y414032D01*
X174857Y414130D01*
X174663Y414222D01*
X174466Y414310D01*
X174267Y414393D01*
X174067Y414472D01*
X173864Y414545D01*
X173660Y414613D01*
X173454Y414677D01*
X173246Y414735D01*
X173038Y414789D01*
X172828Y414837D01*
X172617Y414880D01*
X172405Y414918D01*
X172192Y414951D01*
X171978Y414979D01*
X171764Y415002D01*
X171549Y415019D01*
X171334Y415031D01*
X171118Y415038D01*
X170903Y415040D01*
X170688Y415036D01*
X170443Y415026D01*
X170199Y415010D01*
X169956Y414989D01*
X169713Y414961D01*
X169471Y414927D01*
X169230Y414888D01*
X168989Y414842D01*
X168750Y414791D01*
X168513Y414734D01*
X168276Y414671D01*
X168042Y414603D01*
X167809Y414529D01*
X167578Y414449D01*
X167349Y414363D01*
X167122Y414272D01*
X166897Y414176D01*
X166675Y414074D01*
X166456Y413966D01*
X166239Y413854D01*
X166025Y413736D01*
X165813Y413612D01*
X165605Y413484D01*
X165400Y413351D01*
X165199Y413213D01*
X165001Y413070D01*
X164806Y412922D01*
X164615Y412769D01*
X164428Y412612D01*
X164245Y412450D01*
X164065Y412284D01*
X163890Y412113D01*
X163719Y411939D01*
X163552Y411760D01*
X163390Y411577D01*
X163232Y411390D01*
X163079Y411200D01*
X162931Y411006D01*
X162787Y410808D01*
X162648Y410607D01*
X162514Y410402D01*
X162385Y410194D01*
X162262Y409984D01*
X162143Y409770D01*
X162030Y409553D01*
X161922Y409334D01*
X161819Y409112D01*
X161722Y408888D01*
X161630Y408661D01*
X161544Y408432D01*
X161544Y384810D01*
X151638Y366268D02*
X151638Y343916D01*
X151638Y366268D02*
X151640Y366461D01*
X151647Y366655D01*
X151659Y366848D01*
X151676Y367040D01*
X151697Y367233D01*
X151723Y367424D01*
X151754Y367615D01*
X151789Y367805D01*
X151829Y367995D01*
X151873Y368183D01*
X151922Y368370D01*
X151976Y368556D01*
X152034Y368740D01*
X152097Y368923D01*
X152164Y369104D01*
X152236Y369284D01*
X152312Y369462D01*
X152392Y369638D01*
X152476Y369812D01*
X152565Y369984D01*
X152658Y370153D01*
X152755Y370320D01*
X152856Y370485D01*
X152962Y370648D01*
X153071Y370807D01*
X153184Y370964D01*
X153300Y371119D01*
X153421Y371270D01*
X153545Y371418D01*
X153673Y371563D01*
X153804Y371705D01*
X153939Y371844D01*
X154077Y371980D01*
X154218Y372112D01*
X154362Y372240D01*
X154510Y372365D01*
X154661Y372487D01*
X154814Y372604D01*
X154971Y372718D01*
X155130Y372828D01*
X155291Y372934D01*
X155456Y373036D01*
X155622Y373134D01*
X155791Y373228D01*
X155963Y373318D01*
X156136Y373403D01*
X156312Y373484D01*
X156489Y373561D01*
X156668Y373634D01*
X156849Y373702D01*
X157032Y373766D01*
X157216Y373825D01*
X157402Y373880D01*
X157588Y373930D01*
X157776Y373975D01*
X157965Y374016D01*
X158155Y374053D01*
X158346Y374084D01*
X158538Y374111D01*
X158730Y374134D01*
X158922Y374151D01*
X159115Y374164D01*
X159308Y374172D01*
X159502Y374176D01*
X159695Y374175D01*
X159889Y374169D01*
X160082Y374158D01*
X160274Y374142D01*
X171704Y373888D01*
X171909Y373881D01*
X172114Y373869D01*
X172319Y373852D01*
X172523Y373830D01*
X172727Y373803D01*
X172929Y373771D01*
X173131Y373735D01*
X173332Y373693D01*
X173532Y373646D01*
X173731Y373595D01*
X173929Y373539D01*
X174125Y373478D01*
X174319Y373413D01*
X174512Y373342D01*
X174703Y373267D01*
X174893Y373188D01*
X175080Y373104D01*
X175265Y373015D01*
X175448Y372922D01*
X175629Y372825D01*
X175807Y372723D01*
X175983Y372617D01*
X176156Y372506D01*
X176326Y372392D01*
X176494Y372273D01*
X176659Y372150D01*
X176820Y372024D01*
X176979Y371893D01*
X177134Y371759D01*
X177286Y371621D01*
X177435Y371479D01*
X177580Y371334D01*
X177721Y371185D01*
X177859Y371033D01*
X177993Y370878D01*
X178124Y370719D01*
X178250Y370558D01*
X178373Y370393D01*
X178491Y370225D01*
X178606Y370055D01*
X178716Y369882D01*
X178822Y369706D01*
X178924Y369528D01*
X179021Y369347D01*
X179114Y369164D01*
X179203Y368979D01*
X179287Y368791D01*
X179366Y368602D01*
X179441Y368411D01*
X179511Y368218D01*
X179577Y368023D01*
X179638Y367827D01*
X179693Y367630D01*
X179745Y367431D01*
X179791Y367231D01*
X179832Y367030D01*
X180086Y343916D01*
X166878Y334264D02*
X150622Y334264D01*
X166878Y334264D02*
X180848Y334264D01*
X166878Y334264D02*
X151638Y302260D01*
X180340Y302260D02*
X165862Y331470D01*
X152146Y294640D02*
X152146Y259080D01*
X151892Y276606D02*
X180594Y276606D01*
X151892Y252730D02*
X151892Y232410D01*
X151894Y232211D01*
X151902Y232013D01*
X151914Y231815D01*
X151931Y231617D01*
X151953Y231419D01*
X151979Y231222D01*
X152011Y231026D01*
X152047Y230831D01*
X152088Y230636D01*
X152133Y230443D01*
X152184Y230251D01*
X152239Y230060D01*
X152299Y229871D01*
X152363Y229683D01*
X152432Y229496D01*
X152505Y229312D01*
X152583Y229129D01*
X152666Y228948D01*
X152752Y228770D01*
X152843Y228593D01*
X152939Y228419D01*
X153038Y228247D01*
X153142Y228077D01*
X153250Y227911D01*
X153362Y227747D01*
X153478Y227585D01*
X153598Y227427D01*
X153721Y227271D01*
X153849Y227119D01*
X153980Y226970D01*
X154115Y226824D01*
X154253Y226681D01*
X154394Y226542D01*
X154540Y226406D01*
X154688Y226274D01*
X154839Y226145D01*
X154994Y226020D01*
X155151Y225899D01*
X155312Y225782D01*
X155475Y225669D01*
X155641Y225560D01*
X155810Y225455D01*
X155981Y225354D01*
X156155Y225258D01*
X156330Y225165D01*
X156509Y225077D01*
X156689Y224993D01*
X156871Y224914D01*
X157055Y224839D01*
X157241Y224769D01*
X157428Y224703D01*
X157617Y224642D01*
X157808Y224586D01*
X157999Y224534D01*
X158192Y224487D01*
X158387Y224445D01*
X158582Y224407D01*
X158777Y224374D01*
X158974Y224346D01*
X159171Y224323D01*
X159369Y224304D01*
X159567Y224291D01*
X159766Y224282D01*
X180848Y224536D01*
X179832Y233426D02*
X179832Y247650D01*
X179829Y247865D01*
X179822Y248081D01*
X179809Y248296D01*
X179790Y248511D01*
X179767Y248725D01*
X179738Y248938D01*
X179704Y249151D01*
X179665Y249363D01*
X179621Y249574D01*
X179572Y249784D01*
X179518Y249992D01*
X179459Y250199D01*
X179395Y250405D01*
X179325Y250609D01*
X179251Y250811D01*
X179172Y251012D01*
X179088Y251210D01*
X179000Y251407D01*
X178906Y251601D01*
X178808Y251793D01*
X178706Y251982D01*
X178598Y252169D01*
X178487Y252353D01*
X178370Y252535D01*
X178250Y252713D01*
X178125Y252889D01*
X177996Y253062D01*
X177863Y253231D01*
X177726Y253397D01*
X177585Y253560D01*
X177439Y253719D01*
X177290Y253875D01*
X177138Y254027D01*
X176982Y254175D01*
X176822Y254320D01*
X176658Y254460D01*
X176492Y254597D01*
X176322Y254729D01*
X176149Y254858D01*
X175973Y254982D01*
X175794Y255102D01*
X175612Y255217D01*
X175427Y255328D01*
X175240Y255435D01*
X175050Y255536D01*
X174857Y255634D01*
X174663Y255726D01*
X174466Y255814D01*
X174267Y255897D01*
X174067Y255976D01*
X173864Y256049D01*
X173660Y256117D01*
X173454Y256181D01*
X173246Y256239D01*
X173038Y256293D01*
X172828Y256341D01*
X172617Y256384D01*
X172405Y256422D01*
X172192Y256455D01*
X171978Y256483D01*
X171764Y256506D01*
X171549Y256523D01*
X171334Y256535D01*
X171118Y256542D01*
X170903Y256544D01*
X170688Y256540D01*
X170443Y256530D01*
X170199Y256514D01*
X169956Y256493D01*
X169713Y256465D01*
X169471Y256431D01*
X169230Y256392D01*
X168989Y256346D01*
X168750Y256295D01*
X168513Y256238D01*
X168276Y256175D01*
X168042Y256107D01*
X167809Y256033D01*
X167578Y255953D01*
X167349Y255867D01*
X167122Y255776D01*
X166897Y255680D01*
X166675Y255578D01*
X166456Y255470D01*
X166239Y255358D01*
X166025Y255240D01*
X165813Y255116D01*
X165605Y254988D01*
X165400Y254855D01*
X165199Y254717D01*
X165001Y254574D01*
X164806Y254426D01*
X164615Y254273D01*
X164428Y254116D01*
X164245Y253954D01*
X164065Y253788D01*
X163890Y253617D01*
X163719Y253443D01*
X163552Y253264D01*
X163390Y253081D01*
X163232Y252894D01*
X163079Y252704D01*
X162931Y252510D01*
X162787Y252312D01*
X162648Y252111D01*
X162514Y251906D01*
X162385Y251698D01*
X162262Y251488D01*
X162143Y251274D01*
X162030Y251057D01*
X161922Y250838D01*
X161819Y250616D01*
X161722Y250392D01*
X161630Y250165D01*
X161544Y249936D01*
X161544Y226314D01*
X171704Y212852D02*
X150368Y212852D01*
X171704Y212852D02*
X171904Y212850D01*
X172105Y212842D01*
X172305Y212830D01*
X172504Y212813D01*
X172704Y212791D01*
X172902Y212764D01*
X173100Y212732D01*
X173297Y212695D01*
X173493Y212654D01*
X173688Y212607D01*
X173882Y212556D01*
X174075Y212500D01*
X174266Y212440D01*
X174455Y212375D01*
X174643Y212305D01*
X174829Y212230D01*
X175013Y212151D01*
X175196Y212068D01*
X175376Y211980D01*
X175554Y211888D01*
X175729Y211791D01*
X175902Y211690D01*
X176073Y211585D01*
X176241Y211476D01*
X176406Y211362D01*
X176569Y211245D01*
X176728Y211124D01*
X176885Y210998D01*
X177038Y210869D01*
X177188Y210737D01*
X177335Y210600D01*
X177479Y210460D01*
X177619Y210317D01*
X177755Y210170D01*
X177888Y210020D01*
X178017Y209866D01*
X178142Y209710D01*
X178263Y209551D01*
X178381Y209388D01*
X178494Y209223D01*
X178604Y209055D01*
X178709Y208884D01*
X178810Y208711D01*
X178906Y208535D01*
X178999Y208358D01*
X179087Y208177D01*
X179170Y207995D01*
X179249Y207811D01*
X179323Y207625D01*
X179393Y207437D01*
X179459Y207248D01*
X179519Y207056D01*
X179575Y206864D01*
X179626Y206670D01*
X179672Y206475D01*
X179714Y206279D01*
X179751Y206082D01*
X179782Y205884D01*
X179809Y205686D01*
X179832Y205486D01*
X180086Y184658D01*
X217170Y479552D02*
X239776Y479552D01*
X239943Y479550D01*
X240110Y479544D01*
X240277Y479534D01*
X240443Y479519D01*
X240610Y479501D01*
X240775Y479479D01*
X240940Y479453D01*
X241105Y479422D01*
X241268Y479388D01*
X241431Y479350D01*
X241592Y479307D01*
X241753Y479261D01*
X241912Y479211D01*
X242071Y479157D01*
X242227Y479099D01*
X242383Y479038D01*
X242537Y478972D01*
X242689Y478903D01*
X242839Y478830D01*
X242988Y478754D01*
X243135Y478674D01*
X243279Y478591D01*
X243422Y478503D01*
X243562Y478413D01*
X243701Y478319D01*
X243837Y478222D01*
X243970Y478121D01*
X244101Y478018D01*
X244230Y477911D01*
X244355Y477801D01*
X244479Y477688D01*
X244599Y477572D01*
X244716Y477453D01*
X244831Y477331D01*
X244942Y477207D01*
X245051Y477080D01*
X245156Y476950D01*
X245258Y476818D01*
X245357Y476683D01*
X245453Y476546D01*
X245545Y476406D01*
X245634Y476265D01*
X245719Y476121D01*
X245801Y475975D01*
X245879Y475828D01*
X245954Y475678D01*
X246025Y475527D01*
X246092Y475374D01*
X246156Y475219D01*
X246215Y475063D01*
X246271Y474906D01*
X246323Y474747D01*
X246371Y474587D01*
X246416Y474426D01*
X246456Y474264D01*
X246492Y474101D01*
X246525Y473937D01*
X246553Y473772D01*
X246577Y473607D01*
X246598Y473441D01*
X246614Y473274D01*
X246626Y473108D01*
X246634Y472941D01*
X246638Y472774D01*
X246639Y472607D01*
X246634Y472440D01*
X246634Y442976D01*
X246632Y442825D01*
X246626Y442673D01*
X246616Y442522D01*
X246603Y442371D01*
X246585Y442221D01*
X246564Y442071D01*
X246538Y441921D01*
X246509Y441773D01*
X246476Y441625D01*
X246439Y441478D01*
X246399Y441332D01*
X246354Y441187D01*
X246306Y441043D01*
X246254Y440901D01*
X246199Y440760D01*
X246140Y440620D01*
X246077Y440483D01*
X246011Y440346D01*
X245941Y440212D01*
X245868Y440079D01*
X245792Y439948D01*
X245712Y439820D01*
X245628Y439693D01*
X245542Y439569D01*
X245452Y439447D01*
X245360Y439327D01*
X245264Y439209D01*
X245165Y439095D01*
X245063Y438982D01*
X244958Y438873D01*
X244851Y438766D01*
X244741Y438662D01*
X244628Y438561D01*
X244513Y438463D01*
X244395Y438368D01*
X244275Y438275D01*
X244152Y438186D01*
X244027Y438101D01*
X243900Y438018D01*
X243771Y437939D01*
X243640Y437863D01*
X243506Y437791D01*
X243372Y437722D01*
X243235Y437657D01*
X243097Y437595D01*
X242957Y437536D01*
X242816Y437482D01*
X242673Y437431D01*
X242529Y437383D01*
X242384Y437340D01*
X242238Y437300D01*
X242090Y437264D01*
X241942Y437232D01*
X241794Y437204D01*
X241644Y437179D01*
X241494Y437159D01*
X241343Y437142D01*
X241192Y437129D01*
X241041Y437120D01*
X240890Y437115D01*
X240738Y437114D01*
X240587Y437117D01*
X240435Y437124D01*
X240284Y437134D01*
X217932Y437134D01*
X217424Y458470D02*
X246380Y458470D01*
X227838Y426212D02*
X225298Y426212D01*
X227838Y426212D02*
X239014Y426212D01*
X239188Y426216D01*
X239361Y426215D01*
X239534Y426211D01*
X239707Y426202D01*
X239879Y426189D01*
X240051Y426172D01*
X240223Y426151D01*
X240394Y426125D01*
X240565Y426095D01*
X240735Y426062D01*
X240904Y426024D01*
X241072Y425982D01*
X241238Y425936D01*
X241404Y425885D01*
X241569Y425831D01*
X241732Y425773D01*
X241893Y425711D01*
X242053Y425645D01*
X242212Y425575D01*
X242368Y425502D01*
X242523Y425424D01*
X242676Y425343D01*
X242827Y425258D01*
X242976Y425170D01*
X243122Y425077D01*
X243267Y424982D01*
X243408Y424883D01*
X243548Y424780D01*
X243685Y424674D01*
X243819Y424565D01*
X243951Y424452D01*
X244080Y424337D01*
X244206Y424218D01*
X244329Y424096D01*
X244449Y423972D01*
X244566Y423844D01*
X244680Y423714D01*
X244790Y423581D01*
X244898Y423445D01*
X245002Y423306D01*
X245102Y423166D01*
X245199Y423022D01*
X245293Y422877D01*
X245383Y422729D01*
X245470Y422579D01*
X245553Y422427D01*
X245632Y422273D01*
X245707Y422117D01*
X245779Y421960D01*
X245846Y421800D01*
X245910Y421639D01*
X245970Y421477D01*
X246026Y421313D01*
X246078Y421148D01*
X246126Y420982D01*
X246170Y420814D01*
X246209Y420646D01*
X246245Y420476D01*
X246276Y420306D01*
X246304Y420135D01*
X246327Y419964D01*
X246346Y419792D01*
X246361Y419619D01*
X246371Y419446D01*
X246378Y419273D01*
X246380Y419100D01*
X246380Y402844D01*
X246378Y402642D01*
X246370Y402439D01*
X246358Y402237D01*
X246341Y402036D01*
X246318Y401835D01*
X246291Y401634D01*
X246259Y401434D01*
X246223Y401235D01*
X246181Y401037D01*
X246135Y400840D01*
X246083Y400645D01*
X246027Y400450D01*
X245967Y400257D01*
X245901Y400066D01*
X245831Y399876D01*
X245757Y399688D01*
X245678Y399502D01*
X245594Y399317D01*
X245506Y399135D01*
X245413Y398955D01*
X245316Y398778D01*
X245215Y398602D01*
X245110Y398430D01*
X245000Y398260D01*
X244886Y398092D01*
X244768Y397928D01*
X244647Y397766D01*
X244521Y397608D01*
X244391Y397452D01*
X244258Y397300D01*
X244121Y397151D01*
X243981Y397005D01*
X243837Y396863D01*
X243689Y396724D01*
X243538Y396590D01*
X243384Y396458D01*
X243227Y396331D01*
X243067Y396207D01*
X242904Y396088D01*
X242738Y395972D01*
X242569Y395860D01*
X242397Y395753D01*
X242223Y395650D01*
X242047Y395551D01*
X241868Y395456D01*
X241687Y395366D01*
X241504Y395280D01*
X241318Y395199D01*
X241131Y395122D01*
X240942Y395050D01*
X240751Y394983D01*
X240559Y394920D01*
X240365Y394862D01*
X240170Y394808D01*
X239973Y394760D01*
X239776Y394716D01*
X226314Y394716D01*
X226131Y394718D01*
X225949Y394725D01*
X225766Y394736D01*
X225584Y394752D01*
X225403Y394772D01*
X225222Y394797D01*
X225041Y394826D01*
X224862Y394859D01*
X224683Y394897D01*
X224505Y394939D01*
X224329Y394986D01*
X224153Y395036D01*
X223979Y395092D01*
X223806Y395151D01*
X223635Y395215D01*
X223465Y395282D01*
X223297Y395354D01*
X223131Y395430D01*
X222967Y395510D01*
X222805Y395595D01*
X222645Y395683D01*
X222487Y395775D01*
X222331Y395870D01*
X222178Y395970D01*
X222028Y396073D01*
X221879Y396180D01*
X221734Y396291D01*
X221591Y396405D01*
X221452Y396523D01*
X221315Y396644D01*
X221181Y396768D01*
X221050Y396895D01*
X220922Y397026D01*
X220798Y397160D01*
X220677Y397297D01*
X220559Y397436D01*
X220445Y397579D01*
X220334Y397724D01*
X220227Y397872D01*
X220124Y398023D01*
X220024Y398176D01*
X219928Y398332D01*
X219836Y398489D01*
X219748Y398649D01*
X219664Y398812D01*
X219584Y398976D01*
X219507Y399142D01*
X219435Y399310D01*
X219367Y399479D01*
X219304Y399650D01*
X219244Y399823D01*
X219189Y399997D01*
X219138Y400173D01*
X219091Y400349D01*
X219049Y400527D01*
X219011Y400706D01*
X218977Y400885D01*
X218948Y401066D01*
X218948Y405638D01*
X218948Y418084D01*
X218948Y418338D02*
X218948Y405638D01*
X218948Y418338D02*
X218950Y418532D01*
X218958Y418727D01*
X218969Y418921D01*
X218986Y419115D01*
X219008Y419308D01*
X219034Y419501D01*
X219065Y419693D01*
X219100Y419884D01*
X219140Y420074D01*
X219185Y420263D01*
X219235Y420452D01*
X219289Y420638D01*
X219348Y420824D01*
X219411Y421008D01*
X219478Y421190D01*
X219551Y421371D01*
X219627Y421549D01*
X219708Y421726D01*
X219793Y421901D01*
X219883Y422074D01*
X219977Y422244D01*
X220074Y422412D01*
X220176Y422578D01*
X220282Y422741D01*
X220392Y422901D01*
X220506Y423059D01*
X220624Y423214D01*
X220745Y423366D01*
X220870Y423515D01*
X220999Y423661D01*
X221131Y423803D01*
X221267Y423942D01*
X221406Y424078D01*
X221548Y424211D01*
X221694Y424340D01*
X221843Y424465D01*
X221994Y424587D01*
X222149Y424705D01*
X222307Y424819D01*
X222467Y424929D01*
X222630Y425035D01*
X222795Y425137D01*
X222963Y425235D01*
X223134Y425329D01*
X223306Y425419D01*
X223481Y425505D01*
X223657Y425586D01*
X223836Y425663D01*
X224017Y425735D01*
X224199Y425803D01*
X224383Y425867D01*
X224568Y425926D01*
X224755Y425980D01*
X224943Y426030D01*
X225132Y426075D01*
X225322Y426116D01*
X225513Y426151D01*
X225705Y426183D01*
X225898Y426209D01*
X226091Y426231D01*
X226285Y426248D01*
X226479Y426260D01*
X226673Y426267D01*
X226868Y426270D01*
X227062Y426268D01*
X227257Y426261D01*
X227451Y426249D01*
X227645Y426233D01*
X227838Y426212D01*
X218440Y376174D02*
X218440Y356362D01*
X218440Y376174D02*
X218442Y376378D01*
X218450Y376581D01*
X218462Y376785D01*
X218479Y376987D01*
X218502Y377190D01*
X218529Y377392D01*
X218560Y377593D01*
X218597Y377793D01*
X218639Y377993D01*
X218685Y378191D01*
X218736Y378388D01*
X218792Y378584D01*
X218853Y378778D01*
X218918Y378971D01*
X218988Y379163D01*
X219063Y379352D01*
X219142Y379540D01*
X219226Y379726D01*
X219314Y379909D01*
X219406Y380091D01*
X219503Y380270D01*
X219605Y380447D01*
X219710Y380621D01*
X219820Y380792D01*
X219933Y380961D01*
X220051Y381128D01*
X220173Y381291D01*
X220299Y381451D01*
X220428Y381608D01*
X220562Y381762D01*
X220699Y381913D01*
X220839Y382060D01*
X220983Y382204D01*
X221131Y382344D01*
X221282Y382481D01*
X221436Y382614D01*
X221593Y382744D01*
X221754Y382869D01*
X221917Y382991D01*
X222084Y383108D01*
X222253Y383222D01*
X222425Y383331D01*
X222599Y383436D01*
X222776Y383537D01*
X222955Y383634D01*
X223137Y383726D01*
X223321Y383814D01*
X223506Y383897D01*
X223694Y383976D01*
X223884Y384050D01*
X224075Y384120D01*
X224268Y384185D01*
X224463Y384246D01*
X224659Y384301D01*
X224856Y384352D01*
X225054Y384398D01*
X225254Y384439D01*
X225454Y384476D01*
X225655Y384507D01*
X225857Y384534D01*
X226060Y384556D01*
X247396Y384556D01*
X233680Y351028D02*
X217424Y351028D01*
X233680Y351028D02*
X247650Y351028D01*
X233680Y351028D02*
X218440Y319024D01*
X247142Y319024D02*
X232664Y348234D01*
X218694Y307340D02*
X218948Y284480D01*
X218694Y307340D02*
X218695Y307484D01*
X218699Y307627D01*
X218707Y307771D01*
X218719Y307914D01*
X218735Y308057D01*
X218754Y308199D01*
X218778Y308341D01*
X218805Y308482D01*
X218836Y308623D01*
X218871Y308762D01*
X218910Y308900D01*
X218952Y309038D01*
X218998Y309174D01*
X219048Y309309D01*
X219101Y309442D01*
X219158Y309574D01*
X219219Y309705D01*
X219283Y309834D01*
X219350Y309961D01*
X219421Y310086D01*
X219495Y310209D01*
X219572Y310330D01*
X219653Y310449D01*
X219737Y310566D01*
X219824Y310680D01*
X219914Y310792D01*
X220007Y310902D01*
X220103Y311009D01*
X220201Y311113D01*
X220303Y311215D01*
X220407Y311314D01*
X220514Y311410D01*
X220624Y311503D01*
X220736Y311594D01*
X220850Y311681D01*
X220966Y311765D01*
X221085Y311846D01*
X221206Y311923D01*
X221329Y311998D01*
X221454Y312069D01*
X221581Y312136D01*
X221710Y312200D01*
X221840Y312261D01*
X221972Y312318D01*
X222106Y312372D01*
X222240Y312422D01*
X222376Y312468D01*
X222514Y312511D01*
X222652Y312549D01*
X222792Y312585D01*
X222932Y312616D01*
X223073Y312643D01*
X223215Y312667D01*
X223357Y312687D01*
X223500Y312703D01*
X223643Y312715D01*
X223787Y312724D01*
X223930Y312728D01*
X224074Y312729D01*
X224218Y312725D01*
X224361Y312718D01*
X224505Y312707D01*
X224648Y312692D01*
X224790Y312674D01*
X224958Y312652D01*
X225127Y312634D01*
X225297Y312619D01*
X225466Y312609D01*
X225636Y312603D01*
X225806Y312601D01*
X225976Y312603D01*
X226146Y312609D01*
X226315Y312619D01*
X226485Y312634D01*
X226654Y312652D01*
X226822Y312674D01*
X226962Y312692D01*
X227103Y312707D01*
X227243Y312717D01*
X227385Y312724D01*
X227526Y312727D01*
X227667Y312726D01*
X227808Y312721D01*
X227949Y312712D01*
X228090Y312699D01*
X228230Y312682D01*
X228370Y312662D01*
X228509Y312638D01*
X228648Y312609D01*
X228786Y312577D01*
X228922Y312541D01*
X229058Y312502D01*
X229192Y312458D01*
X229326Y312411D01*
X229457Y312361D01*
X229588Y312306D01*
X229717Y312249D01*
X229844Y312187D01*
X229970Y312122D01*
X230093Y312054D01*
X230215Y311982D01*
X230335Y311907D01*
X230452Y311829D01*
X230568Y311747D01*
X230681Y311662D01*
X230791Y311574D01*
X230900Y311483D01*
X231005Y311390D01*
X231108Y311293D01*
X231209Y311193D01*
X231306Y311091D01*
X231401Y310986D01*
X231492Y310879D01*
X231581Y310769D01*
X231667Y310656D01*
X231749Y310542D01*
X231829Y310425D01*
X231905Y310306D01*
X231977Y310184D01*
X232047Y310061D01*
X232113Y309936D01*
X232175Y309810D01*
X232234Y309681D01*
X232289Y309551D01*
X232341Y309420D01*
X232389Y309287D01*
X232434Y309153D01*
X232474Y309017D01*
X232511Y308881D01*
X232544Y308744D01*
X232574Y308605D01*
X232599Y308466D01*
X232621Y308327D01*
X232639Y308187D01*
X232653Y308046D01*
X232663Y307905D01*
X232669Y307764D01*
X232671Y307623D01*
X232669Y307481D01*
X232664Y307340D01*
X232664Y291084D01*
X232666Y290938D01*
X232672Y290793D01*
X232681Y290648D01*
X232694Y290503D01*
X232712Y290358D01*
X232733Y290214D01*
X232757Y290070D01*
X232786Y289927D01*
X232818Y289785D01*
X232854Y289644D01*
X232893Y289504D01*
X232936Y289365D01*
X232983Y289227D01*
X233034Y289090D01*
X233088Y288955D01*
X233145Y288821D01*
X233206Y288689D01*
X233271Y288559D01*
X233339Y288430D01*
X233410Y288303D01*
X233484Y288178D01*
X233562Y288054D01*
X233643Y287933D01*
X233727Y287814D01*
X233814Y287698D01*
X233905Y287583D01*
X233998Y287472D01*
X234094Y287362D01*
X234193Y287255D01*
X234294Y287151D01*
X234399Y287049D01*
X234506Y286951D01*
X234615Y286855D01*
X234727Y286762D01*
X234842Y286672D01*
X234959Y286584D01*
X235078Y286500D01*
X235199Y286420D01*
X235322Y286342D01*
X235447Y286268D01*
X235574Y286197D01*
X235703Y286129D01*
X235834Y286065D01*
X235966Y286004D01*
X235967Y286004D02*
X236164Y285919D01*
X236364Y285839D01*
X236566Y285763D01*
X236770Y285693D01*
X236975Y285628D01*
X237182Y285567D01*
X237390Y285512D01*
X237600Y285462D01*
X237810Y285416D01*
X238022Y285376D01*
X238235Y285342D01*
X238448Y285312D01*
X238662Y285288D01*
X238877Y285268D01*
X239092Y285254D01*
X239307Y285246D01*
X239522Y285242D01*
X239719Y285244D01*
X239915Y285250D01*
X240111Y285261D01*
X240307Y285276D01*
X240502Y285297D01*
X240697Y285322D01*
X240891Y285352D01*
X241084Y285386D01*
X241277Y285425D01*
X241468Y285468D01*
X241659Y285517D01*
X241848Y285569D01*
X242036Y285627D01*
X242222Y285688D01*
X242407Y285754D01*
X242590Y285825D01*
X242772Y285900D01*
X242952Y285979D01*
X243129Y286063D01*
X243305Y286151D01*
X243478Y286243D01*
X243650Y286339D01*
X243819Y286439D01*
X243985Y286543D01*
X244149Y286652D01*
X244310Y286764D01*
X244469Y286880D01*
X244624Y286999D01*
X244777Y287123D01*
X244927Y287250D01*
X245074Y287381D01*
X245217Y287515D01*
X245357Y287652D01*
X245494Y287793D01*
X245628Y287937D01*
X245758Y288084D01*
X245884Y288234D01*
X246007Y288388D01*
X246126Y288544D01*
X246197Y288643D01*
X246266Y288745D01*
X246331Y288848D01*
X246392Y288953D01*
X246451Y289061D01*
X246506Y289170D01*
X246558Y289280D01*
X246606Y289393D01*
X246651Y289506D01*
X246692Y289621D01*
X246729Y289738D01*
X246763Y289855D01*
X246793Y289973D01*
X246820Y290093D01*
X246842Y290213D01*
X246861Y290333D01*
X246877Y290454D01*
X246888Y290576D01*
X246888Y312166D01*
D13*
X731520Y545846D03*
X678434Y544322D03*
X548894Y275590D03*
X714248Y311150D03*
X559308Y316484D03*
X592074Y316484D03*
X490982Y316484D03*
X527558Y316484D03*
X547370Y219964D03*
X592582Y219456D03*
X638302Y219456D03*
X678942Y218948D03*
D14*
X671068Y480060D02*
X692912Y480060D01*
X671068Y480060D02*
X634746Y443738D01*
X678434Y503428D02*
X678434Y544322D01*
X678434Y503428D02*
X692912Y488950D01*
X634746Y443738D02*
X634746Y284734D01*
X692912Y480060D02*
X692912Y488950D01*
X559308Y433028D02*
X559308Y316484D01*
X559308Y433028D02*
X564430Y438150D01*
D15*
X564430Y438150D03*
X577850Y412750D03*
D14*
X592074Y398526D01*
X592074Y316484D01*
X718312Y480060D02*
X718312Y495046D01*
X731520Y508254D02*
X731520Y545846D01*
X731520Y508254D02*
X718312Y495046D01*
X714248Y311150D02*
X714248Y294132D01*
X704850Y284734D01*
X660146Y284734D01*
X548894Y275590D02*
X548894Y472694D01*
X552450Y476250D01*
D15*
X552450Y476250D03*
X403606Y433578D03*
D14*
X406400Y430784D01*
X406400Y311150D01*
X441960Y275590D01*
X548894Y275590D01*
X527558Y316484D02*
X527558Y451358D01*
X533400Y457200D01*
D15*
X533400Y457200D03*
D14*
X490982Y478282D02*
X490982Y316484D01*
X490982Y478282D02*
X495300Y482600D01*
D15*
X495300Y482600D03*
D16*
X678942Y218948D02*
X678942Y189992D01*
X649097Y160147D02*
X649097Y144196D01*
X649097Y160147D02*
X678942Y189992D01*
X638302Y197866D02*
X638302Y219456D01*
X638302Y197866D02*
X623697Y183261D01*
X623697Y144196D01*
D15*
X438150Y203200D03*
D17*
X381000Y203200D01*
D15*
X381000Y203200D03*
D16*
X592582Y191008D02*
X592582Y219456D01*
X592582Y191008D02*
X598424Y185166D01*
X598424Y144323D02*
X598297Y144196D01*
X598424Y144323D02*
X598424Y185166D01*
X547370Y202946D02*
X547370Y219964D01*
X547370Y202946D02*
X572897Y177419D01*
X572897Y144196D01*
M02*
