G04 EAGLE Gerber RS-274X export*
G75*
%MOMM*%
%FSLAX34Y34*%
%LPD*%
%INSolderpaste Top*%
%IPPOS*%
%AMOC8*
5,1,8,0,0,1.08239X$1,22.5*%
G01*
%ADD10R,2.200000X0.600000*%
%ADD11R,2.600000X1.800000*%
%ADD12R,0.600000X2.200000*%
%ADD13R,1.800000X2.600000*%


D10*
X356280Y523400D03*
X356280Y533400D03*
X356280Y513400D03*
X356280Y543400D03*
D11*
X332280Y207400D03*
X332280Y589400D03*
D10*
X356280Y553400D03*
X356280Y563400D03*
X356280Y503400D03*
X356280Y493400D03*
X356280Y483400D03*
X356280Y473400D03*
X356280Y463400D03*
X356280Y453400D03*
X356280Y443400D03*
X356280Y433400D03*
X356280Y423400D03*
X356280Y413400D03*
X356280Y403400D03*
X356280Y393400D03*
X356280Y383400D03*
X356280Y373400D03*
X356280Y363400D03*
X356280Y353400D03*
X356280Y343400D03*
X356280Y333400D03*
X356280Y323400D03*
X356280Y313400D03*
X356280Y303400D03*
X356280Y293400D03*
X356280Y283400D03*
X356280Y273400D03*
X356280Y263400D03*
X356280Y253400D03*
X356280Y243400D03*
X356280Y233400D03*
D12*
X564430Y500302D03*
X574430Y500302D03*
X554430Y500302D03*
X584430Y500302D03*
D13*
X468430Y524302D03*
X630430Y524302D03*
D12*
X594430Y500302D03*
X604430Y500302D03*
X544430Y500302D03*
X534430Y500302D03*
X524430Y500302D03*
X514430Y500302D03*
X504430Y500302D03*
X494430Y500302D03*
M02*
