G04 EAGLE Gerber RS-274X export*
G75*
%MOMM*%
%FSLAX34Y34*%
%LPD*%
%INSilkscreen Bottom*%
%IPPOS*%
%AMOC8*
5,1,8,0,0,1.08239X$1,22.5*%
G01*
%ADD10C,0.076200*%

G36*
X241588Y498340D02*
X241588Y498340D01*
X241616Y498348D01*
X241656Y498349D01*
X243478Y498765D01*
X243504Y498777D01*
X243543Y498786D01*
X245260Y499523D01*
X245263Y499525D01*
X245267Y499526D01*
X246230Y499962D01*
X246256Y499982D01*
X246300Y500003D01*
X247147Y500635D01*
X247169Y500661D01*
X247207Y500691D01*
X247899Y501490D01*
X247915Y501519D01*
X247946Y501557D01*
X248451Y502485D01*
X248460Y502518D01*
X248482Y502561D01*
X248777Y503576D01*
X248779Y503605D01*
X248791Y503709D01*
X248767Y504056D01*
X248771Y504082D01*
X248783Y504105D01*
X248782Y504140D01*
X248792Y504191D01*
X248538Y583435D01*
X248551Y584950D01*
X248545Y584974D01*
X248547Y585006D01*
X248336Y586507D01*
X248328Y586527D01*
X248327Y586546D01*
X248325Y586550D01*
X248324Y586562D01*
X247893Y588015D01*
X247881Y588036D01*
X247873Y588067D01*
X247233Y589441D01*
X247215Y589464D01*
X247198Y589500D01*
X246009Y591176D01*
X245989Y591194D01*
X245968Y591225D01*
X244515Y592678D01*
X244492Y592693D01*
X244466Y592719D01*
X242790Y593908D01*
X242784Y593910D01*
X242779Y593916D01*
X215347Y611950D01*
X215294Y611969D01*
X215245Y611997D01*
X215214Y611999D01*
X215184Y612009D01*
X215128Y612003D01*
X215072Y612006D01*
X215043Y611994D01*
X215012Y611991D01*
X214964Y611960D01*
X214912Y611938D01*
X214892Y611914D01*
X214866Y611898D01*
X214837Y611849D01*
X214800Y611806D01*
X214790Y611772D01*
X214776Y611749D01*
X214773Y611715D01*
X214759Y611667D01*
X213743Y600745D01*
X213750Y600701D01*
X213746Y600656D01*
X213761Y600616D01*
X213767Y600574D01*
X213792Y600536D01*
X213809Y600495D01*
X213845Y600459D01*
X213864Y600430D01*
X213887Y600417D01*
X213912Y600393D01*
X234979Y586433D01*
X236019Y585593D01*
X236872Y584586D01*
X237521Y583438D01*
X237944Y582188D01*
X238125Y580878D01*
X237365Y558329D01*
X237293Y557880D01*
X237122Y557486D01*
X236858Y557146D01*
X236518Y556882D01*
X236124Y556711D01*
X235693Y556642D01*
X235065Y556679D01*
X234448Y556833D01*
X233862Y557103D01*
X206706Y574361D01*
X206659Y574377D01*
X206617Y574402D01*
X206579Y574405D01*
X206542Y574418D01*
X206493Y574412D01*
X206444Y574416D01*
X206409Y574402D01*
X206370Y574397D01*
X206329Y574370D01*
X206284Y574351D01*
X206258Y574323D01*
X206226Y574301D01*
X206201Y574259D01*
X206168Y574222D01*
X206155Y574179D01*
X206139Y574152D01*
X206137Y574122D01*
X206124Y574084D01*
X204854Y563162D01*
X204860Y563110D01*
X204857Y563058D01*
X204870Y563025D01*
X204874Y562990D01*
X204902Y562946D01*
X204922Y562897D01*
X204952Y562869D01*
X204968Y562844D01*
X204995Y562828D01*
X205028Y562797D01*
X234478Y544010D01*
X235805Y543001D01*
X236935Y541801D01*
X237297Y541238D01*
X237536Y540617D01*
X237645Y539960D01*
X237618Y539257D01*
X237619Y539254D01*
X237618Y539251D01*
X237110Y518169D01*
X237110Y518168D01*
X237110Y518167D01*
X237099Y517564D01*
X236944Y517034D01*
X236655Y516564D01*
X236255Y516190D01*
X235220Y515680D01*
X235049Y515595D01*
X233740Y515186D01*
X232406Y514988D01*
X231337Y515124D01*
X230288Y515447D01*
X229296Y515951D01*
X187656Y542357D01*
X187609Y542373D01*
X187567Y542398D01*
X187529Y542401D01*
X187492Y542414D01*
X187443Y542408D01*
X187394Y542412D01*
X187359Y542397D01*
X187320Y542393D01*
X187279Y542366D01*
X187234Y542347D01*
X187208Y542318D01*
X187176Y542297D01*
X187151Y542255D01*
X187118Y542218D01*
X187104Y542175D01*
X187088Y542147D01*
X187086Y542118D01*
X187074Y542080D01*
X185804Y531158D01*
X185810Y531105D01*
X185807Y531052D01*
X185820Y531020D01*
X185824Y530986D01*
X185853Y530941D01*
X185873Y530892D01*
X185902Y530865D01*
X185918Y530840D01*
X185945Y530824D01*
X185978Y530793D01*
X232425Y501351D01*
X232649Y501127D01*
X232699Y501096D01*
X232744Y501058D01*
X232772Y501051D01*
X232796Y501036D01*
X232855Y501030D01*
X232890Y501021D01*
X234221Y500071D01*
X234240Y500063D01*
X234260Y500046D01*
X235899Y499150D01*
X235927Y499142D01*
X235962Y499122D01*
X237735Y498536D01*
X237765Y498533D01*
X237802Y498520D01*
X239653Y498263D01*
X239682Y498266D01*
X239722Y498260D01*
X241588Y498340D01*
G37*
G36*
X176038Y537347D02*
X176038Y537347D01*
X176097Y537345D01*
X176123Y537357D01*
X176151Y537360D01*
X176201Y537393D01*
X176255Y537417D01*
X176272Y537439D01*
X176296Y537455D01*
X176326Y537506D01*
X176364Y537552D01*
X176372Y537583D01*
X176385Y537604D01*
X176387Y537639D01*
X176401Y537692D01*
X177163Y548614D01*
X177157Y548654D01*
X177160Y548695D01*
X177143Y548738D01*
X177136Y548785D01*
X177112Y548818D01*
X177097Y548856D01*
X177056Y548896D01*
X177035Y548926D01*
X177015Y548936D01*
X176993Y548957D01*
X142713Y571557D01*
X139674Y573836D01*
X139597Y573870D01*
X139518Y573905D01*
X139517Y573905D01*
X139516Y573906D01*
X139431Y573902D01*
X139345Y573899D01*
X139344Y573898D01*
X139342Y573898D01*
X139267Y573856D01*
X139193Y573816D01*
X139192Y573815D01*
X139191Y573814D01*
X139141Y573742D01*
X139093Y573674D01*
X139093Y573673D01*
X139092Y573671D01*
X139090Y573659D01*
X139066Y573532D01*
X139066Y567690D01*
X139069Y567675D01*
X139067Y567657D01*
X139251Y565578D01*
X139260Y565551D01*
X139263Y565512D01*
X139300Y565376D01*
X139300Y565375D01*
X139403Y564995D01*
X139506Y564615D01*
X139609Y564235D01*
X139712Y563855D01*
X139809Y563498D01*
X139819Y563478D01*
X139820Y563474D01*
X139824Y563466D01*
X139832Y563435D01*
X140723Y561548D01*
X140741Y561525D01*
X140757Y561490D01*
X141966Y559789D01*
X141987Y559770D01*
X142009Y559738D01*
X143497Y558275D01*
X143525Y558258D01*
X143558Y558227D01*
X175816Y537399D01*
X175872Y537379D01*
X175924Y537351D01*
X175952Y537350D01*
X175979Y537340D01*
X176038Y537347D01*
G37*
G36*
X195079Y568334D02*
X195079Y568334D01*
X195132Y568330D01*
X195164Y568344D01*
X195198Y568347D01*
X195243Y568376D01*
X195292Y568396D01*
X195315Y568422D01*
X195344Y568440D01*
X195372Y568486D01*
X195407Y568526D01*
X195419Y568564D01*
X195434Y568589D01*
X195436Y568621D01*
X195450Y568664D01*
X196720Y580094D01*
X196714Y580144D01*
X196718Y580194D01*
X196704Y580229D01*
X196699Y580266D01*
X196672Y580308D01*
X196653Y580355D01*
X196621Y580385D01*
X196605Y580411D01*
X196579Y580426D01*
X196548Y580455D01*
X176482Y593409D01*
X176411Y593435D01*
X176341Y593465D01*
X176330Y593464D01*
X176319Y593468D01*
X176244Y593459D01*
X176168Y593455D01*
X176158Y593449D01*
X176147Y593448D01*
X176083Y593406D01*
X176017Y593369D01*
X176011Y593359D01*
X176002Y593353D01*
X175963Y593288D01*
X175920Y593225D01*
X175918Y593213D01*
X175913Y593204D01*
X175911Y593167D01*
X175896Y593082D01*
X176150Y580890D01*
X176156Y580867D01*
X176154Y580843D01*
X176177Y580784D01*
X176193Y580722D01*
X176209Y580704D01*
X176217Y580682D01*
X176283Y580618D01*
X176306Y580591D01*
X176314Y580588D01*
X176321Y580580D01*
X194863Y568388D01*
X194913Y568370D01*
X194959Y568343D01*
X194993Y568341D01*
X195026Y568329D01*
X195079Y568334D01*
G37*
D10*
X562483Y259461D02*
X562483Y268859D01*
X559872Y268859D01*
X559771Y268857D01*
X559670Y268851D01*
X559569Y268841D01*
X559469Y268828D01*
X559369Y268810D01*
X559270Y268789D01*
X559172Y268763D01*
X559075Y268734D01*
X558979Y268702D01*
X558885Y268665D01*
X558792Y268625D01*
X558700Y268581D01*
X558611Y268534D01*
X558523Y268483D01*
X558437Y268429D01*
X558354Y268372D01*
X558272Y268312D01*
X558194Y268248D01*
X558117Y268182D01*
X558044Y268112D01*
X557973Y268040D01*
X557905Y267965D01*
X557840Y267887D01*
X557778Y267807D01*
X557719Y267725D01*
X557663Y267640D01*
X557611Y267554D01*
X557562Y267465D01*
X557516Y267374D01*
X557475Y267282D01*
X557436Y267188D01*
X557402Y267093D01*
X557371Y266997D01*
X557344Y266899D01*
X557320Y266801D01*
X557301Y266701D01*
X557285Y266601D01*
X557273Y266501D01*
X557265Y266400D01*
X557261Y266299D01*
X557261Y266197D01*
X557265Y266096D01*
X557273Y265995D01*
X557285Y265895D01*
X557301Y265795D01*
X557320Y265695D01*
X557344Y265597D01*
X557371Y265499D01*
X557402Y265403D01*
X557436Y265308D01*
X557475Y265214D01*
X557516Y265122D01*
X557562Y265031D01*
X557611Y264943D01*
X557663Y264856D01*
X557719Y264771D01*
X557778Y264689D01*
X557840Y264609D01*
X557905Y264531D01*
X557973Y264456D01*
X558044Y264384D01*
X558117Y264314D01*
X558194Y264248D01*
X558272Y264184D01*
X558354Y264124D01*
X558437Y264067D01*
X558523Y264013D01*
X558611Y263962D01*
X558700Y263915D01*
X558792Y263871D01*
X558885Y263831D01*
X558979Y263794D01*
X559075Y263762D01*
X559172Y263733D01*
X559270Y263707D01*
X559369Y263686D01*
X559469Y263668D01*
X559569Y263655D01*
X559670Y263645D01*
X559771Y263639D01*
X559872Y263637D01*
X559872Y263638D02*
X562483Y263638D01*
X551774Y259461D02*
X551774Y268859D01*
X549164Y268859D02*
X554385Y268859D01*
X545068Y267554D02*
X545147Y267387D01*
X545222Y267218D01*
X545293Y267047D01*
X545360Y266875D01*
X545422Y266701D01*
X545481Y266525D01*
X545535Y266349D01*
X545585Y266171D01*
X545631Y265991D01*
X545673Y265811D01*
X545710Y265630D01*
X545743Y265448D01*
X545772Y265266D01*
X545796Y265082D01*
X545816Y264898D01*
X545831Y264714D01*
X545842Y264530D01*
X545849Y264345D01*
X545851Y264160D01*
X545068Y267554D02*
X545038Y267634D01*
X545005Y267713D01*
X544968Y267790D01*
X544928Y267866D01*
X544885Y267940D01*
X544839Y268012D01*
X544789Y268081D01*
X544737Y268149D01*
X544681Y268214D01*
X544623Y268277D01*
X544561Y268336D01*
X544498Y268394D01*
X544431Y268448D01*
X544363Y268499D01*
X544292Y268547D01*
X544219Y268592D01*
X544145Y268634D01*
X544068Y268672D01*
X543990Y268707D01*
X543911Y268739D01*
X543830Y268767D01*
X543748Y268791D01*
X543664Y268812D01*
X543581Y268829D01*
X543496Y268842D01*
X543411Y268851D01*
X543326Y268857D01*
X543240Y268859D01*
X543154Y268857D01*
X543069Y268851D01*
X542984Y268842D01*
X542899Y268829D01*
X542816Y268812D01*
X542732Y268791D01*
X542650Y268767D01*
X542570Y268739D01*
X542490Y268707D01*
X542412Y268672D01*
X542335Y268634D01*
X542261Y268592D01*
X542188Y268547D01*
X542117Y268499D01*
X542049Y268448D01*
X541982Y268394D01*
X541919Y268336D01*
X541858Y268277D01*
X541799Y268214D01*
X541744Y268149D01*
X541691Y268081D01*
X541641Y268012D01*
X541595Y267940D01*
X541552Y267866D01*
X541512Y267790D01*
X541475Y267713D01*
X541442Y267634D01*
X541412Y267554D01*
X541333Y267387D01*
X541258Y267218D01*
X541187Y267047D01*
X541120Y266875D01*
X541058Y266701D01*
X540999Y266525D01*
X540945Y266349D01*
X540895Y266171D01*
X540849Y265991D01*
X540807Y265811D01*
X540770Y265630D01*
X540737Y265448D01*
X540708Y265266D01*
X540684Y265082D01*
X540664Y264898D01*
X540649Y264714D01*
X540638Y264530D01*
X540631Y264345D01*
X540629Y264160D01*
X545850Y264160D02*
X545848Y263975D01*
X545841Y263790D01*
X545830Y263606D01*
X545815Y263422D01*
X545795Y263238D01*
X545771Y263054D01*
X545742Y262872D01*
X545709Y262690D01*
X545672Y262509D01*
X545630Y262329D01*
X545584Y262149D01*
X545534Y261971D01*
X545480Y261795D01*
X545421Y261619D01*
X545359Y261445D01*
X545292Y261273D01*
X545221Y261102D01*
X545146Y260933D01*
X545067Y260766D01*
X545068Y260766D02*
X545038Y260686D01*
X545005Y260607D01*
X544968Y260530D01*
X544928Y260454D01*
X544885Y260380D01*
X544839Y260308D01*
X544789Y260239D01*
X544736Y260171D01*
X544681Y260106D01*
X544622Y260043D01*
X544561Y259984D01*
X544498Y259926D01*
X544431Y259872D01*
X544363Y259821D01*
X544292Y259773D01*
X544219Y259728D01*
X544145Y259686D01*
X544068Y259648D01*
X543990Y259613D01*
X543911Y259581D01*
X543830Y259553D01*
X543748Y259529D01*
X543664Y259508D01*
X543581Y259491D01*
X543496Y259478D01*
X543411Y259469D01*
X543326Y259463D01*
X543240Y259461D01*
X541412Y260766D02*
X541333Y260933D01*
X541258Y261102D01*
X541187Y261273D01*
X541120Y261445D01*
X541058Y261619D01*
X540999Y261795D01*
X540945Y261971D01*
X540895Y262149D01*
X540849Y262329D01*
X540807Y262509D01*
X540770Y262690D01*
X540737Y262872D01*
X540708Y263054D01*
X540684Y263238D01*
X540664Y263422D01*
X540649Y263606D01*
X540638Y263790D01*
X540631Y263975D01*
X540629Y264160D01*
X541412Y260766D02*
X541442Y260686D01*
X541475Y260607D01*
X541512Y260530D01*
X541552Y260454D01*
X541595Y260380D01*
X541641Y260308D01*
X541691Y260239D01*
X541744Y260171D01*
X541799Y260106D01*
X541858Y260043D01*
X541919Y259984D01*
X541982Y259926D01*
X542049Y259872D01*
X542117Y259821D01*
X542188Y259773D01*
X542261Y259728D01*
X542335Y259686D01*
X542412Y259648D01*
X542490Y259613D01*
X542570Y259581D01*
X542650Y259553D01*
X542732Y259529D01*
X542816Y259508D01*
X542899Y259491D01*
X542984Y259478D01*
X543069Y259469D01*
X543154Y259463D01*
X543240Y259461D01*
X545328Y261549D02*
X541151Y266771D01*
X503809Y295021D02*
X503809Y304419D01*
X503809Y300242D02*
X498588Y300242D01*
X498588Y304419D02*
X498588Y295021D01*
X494360Y302331D02*
X491750Y304419D01*
X491750Y295021D01*
X494360Y295021D02*
X489139Y295021D01*
X485129Y298676D02*
X478863Y298676D01*
X481996Y295543D02*
X481996Y301808D01*
X538099Y304419D02*
X538099Y295021D01*
X538099Y300242D02*
X532878Y300242D01*
X532878Y304419D02*
X532878Y295021D01*
X528650Y302331D02*
X526040Y304419D01*
X526040Y295021D01*
X528650Y295021D02*
X523429Y295021D01*
X519419Y298676D02*
X513153Y298676D01*
X569228Y295021D02*
X571317Y295021D01*
X571406Y295023D01*
X571494Y295029D01*
X571582Y295038D01*
X571670Y295051D01*
X571757Y295068D01*
X571843Y295088D01*
X571928Y295113D01*
X572013Y295140D01*
X572096Y295172D01*
X572177Y295206D01*
X572257Y295245D01*
X572335Y295286D01*
X572412Y295331D01*
X572486Y295379D01*
X572559Y295430D01*
X572629Y295484D01*
X572696Y295542D01*
X572762Y295602D01*
X572824Y295664D01*
X572884Y295730D01*
X572942Y295797D01*
X572996Y295867D01*
X573047Y295940D01*
X573095Y296014D01*
X573140Y296091D01*
X573181Y296169D01*
X573220Y296249D01*
X573254Y296330D01*
X573286Y296413D01*
X573313Y296498D01*
X573338Y296583D01*
X573358Y296669D01*
X573375Y296756D01*
X573388Y296844D01*
X573397Y296932D01*
X573403Y297020D01*
X573405Y297109D01*
X573405Y302331D01*
X573403Y302420D01*
X573397Y302508D01*
X573388Y302596D01*
X573375Y302684D01*
X573358Y302771D01*
X573338Y302857D01*
X573313Y302942D01*
X573286Y303027D01*
X573254Y303110D01*
X573220Y303191D01*
X573181Y303271D01*
X573140Y303349D01*
X573095Y303426D01*
X573047Y303500D01*
X572996Y303573D01*
X572942Y303643D01*
X572884Y303710D01*
X572824Y303776D01*
X572762Y303838D01*
X572696Y303898D01*
X572629Y303956D01*
X572559Y304010D01*
X572486Y304061D01*
X572412Y304109D01*
X572335Y304154D01*
X572257Y304195D01*
X572177Y304234D01*
X572096Y304268D01*
X572013Y304300D01*
X571928Y304327D01*
X571843Y304352D01*
X571757Y304372D01*
X571670Y304389D01*
X571582Y304402D01*
X571494Y304411D01*
X571406Y304417D01*
X571317Y304419D01*
X569228Y304419D01*
X565437Y304419D02*
X565437Y295021D01*
X565437Y304419D02*
X561260Y304419D01*
X561260Y300242D02*
X565437Y300242D01*
X557747Y298676D02*
X551482Y298676D01*
X554614Y301808D02*
X554614Y295543D01*
X603010Y295021D02*
X605099Y295021D01*
X605188Y295023D01*
X605276Y295029D01*
X605364Y295038D01*
X605452Y295051D01*
X605539Y295068D01*
X605625Y295088D01*
X605710Y295113D01*
X605795Y295140D01*
X605878Y295172D01*
X605959Y295206D01*
X606039Y295245D01*
X606117Y295286D01*
X606194Y295331D01*
X606268Y295379D01*
X606341Y295430D01*
X606411Y295484D01*
X606478Y295542D01*
X606544Y295602D01*
X606606Y295664D01*
X606666Y295730D01*
X606724Y295797D01*
X606778Y295867D01*
X606829Y295940D01*
X606877Y296014D01*
X606922Y296091D01*
X606963Y296169D01*
X607002Y296249D01*
X607036Y296330D01*
X607068Y296413D01*
X607095Y296498D01*
X607120Y296583D01*
X607140Y296669D01*
X607157Y296756D01*
X607170Y296844D01*
X607179Y296932D01*
X607185Y297020D01*
X607187Y297109D01*
X607187Y302331D01*
X607185Y302420D01*
X607179Y302508D01*
X607170Y302596D01*
X607157Y302684D01*
X607140Y302771D01*
X607120Y302857D01*
X607095Y302942D01*
X607068Y303027D01*
X607036Y303110D01*
X607002Y303191D01*
X606963Y303271D01*
X606922Y303349D01*
X606877Y303426D01*
X606829Y303500D01*
X606778Y303573D01*
X606724Y303643D01*
X606666Y303710D01*
X606606Y303776D01*
X606544Y303838D01*
X606478Y303898D01*
X606411Y303956D01*
X606341Y304010D01*
X606268Y304061D01*
X606194Y304109D01*
X606117Y304154D01*
X606039Y304195D01*
X605959Y304234D01*
X605878Y304268D01*
X605795Y304300D01*
X605710Y304327D01*
X605625Y304352D01*
X605539Y304372D01*
X605452Y304389D01*
X605364Y304402D01*
X605276Y304411D01*
X605188Y304417D01*
X605099Y304419D01*
X603010Y304419D01*
X599219Y304419D02*
X599219Y295021D01*
X599219Y304419D02*
X595042Y304419D01*
X595042Y300242D02*
X599219Y300242D01*
X591529Y298676D02*
X585264Y298676D01*
X558588Y209931D02*
X561721Y200533D01*
X555456Y200533D02*
X558588Y209931D01*
X556239Y202883D02*
X560938Y202883D01*
X552055Y207843D02*
X549444Y209931D01*
X549444Y200533D01*
X546834Y200533D02*
X552055Y200533D01*
X542823Y204188D02*
X536558Y204188D01*
X539691Y201055D02*
X539691Y207320D01*
X602022Y210693D02*
X605155Y201295D01*
X598890Y201295D02*
X602022Y210693D01*
X599673Y203645D02*
X604372Y203645D01*
X595489Y208605D02*
X592878Y210693D01*
X592878Y201295D01*
X590268Y201295D02*
X595489Y201295D01*
X586257Y204950D02*
X579992Y204950D01*
X648772Y206262D02*
X651383Y206262D01*
X648772Y206263D02*
X648671Y206261D01*
X648570Y206255D01*
X648469Y206245D01*
X648369Y206232D01*
X648269Y206214D01*
X648170Y206193D01*
X648072Y206167D01*
X647975Y206138D01*
X647879Y206106D01*
X647785Y206069D01*
X647692Y206029D01*
X647600Y205985D01*
X647511Y205938D01*
X647423Y205887D01*
X647337Y205833D01*
X647254Y205776D01*
X647172Y205716D01*
X647094Y205652D01*
X647017Y205586D01*
X646944Y205516D01*
X646873Y205444D01*
X646805Y205369D01*
X646740Y205291D01*
X646678Y205211D01*
X646619Y205129D01*
X646563Y205044D01*
X646511Y204958D01*
X646462Y204869D01*
X646416Y204778D01*
X646375Y204686D01*
X646336Y204592D01*
X646302Y204497D01*
X646271Y204401D01*
X646244Y204303D01*
X646220Y204205D01*
X646201Y204105D01*
X646185Y204005D01*
X646173Y203905D01*
X646165Y203804D01*
X646161Y203703D01*
X646161Y203601D01*
X646165Y203500D01*
X646173Y203399D01*
X646185Y203299D01*
X646201Y203199D01*
X646220Y203099D01*
X646244Y203001D01*
X646271Y202903D01*
X646302Y202807D01*
X646336Y202712D01*
X646375Y202618D01*
X646416Y202526D01*
X646462Y202435D01*
X646511Y202347D01*
X646563Y202260D01*
X646619Y202175D01*
X646678Y202093D01*
X646740Y202013D01*
X646805Y201935D01*
X646873Y201860D01*
X646944Y201788D01*
X647017Y201718D01*
X647094Y201652D01*
X647172Y201588D01*
X647254Y201528D01*
X647337Y201471D01*
X647423Y201417D01*
X647511Y201366D01*
X647600Y201319D01*
X647692Y201275D01*
X647785Y201235D01*
X647879Y201198D01*
X647975Y201166D01*
X648072Y201137D01*
X648170Y201111D01*
X648269Y201090D01*
X648369Y201072D01*
X648469Y201059D01*
X648570Y201049D01*
X648671Y201043D01*
X648772Y201041D01*
X651383Y201041D01*
X651383Y210439D01*
X648772Y210439D01*
X648682Y210437D01*
X648593Y210431D01*
X648503Y210422D01*
X648414Y210408D01*
X648326Y210391D01*
X648239Y210370D01*
X648152Y210345D01*
X648067Y210316D01*
X647983Y210284D01*
X647901Y210249D01*
X647820Y210209D01*
X647741Y210167D01*
X647664Y210121D01*
X647589Y210071D01*
X647516Y210019D01*
X647445Y209963D01*
X647377Y209905D01*
X647312Y209843D01*
X647249Y209779D01*
X647189Y209712D01*
X647132Y209643D01*
X647078Y209571D01*
X647027Y209497D01*
X646979Y209421D01*
X646935Y209343D01*
X646894Y209263D01*
X646856Y209181D01*
X646822Y209098D01*
X646792Y209013D01*
X646765Y208927D01*
X646742Y208841D01*
X646723Y208753D01*
X646708Y208664D01*
X646696Y208575D01*
X646688Y208486D01*
X646684Y208396D01*
X646684Y208306D01*
X646688Y208216D01*
X646696Y208127D01*
X646708Y208038D01*
X646723Y207949D01*
X646742Y207861D01*
X646765Y207775D01*
X646792Y207689D01*
X646822Y207604D01*
X646856Y207521D01*
X646894Y207439D01*
X646935Y207359D01*
X646979Y207281D01*
X647027Y207205D01*
X647078Y207131D01*
X647132Y207059D01*
X647189Y206990D01*
X647249Y206923D01*
X647312Y206859D01*
X647377Y206797D01*
X647445Y206739D01*
X647516Y206683D01*
X647589Y206631D01*
X647664Y206581D01*
X647741Y206535D01*
X647820Y206493D01*
X647901Y206453D01*
X647983Y206418D01*
X648067Y206386D01*
X648152Y206357D01*
X648239Y206332D01*
X648326Y206311D01*
X648414Y206294D01*
X648503Y206280D01*
X648593Y206271D01*
X648682Y206265D01*
X648772Y206263D01*
X642675Y208351D02*
X640065Y210439D01*
X640065Y201041D01*
X642675Y201041D02*
X637454Y201041D01*
X633444Y204696D02*
X627178Y204696D01*
X630311Y201563D02*
X630311Y207828D01*
X687380Y206516D02*
X689991Y206516D01*
X687380Y206517D02*
X687279Y206515D01*
X687178Y206509D01*
X687077Y206499D01*
X686977Y206486D01*
X686877Y206468D01*
X686778Y206447D01*
X686680Y206421D01*
X686583Y206392D01*
X686487Y206360D01*
X686393Y206323D01*
X686300Y206283D01*
X686208Y206239D01*
X686119Y206192D01*
X686031Y206141D01*
X685945Y206087D01*
X685862Y206030D01*
X685780Y205970D01*
X685702Y205906D01*
X685625Y205840D01*
X685552Y205770D01*
X685481Y205698D01*
X685413Y205623D01*
X685348Y205545D01*
X685286Y205465D01*
X685227Y205383D01*
X685171Y205298D01*
X685119Y205212D01*
X685070Y205123D01*
X685024Y205032D01*
X684983Y204940D01*
X684944Y204846D01*
X684910Y204751D01*
X684879Y204655D01*
X684852Y204557D01*
X684828Y204459D01*
X684809Y204359D01*
X684793Y204259D01*
X684781Y204159D01*
X684773Y204058D01*
X684769Y203957D01*
X684769Y203855D01*
X684773Y203754D01*
X684781Y203653D01*
X684793Y203553D01*
X684809Y203453D01*
X684828Y203353D01*
X684852Y203255D01*
X684879Y203157D01*
X684910Y203061D01*
X684944Y202966D01*
X684983Y202872D01*
X685024Y202780D01*
X685070Y202689D01*
X685119Y202601D01*
X685171Y202514D01*
X685227Y202429D01*
X685286Y202347D01*
X685348Y202267D01*
X685413Y202189D01*
X685481Y202114D01*
X685552Y202042D01*
X685625Y201972D01*
X685702Y201906D01*
X685780Y201842D01*
X685862Y201782D01*
X685945Y201725D01*
X686031Y201671D01*
X686119Y201620D01*
X686208Y201573D01*
X686300Y201529D01*
X686393Y201489D01*
X686487Y201452D01*
X686583Y201420D01*
X686680Y201391D01*
X686778Y201365D01*
X686877Y201344D01*
X686977Y201326D01*
X687077Y201313D01*
X687178Y201303D01*
X687279Y201297D01*
X687380Y201295D01*
X689991Y201295D01*
X689991Y210693D01*
X687380Y210693D01*
X687290Y210691D01*
X687201Y210685D01*
X687111Y210676D01*
X687022Y210662D01*
X686934Y210645D01*
X686847Y210624D01*
X686760Y210599D01*
X686675Y210570D01*
X686591Y210538D01*
X686509Y210503D01*
X686428Y210463D01*
X686349Y210421D01*
X686272Y210375D01*
X686197Y210325D01*
X686124Y210273D01*
X686053Y210217D01*
X685985Y210159D01*
X685920Y210097D01*
X685857Y210033D01*
X685797Y209966D01*
X685740Y209897D01*
X685686Y209825D01*
X685635Y209751D01*
X685587Y209675D01*
X685543Y209597D01*
X685502Y209517D01*
X685464Y209435D01*
X685430Y209352D01*
X685400Y209267D01*
X685373Y209181D01*
X685350Y209095D01*
X685331Y209007D01*
X685316Y208918D01*
X685304Y208829D01*
X685296Y208740D01*
X685292Y208650D01*
X685292Y208560D01*
X685296Y208470D01*
X685304Y208381D01*
X685316Y208292D01*
X685331Y208203D01*
X685350Y208115D01*
X685373Y208029D01*
X685400Y207943D01*
X685430Y207858D01*
X685464Y207775D01*
X685502Y207693D01*
X685543Y207613D01*
X685587Y207535D01*
X685635Y207459D01*
X685686Y207385D01*
X685740Y207313D01*
X685797Y207244D01*
X685857Y207177D01*
X685920Y207113D01*
X685985Y207051D01*
X686053Y206993D01*
X686124Y206937D01*
X686197Y206885D01*
X686272Y206835D01*
X686349Y206789D01*
X686428Y206747D01*
X686509Y206707D01*
X686591Y206672D01*
X686675Y206640D01*
X686760Y206611D01*
X686847Y206586D01*
X686934Y206565D01*
X687022Y206548D01*
X687111Y206534D01*
X687201Y206525D01*
X687290Y206519D01*
X687380Y206517D01*
X681283Y208605D02*
X678673Y210693D01*
X678673Y201295D01*
X681283Y201295D02*
X676062Y201295D01*
X672052Y204950D02*
X665786Y204950D01*
X737235Y292989D02*
X730970Y302387D01*
X737235Y302387D02*
X730970Y292989D01*
X727569Y300299D02*
X724958Y302387D01*
X724958Y292989D01*
X722348Y292989D02*
X727569Y292989D01*
X718817Y291945D02*
X714640Y291945D01*
X710788Y292989D02*
X710788Y302387D01*
X710788Y292989D02*
X706611Y292989D01*
X702793Y292989D02*
X702793Y302387D01*
X699660Y297166D01*
X696528Y302387D01*
X696528Y292989D01*
X690211Y292989D02*
X690211Y302387D01*
X687601Y302387D02*
X692822Y302387D01*
X691162Y533160D02*
X689596Y533160D01*
X689596Y527939D01*
X692729Y527939D01*
X692818Y527941D01*
X692906Y527947D01*
X692994Y527956D01*
X693082Y527969D01*
X693169Y527986D01*
X693255Y528006D01*
X693340Y528031D01*
X693425Y528058D01*
X693508Y528090D01*
X693589Y528124D01*
X693669Y528163D01*
X693747Y528204D01*
X693824Y528249D01*
X693898Y528297D01*
X693971Y528348D01*
X694041Y528402D01*
X694108Y528460D01*
X694174Y528520D01*
X694236Y528582D01*
X694296Y528648D01*
X694354Y528715D01*
X694408Y528785D01*
X694459Y528858D01*
X694507Y528932D01*
X694552Y529009D01*
X694593Y529087D01*
X694632Y529167D01*
X694666Y529248D01*
X694698Y529331D01*
X694725Y529416D01*
X694750Y529501D01*
X694770Y529587D01*
X694787Y529674D01*
X694800Y529762D01*
X694809Y529850D01*
X694815Y529938D01*
X694817Y530027D01*
X694817Y535249D01*
X694815Y535338D01*
X694809Y535426D01*
X694800Y535514D01*
X694787Y535602D01*
X694770Y535689D01*
X694750Y535775D01*
X694725Y535860D01*
X694698Y535945D01*
X694666Y536028D01*
X694632Y536109D01*
X694593Y536189D01*
X694552Y536267D01*
X694507Y536344D01*
X694459Y536418D01*
X694408Y536491D01*
X694354Y536561D01*
X694296Y536628D01*
X694236Y536694D01*
X694174Y536756D01*
X694108Y536816D01*
X694041Y536874D01*
X693971Y536928D01*
X693898Y536979D01*
X693824Y537027D01*
X693747Y537072D01*
X693669Y537113D01*
X693589Y537152D01*
X693508Y537186D01*
X693425Y537218D01*
X693340Y537245D01*
X693255Y537270D01*
X693169Y537290D01*
X693082Y537307D01*
X692994Y537320D01*
X692906Y537329D01*
X692818Y537335D01*
X692729Y537337D01*
X689596Y537337D01*
X685063Y537337D02*
X685063Y527939D01*
X679842Y527939D02*
X685063Y537337D01*
X679842Y537337D02*
X679842Y527939D01*
X675310Y527939D02*
X675310Y537337D01*
X672699Y537337D01*
X672599Y537335D01*
X672499Y537329D01*
X672400Y537320D01*
X672300Y537306D01*
X672202Y537289D01*
X672104Y537268D01*
X672007Y537244D01*
X671911Y537215D01*
X671816Y537183D01*
X671723Y537148D01*
X671631Y537109D01*
X671540Y537066D01*
X671452Y537020D01*
X671365Y536970D01*
X671280Y536918D01*
X671197Y536862D01*
X671116Y536803D01*
X671038Y536740D01*
X670962Y536675D01*
X670888Y536607D01*
X670818Y536537D01*
X670750Y536463D01*
X670685Y536387D01*
X670622Y536309D01*
X670563Y536228D01*
X670507Y536145D01*
X670455Y536060D01*
X670405Y535973D01*
X670359Y535885D01*
X670316Y535794D01*
X670277Y535702D01*
X670242Y535609D01*
X670210Y535514D01*
X670181Y535418D01*
X670157Y535321D01*
X670136Y535223D01*
X670119Y535125D01*
X670105Y535025D01*
X670096Y534926D01*
X670090Y534826D01*
X670088Y534726D01*
X670089Y534726D02*
X670089Y530550D01*
X670088Y530550D02*
X670090Y530450D01*
X670096Y530350D01*
X670105Y530251D01*
X670119Y530151D01*
X670136Y530053D01*
X670157Y529955D01*
X670181Y529858D01*
X670210Y529762D01*
X670242Y529667D01*
X670277Y529574D01*
X670316Y529482D01*
X670359Y529391D01*
X670405Y529303D01*
X670455Y529216D01*
X670507Y529131D01*
X670563Y529048D01*
X670622Y528967D01*
X670685Y528889D01*
X670750Y528813D01*
X670818Y528739D01*
X670888Y528669D01*
X670962Y528601D01*
X671038Y528536D01*
X671116Y528473D01*
X671197Y528414D01*
X671280Y528358D01*
X671365Y528306D01*
X671452Y528256D01*
X671540Y528210D01*
X671631Y528167D01*
X671723Y528128D01*
X671816Y528093D01*
X671911Y528061D01*
X672007Y528032D01*
X672104Y528008D01*
X672202Y527987D01*
X672300Y527970D01*
X672400Y527956D01*
X672499Y527947D01*
X672599Y527941D01*
X672699Y527939D01*
X675310Y527939D01*
X738363Y536004D02*
X738365Y536099D01*
X738371Y536193D01*
X738380Y536287D01*
X738393Y536381D01*
X738410Y536474D01*
X738431Y536566D01*
X738456Y536658D01*
X738484Y536748D01*
X738516Y536837D01*
X738551Y536925D01*
X738590Y537011D01*
X738632Y537096D01*
X738678Y537179D01*
X738727Y537260D01*
X738779Y537339D01*
X738834Y537416D01*
X738893Y537490D01*
X738954Y537562D01*
X739018Y537632D01*
X739085Y537699D01*
X739155Y537763D01*
X739227Y537824D01*
X739301Y537883D01*
X739378Y537938D01*
X739457Y537990D01*
X739538Y538039D01*
X739621Y538085D01*
X739706Y538127D01*
X739792Y538166D01*
X739880Y538201D01*
X739969Y538233D01*
X740059Y538261D01*
X740151Y538286D01*
X740243Y538307D01*
X740336Y538324D01*
X740430Y538337D01*
X740524Y538346D01*
X740618Y538352D01*
X740713Y538354D01*
X740713Y538353D02*
X740821Y538351D01*
X740930Y538345D01*
X741038Y538335D01*
X741145Y538322D01*
X741252Y538304D01*
X741359Y538283D01*
X741464Y538258D01*
X741569Y538229D01*
X741672Y538197D01*
X741774Y538160D01*
X741875Y538120D01*
X741974Y538077D01*
X742072Y538030D01*
X742168Y537979D01*
X742262Y537925D01*
X742354Y537868D01*
X742444Y537807D01*
X742532Y537743D01*
X742617Y537677D01*
X742700Y537607D01*
X742780Y537534D01*
X742858Y537458D01*
X742933Y537380D01*
X743005Y537299D01*
X743074Y537215D01*
X743140Y537129D01*
X743203Y537041D01*
X743262Y536950D01*
X743319Y536858D01*
X743372Y536763D01*
X743421Y536666D01*
X743467Y536568D01*
X743510Y536469D01*
X743549Y536367D01*
X743584Y536265D01*
X739147Y534176D02*
X739078Y534245D01*
X739012Y534316D01*
X738948Y534389D01*
X738887Y534465D01*
X738829Y534544D01*
X738775Y534624D01*
X738723Y534707D01*
X738675Y534791D01*
X738629Y534877D01*
X738588Y534965D01*
X738549Y535055D01*
X738514Y535146D01*
X738483Y535238D01*
X738455Y535331D01*
X738431Y535425D01*
X738411Y535520D01*
X738394Y535616D01*
X738381Y535713D01*
X738372Y535810D01*
X738366Y535907D01*
X738364Y536004D01*
X739147Y534176D02*
X743585Y528955D01*
X738364Y528955D01*
X734441Y531043D02*
X732353Y538353D01*
X734441Y531043D02*
X729220Y531043D01*
X730786Y533132D02*
X730786Y528955D01*
X722687Y528955D02*
X725819Y538353D01*
X719554Y538353D02*
X722687Y528955D01*
M02*
