G04 EAGLE Gerber RS-274X export*
G75*
%MOMM*%
%FSLAX34Y34*%
%LPD*%
%INSoldermask Bottom*%
%IPPOS*%
%AMOC8*
5,1,8,0,0,1.08239X$1,22.5*%
G01*
%ADD10C,4.703294*%
%ADD11C,3.712694*%
%ADD12C,3.203194*%
%ADD13C,1.727200*%
%ADD14C,0.406400*%
%ADD15C,0.762000*%
%ADD16C,0.959600*%

G36*
X179343Y552588D02*
X179343Y552588D01*
X179409Y552587D01*
X179431Y552597D01*
X179449Y552599D01*
X179482Y552620D01*
X179541Y552646D01*
X187923Y558488D01*
X187948Y558516D01*
X187980Y558536D01*
X188006Y558579D01*
X188039Y558617D01*
X188049Y558653D01*
X188068Y558685D01*
X188072Y558735D01*
X188086Y558784D01*
X188079Y558820D01*
X188082Y558858D01*
X188063Y558904D01*
X188054Y558954D01*
X188031Y558984D01*
X188017Y559018D01*
X187972Y559062D01*
X187949Y559092D01*
X187931Y559101D01*
X187913Y559119D01*
X158973Y577905D01*
X157876Y578776D01*
X156976Y579825D01*
X156292Y581026D01*
X155848Y582334D01*
X155661Y583703D01*
X155736Y585083D01*
X156072Y586424D01*
X156656Y587676D01*
X157467Y588795D01*
X158483Y589746D01*
X165363Y594600D01*
X172632Y598843D01*
X173214Y599070D01*
X173818Y599160D01*
X174428Y599114D01*
X175011Y598932D01*
X175571Y598607D01*
X198172Y584386D01*
X198232Y584365D01*
X198289Y584337D01*
X198313Y584338D01*
X198335Y584330D01*
X198399Y584338D01*
X198462Y584338D01*
X198486Y584349D01*
X198507Y584352D01*
X198539Y584373D01*
X198594Y584398D01*
X206468Y589986D01*
X206484Y590004D01*
X206505Y590016D01*
X206541Y590068D01*
X206583Y590116D01*
X206589Y590139D01*
X206603Y590159D01*
X206611Y590222D01*
X206628Y590283D01*
X206623Y590307D01*
X206627Y590330D01*
X206607Y590391D01*
X206594Y590453D01*
X206580Y590472D01*
X206572Y590495D01*
X206510Y590562D01*
X206489Y590590D01*
X206481Y590594D01*
X206474Y590602D01*
X187941Y604311D01*
X187465Y604707D01*
X187124Y605179D01*
X186910Y605720D01*
X186838Y606298D01*
X186910Y606876D01*
X187124Y607417D01*
X187465Y607889D01*
X187930Y608276D01*
X216358Y626297D01*
X216382Y626321D01*
X216412Y626338D01*
X216442Y626382D01*
X216479Y626421D01*
X216490Y626453D01*
X216509Y626482D01*
X216516Y626534D01*
X216533Y626585D01*
X216528Y626619D01*
X216533Y626653D01*
X216516Y626704D01*
X216508Y626757D01*
X216489Y626785D01*
X216478Y626818D01*
X216432Y626867D01*
X216410Y626899D01*
X216395Y626908D01*
X216380Y626924D01*
X211554Y630480D01*
X211536Y630488D01*
X211518Y630503D01*
X210490Y631096D01*
X210456Y631106D01*
X210411Y631130D01*
X209277Y631479D01*
X209242Y631481D01*
X209193Y631495D01*
X208010Y631582D01*
X207975Y631577D01*
X207924Y631579D01*
X206751Y631401D01*
X206719Y631388D01*
X206669Y631379D01*
X205564Y630944D01*
X205536Y630924D01*
X205489Y630904D01*
X204514Y630237D01*
X143050Y590616D01*
X143038Y590603D01*
X143019Y590593D01*
X141737Y589573D01*
X141718Y589548D01*
X141682Y589519D01*
X140634Y588260D01*
X140619Y588231D01*
X140590Y588196D01*
X139818Y586750D01*
X139810Y586719D01*
X139789Y586679D01*
X139325Y585108D01*
X139323Y585075D01*
X139311Y585032D01*
X139174Y583399D01*
X139179Y583367D01*
X139176Y583321D01*
X139372Y581695D01*
X139384Y581665D01*
X139390Y581619D01*
X139911Y580066D01*
X139928Y580039D01*
X139943Y579996D01*
X140768Y578580D01*
X140791Y578557D01*
X140814Y578518D01*
X141909Y577299D01*
X141935Y577280D01*
X141966Y577247D01*
X143284Y576274D01*
X143293Y576270D01*
X143301Y576263D01*
X179115Y552641D01*
X179177Y552618D01*
X179236Y552588D01*
X179257Y552588D01*
X179277Y552581D01*
X179343Y552588D01*
G37*
G36*
X252222Y504328D02*
X252222Y504328D01*
X252295Y504325D01*
X252310Y504331D01*
X252323Y504331D01*
X252357Y504350D01*
X252429Y504379D01*
X257509Y507681D01*
X257522Y507695D01*
X257543Y507706D01*
X258595Y508567D01*
X258616Y508594D01*
X258653Y508627D01*
X259493Y509696D01*
X259507Y509727D01*
X259537Y509767D01*
X260123Y510993D01*
X260130Y511027D01*
X260151Y511072D01*
X260456Y512397D01*
X260456Y512431D01*
X260466Y512480D01*
X260476Y513839D01*
X260476Y513840D01*
X260476Y513841D01*
X260730Y588771D01*
X260727Y588783D01*
X260729Y588798D01*
X260534Y591605D01*
X260527Y591628D01*
X260527Y591660D01*
X259927Y594409D01*
X259916Y594431D01*
X259911Y594462D01*
X258919Y597095D01*
X258906Y597115D01*
X258896Y597145D01*
X257532Y599607D01*
X257516Y599625D01*
X257502Y599653D01*
X255797Y601891D01*
X255784Y601901D01*
X255777Y601915D01*
X255768Y601921D01*
X255760Y601933D01*
X253748Y603899D01*
X253727Y603912D01*
X253706Y603935D01*
X251430Y605590D01*
X251422Y605593D01*
X251415Y605600D01*
X227031Y621602D01*
X226971Y621624D01*
X226915Y621653D01*
X226891Y621653D01*
X226868Y621661D01*
X226805Y621655D01*
X226742Y621656D01*
X226717Y621645D01*
X226696Y621643D01*
X226664Y621622D01*
X226609Y621599D01*
X217973Y615757D01*
X217947Y615728D01*
X217914Y615708D01*
X217889Y615666D01*
X217855Y615630D01*
X217844Y615593D01*
X217824Y615559D01*
X217820Y615510D01*
X217806Y615464D01*
X217813Y615425D01*
X217810Y615387D01*
X217828Y615341D01*
X217836Y615293D01*
X217859Y615262D01*
X217873Y615226D01*
X217916Y615184D01*
X217939Y615153D01*
X217958Y615143D01*
X217977Y615124D01*
X246158Y596591D01*
X247753Y595350D01*
X249120Y593883D01*
X250237Y592218D01*
X251075Y590397D01*
X251615Y588465D01*
X251842Y586465D01*
X251842Y504698D01*
X251858Y504627D01*
X251870Y504555D01*
X251878Y504543D01*
X251881Y504529D01*
X251928Y504473D01*
X251969Y504414D01*
X251982Y504407D01*
X251991Y504396D01*
X252058Y504366D01*
X252122Y504331D01*
X252136Y504331D01*
X252150Y504325D01*
X252222Y504328D01*
G37*
G36*
X231550Y519412D02*
X231550Y519412D01*
X231648Y519422D01*
X231975Y519519D01*
X232003Y519535D01*
X232092Y519578D01*
X232366Y519780D01*
X232387Y519805D01*
X232456Y519875D01*
X232645Y520158D01*
X232656Y520189D01*
X232698Y520278D01*
X232779Y520609D01*
X232780Y520645D01*
X232790Y520700D01*
X232790Y529336D01*
X232784Y529363D01*
X232786Y529391D01*
X232764Y529446D01*
X232751Y529505D01*
X232733Y529526D01*
X232723Y529552D01*
X232665Y529609D01*
X232641Y529638D01*
X232630Y529643D01*
X232619Y529654D01*
X199091Y551752D01*
X199037Y551772D01*
X198986Y551800D01*
X198956Y551801D01*
X198929Y551811D01*
X198871Y551805D01*
X198813Y551808D01*
X198781Y551796D01*
X198756Y551793D01*
X198727Y551774D01*
X198678Y551755D01*
X190296Y546421D01*
X190264Y546388D01*
X190226Y546364D01*
X190204Y546327D01*
X190175Y546297D01*
X190161Y546254D01*
X190138Y546215D01*
X190134Y546172D01*
X190121Y546132D01*
X190128Y546087D01*
X190124Y546042D01*
X190140Y546003D01*
X190146Y545961D01*
X190172Y545923D01*
X190189Y545881D01*
X190225Y545846D01*
X190245Y545818D01*
X190268Y545805D01*
X190293Y545781D01*
X230679Y519619D01*
X230706Y519609D01*
X230737Y519588D01*
X231051Y519455D01*
X231083Y519449D01*
X231178Y519425D01*
X231518Y519406D01*
X231550Y519412D01*
G37*
G36*
X202027Y597551D02*
X202027Y597551D01*
X202083Y597555D01*
X202146Y597580D01*
X202189Y597591D01*
X202216Y597610D01*
X202256Y597626D01*
X211146Y602960D01*
X211208Y603014D01*
X211275Y603062D01*
X211292Y603087D01*
X211315Y603108D01*
X211354Y603180D01*
X211400Y603248D01*
X211409Y603281D01*
X211422Y603305D01*
X211429Y603353D01*
X211450Y603428D01*
X212937Y615826D01*
X219410Y619857D01*
X219412Y619858D01*
X219413Y619859D01*
X219444Y619887D01*
X219447Y619888D01*
X219450Y619892D01*
X219495Y619933D01*
X219577Y620007D01*
X219578Y620009D01*
X219579Y620010D01*
X219630Y620109D01*
X219680Y620206D01*
X219681Y620208D01*
X219682Y620210D01*
X219709Y620395D01*
X219709Y624078D01*
X219706Y624098D01*
X219708Y624118D01*
X219686Y624208D01*
X219670Y624299D01*
X219659Y624316D01*
X219655Y624336D01*
X219603Y624412D01*
X219555Y624492D01*
X219540Y624505D01*
X219529Y624521D01*
X219453Y624575D01*
X219381Y624633D01*
X219362Y624640D01*
X219346Y624652D01*
X219256Y624676D01*
X219169Y624705D01*
X219149Y624705D01*
X219129Y624710D01*
X219037Y624701D01*
X218944Y624699D01*
X218926Y624691D01*
X218906Y624689D01*
X218746Y624618D01*
X218737Y624614D01*
X218736Y624614D01*
X218735Y624613D01*
X190795Y606833D01*
X190745Y606788D01*
X190690Y606750D01*
X190664Y606712D01*
X190630Y606681D01*
X190599Y606621D01*
X190561Y606567D01*
X190549Y606522D01*
X190528Y606481D01*
X190520Y606415D01*
X190503Y606350D01*
X190507Y606304D01*
X190502Y606258D01*
X190518Y606193D01*
X190524Y606127D01*
X190544Y606085D01*
X190555Y606040D01*
X190593Y605985D01*
X190622Y605925D01*
X190660Y605887D01*
X190681Y605855D01*
X190714Y605831D01*
X190754Y605791D01*
X201549Y597663D01*
X201599Y597638D01*
X201644Y597604D01*
X201698Y597588D01*
X201749Y597562D01*
X201805Y597556D01*
X201859Y597540D01*
X201916Y597543D01*
X201972Y597537D01*
X202027Y597551D01*
G37*
G36*
X232950Y563257D02*
X232950Y563257D01*
X233019Y563259D01*
X233035Y563268D01*
X233054Y563271D01*
X233111Y563309D01*
X233171Y563342D01*
X233182Y563357D01*
X233197Y563368D01*
X233231Y563428D01*
X233271Y563484D01*
X233275Y563504D01*
X233283Y563518D01*
X233285Y563557D01*
X233298Y563626D01*
X233298Y573024D01*
X233292Y573052D01*
X233294Y573080D01*
X233272Y573135D01*
X233259Y573193D01*
X233241Y573215D01*
X233230Y573241D01*
X233173Y573297D01*
X233149Y573326D01*
X233137Y573331D01*
X233127Y573342D01*
X217633Y583502D01*
X217577Y583522D01*
X217526Y583550D01*
X217497Y583552D01*
X217470Y583561D01*
X217411Y583555D01*
X217352Y583557D01*
X217322Y583545D01*
X217298Y583543D01*
X217268Y583523D01*
X217218Y583504D01*
X209344Y578424D01*
X209311Y578389D01*
X209271Y578362D01*
X209251Y578328D01*
X209224Y578299D01*
X209209Y578253D01*
X209185Y578212D01*
X209183Y578172D01*
X209171Y578134D01*
X209178Y578086D01*
X209175Y578039D01*
X209191Y578002D01*
X209197Y577963D01*
X209225Y577923D01*
X209243Y577879D01*
X209278Y577847D01*
X209296Y577821D01*
X209321Y577807D01*
X209350Y577781D01*
X232718Y563303D01*
X232783Y563281D01*
X232846Y563253D01*
X232864Y563253D01*
X232882Y563247D01*
X232950Y563257D01*
G37*
G36*
X167370Y576343D02*
X167370Y576343D01*
X167417Y576347D01*
X167493Y576379D01*
X167541Y576393D01*
X167560Y576407D01*
X167589Y576419D01*
X172796Y579594D01*
X172802Y579600D01*
X172809Y579603D01*
X172841Y579633D01*
X172874Y579652D01*
X172907Y579693D01*
X172964Y579743D01*
X172968Y579750D01*
X172973Y579755D01*
X172998Y579805D01*
X173015Y579826D01*
X173028Y579863D01*
X173070Y579941D01*
X173071Y579949D01*
X173074Y579956D01*
X173085Y580031D01*
X173087Y580039D01*
X173087Y580047D01*
X173100Y580142D01*
X172973Y594747D01*
X172967Y594779D01*
X172969Y594812D01*
X172960Y594843D01*
X172960Y594851D01*
X172952Y594870D01*
X172946Y594889D01*
X172932Y594967D01*
X172915Y594995D01*
X172905Y595027D01*
X172857Y595091D01*
X172816Y595159D01*
X172790Y595180D01*
X172770Y595206D01*
X172703Y595249D01*
X172640Y595299D01*
X172609Y595309D01*
X172581Y595327D01*
X172503Y595344D01*
X172427Y595369D01*
X172394Y595368D01*
X172362Y595375D01*
X172283Y595364D01*
X172203Y595361D01*
X172173Y595348D01*
X172140Y595343D01*
X172040Y595293D01*
X171996Y595274D01*
X171987Y595266D01*
X171973Y595259D01*
X160670Y587258D01*
X160648Y587236D01*
X160614Y587214D01*
X160017Y586683D01*
X159987Y586643D01*
X159916Y586568D01*
X159463Y585910D01*
X159443Y585864D01*
X159393Y585775D01*
X159110Y585027D01*
X159101Y584978D01*
X159074Y584879D01*
X158978Y584086D01*
X158980Y584036D01*
X158978Y583933D01*
X159074Y583140D01*
X159088Y583092D01*
X159110Y582992D01*
X159393Y582244D01*
X159418Y582201D01*
X159463Y582109D01*
X159916Y581451D01*
X159952Y581415D01*
X160017Y581336D01*
X160614Y580805D01*
X160642Y580788D01*
X160674Y580758D01*
X166897Y576440D01*
X166940Y576421D01*
X166977Y576393D01*
X167041Y576374D01*
X167101Y576347D01*
X167148Y576343D01*
X167193Y576330D01*
X167259Y576335D01*
X167325Y576330D01*
X167370Y576343D01*
G37*
G36*
X179602Y535694D02*
X179602Y535694D01*
X179647Y535691D01*
X179712Y535710D01*
X179780Y535720D01*
X179826Y535743D01*
X179862Y535754D01*
X179895Y535778D01*
X179947Y535805D01*
X183503Y538345D01*
X183522Y538365D01*
X183544Y538378D01*
X183565Y538403D01*
X183597Y538427D01*
X183624Y538469D01*
X183659Y538506D01*
X183673Y538537D01*
X183685Y538552D01*
X183694Y538576D01*
X183719Y538615D01*
X183733Y538673D01*
X183750Y538711D01*
X183752Y538748D01*
X183756Y538760D01*
X183757Y538764D01*
X183757Y538766D01*
X183765Y538797D01*
X184499Y546017D01*
X190758Y550803D01*
X190809Y550859D01*
X190866Y550909D01*
X190884Y550941D01*
X190910Y550969D01*
X190938Y551039D01*
X190974Y551105D01*
X190982Y551147D01*
X190994Y551177D01*
X190995Y551222D01*
X191007Y551290D01*
X191134Y555989D01*
X191127Y556033D01*
X191130Y556078D01*
X191120Y556112D01*
X191120Y556113D01*
X191118Y556117D01*
X191111Y556143D01*
X191100Y556211D01*
X191079Y556250D01*
X191066Y556293D01*
X191025Y556347D01*
X190992Y556407D01*
X190957Y556436D01*
X190930Y556472D01*
X190873Y556509D01*
X190821Y556553D01*
X190779Y556568D01*
X190741Y556593D01*
X190675Y556607D01*
X190611Y556631D01*
X190566Y556630D01*
X190522Y556640D01*
X190454Y556630D01*
X190386Y556630D01*
X190344Y556614D01*
X190300Y556608D01*
X190223Y556569D01*
X190176Y556551D01*
X190159Y556536D01*
X190133Y556523D01*
X180481Y549665D01*
X180436Y549619D01*
X180384Y549581D01*
X180358Y549540D01*
X180324Y549505D01*
X180297Y549446D01*
X180263Y549392D01*
X180249Y549337D01*
X180232Y549300D01*
X180230Y549262D01*
X180217Y549211D01*
X178947Y536384D01*
X178952Y536316D01*
X178948Y536247D01*
X178961Y536205D01*
X178965Y536160D01*
X178993Y536098D01*
X179013Y536033D01*
X179040Y535997D01*
X179059Y535956D01*
X179108Y535908D01*
X179149Y535854D01*
X179187Y535830D01*
X179219Y535798D01*
X179281Y535770D01*
X179338Y535734D01*
X179382Y535724D01*
X179423Y535706D01*
X179491Y535701D01*
X179558Y535687D01*
X179602Y535694D01*
G37*
G36*
X198377Y567189D02*
X198377Y567189D01*
X198421Y567185D01*
X198488Y567202D01*
X198556Y567209D01*
X198603Y567231D01*
X198639Y567241D01*
X198673Y567264D01*
X198726Y567289D01*
X202536Y569829D01*
X202563Y569856D01*
X202594Y569874D01*
X202610Y569894D01*
X202637Y569913D01*
X202664Y569952D01*
X202698Y569985D01*
X202718Y570026D01*
X202735Y570048D01*
X202741Y570066D01*
X202763Y570099D01*
X202778Y570152D01*
X202795Y570187D01*
X202799Y570226D01*
X202814Y570280D01*
X203793Y578239D01*
X208877Y581507D01*
X208924Y581551D01*
X208977Y581587D01*
X209005Y581627D01*
X209041Y581660D01*
X209070Y581718D01*
X209107Y581770D01*
X209124Y581824D01*
X209142Y581861D01*
X209146Y581899D01*
X209162Y581949D01*
X209679Y585482D01*
X209924Y587156D01*
X209921Y587229D01*
X209928Y587301D01*
X209918Y587340D01*
X209916Y587380D01*
X209889Y587448D01*
X209870Y587518D01*
X209847Y587551D01*
X209831Y587588D01*
X209782Y587642D01*
X209740Y587701D01*
X209707Y587724D01*
X209679Y587753D01*
X209615Y587786D01*
X209555Y587827D01*
X209515Y587837D01*
X209480Y587855D01*
X209407Y587864D01*
X209337Y587881D01*
X209297Y587876D01*
X209257Y587881D01*
X209186Y587864D01*
X209114Y587856D01*
X209072Y587836D01*
X209039Y587828D01*
X209002Y587803D01*
X208944Y587776D01*
X199800Y581680D01*
X199755Y581636D01*
X199703Y581600D01*
X199675Y581559D01*
X199638Y581524D01*
X199611Y581468D01*
X199575Y581416D01*
X199559Y581359D01*
X199541Y581322D01*
X199538Y581285D01*
X199523Y581236D01*
X197745Y567901D01*
X197748Y567832D01*
X197742Y567764D01*
X197753Y567721D01*
X197755Y567677D01*
X197782Y567614D01*
X197800Y567547D01*
X197826Y567511D01*
X197843Y567470D01*
X197890Y567420D01*
X197930Y567364D01*
X197967Y567339D01*
X197997Y567307D01*
X198059Y567276D01*
X198115Y567238D01*
X198158Y567227D01*
X198198Y567208D01*
X198267Y567201D01*
X198333Y567184D01*
X198377Y567189D01*
G37*
D10*
X161290Y659892D03*
X161290Y139954D03*
D11*
X873633Y139827D03*
X873506Y659943D03*
D12*
X373634Y659892D03*
X373634Y139827D03*
D13*
X623697Y136576D02*
X623697Y151816D01*
X598297Y151816D02*
X598297Y136576D01*
X572897Y136576D02*
X572897Y151816D01*
X649097Y151816D02*
X649097Y136576D01*
X718312Y472440D02*
X718312Y487680D01*
X692912Y487680D02*
X692912Y472440D01*
X660146Y292354D02*
X660146Y277114D01*
X634746Y277114D02*
X634746Y292354D01*
D14*
X151892Y450342D02*
X151638Y469900D01*
X151638Y470662D01*
X151640Y470846D01*
X151647Y471030D01*
X151658Y471214D01*
X151674Y471397D01*
X151694Y471580D01*
X151718Y471763D01*
X151747Y471945D01*
X151780Y472126D01*
X151818Y472306D01*
X151859Y472486D01*
X151906Y472664D01*
X151956Y472841D01*
X152011Y473017D01*
X152070Y473191D01*
X152133Y473364D01*
X152201Y473535D01*
X152272Y473705D01*
X152348Y473873D01*
X152427Y474039D01*
X152511Y474203D01*
X152598Y474365D01*
X152690Y474525D01*
X152785Y474683D01*
X152884Y474838D01*
X152987Y474991D01*
X153093Y475141D01*
X153203Y475289D01*
X153317Y475434D01*
X153434Y475576D01*
X153554Y475715D01*
X153678Y475851D01*
X153805Y475985D01*
X153935Y476115D01*
X154069Y476242D01*
X154205Y476366D01*
X154344Y476486D01*
X154486Y476603D01*
X154631Y476717D01*
X154779Y476827D01*
X154929Y476933D01*
X155082Y477036D01*
X155237Y477135D01*
X155395Y477230D01*
X155555Y477322D01*
X155717Y477409D01*
X155881Y477493D01*
X156047Y477572D01*
X156215Y477648D01*
X156385Y477719D01*
X156556Y477787D01*
X156729Y477850D01*
X156903Y477909D01*
X157079Y477964D01*
X157256Y478014D01*
X157434Y478061D01*
X157614Y478102D01*
X157794Y478140D01*
X157975Y478173D01*
X158157Y478202D01*
X158340Y478226D01*
X158523Y478246D01*
X158706Y478262D01*
X158890Y478273D01*
X159074Y478280D01*
X159258Y478282D01*
X180594Y478282D01*
X170180Y475996D02*
X170180Y450342D01*
X151638Y437134D02*
X151638Y417576D01*
X151638Y437134D02*
X151640Y437331D01*
X151648Y437529D01*
X151660Y437725D01*
X151676Y437922D01*
X151698Y438118D01*
X151724Y438314D01*
X151755Y438509D01*
X151791Y438703D01*
X151831Y438896D01*
X151876Y439088D01*
X151926Y439279D01*
X151980Y439469D01*
X152039Y439657D01*
X152103Y439844D01*
X152171Y440029D01*
X152243Y440213D01*
X152320Y440394D01*
X152401Y440574D01*
X152487Y440752D01*
X152577Y440928D01*
X152671Y441101D01*
X152770Y441272D01*
X152872Y441441D01*
X152979Y441607D01*
X153089Y441770D01*
X153204Y441931D01*
X153322Y442089D01*
X153444Y442244D01*
X153570Y442396D01*
X153699Y442545D01*
X153832Y442690D01*
X153969Y442833D01*
X154109Y442972D01*
X154252Y443108D01*
X154399Y443240D01*
X154549Y443368D01*
X154701Y443493D01*
X154857Y443614D01*
X155016Y443732D01*
X155177Y443845D01*
X155341Y443954D01*
X155508Y444060D01*
X155678Y444161D01*
X155849Y444258D01*
X156023Y444351D01*
X156200Y444440D01*
X156378Y444525D01*
X156558Y444605D01*
X156740Y444681D01*
X156924Y444752D01*
X157110Y444819D01*
X157297Y444881D01*
X157486Y444939D01*
X157676Y444992D01*
X157867Y445040D01*
X158060Y445084D01*
X158253Y445123D01*
X158447Y445158D01*
X158643Y445187D01*
X158838Y445212D01*
X159035Y445233D01*
X159231Y445248D01*
X159428Y445259D01*
X159626Y445265D01*
X159823Y445266D01*
X160020Y445262D01*
X180594Y445516D01*
X151892Y411226D02*
X151892Y390906D01*
X151894Y390707D01*
X151902Y390509D01*
X151914Y390311D01*
X151931Y390113D01*
X151953Y389915D01*
X151979Y389718D01*
X152011Y389522D01*
X152047Y389327D01*
X152088Y389132D01*
X152133Y388939D01*
X152184Y388747D01*
X152239Y388556D01*
X152299Y388367D01*
X152363Y388179D01*
X152432Y387992D01*
X152505Y387808D01*
X152583Y387625D01*
X152666Y387444D01*
X152752Y387266D01*
X152843Y387089D01*
X152939Y386915D01*
X153038Y386743D01*
X153142Y386573D01*
X153250Y386407D01*
X153362Y386243D01*
X153478Y386081D01*
X153598Y385923D01*
X153721Y385767D01*
X153849Y385615D01*
X153980Y385466D01*
X154115Y385320D01*
X154253Y385177D01*
X154394Y385038D01*
X154540Y384902D01*
X154688Y384770D01*
X154839Y384641D01*
X154994Y384516D01*
X155151Y384395D01*
X155312Y384278D01*
X155475Y384165D01*
X155641Y384056D01*
X155810Y383951D01*
X155981Y383850D01*
X156155Y383754D01*
X156330Y383661D01*
X156509Y383573D01*
X156689Y383489D01*
X156871Y383410D01*
X157055Y383335D01*
X157241Y383265D01*
X157428Y383199D01*
X157617Y383138D01*
X157808Y383082D01*
X157999Y383030D01*
X158192Y382983D01*
X158387Y382941D01*
X158582Y382903D01*
X158777Y382870D01*
X158974Y382842D01*
X159171Y382819D01*
X159369Y382800D01*
X159567Y382787D01*
X159766Y382778D01*
X180848Y383032D01*
X179832Y391922D02*
X179832Y406146D01*
X179829Y406361D01*
X179822Y406577D01*
X179809Y406792D01*
X179790Y407007D01*
X179767Y407221D01*
X179738Y407434D01*
X179704Y407647D01*
X179665Y407859D01*
X179621Y408070D01*
X179572Y408280D01*
X179518Y408488D01*
X179459Y408695D01*
X179395Y408901D01*
X179325Y409105D01*
X179251Y409307D01*
X179172Y409508D01*
X179088Y409706D01*
X179000Y409903D01*
X178906Y410097D01*
X178808Y410289D01*
X178706Y410478D01*
X178598Y410665D01*
X178487Y410849D01*
X178370Y411031D01*
X178250Y411209D01*
X178125Y411385D01*
X177996Y411558D01*
X177863Y411727D01*
X177726Y411893D01*
X177585Y412056D01*
X177439Y412215D01*
X177290Y412371D01*
X177138Y412523D01*
X176982Y412671D01*
X176822Y412816D01*
X176658Y412956D01*
X176492Y413093D01*
X176322Y413225D01*
X176149Y413354D01*
X175973Y413478D01*
X175794Y413598D01*
X175612Y413713D01*
X175427Y413824D01*
X175240Y413931D01*
X175050Y414032D01*
X174857Y414130D01*
X174663Y414222D01*
X174466Y414310D01*
X174267Y414393D01*
X174067Y414472D01*
X173864Y414545D01*
X173660Y414613D01*
X173454Y414677D01*
X173246Y414735D01*
X173038Y414789D01*
X172828Y414837D01*
X172617Y414880D01*
X172405Y414918D01*
X172192Y414951D01*
X171978Y414979D01*
X171764Y415002D01*
X171549Y415019D01*
X171334Y415031D01*
X171118Y415038D01*
X170903Y415040D01*
X170688Y415036D01*
X170443Y415026D01*
X170199Y415010D01*
X169956Y414989D01*
X169713Y414961D01*
X169471Y414927D01*
X169230Y414888D01*
X168989Y414842D01*
X168750Y414791D01*
X168513Y414734D01*
X168276Y414671D01*
X168042Y414603D01*
X167809Y414529D01*
X167578Y414449D01*
X167349Y414363D01*
X167122Y414272D01*
X166897Y414176D01*
X166675Y414074D01*
X166456Y413966D01*
X166239Y413854D01*
X166025Y413736D01*
X165813Y413612D01*
X165605Y413484D01*
X165400Y413351D01*
X165199Y413213D01*
X165001Y413070D01*
X164806Y412922D01*
X164615Y412769D01*
X164428Y412612D01*
X164245Y412450D01*
X164065Y412284D01*
X163890Y412113D01*
X163719Y411939D01*
X163552Y411760D01*
X163390Y411577D01*
X163232Y411390D01*
X163079Y411200D01*
X162931Y411006D01*
X162787Y410808D01*
X162648Y410607D01*
X162514Y410402D01*
X162385Y410194D01*
X162262Y409984D01*
X162143Y409770D01*
X162030Y409553D01*
X161922Y409334D01*
X161819Y409112D01*
X161722Y408888D01*
X161630Y408661D01*
X161544Y408432D01*
X161544Y384810D01*
X151638Y366268D02*
X151638Y343916D01*
X151638Y366268D02*
X151640Y366461D01*
X151647Y366655D01*
X151659Y366848D01*
X151676Y367040D01*
X151697Y367233D01*
X151723Y367424D01*
X151754Y367615D01*
X151789Y367805D01*
X151829Y367995D01*
X151873Y368183D01*
X151922Y368370D01*
X151976Y368556D01*
X152034Y368740D01*
X152097Y368923D01*
X152164Y369104D01*
X152236Y369284D01*
X152312Y369462D01*
X152392Y369638D01*
X152476Y369812D01*
X152565Y369984D01*
X152658Y370153D01*
X152755Y370320D01*
X152856Y370485D01*
X152962Y370648D01*
X153071Y370807D01*
X153184Y370964D01*
X153300Y371119D01*
X153421Y371270D01*
X153545Y371418D01*
X153673Y371563D01*
X153804Y371705D01*
X153939Y371844D01*
X154077Y371980D01*
X154218Y372112D01*
X154362Y372240D01*
X154510Y372365D01*
X154661Y372487D01*
X154814Y372604D01*
X154971Y372718D01*
X155130Y372828D01*
X155291Y372934D01*
X155456Y373036D01*
X155622Y373134D01*
X155791Y373228D01*
X155963Y373318D01*
X156136Y373403D01*
X156312Y373484D01*
X156489Y373561D01*
X156668Y373634D01*
X156849Y373702D01*
X157032Y373766D01*
X157216Y373825D01*
X157402Y373880D01*
X157588Y373930D01*
X157776Y373975D01*
X157965Y374016D01*
X158155Y374053D01*
X158346Y374084D01*
X158538Y374111D01*
X158730Y374134D01*
X158922Y374151D01*
X159115Y374164D01*
X159308Y374172D01*
X159502Y374176D01*
X159695Y374175D01*
X159889Y374169D01*
X160082Y374158D01*
X160274Y374142D01*
X171704Y373888D01*
X171909Y373881D01*
X172114Y373869D01*
X172319Y373852D01*
X172523Y373830D01*
X172727Y373803D01*
X172929Y373771D01*
X173131Y373735D01*
X173332Y373693D01*
X173532Y373646D01*
X173731Y373595D01*
X173929Y373539D01*
X174125Y373478D01*
X174319Y373413D01*
X174512Y373342D01*
X174703Y373267D01*
X174893Y373188D01*
X175080Y373104D01*
X175265Y373015D01*
X175448Y372922D01*
X175629Y372825D01*
X175807Y372723D01*
X175983Y372617D01*
X176156Y372506D01*
X176326Y372392D01*
X176494Y372273D01*
X176659Y372150D01*
X176820Y372024D01*
X176979Y371893D01*
X177134Y371759D01*
X177286Y371621D01*
X177435Y371479D01*
X177580Y371334D01*
X177721Y371185D01*
X177859Y371033D01*
X177993Y370878D01*
X178124Y370719D01*
X178250Y370558D01*
X178373Y370393D01*
X178491Y370225D01*
X178606Y370055D01*
X178716Y369882D01*
X178822Y369706D01*
X178924Y369528D01*
X179021Y369347D01*
X179114Y369164D01*
X179203Y368979D01*
X179287Y368791D01*
X179366Y368602D01*
X179441Y368411D01*
X179511Y368218D01*
X179577Y368023D01*
X179638Y367827D01*
X179693Y367630D01*
X179745Y367431D01*
X179791Y367231D01*
X179832Y367030D01*
X180086Y343916D01*
X166878Y334264D02*
X150622Y334264D01*
X166878Y334264D02*
X180848Y334264D01*
X166878Y334264D02*
X151638Y302260D01*
X180340Y302260D02*
X165862Y331470D01*
X152146Y294640D02*
X152146Y259080D01*
X151892Y276606D02*
X180594Y276606D01*
X151892Y252730D02*
X151892Y232410D01*
X151894Y232211D01*
X151902Y232013D01*
X151914Y231815D01*
X151931Y231617D01*
X151953Y231419D01*
X151979Y231222D01*
X152011Y231026D01*
X152047Y230831D01*
X152088Y230636D01*
X152133Y230443D01*
X152184Y230251D01*
X152239Y230060D01*
X152299Y229871D01*
X152363Y229683D01*
X152432Y229496D01*
X152505Y229312D01*
X152583Y229129D01*
X152666Y228948D01*
X152752Y228770D01*
X152843Y228593D01*
X152939Y228419D01*
X153038Y228247D01*
X153142Y228077D01*
X153250Y227911D01*
X153362Y227747D01*
X153478Y227585D01*
X153598Y227427D01*
X153721Y227271D01*
X153849Y227119D01*
X153980Y226970D01*
X154115Y226824D01*
X154253Y226681D01*
X154394Y226542D01*
X154540Y226406D01*
X154688Y226274D01*
X154839Y226145D01*
X154994Y226020D01*
X155151Y225899D01*
X155312Y225782D01*
X155475Y225669D01*
X155641Y225560D01*
X155810Y225455D01*
X155981Y225354D01*
X156155Y225258D01*
X156330Y225165D01*
X156509Y225077D01*
X156689Y224993D01*
X156871Y224914D01*
X157055Y224839D01*
X157241Y224769D01*
X157428Y224703D01*
X157617Y224642D01*
X157808Y224586D01*
X157999Y224534D01*
X158192Y224487D01*
X158387Y224445D01*
X158582Y224407D01*
X158777Y224374D01*
X158974Y224346D01*
X159171Y224323D01*
X159369Y224304D01*
X159567Y224291D01*
X159766Y224282D01*
X180848Y224536D01*
X179832Y233426D02*
X179832Y247650D01*
X179829Y247865D01*
X179822Y248081D01*
X179809Y248296D01*
X179790Y248511D01*
X179767Y248725D01*
X179738Y248938D01*
X179704Y249151D01*
X179665Y249363D01*
X179621Y249574D01*
X179572Y249784D01*
X179518Y249992D01*
X179459Y250199D01*
X179395Y250405D01*
X179325Y250609D01*
X179251Y250811D01*
X179172Y251012D01*
X179088Y251210D01*
X179000Y251407D01*
X178906Y251601D01*
X178808Y251793D01*
X178706Y251982D01*
X178598Y252169D01*
X178487Y252353D01*
X178370Y252535D01*
X178250Y252713D01*
X178125Y252889D01*
X177996Y253062D01*
X177863Y253231D01*
X177726Y253397D01*
X177585Y253560D01*
X177439Y253719D01*
X177290Y253875D01*
X177138Y254027D01*
X176982Y254175D01*
X176822Y254320D01*
X176658Y254460D01*
X176492Y254597D01*
X176322Y254729D01*
X176149Y254858D01*
X175973Y254982D01*
X175794Y255102D01*
X175612Y255217D01*
X175427Y255328D01*
X175240Y255435D01*
X175050Y255536D01*
X174857Y255634D01*
X174663Y255726D01*
X174466Y255814D01*
X174267Y255897D01*
X174067Y255976D01*
X173864Y256049D01*
X173660Y256117D01*
X173454Y256181D01*
X173246Y256239D01*
X173038Y256293D01*
X172828Y256341D01*
X172617Y256384D01*
X172405Y256422D01*
X172192Y256455D01*
X171978Y256483D01*
X171764Y256506D01*
X171549Y256523D01*
X171334Y256535D01*
X171118Y256542D01*
X170903Y256544D01*
X170688Y256540D01*
X170443Y256530D01*
X170199Y256514D01*
X169956Y256493D01*
X169713Y256465D01*
X169471Y256431D01*
X169230Y256392D01*
X168989Y256346D01*
X168750Y256295D01*
X168513Y256238D01*
X168276Y256175D01*
X168042Y256107D01*
X167809Y256033D01*
X167578Y255953D01*
X167349Y255867D01*
X167122Y255776D01*
X166897Y255680D01*
X166675Y255578D01*
X166456Y255470D01*
X166239Y255358D01*
X166025Y255240D01*
X165813Y255116D01*
X165605Y254988D01*
X165400Y254855D01*
X165199Y254717D01*
X165001Y254574D01*
X164806Y254426D01*
X164615Y254273D01*
X164428Y254116D01*
X164245Y253954D01*
X164065Y253788D01*
X163890Y253617D01*
X163719Y253443D01*
X163552Y253264D01*
X163390Y253081D01*
X163232Y252894D01*
X163079Y252704D01*
X162931Y252510D01*
X162787Y252312D01*
X162648Y252111D01*
X162514Y251906D01*
X162385Y251698D01*
X162262Y251488D01*
X162143Y251274D01*
X162030Y251057D01*
X161922Y250838D01*
X161819Y250616D01*
X161722Y250392D01*
X161630Y250165D01*
X161544Y249936D01*
X161544Y226314D01*
X171704Y212852D02*
X150368Y212852D01*
X171704Y212852D02*
X171904Y212850D01*
X172105Y212842D01*
X172305Y212830D01*
X172504Y212813D01*
X172704Y212791D01*
X172902Y212764D01*
X173100Y212732D01*
X173297Y212695D01*
X173493Y212654D01*
X173688Y212607D01*
X173882Y212556D01*
X174075Y212500D01*
X174266Y212440D01*
X174455Y212375D01*
X174643Y212305D01*
X174829Y212230D01*
X175013Y212151D01*
X175196Y212068D01*
X175376Y211980D01*
X175554Y211888D01*
X175729Y211791D01*
X175902Y211690D01*
X176073Y211585D01*
X176241Y211476D01*
X176406Y211362D01*
X176569Y211245D01*
X176728Y211124D01*
X176885Y210998D01*
X177038Y210869D01*
X177188Y210737D01*
X177335Y210600D01*
X177479Y210460D01*
X177619Y210317D01*
X177755Y210170D01*
X177888Y210020D01*
X178017Y209866D01*
X178142Y209710D01*
X178263Y209551D01*
X178381Y209388D01*
X178494Y209223D01*
X178604Y209055D01*
X178709Y208884D01*
X178810Y208711D01*
X178906Y208535D01*
X178999Y208358D01*
X179087Y208177D01*
X179170Y207995D01*
X179249Y207811D01*
X179323Y207625D01*
X179393Y207437D01*
X179459Y207248D01*
X179519Y207056D01*
X179575Y206864D01*
X179626Y206670D01*
X179672Y206475D01*
X179714Y206279D01*
X179751Y206082D01*
X179782Y205884D01*
X179809Y205686D01*
X179832Y205486D01*
X180086Y184658D01*
X217170Y479552D02*
X239776Y479552D01*
X239943Y479550D01*
X240110Y479544D01*
X240277Y479534D01*
X240443Y479519D01*
X240610Y479501D01*
X240775Y479479D01*
X240940Y479453D01*
X241105Y479422D01*
X241268Y479388D01*
X241431Y479350D01*
X241592Y479307D01*
X241753Y479261D01*
X241912Y479211D01*
X242071Y479157D01*
X242227Y479099D01*
X242383Y479038D01*
X242537Y478972D01*
X242689Y478903D01*
X242839Y478830D01*
X242988Y478754D01*
X243135Y478674D01*
X243279Y478591D01*
X243422Y478503D01*
X243562Y478413D01*
X243701Y478319D01*
X243837Y478222D01*
X243970Y478121D01*
X244101Y478018D01*
X244230Y477911D01*
X244355Y477801D01*
X244479Y477688D01*
X244599Y477572D01*
X244716Y477453D01*
X244831Y477331D01*
X244942Y477207D01*
X245051Y477080D01*
X245156Y476950D01*
X245258Y476818D01*
X245357Y476683D01*
X245453Y476546D01*
X245545Y476406D01*
X245634Y476265D01*
X245719Y476121D01*
X245801Y475975D01*
X245879Y475828D01*
X245954Y475678D01*
X246025Y475527D01*
X246092Y475374D01*
X246156Y475219D01*
X246215Y475063D01*
X246271Y474906D01*
X246323Y474747D01*
X246371Y474587D01*
X246416Y474426D01*
X246456Y474264D01*
X246492Y474101D01*
X246525Y473937D01*
X246553Y473772D01*
X246577Y473607D01*
X246598Y473441D01*
X246614Y473274D01*
X246626Y473108D01*
X246634Y472941D01*
X246638Y472774D01*
X246639Y472607D01*
X246634Y472440D01*
X246634Y442976D01*
X246632Y442825D01*
X246626Y442673D01*
X246616Y442522D01*
X246603Y442371D01*
X246585Y442221D01*
X246564Y442071D01*
X246538Y441921D01*
X246509Y441773D01*
X246476Y441625D01*
X246439Y441478D01*
X246399Y441332D01*
X246354Y441187D01*
X246306Y441043D01*
X246254Y440901D01*
X246199Y440760D01*
X246140Y440620D01*
X246077Y440483D01*
X246011Y440346D01*
X245941Y440212D01*
X245868Y440079D01*
X245792Y439948D01*
X245712Y439820D01*
X245628Y439693D01*
X245542Y439569D01*
X245452Y439447D01*
X245360Y439327D01*
X245264Y439209D01*
X245165Y439095D01*
X245063Y438982D01*
X244958Y438873D01*
X244851Y438766D01*
X244741Y438662D01*
X244628Y438561D01*
X244513Y438463D01*
X244395Y438368D01*
X244275Y438275D01*
X244152Y438186D01*
X244027Y438101D01*
X243900Y438018D01*
X243771Y437939D01*
X243640Y437863D01*
X243506Y437791D01*
X243372Y437722D01*
X243235Y437657D01*
X243097Y437595D01*
X242957Y437536D01*
X242816Y437482D01*
X242673Y437431D01*
X242529Y437383D01*
X242384Y437340D01*
X242238Y437300D01*
X242090Y437264D01*
X241942Y437232D01*
X241794Y437204D01*
X241644Y437179D01*
X241494Y437159D01*
X241343Y437142D01*
X241192Y437129D01*
X241041Y437120D01*
X240890Y437115D01*
X240738Y437114D01*
X240587Y437117D01*
X240435Y437124D01*
X240284Y437134D01*
X217932Y437134D01*
X217424Y458470D02*
X246380Y458470D01*
X227838Y426212D02*
X225298Y426212D01*
X227838Y426212D02*
X239014Y426212D01*
X239188Y426216D01*
X239361Y426215D01*
X239534Y426211D01*
X239707Y426202D01*
X239879Y426189D01*
X240051Y426172D01*
X240223Y426151D01*
X240394Y426125D01*
X240565Y426095D01*
X240735Y426062D01*
X240904Y426024D01*
X241072Y425982D01*
X241238Y425936D01*
X241404Y425885D01*
X241569Y425831D01*
X241732Y425773D01*
X241893Y425711D01*
X242053Y425645D01*
X242212Y425575D01*
X242368Y425502D01*
X242523Y425424D01*
X242676Y425343D01*
X242827Y425258D01*
X242976Y425170D01*
X243122Y425077D01*
X243267Y424982D01*
X243408Y424883D01*
X243548Y424780D01*
X243685Y424674D01*
X243819Y424565D01*
X243951Y424452D01*
X244080Y424337D01*
X244206Y424218D01*
X244329Y424096D01*
X244449Y423972D01*
X244566Y423844D01*
X244680Y423714D01*
X244790Y423581D01*
X244898Y423445D01*
X245002Y423306D01*
X245102Y423166D01*
X245199Y423022D01*
X245293Y422877D01*
X245383Y422729D01*
X245470Y422579D01*
X245553Y422427D01*
X245632Y422273D01*
X245707Y422117D01*
X245779Y421960D01*
X245846Y421800D01*
X245910Y421639D01*
X245970Y421477D01*
X246026Y421313D01*
X246078Y421148D01*
X246126Y420982D01*
X246170Y420814D01*
X246209Y420646D01*
X246245Y420476D01*
X246276Y420306D01*
X246304Y420135D01*
X246327Y419964D01*
X246346Y419792D01*
X246361Y419619D01*
X246371Y419446D01*
X246378Y419273D01*
X246380Y419100D01*
X246380Y402844D01*
X246378Y402642D01*
X246370Y402439D01*
X246358Y402237D01*
X246341Y402036D01*
X246318Y401835D01*
X246291Y401634D01*
X246259Y401434D01*
X246223Y401235D01*
X246181Y401037D01*
X246135Y400840D01*
X246083Y400645D01*
X246027Y400450D01*
X245967Y400257D01*
X245901Y400066D01*
X245831Y399876D01*
X245757Y399688D01*
X245678Y399502D01*
X245594Y399317D01*
X245506Y399135D01*
X245413Y398955D01*
X245316Y398778D01*
X245215Y398602D01*
X245110Y398430D01*
X245000Y398260D01*
X244886Y398092D01*
X244768Y397928D01*
X244647Y397766D01*
X244521Y397608D01*
X244391Y397452D01*
X244258Y397300D01*
X244121Y397151D01*
X243981Y397005D01*
X243837Y396863D01*
X243689Y396724D01*
X243538Y396590D01*
X243384Y396458D01*
X243227Y396331D01*
X243067Y396207D01*
X242904Y396088D01*
X242738Y395972D01*
X242569Y395860D01*
X242397Y395753D01*
X242223Y395650D01*
X242047Y395551D01*
X241868Y395456D01*
X241687Y395366D01*
X241504Y395280D01*
X241318Y395199D01*
X241131Y395122D01*
X240942Y395050D01*
X240751Y394983D01*
X240559Y394920D01*
X240365Y394862D01*
X240170Y394808D01*
X239973Y394760D01*
X239776Y394716D01*
X226314Y394716D01*
X226131Y394718D01*
X225949Y394725D01*
X225766Y394736D01*
X225584Y394752D01*
X225403Y394772D01*
X225222Y394797D01*
X225041Y394826D01*
X224862Y394859D01*
X224683Y394897D01*
X224505Y394939D01*
X224329Y394986D01*
X224153Y395036D01*
X223979Y395092D01*
X223806Y395151D01*
X223635Y395215D01*
X223465Y395282D01*
X223297Y395354D01*
X223131Y395430D01*
X222967Y395510D01*
X222805Y395595D01*
X222645Y395683D01*
X222487Y395775D01*
X222331Y395870D01*
X222178Y395970D01*
X222028Y396073D01*
X221879Y396180D01*
X221734Y396291D01*
X221591Y396405D01*
X221452Y396523D01*
X221315Y396644D01*
X221181Y396768D01*
X221050Y396895D01*
X220922Y397026D01*
X220798Y397160D01*
X220677Y397297D01*
X220559Y397436D01*
X220445Y397579D01*
X220334Y397724D01*
X220227Y397872D01*
X220124Y398023D01*
X220024Y398176D01*
X219928Y398332D01*
X219836Y398489D01*
X219748Y398649D01*
X219664Y398812D01*
X219584Y398976D01*
X219507Y399142D01*
X219435Y399310D01*
X219367Y399479D01*
X219304Y399650D01*
X219244Y399823D01*
X219189Y399997D01*
X219138Y400173D01*
X219091Y400349D01*
X219049Y400527D01*
X219011Y400706D01*
X218977Y400885D01*
X218948Y401066D01*
X218948Y405638D01*
X218948Y418084D01*
X218948Y418338D02*
X218948Y405638D01*
X218948Y418338D02*
X218950Y418532D01*
X218958Y418727D01*
X218969Y418921D01*
X218986Y419115D01*
X219008Y419308D01*
X219034Y419501D01*
X219065Y419693D01*
X219100Y419884D01*
X219140Y420074D01*
X219185Y420263D01*
X219235Y420452D01*
X219289Y420638D01*
X219348Y420824D01*
X219411Y421008D01*
X219478Y421190D01*
X219551Y421371D01*
X219627Y421549D01*
X219708Y421726D01*
X219793Y421901D01*
X219883Y422074D01*
X219977Y422244D01*
X220074Y422412D01*
X220176Y422578D01*
X220282Y422741D01*
X220392Y422901D01*
X220506Y423059D01*
X220624Y423214D01*
X220745Y423366D01*
X220870Y423515D01*
X220999Y423661D01*
X221131Y423803D01*
X221267Y423942D01*
X221406Y424078D01*
X221548Y424211D01*
X221694Y424340D01*
X221843Y424465D01*
X221994Y424587D01*
X222149Y424705D01*
X222307Y424819D01*
X222467Y424929D01*
X222630Y425035D01*
X222795Y425137D01*
X222963Y425235D01*
X223134Y425329D01*
X223306Y425419D01*
X223481Y425505D01*
X223657Y425586D01*
X223836Y425663D01*
X224017Y425735D01*
X224199Y425803D01*
X224383Y425867D01*
X224568Y425926D01*
X224755Y425980D01*
X224943Y426030D01*
X225132Y426075D01*
X225322Y426116D01*
X225513Y426151D01*
X225705Y426183D01*
X225898Y426209D01*
X226091Y426231D01*
X226285Y426248D01*
X226479Y426260D01*
X226673Y426267D01*
X226868Y426270D01*
X227062Y426268D01*
X227257Y426261D01*
X227451Y426249D01*
X227645Y426233D01*
X227838Y426212D01*
X218440Y376174D02*
X218440Y356362D01*
X218440Y376174D02*
X218442Y376378D01*
X218450Y376581D01*
X218462Y376785D01*
X218479Y376987D01*
X218502Y377190D01*
X218529Y377392D01*
X218560Y377593D01*
X218597Y377793D01*
X218639Y377993D01*
X218685Y378191D01*
X218736Y378388D01*
X218792Y378584D01*
X218853Y378778D01*
X218918Y378971D01*
X218988Y379163D01*
X219063Y379352D01*
X219142Y379540D01*
X219226Y379726D01*
X219314Y379909D01*
X219406Y380091D01*
X219503Y380270D01*
X219605Y380447D01*
X219710Y380621D01*
X219820Y380792D01*
X219933Y380961D01*
X220051Y381128D01*
X220173Y381291D01*
X220299Y381451D01*
X220428Y381608D01*
X220562Y381762D01*
X220699Y381913D01*
X220839Y382060D01*
X220983Y382204D01*
X221131Y382344D01*
X221282Y382481D01*
X221436Y382614D01*
X221593Y382744D01*
X221754Y382869D01*
X221917Y382991D01*
X222084Y383108D01*
X222253Y383222D01*
X222425Y383331D01*
X222599Y383436D01*
X222776Y383537D01*
X222955Y383634D01*
X223137Y383726D01*
X223321Y383814D01*
X223506Y383897D01*
X223694Y383976D01*
X223884Y384050D01*
X224075Y384120D01*
X224268Y384185D01*
X224463Y384246D01*
X224659Y384301D01*
X224856Y384352D01*
X225054Y384398D01*
X225254Y384439D01*
X225454Y384476D01*
X225655Y384507D01*
X225857Y384534D01*
X226060Y384556D01*
X247396Y384556D01*
X233680Y351028D02*
X217424Y351028D01*
X233680Y351028D02*
X247650Y351028D01*
X233680Y351028D02*
X218440Y319024D01*
X247142Y319024D02*
X232664Y348234D01*
X218694Y307340D02*
X218948Y284480D01*
X218694Y307340D02*
X218695Y307484D01*
X218699Y307627D01*
X218707Y307771D01*
X218719Y307914D01*
X218735Y308057D01*
X218754Y308199D01*
X218778Y308341D01*
X218805Y308482D01*
X218836Y308623D01*
X218871Y308762D01*
X218910Y308900D01*
X218952Y309038D01*
X218998Y309174D01*
X219048Y309309D01*
X219101Y309442D01*
X219158Y309574D01*
X219219Y309705D01*
X219283Y309834D01*
X219350Y309961D01*
X219421Y310086D01*
X219495Y310209D01*
X219572Y310330D01*
X219653Y310449D01*
X219737Y310566D01*
X219824Y310680D01*
X219914Y310792D01*
X220007Y310902D01*
X220103Y311009D01*
X220201Y311113D01*
X220303Y311215D01*
X220407Y311314D01*
X220514Y311410D01*
X220624Y311503D01*
X220736Y311594D01*
X220850Y311681D01*
X220966Y311765D01*
X221085Y311846D01*
X221206Y311923D01*
X221329Y311998D01*
X221454Y312069D01*
X221581Y312136D01*
X221710Y312200D01*
X221840Y312261D01*
X221972Y312318D01*
X222106Y312372D01*
X222240Y312422D01*
X222376Y312468D01*
X222514Y312511D01*
X222652Y312549D01*
X222792Y312585D01*
X222932Y312616D01*
X223073Y312643D01*
X223215Y312667D01*
X223357Y312687D01*
X223500Y312703D01*
X223643Y312715D01*
X223787Y312724D01*
X223930Y312728D01*
X224074Y312729D01*
X224218Y312725D01*
X224361Y312718D01*
X224505Y312707D01*
X224648Y312692D01*
X224790Y312674D01*
X224958Y312652D01*
X225127Y312634D01*
X225297Y312619D01*
X225466Y312609D01*
X225636Y312603D01*
X225806Y312601D01*
X225976Y312603D01*
X226146Y312609D01*
X226315Y312619D01*
X226485Y312634D01*
X226654Y312652D01*
X226822Y312674D01*
X226962Y312692D01*
X227103Y312707D01*
X227243Y312717D01*
X227385Y312724D01*
X227526Y312727D01*
X227667Y312726D01*
X227808Y312721D01*
X227949Y312712D01*
X228090Y312699D01*
X228230Y312682D01*
X228370Y312662D01*
X228509Y312638D01*
X228648Y312609D01*
X228786Y312577D01*
X228922Y312541D01*
X229058Y312502D01*
X229192Y312458D01*
X229326Y312411D01*
X229457Y312361D01*
X229588Y312306D01*
X229717Y312249D01*
X229844Y312187D01*
X229970Y312122D01*
X230093Y312054D01*
X230215Y311982D01*
X230335Y311907D01*
X230452Y311829D01*
X230568Y311747D01*
X230681Y311662D01*
X230791Y311574D01*
X230900Y311483D01*
X231005Y311390D01*
X231108Y311293D01*
X231209Y311193D01*
X231306Y311091D01*
X231401Y310986D01*
X231492Y310879D01*
X231581Y310769D01*
X231667Y310656D01*
X231749Y310542D01*
X231829Y310425D01*
X231905Y310306D01*
X231977Y310184D01*
X232047Y310061D01*
X232113Y309936D01*
X232175Y309810D01*
X232234Y309681D01*
X232289Y309551D01*
X232341Y309420D01*
X232389Y309287D01*
X232434Y309153D01*
X232474Y309017D01*
X232511Y308881D01*
X232544Y308744D01*
X232574Y308605D01*
X232599Y308466D01*
X232621Y308327D01*
X232639Y308187D01*
X232653Y308046D01*
X232663Y307905D01*
X232669Y307764D01*
X232671Y307623D01*
X232669Y307481D01*
X232664Y307340D01*
X232664Y291084D01*
X232666Y290938D01*
X232672Y290793D01*
X232681Y290648D01*
X232694Y290503D01*
X232712Y290358D01*
X232733Y290214D01*
X232757Y290070D01*
X232786Y289927D01*
X232818Y289785D01*
X232854Y289644D01*
X232893Y289504D01*
X232936Y289365D01*
X232983Y289227D01*
X233034Y289090D01*
X233088Y288955D01*
X233145Y288821D01*
X233206Y288689D01*
X233271Y288559D01*
X233339Y288430D01*
X233410Y288303D01*
X233484Y288178D01*
X233562Y288054D01*
X233643Y287933D01*
X233727Y287814D01*
X233814Y287698D01*
X233905Y287583D01*
X233998Y287472D01*
X234094Y287362D01*
X234193Y287255D01*
X234294Y287151D01*
X234399Y287049D01*
X234506Y286951D01*
X234615Y286855D01*
X234727Y286762D01*
X234842Y286672D01*
X234959Y286584D01*
X235078Y286500D01*
X235199Y286420D01*
X235322Y286342D01*
X235447Y286268D01*
X235574Y286197D01*
X235703Y286129D01*
X235834Y286065D01*
X235966Y286004D01*
X235967Y286004D02*
X236164Y285919D01*
X236364Y285839D01*
X236566Y285763D01*
X236770Y285693D01*
X236975Y285628D01*
X237182Y285567D01*
X237390Y285512D01*
X237600Y285462D01*
X237810Y285416D01*
X238022Y285376D01*
X238235Y285342D01*
X238448Y285312D01*
X238662Y285288D01*
X238877Y285268D01*
X239092Y285254D01*
X239307Y285246D01*
X239522Y285242D01*
X239719Y285244D01*
X239915Y285250D01*
X240111Y285261D01*
X240307Y285276D01*
X240502Y285297D01*
X240697Y285322D01*
X240891Y285352D01*
X241084Y285386D01*
X241277Y285425D01*
X241468Y285468D01*
X241659Y285517D01*
X241848Y285569D01*
X242036Y285627D01*
X242222Y285688D01*
X242407Y285754D01*
X242590Y285825D01*
X242772Y285900D01*
X242952Y285979D01*
X243129Y286063D01*
X243305Y286151D01*
X243478Y286243D01*
X243650Y286339D01*
X243819Y286439D01*
X243985Y286543D01*
X244149Y286652D01*
X244310Y286764D01*
X244469Y286880D01*
X244624Y286999D01*
X244777Y287123D01*
X244927Y287250D01*
X245074Y287381D01*
X245217Y287515D01*
X245357Y287652D01*
X245494Y287793D01*
X245628Y287937D01*
X245758Y288084D01*
X245884Y288234D01*
X246007Y288388D01*
X246126Y288544D01*
X246197Y288643D01*
X246266Y288745D01*
X246331Y288848D01*
X246392Y288953D01*
X246451Y289061D01*
X246506Y289170D01*
X246558Y289280D01*
X246606Y289393D01*
X246651Y289506D01*
X246692Y289621D01*
X246729Y289738D01*
X246763Y289855D01*
X246793Y289973D01*
X246820Y290093D01*
X246842Y290213D01*
X246861Y290333D01*
X246877Y290454D01*
X246888Y290576D01*
X246888Y312166D01*
D15*
X548894Y275590D03*
D16*
X624672Y480060D03*
X634746Y443738D03*
X659638Y337820D03*
X564430Y438150D03*
X561086Y353018D03*
X577850Y412750D03*
X592074Y332740D03*
X736600Y469900D03*
X632968Y344932D03*
X552450Y476250D03*
X403606Y433578D03*
X533400Y457200D03*
X525780Y337566D03*
X495300Y482600D03*
X489204Y343154D03*
X678942Y189992D03*
X438150Y203200D03*
X381000Y203200D03*
X638302Y197866D03*
X570738Y241300D03*
X472186Y219964D03*
M02*
