G04 EAGLE Gerber RS-274X export*
G75*
%MOMM*%
%FSLAX34Y34*%
%LPD*%
%INSoldermask Bottom*%
%IPPOS*%
%AMOC8*
5,1,8,0,0,1.08239X$1,22.5*%
G01*
%ADD10C,4.703294*%
%ADD11C,3.203194*%
%ADD12C,3.712694*%
%ADD13C,1.727200*%
%ADD14C,0.762000*%
%ADD15C,0.406400*%
%ADD16C,0.959600*%

G36*
X848633Y537094D02*
X848633Y537094D01*
X848699Y537093D01*
X848721Y537103D01*
X848739Y537105D01*
X848772Y537126D01*
X848831Y537152D01*
X857213Y542994D01*
X857238Y543022D01*
X857270Y543042D01*
X857296Y543085D01*
X857329Y543123D01*
X857339Y543159D01*
X857358Y543191D01*
X857362Y543241D01*
X857376Y543290D01*
X857369Y543326D01*
X857372Y543364D01*
X857353Y543410D01*
X857344Y543460D01*
X857321Y543490D01*
X857307Y543524D01*
X857262Y543568D01*
X857239Y543598D01*
X857221Y543607D01*
X857203Y543625D01*
X828263Y562411D01*
X827166Y563282D01*
X826266Y564331D01*
X825582Y565532D01*
X825138Y566840D01*
X824951Y568209D01*
X825026Y569589D01*
X825362Y570930D01*
X825946Y572182D01*
X826757Y573301D01*
X827773Y574252D01*
X834653Y579106D01*
X841922Y583349D01*
X842504Y583576D01*
X843108Y583666D01*
X843718Y583620D01*
X844301Y583438D01*
X844861Y583113D01*
X867462Y568892D01*
X867522Y568871D01*
X867579Y568843D01*
X867603Y568844D01*
X867625Y568836D01*
X867689Y568844D01*
X867752Y568844D01*
X867776Y568855D01*
X867797Y568858D01*
X867829Y568879D01*
X867884Y568904D01*
X875758Y574492D01*
X875774Y574510D01*
X875795Y574522D01*
X875831Y574574D01*
X875873Y574622D01*
X875879Y574645D01*
X875893Y574665D01*
X875901Y574728D01*
X875918Y574789D01*
X875913Y574813D01*
X875917Y574836D01*
X875897Y574897D01*
X875884Y574959D01*
X875870Y574978D01*
X875862Y575001D01*
X875800Y575068D01*
X875779Y575096D01*
X875771Y575100D01*
X875764Y575108D01*
X857231Y588817D01*
X856755Y589213D01*
X856414Y589685D01*
X856200Y590226D01*
X856128Y590804D01*
X856200Y591382D01*
X856414Y591923D01*
X856755Y592395D01*
X857220Y592782D01*
X885648Y610803D01*
X885672Y610827D01*
X885702Y610844D01*
X885732Y610888D01*
X885769Y610927D01*
X885780Y610959D01*
X885799Y610988D01*
X885806Y611040D01*
X885823Y611091D01*
X885818Y611125D01*
X885823Y611159D01*
X885806Y611210D01*
X885798Y611263D01*
X885779Y611291D01*
X885768Y611324D01*
X885722Y611373D01*
X885700Y611405D01*
X885685Y611414D01*
X885670Y611430D01*
X880844Y614986D01*
X880826Y614994D01*
X880808Y615009D01*
X879780Y615602D01*
X879746Y615612D01*
X879701Y615636D01*
X878567Y615985D01*
X878532Y615987D01*
X878483Y616001D01*
X877300Y616088D01*
X877265Y616083D01*
X877214Y616085D01*
X876041Y615907D01*
X876009Y615894D01*
X875959Y615885D01*
X874854Y615450D01*
X874826Y615430D01*
X874779Y615410D01*
X873804Y614743D01*
X812340Y575122D01*
X812328Y575109D01*
X812309Y575099D01*
X811027Y574079D01*
X811008Y574054D01*
X810972Y574025D01*
X809924Y572766D01*
X809909Y572737D01*
X809880Y572702D01*
X809108Y571256D01*
X809100Y571225D01*
X809079Y571185D01*
X808615Y569614D01*
X808613Y569581D01*
X808601Y569538D01*
X808464Y567905D01*
X808469Y567873D01*
X808466Y567827D01*
X808662Y566201D01*
X808674Y566171D01*
X808680Y566125D01*
X809201Y564572D01*
X809218Y564545D01*
X809233Y564502D01*
X810058Y563086D01*
X810081Y563063D01*
X810104Y563024D01*
X811199Y561805D01*
X811225Y561786D01*
X811256Y561753D01*
X812574Y560780D01*
X812583Y560776D01*
X812591Y560769D01*
X848405Y537147D01*
X848467Y537124D01*
X848526Y537094D01*
X848547Y537094D01*
X848567Y537087D01*
X848633Y537094D01*
G37*
G36*
X921512Y488834D02*
X921512Y488834D01*
X921585Y488831D01*
X921600Y488837D01*
X921613Y488837D01*
X921647Y488856D01*
X921719Y488885D01*
X926799Y492187D01*
X926812Y492201D01*
X926833Y492212D01*
X927885Y493073D01*
X927906Y493100D01*
X927943Y493133D01*
X928783Y494202D01*
X928797Y494233D01*
X928827Y494273D01*
X929413Y495499D01*
X929420Y495533D01*
X929441Y495578D01*
X929746Y496903D01*
X929746Y496937D01*
X929756Y496986D01*
X929766Y498345D01*
X929766Y498346D01*
X929766Y498347D01*
X930020Y573277D01*
X930017Y573289D01*
X930019Y573304D01*
X929824Y576111D01*
X929817Y576134D01*
X929817Y576166D01*
X929217Y578915D01*
X929206Y578937D01*
X929201Y578968D01*
X928209Y581601D01*
X928196Y581621D01*
X928186Y581651D01*
X926822Y584113D01*
X926806Y584131D01*
X926792Y584159D01*
X925087Y586397D01*
X925074Y586407D01*
X925067Y586421D01*
X925058Y586427D01*
X925050Y586439D01*
X923038Y588405D01*
X923017Y588418D01*
X922996Y588441D01*
X920720Y590096D01*
X920712Y590099D01*
X920705Y590106D01*
X896321Y606108D01*
X896261Y606130D01*
X896205Y606159D01*
X896181Y606159D01*
X896158Y606167D01*
X896095Y606161D01*
X896032Y606162D01*
X896007Y606151D01*
X895986Y606149D01*
X895954Y606128D01*
X895899Y606105D01*
X887263Y600263D01*
X887237Y600234D01*
X887204Y600214D01*
X887179Y600172D01*
X887145Y600136D01*
X887134Y600099D01*
X887114Y600065D01*
X887110Y600016D01*
X887096Y599970D01*
X887103Y599931D01*
X887100Y599893D01*
X887118Y599847D01*
X887126Y599799D01*
X887149Y599768D01*
X887163Y599732D01*
X887206Y599690D01*
X887229Y599659D01*
X887248Y599649D01*
X887267Y599630D01*
X915448Y581097D01*
X917043Y579856D01*
X918410Y578389D01*
X919527Y576724D01*
X920365Y574903D01*
X920905Y572971D01*
X921132Y570971D01*
X921132Y489204D01*
X921148Y489133D01*
X921160Y489061D01*
X921168Y489049D01*
X921171Y489035D01*
X921218Y488979D01*
X921259Y488920D01*
X921272Y488913D01*
X921281Y488902D01*
X921348Y488872D01*
X921412Y488837D01*
X921426Y488837D01*
X921440Y488831D01*
X921512Y488834D01*
G37*
G36*
X900840Y503918D02*
X900840Y503918D01*
X900938Y503928D01*
X901265Y504025D01*
X901293Y504041D01*
X901382Y504084D01*
X901656Y504286D01*
X901677Y504311D01*
X901746Y504381D01*
X901935Y504664D01*
X901946Y504695D01*
X901988Y504784D01*
X902069Y505115D01*
X902070Y505151D01*
X902080Y505206D01*
X902080Y513842D01*
X902074Y513869D01*
X902076Y513897D01*
X902054Y513952D01*
X902041Y514011D01*
X902023Y514032D01*
X902013Y514058D01*
X901955Y514115D01*
X901931Y514144D01*
X901920Y514149D01*
X901909Y514160D01*
X868381Y536258D01*
X868327Y536278D01*
X868276Y536306D01*
X868246Y536307D01*
X868219Y536317D01*
X868161Y536311D01*
X868103Y536314D01*
X868071Y536302D01*
X868046Y536299D01*
X868017Y536280D01*
X867968Y536261D01*
X859586Y530927D01*
X859554Y530894D01*
X859516Y530870D01*
X859494Y530833D01*
X859465Y530803D01*
X859451Y530760D01*
X859428Y530721D01*
X859424Y530678D01*
X859411Y530638D01*
X859418Y530593D01*
X859414Y530548D01*
X859430Y530509D01*
X859436Y530467D01*
X859462Y530429D01*
X859479Y530387D01*
X859515Y530352D01*
X859535Y530324D01*
X859558Y530311D01*
X859583Y530287D01*
X899969Y504125D01*
X899996Y504115D01*
X900027Y504094D01*
X900341Y503961D01*
X900373Y503955D01*
X900468Y503931D01*
X900808Y503912D01*
X900840Y503918D01*
G37*
G36*
X871317Y582057D02*
X871317Y582057D01*
X871373Y582061D01*
X871436Y582086D01*
X871479Y582097D01*
X871506Y582116D01*
X871546Y582132D01*
X880436Y587466D01*
X880498Y587520D01*
X880565Y587568D01*
X880582Y587593D01*
X880605Y587614D01*
X880644Y587686D01*
X880690Y587754D01*
X880699Y587787D01*
X880712Y587811D01*
X880719Y587859D01*
X880740Y587934D01*
X882227Y600332D01*
X888700Y604363D01*
X888702Y604364D01*
X888703Y604365D01*
X888734Y604393D01*
X888737Y604394D01*
X888740Y604398D01*
X888785Y604439D01*
X888867Y604513D01*
X888868Y604515D01*
X888869Y604516D01*
X888920Y604615D01*
X888970Y604712D01*
X888971Y604714D01*
X888972Y604716D01*
X888999Y604901D01*
X888999Y608584D01*
X888996Y608604D01*
X888998Y608624D01*
X888976Y608714D01*
X888960Y608805D01*
X888949Y608822D01*
X888945Y608842D01*
X888893Y608918D01*
X888845Y608998D01*
X888830Y609011D01*
X888819Y609027D01*
X888743Y609081D01*
X888671Y609139D01*
X888652Y609146D01*
X888636Y609158D01*
X888546Y609182D01*
X888459Y609211D01*
X888439Y609211D01*
X888419Y609216D01*
X888327Y609207D01*
X888234Y609205D01*
X888216Y609197D01*
X888196Y609195D01*
X888036Y609124D01*
X888027Y609120D01*
X888026Y609120D01*
X888025Y609119D01*
X860085Y591339D01*
X860035Y591294D01*
X859980Y591256D01*
X859954Y591218D01*
X859920Y591187D01*
X859889Y591127D01*
X859851Y591073D01*
X859839Y591028D01*
X859818Y590987D01*
X859810Y590921D01*
X859793Y590856D01*
X859797Y590810D01*
X859792Y590764D01*
X859808Y590699D01*
X859814Y590633D01*
X859834Y590591D01*
X859845Y590546D01*
X859883Y590491D01*
X859912Y590431D01*
X859950Y590393D01*
X859971Y590361D01*
X860004Y590337D01*
X860044Y590297D01*
X870839Y582169D01*
X870889Y582144D01*
X870934Y582110D01*
X870988Y582094D01*
X871039Y582068D01*
X871095Y582062D01*
X871149Y582046D01*
X871206Y582049D01*
X871262Y582043D01*
X871317Y582057D01*
G37*
G36*
X902240Y547763D02*
X902240Y547763D01*
X902309Y547765D01*
X902325Y547774D01*
X902344Y547777D01*
X902401Y547815D01*
X902461Y547848D01*
X902472Y547863D01*
X902487Y547874D01*
X902521Y547934D01*
X902561Y547990D01*
X902565Y548010D01*
X902573Y548024D01*
X902575Y548063D01*
X902588Y548132D01*
X902588Y557530D01*
X902582Y557558D01*
X902584Y557586D01*
X902562Y557641D01*
X902549Y557699D01*
X902531Y557721D01*
X902520Y557747D01*
X902463Y557803D01*
X902439Y557832D01*
X902427Y557837D01*
X902417Y557848D01*
X886923Y568008D01*
X886867Y568028D01*
X886816Y568056D01*
X886787Y568058D01*
X886760Y568067D01*
X886701Y568061D01*
X886642Y568063D01*
X886612Y568051D01*
X886588Y568049D01*
X886558Y568029D01*
X886508Y568010D01*
X878634Y562930D01*
X878601Y562895D01*
X878561Y562868D01*
X878541Y562834D01*
X878514Y562805D01*
X878499Y562759D01*
X878475Y562718D01*
X878473Y562678D01*
X878461Y562640D01*
X878468Y562592D01*
X878465Y562545D01*
X878481Y562508D01*
X878487Y562469D01*
X878515Y562429D01*
X878533Y562385D01*
X878568Y562353D01*
X878586Y562327D01*
X878611Y562313D01*
X878640Y562287D01*
X902008Y547809D01*
X902073Y547787D01*
X902136Y547759D01*
X902154Y547759D01*
X902172Y547753D01*
X902240Y547763D01*
G37*
G36*
X836660Y560849D02*
X836660Y560849D01*
X836707Y560853D01*
X836783Y560885D01*
X836831Y560899D01*
X836850Y560913D01*
X836879Y560925D01*
X842086Y564100D01*
X842092Y564106D01*
X842099Y564109D01*
X842131Y564139D01*
X842164Y564158D01*
X842197Y564199D01*
X842254Y564249D01*
X842258Y564256D01*
X842263Y564261D01*
X842288Y564311D01*
X842305Y564332D01*
X842318Y564369D01*
X842360Y564447D01*
X842361Y564455D01*
X842364Y564462D01*
X842375Y564537D01*
X842377Y564545D01*
X842377Y564553D01*
X842390Y564648D01*
X842263Y579253D01*
X842257Y579285D01*
X842259Y579318D01*
X842250Y579349D01*
X842250Y579357D01*
X842242Y579376D01*
X842236Y579395D01*
X842222Y579473D01*
X842205Y579501D01*
X842195Y579533D01*
X842147Y579597D01*
X842106Y579665D01*
X842080Y579686D01*
X842060Y579712D01*
X841993Y579755D01*
X841930Y579805D01*
X841899Y579815D01*
X841871Y579833D01*
X841793Y579850D01*
X841717Y579875D01*
X841684Y579874D01*
X841652Y579881D01*
X841573Y579870D01*
X841493Y579867D01*
X841463Y579854D01*
X841430Y579849D01*
X841330Y579799D01*
X841286Y579780D01*
X841277Y579772D01*
X841263Y579765D01*
X829960Y571764D01*
X829938Y571742D01*
X829904Y571720D01*
X829307Y571189D01*
X829277Y571149D01*
X829206Y571074D01*
X828753Y570416D01*
X828733Y570370D01*
X828683Y570281D01*
X828400Y569533D01*
X828391Y569484D01*
X828364Y569385D01*
X828268Y568592D01*
X828270Y568542D01*
X828268Y568439D01*
X828364Y567646D01*
X828378Y567598D01*
X828400Y567498D01*
X828683Y566750D01*
X828708Y566707D01*
X828753Y566615D01*
X829206Y565957D01*
X829242Y565921D01*
X829307Y565842D01*
X829904Y565311D01*
X829932Y565294D01*
X829964Y565264D01*
X836187Y560946D01*
X836230Y560927D01*
X836267Y560899D01*
X836331Y560880D01*
X836391Y560853D01*
X836438Y560849D01*
X836483Y560836D01*
X836549Y560841D01*
X836615Y560836D01*
X836660Y560849D01*
G37*
G36*
X848892Y520200D02*
X848892Y520200D01*
X848937Y520197D01*
X849002Y520216D01*
X849070Y520226D01*
X849116Y520249D01*
X849152Y520260D01*
X849185Y520284D01*
X849237Y520311D01*
X852793Y522851D01*
X852812Y522871D01*
X852834Y522884D01*
X852855Y522909D01*
X852887Y522933D01*
X852914Y522975D01*
X852949Y523012D01*
X852963Y523043D01*
X852975Y523058D01*
X852984Y523082D01*
X853009Y523121D01*
X853023Y523179D01*
X853040Y523217D01*
X853042Y523254D01*
X853046Y523266D01*
X853047Y523270D01*
X853047Y523272D01*
X853055Y523303D01*
X853789Y530523D01*
X860048Y535309D01*
X860099Y535365D01*
X860156Y535415D01*
X860174Y535447D01*
X860200Y535475D01*
X860228Y535545D01*
X860264Y535611D01*
X860272Y535653D01*
X860284Y535683D01*
X860285Y535728D01*
X860297Y535796D01*
X860424Y540495D01*
X860417Y540539D01*
X860420Y540584D01*
X860410Y540618D01*
X860410Y540619D01*
X860408Y540623D01*
X860401Y540649D01*
X860390Y540717D01*
X860369Y540756D01*
X860356Y540799D01*
X860315Y540853D01*
X860282Y540913D01*
X860247Y540942D01*
X860220Y540978D01*
X860163Y541015D01*
X860111Y541059D01*
X860069Y541074D01*
X860031Y541099D01*
X859965Y541113D01*
X859901Y541137D01*
X859856Y541136D01*
X859812Y541146D01*
X859744Y541136D01*
X859676Y541136D01*
X859634Y541120D01*
X859590Y541114D01*
X859513Y541075D01*
X859466Y541057D01*
X859449Y541042D01*
X859423Y541029D01*
X849771Y534171D01*
X849726Y534125D01*
X849674Y534087D01*
X849648Y534046D01*
X849614Y534011D01*
X849587Y533952D01*
X849553Y533898D01*
X849539Y533843D01*
X849522Y533806D01*
X849520Y533768D01*
X849507Y533717D01*
X848237Y520890D01*
X848242Y520822D01*
X848238Y520753D01*
X848251Y520711D01*
X848255Y520666D01*
X848283Y520604D01*
X848303Y520539D01*
X848330Y520503D01*
X848349Y520462D01*
X848398Y520414D01*
X848439Y520360D01*
X848477Y520336D01*
X848509Y520304D01*
X848571Y520276D01*
X848628Y520240D01*
X848672Y520230D01*
X848713Y520212D01*
X848781Y520207D01*
X848848Y520193D01*
X848892Y520200D01*
G37*
G36*
X867667Y551695D02*
X867667Y551695D01*
X867711Y551691D01*
X867778Y551708D01*
X867846Y551715D01*
X867893Y551737D01*
X867929Y551747D01*
X867963Y551770D01*
X868016Y551795D01*
X871826Y554335D01*
X871853Y554362D01*
X871884Y554380D01*
X871900Y554400D01*
X871927Y554419D01*
X871954Y554458D01*
X871988Y554491D01*
X872008Y554532D01*
X872025Y554554D01*
X872031Y554572D01*
X872053Y554605D01*
X872068Y554658D01*
X872085Y554693D01*
X872089Y554732D01*
X872104Y554786D01*
X873083Y562745D01*
X878167Y566013D01*
X878214Y566057D01*
X878267Y566093D01*
X878295Y566133D01*
X878331Y566166D01*
X878360Y566224D01*
X878397Y566276D01*
X878414Y566330D01*
X878432Y566367D01*
X878436Y566405D01*
X878452Y566455D01*
X878969Y569988D01*
X879214Y571662D01*
X879211Y571735D01*
X879218Y571807D01*
X879208Y571846D01*
X879206Y571886D01*
X879179Y571954D01*
X879160Y572024D01*
X879137Y572057D01*
X879121Y572094D01*
X879072Y572148D01*
X879030Y572207D01*
X878997Y572230D01*
X878969Y572259D01*
X878905Y572292D01*
X878845Y572333D01*
X878805Y572343D01*
X878770Y572361D01*
X878697Y572370D01*
X878627Y572387D01*
X878587Y572382D01*
X878547Y572387D01*
X878476Y572370D01*
X878404Y572362D01*
X878362Y572342D01*
X878329Y572334D01*
X878292Y572309D01*
X878234Y572282D01*
X869090Y566186D01*
X869045Y566142D01*
X868993Y566106D01*
X868965Y566065D01*
X868928Y566030D01*
X868901Y565974D01*
X868865Y565922D01*
X868849Y565865D01*
X868831Y565828D01*
X868828Y565791D01*
X868813Y565742D01*
X867035Y552407D01*
X867038Y552338D01*
X867032Y552270D01*
X867043Y552227D01*
X867045Y552183D01*
X867072Y552120D01*
X867090Y552053D01*
X867116Y552017D01*
X867133Y551976D01*
X867180Y551926D01*
X867220Y551870D01*
X867257Y551845D01*
X867287Y551813D01*
X867349Y551782D01*
X867405Y551744D01*
X867448Y551733D01*
X867488Y551714D01*
X867557Y551707D01*
X867623Y551690D01*
X867667Y551695D01*
G37*
D10*
X879124Y655606D03*
X879124Y135666D03*
D11*
X666774Y135536D03*
X666774Y655606D03*
D12*
X166774Y655606D03*
X166774Y135536D03*
D13*
X442062Y132336D02*
X442062Y147576D01*
X416662Y147576D02*
X416662Y132336D01*
X391262Y132336D02*
X391262Y147576D01*
X467462Y147576D02*
X467462Y132336D01*
X330200Y478155D02*
X330200Y493395D01*
X355600Y493395D02*
X355600Y478155D01*
X387350Y296545D02*
X387350Y281305D01*
X412750Y281305D02*
X412750Y296545D01*
D14*
X361950Y561975D03*
X317500Y561975D03*
X523875Y282575D03*
X320675Y320675D03*
X539750Y333375D03*
X593725Y333375D03*
X457200Y333375D03*
X501650Y333375D03*
X371475Y231775D03*
X409575Y231775D03*
X447675Y231775D03*
X485775Y231775D03*
D15*
X821182Y434848D02*
X820928Y454406D01*
X820928Y455168D01*
X820930Y455352D01*
X820937Y455536D01*
X820948Y455720D01*
X820964Y455903D01*
X820984Y456086D01*
X821008Y456269D01*
X821037Y456451D01*
X821070Y456632D01*
X821108Y456812D01*
X821149Y456992D01*
X821196Y457170D01*
X821246Y457347D01*
X821301Y457523D01*
X821360Y457697D01*
X821423Y457870D01*
X821491Y458041D01*
X821562Y458211D01*
X821638Y458379D01*
X821717Y458545D01*
X821801Y458709D01*
X821888Y458871D01*
X821980Y459031D01*
X822075Y459189D01*
X822174Y459344D01*
X822277Y459497D01*
X822383Y459647D01*
X822493Y459795D01*
X822607Y459940D01*
X822724Y460082D01*
X822844Y460221D01*
X822968Y460357D01*
X823095Y460491D01*
X823225Y460621D01*
X823359Y460748D01*
X823495Y460872D01*
X823634Y460992D01*
X823776Y461109D01*
X823921Y461223D01*
X824069Y461333D01*
X824219Y461439D01*
X824372Y461542D01*
X824527Y461641D01*
X824685Y461736D01*
X824845Y461828D01*
X825007Y461915D01*
X825171Y461999D01*
X825337Y462078D01*
X825505Y462154D01*
X825675Y462225D01*
X825846Y462293D01*
X826019Y462356D01*
X826193Y462415D01*
X826369Y462470D01*
X826546Y462520D01*
X826724Y462567D01*
X826904Y462608D01*
X827084Y462646D01*
X827265Y462679D01*
X827447Y462708D01*
X827630Y462732D01*
X827813Y462752D01*
X827996Y462768D01*
X828180Y462779D01*
X828364Y462786D01*
X828548Y462788D01*
X849884Y462788D01*
X839470Y460502D02*
X839470Y434848D01*
X820928Y421640D02*
X820928Y402082D01*
X820928Y421640D02*
X820930Y421837D01*
X820938Y422035D01*
X820950Y422231D01*
X820966Y422428D01*
X820988Y422624D01*
X821014Y422820D01*
X821045Y423015D01*
X821081Y423209D01*
X821121Y423402D01*
X821166Y423594D01*
X821216Y423785D01*
X821270Y423975D01*
X821329Y424163D01*
X821393Y424350D01*
X821461Y424535D01*
X821533Y424719D01*
X821610Y424900D01*
X821691Y425080D01*
X821777Y425258D01*
X821867Y425434D01*
X821961Y425607D01*
X822060Y425778D01*
X822162Y425947D01*
X822269Y426113D01*
X822379Y426276D01*
X822494Y426437D01*
X822612Y426595D01*
X822734Y426750D01*
X822860Y426902D01*
X822989Y427051D01*
X823122Y427196D01*
X823259Y427339D01*
X823399Y427478D01*
X823542Y427614D01*
X823689Y427746D01*
X823839Y427874D01*
X823991Y427999D01*
X824147Y428120D01*
X824306Y428238D01*
X824467Y428351D01*
X824631Y428460D01*
X824798Y428566D01*
X824968Y428667D01*
X825139Y428764D01*
X825313Y428857D01*
X825490Y428946D01*
X825668Y429031D01*
X825848Y429111D01*
X826030Y429187D01*
X826214Y429258D01*
X826400Y429325D01*
X826587Y429387D01*
X826776Y429445D01*
X826966Y429498D01*
X827157Y429546D01*
X827350Y429590D01*
X827543Y429629D01*
X827737Y429664D01*
X827933Y429693D01*
X828128Y429718D01*
X828325Y429739D01*
X828521Y429754D01*
X828718Y429765D01*
X828916Y429771D01*
X829113Y429772D01*
X829310Y429768D01*
X849884Y430022D01*
X821182Y395732D02*
X821182Y375412D01*
X821184Y375213D01*
X821192Y375015D01*
X821204Y374817D01*
X821221Y374619D01*
X821243Y374421D01*
X821269Y374224D01*
X821301Y374028D01*
X821337Y373833D01*
X821378Y373638D01*
X821423Y373445D01*
X821474Y373253D01*
X821529Y373062D01*
X821589Y372873D01*
X821653Y372685D01*
X821722Y372498D01*
X821795Y372314D01*
X821873Y372131D01*
X821956Y371950D01*
X822042Y371772D01*
X822133Y371595D01*
X822229Y371421D01*
X822328Y371249D01*
X822432Y371079D01*
X822540Y370913D01*
X822652Y370749D01*
X822768Y370587D01*
X822888Y370429D01*
X823011Y370273D01*
X823139Y370121D01*
X823270Y369972D01*
X823405Y369826D01*
X823543Y369683D01*
X823684Y369544D01*
X823830Y369408D01*
X823978Y369276D01*
X824129Y369147D01*
X824284Y369022D01*
X824441Y368901D01*
X824602Y368784D01*
X824765Y368671D01*
X824931Y368562D01*
X825100Y368457D01*
X825271Y368356D01*
X825445Y368260D01*
X825620Y368167D01*
X825799Y368079D01*
X825979Y367995D01*
X826161Y367916D01*
X826345Y367841D01*
X826531Y367771D01*
X826718Y367705D01*
X826907Y367644D01*
X827098Y367588D01*
X827289Y367536D01*
X827482Y367489D01*
X827677Y367447D01*
X827872Y367409D01*
X828067Y367376D01*
X828264Y367348D01*
X828461Y367325D01*
X828659Y367306D01*
X828857Y367293D01*
X829056Y367284D01*
X850138Y367538D01*
X849122Y376428D02*
X849122Y390652D01*
X849119Y390867D01*
X849112Y391083D01*
X849099Y391298D01*
X849080Y391513D01*
X849057Y391727D01*
X849028Y391940D01*
X848994Y392153D01*
X848955Y392365D01*
X848911Y392576D01*
X848862Y392786D01*
X848808Y392994D01*
X848749Y393201D01*
X848685Y393407D01*
X848615Y393611D01*
X848541Y393813D01*
X848462Y394014D01*
X848378Y394212D01*
X848290Y394409D01*
X848196Y394603D01*
X848098Y394795D01*
X847996Y394984D01*
X847888Y395171D01*
X847777Y395355D01*
X847660Y395537D01*
X847540Y395715D01*
X847415Y395891D01*
X847286Y396064D01*
X847153Y396233D01*
X847016Y396399D01*
X846875Y396562D01*
X846729Y396721D01*
X846580Y396877D01*
X846428Y397029D01*
X846272Y397177D01*
X846112Y397322D01*
X845948Y397462D01*
X845782Y397599D01*
X845612Y397731D01*
X845439Y397860D01*
X845263Y397984D01*
X845084Y398104D01*
X844902Y398219D01*
X844717Y398330D01*
X844530Y398437D01*
X844340Y398538D01*
X844147Y398636D01*
X843953Y398728D01*
X843756Y398816D01*
X843557Y398899D01*
X843357Y398978D01*
X843154Y399051D01*
X842950Y399119D01*
X842744Y399183D01*
X842536Y399241D01*
X842328Y399295D01*
X842118Y399343D01*
X841907Y399386D01*
X841695Y399424D01*
X841482Y399457D01*
X841268Y399485D01*
X841054Y399508D01*
X840839Y399525D01*
X840624Y399537D01*
X840408Y399544D01*
X840193Y399546D01*
X839978Y399542D01*
X839733Y399532D01*
X839489Y399516D01*
X839246Y399495D01*
X839003Y399467D01*
X838761Y399433D01*
X838520Y399394D01*
X838279Y399348D01*
X838040Y399297D01*
X837803Y399240D01*
X837566Y399177D01*
X837332Y399109D01*
X837099Y399035D01*
X836868Y398955D01*
X836639Y398869D01*
X836412Y398778D01*
X836187Y398682D01*
X835965Y398580D01*
X835746Y398472D01*
X835529Y398360D01*
X835315Y398242D01*
X835103Y398118D01*
X834895Y397990D01*
X834690Y397857D01*
X834489Y397719D01*
X834291Y397576D01*
X834096Y397428D01*
X833905Y397275D01*
X833718Y397118D01*
X833535Y396956D01*
X833355Y396790D01*
X833180Y396619D01*
X833009Y396445D01*
X832842Y396266D01*
X832680Y396083D01*
X832522Y395896D01*
X832369Y395706D01*
X832221Y395512D01*
X832077Y395314D01*
X831938Y395113D01*
X831804Y394908D01*
X831675Y394700D01*
X831552Y394490D01*
X831433Y394276D01*
X831320Y394059D01*
X831212Y393840D01*
X831109Y393618D01*
X831012Y393394D01*
X830920Y393167D01*
X830834Y392938D01*
X830834Y369316D01*
X820928Y350774D02*
X820928Y328422D01*
X820928Y350774D02*
X820930Y350967D01*
X820937Y351161D01*
X820949Y351354D01*
X820966Y351546D01*
X820987Y351739D01*
X821013Y351930D01*
X821044Y352121D01*
X821079Y352311D01*
X821119Y352501D01*
X821163Y352689D01*
X821212Y352876D01*
X821266Y353062D01*
X821324Y353246D01*
X821387Y353429D01*
X821454Y353610D01*
X821526Y353790D01*
X821602Y353968D01*
X821682Y354144D01*
X821766Y354318D01*
X821855Y354490D01*
X821948Y354659D01*
X822045Y354826D01*
X822146Y354991D01*
X822252Y355154D01*
X822361Y355313D01*
X822474Y355470D01*
X822590Y355625D01*
X822711Y355776D01*
X822835Y355924D01*
X822963Y356069D01*
X823094Y356211D01*
X823229Y356350D01*
X823367Y356486D01*
X823508Y356618D01*
X823652Y356746D01*
X823800Y356871D01*
X823951Y356993D01*
X824104Y357110D01*
X824261Y357224D01*
X824420Y357334D01*
X824581Y357440D01*
X824746Y357542D01*
X824912Y357640D01*
X825081Y357734D01*
X825253Y357824D01*
X825426Y357909D01*
X825602Y357990D01*
X825779Y358067D01*
X825958Y358140D01*
X826139Y358208D01*
X826322Y358272D01*
X826506Y358331D01*
X826692Y358386D01*
X826878Y358436D01*
X827066Y358481D01*
X827255Y358522D01*
X827445Y358559D01*
X827636Y358590D01*
X827828Y358617D01*
X828020Y358640D01*
X828212Y358657D01*
X828405Y358670D01*
X828598Y358678D01*
X828792Y358682D01*
X828985Y358681D01*
X829179Y358675D01*
X829372Y358664D01*
X829564Y358648D01*
X840994Y358394D01*
X841199Y358387D01*
X841404Y358375D01*
X841609Y358358D01*
X841813Y358336D01*
X842017Y358309D01*
X842219Y358277D01*
X842421Y358241D01*
X842622Y358199D01*
X842822Y358152D01*
X843021Y358101D01*
X843219Y358045D01*
X843415Y357984D01*
X843609Y357919D01*
X843802Y357848D01*
X843993Y357773D01*
X844183Y357694D01*
X844370Y357610D01*
X844555Y357521D01*
X844738Y357428D01*
X844919Y357331D01*
X845097Y357229D01*
X845273Y357123D01*
X845446Y357012D01*
X845616Y356898D01*
X845784Y356779D01*
X845949Y356656D01*
X846110Y356530D01*
X846269Y356399D01*
X846424Y356265D01*
X846576Y356127D01*
X846725Y355985D01*
X846870Y355840D01*
X847011Y355691D01*
X847149Y355539D01*
X847283Y355384D01*
X847414Y355225D01*
X847540Y355064D01*
X847663Y354899D01*
X847781Y354731D01*
X847896Y354561D01*
X848006Y354388D01*
X848112Y354212D01*
X848214Y354034D01*
X848311Y353853D01*
X848404Y353670D01*
X848493Y353485D01*
X848577Y353297D01*
X848656Y353108D01*
X848731Y352917D01*
X848801Y352724D01*
X848867Y352529D01*
X848928Y352333D01*
X848983Y352136D01*
X849035Y351937D01*
X849081Y351737D01*
X849122Y351536D01*
X849376Y328422D01*
X836168Y318770D02*
X819912Y318770D01*
X836168Y318770D02*
X850138Y318770D01*
X836168Y318770D02*
X820928Y286766D01*
X849630Y286766D02*
X835152Y315976D01*
X821436Y279146D02*
X821436Y243586D01*
X821182Y261112D02*
X849884Y261112D01*
X821182Y237236D02*
X821182Y216916D01*
X821184Y216717D01*
X821192Y216519D01*
X821204Y216321D01*
X821221Y216123D01*
X821243Y215925D01*
X821269Y215728D01*
X821301Y215532D01*
X821337Y215337D01*
X821378Y215142D01*
X821423Y214949D01*
X821474Y214757D01*
X821529Y214566D01*
X821589Y214377D01*
X821653Y214189D01*
X821722Y214002D01*
X821795Y213818D01*
X821873Y213635D01*
X821956Y213454D01*
X822042Y213276D01*
X822133Y213099D01*
X822229Y212925D01*
X822328Y212753D01*
X822432Y212583D01*
X822540Y212417D01*
X822652Y212253D01*
X822768Y212091D01*
X822888Y211933D01*
X823011Y211777D01*
X823139Y211625D01*
X823270Y211476D01*
X823405Y211330D01*
X823543Y211187D01*
X823684Y211048D01*
X823830Y210912D01*
X823978Y210780D01*
X824129Y210651D01*
X824284Y210526D01*
X824441Y210405D01*
X824602Y210288D01*
X824765Y210175D01*
X824931Y210066D01*
X825100Y209961D01*
X825271Y209860D01*
X825445Y209764D01*
X825620Y209671D01*
X825799Y209583D01*
X825979Y209499D01*
X826161Y209420D01*
X826345Y209345D01*
X826531Y209275D01*
X826718Y209209D01*
X826907Y209148D01*
X827098Y209092D01*
X827289Y209040D01*
X827482Y208993D01*
X827677Y208951D01*
X827872Y208913D01*
X828067Y208880D01*
X828264Y208852D01*
X828461Y208829D01*
X828659Y208810D01*
X828857Y208797D01*
X829056Y208788D01*
X850138Y209042D01*
X849122Y217932D02*
X849122Y232156D01*
X849119Y232371D01*
X849112Y232587D01*
X849099Y232802D01*
X849080Y233017D01*
X849057Y233231D01*
X849028Y233444D01*
X848994Y233657D01*
X848955Y233869D01*
X848911Y234080D01*
X848862Y234290D01*
X848808Y234498D01*
X848749Y234705D01*
X848685Y234911D01*
X848615Y235115D01*
X848541Y235317D01*
X848462Y235518D01*
X848378Y235716D01*
X848290Y235913D01*
X848196Y236107D01*
X848098Y236299D01*
X847996Y236488D01*
X847888Y236675D01*
X847777Y236859D01*
X847660Y237041D01*
X847540Y237219D01*
X847415Y237395D01*
X847286Y237568D01*
X847153Y237737D01*
X847016Y237903D01*
X846875Y238066D01*
X846729Y238225D01*
X846580Y238381D01*
X846428Y238533D01*
X846272Y238681D01*
X846112Y238826D01*
X845948Y238966D01*
X845782Y239103D01*
X845612Y239235D01*
X845439Y239364D01*
X845263Y239488D01*
X845084Y239608D01*
X844902Y239723D01*
X844717Y239834D01*
X844530Y239941D01*
X844340Y240042D01*
X844147Y240140D01*
X843953Y240232D01*
X843756Y240320D01*
X843557Y240403D01*
X843357Y240482D01*
X843154Y240555D01*
X842950Y240623D01*
X842744Y240687D01*
X842536Y240745D01*
X842328Y240799D01*
X842118Y240847D01*
X841907Y240890D01*
X841695Y240928D01*
X841482Y240961D01*
X841268Y240989D01*
X841054Y241012D01*
X840839Y241029D01*
X840624Y241041D01*
X840408Y241048D01*
X840193Y241050D01*
X839978Y241046D01*
X839733Y241036D01*
X839489Y241020D01*
X839246Y240999D01*
X839003Y240971D01*
X838761Y240937D01*
X838520Y240898D01*
X838279Y240852D01*
X838040Y240801D01*
X837803Y240744D01*
X837566Y240681D01*
X837332Y240613D01*
X837099Y240539D01*
X836868Y240459D01*
X836639Y240373D01*
X836412Y240282D01*
X836187Y240186D01*
X835965Y240084D01*
X835746Y239976D01*
X835529Y239864D01*
X835315Y239746D01*
X835103Y239622D01*
X834895Y239494D01*
X834690Y239361D01*
X834489Y239223D01*
X834291Y239080D01*
X834096Y238932D01*
X833905Y238779D01*
X833718Y238622D01*
X833535Y238460D01*
X833355Y238294D01*
X833180Y238123D01*
X833009Y237949D01*
X832842Y237770D01*
X832680Y237587D01*
X832522Y237400D01*
X832369Y237210D01*
X832221Y237016D01*
X832077Y236818D01*
X831938Y236617D01*
X831804Y236412D01*
X831675Y236204D01*
X831552Y235994D01*
X831433Y235780D01*
X831320Y235563D01*
X831212Y235344D01*
X831109Y235122D01*
X831012Y234898D01*
X830920Y234671D01*
X830834Y234442D01*
X830834Y210820D01*
X840994Y197358D02*
X819658Y197358D01*
X840994Y197358D02*
X841194Y197356D01*
X841395Y197348D01*
X841595Y197336D01*
X841794Y197319D01*
X841994Y197297D01*
X842192Y197270D01*
X842390Y197238D01*
X842587Y197201D01*
X842783Y197160D01*
X842978Y197113D01*
X843172Y197062D01*
X843365Y197006D01*
X843556Y196946D01*
X843745Y196881D01*
X843933Y196811D01*
X844119Y196736D01*
X844303Y196657D01*
X844486Y196574D01*
X844666Y196486D01*
X844844Y196394D01*
X845019Y196297D01*
X845192Y196196D01*
X845363Y196091D01*
X845531Y195982D01*
X845696Y195868D01*
X845859Y195751D01*
X846018Y195630D01*
X846175Y195504D01*
X846328Y195375D01*
X846478Y195243D01*
X846625Y195106D01*
X846769Y194966D01*
X846909Y194823D01*
X847045Y194676D01*
X847178Y194526D01*
X847307Y194372D01*
X847432Y194216D01*
X847553Y194057D01*
X847671Y193894D01*
X847784Y193729D01*
X847894Y193561D01*
X847999Y193390D01*
X848100Y193217D01*
X848196Y193041D01*
X848289Y192864D01*
X848377Y192683D01*
X848460Y192501D01*
X848539Y192317D01*
X848613Y192131D01*
X848683Y191943D01*
X848749Y191754D01*
X848809Y191562D01*
X848865Y191370D01*
X848916Y191176D01*
X848962Y190981D01*
X849004Y190785D01*
X849041Y190588D01*
X849072Y190390D01*
X849099Y190192D01*
X849122Y189992D01*
X849376Y169164D01*
X886460Y464058D02*
X909066Y464058D01*
X909233Y464056D01*
X909400Y464050D01*
X909567Y464040D01*
X909733Y464025D01*
X909900Y464007D01*
X910065Y463985D01*
X910230Y463959D01*
X910395Y463928D01*
X910558Y463894D01*
X910721Y463856D01*
X910882Y463813D01*
X911043Y463767D01*
X911202Y463717D01*
X911361Y463663D01*
X911517Y463605D01*
X911673Y463544D01*
X911827Y463478D01*
X911979Y463409D01*
X912129Y463336D01*
X912278Y463260D01*
X912425Y463180D01*
X912569Y463097D01*
X912712Y463009D01*
X912852Y462919D01*
X912991Y462825D01*
X913127Y462728D01*
X913260Y462627D01*
X913391Y462524D01*
X913520Y462417D01*
X913645Y462307D01*
X913769Y462194D01*
X913889Y462078D01*
X914006Y461959D01*
X914121Y461837D01*
X914232Y461713D01*
X914341Y461586D01*
X914446Y461456D01*
X914548Y461324D01*
X914647Y461189D01*
X914743Y461052D01*
X914835Y460912D01*
X914924Y460771D01*
X915009Y460627D01*
X915091Y460481D01*
X915169Y460334D01*
X915244Y460184D01*
X915315Y460033D01*
X915382Y459880D01*
X915446Y459725D01*
X915505Y459569D01*
X915561Y459412D01*
X915613Y459253D01*
X915661Y459093D01*
X915706Y458932D01*
X915746Y458770D01*
X915782Y458607D01*
X915815Y458443D01*
X915843Y458278D01*
X915867Y458113D01*
X915888Y457947D01*
X915904Y457780D01*
X915916Y457614D01*
X915924Y457447D01*
X915928Y457280D01*
X915929Y457113D01*
X915924Y456946D01*
X915924Y427482D01*
X915922Y427331D01*
X915916Y427179D01*
X915906Y427028D01*
X915893Y426877D01*
X915875Y426727D01*
X915854Y426577D01*
X915828Y426427D01*
X915799Y426279D01*
X915766Y426131D01*
X915729Y425984D01*
X915689Y425838D01*
X915644Y425693D01*
X915596Y425549D01*
X915544Y425407D01*
X915489Y425266D01*
X915430Y425126D01*
X915367Y424989D01*
X915301Y424852D01*
X915231Y424718D01*
X915158Y424585D01*
X915082Y424454D01*
X915002Y424326D01*
X914918Y424199D01*
X914832Y424075D01*
X914742Y423953D01*
X914650Y423833D01*
X914554Y423715D01*
X914455Y423601D01*
X914353Y423488D01*
X914248Y423379D01*
X914141Y423272D01*
X914031Y423168D01*
X913918Y423067D01*
X913803Y422969D01*
X913685Y422874D01*
X913565Y422781D01*
X913442Y422692D01*
X913317Y422607D01*
X913190Y422524D01*
X913061Y422445D01*
X912930Y422369D01*
X912796Y422297D01*
X912662Y422228D01*
X912525Y422163D01*
X912387Y422101D01*
X912247Y422042D01*
X912106Y421988D01*
X911963Y421937D01*
X911819Y421889D01*
X911674Y421846D01*
X911528Y421806D01*
X911380Y421770D01*
X911232Y421738D01*
X911084Y421710D01*
X910934Y421685D01*
X910784Y421665D01*
X910633Y421648D01*
X910482Y421635D01*
X910331Y421626D01*
X910180Y421621D01*
X910028Y421620D01*
X909877Y421623D01*
X909725Y421630D01*
X909574Y421640D01*
X887222Y421640D01*
X886714Y442976D02*
X915670Y442976D01*
X897128Y410718D02*
X894588Y410718D01*
X897128Y410718D02*
X908304Y410718D01*
X908478Y410722D01*
X908651Y410721D01*
X908824Y410717D01*
X908997Y410708D01*
X909169Y410695D01*
X909341Y410678D01*
X909513Y410657D01*
X909684Y410631D01*
X909855Y410601D01*
X910025Y410568D01*
X910194Y410530D01*
X910362Y410488D01*
X910528Y410442D01*
X910694Y410391D01*
X910859Y410337D01*
X911022Y410279D01*
X911183Y410217D01*
X911343Y410151D01*
X911502Y410081D01*
X911658Y410008D01*
X911813Y409930D01*
X911966Y409849D01*
X912117Y409764D01*
X912266Y409676D01*
X912412Y409583D01*
X912557Y409488D01*
X912698Y409389D01*
X912838Y409286D01*
X912975Y409180D01*
X913109Y409071D01*
X913241Y408958D01*
X913370Y408843D01*
X913496Y408724D01*
X913619Y408602D01*
X913739Y408478D01*
X913856Y408350D01*
X913970Y408220D01*
X914080Y408087D01*
X914188Y407951D01*
X914292Y407812D01*
X914392Y407672D01*
X914489Y407528D01*
X914583Y407383D01*
X914673Y407235D01*
X914760Y407085D01*
X914843Y406933D01*
X914922Y406779D01*
X914997Y406623D01*
X915069Y406466D01*
X915136Y406306D01*
X915200Y406145D01*
X915260Y405983D01*
X915316Y405819D01*
X915368Y405654D01*
X915416Y405488D01*
X915460Y405320D01*
X915499Y405152D01*
X915535Y404982D01*
X915566Y404812D01*
X915594Y404641D01*
X915617Y404470D01*
X915636Y404298D01*
X915651Y404125D01*
X915661Y403952D01*
X915668Y403779D01*
X915670Y403606D01*
X915670Y387350D01*
X915668Y387148D01*
X915660Y386945D01*
X915648Y386743D01*
X915631Y386542D01*
X915608Y386341D01*
X915581Y386140D01*
X915549Y385940D01*
X915513Y385741D01*
X915471Y385543D01*
X915425Y385346D01*
X915373Y385151D01*
X915317Y384956D01*
X915257Y384763D01*
X915191Y384572D01*
X915121Y384382D01*
X915047Y384194D01*
X914968Y384008D01*
X914884Y383823D01*
X914796Y383641D01*
X914703Y383461D01*
X914606Y383284D01*
X914505Y383108D01*
X914400Y382936D01*
X914290Y382766D01*
X914176Y382598D01*
X914058Y382434D01*
X913937Y382272D01*
X913811Y382114D01*
X913681Y381958D01*
X913548Y381806D01*
X913411Y381657D01*
X913271Y381511D01*
X913127Y381369D01*
X912979Y381230D01*
X912828Y381096D01*
X912674Y380964D01*
X912517Y380837D01*
X912357Y380713D01*
X912194Y380594D01*
X912028Y380478D01*
X911859Y380366D01*
X911687Y380259D01*
X911513Y380156D01*
X911337Y380057D01*
X911158Y379962D01*
X910977Y379872D01*
X910794Y379786D01*
X910608Y379705D01*
X910421Y379628D01*
X910232Y379556D01*
X910041Y379489D01*
X909849Y379426D01*
X909655Y379368D01*
X909460Y379314D01*
X909263Y379266D01*
X909066Y379222D01*
X895604Y379222D01*
X895421Y379224D01*
X895239Y379231D01*
X895056Y379242D01*
X894874Y379258D01*
X894693Y379278D01*
X894512Y379303D01*
X894331Y379332D01*
X894152Y379365D01*
X893973Y379403D01*
X893795Y379445D01*
X893619Y379492D01*
X893443Y379542D01*
X893269Y379598D01*
X893096Y379657D01*
X892925Y379721D01*
X892755Y379788D01*
X892587Y379860D01*
X892421Y379936D01*
X892257Y380016D01*
X892095Y380101D01*
X891935Y380189D01*
X891777Y380281D01*
X891621Y380376D01*
X891468Y380476D01*
X891318Y380579D01*
X891169Y380686D01*
X891024Y380797D01*
X890881Y380911D01*
X890742Y381029D01*
X890605Y381150D01*
X890471Y381274D01*
X890340Y381401D01*
X890212Y381532D01*
X890088Y381666D01*
X889967Y381803D01*
X889849Y381942D01*
X889735Y382085D01*
X889624Y382230D01*
X889517Y382378D01*
X889414Y382529D01*
X889314Y382682D01*
X889218Y382838D01*
X889126Y382995D01*
X889038Y383155D01*
X888954Y383318D01*
X888874Y383482D01*
X888797Y383648D01*
X888725Y383816D01*
X888657Y383985D01*
X888594Y384156D01*
X888534Y384329D01*
X888479Y384503D01*
X888428Y384679D01*
X888381Y384855D01*
X888339Y385033D01*
X888301Y385212D01*
X888267Y385391D01*
X888238Y385572D01*
X888238Y390144D01*
X888238Y402590D01*
X888238Y402844D02*
X888238Y390144D01*
X888238Y402844D02*
X888240Y403038D01*
X888248Y403233D01*
X888259Y403427D01*
X888276Y403621D01*
X888298Y403814D01*
X888324Y404007D01*
X888355Y404199D01*
X888390Y404390D01*
X888430Y404580D01*
X888475Y404769D01*
X888525Y404958D01*
X888579Y405144D01*
X888638Y405330D01*
X888701Y405514D01*
X888768Y405696D01*
X888841Y405877D01*
X888917Y406055D01*
X888998Y406232D01*
X889083Y406407D01*
X889173Y406580D01*
X889267Y406750D01*
X889364Y406918D01*
X889466Y407084D01*
X889572Y407247D01*
X889682Y407407D01*
X889796Y407565D01*
X889914Y407720D01*
X890035Y407872D01*
X890160Y408021D01*
X890289Y408167D01*
X890421Y408309D01*
X890557Y408448D01*
X890696Y408584D01*
X890838Y408717D01*
X890984Y408846D01*
X891133Y408971D01*
X891284Y409093D01*
X891439Y409211D01*
X891597Y409325D01*
X891757Y409435D01*
X891920Y409541D01*
X892085Y409643D01*
X892253Y409741D01*
X892424Y409835D01*
X892596Y409925D01*
X892771Y410011D01*
X892947Y410092D01*
X893126Y410169D01*
X893307Y410241D01*
X893489Y410309D01*
X893673Y410373D01*
X893858Y410432D01*
X894045Y410486D01*
X894233Y410536D01*
X894422Y410581D01*
X894612Y410622D01*
X894803Y410657D01*
X894995Y410689D01*
X895188Y410715D01*
X895381Y410737D01*
X895575Y410754D01*
X895769Y410766D01*
X895963Y410773D01*
X896158Y410776D01*
X896352Y410774D01*
X896547Y410767D01*
X896741Y410755D01*
X896935Y410739D01*
X897128Y410718D01*
X887730Y360680D02*
X887730Y340868D01*
X887730Y360680D02*
X887732Y360884D01*
X887740Y361087D01*
X887752Y361291D01*
X887769Y361493D01*
X887792Y361696D01*
X887819Y361898D01*
X887850Y362099D01*
X887887Y362299D01*
X887929Y362499D01*
X887975Y362697D01*
X888026Y362894D01*
X888082Y363090D01*
X888143Y363284D01*
X888208Y363477D01*
X888278Y363669D01*
X888353Y363858D01*
X888432Y364046D01*
X888516Y364232D01*
X888604Y364415D01*
X888696Y364597D01*
X888793Y364776D01*
X888895Y364953D01*
X889000Y365127D01*
X889110Y365298D01*
X889223Y365467D01*
X889341Y365634D01*
X889463Y365797D01*
X889589Y365957D01*
X889718Y366114D01*
X889852Y366268D01*
X889989Y366419D01*
X890129Y366566D01*
X890273Y366710D01*
X890421Y366850D01*
X890572Y366987D01*
X890726Y367120D01*
X890883Y367250D01*
X891044Y367375D01*
X891207Y367497D01*
X891374Y367614D01*
X891543Y367728D01*
X891715Y367837D01*
X891889Y367942D01*
X892066Y368043D01*
X892245Y368140D01*
X892427Y368232D01*
X892611Y368320D01*
X892796Y368403D01*
X892984Y368482D01*
X893174Y368556D01*
X893365Y368626D01*
X893558Y368691D01*
X893753Y368752D01*
X893949Y368807D01*
X894146Y368858D01*
X894344Y368904D01*
X894544Y368945D01*
X894744Y368982D01*
X894945Y369013D01*
X895147Y369040D01*
X895350Y369062D01*
X916686Y369062D01*
X902970Y335534D02*
X886714Y335534D01*
X902970Y335534D02*
X916940Y335534D01*
X902970Y335534D02*
X887730Y303530D01*
X916432Y303530D02*
X901954Y332740D01*
X887984Y291846D02*
X888238Y268986D01*
X887984Y291846D02*
X887985Y291990D01*
X887989Y292133D01*
X887997Y292277D01*
X888009Y292420D01*
X888025Y292563D01*
X888044Y292705D01*
X888068Y292847D01*
X888095Y292988D01*
X888126Y293129D01*
X888161Y293268D01*
X888200Y293406D01*
X888242Y293544D01*
X888288Y293680D01*
X888338Y293815D01*
X888391Y293948D01*
X888448Y294080D01*
X888509Y294211D01*
X888573Y294340D01*
X888640Y294467D01*
X888711Y294592D01*
X888785Y294715D01*
X888862Y294836D01*
X888943Y294955D01*
X889027Y295072D01*
X889114Y295186D01*
X889204Y295298D01*
X889297Y295408D01*
X889393Y295515D01*
X889491Y295619D01*
X889593Y295721D01*
X889697Y295820D01*
X889804Y295916D01*
X889914Y296009D01*
X890026Y296100D01*
X890140Y296187D01*
X890256Y296271D01*
X890375Y296352D01*
X890496Y296429D01*
X890619Y296504D01*
X890744Y296575D01*
X890871Y296642D01*
X891000Y296706D01*
X891130Y296767D01*
X891262Y296824D01*
X891396Y296878D01*
X891530Y296928D01*
X891666Y296974D01*
X891804Y297017D01*
X891942Y297055D01*
X892082Y297091D01*
X892222Y297122D01*
X892363Y297149D01*
X892505Y297173D01*
X892647Y297193D01*
X892790Y297209D01*
X892933Y297221D01*
X893077Y297230D01*
X893220Y297234D01*
X893364Y297235D01*
X893508Y297231D01*
X893651Y297224D01*
X893795Y297213D01*
X893938Y297198D01*
X894080Y297180D01*
X894248Y297158D01*
X894417Y297140D01*
X894587Y297125D01*
X894756Y297115D01*
X894926Y297109D01*
X895096Y297107D01*
X895266Y297109D01*
X895436Y297115D01*
X895605Y297125D01*
X895775Y297140D01*
X895944Y297158D01*
X896112Y297180D01*
X896252Y297198D01*
X896393Y297213D01*
X896533Y297223D01*
X896675Y297230D01*
X896816Y297233D01*
X896957Y297232D01*
X897098Y297227D01*
X897239Y297218D01*
X897380Y297205D01*
X897520Y297188D01*
X897660Y297168D01*
X897799Y297144D01*
X897938Y297115D01*
X898076Y297083D01*
X898212Y297047D01*
X898348Y297008D01*
X898482Y296964D01*
X898616Y296917D01*
X898747Y296867D01*
X898878Y296812D01*
X899007Y296755D01*
X899134Y296693D01*
X899260Y296628D01*
X899383Y296560D01*
X899505Y296488D01*
X899625Y296413D01*
X899742Y296335D01*
X899858Y296253D01*
X899971Y296168D01*
X900081Y296080D01*
X900190Y295989D01*
X900295Y295896D01*
X900398Y295799D01*
X900499Y295699D01*
X900596Y295597D01*
X900691Y295492D01*
X900782Y295385D01*
X900871Y295275D01*
X900957Y295162D01*
X901039Y295048D01*
X901119Y294931D01*
X901195Y294812D01*
X901267Y294690D01*
X901337Y294567D01*
X901403Y294442D01*
X901465Y294316D01*
X901524Y294187D01*
X901579Y294057D01*
X901631Y293926D01*
X901679Y293793D01*
X901724Y293659D01*
X901764Y293523D01*
X901801Y293387D01*
X901834Y293250D01*
X901864Y293111D01*
X901889Y292972D01*
X901911Y292833D01*
X901929Y292693D01*
X901943Y292552D01*
X901953Y292411D01*
X901959Y292270D01*
X901961Y292129D01*
X901959Y291987D01*
X901954Y291846D01*
X901954Y275590D01*
X901956Y275444D01*
X901962Y275299D01*
X901971Y275154D01*
X901984Y275009D01*
X902002Y274864D01*
X902023Y274720D01*
X902047Y274576D01*
X902076Y274433D01*
X902108Y274291D01*
X902144Y274150D01*
X902183Y274010D01*
X902226Y273871D01*
X902273Y273733D01*
X902324Y273596D01*
X902378Y273461D01*
X902435Y273327D01*
X902496Y273195D01*
X902561Y273065D01*
X902629Y272936D01*
X902700Y272809D01*
X902774Y272684D01*
X902852Y272560D01*
X902933Y272439D01*
X903017Y272320D01*
X903104Y272204D01*
X903195Y272089D01*
X903288Y271978D01*
X903384Y271868D01*
X903483Y271761D01*
X903584Y271657D01*
X903689Y271555D01*
X903796Y271457D01*
X903905Y271361D01*
X904017Y271268D01*
X904132Y271178D01*
X904249Y271090D01*
X904368Y271006D01*
X904489Y270926D01*
X904612Y270848D01*
X904737Y270774D01*
X904864Y270703D01*
X904993Y270635D01*
X905124Y270571D01*
X905256Y270510D01*
X905257Y270510D02*
X905454Y270425D01*
X905654Y270345D01*
X905856Y270269D01*
X906060Y270199D01*
X906265Y270134D01*
X906472Y270073D01*
X906680Y270018D01*
X906890Y269968D01*
X907100Y269922D01*
X907312Y269882D01*
X907525Y269848D01*
X907738Y269818D01*
X907952Y269794D01*
X908167Y269774D01*
X908382Y269760D01*
X908597Y269752D01*
X908812Y269748D01*
X909009Y269750D01*
X909205Y269756D01*
X909401Y269767D01*
X909597Y269782D01*
X909792Y269803D01*
X909987Y269828D01*
X910181Y269858D01*
X910374Y269892D01*
X910567Y269931D01*
X910758Y269974D01*
X910949Y270023D01*
X911138Y270075D01*
X911326Y270133D01*
X911512Y270194D01*
X911697Y270260D01*
X911880Y270331D01*
X912062Y270406D01*
X912242Y270485D01*
X912419Y270569D01*
X912595Y270657D01*
X912768Y270749D01*
X912940Y270845D01*
X913109Y270945D01*
X913275Y271049D01*
X913439Y271158D01*
X913600Y271270D01*
X913759Y271386D01*
X913914Y271505D01*
X914067Y271629D01*
X914217Y271756D01*
X914364Y271887D01*
X914507Y272021D01*
X914647Y272158D01*
X914784Y272299D01*
X914918Y272443D01*
X915048Y272590D01*
X915174Y272740D01*
X915297Y272894D01*
X915416Y273050D01*
X915487Y273149D01*
X915556Y273251D01*
X915621Y273354D01*
X915682Y273459D01*
X915741Y273567D01*
X915796Y273676D01*
X915848Y273786D01*
X915896Y273899D01*
X915941Y274012D01*
X915982Y274127D01*
X916019Y274244D01*
X916053Y274361D01*
X916083Y274479D01*
X916110Y274599D01*
X916132Y274719D01*
X916151Y274839D01*
X916167Y274960D01*
X916178Y275082D01*
X916178Y296672D01*
D16*
X527050Y403225D03*
X508000Y476250D03*
X549275Y400050D03*
X520700Y476250D03*
X558800Y476250D03*
X596900Y379310D03*
X533400Y514350D03*
X544576Y472440D03*
X660400Y361950D03*
X529590Y471678D03*
X514350Y527050D03*
X647700Y501650D03*
X704850Y349250D03*
X503428Y411226D03*
X496556Y476250D03*
X476250Y431800D03*
X444500Y469900D03*
X414710Y389310D03*
M02*
