M48
;GenerationSoftware,Autodesk,EAGLE,9.6.2*%
;CreationDate,2023-02-06T05:32:46Z*%
FMAT,2
ICI,OFF
METRIC,TZ,000.000
T4C0.350
T3C0.381
T2C1.016
T1C3.000
%
G90
M71
T1
X10160Y53687
X101102Y53687
X101102Y13687
X10160Y13687
X27657Y50994
X27670Y16006
X47660Y33507
T2
X35014Y30607
X35014Y33147
T3
X39815Y55880
X43307Y55880
X60325Y55880
X56515Y55880
X48069Y55880
X45720Y50165
X50482Y50165
X54292Y50165
X52832Y55880
X71438Y55880
X76200Y55880
X40323Y50165
X57658Y50165
X61023Y50165
X64516Y50165
X68644Y50165
X72263Y50165
X75883Y50165
X35370Y50165
X36005Y55880
X64135Y55880
X67628Y55880
T4
X51435Y43146
X51435Y22933
X51933Y17272
X61750Y17145
X80010Y29210
X68834Y26162
X86614Y29527
X53911Y42355
X23295Y29210
X40786Y42310
X63754Y9779
X19304Y24511
X26416Y28067
X26416Y31358
X29464Y45085
X37846Y48006
X64770Y9779
X18415Y26670
X13185Y44831
X13185Y49553
X65730Y9725
X19539Y10522
X93091Y49629
X85090Y49629
X66802Y9779
X47806Y11249
X21209Y14224
X22987Y22733
X66675Y17399
X89408Y17907
X84788Y32004
X85524Y36998
X85593Y41691
X84950Y25197
X74930Y22860
X74930Y26162
X85090Y27241
X57429Y42774
X85255Y21146
X78423Y18733
X78359Y22606
X84950Y23127
X58801Y13208
X38862Y18542
X14755Y44577
X14859Y33401
X19069Y33255
X21971Y54206
X40259Y54483
X92075Y51943
X92075Y38418
X20701Y55959
X19177Y43180
X25146Y44196
X25146Y37338
X46736Y18161
X58293Y24892
X17018Y30297
X46736Y5515
X91106Y36148
X60579Y36195
X48006Y19177
X16002Y30226
X15875Y5080
X45901Y11249
X89662Y51308
X89662Y44656
X18542Y11430
X72708Y54610
X90805Y44656
X90805Y51943
X56642Y10414
X57785Y23177
X80924Y32106
X63881Y28194
X70485Y31750
X29337Y32131
X43561Y46355
X81280Y30226
X70104Y30226
X23622Y30226
X40132Y45212
M30