M48
;GenerationSoftware,Autodesk,EAGLE,9.6.2*%
;CreationDate,2023-01-12T14:40:06Z*%
FMAT,2
ICI,OFF
METRIC,TZ,000.000
T4C0.350
T3C0.381
T2C1.016
T1C3.000
%
G90
M71
T1
X16481Y53687
X101102Y53687
X101102Y13687
X16481Y13687
T2
X67945Y25082
X70485Y25082
T3
X61595Y55880
X34608Y55880
X38100Y55880
X65405Y55880
X42863Y55880
X45720Y52705
X50482Y52705
X54292Y52705
X47625Y55880
X72708Y55880
X76518Y55880
X81280Y55880
X40323Y52705
X61277Y52705
X64770Y52705
X68898Y52705
X54610Y55880
X58102Y55880
X51117Y55880
X30797Y55880
X69215Y55880
X57785Y52705
T4
X31750Y24130
X44721Y39586
X44132Y25400
X64068Y26670
X31750Y26670
X43812Y39053
X43180Y26670
X66040Y19050
X31750Y20320
X36271Y49809
X36250Y39837
X34925Y19050
X67310Y21590
X31750Y22542
X46355Y10160
X34884Y39688
X34389Y21590
X84950Y24943
X74930Y22860
X74930Y26670
X85090Y26987
X85128Y20638
X78423Y18733
X78740Y22860
X84950Y23000
X59690Y33020
X31750Y33020
X26987Y36195
X24867Y44767
X45720Y38100
X33020Y38100
X25997Y37148
X33020Y35560
X81280Y35560
X46788Y35560
X33020Y36830
X80328Y36513
X47663Y37186
X33020Y17780
X33973Y41910
X57785Y23177
X31750Y31750
X80924Y32106
X60960Y31750
X41983Y31750
X35951Y51295
X70485Y31750
X31750Y30480
X81280Y30480
X62230Y30480
X42901Y30480
X31750Y29210
X80010Y29210
X63500Y29210
X85090Y29527
X63891Y25400
M30