G04 EAGLE Gerber RS-274X export*
G75*
%MOMM*%
%FSLAX34Y34*%
%LPD*%
%INSilkscreen Bottom*%
%IPPOS*%
%AMOC8*
5,1,8,0,0,1.08239X$1,22.5*%
G01*
%ADD10C,0.076200*%

G36*
X910878Y482846D02*
X910878Y482846D01*
X910906Y482854D01*
X910946Y482855D01*
X912768Y483271D01*
X912794Y483283D01*
X912833Y483292D01*
X914550Y484029D01*
X914553Y484031D01*
X914557Y484032D01*
X915520Y484468D01*
X915546Y484488D01*
X915590Y484509D01*
X916437Y485141D01*
X916459Y485167D01*
X916497Y485197D01*
X917189Y485996D01*
X917205Y486025D01*
X917236Y486063D01*
X917741Y486991D01*
X917750Y487024D01*
X917772Y487067D01*
X918067Y488082D01*
X918069Y488111D01*
X918081Y488215D01*
X918057Y488562D01*
X918061Y488588D01*
X918073Y488611D01*
X918072Y488646D01*
X918082Y488697D01*
X917828Y567941D01*
X917841Y569456D01*
X917835Y569480D01*
X917837Y569512D01*
X917626Y571013D01*
X917618Y571033D01*
X917617Y571052D01*
X917615Y571056D01*
X917614Y571068D01*
X917183Y572521D01*
X917171Y572542D01*
X917163Y572573D01*
X916523Y573947D01*
X916505Y573970D01*
X916488Y574006D01*
X915299Y575682D01*
X915279Y575700D01*
X915258Y575731D01*
X913805Y577184D01*
X913782Y577199D01*
X913756Y577225D01*
X912080Y578414D01*
X912074Y578416D01*
X912069Y578422D01*
X884637Y596456D01*
X884584Y596475D01*
X884535Y596503D01*
X884504Y596505D01*
X884474Y596515D01*
X884418Y596509D01*
X884362Y596512D01*
X884333Y596500D01*
X884302Y596497D01*
X884254Y596466D01*
X884202Y596444D01*
X884182Y596420D01*
X884156Y596404D01*
X884127Y596355D01*
X884090Y596312D01*
X884080Y596278D01*
X884066Y596255D01*
X884063Y596221D01*
X884049Y596173D01*
X883033Y585251D01*
X883040Y585207D01*
X883036Y585162D01*
X883051Y585122D01*
X883057Y585080D01*
X883082Y585042D01*
X883099Y585001D01*
X883135Y584965D01*
X883154Y584936D01*
X883177Y584923D01*
X883202Y584899D01*
X904269Y570939D01*
X905309Y570099D01*
X906162Y569092D01*
X906811Y567944D01*
X907234Y566694D01*
X907415Y565384D01*
X906655Y542835D01*
X906583Y542386D01*
X906412Y541992D01*
X906148Y541652D01*
X905808Y541388D01*
X905414Y541217D01*
X904983Y541148D01*
X904355Y541185D01*
X903738Y541339D01*
X903152Y541609D01*
X875996Y558867D01*
X875949Y558883D01*
X875907Y558908D01*
X875869Y558911D01*
X875832Y558924D01*
X875783Y558918D01*
X875734Y558922D01*
X875699Y558908D01*
X875660Y558903D01*
X875619Y558876D01*
X875574Y558857D01*
X875548Y558829D01*
X875516Y558807D01*
X875491Y558765D01*
X875458Y558728D01*
X875445Y558685D01*
X875429Y558658D01*
X875427Y558628D01*
X875414Y558590D01*
X874144Y547668D01*
X874150Y547616D01*
X874147Y547564D01*
X874160Y547531D01*
X874164Y547496D01*
X874192Y547452D01*
X874212Y547403D01*
X874242Y547375D01*
X874258Y547350D01*
X874285Y547334D01*
X874318Y547303D01*
X903768Y528516D01*
X905095Y527507D01*
X906225Y526307D01*
X906587Y525744D01*
X906826Y525123D01*
X906935Y524466D01*
X906908Y523763D01*
X906909Y523760D01*
X906908Y523757D01*
X906400Y502675D01*
X906400Y502674D01*
X906400Y502673D01*
X906389Y502070D01*
X906234Y501540D01*
X905945Y501070D01*
X905545Y500696D01*
X904510Y500186D01*
X904339Y500101D01*
X903030Y499692D01*
X901696Y499494D01*
X900627Y499630D01*
X899578Y499953D01*
X898586Y500457D01*
X856946Y526863D01*
X856899Y526879D01*
X856857Y526904D01*
X856819Y526907D01*
X856782Y526920D01*
X856733Y526914D01*
X856684Y526918D01*
X856649Y526903D01*
X856610Y526899D01*
X856569Y526872D01*
X856524Y526853D01*
X856498Y526824D01*
X856466Y526803D01*
X856441Y526761D01*
X856408Y526724D01*
X856394Y526681D01*
X856378Y526653D01*
X856376Y526624D01*
X856364Y526586D01*
X855094Y515664D01*
X855100Y515611D01*
X855097Y515558D01*
X855110Y515526D01*
X855114Y515492D01*
X855143Y515447D01*
X855163Y515398D01*
X855192Y515371D01*
X855208Y515346D01*
X855235Y515330D01*
X855268Y515299D01*
X901715Y485857D01*
X901939Y485633D01*
X901989Y485602D01*
X902034Y485564D01*
X902062Y485557D01*
X902086Y485542D01*
X902145Y485536D01*
X902180Y485527D01*
X903511Y484577D01*
X903530Y484569D01*
X903550Y484552D01*
X905189Y483656D01*
X905217Y483648D01*
X905252Y483628D01*
X907025Y483042D01*
X907055Y483039D01*
X907092Y483026D01*
X908943Y482769D01*
X908972Y482772D01*
X909012Y482766D01*
X910878Y482846D01*
G37*
G36*
X845328Y521853D02*
X845328Y521853D01*
X845387Y521851D01*
X845413Y521863D01*
X845441Y521866D01*
X845491Y521899D01*
X845545Y521923D01*
X845562Y521945D01*
X845586Y521961D01*
X845616Y522012D01*
X845654Y522058D01*
X845662Y522089D01*
X845675Y522110D01*
X845677Y522145D01*
X845691Y522198D01*
X846453Y533120D01*
X846447Y533160D01*
X846450Y533201D01*
X846433Y533244D01*
X846426Y533291D01*
X846402Y533324D01*
X846387Y533362D01*
X846346Y533402D01*
X846325Y533432D01*
X846305Y533442D01*
X846283Y533463D01*
X812003Y556063D01*
X808964Y558342D01*
X808887Y558376D01*
X808808Y558411D01*
X808807Y558411D01*
X808806Y558412D01*
X808721Y558408D01*
X808635Y558405D01*
X808634Y558404D01*
X808632Y558404D01*
X808557Y558362D01*
X808483Y558322D01*
X808482Y558321D01*
X808481Y558320D01*
X808431Y558248D01*
X808383Y558180D01*
X808383Y558179D01*
X808382Y558177D01*
X808380Y558165D01*
X808356Y558038D01*
X808356Y552196D01*
X808359Y552181D01*
X808357Y552163D01*
X808541Y550084D01*
X808550Y550057D01*
X808553Y550018D01*
X808590Y549882D01*
X808590Y549881D01*
X808693Y549501D01*
X808796Y549121D01*
X808899Y548741D01*
X809002Y548361D01*
X809002Y548360D01*
X809099Y548004D01*
X809109Y547984D01*
X809110Y547980D01*
X809114Y547972D01*
X809122Y547941D01*
X810013Y546054D01*
X810031Y546031D01*
X810047Y545996D01*
X811256Y544295D01*
X811277Y544276D01*
X811299Y544244D01*
X812787Y542781D01*
X812815Y542764D01*
X812848Y542733D01*
X845106Y521905D01*
X845162Y521885D01*
X845214Y521857D01*
X845242Y521856D01*
X845269Y521846D01*
X845328Y521853D01*
G37*
G36*
X864369Y552840D02*
X864369Y552840D01*
X864422Y552836D01*
X864454Y552850D01*
X864488Y552853D01*
X864533Y552882D01*
X864582Y552902D01*
X864605Y552928D01*
X864634Y552946D01*
X864662Y552992D01*
X864697Y553032D01*
X864709Y553070D01*
X864724Y553095D01*
X864726Y553127D01*
X864740Y553170D01*
X866010Y564600D01*
X866004Y564650D01*
X866008Y564700D01*
X865994Y564735D01*
X865989Y564772D01*
X865962Y564814D01*
X865943Y564861D01*
X865911Y564891D01*
X865895Y564917D01*
X865869Y564932D01*
X865838Y564961D01*
X845772Y577915D01*
X845701Y577941D01*
X845631Y577971D01*
X845620Y577970D01*
X845609Y577974D01*
X845534Y577965D01*
X845458Y577961D01*
X845448Y577955D01*
X845437Y577954D01*
X845373Y577912D01*
X845307Y577875D01*
X845301Y577865D01*
X845292Y577859D01*
X845253Y577794D01*
X845210Y577731D01*
X845208Y577719D01*
X845203Y577710D01*
X845201Y577673D01*
X845186Y577588D01*
X845440Y565396D01*
X845446Y565373D01*
X845444Y565349D01*
X845467Y565290D01*
X845483Y565228D01*
X845499Y565210D01*
X845507Y565188D01*
X845573Y565124D01*
X845596Y565097D01*
X845604Y565094D01*
X845611Y565086D01*
X864153Y552894D01*
X864203Y552876D01*
X864249Y552849D01*
X864283Y552847D01*
X864316Y552835D01*
X864369Y552840D01*
G37*
D10*
X372413Y551054D02*
X372318Y551052D01*
X372224Y551046D01*
X372130Y551037D01*
X372036Y551024D01*
X371943Y551007D01*
X371851Y550986D01*
X371759Y550961D01*
X371669Y550933D01*
X371580Y550901D01*
X371492Y550866D01*
X371406Y550827D01*
X371321Y550785D01*
X371238Y550739D01*
X371157Y550690D01*
X371078Y550638D01*
X371001Y550583D01*
X370927Y550524D01*
X370855Y550463D01*
X370785Y550399D01*
X370718Y550332D01*
X370654Y550262D01*
X370593Y550190D01*
X370534Y550116D01*
X370479Y550039D01*
X370427Y549960D01*
X370378Y549879D01*
X370332Y549796D01*
X370290Y549711D01*
X370251Y549625D01*
X370216Y549537D01*
X370184Y549448D01*
X370156Y549358D01*
X370131Y549266D01*
X370110Y549174D01*
X370093Y549081D01*
X370080Y548987D01*
X370071Y548893D01*
X370065Y548799D01*
X370063Y548704D01*
X372413Y551053D02*
X372521Y551051D01*
X372630Y551045D01*
X372738Y551035D01*
X372845Y551022D01*
X372952Y551004D01*
X373059Y550983D01*
X373164Y550958D01*
X373269Y550929D01*
X373372Y550897D01*
X373474Y550860D01*
X373575Y550820D01*
X373674Y550777D01*
X373772Y550730D01*
X373868Y550679D01*
X373962Y550625D01*
X374054Y550568D01*
X374144Y550507D01*
X374232Y550443D01*
X374317Y550377D01*
X374400Y550307D01*
X374480Y550234D01*
X374558Y550158D01*
X374633Y550080D01*
X374705Y549999D01*
X374774Y549915D01*
X374840Y549829D01*
X374903Y549741D01*
X374962Y549650D01*
X375019Y549558D01*
X375072Y549463D01*
X375121Y549366D01*
X375167Y549268D01*
X375210Y549169D01*
X375249Y549067D01*
X375284Y548965D01*
X370847Y546876D02*
X370778Y546945D01*
X370712Y547016D01*
X370648Y547089D01*
X370587Y547165D01*
X370529Y547244D01*
X370475Y547324D01*
X370423Y547407D01*
X370375Y547491D01*
X370329Y547577D01*
X370288Y547665D01*
X370249Y547755D01*
X370214Y547846D01*
X370183Y547938D01*
X370155Y548031D01*
X370131Y548125D01*
X370111Y548220D01*
X370094Y548316D01*
X370081Y548413D01*
X370072Y548510D01*
X370066Y548607D01*
X370064Y548704D01*
X370847Y546876D02*
X375285Y541655D01*
X370064Y541655D01*
X366141Y543743D02*
X364053Y551053D01*
X366141Y543743D02*
X360920Y543743D01*
X362486Y545832D02*
X362486Y541655D01*
X354387Y541655D02*
X357519Y551053D01*
X351254Y551053D02*
X354387Y541655D01*
X322862Y545860D02*
X321296Y545860D01*
X321296Y540639D01*
X324429Y540639D01*
X324518Y540641D01*
X324606Y540647D01*
X324694Y540656D01*
X324782Y540669D01*
X324869Y540686D01*
X324955Y540706D01*
X325040Y540731D01*
X325125Y540758D01*
X325208Y540790D01*
X325289Y540824D01*
X325369Y540863D01*
X325447Y540904D01*
X325524Y540949D01*
X325598Y540997D01*
X325671Y541048D01*
X325741Y541102D01*
X325808Y541160D01*
X325874Y541220D01*
X325936Y541282D01*
X325996Y541348D01*
X326054Y541415D01*
X326108Y541485D01*
X326159Y541558D01*
X326207Y541632D01*
X326252Y541709D01*
X326293Y541787D01*
X326332Y541867D01*
X326366Y541948D01*
X326398Y542031D01*
X326425Y542116D01*
X326450Y542201D01*
X326470Y542287D01*
X326487Y542374D01*
X326500Y542462D01*
X326509Y542550D01*
X326515Y542638D01*
X326517Y542727D01*
X326517Y547949D01*
X326515Y548038D01*
X326509Y548126D01*
X326500Y548214D01*
X326487Y548302D01*
X326470Y548389D01*
X326450Y548475D01*
X326425Y548560D01*
X326398Y548645D01*
X326366Y548728D01*
X326332Y548809D01*
X326293Y548889D01*
X326252Y548967D01*
X326207Y549044D01*
X326159Y549118D01*
X326108Y549191D01*
X326054Y549261D01*
X325996Y549328D01*
X325936Y549394D01*
X325874Y549456D01*
X325808Y549516D01*
X325741Y549574D01*
X325671Y549628D01*
X325598Y549679D01*
X325524Y549727D01*
X325447Y549772D01*
X325369Y549813D01*
X325289Y549852D01*
X325208Y549886D01*
X325125Y549918D01*
X325040Y549945D01*
X324955Y549970D01*
X324869Y549990D01*
X324782Y550007D01*
X324694Y550020D01*
X324606Y550029D01*
X324518Y550035D01*
X324429Y550037D01*
X321296Y550037D01*
X316763Y550037D02*
X316763Y540639D01*
X311542Y540639D02*
X316763Y550037D01*
X311542Y550037D02*
X311542Y540639D01*
X307010Y540639D02*
X307010Y550037D01*
X304399Y550037D01*
X304299Y550035D01*
X304199Y550029D01*
X304100Y550020D01*
X304000Y550006D01*
X303902Y549989D01*
X303804Y549968D01*
X303707Y549944D01*
X303611Y549915D01*
X303516Y549883D01*
X303423Y549848D01*
X303331Y549809D01*
X303240Y549766D01*
X303152Y549720D01*
X303065Y549670D01*
X302980Y549618D01*
X302897Y549562D01*
X302816Y549503D01*
X302738Y549440D01*
X302662Y549375D01*
X302588Y549307D01*
X302518Y549237D01*
X302450Y549163D01*
X302385Y549087D01*
X302322Y549009D01*
X302263Y548928D01*
X302207Y548845D01*
X302155Y548760D01*
X302105Y548673D01*
X302059Y548585D01*
X302016Y548494D01*
X301977Y548402D01*
X301942Y548309D01*
X301910Y548214D01*
X301881Y548118D01*
X301857Y548021D01*
X301836Y547923D01*
X301819Y547825D01*
X301805Y547725D01*
X301796Y547626D01*
X301790Y547526D01*
X301788Y547426D01*
X301789Y547426D02*
X301789Y543250D01*
X301788Y543250D02*
X301790Y543150D01*
X301796Y543050D01*
X301805Y542951D01*
X301819Y542851D01*
X301836Y542753D01*
X301857Y542655D01*
X301881Y542558D01*
X301910Y542462D01*
X301942Y542367D01*
X301977Y542274D01*
X302016Y542182D01*
X302059Y542091D01*
X302105Y542003D01*
X302155Y541916D01*
X302207Y541831D01*
X302263Y541748D01*
X302322Y541667D01*
X302385Y541589D01*
X302450Y541513D01*
X302518Y541439D01*
X302588Y541369D01*
X302662Y541301D01*
X302738Y541236D01*
X302816Y541173D01*
X302897Y541114D01*
X302980Y541058D01*
X303065Y541006D01*
X303152Y540956D01*
X303240Y540910D01*
X303331Y540867D01*
X303423Y540828D01*
X303516Y540793D01*
X303611Y540761D01*
X303707Y540732D01*
X303804Y540708D01*
X303902Y540687D01*
X304000Y540670D01*
X304100Y540656D01*
X304199Y540647D01*
X304299Y540641D01*
X304399Y540639D01*
X307010Y540639D01*
X603010Y307721D02*
X605099Y307721D01*
X605188Y307723D01*
X605276Y307729D01*
X605364Y307738D01*
X605452Y307751D01*
X605539Y307768D01*
X605625Y307788D01*
X605710Y307813D01*
X605795Y307840D01*
X605878Y307872D01*
X605959Y307906D01*
X606039Y307945D01*
X606117Y307986D01*
X606194Y308031D01*
X606268Y308079D01*
X606341Y308130D01*
X606411Y308184D01*
X606478Y308242D01*
X606544Y308302D01*
X606606Y308364D01*
X606666Y308430D01*
X606724Y308497D01*
X606778Y308567D01*
X606829Y308640D01*
X606877Y308714D01*
X606922Y308791D01*
X606963Y308869D01*
X607002Y308949D01*
X607036Y309030D01*
X607068Y309113D01*
X607095Y309198D01*
X607120Y309283D01*
X607140Y309369D01*
X607157Y309456D01*
X607170Y309544D01*
X607179Y309632D01*
X607185Y309720D01*
X607187Y309809D01*
X607187Y315031D01*
X607185Y315120D01*
X607179Y315208D01*
X607170Y315296D01*
X607157Y315384D01*
X607140Y315471D01*
X607120Y315557D01*
X607095Y315642D01*
X607068Y315727D01*
X607036Y315810D01*
X607002Y315891D01*
X606963Y315971D01*
X606922Y316049D01*
X606877Y316126D01*
X606829Y316200D01*
X606778Y316273D01*
X606724Y316343D01*
X606666Y316410D01*
X606606Y316476D01*
X606544Y316538D01*
X606478Y316598D01*
X606411Y316656D01*
X606341Y316710D01*
X606268Y316761D01*
X606194Y316809D01*
X606117Y316854D01*
X606039Y316895D01*
X605959Y316934D01*
X605878Y316968D01*
X605795Y317000D01*
X605710Y317027D01*
X605625Y317052D01*
X605539Y317072D01*
X605452Y317089D01*
X605364Y317102D01*
X605276Y317111D01*
X605188Y317117D01*
X605099Y317119D01*
X603010Y317119D01*
X599219Y317119D02*
X599219Y307721D01*
X599219Y317119D02*
X595042Y317119D01*
X595042Y312942D02*
X599219Y312942D01*
X591529Y311376D02*
X585264Y311376D01*
X558617Y307721D02*
X556528Y307721D01*
X558617Y307721D02*
X558706Y307723D01*
X558794Y307729D01*
X558882Y307738D01*
X558970Y307751D01*
X559057Y307768D01*
X559143Y307788D01*
X559228Y307813D01*
X559313Y307840D01*
X559396Y307872D01*
X559477Y307906D01*
X559557Y307945D01*
X559635Y307986D01*
X559712Y308031D01*
X559786Y308079D01*
X559859Y308130D01*
X559929Y308184D01*
X559996Y308242D01*
X560062Y308302D01*
X560124Y308364D01*
X560184Y308430D01*
X560242Y308497D01*
X560296Y308567D01*
X560347Y308640D01*
X560395Y308714D01*
X560440Y308791D01*
X560481Y308869D01*
X560520Y308949D01*
X560554Y309030D01*
X560586Y309113D01*
X560613Y309198D01*
X560638Y309283D01*
X560658Y309369D01*
X560675Y309456D01*
X560688Y309544D01*
X560697Y309632D01*
X560703Y309720D01*
X560705Y309809D01*
X560705Y315031D01*
X560703Y315120D01*
X560697Y315208D01*
X560688Y315296D01*
X560675Y315384D01*
X560658Y315471D01*
X560638Y315557D01*
X560613Y315642D01*
X560586Y315727D01*
X560554Y315810D01*
X560520Y315891D01*
X560481Y315971D01*
X560440Y316049D01*
X560395Y316126D01*
X560347Y316200D01*
X560296Y316273D01*
X560242Y316343D01*
X560184Y316410D01*
X560124Y316476D01*
X560062Y316538D01*
X559996Y316598D01*
X559929Y316656D01*
X559859Y316710D01*
X559786Y316761D01*
X559712Y316809D01*
X559635Y316854D01*
X559557Y316895D01*
X559477Y316934D01*
X559396Y316968D01*
X559313Y317000D01*
X559228Y317027D01*
X559143Y317052D01*
X559057Y317072D01*
X558970Y317089D01*
X558882Y317102D01*
X558794Y317111D01*
X558706Y317117D01*
X558617Y317119D01*
X556528Y317119D01*
X552737Y317119D02*
X552737Y307721D01*
X552737Y317119D02*
X548560Y317119D01*
X548560Y312942D02*
X552737Y312942D01*
X545047Y311376D02*
X538782Y311376D01*
X541914Y314508D02*
X541914Y308243D01*
X537083Y268859D02*
X537083Y259461D01*
X537083Y268859D02*
X534472Y268859D01*
X534371Y268857D01*
X534270Y268851D01*
X534169Y268841D01*
X534069Y268828D01*
X533969Y268810D01*
X533870Y268789D01*
X533772Y268763D01*
X533675Y268734D01*
X533579Y268702D01*
X533485Y268665D01*
X533392Y268625D01*
X533300Y268581D01*
X533211Y268534D01*
X533123Y268483D01*
X533037Y268429D01*
X532954Y268372D01*
X532872Y268312D01*
X532794Y268248D01*
X532717Y268182D01*
X532644Y268112D01*
X532573Y268040D01*
X532505Y267965D01*
X532440Y267887D01*
X532378Y267807D01*
X532319Y267725D01*
X532263Y267640D01*
X532211Y267554D01*
X532162Y267465D01*
X532116Y267374D01*
X532075Y267282D01*
X532036Y267188D01*
X532002Y267093D01*
X531971Y266997D01*
X531944Y266899D01*
X531920Y266801D01*
X531901Y266701D01*
X531885Y266601D01*
X531873Y266501D01*
X531865Y266400D01*
X531861Y266299D01*
X531861Y266197D01*
X531865Y266096D01*
X531873Y265995D01*
X531885Y265895D01*
X531901Y265795D01*
X531920Y265695D01*
X531944Y265597D01*
X531971Y265499D01*
X532002Y265403D01*
X532036Y265308D01*
X532075Y265214D01*
X532116Y265122D01*
X532162Y265031D01*
X532211Y264943D01*
X532263Y264856D01*
X532319Y264771D01*
X532378Y264689D01*
X532440Y264609D01*
X532505Y264531D01*
X532573Y264456D01*
X532644Y264384D01*
X532717Y264314D01*
X532794Y264248D01*
X532872Y264184D01*
X532954Y264124D01*
X533037Y264067D01*
X533123Y264013D01*
X533211Y263962D01*
X533300Y263915D01*
X533392Y263871D01*
X533485Y263831D01*
X533579Y263794D01*
X533675Y263762D01*
X533772Y263733D01*
X533870Y263707D01*
X533969Y263686D01*
X534069Y263668D01*
X534169Y263655D01*
X534270Y263645D01*
X534371Y263639D01*
X534472Y263637D01*
X534472Y263638D02*
X537083Y263638D01*
X526374Y259461D02*
X526374Y268859D01*
X523764Y268859D02*
X528985Y268859D01*
X519668Y267554D02*
X519747Y267387D01*
X519822Y267218D01*
X519893Y267047D01*
X519960Y266875D01*
X520022Y266701D01*
X520081Y266525D01*
X520135Y266349D01*
X520185Y266171D01*
X520231Y265991D01*
X520273Y265811D01*
X520310Y265630D01*
X520343Y265448D01*
X520372Y265266D01*
X520396Y265082D01*
X520416Y264898D01*
X520431Y264714D01*
X520442Y264530D01*
X520449Y264345D01*
X520451Y264160D01*
X519668Y267554D02*
X519638Y267634D01*
X519605Y267713D01*
X519568Y267790D01*
X519528Y267866D01*
X519485Y267940D01*
X519439Y268012D01*
X519389Y268081D01*
X519337Y268149D01*
X519281Y268214D01*
X519223Y268277D01*
X519161Y268336D01*
X519098Y268394D01*
X519031Y268448D01*
X518963Y268499D01*
X518892Y268547D01*
X518819Y268592D01*
X518745Y268634D01*
X518668Y268672D01*
X518590Y268707D01*
X518511Y268739D01*
X518430Y268767D01*
X518348Y268791D01*
X518264Y268812D01*
X518181Y268829D01*
X518096Y268842D01*
X518011Y268851D01*
X517926Y268857D01*
X517840Y268859D01*
X517754Y268857D01*
X517669Y268851D01*
X517584Y268842D01*
X517499Y268829D01*
X517416Y268812D01*
X517332Y268791D01*
X517250Y268767D01*
X517170Y268739D01*
X517090Y268707D01*
X517012Y268672D01*
X516935Y268634D01*
X516861Y268592D01*
X516788Y268547D01*
X516717Y268499D01*
X516649Y268448D01*
X516582Y268394D01*
X516519Y268336D01*
X516458Y268277D01*
X516399Y268214D01*
X516344Y268149D01*
X516291Y268081D01*
X516241Y268012D01*
X516195Y267940D01*
X516152Y267866D01*
X516112Y267790D01*
X516075Y267713D01*
X516042Y267634D01*
X516012Y267554D01*
X515933Y267387D01*
X515858Y267218D01*
X515787Y267047D01*
X515720Y266875D01*
X515658Y266701D01*
X515599Y266525D01*
X515545Y266349D01*
X515495Y266171D01*
X515449Y265991D01*
X515407Y265811D01*
X515370Y265630D01*
X515337Y265448D01*
X515308Y265266D01*
X515284Y265082D01*
X515264Y264898D01*
X515249Y264714D01*
X515238Y264530D01*
X515231Y264345D01*
X515229Y264160D01*
X520450Y264160D02*
X520448Y263975D01*
X520441Y263790D01*
X520430Y263606D01*
X520415Y263422D01*
X520395Y263238D01*
X520371Y263054D01*
X520342Y262872D01*
X520309Y262690D01*
X520272Y262509D01*
X520230Y262329D01*
X520184Y262149D01*
X520134Y261971D01*
X520080Y261795D01*
X520021Y261619D01*
X519959Y261445D01*
X519892Y261273D01*
X519821Y261102D01*
X519746Y260933D01*
X519667Y260766D01*
X519668Y260766D02*
X519638Y260686D01*
X519605Y260607D01*
X519568Y260530D01*
X519528Y260454D01*
X519485Y260380D01*
X519439Y260308D01*
X519389Y260239D01*
X519336Y260171D01*
X519281Y260106D01*
X519222Y260043D01*
X519161Y259984D01*
X519098Y259926D01*
X519031Y259872D01*
X518963Y259821D01*
X518892Y259773D01*
X518819Y259728D01*
X518745Y259686D01*
X518668Y259648D01*
X518590Y259613D01*
X518511Y259581D01*
X518430Y259553D01*
X518348Y259529D01*
X518264Y259508D01*
X518181Y259491D01*
X518096Y259478D01*
X518011Y259469D01*
X517926Y259463D01*
X517840Y259461D01*
X516012Y260766D02*
X515933Y260933D01*
X515858Y261102D01*
X515787Y261273D01*
X515720Y261445D01*
X515658Y261619D01*
X515599Y261795D01*
X515545Y261971D01*
X515495Y262149D01*
X515449Y262329D01*
X515407Y262509D01*
X515370Y262690D01*
X515337Y262872D01*
X515308Y263054D01*
X515284Y263238D01*
X515264Y263422D01*
X515249Y263606D01*
X515238Y263790D01*
X515231Y263975D01*
X515229Y264160D01*
X516012Y260766D02*
X516042Y260686D01*
X516075Y260607D01*
X516112Y260530D01*
X516152Y260454D01*
X516195Y260380D01*
X516241Y260308D01*
X516291Y260239D01*
X516344Y260171D01*
X516399Y260106D01*
X516458Y260043D01*
X516519Y259984D01*
X516582Y259926D01*
X516649Y259872D01*
X516717Y259821D01*
X516788Y259773D01*
X516861Y259728D01*
X516935Y259686D01*
X517012Y259648D01*
X517090Y259613D01*
X517170Y259581D01*
X517250Y259553D01*
X517332Y259529D01*
X517416Y259508D01*
X517499Y259491D01*
X517584Y259478D01*
X517669Y259469D01*
X517754Y259463D01*
X517840Y259461D01*
X519928Y261549D02*
X515751Y266771D01*
X512699Y307721D02*
X512699Y317119D01*
X512699Y312942D02*
X507478Y312942D01*
X507478Y317119D02*
X507478Y307721D01*
X503251Y312420D02*
X503249Y312605D01*
X503242Y312790D01*
X503231Y312974D01*
X503216Y313158D01*
X503196Y313342D01*
X503172Y313526D01*
X503143Y313708D01*
X503110Y313890D01*
X503073Y314071D01*
X503031Y314251D01*
X502985Y314431D01*
X502935Y314609D01*
X502881Y314785D01*
X502822Y314961D01*
X502760Y315135D01*
X502693Y315307D01*
X502622Y315478D01*
X502547Y315647D01*
X502468Y315814D01*
X502438Y315894D01*
X502405Y315973D01*
X502368Y316050D01*
X502328Y316126D01*
X502285Y316200D01*
X502239Y316272D01*
X502189Y316341D01*
X502137Y316409D01*
X502081Y316474D01*
X502023Y316537D01*
X501961Y316596D01*
X501898Y316654D01*
X501831Y316708D01*
X501763Y316759D01*
X501692Y316807D01*
X501619Y316852D01*
X501545Y316894D01*
X501468Y316932D01*
X501390Y316967D01*
X501311Y316999D01*
X501230Y317027D01*
X501148Y317051D01*
X501064Y317072D01*
X500981Y317089D01*
X500896Y317102D01*
X500811Y317111D01*
X500726Y317117D01*
X500640Y317119D01*
X500554Y317117D01*
X500469Y317111D01*
X500384Y317102D01*
X500299Y317089D01*
X500216Y317072D01*
X500132Y317051D01*
X500050Y317027D01*
X499970Y316999D01*
X499890Y316967D01*
X499812Y316932D01*
X499735Y316894D01*
X499661Y316852D01*
X499588Y316807D01*
X499517Y316759D01*
X499449Y316708D01*
X499382Y316654D01*
X499319Y316596D01*
X499258Y316537D01*
X499199Y316474D01*
X499144Y316409D01*
X499091Y316341D01*
X499041Y316272D01*
X498995Y316200D01*
X498952Y316126D01*
X498912Y316050D01*
X498875Y315973D01*
X498842Y315894D01*
X498812Y315814D01*
X498733Y315647D01*
X498658Y315478D01*
X498587Y315307D01*
X498520Y315135D01*
X498458Y314961D01*
X498399Y314785D01*
X498345Y314609D01*
X498295Y314431D01*
X498249Y314251D01*
X498207Y314071D01*
X498170Y313890D01*
X498137Y313708D01*
X498108Y313526D01*
X498084Y313342D01*
X498064Y313158D01*
X498049Y312974D01*
X498038Y312790D01*
X498031Y312605D01*
X498029Y312420D01*
X503250Y312420D02*
X503248Y312235D01*
X503241Y312050D01*
X503230Y311866D01*
X503215Y311682D01*
X503195Y311498D01*
X503171Y311314D01*
X503142Y311132D01*
X503109Y310950D01*
X503072Y310769D01*
X503030Y310589D01*
X502984Y310409D01*
X502934Y310231D01*
X502880Y310055D01*
X502821Y309879D01*
X502759Y309705D01*
X502692Y309533D01*
X502621Y309362D01*
X502546Y309193D01*
X502467Y309026D01*
X502468Y309026D02*
X502438Y308946D01*
X502405Y308867D01*
X502368Y308790D01*
X502328Y308714D01*
X502285Y308640D01*
X502239Y308568D01*
X502189Y308499D01*
X502136Y308431D01*
X502081Y308366D01*
X502022Y308303D01*
X501961Y308244D01*
X501898Y308186D01*
X501831Y308132D01*
X501763Y308081D01*
X501692Y308033D01*
X501619Y307988D01*
X501545Y307946D01*
X501468Y307908D01*
X501390Y307873D01*
X501311Y307841D01*
X501230Y307813D01*
X501148Y307789D01*
X501064Y307768D01*
X500981Y307751D01*
X500896Y307738D01*
X500811Y307729D01*
X500726Y307723D01*
X500640Y307721D01*
X498812Y309026D02*
X498733Y309193D01*
X498658Y309362D01*
X498587Y309533D01*
X498520Y309705D01*
X498458Y309879D01*
X498399Y310055D01*
X498345Y310231D01*
X498295Y310409D01*
X498249Y310589D01*
X498207Y310769D01*
X498170Y310950D01*
X498137Y311132D01*
X498108Y311314D01*
X498084Y311498D01*
X498064Y311682D01*
X498049Y311866D01*
X498038Y312050D01*
X498031Y312235D01*
X498029Y312420D01*
X498812Y309026D02*
X498842Y308946D01*
X498875Y308867D01*
X498912Y308790D01*
X498952Y308714D01*
X498995Y308640D01*
X499041Y308568D01*
X499091Y308499D01*
X499144Y308431D01*
X499199Y308366D01*
X499258Y308303D01*
X499319Y308244D01*
X499382Y308186D01*
X499449Y308132D01*
X499517Y308081D01*
X499588Y308033D01*
X499661Y307988D01*
X499735Y307946D01*
X499812Y307908D01*
X499890Y307873D01*
X499970Y307841D01*
X500050Y307813D01*
X500132Y307789D01*
X500216Y307768D01*
X500299Y307751D01*
X500384Y307738D01*
X500469Y307729D01*
X500554Y307723D01*
X500640Y307721D01*
X502728Y309809D02*
X498551Y315031D01*
X494019Y311376D02*
X487753Y311376D01*
X472059Y307721D02*
X472059Y317119D01*
X472059Y312942D02*
X466838Y312942D01*
X466838Y317119D02*
X466838Y307721D01*
X462611Y312420D02*
X462609Y312605D01*
X462602Y312790D01*
X462591Y312974D01*
X462576Y313158D01*
X462556Y313342D01*
X462532Y313526D01*
X462503Y313708D01*
X462470Y313890D01*
X462433Y314071D01*
X462391Y314251D01*
X462345Y314431D01*
X462295Y314609D01*
X462241Y314785D01*
X462182Y314961D01*
X462120Y315135D01*
X462053Y315307D01*
X461982Y315478D01*
X461907Y315647D01*
X461828Y315814D01*
X461798Y315894D01*
X461765Y315973D01*
X461728Y316050D01*
X461688Y316126D01*
X461645Y316200D01*
X461599Y316272D01*
X461549Y316341D01*
X461497Y316409D01*
X461441Y316474D01*
X461383Y316537D01*
X461321Y316596D01*
X461258Y316654D01*
X461191Y316708D01*
X461123Y316759D01*
X461052Y316807D01*
X460979Y316852D01*
X460905Y316894D01*
X460828Y316932D01*
X460750Y316967D01*
X460671Y316999D01*
X460590Y317027D01*
X460508Y317051D01*
X460424Y317072D01*
X460341Y317089D01*
X460256Y317102D01*
X460171Y317111D01*
X460086Y317117D01*
X460000Y317119D01*
X459914Y317117D01*
X459829Y317111D01*
X459744Y317102D01*
X459659Y317089D01*
X459576Y317072D01*
X459492Y317051D01*
X459410Y317027D01*
X459330Y316999D01*
X459250Y316967D01*
X459172Y316932D01*
X459095Y316894D01*
X459021Y316852D01*
X458948Y316807D01*
X458877Y316759D01*
X458809Y316708D01*
X458742Y316654D01*
X458679Y316596D01*
X458618Y316537D01*
X458559Y316474D01*
X458504Y316409D01*
X458451Y316341D01*
X458401Y316272D01*
X458355Y316200D01*
X458312Y316126D01*
X458272Y316050D01*
X458235Y315973D01*
X458202Y315894D01*
X458172Y315814D01*
X458093Y315647D01*
X458018Y315478D01*
X457947Y315307D01*
X457880Y315135D01*
X457818Y314961D01*
X457759Y314785D01*
X457705Y314609D01*
X457655Y314431D01*
X457609Y314251D01*
X457567Y314071D01*
X457530Y313890D01*
X457497Y313708D01*
X457468Y313526D01*
X457444Y313342D01*
X457424Y313158D01*
X457409Y312974D01*
X457398Y312790D01*
X457391Y312605D01*
X457389Y312420D01*
X462610Y312420D02*
X462608Y312235D01*
X462601Y312050D01*
X462590Y311866D01*
X462575Y311682D01*
X462555Y311498D01*
X462531Y311314D01*
X462502Y311132D01*
X462469Y310950D01*
X462432Y310769D01*
X462390Y310589D01*
X462344Y310409D01*
X462294Y310231D01*
X462240Y310055D01*
X462181Y309879D01*
X462119Y309705D01*
X462052Y309533D01*
X461981Y309362D01*
X461906Y309193D01*
X461827Y309026D01*
X461828Y309026D02*
X461798Y308946D01*
X461765Y308867D01*
X461728Y308790D01*
X461688Y308714D01*
X461645Y308640D01*
X461599Y308568D01*
X461549Y308499D01*
X461496Y308431D01*
X461441Y308366D01*
X461382Y308303D01*
X461321Y308244D01*
X461258Y308186D01*
X461191Y308132D01*
X461123Y308081D01*
X461052Y308033D01*
X460979Y307988D01*
X460905Y307946D01*
X460828Y307908D01*
X460750Y307873D01*
X460671Y307841D01*
X460590Y307813D01*
X460508Y307789D01*
X460424Y307768D01*
X460341Y307751D01*
X460256Y307738D01*
X460171Y307729D01*
X460086Y307723D01*
X460000Y307721D01*
X458172Y309026D02*
X458093Y309193D01*
X458018Y309362D01*
X457947Y309533D01*
X457880Y309705D01*
X457818Y309879D01*
X457759Y310055D01*
X457705Y310231D01*
X457655Y310409D01*
X457609Y310589D01*
X457567Y310769D01*
X457530Y310950D01*
X457497Y311132D01*
X457468Y311314D01*
X457444Y311498D01*
X457424Y311682D01*
X457409Y311866D01*
X457398Y312050D01*
X457391Y312235D01*
X457389Y312420D01*
X458172Y309026D02*
X458202Y308946D01*
X458235Y308867D01*
X458272Y308790D01*
X458312Y308714D01*
X458355Y308640D01*
X458401Y308568D01*
X458451Y308499D01*
X458504Y308431D01*
X458559Y308366D01*
X458618Y308303D01*
X458679Y308244D01*
X458742Y308186D01*
X458809Y308132D01*
X458877Y308081D01*
X458948Y308033D01*
X459021Y307988D01*
X459095Y307946D01*
X459172Y307908D01*
X459250Y307873D01*
X459330Y307841D01*
X459410Y307813D01*
X459492Y307789D01*
X459576Y307768D01*
X459659Y307751D01*
X459744Y307738D01*
X459829Y307729D01*
X459914Y307723D01*
X460000Y307721D01*
X462088Y309809D02*
X457911Y315031D01*
X453379Y311376D02*
X447113Y311376D01*
X450246Y308243D02*
X450246Y314508D01*
X380788Y222631D02*
X383921Y213233D01*
X377656Y213233D02*
X380788Y222631D01*
X378439Y215583D02*
X383138Y215583D01*
X374255Y217932D02*
X374253Y218117D01*
X374246Y218302D01*
X374235Y218486D01*
X374220Y218670D01*
X374200Y218854D01*
X374176Y219038D01*
X374147Y219220D01*
X374114Y219402D01*
X374077Y219583D01*
X374035Y219763D01*
X373989Y219943D01*
X373939Y220121D01*
X373885Y220297D01*
X373826Y220473D01*
X373764Y220647D01*
X373697Y220819D01*
X373626Y220990D01*
X373551Y221159D01*
X373472Y221326D01*
X373442Y221406D01*
X373409Y221485D01*
X373372Y221562D01*
X373332Y221638D01*
X373289Y221712D01*
X373243Y221784D01*
X373193Y221853D01*
X373141Y221921D01*
X373085Y221986D01*
X373027Y222049D01*
X372965Y222108D01*
X372902Y222166D01*
X372835Y222220D01*
X372767Y222271D01*
X372696Y222319D01*
X372623Y222364D01*
X372549Y222406D01*
X372472Y222444D01*
X372394Y222479D01*
X372315Y222511D01*
X372234Y222539D01*
X372152Y222563D01*
X372068Y222584D01*
X371985Y222601D01*
X371900Y222614D01*
X371815Y222623D01*
X371730Y222629D01*
X371644Y222631D01*
X371558Y222629D01*
X371473Y222623D01*
X371388Y222614D01*
X371303Y222601D01*
X371220Y222584D01*
X371136Y222563D01*
X371054Y222539D01*
X370974Y222511D01*
X370894Y222479D01*
X370816Y222444D01*
X370739Y222406D01*
X370665Y222364D01*
X370592Y222319D01*
X370521Y222271D01*
X370453Y222220D01*
X370386Y222166D01*
X370323Y222108D01*
X370262Y222049D01*
X370203Y221986D01*
X370148Y221921D01*
X370095Y221853D01*
X370045Y221784D01*
X369999Y221712D01*
X369956Y221638D01*
X369916Y221562D01*
X369879Y221485D01*
X369846Y221406D01*
X369816Y221326D01*
X369817Y221326D02*
X369738Y221159D01*
X369663Y220990D01*
X369592Y220819D01*
X369525Y220647D01*
X369463Y220473D01*
X369404Y220297D01*
X369350Y220121D01*
X369300Y219943D01*
X369254Y219763D01*
X369212Y219583D01*
X369175Y219402D01*
X369142Y219220D01*
X369113Y219038D01*
X369089Y218854D01*
X369069Y218670D01*
X369054Y218486D01*
X369043Y218302D01*
X369036Y218117D01*
X369034Y217932D01*
X374255Y217932D02*
X374253Y217747D01*
X374246Y217562D01*
X374235Y217378D01*
X374220Y217194D01*
X374200Y217010D01*
X374176Y216826D01*
X374147Y216644D01*
X374114Y216462D01*
X374077Y216281D01*
X374035Y216101D01*
X373989Y215921D01*
X373939Y215743D01*
X373885Y215567D01*
X373826Y215391D01*
X373764Y215217D01*
X373697Y215045D01*
X373626Y214874D01*
X373551Y214705D01*
X373472Y214538D01*
X373442Y214458D01*
X373409Y214379D01*
X373372Y214302D01*
X373332Y214226D01*
X373289Y214152D01*
X373243Y214080D01*
X373193Y214011D01*
X373140Y213943D01*
X373085Y213878D01*
X373026Y213815D01*
X372965Y213756D01*
X372902Y213698D01*
X372835Y213644D01*
X372767Y213593D01*
X372696Y213545D01*
X372623Y213500D01*
X372549Y213458D01*
X372472Y213420D01*
X372394Y213385D01*
X372315Y213353D01*
X372234Y213325D01*
X372152Y213301D01*
X372068Y213280D01*
X371985Y213263D01*
X371900Y213250D01*
X371815Y213241D01*
X371730Y213235D01*
X371644Y213233D01*
X369817Y214538D02*
X369738Y214705D01*
X369663Y214874D01*
X369592Y215045D01*
X369525Y215217D01*
X369463Y215391D01*
X369404Y215567D01*
X369350Y215743D01*
X369300Y215921D01*
X369254Y216101D01*
X369212Y216281D01*
X369175Y216462D01*
X369142Y216644D01*
X369113Y216826D01*
X369089Y217010D01*
X369069Y217194D01*
X369054Y217378D01*
X369043Y217562D01*
X369036Y217747D01*
X369034Y217932D01*
X369816Y214538D02*
X369846Y214458D01*
X369879Y214379D01*
X369916Y214302D01*
X369956Y214226D01*
X369999Y214152D01*
X370045Y214080D01*
X370095Y214011D01*
X370148Y213943D01*
X370203Y213878D01*
X370262Y213815D01*
X370323Y213756D01*
X370386Y213698D01*
X370453Y213644D01*
X370521Y213593D01*
X370592Y213545D01*
X370665Y213500D01*
X370739Y213458D01*
X370816Y213420D01*
X370894Y213385D01*
X370974Y213353D01*
X371054Y213325D01*
X371136Y213301D01*
X371220Y213280D01*
X371303Y213263D01*
X371388Y213250D01*
X371473Y213241D01*
X371558Y213235D01*
X371644Y213233D01*
X373733Y215321D02*
X369556Y220543D01*
X365023Y216888D02*
X358758Y216888D01*
X361891Y213755D02*
X361891Y220020D01*
X424222Y223393D02*
X427355Y213995D01*
X421090Y213995D02*
X424222Y223393D01*
X421873Y216345D02*
X426572Y216345D01*
X417689Y218694D02*
X417687Y218879D01*
X417680Y219064D01*
X417669Y219248D01*
X417654Y219432D01*
X417634Y219616D01*
X417610Y219800D01*
X417581Y219982D01*
X417548Y220164D01*
X417511Y220345D01*
X417469Y220525D01*
X417423Y220705D01*
X417373Y220883D01*
X417319Y221059D01*
X417260Y221235D01*
X417198Y221409D01*
X417131Y221581D01*
X417060Y221752D01*
X416985Y221921D01*
X416906Y222088D01*
X416876Y222168D01*
X416843Y222247D01*
X416806Y222324D01*
X416766Y222400D01*
X416723Y222474D01*
X416677Y222546D01*
X416627Y222615D01*
X416575Y222683D01*
X416519Y222748D01*
X416461Y222811D01*
X416399Y222870D01*
X416336Y222928D01*
X416269Y222982D01*
X416201Y223033D01*
X416130Y223081D01*
X416057Y223126D01*
X415983Y223168D01*
X415906Y223206D01*
X415828Y223241D01*
X415749Y223273D01*
X415668Y223301D01*
X415586Y223325D01*
X415502Y223346D01*
X415419Y223363D01*
X415334Y223376D01*
X415249Y223385D01*
X415164Y223391D01*
X415078Y223393D01*
X414992Y223391D01*
X414907Y223385D01*
X414822Y223376D01*
X414737Y223363D01*
X414654Y223346D01*
X414570Y223325D01*
X414488Y223301D01*
X414408Y223273D01*
X414328Y223241D01*
X414250Y223206D01*
X414173Y223168D01*
X414099Y223126D01*
X414026Y223081D01*
X413955Y223033D01*
X413887Y222982D01*
X413820Y222928D01*
X413757Y222870D01*
X413696Y222811D01*
X413637Y222748D01*
X413582Y222683D01*
X413529Y222615D01*
X413479Y222546D01*
X413433Y222474D01*
X413390Y222400D01*
X413350Y222324D01*
X413313Y222247D01*
X413280Y222168D01*
X413250Y222088D01*
X413251Y222088D02*
X413172Y221921D01*
X413097Y221752D01*
X413026Y221581D01*
X412959Y221409D01*
X412897Y221235D01*
X412838Y221059D01*
X412784Y220883D01*
X412734Y220705D01*
X412688Y220525D01*
X412646Y220345D01*
X412609Y220164D01*
X412576Y219982D01*
X412547Y219800D01*
X412523Y219616D01*
X412503Y219432D01*
X412488Y219248D01*
X412477Y219064D01*
X412470Y218879D01*
X412468Y218694D01*
X417689Y218694D02*
X417687Y218509D01*
X417680Y218324D01*
X417669Y218140D01*
X417654Y217956D01*
X417634Y217772D01*
X417610Y217588D01*
X417581Y217406D01*
X417548Y217224D01*
X417511Y217043D01*
X417469Y216863D01*
X417423Y216683D01*
X417373Y216505D01*
X417319Y216329D01*
X417260Y216153D01*
X417198Y215979D01*
X417131Y215807D01*
X417060Y215636D01*
X416985Y215467D01*
X416906Y215300D01*
X416876Y215220D01*
X416843Y215141D01*
X416806Y215064D01*
X416766Y214988D01*
X416723Y214914D01*
X416677Y214842D01*
X416627Y214773D01*
X416574Y214705D01*
X416519Y214640D01*
X416460Y214577D01*
X416399Y214518D01*
X416336Y214460D01*
X416269Y214406D01*
X416201Y214355D01*
X416130Y214307D01*
X416057Y214262D01*
X415983Y214220D01*
X415906Y214182D01*
X415828Y214147D01*
X415749Y214115D01*
X415668Y214087D01*
X415586Y214063D01*
X415502Y214042D01*
X415419Y214025D01*
X415334Y214012D01*
X415249Y214003D01*
X415164Y213997D01*
X415078Y213995D01*
X413251Y215300D02*
X413172Y215467D01*
X413097Y215636D01*
X413026Y215807D01*
X412959Y215979D01*
X412897Y216153D01*
X412838Y216329D01*
X412784Y216505D01*
X412734Y216683D01*
X412688Y216863D01*
X412646Y217043D01*
X412609Y217224D01*
X412576Y217406D01*
X412547Y217588D01*
X412523Y217772D01*
X412503Y217956D01*
X412488Y218140D01*
X412477Y218324D01*
X412470Y218509D01*
X412468Y218694D01*
X413250Y215300D02*
X413280Y215220D01*
X413313Y215141D01*
X413350Y215064D01*
X413390Y214988D01*
X413433Y214914D01*
X413479Y214842D01*
X413529Y214773D01*
X413582Y214705D01*
X413637Y214640D01*
X413696Y214577D01*
X413757Y214518D01*
X413820Y214460D01*
X413887Y214406D01*
X413955Y214355D01*
X414026Y214307D01*
X414099Y214262D01*
X414173Y214220D01*
X414250Y214182D01*
X414328Y214147D01*
X414408Y214115D01*
X414488Y214087D01*
X414570Y214063D01*
X414654Y214042D01*
X414737Y214025D01*
X414822Y214012D01*
X414907Y214003D01*
X414992Y213997D01*
X415078Y213995D01*
X417167Y216083D02*
X412990Y221305D01*
X408457Y217650D02*
X402192Y217650D01*
X458272Y218962D02*
X460883Y218962D01*
X458272Y218963D02*
X458171Y218961D01*
X458070Y218955D01*
X457969Y218945D01*
X457869Y218932D01*
X457769Y218914D01*
X457670Y218893D01*
X457572Y218867D01*
X457475Y218838D01*
X457379Y218806D01*
X457285Y218769D01*
X457192Y218729D01*
X457100Y218685D01*
X457011Y218638D01*
X456923Y218587D01*
X456837Y218533D01*
X456754Y218476D01*
X456672Y218416D01*
X456594Y218352D01*
X456517Y218286D01*
X456444Y218216D01*
X456373Y218144D01*
X456305Y218069D01*
X456240Y217991D01*
X456178Y217911D01*
X456119Y217829D01*
X456063Y217744D01*
X456011Y217658D01*
X455962Y217569D01*
X455916Y217478D01*
X455875Y217386D01*
X455836Y217292D01*
X455802Y217197D01*
X455771Y217101D01*
X455744Y217003D01*
X455720Y216905D01*
X455701Y216805D01*
X455685Y216705D01*
X455673Y216605D01*
X455665Y216504D01*
X455661Y216403D01*
X455661Y216301D01*
X455665Y216200D01*
X455673Y216099D01*
X455685Y215999D01*
X455701Y215899D01*
X455720Y215799D01*
X455744Y215701D01*
X455771Y215603D01*
X455802Y215507D01*
X455836Y215412D01*
X455875Y215318D01*
X455916Y215226D01*
X455962Y215135D01*
X456011Y215047D01*
X456063Y214960D01*
X456119Y214875D01*
X456178Y214793D01*
X456240Y214713D01*
X456305Y214635D01*
X456373Y214560D01*
X456444Y214488D01*
X456517Y214418D01*
X456594Y214352D01*
X456672Y214288D01*
X456754Y214228D01*
X456837Y214171D01*
X456923Y214117D01*
X457011Y214066D01*
X457100Y214019D01*
X457192Y213975D01*
X457285Y213935D01*
X457379Y213898D01*
X457475Y213866D01*
X457572Y213837D01*
X457670Y213811D01*
X457769Y213790D01*
X457869Y213772D01*
X457969Y213759D01*
X458070Y213749D01*
X458171Y213743D01*
X458272Y213741D01*
X460883Y213741D01*
X460883Y223139D01*
X458272Y223139D01*
X458182Y223137D01*
X458093Y223131D01*
X458003Y223122D01*
X457914Y223108D01*
X457826Y223091D01*
X457739Y223070D01*
X457652Y223045D01*
X457567Y223016D01*
X457483Y222984D01*
X457401Y222949D01*
X457320Y222909D01*
X457241Y222867D01*
X457164Y222821D01*
X457089Y222771D01*
X457016Y222719D01*
X456945Y222663D01*
X456877Y222605D01*
X456812Y222543D01*
X456749Y222479D01*
X456689Y222412D01*
X456632Y222343D01*
X456578Y222271D01*
X456527Y222197D01*
X456479Y222121D01*
X456435Y222043D01*
X456394Y221963D01*
X456356Y221881D01*
X456322Y221798D01*
X456292Y221713D01*
X456265Y221627D01*
X456242Y221541D01*
X456223Y221453D01*
X456208Y221364D01*
X456196Y221275D01*
X456188Y221186D01*
X456184Y221096D01*
X456184Y221006D01*
X456188Y220916D01*
X456196Y220827D01*
X456208Y220738D01*
X456223Y220649D01*
X456242Y220561D01*
X456265Y220475D01*
X456292Y220389D01*
X456322Y220304D01*
X456356Y220221D01*
X456394Y220139D01*
X456435Y220059D01*
X456479Y219981D01*
X456527Y219905D01*
X456578Y219831D01*
X456632Y219759D01*
X456689Y219690D01*
X456749Y219623D01*
X456812Y219559D01*
X456877Y219497D01*
X456945Y219439D01*
X457016Y219383D01*
X457089Y219331D01*
X457164Y219281D01*
X457241Y219235D01*
X457320Y219193D01*
X457401Y219153D01*
X457483Y219118D01*
X457567Y219086D01*
X457652Y219057D01*
X457739Y219032D01*
X457826Y219011D01*
X457914Y218994D01*
X458003Y218980D01*
X458093Y218971D01*
X458182Y218965D01*
X458272Y218963D01*
X452175Y218440D02*
X452173Y218625D01*
X452166Y218810D01*
X452155Y218994D01*
X452140Y219178D01*
X452120Y219362D01*
X452096Y219546D01*
X452067Y219728D01*
X452034Y219910D01*
X451997Y220091D01*
X451955Y220271D01*
X451909Y220451D01*
X451859Y220629D01*
X451805Y220805D01*
X451746Y220981D01*
X451684Y221155D01*
X451617Y221327D01*
X451546Y221498D01*
X451471Y221667D01*
X451392Y221834D01*
X451393Y221834D02*
X451363Y221914D01*
X451330Y221993D01*
X451293Y222070D01*
X451253Y222146D01*
X451210Y222220D01*
X451164Y222292D01*
X451114Y222361D01*
X451062Y222429D01*
X451006Y222494D01*
X450948Y222557D01*
X450886Y222616D01*
X450823Y222674D01*
X450756Y222728D01*
X450688Y222779D01*
X450617Y222827D01*
X450544Y222872D01*
X450470Y222914D01*
X450393Y222952D01*
X450315Y222987D01*
X450236Y223019D01*
X450155Y223047D01*
X450073Y223071D01*
X449989Y223092D01*
X449906Y223109D01*
X449821Y223122D01*
X449736Y223131D01*
X449651Y223137D01*
X449565Y223139D01*
X449479Y223137D01*
X449394Y223131D01*
X449309Y223122D01*
X449224Y223109D01*
X449141Y223092D01*
X449057Y223071D01*
X448975Y223047D01*
X448895Y223019D01*
X448815Y222987D01*
X448737Y222952D01*
X448660Y222914D01*
X448586Y222872D01*
X448513Y222827D01*
X448442Y222779D01*
X448374Y222728D01*
X448307Y222674D01*
X448244Y222616D01*
X448183Y222557D01*
X448124Y222494D01*
X448069Y222429D01*
X448016Y222361D01*
X447966Y222292D01*
X447920Y222220D01*
X447877Y222146D01*
X447837Y222070D01*
X447800Y221993D01*
X447767Y221914D01*
X447737Y221834D01*
X447658Y221667D01*
X447583Y221498D01*
X447512Y221327D01*
X447445Y221155D01*
X447383Y220981D01*
X447324Y220805D01*
X447270Y220629D01*
X447220Y220451D01*
X447174Y220271D01*
X447132Y220091D01*
X447095Y219910D01*
X447062Y219728D01*
X447033Y219546D01*
X447009Y219362D01*
X446989Y219178D01*
X446974Y218994D01*
X446963Y218810D01*
X446956Y218625D01*
X446954Y218440D01*
X452175Y218440D02*
X452173Y218255D01*
X452166Y218070D01*
X452155Y217886D01*
X452140Y217702D01*
X452120Y217518D01*
X452096Y217334D01*
X452067Y217152D01*
X452034Y216970D01*
X451997Y216789D01*
X451955Y216609D01*
X451909Y216429D01*
X451859Y216251D01*
X451805Y216075D01*
X451746Y215899D01*
X451684Y215725D01*
X451617Y215553D01*
X451546Y215382D01*
X451471Y215213D01*
X451392Y215046D01*
X451393Y215046D02*
X451363Y214966D01*
X451330Y214887D01*
X451293Y214810D01*
X451253Y214734D01*
X451210Y214660D01*
X451164Y214588D01*
X451114Y214519D01*
X451061Y214451D01*
X451006Y214386D01*
X450947Y214323D01*
X450886Y214264D01*
X450823Y214206D01*
X450756Y214152D01*
X450688Y214101D01*
X450617Y214053D01*
X450544Y214008D01*
X450470Y213966D01*
X450393Y213928D01*
X450315Y213893D01*
X450236Y213861D01*
X450155Y213833D01*
X450073Y213809D01*
X449989Y213788D01*
X449906Y213771D01*
X449821Y213758D01*
X449736Y213749D01*
X449651Y213743D01*
X449565Y213741D01*
X447737Y215046D02*
X447658Y215213D01*
X447583Y215382D01*
X447512Y215553D01*
X447445Y215725D01*
X447383Y215899D01*
X447324Y216075D01*
X447270Y216251D01*
X447220Y216429D01*
X447174Y216609D01*
X447132Y216789D01*
X447095Y216970D01*
X447062Y217152D01*
X447033Y217334D01*
X447009Y217518D01*
X446989Y217702D01*
X446974Y217886D01*
X446963Y218070D01*
X446956Y218255D01*
X446954Y218440D01*
X447737Y215046D02*
X447767Y214966D01*
X447800Y214887D01*
X447837Y214810D01*
X447877Y214734D01*
X447920Y214660D01*
X447966Y214588D01*
X448016Y214519D01*
X448069Y214451D01*
X448124Y214386D01*
X448183Y214323D01*
X448244Y214264D01*
X448307Y214206D01*
X448374Y214152D01*
X448442Y214101D01*
X448513Y214053D01*
X448586Y214008D01*
X448660Y213966D01*
X448737Y213928D01*
X448815Y213893D01*
X448895Y213861D01*
X448975Y213833D01*
X449057Y213809D01*
X449141Y213788D01*
X449224Y213771D01*
X449309Y213758D01*
X449394Y213749D01*
X449479Y213743D01*
X449565Y213741D01*
X451653Y215829D02*
X447476Y221051D01*
X442944Y217396D02*
X436678Y217396D01*
X439811Y214263D02*
X439811Y220528D01*
X496880Y219216D02*
X499491Y219216D01*
X496880Y219217D02*
X496779Y219215D01*
X496678Y219209D01*
X496577Y219199D01*
X496477Y219186D01*
X496377Y219168D01*
X496278Y219147D01*
X496180Y219121D01*
X496083Y219092D01*
X495987Y219060D01*
X495893Y219023D01*
X495800Y218983D01*
X495708Y218939D01*
X495619Y218892D01*
X495531Y218841D01*
X495445Y218787D01*
X495362Y218730D01*
X495280Y218670D01*
X495202Y218606D01*
X495125Y218540D01*
X495052Y218470D01*
X494981Y218398D01*
X494913Y218323D01*
X494848Y218245D01*
X494786Y218165D01*
X494727Y218083D01*
X494671Y217998D01*
X494619Y217912D01*
X494570Y217823D01*
X494524Y217732D01*
X494483Y217640D01*
X494444Y217546D01*
X494410Y217451D01*
X494379Y217355D01*
X494352Y217257D01*
X494328Y217159D01*
X494309Y217059D01*
X494293Y216959D01*
X494281Y216859D01*
X494273Y216758D01*
X494269Y216657D01*
X494269Y216555D01*
X494273Y216454D01*
X494281Y216353D01*
X494293Y216253D01*
X494309Y216153D01*
X494328Y216053D01*
X494352Y215955D01*
X494379Y215857D01*
X494410Y215761D01*
X494444Y215666D01*
X494483Y215572D01*
X494524Y215480D01*
X494570Y215389D01*
X494619Y215301D01*
X494671Y215214D01*
X494727Y215129D01*
X494786Y215047D01*
X494848Y214967D01*
X494913Y214889D01*
X494981Y214814D01*
X495052Y214742D01*
X495125Y214672D01*
X495202Y214606D01*
X495280Y214542D01*
X495362Y214482D01*
X495445Y214425D01*
X495531Y214371D01*
X495619Y214320D01*
X495708Y214273D01*
X495800Y214229D01*
X495893Y214189D01*
X495987Y214152D01*
X496083Y214120D01*
X496180Y214091D01*
X496278Y214065D01*
X496377Y214044D01*
X496477Y214026D01*
X496577Y214013D01*
X496678Y214003D01*
X496779Y213997D01*
X496880Y213995D01*
X499491Y213995D01*
X499491Y223393D01*
X496880Y223393D01*
X496790Y223391D01*
X496701Y223385D01*
X496611Y223376D01*
X496522Y223362D01*
X496434Y223345D01*
X496347Y223324D01*
X496260Y223299D01*
X496175Y223270D01*
X496091Y223238D01*
X496009Y223203D01*
X495928Y223163D01*
X495849Y223121D01*
X495772Y223075D01*
X495697Y223025D01*
X495624Y222973D01*
X495553Y222917D01*
X495485Y222859D01*
X495420Y222797D01*
X495357Y222733D01*
X495297Y222666D01*
X495240Y222597D01*
X495186Y222525D01*
X495135Y222451D01*
X495087Y222375D01*
X495043Y222297D01*
X495002Y222217D01*
X494964Y222135D01*
X494930Y222052D01*
X494900Y221967D01*
X494873Y221881D01*
X494850Y221795D01*
X494831Y221707D01*
X494816Y221618D01*
X494804Y221529D01*
X494796Y221440D01*
X494792Y221350D01*
X494792Y221260D01*
X494796Y221170D01*
X494804Y221081D01*
X494816Y220992D01*
X494831Y220903D01*
X494850Y220815D01*
X494873Y220729D01*
X494900Y220643D01*
X494930Y220558D01*
X494964Y220475D01*
X495002Y220393D01*
X495043Y220313D01*
X495087Y220235D01*
X495135Y220159D01*
X495186Y220085D01*
X495240Y220013D01*
X495297Y219944D01*
X495357Y219877D01*
X495420Y219813D01*
X495485Y219751D01*
X495553Y219693D01*
X495624Y219637D01*
X495697Y219585D01*
X495772Y219535D01*
X495849Y219489D01*
X495928Y219447D01*
X496009Y219407D01*
X496091Y219372D01*
X496175Y219340D01*
X496260Y219311D01*
X496347Y219286D01*
X496434Y219265D01*
X496522Y219248D01*
X496611Y219234D01*
X496701Y219225D01*
X496790Y219219D01*
X496880Y219217D01*
X490783Y218694D02*
X490781Y218879D01*
X490774Y219064D01*
X490763Y219248D01*
X490748Y219432D01*
X490728Y219616D01*
X490704Y219800D01*
X490675Y219982D01*
X490642Y220164D01*
X490605Y220345D01*
X490563Y220525D01*
X490517Y220705D01*
X490467Y220883D01*
X490413Y221059D01*
X490354Y221235D01*
X490292Y221409D01*
X490225Y221581D01*
X490154Y221752D01*
X490079Y221921D01*
X490000Y222088D01*
X490001Y222088D02*
X489971Y222168D01*
X489938Y222247D01*
X489901Y222324D01*
X489861Y222400D01*
X489818Y222474D01*
X489772Y222546D01*
X489722Y222615D01*
X489670Y222683D01*
X489614Y222748D01*
X489556Y222811D01*
X489494Y222870D01*
X489431Y222928D01*
X489364Y222982D01*
X489296Y223033D01*
X489225Y223081D01*
X489152Y223126D01*
X489078Y223168D01*
X489001Y223206D01*
X488923Y223241D01*
X488844Y223273D01*
X488763Y223301D01*
X488681Y223325D01*
X488597Y223346D01*
X488514Y223363D01*
X488429Y223376D01*
X488344Y223385D01*
X488259Y223391D01*
X488173Y223393D01*
X488087Y223391D01*
X488002Y223385D01*
X487917Y223376D01*
X487832Y223363D01*
X487749Y223346D01*
X487665Y223325D01*
X487583Y223301D01*
X487503Y223273D01*
X487423Y223241D01*
X487345Y223206D01*
X487268Y223168D01*
X487194Y223126D01*
X487121Y223081D01*
X487050Y223033D01*
X486982Y222982D01*
X486915Y222928D01*
X486852Y222870D01*
X486791Y222811D01*
X486732Y222748D01*
X486677Y222683D01*
X486624Y222615D01*
X486574Y222546D01*
X486528Y222474D01*
X486485Y222400D01*
X486445Y222324D01*
X486408Y222247D01*
X486375Y222168D01*
X486345Y222088D01*
X486266Y221921D01*
X486191Y221752D01*
X486120Y221581D01*
X486053Y221409D01*
X485991Y221235D01*
X485932Y221059D01*
X485878Y220883D01*
X485828Y220705D01*
X485782Y220525D01*
X485740Y220345D01*
X485703Y220164D01*
X485670Y219982D01*
X485641Y219800D01*
X485617Y219616D01*
X485597Y219432D01*
X485582Y219248D01*
X485571Y219064D01*
X485564Y218879D01*
X485562Y218694D01*
X490783Y218694D02*
X490781Y218509D01*
X490774Y218324D01*
X490763Y218140D01*
X490748Y217956D01*
X490728Y217772D01*
X490704Y217588D01*
X490675Y217406D01*
X490642Y217224D01*
X490605Y217043D01*
X490563Y216863D01*
X490517Y216683D01*
X490467Y216505D01*
X490413Y216329D01*
X490354Y216153D01*
X490292Y215979D01*
X490225Y215807D01*
X490154Y215636D01*
X490079Y215467D01*
X490000Y215300D01*
X490001Y215300D02*
X489971Y215220D01*
X489938Y215141D01*
X489901Y215064D01*
X489861Y214988D01*
X489818Y214914D01*
X489772Y214842D01*
X489722Y214773D01*
X489669Y214705D01*
X489614Y214640D01*
X489555Y214577D01*
X489494Y214518D01*
X489431Y214460D01*
X489364Y214406D01*
X489296Y214355D01*
X489225Y214307D01*
X489152Y214262D01*
X489078Y214220D01*
X489001Y214182D01*
X488923Y214147D01*
X488844Y214115D01*
X488763Y214087D01*
X488681Y214063D01*
X488597Y214042D01*
X488514Y214025D01*
X488429Y214012D01*
X488344Y214003D01*
X488259Y213997D01*
X488173Y213995D01*
X486345Y215300D02*
X486266Y215467D01*
X486191Y215636D01*
X486120Y215807D01*
X486053Y215979D01*
X485991Y216153D01*
X485932Y216329D01*
X485878Y216505D01*
X485828Y216683D01*
X485782Y216863D01*
X485740Y217043D01*
X485703Y217224D01*
X485670Y217406D01*
X485641Y217588D01*
X485617Y217772D01*
X485597Y217956D01*
X485582Y218140D01*
X485571Y218324D01*
X485564Y218509D01*
X485562Y218694D01*
X486345Y215300D02*
X486375Y215220D01*
X486408Y215141D01*
X486445Y215064D01*
X486485Y214988D01*
X486528Y214914D01*
X486574Y214842D01*
X486624Y214773D01*
X486677Y214705D01*
X486732Y214640D01*
X486791Y214577D01*
X486852Y214518D01*
X486915Y214460D01*
X486982Y214406D01*
X487050Y214355D01*
X487121Y214307D01*
X487194Y214262D01*
X487268Y214220D01*
X487345Y214182D01*
X487423Y214147D01*
X487503Y214115D01*
X487583Y214087D01*
X487665Y214063D01*
X487749Y214042D01*
X487832Y214025D01*
X487917Y214012D01*
X488002Y214003D01*
X488087Y213997D01*
X488173Y213995D01*
X490261Y216083D02*
X486084Y221305D01*
X481552Y217650D02*
X475286Y217650D01*
M02*
