G04 EAGLE Gerber RS-274X export*
G75*
%MOMM*%
%FSLAX34Y34*%
%LPD*%
%INSoldermask Top*%
%IPPOS*%
%AMOC8*
5,1,8,0,0,1.08239X$1,22.5*%
G01*
%ADD10C,4.703294*%
%ADD11C,3.203194*%
%ADD12C,3.712694*%
%ADD13R,2.403200X0.803200*%
%ADD14R,2.803200X2.003200*%
%ADD15C,1.727200*%
%ADD16C,0.762000*%
%ADD17C,0.406400*%
%ADD18R,0.803200X2.403200*%
%ADD19R,2.003200X2.803200*%
%ADD20C,0.959600*%

G36*
X891295Y537093D02*
X891295Y537093D01*
X891361Y537091D01*
X891384Y537100D01*
X891402Y537102D01*
X891435Y537122D01*
X891495Y537147D01*
X927309Y560769D01*
X927316Y560775D01*
X927326Y560780D01*
X928644Y561753D01*
X928665Y561777D01*
X928702Y561805D01*
X929796Y563024D01*
X929811Y563052D01*
X929842Y563086D01*
X930667Y564502D01*
X930676Y564533D01*
X930699Y564572D01*
X931220Y566125D01*
X931224Y566157D01*
X931238Y566201D01*
X931434Y567827D01*
X931431Y567859D01*
X931436Y567905D01*
X931299Y569538D01*
X931289Y569568D01*
X931285Y569614D01*
X930821Y571185D01*
X930805Y571213D01*
X930792Y571256D01*
X930020Y572702D01*
X929998Y572726D01*
X929976Y572766D01*
X928928Y574025D01*
X928902Y574044D01*
X928873Y574079D01*
X927591Y575099D01*
X927576Y575107D01*
X927560Y575122D01*
X866096Y614743D01*
X865121Y615410D01*
X865089Y615422D01*
X865046Y615450D01*
X863941Y615885D01*
X863907Y615890D01*
X863859Y615907D01*
X862686Y616085D01*
X862651Y616082D01*
X862600Y616088D01*
X861417Y616001D01*
X861384Y615990D01*
X861333Y615985D01*
X860199Y615636D01*
X860169Y615619D01*
X860121Y615602D01*
X859092Y615009D01*
X859078Y614997D01*
X859056Y614986D01*
X854230Y611430D01*
X854208Y611404D01*
X854180Y611385D01*
X854153Y611339D01*
X854118Y611298D01*
X854110Y611265D01*
X854092Y611235D01*
X854089Y611182D01*
X854076Y611130D01*
X854083Y611097D01*
X854081Y611062D01*
X854101Y611013D01*
X854113Y610961D01*
X854134Y610934D01*
X854147Y610902D01*
X854196Y610856D01*
X854221Y610825D01*
X854236Y610818D01*
X854252Y610803D01*
X882680Y592782D01*
X883145Y592395D01*
X883486Y591923D01*
X883700Y591382D01*
X883772Y590804D01*
X883700Y590226D01*
X883486Y589685D01*
X883145Y589213D01*
X882669Y588817D01*
X864136Y575108D01*
X864120Y575089D01*
X864100Y575077D01*
X864065Y575024D01*
X864024Y574976D01*
X864018Y574952D01*
X864005Y574932D01*
X863997Y574869D01*
X863982Y574808D01*
X863987Y574784D01*
X863984Y574760D01*
X864005Y574700D01*
X864019Y574638D01*
X864034Y574619D01*
X864042Y574597D01*
X864105Y574531D01*
X864127Y574503D01*
X864135Y574499D01*
X864142Y574492D01*
X872016Y568904D01*
X872075Y568880D01*
X872130Y568849D01*
X872154Y568848D01*
X872176Y568838D01*
X872240Y568843D01*
X872303Y568840D01*
X872328Y568849D01*
X872349Y568851D01*
X872382Y568870D01*
X872439Y568892D01*
X895039Y583113D01*
X895599Y583438D01*
X896182Y583620D01*
X896792Y583666D01*
X897396Y583576D01*
X897978Y583349D01*
X905247Y579106D01*
X912127Y574252D01*
X913143Y573301D01*
X913954Y572182D01*
X914538Y570930D01*
X914874Y569589D01*
X914949Y568209D01*
X914762Y566840D01*
X914318Y565532D01*
X913634Y564331D01*
X912734Y563282D01*
X911637Y562411D01*
X882697Y543625D01*
X882671Y543598D01*
X882639Y543579D01*
X882612Y543536D01*
X882577Y543500D01*
X882566Y543464D01*
X882546Y543433D01*
X882540Y543383D01*
X882525Y543335D01*
X882531Y543298D01*
X882526Y543261D01*
X882544Y543213D01*
X882551Y543164D01*
X882573Y543133D01*
X882586Y543098D01*
X882629Y543053D01*
X882651Y543022D01*
X882669Y543012D01*
X882687Y542994D01*
X891069Y537152D01*
X891130Y537128D01*
X891188Y537097D01*
X891210Y537096D01*
X891230Y537088D01*
X891295Y537093D01*
G37*
G36*
X818416Y488835D02*
X818416Y488835D01*
X818489Y488837D01*
X818502Y488844D01*
X818516Y488846D01*
X818577Y488885D01*
X818641Y488920D01*
X818649Y488932D01*
X818662Y488940D01*
X818699Y489002D01*
X818741Y489062D01*
X818744Y489077D01*
X818750Y489089D01*
X818753Y489127D01*
X818768Y489204D01*
X818768Y570971D01*
X818995Y572971D01*
X819535Y574903D01*
X820373Y576724D01*
X821490Y578389D01*
X822857Y579856D01*
X824452Y581097D01*
X852633Y599630D01*
X852660Y599658D01*
X852693Y599679D01*
X852718Y599720D01*
X852752Y599756D01*
X852764Y599793D01*
X852784Y599826D01*
X852789Y599875D01*
X852803Y599922D01*
X852797Y599960D01*
X852801Y599998D01*
X852784Y600044D01*
X852776Y600093D01*
X852753Y600124D01*
X852739Y600160D01*
X852697Y600203D01*
X852675Y600234D01*
X852656Y600244D01*
X852637Y600263D01*
X844001Y606105D01*
X843942Y606127D01*
X843887Y606157D01*
X843862Y606158D01*
X843839Y606167D01*
X843777Y606161D01*
X843713Y606163D01*
X843688Y606152D01*
X843667Y606150D01*
X843635Y606131D01*
X843579Y606108D01*
X819195Y590106D01*
X819190Y590100D01*
X819180Y590096D01*
X816904Y588441D01*
X816889Y588423D01*
X816862Y588405D01*
X814850Y586439D01*
X814837Y586418D01*
X814817Y586400D01*
X814815Y586398D01*
X814813Y586397D01*
X814525Y586018D01*
X814524Y586018D01*
X814235Y585638D01*
X813945Y585258D01*
X813945Y585257D01*
X813655Y584877D01*
X813365Y584497D01*
X813108Y584159D01*
X813098Y584137D01*
X813078Y584113D01*
X811714Y581651D01*
X811708Y581628D01*
X811691Y581601D01*
X810699Y578968D01*
X810696Y578944D01*
X810683Y578915D01*
X810083Y576166D01*
X810084Y576142D01*
X810076Y576111D01*
X809881Y573304D01*
X809883Y573292D01*
X809880Y573277D01*
X810134Y498347D01*
X810134Y498346D01*
X810134Y498345D01*
X810144Y496986D01*
X810152Y496952D01*
X810154Y496903D01*
X810459Y495578D01*
X810462Y495573D01*
X810462Y495568D01*
X810476Y495543D01*
X810487Y495499D01*
X811073Y494273D01*
X811095Y494246D01*
X811117Y494202D01*
X811957Y493133D01*
X811983Y493111D01*
X812015Y493073D01*
X813067Y492212D01*
X813084Y492204D01*
X813101Y492187D01*
X818181Y488885D01*
X818249Y488861D01*
X818316Y488831D01*
X818330Y488831D01*
X818344Y488826D01*
X818416Y488835D01*
G37*
G36*
X839432Y503931D02*
X839432Y503931D01*
X839463Y503940D01*
X839559Y503961D01*
X839873Y504094D01*
X839895Y504111D01*
X839931Y504125D01*
X880317Y530287D01*
X880348Y530320D01*
X880386Y530344D01*
X880407Y530381D01*
X880437Y530412D01*
X880451Y530455D01*
X880473Y530494D01*
X880476Y530536D01*
X880489Y530577D01*
X880482Y530622D01*
X880485Y530667D01*
X880469Y530706D01*
X880463Y530748D01*
X880437Y530785D01*
X880419Y530827D01*
X880383Y530862D01*
X880363Y530890D01*
X880340Y530902D01*
X880314Y530927D01*
X871932Y536261D01*
X871877Y536280D01*
X871826Y536307D01*
X871796Y536308D01*
X871769Y536318D01*
X871711Y536311D01*
X871653Y536313D01*
X871622Y536300D01*
X871597Y536297D01*
X871567Y536278D01*
X871519Y536258D01*
X837991Y514160D01*
X837972Y514139D01*
X837947Y514126D01*
X837913Y514077D01*
X837872Y514034D01*
X837863Y514007D01*
X837847Y513984D01*
X837832Y513905D01*
X837821Y513868D01*
X837823Y513856D01*
X837820Y513842D01*
X837820Y505206D01*
X837828Y505171D01*
X837831Y505115D01*
X837912Y504784D01*
X837927Y504756D01*
X837965Y504664D01*
X838154Y504381D01*
X838178Y504359D01*
X838244Y504286D01*
X838518Y504084D01*
X838548Y504071D01*
X838635Y504025D01*
X838962Y503928D01*
X838994Y503926D01*
X839092Y503912D01*
X839432Y503931D01*
G37*
G36*
X868731Y582051D02*
X868731Y582051D01*
X868788Y582051D01*
X868841Y582070D01*
X868897Y582080D01*
X868956Y582112D01*
X868999Y582128D01*
X869023Y582149D01*
X869062Y582169D01*
X879857Y590297D01*
X879902Y590346D01*
X879954Y590388D01*
X879978Y590428D01*
X880009Y590462D01*
X880035Y590523D01*
X880069Y590581D01*
X880077Y590626D01*
X880095Y590669D01*
X880097Y590736D01*
X880109Y590802D01*
X880101Y590847D01*
X880103Y590893D01*
X880082Y590957D01*
X880070Y591023D01*
X880047Y591063D01*
X880033Y591106D01*
X879991Y591159D01*
X879957Y591216D01*
X879917Y591251D01*
X879892Y591282D01*
X879858Y591302D01*
X879816Y591339D01*
X851876Y609119D01*
X851857Y609127D01*
X851841Y609139D01*
X851754Y609169D01*
X851668Y609204D01*
X851648Y609205D01*
X851629Y609211D01*
X851536Y609209D01*
X851444Y609212D01*
X851425Y609205D01*
X851404Y609205D01*
X851319Y609170D01*
X851231Y609141D01*
X851215Y609128D01*
X851197Y609120D01*
X851128Y609058D01*
X851056Y609000D01*
X851046Y608983D01*
X851031Y608969D01*
X850989Y608887D01*
X850941Y608807D01*
X850938Y608787D01*
X850928Y608769D01*
X850903Y608597D01*
X850901Y608586D01*
X850901Y608585D01*
X850901Y608584D01*
X850901Y604901D01*
X850901Y604899D01*
X850901Y604897D01*
X850921Y604788D01*
X850940Y604680D01*
X850941Y604678D01*
X850942Y604677D01*
X850998Y604583D01*
X851055Y604487D01*
X851056Y604486D01*
X851057Y604484D01*
X851200Y604363D01*
X857673Y600332D01*
X859160Y587934D01*
X859184Y587856D01*
X859201Y587776D01*
X859217Y587750D01*
X859226Y587720D01*
X859276Y587655D01*
X859319Y587585D01*
X859346Y587563D01*
X859362Y587542D01*
X859403Y587516D01*
X859464Y587466D01*
X868354Y582132D01*
X868407Y582112D01*
X868455Y582083D01*
X868511Y582073D01*
X868563Y582053D01*
X868620Y582052D01*
X868676Y582042D01*
X868731Y582051D01*
G37*
G36*
X837776Y547765D02*
X837776Y547765D01*
X837793Y547765D01*
X837827Y547784D01*
X837892Y547809D01*
X861260Y562287D01*
X861294Y562321D01*
X861334Y562347D01*
X861355Y562381D01*
X861383Y562409D01*
X861398Y562455D01*
X861423Y562496D01*
X861426Y562536D01*
X861438Y562573D01*
X861432Y562621D01*
X861436Y562669D01*
X861421Y562706D01*
X861415Y562745D01*
X861389Y562785D01*
X861371Y562829D01*
X861337Y562862D01*
X861319Y562889D01*
X861294Y562903D01*
X861266Y562930D01*
X853392Y568010D01*
X853337Y568029D01*
X853285Y568057D01*
X853256Y568058D01*
X853229Y568068D01*
X853170Y568061D01*
X853112Y568063D01*
X853081Y568051D01*
X853057Y568048D01*
X853027Y568028D01*
X852978Y568008D01*
X837484Y557848D01*
X837464Y557827D01*
X837439Y557814D01*
X837405Y557765D01*
X837364Y557722D01*
X837356Y557695D01*
X837339Y557672D01*
X837324Y557594D01*
X837313Y557557D01*
X837315Y557545D01*
X837312Y557530D01*
X837312Y548132D01*
X837327Y548065D01*
X837337Y547997D01*
X837347Y547982D01*
X837351Y547963D01*
X837395Y547910D01*
X837433Y547853D01*
X837450Y547844D01*
X837461Y547830D01*
X837524Y547802D01*
X837584Y547767D01*
X837602Y547766D01*
X837620Y547759D01*
X837688Y547761D01*
X837757Y547757D01*
X837776Y547765D01*
G37*
G36*
X903388Y560842D02*
X903388Y560842D01*
X903454Y560841D01*
X903498Y560857D01*
X903544Y560863D01*
X903619Y560900D01*
X903666Y560916D01*
X903684Y560932D01*
X903713Y560946D01*
X909936Y565264D01*
X909959Y565287D01*
X909996Y565311D01*
X910593Y565842D01*
X910623Y565882D01*
X910694Y565957D01*
X911147Y566615D01*
X911167Y566661D01*
X911217Y566750D01*
X911500Y567498D01*
X911509Y567547D01*
X911536Y567646D01*
X911632Y568439D01*
X911630Y568489D01*
X911632Y568592D01*
X911536Y569385D01*
X911522Y569433D01*
X911500Y569533D01*
X911217Y570281D01*
X911192Y570324D01*
X911147Y570416D01*
X910694Y571074D01*
X910658Y571110D01*
X910593Y571189D01*
X909996Y571720D01*
X909970Y571736D01*
X909940Y571764D01*
X898637Y579765D01*
X898608Y579779D01*
X898582Y579800D01*
X898507Y579826D01*
X898434Y579860D01*
X898401Y579863D01*
X898370Y579873D01*
X898290Y579872D01*
X898211Y579878D01*
X898179Y579869D01*
X898146Y579869D01*
X898072Y579839D01*
X897995Y579818D01*
X897968Y579798D01*
X897937Y579786D01*
X897878Y579733D01*
X897813Y579686D01*
X897795Y579658D01*
X897770Y579636D01*
X897733Y579566D01*
X897689Y579499D01*
X897681Y579467D01*
X897666Y579438D01*
X897651Y579341D01*
X897644Y579320D01*
X897644Y579307D01*
X897638Y579281D01*
X897639Y579268D01*
X897637Y579253D01*
X897510Y564648D01*
X897511Y564640D01*
X897510Y564632D01*
X897529Y564536D01*
X897529Y564508D01*
X897537Y564490D01*
X897548Y564426D01*
X897551Y564420D01*
X897553Y564412D01*
X897598Y564338D01*
X897614Y564300D01*
X897633Y564279D01*
X897660Y564232D01*
X897666Y564227D01*
X897670Y564221D01*
X897738Y564164D01*
X897765Y564134D01*
X897787Y564123D01*
X897814Y564100D01*
X903021Y560925D01*
X903064Y560909D01*
X903103Y560883D01*
X903168Y560868D01*
X903230Y560844D01*
X903277Y560844D01*
X903322Y560833D01*
X903388Y560842D01*
G37*
G36*
X891045Y520199D02*
X891045Y520199D01*
X891090Y520195D01*
X891155Y520214D01*
X891223Y520222D01*
X891263Y520243D01*
X891306Y520255D01*
X891361Y520295D01*
X891422Y520327D01*
X891452Y520360D01*
X891488Y520386D01*
X891526Y520443D01*
X891572Y520494D01*
X891588Y520535D01*
X891613Y520572D01*
X891629Y520639D01*
X891654Y520702D01*
X891656Y520754D01*
X891665Y520791D01*
X891660Y520831D01*
X891663Y520890D01*
X890393Y533717D01*
X890376Y533778D01*
X890368Y533842D01*
X890345Y533885D01*
X890332Y533932D01*
X890294Y533984D01*
X890264Y534041D01*
X890223Y534081D01*
X890199Y534113D01*
X890168Y534134D01*
X890129Y534171D01*
X880477Y541029D01*
X880437Y541048D01*
X880401Y541075D01*
X880336Y541096D01*
X880274Y541125D01*
X880230Y541128D01*
X880187Y541142D01*
X880119Y541138D01*
X880051Y541143D01*
X880008Y541131D01*
X879963Y541129D01*
X879900Y541102D01*
X879835Y541083D01*
X879798Y541057D01*
X879757Y541039D01*
X879708Y540992D01*
X879653Y540952D01*
X879628Y540914D01*
X879596Y540883D01*
X879566Y540822D01*
X879528Y540765D01*
X879518Y540721D01*
X879499Y540681D01*
X879489Y540598D01*
X879483Y540582D01*
X879484Y540576D01*
X879477Y540547D01*
X879480Y540524D01*
X879476Y540495D01*
X879603Y535796D01*
X879618Y535722D01*
X879625Y535646D01*
X879641Y535613D01*
X879649Y535576D01*
X879689Y535512D01*
X879721Y535444D01*
X879751Y535413D01*
X879768Y535386D01*
X879804Y535358D01*
X879852Y535309D01*
X886111Y530523D01*
X886845Y523303D01*
X886859Y523254D01*
X886860Y523233D01*
X886865Y523220D01*
X886870Y523181D01*
X886893Y523136D01*
X886907Y523087D01*
X886934Y523051D01*
X886944Y523026D01*
X886957Y523011D01*
X886973Y522981D01*
X887015Y522940D01*
X887040Y522907D01*
X887071Y522886D01*
X887074Y522883D01*
X887095Y522860D01*
X887101Y522857D01*
X887107Y522851D01*
X890663Y520311D01*
X890725Y520282D01*
X890782Y520244D01*
X890826Y520234D01*
X890866Y520215D01*
X890934Y520209D01*
X891001Y520194D01*
X891045Y520199D01*
G37*
G36*
X872270Y551696D02*
X872270Y551696D01*
X872314Y551694D01*
X872380Y551714D01*
X872447Y551725D01*
X872486Y551747D01*
X872528Y551760D01*
X872583Y551802D01*
X872642Y551836D01*
X872671Y551870D01*
X872706Y551897D01*
X872742Y551955D01*
X872787Y552008D01*
X872801Y552050D01*
X872825Y552087D01*
X872839Y552155D01*
X872862Y552219D01*
X872863Y552270D01*
X872870Y552307D01*
X872864Y552348D01*
X872865Y552407D01*
X871087Y565742D01*
X871081Y565759D01*
X871081Y565773D01*
X871067Y565808D01*
X871058Y565864D01*
X871033Y565908D01*
X871018Y565955D01*
X870979Y566005D01*
X870949Y566060D01*
X870905Y566099D01*
X870880Y566132D01*
X870848Y566151D01*
X870810Y566186D01*
X861666Y572282D01*
X861599Y572311D01*
X861537Y572348D01*
X861497Y572355D01*
X861460Y572371D01*
X861388Y572375D01*
X861316Y572388D01*
X861276Y572381D01*
X861236Y572383D01*
X861167Y572362D01*
X861095Y572349D01*
X861060Y572329D01*
X861022Y572317D01*
X860964Y572272D01*
X860901Y572236D01*
X860876Y572205D01*
X860844Y572180D01*
X860806Y572118D01*
X860760Y572062D01*
X860747Y572024D01*
X860725Y571990D01*
X860710Y571918D01*
X860687Y571850D01*
X860687Y571804D01*
X860680Y571770D01*
X860687Y571726D01*
X860686Y571662D01*
X861448Y566455D01*
X861469Y566394D01*
X861480Y566331D01*
X861504Y566289D01*
X861520Y566242D01*
X861560Y566193D01*
X861592Y566137D01*
X861635Y566099D01*
X861661Y566068D01*
X861693Y566048D01*
X861733Y566013D01*
X866817Y562745D01*
X867797Y554786D01*
X867809Y554744D01*
X867810Y554729D01*
X867818Y554709D01*
X867826Y554657D01*
X867849Y554616D01*
X867863Y554571D01*
X867886Y554541D01*
X867894Y554522D01*
X867913Y554500D01*
X867935Y554461D01*
X867976Y554424D01*
X868000Y554393D01*
X868027Y554376D01*
X868046Y554356D01*
X868059Y554349D01*
X868074Y554335D01*
X871884Y551795D01*
X871947Y551768D01*
X872006Y551732D01*
X872049Y551723D01*
X872090Y551706D01*
X872159Y551702D01*
X872226Y551689D01*
X872270Y551696D01*
G37*
D10*
X879124Y655606D03*
X879124Y135666D03*
D11*
X666774Y135536D03*
X666774Y655606D03*
D12*
X166774Y655606D03*
X166774Y135536D03*
D13*
X683230Y269310D03*
X683230Y259310D03*
X683230Y279310D03*
X683230Y249310D03*
D14*
X707230Y585310D03*
X707230Y203310D03*
D13*
X683230Y239310D03*
X683230Y229310D03*
X683230Y289310D03*
X683230Y299310D03*
X683230Y309310D03*
X683230Y319310D03*
X683230Y329310D03*
X683230Y339310D03*
X683230Y349310D03*
X683230Y359310D03*
X683230Y369310D03*
X683230Y379310D03*
X683230Y389310D03*
X683230Y399310D03*
X683230Y409310D03*
X683230Y419310D03*
X683230Y429310D03*
X683230Y439310D03*
X683230Y449310D03*
X683230Y459310D03*
X683230Y469310D03*
X683230Y479310D03*
X683230Y489310D03*
X683230Y499310D03*
X683230Y509310D03*
X683230Y519310D03*
X683230Y529310D03*
X683230Y539310D03*
X683230Y549310D03*
X683230Y559310D03*
D15*
X442062Y147576D02*
X442062Y132336D01*
X416662Y132336D02*
X416662Y147576D01*
X391262Y147576D02*
X391262Y132336D01*
X467462Y132336D02*
X467462Y147576D01*
X355219Y477012D02*
X355219Y492252D01*
X329819Y492252D02*
X329819Y477012D01*
X412750Y296545D02*
X412750Y281305D01*
X387350Y281305D02*
X387350Y296545D01*
D16*
X356616Y565023D03*
X317500Y561975D03*
X523875Y282575D03*
X320675Y320675D03*
X539750Y333375D03*
X593725Y333375D03*
X457200Y333375D03*
X501650Y333375D03*
X371856Y230251D03*
X409575Y231775D03*
X447675Y231775D03*
X485775Y231775D03*
D17*
X918718Y434848D02*
X918972Y454406D01*
X918972Y455168D01*
X918970Y455352D01*
X918963Y455536D01*
X918952Y455720D01*
X918936Y455903D01*
X918916Y456086D01*
X918892Y456269D01*
X918863Y456451D01*
X918830Y456632D01*
X918792Y456812D01*
X918751Y456992D01*
X918704Y457170D01*
X918654Y457347D01*
X918599Y457523D01*
X918540Y457697D01*
X918477Y457870D01*
X918409Y458041D01*
X918338Y458211D01*
X918262Y458379D01*
X918183Y458545D01*
X918099Y458709D01*
X918012Y458871D01*
X917920Y459031D01*
X917825Y459189D01*
X917726Y459344D01*
X917623Y459497D01*
X917517Y459647D01*
X917407Y459795D01*
X917293Y459940D01*
X917176Y460082D01*
X917056Y460221D01*
X916932Y460357D01*
X916805Y460491D01*
X916675Y460621D01*
X916541Y460748D01*
X916405Y460872D01*
X916266Y460992D01*
X916124Y461109D01*
X915979Y461223D01*
X915831Y461333D01*
X915681Y461439D01*
X915528Y461542D01*
X915373Y461641D01*
X915215Y461736D01*
X915055Y461828D01*
X914893Y461915D01*
X914729Y461999D01*
X914563Y462078D01*
X914395Y462154D01*
X914225Y462225D01*
X914054Y462293D01*
X913881Y462356D01*
X913707Y462415D01*
X913531Y462470D01*
X913354Y462520D01*
X913176Y462567D01*
X912996Y462608D01*
X912816Y462646D01*
X912635Y462679D01*
X912453Y462708D01*
X912270Y462732D01*
X912087Y462752D01*
X911904Y462768D01*
X911720Y462779D01*
X911536Y462786D01*
X911352Y462788D01*
X890016Y462788D01*
X900430Y460502D02*
X900430Y434848D01*
X918972Y421640D02*
X918972Y402082D01*
X918972Y421640D02*
X918970Y421837D01*
X918962Y422035D01*
X918950Y422231D01*
X918934Y422428D01*
X918912Y422624D01*
X918886Y422820D01*
X918855Y423015D01*
X918819Y423209D01*
X918779Y423402D01*
X918734Y423594D01*
X918684Y423785D01*
X918630Y423975D01*
X918571Y424163D01*
X918507Y424350D01*
X918439Y424535D01*
X918367Y424719D01*
X918290Y424900D01*
X918209Y425080D01*
X918123Y425258D01*
X918033Y425434D01*
X917939Y425607D01*
X917840Y425778D01*
X917738Y425947D01*
X917631Y426113D01*
X917521Y426276D01*
X917406Y426437D01*
X917288Y426595D01*
X917166Y426750D01*
X917040Y426902D01*
X916911Y427051D01*
X916778Y427196D01*
X916641Y427339D01*
X916501Y427478D01*
X916358Y427614D01*
X916211Y427746D01*
X916061Y427874D01*
X915909Y427999D01*
X915753Y428120D01*
X915594Y428238D01*
X915433Y428351D01*
X915269Y428460D01*
X915102Y428566D01*
X914932Y428667D01*
X914761Y428764D01*
X914587Y428857D01*
X914410Y428946D01*
X914232Y429031D01*
X914052Y429111D01*
X913870Y429187D01*
X913686Y429258D01*
X913500Y429325D01*
X913313Y429387D01*
X913124Y429445D01*
X912934Y429498D01*
X912743Y429546D01*
X912550Y429590D01*
X912357Y429629D01*
X912163Y429664D01*
X911967Y429693D01*
X911772Y429718D01*
X911575Y429739D01*
X911379Y429754D01*
X911182Y429765D01*
X910984Y429771D01*
X910787Y429772D01*
X910590Y429768D01*
X890016Y430022D01*
X918718Y395732D02*
X918718Y375412D01*
X918716Y375213D01*
X918708Y375015D01*
X918696Y374817D01*
X918679Y374619D01*
X918657Y374421D01*
X918631Y374224D01*
X918599Y374028D01*
X918563Y373833D01*
X918522Y373638D01*
X918477Y373445D01*
X918426Y373253D01*
X918371Y373062D01*
X918311Y372873D01*
X918247Y372685D01*
X918178Y372498D01*
X918105Y372314D01*
X918027Y372131D01*
X917944Y371950D01*
X917858Y371772D01*
X917767Y371595D01*
X917671Y371421D01*
X917572Y371249D01*
X917468Y371079D01*
X917360Y370913D01*
X917248Y370749D01*
X917132Y370587D01*
X917012Y370429D01*
X916889Y370273D01*
X916761Y370121D01*
X916630Y369972D01*
X916495Y369826D01*
X916357Y369683D01*
X916216Y369544D01*
X916070Y369408D01*
X915922Y369276D01*
X915771Y369147D01*
X915616Y369022D01*
X915459Y368901D01*
X915298Y368784D01*
X915135Y368671D01*
X914969Y368562D01*
X914800Y368457D01*
X914629Y368356D01*
X914455Y368260D01*
X914280Y368167D01*
X914101Y368079D01*
X913921Y367995D01*
X913739Y367916D01*
X913555Y367841D01*
X913369Y367771D01*
X913182Y367705D01*
X912993Y367644D01*
X912802Y367588D01*
X912611Y367536D01*
X912418Y367489D01*
X912223Y367447D01*
X912028Y367409D01*
X911833Y367376D01*
X911636Y367348D01*
X911439Y367325D01*
X911241Y367306D01*
X911043Y367293D01*
X910844Y367284D01*
X889762Y367538D01*
X890778Y376428D02*
X890778Y390652D01*
X890781Y390867D01*
X890788Y391083D01*
X890801Y391298D01*
X890820Y391513D01*
X890843Y391727D01*
X890872Y391940D01*
X890906Y392153D01*
X890945Y392365D01*
X890989Y392576D01*
X891038Y392786D01*
X891092Y392994D01*
X891151Y393201D01*
X891215Y393407D01*
X891285Y393611D01*
X891359Y393813D01*
X891438Y394014D01*
X891522Y394212D01*
X891610Y394409D01*
X891704Y394603D01*
X891802Y394795D01*
X891904Y394984D01*
X892012Y395171D01*
X892123Y395355D01*
X892240Y395537D01*
X892360Y395715D01*
X892485Y395891D01*
X892614Y396064D01*
X892747Y396233D01*
X892884Y396399D01*
X893025Y396562D01*
X893171Y396721D01*
X893320Y396877D01*
X893472Y397029D01*
X893628Y397177D01*
X893788Y397322D01*
X893952Y397462D01*
X894118Y397599D01*
X894288Y397731D01*
X894461Y397860D01*
X894637Y397984D01*
X894816Y398104D01*
X894998Y398219D01*
X895183Y398330D01*
X895370Y398437D01*
X895560Y398538D01*
X895753Y398636D01*
X895947Y398728D01*
X896144Y398816D01*
X896343Y398899D01*
X896543Y398978D01*
X896746Y399051D01*
X896950Y399119D01*
X897156Y399183D01*
X897364Y399241D01*
X897572Y399295D01*
X897782Y399343D01*
X897993Y399386D01*
X898205Y399424D01*
X898418Y399457D01*
X898632Y399485D01*
X898846Y399508D01*
X899061Y399525D01*
X899276Y399537D01*
X899492Y399544D01*
X899707Y399546D01*
X899922Y399542D01*
X900167Y399532D01*
X900411Y399516D01*
X900654Y399495D01*
X900897Y399467D01*
X901139Y399433D01*
X901380Y399394D01*
X901621Y399348D01*
X901860Y399297D01*
X902097Y399240D01*
X902334Y399177D01*
X902568Y399109D01*
X902801Y399035D01*
X903032Y398955D01*
X903261Y398869D01*
X903488Y398778D01*
X903713Y398682D01*
X903935Y398580D01*
X904154Y398472D01*
X904371Y398360D01*
X904585Y398242D01*
X904797Y398118D01*
X905005Y397990D01*
X905210Y397857D01*
X905411Y397719D01*
X905609Y397576D01*
X905804Y397428D01*
X905995Y397275D01*
X906182Y397118D01*
X906365Y396956D01*
X906545Y396790D01*
X906720Y396619D01*
X906891Y396445D01*
X907058Y396266D01*
X907220Y396083D01*
X907378Y395896D01*
X907531Y395706D01*
X907679Y395512D01*
X907823Y395314D01*
X907962Y395113D01*
X908096Y394908D01*
X908225Y394700D01*
X908348Y394490D01*
X908467Y394276D01*
X908580Y394059D01*
X908688Y393840D01*
X908791Y393618D01*
X908888Y393394D01*
X908980Y393167D01*
X909066Y392938D01*
X909066Y369316D01*
X918972Y350774D02*
X918972Y328422D01*
X918972Y350774D02*
X918970Y350967D01*
X918963Y351161D01*
X918951Y351354D01*
X918934Y351546D01*
X918913Y351739D01*
X918887Y351930D01*
X918856Y352121D01*
X918821Y352311D01*
X918781Y352501D01*
X918737Y352689D01*
X918688Y352876D01*
X918634Y353062D01*
X918576Y353246D01*
X918513Y353429D01*
X918446Y353610D01*
X918374Y353790D01*
X918298Y353968D01*
X918218Y354144D01*
X918134Y354318D01*
X918045Y354490D01*
X917952Y354659D01*
X917855Y354826D01*
X917754Y354991D01*
X917648Y355154D01*
X917539Y355313D01*
X917426Y355470D01*
X917310Y355625D01*
X917189Y355776D01*
X917065Y355924D01*
X916937Y356069D01*
X916806Y356211D01*
X916671Y356350D01*
X916533Y356486D01*
X916392Y356618D01*
X916248Y356746D01*
X916100Y356871D01*
X915949Y356993D01*
X915796Y357110D01*
X915639Y357224D01*
X915480Y357334D01*
X915319Y357440D01*
X915154Y357542D01*
X914988Y357640D01*
X914819Y357734D01*
X914647Y357824D01*
X914474Y357909D01*
X914298Y357990D01*
X914121Y358067D01*
X913942Y358140D01*
X913761Y358208D01*
X913578Y358272D01*
X913394Y358331D01*
X913208Y358386D01*
X913022Y358436D01*
X912834Y358481D01*
X912645Y358522D01*
X912455Y358559D01*
X912264Y358590D01*
X912072Y358617D01*
X911880Y358640D01*
X911688Y358657D01*
X911495Y358670D01*
X911302Y358678D01*
X911108Y358682D01*
X910915Y358681D01*
X910721Y358675D01*
X910528Y358664D01*
X910336Y358648D01*
X898906Y358394D01*
X898701Y358387D01*
X898496Y358375D01*
X898291Y358358D01*
X898087Y358336D01*
X897883Y358309D01*
X897681Y358277D01*
X897479Y358241D01*
X897278Y358199D01*
X897078Y358152D01*
X896879Y358101D01*
X896681Y358045D01*
X896485Y357984D01*
X896291Y357919D01*
X896098Y357848D01*
X895907Y357773D01*
X895717Y357694D01*
X895530Y357610D01*
X895345Y357521D01*
X895162Y357428D01*
X894981Y357331D01*
X894803Y357229D01*
X894627Y357123D01*
X894454Y357012D01*
X894284Y356898D01*
X894116Y356779D01*
X893951Y356656D01*
X893790Y356530D01*
X893631Y356399D01*
X893476Y356265D01*
X893324Y356127D01*
X893175Y355985D01*
X893030Y355840D01*
X892889Y355691D01*
X892751Y355539D01*
X892617Y355384D01*
X892486Y355225D01*
X892360Y355064D01*
X892237Y354899D01*
X892119Y354731D01*
X892004Y354561D01*
X891894Y354388D01*
X891788Y354212D01*
X891686Y354034D01*
X891589Y353853D01*
X891496Y353670D01*
X891407Y353485D01*
X891323Y353297D01*
X891244Y353108D01*
X891169Y352917D01*
X891099Y352724D01*
X891033Y352529D01*
X890972Y352333D01*
X890917Y352136D01*
X890865Y351937D01*
X890819Y351737D01*
X890778Y351536D01*
X890524Y328422D01*
X903732Y318770D02*
X919988Y318770D01*
X903732Y318770D02*
X889762Y318770D01*
X903732Y318770D02*
X918972Y286766D01*
X890270Y286766D02*
X904748Y315976D01*
X918464Y279146D02*
X918464Y243586D01*
X918718Y261112D02*
X890016Y261112D01*
X918718Y237236D02*
X918718Y216916D01*
X918716Y216717D01*
X918708Y216519D01*
X918696Y216321D01*
X918679Y216123D01*
X918657Y215925D01*
X918631Y215728D01*
X918599Y215532D01*
X918563Y215337D01*
X918522Y215142D01*
X918477Y214949D01*
X918426Y214757D01*
X918371Y214566D01*
X918311Y214377D01*
X918247Y214189D01*
X918178Y214002D01*
X918105Y213818D01*
X918027Y213635D01*
X917944Y213454D01*
X917858Y213276D01*
X917767Y213099D01*
X917671Y212925D01*
X917572Y212753D01*
X917468Y212583D01*
X917360Y212417D01*
X917248Y212253D01*
X917132Y212091D01*
X917012Y211933D01*
X916889Y211777D01*
X916761Y211625D01*
X916630Y211476D01*
X916495Y211330D01*
X916357Y211187D01*
X916216Y211048D01*
X916070Y210912D01*
X915922Y210780D01*
X915771Y210651D01*
X915616Y210526D01*
X915459Y210405D01*
X915298Y210288D01*
X915135Y210175D01*
X914969Y210066D01*
X914800Y209961D01*
X914629Y209860D01*
X914455Y209764D01*
X914280Y209671D01*
X914101Y209583D01*
X913921Y209499D01*
X913739Y209420D01*
X913555Y209345D01*
X913369Y209275D01*
X913182Y209209D01*
X912993Y209148D01*
X912802Y209092D01*
X912611Y209040D01*
X912418Y208993D01*
X912223Y208951D01*
X912028Y208913D01*
X911833Y208880D01*
X911636Y208852D01*
X911439Y208829D01*
X911241Y208810D01*
X911043Y208797D01*
X910844Y208788D01*
X889762Y209042D01*
X890778Y217932D02*
X890778Y232156D01*
X890781Y232371D01*
X890788Y232587D01*
X890801Y232802D01*
X890820Y233017D01*
X890843Y233231D01*
X890872Y233444D01*
X890906Y233657D01*
X890945Y233869D01*
X890989Y234080D01*
X891038Y234290D01*
X891092Y234498D01*
X891151Y234705D01*
X891215Y234911D01*
X891285Y235115D01*
X891359Y235317D01*
X891438Y235518D01*
X891522Y235716D01*
X891610Y235913D01*
X891704Y236107D01*
X891802Y236299D01*
X891904Y236488D01*
X892012Y236675D01*
X892123Y236859D01*
X892240Y237041D01*
X892360Y237219D01*
X892485Y237395D01*
X892614Y237568D01*
X892747Y237737D01*
X892884Y237903D01*
X893025Y238066D01*
X893171Y238225D01*
X893320Y238381D01*
X893472Y238533D01*
X893628Y238681D01*
X893788Y238826D01*
X893952Y238966D01*
X894118Y239103D01*
X894288Y239235D01*
X894461Y239364D01*
X894637Y239488D01*
X894816Y239608D01*
X894998Y239723D01*
X895183Y239834D01*
X895370Y239941D01*
X895560Y240042D01*
X895753Y240140D01*
X895947Y240232D01*
X896144Y240320D01*
X896343Y240403D01*
X896543Y240482D01*
X896746Y240555D01*
X896950Y240623D01*
X897156Y240687D01*
X897364Y240745D01*
X897572Y240799D01*
X897782Y240847D01*
X897993Y240890D01*
X898205Y240928D01*
X898418Y240961D01*
X898632Y240989D01*
X898846Y241012D01*
X899061Y241029D01*
X899276Y241041D01*
X899492Y241048D01*
X899707Y241050D01*
X899922Y241046D01*
X900167Y241036D01*
X900411Y241020D01*
X900654Y240999D01*
X900897Y240971D01*
X901139Y240937D01*
X901380Y240898D01*
X901621Y240852D01*
X901860Y240801D01*
X902097Y240744D01*
X902334Y240681D01*
X902568Y240613D01*
X902801Y240539D01*
X903032Y240459D01*
X903261Y240373D01*
X903488Y240282D01*
X903713Y240186D01*
X903935Y240084D01*
X904154Y239976D01*
X904371Y239864D01*
X904585Y239746D01*
X904797Y239622D01*
X905005Y239494D01*
X905210Y239361D01*
X905411Y239223D01*
X905609Y239080D01*
X905804Y238932D01*
X905995Y238779D01*
X906182Y238622D01*
X906365Y238460D01*
X906545Y238294D01*
X906720Y238123D01*
X906891Y237949D01*
X907058Y237770D01*
X907220Y237587D01*
X907378Y237400D01*
X907531Y237210D01*
X907679Y237016D01*
X907823Y236818D01*
X907962Y236617D01*
X908096Y236412D01*
X908225Y236204D01*
X908348Y235994D01*
X908467Y235780D01*
X908580Y235563D01*
X908688Y235344D01*
X908791Y235122D01*
X908888Y234898D01*
X908980Y234671D01*
X909066Y234442D01*
X909066Y210820D01*
X898906Y197358D02*
X920242Y197358D01*
X898906Y197358D02*
X898706Y197356D01*
X898505Y197348D01*
X898305Y197336D01*
X898106Y197319D01*
X897906Y197297D01*
X897708Y197270D01*
X897510Y197238D01*
X897313Y197201D01*
X897117Y197160D01*
X896922Y197113D01*
X896728Y197062D01*
X896535Y197006D01*
X896344Y196946D01*
X896155Y196881D01*
X895967Y196811D01*
X895781Y196736D01*
X895597Y196657D01*
X895414Y196574D01*
X895234Y196486D01*
X895056Y196394D01*
X894881Y196297D01*
X894708Y196196D01*
X894537Y196091D01*
X894369Y195982D01*
X894204Y195868D01*
X894041Y195751D01*
X893882Y195630D01*
X893725Y195504D01*
X893572Y195375D01*
X893422Y195243D01*
X893275Y195106D01*
X893131Y194966D01*
X892991Y194823D01*
X892855Y194676D01*
X892722Y194526D01*
X892593Y194372D01*
X892468Y194216D01*
X892347Y194057D01*
X892229Y193894D01*
X892116Y193729D01*
X892006Y193561D01*
X891901Y193390D01*
X891800Y193217D01*
X891704Y193041D01*
X891611Y192864D01*
X891523Y192683D01*
X891440Y192501D01*
X891361Y192317D01*
X891287Y192131D01*
X891217Y191943D01*
X891151Y191754D01*
X891091Y191562D01*
X891035Y191370D01*
X890984Y191176D01*
X890938Y190981D01*
X890896Y190785D01*
X890859Y190588D01*
X890828Y190390D01*
X890801Y190192D01*
X890778Y189992D01*
X890524Y169164D01*
X853440Y464058D02*
X830834Y464058D01*
X830667Y464056D01*
X830500Y464050D01*
X830333Y464040D01*
X830167Y464025D01*
X830000Y464007D01*
X829835Y463985D01*
X829670Y463959D01*
X829505Y463928D01*
X829342Y463894D01*
X829179Y463856D01*
X829018Y463813D01*
X828857Y463767D01*
X828698Y463717D01*
X828539Y463663D01*
X828383Y463605D01*
X828227Y463544D01*
X828073Y463478D01*
X827921Y463409D01*
X827771Y463336D01*
X827622Y463260D01*
X827475Y463180D01*
X827331Y463097D01*
X827188Y463009D01*
X827048Y462919D01*
X826909Y462825D01*
X826773Y462728D01*
X826640Y462627D01*
X826509Y462524D01*
X826380Y462417D01*
X826255Y462307D01*
X826131Y462194D01*
X826011Y462078D01*
X825894Y461959D01*
X825779Y461837D01*
X825668Y461713D01*
X825559Y461586D01*
X825454Y461456D01*
X825352Y461324D01*
X825253Y461189D01*
X825157Y461052D01*
X825065Y460912D01*
X824976Y460771D01*
X824891Y460627D01*
X824809Y460481D01*
X824731Y460334D01*
X824656Y460184D01*
X824585Y460033D01*
X824518Y459880D01*
X824454Y459725D01*
X824395Y459569D01*
X824339Y459412D01*
X824287Y459253D01*
X824239Y459093D01*
X824194Y458932D01*
X824154Y458770D01*
X824118Y458607D01*
X824085Y458443D01*
X824057Y458278D01*
X824033Y458113D01*
X824012Y457947D01*
X823996Y457780D01*
X823984Y457614D01*
X823976Y457447D01*
X823972Y457280D01*
X823971Y457113D01*
X823976Y456946D01*
X823976Y427482D01*
X823978Y427331D01*
X823984Y427179D01*
X823994Y427028D01*
X824007Y426877D01*
X824025Y426727D01*
X824046Y426577D01*
X824072Y426427D01*
X824101Y426279D01*
X824134Y426131D01*
X824171Y425984D01*
X824211Y425838D01*
X824256Y425693D01*
X824304Y425549D01*
X824356Y425407D01*
X824411Y425266D01*
X824470Y425126D01*
X824533Y424989D01*
X824599Y424852D01*
X824669Y424718D01*
X824742Y424585D01*
X824818Y424454D01*
X824898Y424326D01*
X824982Y424199D01*
X825068Y424075D01*
X825158Y423953D01*
X825250Y423833D01*
X825346Y423715D01*
X825445Y423601D01*
X825547Y423488D01*
X825652Y423379D01*
X825759Y423272D01*
X825869Y423168D01*
X825982Y423067D01*
X826097Y422969D01*
X826215Y422874D01*
X826335Y422781D01*
X826458Y422692D01*
X826583Y422607D01*
X826710Y422524D01*
X826839Y422445D01*
X826970Y422369D01*
X827104Y422297D01*
X827238Y422228D01*
X827375Y422163D01*
X827513Y422101D01*
X827653Y422042D01*
X827794Y421988D01*
X827937Y421937D01*
X828081Y421889D01*
X828226Y421846D01*
X828372Y421806D01*
X828520Y421770D01*
X828668Y421738D01*
X828816Y421710D01*
X828966Y421685D01*
X829116Y421665D01*
X829267Y421648D01*
X829418Y421635D01*
X829569Y421626D01*
X829720Y421621D01*
X829872Y421620D01*
X830023Y421623D01*
X830175Y421630D01*
X830326Y421640D01*
X852678Y421640D01*
X853186Y442976D02*
X824230Y442976D01*
X842772Y410718D02*
X845312Y410718D01*
X842772Y410718D02*
X831596Y410718D01*
X831422Y410722D01*
X831249Y410721D01*
X831076Y410717D01*
X830903Y410708D01*
X830731Y410695D01*
X830559Y410678D01*
X830387Y410657D01*
X830216Y410631D01*
X830045Y410601D01*
X829875Y410568D01*
X829706Y410530D01*
X829538Y410488D01*
X829372Y410442D01*
X829206Y410391D01*
X829041Y410337D01*
X828878Y410279D01*
X828717Y410217D01*
X828557Y410151D01*
X828398Y410081D01*
X828242Y410008D01*
X828087Y409930D01*
X827934Y409849D01*
X827783Y409764D01*
X827634Y409676D01*
X827488Y409583D01*
X827343Y409488D01*
X827202Y409389D01*
X827062Y409286D01*
X826925Y409180D01*
X826791Y409071D01*
X826659Y408958D01*
X826530Y408843D01*
X826404Y408724D01*
X826281Y408602D01*
X826161Y408478D01*
X826044Y408350D01*
X825930Y408220D01*
X825820Y408087D01*
X825712Y407951D01*
X825608Y407812D01*
X825508Y407672D01*
X825411Y407528D01*
X825317Y407383D01*
X825227Y407235D01*
X825140Y407085D01*
X825057Y406933D01*
X824978Y406779D01*
X824903Y406623D01*
X824831Y406466D01*
X824764Y406306D01*
X824700Y406145D01*
X824640Y405983D01*
X824584Y405819D01*
X824532Y405654D01*
X824484Y405488D01*
X824440Y405320D01*
X824401Y405152D01*
X824365Y404982D01*
X824334Y404812D01*
X824306Y404641D01*
X824283Y404470D01*
X824264Y404298D01*
X824249Y404125D01*
X824239Y403952D01*
X824232Y403779D01*
X824230Y403606D01*
X824230Y387350D01*
X824232Y387148D01*
X824240Y386945D01*
X824252Y386743D01*
X824269Y386542D01*
X824292Y386341D01*
X824319Y386140D01*
X824351Y385940D01*
X824387Y385741D01*
X824429Y385543D01*
X824475Y385346D01*
X824527Y385151D01*
X824583Y384956D01*
X824643Y384763D01*
X824709Y384572D01*
X824779Y384382D01*
X824853Y384194D01*
X824932Y384008D01*
X825016Y383823D01*
X825104Y383641D01*
X825197Y383461D01*
X825294Y383284D01*
X825395Y383108D01*
X825500Y382936D01*
X825610Y382766D01*
X825724Y382598D01*
X825842Y382434D01*
X825963Y382272D01*
X826089Y382114D01*
X826219Y381958D01*
X826352Y381806D01*
X826489Y381657D01*
X826629Y381511D01*
X826773Y381369D01*
X826921Y381230D01*
X827072Y381096D01*
X827226Y380964D01*
X827383Y380837D01*
X827543Y380713D01*
X827706Y380594D01*
X827872Y380478D01*
X828041Y380366D01*
X828213Y380259D01*
X828387Y380156D01*
X828563Y380057D01*
X828742Y379962D01*
X828923Y379872D01*
X829106Y379786D01*
X829292Y379705D01*
X829479Y379628D01*
X829668Y379556D01*
X829859Y379489D01*
X830051Y379426D01*
X830245Y379368D01*
X830440Y379314D01*
X830637Y379266D01*
X830834Y379222D01*
X844296Y379222D01*
X844479Y379224D01*
X844661Y379231D01*
X844844Y379242D01*
X845026Y379258D01*
X845207Y379278D01*
X845388Y379303D01*
X845569Y379332D01*
X845748Y379365D01*
X845927Y379403D01*
X846105Y379445D01*
X846281Y379492D01*
X846457Y379542D01*
X846631Y379598D01*
X846804Y379657D01*
X846975Y379721D01*
X847145Y379788D01*
X847313Y379860D01*
X847479Y379936D01*
X847643Y380016D01*
X847805Y380101D01*
X847965Y380189D01*
X848123Y380281D01*
X848279Y380376D01*
X848432Y380476D01*
X848582Y380579D01*
X848731Y380686D01*
X848876Y380797D01*
X849019Y380911D01*
X849158Y381029D01*
X849295Y381150D01*
X849429Y381274D01*
X849560Y381401D01*
X849688Y381532D01*
X849812Y381666D01*
X849933Y381803D01*
X850051Y381942D01*
X850165Y382085D01*
X850276Y382230D01*
X850383Y382378D01*
X850486Y382529D01*
X850586Y382682D01*
X850682Y382838D01*
X850774Y382995D01*
X850862Y383155D01*
X850946Y383318D01*
X851026Y383482D01*
X851103Y383648D01*
X851175Y383816D01*
X851243Y383985D01*
X851306Y384156D01*
X851366Y384329D01*
X851421Y384503D01*
X851472Y384679D01*
X851519Y384855D01*
X851561Y385033D01*
X851599Y385212D01*
X851633Y385391D01*
X851662Y385572D01*
X851662Y390144D01*
X851662Y402590D01*
X851662Y402844D02*
X851662Y390144D01*
X851662Y402844D02*
X851660Y403038D01*
X851652Y403233D01*
X851641Y403427D01*
X851624Y403621D01*
X851602Y403814D01*
X851576Y404007D01*
X851545Y404199D01*
X851510Y404390D01*
X851470Y404580D01*
X851425Y404769D01*
X851375Y404958D01*
X851321Y405144D01*
X851262Y405330D01*
X851199Y405514D01*
X851132Y405696D01*
X851059Y405877D01*
X850983Y406055D01*
X850902Y406232D01*
X850817Y406407D01*
X850727Y406580D01*
X850633Y406750D01*
X850536Y406918D01*
X850434Y407084D01*
X850328Y407247D01*
X850218Y407407D01*
X850104Y407565D01*
X849986Y407720D01*
X849865Y407872D01*
X849740Y408021D01*
X849611Y408167D01*
X849479Y408309D01*
X849343Y408448D01*
X849204Y408584D01*
X849062Y408717D01*
X848916Y408846D01*
X848767Y408971D01*
X848616Y409093D01*
X848461Y409211D01*
X848303Y409325D01*
X848143Y409435D01*
X847980Y409541D01*
X847815Y409643D01*
X847647Y409741D01*
X847476Y409835D01*
X847304Y409925D01*
X847129Y410011D01*
X846953Y410092D01*
X846774Y410169D01*
X846593Y410241D01*
X846411Y410309D01*
X846227Y410373D01*
X846042Y410432D01*
X845855Y410486D01*
X845667Y410536D01*
X845478Y410581D01*
X845288Y410622D01*
X845097Y410657D01*
X844905Y410689D01*
X844712Y410715D01*
X844519Y410737D01*
X844325Y410754D01*
X844131Y410766D01*
X843937Y410773D01*
X843742Y410776D01*
X843548Y410774D01*
X843353Y410767D01*
X843159Y410755D01*
X842965Y410739D01*
X842772Y410718D01*
X852170Y360680D02*
X852170Y340868D01*
X852170Y360680D02*
X852168Y360884D01*
X852160Y361087D01*
X852148Y361291D01*
X852131Y361493D01*
X852108Y361696D01*
X852081Y361898D01*
X852050Y362099D01*
X852013Y362299D01*
X851971Y362499D01*
X851925Y362697D01*
X851874Y362894D01*
X851818Y363090D01*
X851757Y363284D01*
X851692Y363477D01*
X851622Y363669D01*
X851547Y363858D01*
X851468Y364046D01*
X851384Y364232D01*
X851296Y364415D01*
X851204Y364597D01*
X851107Y364776D01*
X851005Y364953D01*
X850900Y365127D01*
X850790Y365298D01*
X850677Y365467D01*
X850559Y365634D01*
X850437Y365797D01*
X850311Y365957D01*
X850182Y366114D01*
X850048Y366268D01*
X849911Y366419D01*
X849771Y366566D01*
X849627Y366710D01*
X849479Y366850D01*
X849328Y366987D01*
X849174Y367120D01*
X849017Y367250D01*
X848856Y367375D01*
X848693Y367497D01*
X848526Y367614D01*
X848357Y367728D01*
X848185Y367837D01*
X848011Y367942D01*
X847834Y368043D01*
X847655Y368140D01*
X847473Y368232D01*
X847289Y368320D01*
X847104Y368403D01*
X846916Y368482D01*
X846726Y368556D01*
X846535Y368626D01*
X846342Y368691D01*
X846147Y368752D01*
X845951Y368807D01*
X845754Y368858D01*
X845556Y368904D01*
X845356Y368945D01*
X845156Y368982D01*
X844955Y369013D01*
X844753Y369040D01*
X844550Y369062D01*
X823214Y369062D01*
X836930Y335534D02*
X853186Y335534D01*
X836930Y335534D02*
X822960Y335534D01*
X836930Y335534D02*
X852170Y303530D01*
X823468Y303530D02*
X837946Y332740D01*
X851916Y291846D02*
X851662Y268986D01*
X851916Y291846D02*
X851915Y291990D01*
X851911Y292133D01*
X851903Y292277D01*
X851891Y292420D01*
X851875Y292563D01*
X851856Y292705D01*
X851832Y292847D01*
X851805Y292988D01*
X851774Y293129D01*
X851739Y293268D01*
X851700Y293406D01*
X851658Y293544D01*
X851612Y293680D01*
X851562Y293815D01*
X851509Y293948D01*
X851452Y294080D01*
X851391Y294211D01*
X851327Y294340D01*
X851260Y294467D01*
X851189Y294592D01*
X851115Y294715D01*
X851038Y294836D01*
X850957Y294955D01*
X850873Y295072D01*
X850786Y295186D01*
X850696Y295298D01*
X850603Y295408D01*
X850507Y295515D01*
X850409Y295619D01*
X850307Y295721D01*
X850203Y295820D01*
X850096Y295916D01*
X849986Y296009D01*
X849874Y296100D01*
X849760Y296187D01*
X849644Y296271D01*
X849525Y296352D01*
X849404Y296429D01*
X849281Y296504D01*
X849156Y296575D01*
X849029Y296642D01*
X848900Y296706D01*
X848770Y296767D01*
X848638Y296824D01*
X848504Y296878D01*
X848370Y296928D01*
X848234Y296974D01*
X848096Y297017D01*
X847958Y297055D01*
X847818Y297091D01*
X847678Y297122D01*
X847537Y297149D01*
X847395Y297173D01*
X847253Y297193D01*
X847110Y297209D01*
X846967Y297221D01*
X846823Y297230D01*
X846680Y297234D01*
X846536Y297235D01*
X846392Y297231D01*
X846249Y297224D01*
X846105Y297213D01*
X845962Y297198D01*
X845820Y297180D01*
X845652Y297158D01*
X845483Y297140D01*
X845313Y297125D01*
X845144Y297115D01*
X844974Y297109D01*
X844804Y297107D01*
X844634Y297109D01*
X844464Y297115D01*
X844295Y297125D01*
X844125Y297140D01*
X843956Y297158D01*
X843788Y297180D01*
X843648Y297198D01*
X843507Y297213D01*
X843367Y297223D01*
X843225Y297230D01*
X843084Y297233D01*
X842943Y297232D01*
X842802Y297227D01*
X842661Y297218D01*
X842520Y297205D01*
X842380Y297188D01*
X842240Y297168D01*
X842101Y297144D01*
X841962Y297115D01*
X841824Y297083D01*
X841688Y297047D01*
X841552Y297008D01*
X841418Y296964D01*
X841284Y296917D01*
X841153Y296867D01*
X841022Y296812D01*
X840893Y296755D01*
X840766Y296693D01*
X840640Y296628D01*
X840517Y296560D01*
X840395Y296488D01*
X840275Y296413D01*
X840158Y296335D01*
X840042Y296253D01*
X839929Y296168D01*
X839819Y296080D01*
X839710Y295989D01*
X839605Y295896D01*
X839502Y295799D01*
X839401Y295699D01*
X839304Y295597D01*
X839209Y295492D01*
X839118Y295385D01*
X839029Y295275D01*
X838943Y295162D01*
X838861Y295048D01*
X838781Y294931D01*
X838705Y294812D01*
X838633Y294690D01*
X838563Y294567D01*
X838497Y294442D01*
X838435Y294316D01*
X838376Y294187D01*
X838321Y294057D01*
X838269Y293926D01*
X838221Y293793D01*
X838176Y293659D01*
X838136Y293523D01*
X838099Y293387D01*
X838066Y293250D01*
X838036Y293111D01*
X838011Y292972D01*
X837989Y292833D01*
X837971Y292693D01*
X837957Y292552D01*
X837947Y292411D01*
X837941Y292270D01*
X837939Y292129D01*
X837941Y291987D01*
X837946Y291846D01*
X837946Y275590D01*
X837944Y275444D01*
X837938Y275299D01*
X837929Y275154D01*
X837916Y275009D01*
X837898Y274864D01*
X837877Y274720D01*
X837853Y274576D01*
X837824Y274433D01*
X837792Y274291D01*
X837756Y274150D01*
X837717Y274010D01*
X837674Y273871D01*
X837627Y273733D01*
X837576Y273596D01*
X837522Y273461D01*
X837465Y273327D01*
X837404Y273195D01*
X837339Y273065D01*
X837271Y272936D01*
X837200Y272809D01*
X837126Y272684D01*
X837048Y272560D01*
X836967Y272439D01*
X836883Y272320D01*
X836796Y272204D01*
X836705Y272089D01*
X836612Y271978D01*
X836516Y271868D01*
X836417Y271761D01*
X836316Y271657D01*
X836211Y271555D01*
X836104Y271457D01*
X835995Y271361D01*
X835883Y271268D01*
X835768Y271178D01*
X835651Y271090D01*
X835532Y271006D01*
X835411Y270926D01*
X835288Y270848D01*
X835163Y270774D01*
X835036Y270703D01*
X834907Y270635D01*
X834776Y270571D01*
X834644Y270510D01*
X834643Y270510D02*
X834446Y270425D01*
X834246Y270345D01*
X834044Y270269D01*
X833840Y270199D01*
X833635Y270134D01*
X833428Y270073D01*
X833220Y270018D01*
X833010Y269968D01*
X832800Y269922D01*
X832588Y269882D01*
X832375Y269848D01*
X832162Y269818D01*
X831948Y269794D01*
X831733Y269774D01*
X831518Y269760D01*
X831303Y269752D01*
X831088Y269748D01*
X830891Y269750D01*
X830695Y269756D01*
X830499Y269767D01*
X830303Y269782D01*
X830108Y269803D01*
X829913Y269828D01*
X829719Y269858D01*
X829526Y269892D01*
X829333Y269931D01*
X829142Y269974D01*
X828951Y270023D01*
X828762Y270075D01*
X828574Y270133D01*
X828388Y270194D01*
X828203Y270260D01*
X828020Y270331D01*
X827838Y270406D01*
X827658Y270485D01*
X827481Y270569D01*
X827305Y270657D01*
X827132Y270749D01*
X826960Y270845D01*
X826791Y270945D01*
X826625Y271049D01*
X826461Y271158D01*
X826300Y271270D01*
X826141Y271386D01*
X825986Y271505D01*
X825833Y271629D01*
X825683Y271756D01*
X825536Y271887D01*
X825393Y272021D01*
X825253Y272158D01*
X825116Y272299D01*
X824982Y272443D01*
X824852Y272590D01*
X824726Y272740D01*
X824603Y272894D01*
X824484Y273050D01*
X824413Y273149D01*
X824344Y273251D01*
X824279Y273354D01*
X824218Y273459D01*
X824159Y273567D01*
X824104Y273676D01*
X824052Y273786D01*
X824004Y273899D01*
X823959Y274012D01*
X823918Y274127D01*
X823881Y274244D01*
X823847Y274361D01*
X823817Y274479D01*
X823790Y274599D01*
X823768Y274719D01*
X823749Y274839D01*
X823733Y274960D01*
X823722Y275082D01*
X823722Y296672D01*
D18*
X506010Y497000D03*
X516010Y497000D03*
X496010Y497000D03*
X526010Y497000D03*
D19*
X410010Y521000D03*
X572010Y521000D03*
D18*
X536010Y497000D03*
X546010Y497000D03*
X486010Y497000D03*
X476010Y497000D03*
X466010Y497000D03*
X456010Y497000D03*
X446010Y497000D03*
X436010Y497000D03*
D20*
X527050Y403225D03*
X508000Y476250D03*
X538607Y368046D03*
X549275Y400050D03*
X520700Y476250D03*
X574675Y333375D03*
X558800Y476250D03*
X596900Y379310D03*
X387350Y361950D03*
X533400Y514350D03*
X544576Y472440D03*
X660400Y361950D03*
X371475Y571500D03*
X529590Y471678D03*
X514350Y527050D03*
X647700Y501650D03*
X704850Y349250D03*
X503428Y411226D03*
X496556Y476250D03*
X521208Y355473D03*
X476250Y431800D03*
X476250Y358775D03*
X444500Y469900D03*
X444500Y346075D03*
X414710Y389310D03*
X363982Y320675D03*
X371475Y159742D03*
X416662Y224688D03*
X442062Y226162D03*
X467462Y216129D03*
M02*
