M48
;GenerationSoftware,Autodesk,EAGLE,9.6.2*%
;CreationDate,2023-01-13T05:03:22Z*%
FMAT,2
ICI,OFF
METRIC,TZ,000.000
T6C0.350
T5C0.381
T4C1.016
T3C3.000
T2C3.509
T1C4.500
%
G90
M71
T1
X16129Y65989
X16129Y13995
T2
X87363Y13983
X87351Y65994
T3
X37363Y13983
X37363Y65989
T4
X64910Y14420
X57290Y14420
X62370Y14420
X59830Y14420
X63475Y28473
X66015Y28473
X69291Y48006
X71831Y48006
T5
X54889Y27559
X71425Y31115
X55931Y31648
X59207Y31648
X52578Y31648
X54737Y21996
X59258Y21946
X63830Y21946
X67894Y21895
X49098Y31648
X73152Y54585
X67843Y54432
T6
X62467Y48006
X63475Y44374
X65964Y33782
X56443Y43815
X56109Y35302
X59207Y33274
X73660Y46990
X63297Y34493
X55245Y47625
X47219Y21996
X57074Y24130
X38100Y20320
X43815Y20320
X63830Y19787
X67894Y18999
X57785Y41275
X48920Y34315
X49530Y48260
X52578Y33757
X53340Y45720
X40361Y43358
M30