M48
;GenerationSoftware,Autodesk,EAGLE,9.6.2*%
;CreationDate,2023-01-12T17:05:01Z*%
FMAT,2
ICI,OFF
METRIC,TZ,000.000
T6C0.350
T5C0.381
T4C1.016
T3C3.000
T2C3.509
T1C4.500
%
G90
M71
T1
X87912Y65561
X87912Y13567
T2
X16677Y13554
X16677Y65561
T3
X66677Y13554
X66677Y65561
T4
X41666Y13996
X44206Y13996
X46746Y13996
X41275Y28892
X38735Y28892
X35560Y48577
X33020Y48577
X39126Y13996
T5
X32067Y32067
X53975Y33338
X59372Y33338
X50165Y33338
X37148Y23177
X40958Y23177
X44767Y23177
X48577Y23177
X45720Y33338
X36195Y56197
X31750Y56197
X52387Y28257
T6
X52705Y40323
X50800Y47625
X54927Y40005
X52070Y47625
X55880Y47625
X53340Y51435
X54458Y47244
X66040Y36195
X49656Y47625
X50343Y41123
X41471Y38931
X70485Y34925
X59690Y37931
X64770Y50165
X51435Y52705
X52959Y47168
X44450Y46990
X47625Y43180
M30